<svg xmlns="http://www.w3.org/2000/svg" viewBox="0 0 96.48 140.6"><title>Asset 2-240</title><g id="Layer_2" data-name="Layer 2"><g id="Layer_30" data-name="Layer 30"><path d="M42.64,140.6q4.64-2.59,9.19-5.33l2.27-1.39,1.79-1.11,1.9-1.2q3.79-2.42,7.48-5a97.74,97.74,0,0,0,13.87-10.9A56.54,56.54,0,0,0,95,86.87c.29-1.33.53-2.68.73-4s.26-2.78.4-4.17.27-2.78.31-4.2V70.18c.05-2.85-.14-5.73-.22-8.6s-.37-5.75-.55-8.63l-.32-3.45c-.08-.89-.17-1.77-.28-2.65-.2-1.77-.4-3.53-.65-5.29A233.33,233.33,0,0,0,84.93,0L1.46,27.4A145.51,145.51,0,0,1,7.38,53.26c.16,1.1.28,2.2.41,3.3.07.55.12,1.1.17,1.65l.08.86H8l-.11.07-1.57,1Q3.22,62,0,63.8Z" fill="none"/><path d="M39.39,14.95c.11,0,.11,0,.14,0,.25-.06.7,0,.74.26C40,15.09,39.52,15.17,39.39,14.95Z" fill-rule="evenodd"/><path d="M33.85,18.64c.27,0,.13.22.24.29C33.91,18.86,33.52,18.84,33.85,18.64Z" fill-rule="evenodd"/><path d="M34.87,19c.36-.11.26.12.34.22C34.73,19.33,34.9,19.05,34.87,19Z" fill-rule="evenodd"/><path d="M34.39,19.41c.15-.15.16.19.32.18l-.34.11c-.07.29.46.17.42.44C34,20.24,34.26,19.71,34.39,19.41Z" fill-rule="evenodd"/><path d="M35.11,19.26c.39-.13.39,0,.44.15A1,1,0,0,1,35.11,19.26Z" fill-rule="evenodd"/><path d="M35.06,19.48c.34,0,.57.19.29.44C35,19.94,35.33,19.66,35.06,19.48Z" fill-rule="evenodd"/><path d="M54.05,13.48c.27-.07.14.17.52,0,0,0,0,.05-.1.08l0,.08A.37.37,0,0,1,54.05,13.48Z" fill-rule="evenodd"/><path d="M53.56,14.23c.25,0,.39,0,.43.14C53.73,14.4,53.6,14.35,53.56,14.23Z" fill-rule="evenodd"/><path d="M67,10.15c.32.06.26.31.28.45C67,10.61,67.12,10.28,67,10.15Z" fill-rule="evenodd"/><path d="M34.7,20.62c.53,0,.17.33,0,.48C34.48,21.07,34.87,20.75,34.7,20.62Z" fill-rule="evenodd"/><path d="M54.2,15.34c.23-.17-.14-.11-.1-.29.29-.11.33.23.51,0,.27,0,.12.22.23.29C54.6,15.38,54.55,15.24,54.2,15.34Z" fill-rule="evenodd"/><path d="M67.23,11.58c.09-.1.54.51.09.65A1.74,1.74,0,0,0,67.23,11.58Z" fill-rule="evenodd"/><path d="M55.14,16.6c.2,0,.4.12.22.25S55.23,16.66,55.14,16.6Z" fill-rule="evenodd"/><path d="M34.59,22.84c.55-.15.14.19,0,.25C34.16,23.14,34.82,22.91,34.59,22.84Z" fill-rule="evenodd"/><path d="M35.32,25c.13-.16.24.17.07.22C34.87,25.32,35.49,25.12,35.32,25Z" fill-rule="evenodd"/><path d="M36.47,24.68c.17,0,.08.1.27,0-.2.12.15.44-.11.44Z" fill-rule="evenodd"/><path d="M35.5,27.09c.29,0,.47.49-.05.65C35.52,27.53,35.63,27.32,35.5,27.09Z" fill-rule="evenodd"/><path d="M55.06,23c-.49,0,0-.63,0,0Z" fill-rule="evenodd"/><path d="M35,29.29c.64,0,.48.22.4.49C34.87,29.8,35.34,29.4,35,29.29Z" fill-rule="evenodd"/><path d="M53,25.58c.18,0,.39,0,.4.07-.23.16-.46.1-.81.21C52.46,25.66,52.93,25.75,53,25.58Z" fill-rule="evenodd"/><path d="M53.6,28.26c.27,0,.1.19.2.26C53.34,28.59,53.67,28.38,53.6,28.26Z" fill-rule="evenodd"/><path d="M35.29,32.67c.2,0,.55.16.07.26C35.49,32.77,35.35,32.8,35.29,32.67Z" fill-rule="evenodd"/><path d="M59.61,27.05c.41-.12.24.3-.15.35C59.34,27.27,59.67,27.18,59.61,27.05Z" fill-rule="evenodd"/><path d="M35.52,33c.55.19.34.22.55.62C35.57,33.66,35.61,33.32,35.52,33Z" fill-rule="evenodd"/><path d="M33.5,34.26c.28,0-.38.26-.14.38C33,34.63,33.29,34.36,33.5,34.26Z" fill-rule="evenodd"/><path d="M33.26,34.75c.24,0,.15.11.39.07,0,.06-.28.1-.46.14C33.28,34.89,33.32,34.82,33.26,34.75Z" fill-rule="evenodd"/><path d="M36.43,34.06c-.46.25-.13.41-.08.65C36,34.65,35.55,34.34,36.43,34.06Z" fill-rule="evenodd"/><path d="M10.49,40.13c.4-.12.23.06.15.1C10.76,40.51,10.32,40.18,10.49,40.13Z" fill-rule="evenodd"/><path d="M53.73,30.54c.14-.16.48-.06.39.08C53.68,30.8,54,30.46,53.73,30.54Z" fill-rule="evenodd"/><path d="M40.81,34.24c.53-.11.58.14.45.3C40.79,34.56,41.26,34.26,40.81,34.24Z" fill-rule="evenodd"/><path d="M37.92,35c.12,0,.21.07.24,0,.31,0,0,.19-.31.23-.1,0-.15-.06-.16-.12S37.9,35,37.92,35Z" fill-rule="evenodd"/><path d="M42.42,34.69c.14-.16.23.19.06.23s-.11,0-.13,0-.06,0-.13,0S42.59,34.79,42.42,34.69Z" fill-rule="evenodd"/><path d="M54.3,32.72c.2-.14.15.28.22.39C54.13,33.07,54.43,32.91,54.3,32.72Z" fill-rule="evenodd"/><path d="M49.26,34.31l0,.16C48.86,34.59,48.8,34.37,49.26,34.31Z" fill-rule="evenodd"/><path d="M49.7,35.06c.67-.06-.09.31.11.44C49.56,35.48,49.56,35.16,49.7,35.06Z" fill-rule="evenodd"/><path d="M30.24,39.8c.06.1-.24.16-.18.26C29.69,40.13,29.84,39.86,30.24,39.8Z" fill-rule="evenodd"/><path d="M45.61,38c.36,0,.37.2.32.31C45.71,38.31,45.74,38.13,45.61,38Z" fill-rule="evenodd"/><path d="M45.75,38.63c.4,0,.06.35.36.47C45.75,39.1,45.74,38.71,45.75,38.63Z" fill-rule="evenodd"/><path d="M29.66,42.5c.28,0,.15.25-.3.28C29.29,42.67,29.87,42.63,29.66,42.5Z" fill-rule="evenodd"/><path d="M45,39.79c.42,0,.37.18.44.33-.29.09-.26-.23-.5,0C44.67,40.09,45.11,39.88,45,39.79Z" fill-rule="evenodd"/><path d="M45.66,40.41c-.22.12-.23,0-.48,0,.09-.09-.05-.21.31-.26-.06,0-.11.09-.09.14S45.68,40.33,45.66,40.41Z" fill-rule="evenodd"/><path d="M45.77,40.35c.36,0-.33.32.09.39C45.28,40.8,45.46,40.48,45.77,40.35Z" fill-rule="evenodd"/><path d="M65.44,37.66c.48-.11.21.18,0,.22C65.13,37.91,65.62,37.74,65.44,37.66Z" fill-rule="evenodd"/><path d="M56.06,40.25c.44-.11.32.22-.07.23C56.08,40.41,56.12,40.33,56.06,40.25Z" fill-rule="evenodd"/><path d="M61.68,40.15c.19,0,.38.17.18.28S61.77,40.23,61.68,40.15Z" fill-rule="evenodd"/><path d="M82.2,37.54c.17,0,.24.06.27.15-.21,0-.24.1-.46.13l0-.14C82.2,37.71,82.26,37.68,82.2,37.54Z" fill-rule="evenodd"/><path d="M50.46,44.56c.45.49.14,1.1.21,1.72C49.34,45.88,50.93,45.06,50.46,44.56Z" fill-rule="evenodd"/><path d="M70.73,41.39c.39-.07.58.16,0,.22Z" fill-rule="evenodd"/><path d="M75.89,40.91c.26,0,.17.27.06.32C75.58,41.22,76,41,75.89,40.91Z" fill-rule="evenodd"/><path d="M71,42.23c.2,0,.29.14.3.28C70.87,42.61,71.12,42.31,71,42.23Z" fill-rule="evenodd"/><path d="M72.55,42.6c.19-.24.53.23,0,.23C72.41,42.73,72.9,42.58,72.55,42.6Z" fill-rule="evenodd"/><path d="M72.6,42.91c.3-.06.5.33.06.36C72.81,43.11,72.58,43.12,72.6,42.91Z" fill-rule="evenodd"/><path d="M50.32,46.36c.51-.09.18.26.65.2-.06.11-.13.21-.44.27C50.18,46.74,50.52,46.44,50.32,46.36Z" fill-rule="evenodd"/><path d="M55.77,46.21c.31-.2.26.16.29.26s-.11,0-.12,0l-.24,0C55.63,46.39,56,46.2,55.77,46.21Z" fill-rule="evenodd"/><path d="M55.31,47c.27,0,.58,0,.53.22C55.71,47.17,55.4,47.16,55.31,47Z" fill-rule="evenodd"/><path d="M66.89,45.7a.31.31,0,0,1,.28.23C66.79,46,66.71,45.8,66.89,45.7Z" fill-rule="evenodd"/><path d="M73.44,44.88c.13,0,.1.08.25.06-.33.13-.25.15-.32.28C73,45.19,73.32,44.95,73.44,44.88Z" fill-rule="evenodd"/><path d="M83.23,43.77c.45-.1.19.2.3.3C83.18,44.11,83.27,43.9,83.23,43.77Z" fill-rule="evenodd"/><path d="M26.27,52.81a1.26,1.26,0,0,1,.63.14c-.17,0-.31-.1-.36,0S26.26,52.9,26.27,52.81Z" fill-rule="evenodd"/><path d="M71.64,47.2c.23.06.17.41-.17.48A.75.75,0,0,0,71.64,47.2Z" fill-rule="evenodd"/><path d="M23.87,53.75a1.64,1.64,0,0,0,.36,0c-.36.22-.16.22,0,.47C23.63,54.18,23.69,53.92,23.87,53.75Z" fill-rule="evenodd"/><path d="M28.32,53.43c.38,0,.25.25.31.4C28.31,53.77,28.42,53.64,28.32,53.43Z" fill-rule="evenodd"/><path d="M24,54.31c.7-.1-.12.25.39.13.29,0,0,.11-.1.12.18.47-.26.19-.13,0,0,0-.15,0-.24,0S24.07,54.4,24,54.31Z" fill-rule="evenodd"/><path d="M77.24,48c.26,0,.49.13.28.25A.32.32,0,0,1,77.24,48Z" fill-rule="evenodd"/><path d="M72.15,48.89c-.47.2,0,.33.19.44a1.59,1.59,0,0,0-.48,0c0-.16-.09-.25-.18-.35A1.55,1.55,0,0,1,72.15,48.89Z" fill-rule="evenodd"/><path d="M73.6,48.81c.21.32,1.17.53.75.89-.26,0-.08-.19-.16-.26-.34,0-.19.22-.19.35C73.68,49.62,73.32,49.09,73.6,48.81Z" fill-rule="evenodd"/><path d="M24.09,55c.34,0,.24.12.28.22C24.12,55.25,24.09,55.15,24.09,55Z" fill-rule="evenodd"/><path d="M24,55.36c.37-.06.39,0,.39.13C24.16,55.5,24,55.49,24,55.36Z" fill-rule="evenodd"/><path d="M24.3,55.58c.58-.07-.53.53.42.34A1.59,1.59,0,0,1,24,56C24.12,55.81,24.22,55.8,24.3,55.58Z" fill-rule="evenodd"/><path d="M74.21,50.45l.36,0c-.19.13-.27.28-.18.48-.31,0,.08-.27-.38-.14C74.11,50.66,74.33,50.6,74.21,50.45Z" fill-rule="evenodd"/><path d="M54.18,52.71c0,.15.09.31-.31.37C53.87,52.93,53.74,52.76,54.18,52.71Z" fill-rule="evenodd"/><path d="M73.8,51a1,1,0,0,0,.6,0c-.24.12,0,.22.27.2.08.14-.59.08-.45.23C74.09,51.24,73.83,51.16,73.8,51Z" fill-rule="evenodd"/><path d="M76.32,50.83c.27,0,.44.27-.08.29C76.37,51,76.36,50.94,76.32,50.83Z" fill-rule="evenodd"/><path d="M74,51.45c.27.07.46.17.29.34A.32.32,0,0,1,74,51.45Z" fill-rule="evenodd"/><path d="M73.52,51.59c.42,0,.35.12.16.26S73.6,51.67,73.52,51.59Z" fill-rule="evenodd"/><path d="M76.58,51.78c.12-.08.31.4.18.45C76.48,52.2,76.67,51.92,76.58,51.78Z" fill-rule="evenodd"/><path d="M25.38,57.1c.26,0,.27.06.26.15a6.08,6.08,0,0,1-.72,0C25,57.21,25.35,57.18,25.38,57.1Z" fill-rule="evenodd"/><path d="M72.92,52.48c.4-.11.65.46.44.56,0,0-.12-.16-.2-.28S73,52.51,72.92,52.48Z" fill-rule="evenodd"/><path d="M82.66,52.05l0,.2c-.1.08-.61.12-.61-.07C82.42,52.2,82.37,52.05,82.66,52.05Z" fill-rule="evenodd"/><path d="M27.49,57.35c.18,0,.54,0,.49,0C27.7,57.41,27.42,57.42,27.49,57.35Z" fill-rule="evenodd"/><path d="M27.54,57.61c.36,0,.31,0,.38.08C27.55,57.72,27.61,57.65,27.54,57.61Z" fill-rule="evenodd"/><path d="M74.58,54.14c.25.08.15,0,.48,0-.13.1-.07.29-.45.29Z" fill-rule="evenodd"/><path d="M73.85,55.12c-.2,0-.23,0-.25-.11s-.21,0-.23.08C72.93,54.92,73.92,54.84,73.85,55.12Z" fill-rule="evenodd"/><path d="M79.83,54.65c.36.36-.21.5.21.86C79.4,55.56,79.56,54.76,79.83,54.65Z" fill-rule="evenodd"/><path d="M73.65,55.51c.36,0,.45.2.64.33-.12,0-.46-.12-.35.08-.17,0-.32-.22-.37,0C73.07,55.7,74.09,55.72,73.65,55.51Z" fill-rule="evenodd"/><path d="M75.08,55.42c.6.1.09.66.09.88C74.75,56,75.42,55.76,75.08,55.42Z" fill-rule="evenodd"/><path d="M26.81,58.23c.33,0-.22.13-.08.2C26.39,58.4,26.73,58.29,26.81,58.23Z" fill-rule="evenodd"/><path d="M79.85,57.4c0-.08.21-.06.35-.08-.07.21.43.44.51.32.32.32,0,.63.22,1a1.11,1.11,0,0,0-.49-.06C80.89,58,80.06,57.86,79.85,57.4Z" fill-rule="evenodd"/><path d="M74.87,58.06c.26.15.42.66-.2.44C75.12,58.41,74.58,58.22,74.87,58.06Z" fill-rule="evenodd"/><path d="M81.65,58.51c.36-.11.41.44,0,.34Z" fill-rule="evenodd"/><path d="M75.18,58.74c.19-.1.14.49.3.62C74.92,59.29,75.18,59,75.18,58.74Z" fill-rule="evenodd"/><path d="M74.82,58.81c.25.36-.23.88-.61,1.12C73.9,59.65,74.73,59.25,74.82,58.81Z" fill-rule="evenodd"/><path d="M80.59,58.8c.7.05-.39.39.28.4,0,.09-.3.06-.47.07A2.78,2.78,0,0,0,80.59,58.8Z" fill-rule="evenodd"/><path d="M76.29,59.11c.26,0,.08.23.15.32a1.38,1.38,0,0,0-.6,0C75.91,59.28,76.23,59.26,76.29,59.11Z" fill-rule="evenodd"/><path d="M77.17,59.49c.31.07.62.26.27.32A.32.32,0,0,1,77.17,59.49Z" fill-rule="evenodd"/><path d="M76.4,60.12c.29.18.67.62.3.77-.25-.12-.05-.24-.49-.14C76.48,60.66,76.44,60.39,76.4,60.12Z" fill-rule="evenodd"/><path d="M50.51,60.73s.22,0,.36,0-.18.12-.22.19C50.22,60.86,50.85,60.72,50.51,60.73Z" fill-rule="evenodd"/><path d="M76.29,61.9c.63-.09.64,1.19-.17.94,0-.07.22,0,.36,0C76.21,62.53,76.66,62.18,76.29,61.9Z" fill-rule="evenodd"/><path d="M49.26,61.41c.15.07.49.15.26.21l-.36,0C49.11,61.51,49.16,61.45,49.26,61.41Z" fill-rule="evenodd"/><path d="M51.12,61.95c.15,0,.27.31.29.46C51.11,62.3,51.13,62.12,51.12,61.95Z" fill-rule="evenodd"/><path d="M25.76,60.47s-.3,0-.35.07C25.19,60.51,25.46,60.45,25.76,60.47Z" fill-rule="evenodd"/><path d="M49.5,62.57c.31.08.67.15.63.32C49.88,62.8,49.57,62.72,49.5,62.57Z" fill-rule="evenodd"/><path d="M77.49,65.41c.27.05.07.32.15.46C77.34,65.77,77.37,65.58,77.49,65.41Z" fill-rule="evenodd"/><path d="M50.41,63.19c.25,0,.13.16.38.19,0,0,0,0-.12,0s-.11,0-.12,0C50.32,63.38,50.21,63.24,50.41,63.19Z" fill-rule="evenodd"/><path d="M25.51,61.12l.36,0c-.14,0,.11.35-.1.1C25.66,61.21,25.45,61.17,25.51,61.12Z" fill-rule="evenodd"/><path d="M21.15,60.66c.34.06.26.1.14.11C21,60.73,21.23,60.7,21.15,60.66Z" fill-rule="evenodd"/><path d="M51,64.92c.47.07.27.44.16.5S51.34,65.08,51,64.92Z" fill-rule="evenodd"/><path d="M21.09,60.94c.1,0,.52.13.14.09S20.76,60.92,21.09,60.94Z" fill-rule="evenodd"/><path d="M20.62,61,21,61a1.37,1.37,0,0,1-.48,0S20.66,61,20.62,61Z" fill-rule="evenodd"/><path d="M78.17,70.11c.26.09.43.22.38.45C78.26,70.48,78.27,70.27,78.17,70.11Z" fill-rule="evenodd"/><path d="M25.89,62c.27,0,.19.09.49.13a1.27,1.27,0,0,1-.48,0C25.73,62.06,26.24,62.12,25.89,62Z" fill-rule="evenodd"/><path d="M21.4,61.34c.51.09,0,0,.26.12l-.37-.06C21.2,61.34,21.5,61.4,21.4,61.34Z" fill-rule="evenodd"/><path d="M22.75,61.64c.25,0-.06.09.5.16C23,61.82,22.59,61.67,22.75,61.64Z" fill-rule="evenodd"/><path d="M20.83,61.44c.12,0,.1,0,.13,0a.25.25,0,0,0,.12,0c.17,0,.11,0,.13.07C20.77,61.5,20.83,61.47,20.83,61.44Z" fill-rule="evenodd"/><path d="M22.93,62l.49.09c-.16,0-.11,0-.11.08C22.91,62.1,23,62.07,22.93,62Z" fill-rule="evenodd"/><path d="M20.31,61.78c.17.07.37.15.51.23C20.41,61.9,20.28,61.83,20.31,61.78Z" fill-rule="evenodd"/><path d="M78.53,74.12c.43.18-.08.54,0,.84-.32,0,.12-.34-.35-.33C78.59,74.55,78.39,74.39,78.53,74.12Z" fill-rule="evenodd"/><path d="M20.62,63l.49.15c-.32-.1-.52-.09-.12,0s-.25,0-.11,0C20.66,63.1,20.61,63,20.62,63Z" fill-rule="evenodd"/><path d="M20.69,63.67c.25.1.27.14.25.18S20.5,63.64,20.69,63.67Z" fill-rule="evenodd"/><path d="M81.79,85.73c.23.1,0,.3.16.41a.49.49,0,0,0,.27-.12c.31.24-.14.33-.51.1C81.85,85.93,81.56,85.77,81.79,85.73Z" fill-rule="evenodd"/><path d="M23.48,64.95a.81.81,0,0,0,.24.09c.25.13-.26-.07,0,.09C23.42,65,23.49,65,23.48,64.95Z" fill-rule="evenodd"/><path d="M22.15,64.49c.24.11.15.17,0,.14S22,64.45,22.15,64.49Z" fill-rule="evenodd"/><path d="M23.73,65.15c.13.1,0,.1,0,.17-.26-.13,0-.13-.24-.24A.91.91,0,0,0,23.73,65.15Z" fill-rule="evenodd"/><path d="M19,63.85c.33.17-.2,0,.11.15C18.44,63.7,19,63.89,19,63.85Z" fill-rule="evenodd"/><path d="M20.2,64.38c.39.15.09.08.48.23,0,0-.35-.14-.36-.12C19.91,64.3,20.26,64.44,20.2,64.38Z" fill-rule="evenodd"/><path d="M18.28,63.57c-.17-.06-.08,0-.24,0S17.78,63.35,18.28,63.57Z" fill-rule="evenodd"/><path d="M20.18,64.59c.3.17.42.36.09.23a1.07,1.07,0,0,1-.35-.22c.31.19.48.11-.11-.12C19.78,64.43,20.28,64.67,20.18,64.59Z" fill-rule="evenodd"/><path d="M20.81,65.35l.35.17c.11.11-.45-.2-.37-.11C20.52,65.27,20.74,65.33,20.81,65.35Z" fill-rule="evenodd"/><path d="M19.57,65c.62.33,0,.09.32.28C19.5,65,19.77,65.1,19.57,65Z" fill-rule="evenodd"/><path d="M17,63.68l.35.18c-.27-.13.09.12-.37-.13Z" fill-rule="evenodd"/><path d="M76.45,97.72c.26.17.07.39,0,.69-.17-.12-.23-.07-.28,0C76.08,98.17,76.55,98.06,76.45,97.72Z" fill-rule="evenodd"/><path d="M14.43,62.8c.22.14,0,.07.21.18C14.25,62.75,14.33,62.76,14.43,62.8Z" fill-rule="evenodd"/><path d="M72.52,103.29a.36.36,0,0,1,.09.46C72.16,103.54,72.42,103.43,72.52,103.29Z" fill-rule="evenodd"/><path d="M69.14,108.54c.06.1,0,.25.14.2.05.42-.4.66-.8.75C68.67,109.13,68.86,109,69.14,108.54Z" fill-rule="evenodd"/><path d="M67.79,107.64c.16.29.05.54.18.83C67.47,108,67.61,107.89,67.79,107.64Z" fill-rule="evenodd"/><path d="M67.67,108.92c.12.08.17,0,.24-.06.21.27-.07.44.12.71-.15,0-.25-.15-.14-.2-.38-.24-.24-.19-.62-.42a1.15,1.15,0,0,0,.16-.65,1,1,0,0,1,.57.3C68.19,109,67.54,108.64,67.67,108.92Z" fill-rule="evenodd"/><path d="M68.27,109.85c.29.36-.12.31-.16.49s.58.4-.2.19C67.88,110.14,68.16,110.17,68.27,109.85Z" fill-rule="evenodd"/><path d="M13.21,63.56c.61.54-.13-.07.16.2C13,63.44,13.28,63.64,13.21,63.56Z" fill-rule="evenodd"/><path d="M66.67,111.29c.17.06-.25.48-.4.66C66.23,111.69,66.42,111.48,66.67,111.29Z" fill-rule="evenodd"/><path d="M65,111.62c-.27-.07-.14.1-.26.22C64.3,111.56,64.66,111.25,65,111.62Z" fill-rule="evenodd"/><path d="M62.91,110.65c.06.22-.15.1-.23.34C62.31,110.72,62.8,110.61,62.91,110.65Z" fill-rule="evenodd"/><path d="M11.36,62.36c-.18-.15,0,.06.07.12C11.18,62.22,10.85,61.86,11.36,62.36Z" fill-rule="evenodd"/><path d="M52.43,102.6l.26.26c.1.29-.26.21-.4.31C52.37,103,52.25,102.74,52.43,102.6Z" fill-rule="evenodd"/><path d="M53.72,107.08c.14.16.11.26,0,.32-.09-.11-.16-.15-.22-.14C53.29,107,53.64,107.05,53.72,107.08Z" fill-rule="evenodd"/><path d="M54,107.63c0,.2-.21.1-.26.35-.33-.29-.11-.38,0-.48C53.87,107.6,53.94,107.64,54,107.63Z" fill-rule="evenodd"/><path d="M55.82,110.63a5,5,0,0,1-.14.7c-.1-.06-.19-.12-.27-.1-.22-.2.28-.12-.09-.38C55.59,110.85,55.53,110.74,55.82,110.63Z" fill-rule="evenodd"/><path d="M45.36,102.16c.45.49-.29.2-.19.58.34.43.42.1.46,0,.55.74-.74,0,0,.77-.15,0-.31,0-.43.16-.32-.3.06-.25.1-.37-.47-.24-.13-.42-.67-.7A.72.72,0,0,0,45.36,102.16Z" fill-rule="evenodd"/><path d="M11,62.68c.45.53-.07,0,.29.4-.14-.16-.41-.53-.62-.74S11,62.69,11,62.68Z" fill-rule="evenodd"/><path d="M12.08,64.21a5.25,5.25,0,0,1,.42.6l-.37-.48S11.94,64.06,12.08,64.21Z" fill-rule="evenodd"/><path d="M11.47,63.47c.12.21.58.81.61.92l.22.28-.19-.33a9.07,9.07,0,0,0,.76.93c.37.54-.57-.64-.51-.49-.32-.42-.51-.66-.67-.85l-.48-.7s.13.13.31.36C11.34,63.35,11.46,63.5,11.47,63.47Z" fill-rule="evenodd"/><path d="M13.69,66.49c0,.11-.46-.59-.48-.53-.05-.09-.17-.26-.19-.32C13.35,66.09,13.39,66.09,13.69,66.49Z" fill-rule="evenodd"/><path d="M44.72,109.55c.06.35.14.27.43.58-.1,0,0,.19-.12.23C45,110.11,44.39,109.59,44.72,109.55Z" fill-rule="evenodd"/><path d="M48.31,115.39c0,.26-.11.5-.41,0C48,115.19,48.2,115.57,48.31,115.39Z" fill-rule="evenodd"/><path d="M48.13,118.56c.27.33-.35.56-.49.47-.1.15.13.46.23.71A4.2,4.2,0,0,1,47,119c0-.24.6-.49.63-.14C47.8,118.75,47.88,118.55,48.13,118.56Z" fill-rule="evenodd"/><path d="M40.13,108.32c.09.31-.29.26-.43.15S40,108.42,40.13,108.32Z" fill-rule="evenodd"/><path d="M37.19,106.54c0,.19,0,.46-.07.62C36.79,106.63,37,106.56,37.19,106.54Z" fill-rule="evenodd"/><path d="M28.15,92.53l.19.31c-.08,0-.1.24-.23,0S28.11,92.62,28.15,92.53Z" fill-rule="evenodd"/><path d="M27.44,91.85a.55.55,0,0,1,.09.52c-.18-.31-.34-.26-.41-.59C27.19,91.66,27.38,92,27.44,91.85Z" fill-rule="evenodd"/><path d="M9.46,63.92c-.1.15,0,.4-.29.19-.07-.14,0-.19.09-.06a.82.82,0,0,0-.17-.47Q9.22,63.54,9.46,63.92Z" fill-rule="evenodd"/><path d="M9.09,63.45c-.48-.36-.56.17-1.16-.51C8.17,63.08,8.58,62.78,9.09,63.45Z" fill-rule="evenodd"/><path d="M31.71,101.41c0,.13-.12.37-.37,0C31.45,101.32,31.6,101.46,31.71,101.41Z" fill-rule="evenodd"/><path d="M9.36,65.88c.17.32.31.62.23.71a4.31,4.31,0,0,1-.41-.74C9.26,65.92,9.31,65.92,9.36,65.88Z" fill-rule="evenodd"/><path d="M28.71,97.79c0,.72-.92.43-1.62-.37C27.43,97.36,28.3,98.11,28.71,97.79Z" fill-rule="evenodd"/><path d="M25,94.77c.21.44-.15.08-.21.28.13.23.22.31.29.24.09.37-.33-.11-.48-.26-.21-.3,0-.26-.24-.56C24.56,94.41,24.81,94.68,25,94.77Z" fill-rule="evenodd"/><path d="M10.78,72.71c0,.37-.43.05-.63,0C10.13,72.34,10.64,72.9,10.78,72.71Z" fill-rule="evenodd"/><path d="M7.85,77.44,8,77.9a1.25,1.25,0,0,1-.53-.65C7.58,77.18,7.73,77.39,7.85,77.44Z" fill-rule="evenodd"/><path d="M41,15.37l-.07-.19c.16,0,.32-.1.33-.15s.38-.06.4,0c-.53.13-.86.62-1.13.41A1.79,1.79,0,0,0,41,15.37Z" fill-rule="evenodd"/><path d="M32.88,24.87c.33.08.3.47,0,.65Z" fill-rule="evenodd"/><path d="M35.46,26.22c0-.1.25-.18.16-.29.33,0,.82-.15.66-.3a3.28,3.28,0,0,0,.57.21c-.49.09-.87.38-1,.18-.35.13-.12.14-.05.22C35.72,26.4,35.75,26.1,35.46,26.22Z" fill-rule="evenodd"/><path d="M31,29.45c.69-.2,1,.08.45.23C31.51,29.32,31.28,29.55,31,29.45Z" fill-rule="evenodd"/><path d="M35.52,28.81c-.35.09-.34-.17-.2-.27s.2,0,.37,0C35.42,28.6,35.3,28.68,35.52,28.81Z" fill-rule="evenodd"/><path d="M31.38,34.68c-.13.37-.21.84,0,1-.84.32.43.69-.84,1,0,.15.69-.09.64.09a6,6,0,0,0-.5.45c.41,0,.29.27-.14.41,0,0-.21,0-.25,0,.34-.22.14-.56-.17-.64.06.26-.13.65.22.82,0,0,0-.1.09-.13s.29.05.29.17c-.25.08-.4,0-.34.11s.34,0,.39.07c-.28.31-.39.71,0,.88-.9.53.53,1-1,1.34.34.24.46.52,0,.91,0,.06.4-.05.38,0-.64.42.5.67.26,1.08-.47.06,0-.38-.53-.16.58.43-.28,1-.17,1.41-.28,0-.15-.14-.51-.06.05.11-.11.39.11.5a2.2,2.2,0,0,1-.46.12c.34.22-.13.53-.3.87.28,0,.42-.17.47-.08l0,.21c-.17,0-.45,0-.47.12.27.27,0,.7.56.9-.46,0-.09.11-.1.13l-.24,0c-.45.63.92,1.55.28,1.91.26-.1.79,0,.42.23s-.25,0-.49,0a18.35,18.35,0,0,1,.53,2.83s0-.07.11-.09c-.07.5-.37.74,0,1.11-.14.38.11,1,.09,1.24.07,0,.22-.24.34-.15a1,1,0,0,0-.5,1.34c-.56.1-.51.49.07.43.05-.12-.06-.18-.27-.19.16-.06,0-.19.45-.2,0,.18.23.75-.29.51.51.51-.34.77.06,1.23-.57.1-.59.3-.55.47s.13.2-.19.22c.31.05.27.19-.19.3-.34-.16-.14-.31-.44-.4.05.07,0,.13-.21.17.41.06.37.16.05.27.53,0,.09.07,0,.09.39,0,.08-.07.47-.07.22.11.07.28-.29.42,0,0-.09-.06-.25-.06.2.09-.43.24.28.23.06,0-.17-.12.1-.14s.1.23-.18.33c0,0,0-.14-.13-.07s.18.11.27.16c-.84.22-.51.34-.75.54.44,0,.34.13.4.22l-.36,0c-.32,0-.11-.07-.49-.06,0,.07.21.24-.3.33.25,0,.57.27-.2.27-.13-.13-.28-.23,0-.29-.41,0,.16-.35-.54-.33.17,0,.38,0,.35-.07-.19,0-.37-.08-.74-.11.86,0-.42-.09.34-.12.1-.06-.32,0-.37-.06a3.5,3.5,0,0,0,.46-.13c-1-.36,0-.77-.36-1.21-.1.11,0,.23-.42.31,0,0,.32-.12,0-.11-.1,0,0,.1-.22.13s.4-.2.2-.23c0,.11-.45,0-.48,0-.2.05.14.08-.33.18.23,0,.26,0,.47-.06,0,0-.32.06-.34.1,1.27.14.2.55.88.78-.62,0-.28.08,0,.06a2.68,2.68,0,0,1-.7.13c.82.05,0,.26.55.34-.71.09.17.32.08.43a.72.72,0,0,1,.24,0c.06.06.2.1-.1.13s.17,0,.11-.08c-.84.09-.14.3-.4.45a2,2,0,0,1,.38.12c-.33,0-.21.11-.21.18.35,0,.59.08.5.15.82,0,.58-.21.42-.32.47.09.54,0,.85.08-.66,0-.14.32-.29.38,0,0,0-.07.35,0,0,.05.35.18,0,.2.07-.08-.44-.1,0-.13a3.42,3.42,0,0,0-.82.07c.38,0,.14,0,.6,0,0,0,.1,0,.13,0-.33,0-.1.18-.58.09.22.14.14.33-.55.3.31.24.69.45.45.63a3,3,0,0,0-.48-.05,3.4,3.4,0,0,1,.5.16c-.42-.06,0,0-.24,0a3.12,3.12,0,0,0-.37-.09s0,.06-.11.06c.38.07.14,0,.6.06,0,0,.2.08.26.12-.44,0,.37.23-.08.28-.16,0-.23-.06-.49-.1,0,.07.55.16.63.23-.18,0-.21-.07-.37-.1.89.25-.06.28-.08.32a.46.46,0,0,1,.24,0c-.2.23.1.53.1.79-.14,0-.19-.07-.24-.06.12.13,1.55,1.12.07.61,0,0,0,0-.12,0s0,0-.13-.08.2.2.27.29l-.48-.09c.87.37-.46.07-.09.3-.32-.09-.1-.09-.49-.2,1,.48.18.51.54.86-.32-.1.11-.06-.37-.19.35.29-.06.47.26.81-.37-.19-.17,0-.48-.12-.81-.45-.07-.33-.74-.75a4.53,4.53,0,0,0-.61-.2c1.13.45.46.41.86.69a2.12,2.12,0,0,1-.48-.15c.7.39.52.58.1.6.53.27-.1.12.22.34a7.12,7.12,0,0,1-.72-.38c.32.12.51.27.48.19-.88-.39-.27-.34-.58-.51,0,0-.21-.1-.48-.19.33.2,0,.11.35.33-.37-.12-.74-.15,0,.09-.7-.24-.16.11-.74-.09.12-.12-.43-.41-.45-.53-.42-.11-.2,0-.25.06L21.89,65c-.08.16,0,.35-.77.14a2.88,2.88,0,0,1,.35.18c-.51-.15-.32.1-.3.2s0,0,.24.09c0,.06.08.18-.39,0,0,.05.51.27.46.28-.27-.09-.75-.31-1-.38.47.2.64.52-.15,0-.06,0,0,.1,0,.11a1.23,1.23,0,0,1-.39-.14,6.58,6.58,0,0,1,.55.38L22.58,67c-.21-.2-.33-.32.41,0L22.9,67c-.19-.14-.11-.2.16-.08-.71-.47.34-.09.24-.32.57.29.15,0,.61.22a1.61,1.61,0,0,0,.19.26,3.78,3.78,0,0,0-.71-.32c.34.19.23.22,0,.11.49.26.23,0,.5.17a5.44,5.44,0,0,0,.41.41c-.66-.3-.66-.19-.43,0l-.26-.11-.08,0-.24-.15.06.05c.37.35.13.41-.34.24.82.5-.34,0-.1.18a2,2,0,0,1,.36.16c-.11,0,.17.15.07.14a1.64,1.64,0,0,0-.61-.25c.2.13.4.18.45.26-.19,0-.3,0,0,.29-.37-.21-.68-.41-.72-.33l.44.28c.17.06-.29-.25,0-.06.17.2-.59-.19.09.32a1.28,1.28,0,0,1-.47-.24c.06,0,.43.26.37.16-.52-.3-.48-.37-.49-.42s-1.33-.66-.55-.13a13,13,0,0,1-1.31-.42l-.31-.23c-.26-.1.48.45-.18,0,0-.05.16,0-.12-.26,0,0-.1,0-.25-.1.29.13-.41-.28-.15-.22-.42-.26-.31-.24-.63-.45a2.56,2.56,0,0,1-.48-.21c-.27-.27-.16-.26.32,0,.05.05-.16,0,.08.11,0-.09.36.28.34.19a4.39,4.39,0,0,1-.6-.5c.43.3-.27-.22.37.15-.1-.08-.36-.25-.42-.31.75.37.75.17,1,.18a1.79,1.79,0,0,1-.47-.22s-.09-.06-.1-.08c.52.26,0-.13.62.22,0-.06-.09-.11.15,0-.25-.15-.54-.29-.43-.31s.21.15.44.28c.08-.05-.25-.4.27-.19l.09,0c-1.74-1.06.84,0-.45-.78.16.08.11,0,.24.09-.08,0,0,.06.35.21,0-.08,0,0,.26,0-.66-.29-.59-.16-1.09-.37-.22-.13-.07-.12-.1-.18-.35-.15-.37-.06-.38,0a3.12,3.12,0,0,1,.35.19s-.34-.13-.36-.13.43.41-.29.08c.07,0-.08-.1-.33-.24.11.14.07.2,0,.24s-.16.08-.16.19l-.23-.14c.23.2-.22,0,.26.38l-.33-.21a4,4,0,0,0,.4.36c-.26-.18-.39-.19-.69-.36q.37.21.32.22c-.17-.08-.27-.17-.34-.19a2.16,2.16,0,0,0,.37.39,5,5,0,0,0-.55-.36c.54.41-.34,0-.47,0,.15.06.33.25.09.1.26.19.36.19.44.28-.43-.27-.16,0-.37-.15-.39-.24,0-.07-.31-.24a4.45,4.45,0,0,0-.61-.26c-.43-.37.51.06-.26-.55-.26-.16.07.09.09.11-.73-.45-.07,0-.35-.17-.87-.58.1,0-.16-.23,0,0,0,0-.23-.12l-.1-.08c.09,0,.54.18-.06-.18.07,0,.84.43.6.25a7.15,7.15,0,0,1-1-.53c-.15-.09-.05-.08-.21-.16.34.26.27.24.29.3.18.1,0,0,.34.18,0,0,.1.12-.25-.09-.17-.13-.58-.35-.34-.19a3.27,3.27,0,0,1,.43.29c-.16-.1-.11,0-.12,0L14.21,63s.12.11.2.18c-.64-.32.47.54.07.38l-.1-.08c.46.33.07.12.39.34-.1-.06-.3-.16-.13,0s0,0,.23.12l.2.16c-.29-.19-.15-.08,0,0l-.32-.21c.13.15.08.14.14.23l-.3-.23c.09.09.09.11-.13,0s-.28-.25-.48-.41a1.92,1.92,0,0,0,.46.45c.07,0-.28-.24,0,0,.08.09.2.2.37.35-.18-.14-.24-.17-.21-.14-.25-.21-.56-.42-.72-.52l.71.53c-.11,0,.15.13.19.17s-.39-.25-.44-.25c-.31-.25-.33-.3-.57-.5-.08,0,.36.33.36.37a3.62,3.62,0,0,0-.4-.31c.59.51.33.42.38.53.24.19-.16-.16.11.06a2.05,2.05,0,0,1,.18.18c-.24-.19-.22-.15-.59-.46.32.31,0,.1.11.26-.14-.11-.72-.59-.4-.3,0,0,0,0,.2.15s.06.11,0,.15a12.08,12.08,0,0,0-1-.76c.12.13.23.2.27.25a3.89,3.89,0,0,0-.73-.45c-.12-.16-.14-.09-.36-.33.18.2.29.37.13.23a4.73,4.73,0,0,1,.35.35c-.16-.15-.32-.32-.19-.16a6.61,6.61,0,0,0-.53-.51c0,.06.33.33.34.35-.15-.13-.09-.06-.19-.15l-.25-.27c.05.07-.18-.17-.26-.26a4.36,4.36,0,0,1-.36-.32c.42.43.64.64.94,1,.05,0,.4.39.61.59,0,.11-.41-.13-1.07-.77-.26-.3-.5-.56-.74-.81,1.52,1.74-.29-.17.32.59L12,63.76c-.1,0,.3.45.57.81.11.2,0,.12.09.26-.09-.11-.18-.22-.16-.18s.15.16.38.47c0,.1.72,1,.52.84.42.51.65.83.81,1.05-.1-.12-.11-.1,0,0s.1.14.06.11-.59-.69-.26-.25a4.36,4.36,0,0,1,.71.81c0-.08.1,0,.27.24l.26.41c.16.19.26.29.4.45.19.33.29.69-.25.07.06.16.64,1,.11.38a2.72,2.72,0,0,0-.3-.53s.36.67,0,.18c-.39-.7-.57-1.15-.31-1-.46-.48-.23,0,0,.51-.2-.2-.19,0,0,.33-.07,0-.25-.31-.31-.36s.44,1.14-.32,0c-.13-.13.22.35.17.32a2.73,2.73,0,0,1-.35-.48c-.51-1-.74-1.52-1.25-2.4a9.5,9.5,0,0,1-.65-.85c-.14.08,1.47,2.5,1.15,2.65.67.9.69,1.48,1.37,2.26-.06,0-.08.09-.05.18a7.83,7.83,0,0,1,1.15,2c.11.17.12,0,.22.14-.1.07.17.46.26.69s.13-.06.25.12l4,5.52c.45.38,1.11,1.26,1.59,1.65.22.44.66.78.91,1.27,0-.06.09,0,.22.14-.06,0-.06.08.05.26,0-.16.35.43.38.47.58.73,1.19,1.22,1.85,2.07,0,.54-1.11-.58-1,.1-.26-.22-.43-.19-.81-.74.06-.07.09-.17-.13-.5-.41-.27-.73-.53-1.1-.39-.61-.88-.85-.32-1.27-.44-.13-.2,0-.19-.19-.45a1.26,1.26,0,0,1-1.36.34c-.85-1.11-1.41-.39-2.16-1.59a.86.86,0,0,1-.75-.37,9.79,9.79,0,0,0-.8-1.62c-.42-.5-.65-.29-1-.62.22.39.23.84-.06.62-.1-.22,0-.3-.12-.49-.49-.54-.77-1.07-1.23-1.63-.08.1-.16.34-.46-.13,0-.1.31.22.15-.1-.11.05-.32-.32-.43-.29.41.69-.11.11-.18.12,0,.29.32.5.43.87-.34.33-1.78-1.49-1.47-.33.12.12.19,0,.28,0a12.79,12.79,0,0,0,2,1.69,2.28,2.28,0,0,0,.21.43c.07-.13,0-.38.09-.49.16.18.32.34.4.17.15.56.36.39.59.76,0,.22,0,.25.31.66-.06,0,.13.31,0,.29a2.2,2.2,0,0,0-1.34,0c.54.61.92.53,1.39.81a5,5,0,0,0,1.35,1.69c.18.06-.17-.35,0-.29A19.32,19.32,0,0,1,19,85.27c-.44.19.28,1.4-.19,1.56a8.57,8.57,0,0,1,.39,1,1.69,1.69,0,0,0,.34.35,1.38,1.38,0,0,1,.14.62c.7,1.44.94.83,1.55,1.85-.13.46-.65.58-.56,1.22.18,0,.64.66.67,1,.38.21.89,1,1.25,1.19,0-.73-.69-1.9-.58-2.62,1.19,1.51,2,.64,2.55.76-.07,0-.15-.09-.25-.26.11-.19.29-.06.46,0-.27-.4.06-.28-.05-.54a.68.68,0,0,1-.35-.34c.55-.29.45-1.11.88-1.6-.07-.12-.18-.29-.16-.33.75-.37.95-1.22,1.27-1.75-.07-.12-.19-.28-.17-.32a.49.49,0,0,0,.44,0s-.09-.06-.16-.18c.51-.12.64-1,1.76.36-.12-.08-.14-.06,0,.15a1.67,1.67,0,0,1,.77.78c.05-.22.57.29.73.66a2.43,2.43,0,0,1,.31.37c.15,0,.12,0,0-.18a1.65,1.65,0,0,0,.24.27s-.11.06.06.25c.13-.22.36.41.62.59.07-.13-.38-.65-.13-.65.09.26.29.37.51.67,0,0-.29-.16-.12.08.08,0,.32.32.45.42s.08-.09,0-.18c.16.43.15-.12.45.41-.39-.11-.43.18-.5.51-.56-.6-.74-.11-1.29-.71a.61.61,0,0,0-.05-.26c-.12,0-.32-.29-.47-.41-.23.35-1.38-1.21-1.77-1.1.36.54.23.66,0,.59.33.5.16.44,0,.44.68.9.43,1.22,1,1.91-.12-.1-.2-.06-.05.18s.13-.13.32.22c.09.15,0,.14-.06.19.7,1,1,.74,1.62,1.36-.14.93-1.31-.39-1.54.19l-.25-.41c-.63-.09.43,1.59,0,1.62A3.19,3.19,0,0,1,29.21,97c.11.11,0,.45.14.77-.57.39,1.18,1.94,1.46,2.63a6.07,6.07,0,0,1,1.07,1c-.12.1,0,.25.15.33l-.14.09c.4.64.29.75.66,1,.16-.53.75-.3,1.44.48,0,0,.13.28,0,.27.26.48.32.12.55.49-.33,0-.84-.74-1.19-.79.21.27.11.3.28.53.08,0,0-.17.08-.2.05.24.26.27.45.57.14-.12.23.08.47.12-.09-.18,0-.48.18-.27-.25.11.23.24.15.48.4,0,.66.18.82,0a1.49,1.49,0,0,0,.29,1c.05-.13.2.17.3.23.56-.09,1.47.76,2.25.51.19.66-.45.62-.74,1.07a3.53,3.53,0,0,0,.48,1.12c.35-.36,1.55,0,1.65-1,.72.41.79-1,1.45-1.14.27-.05.73-.43.37-1.13.66-.38,1.08-1.14,1.82-1.72.25.21.19.5.35.34-.17-.65.58-.71.56-1.14-.79.45-1.6.7-2.33,1.21-.11-.13-.19-.11-.31-.23.62-.13.11-2,.6-1.16-.05-.15.42.09.53-.08-.58-.91.44-.3.64-.6-.22-.23.1-.19-.19-.46s-.38-.14-.63-.43c-.29-.82.34-.57.66-.92.13.12.18.12.24.27,0-.14.15-.54.53-.09,0,.32-.1,0-.28.06a.91.91,0,0,0,.69.54c0,.27.46.73.35.94a.29.29,0,0,1,.33.06c.15.23,0,.32.23.58.06-.22.32-.3.72-.23-.43-.48,0-.51.1-.52.18.29.09.42-.14.4.45.35-.06.25.28.54.3,0-.25-1.45.7-.81-.52.14-.13.69-.2,1,.94,1.3,1.15.55,1.81.76.27-.4,1.32-.32,1.33-.84-.24,0-.39.38-.91-.07-.33-.5.47,0,.14-.41-.3,0-.19.29-.6,0,.06,0-.11-.18-.08-.24a1.18,1.18,0,0,1,.94.35c-.28-.26.34.13,0-.19-.14,0-.34-.23-.51-.37-.19.18-.46.16-.81-.15-.13-.69.61-.39.3-1.13.23.16.66.12.56-.11-.07.07-.19,0-.34-.19a4.59,4.59,0,0,0,1.95-.74c.11.36-.11.3-.15.58.23.07.41,0,.7.22a1.13,1.13,0,0,0,.37.79c-.17.25,0,.68-.47.67.47.3.47-.06.52-.25.09.09.14.07.22.14.27.62.74.92,1.55,1.55-.48,1.18-2.29.72-2.74,1.93-.43.17-1.24-.07-1.61.44-.18-.23-.26-.13-.45-.42-.21.51-.83.51-1.37.4.5.66-.56.08-.47.49-.13-.12-.19-.12-.23-.28.14.84-1.07-.18-1.23.44.25-.07.24.63.56.34-.11-.26-.4-.27-.31-.38.45.58.73.19,1.27.57-.17-.7.5-.39.88-.63.19.15.75.65.63.29-.15.18-.24-.35-.35-.49.26-.2.75-.09,1.06-.18.29.48.17.34-.12.38.3.34.28.22.48.54.32,0,.08-.33.09-.51.47.65.75-.16,1.19,0-.19-.19-.22-.31-.1-.37.1.14.08.19.25.27.89-.68,1.42-1.57,2.43-2,0-.49.49-1.33,1.36-.45,1.44-.3,2-1.46,3.27-2.09-.14-.68.36-1,.84-1.07-.07,0-.13-.26.07-.23.77.1.48.75.2,1,.19-.23.63.51.81.73-.25.64-.67,1-.86,1.57-.16.07-.41-.12-.55,0,.17.48-.58.19-.73.46s.21.59.09.72-.65-.09-.78,0-.06.32-.1.39-.15-.19-.13-.2c-.14.11,0,.4-.06.51s-.29-.21-.32-.21c-.32,0-.06.6-.22.79-.39-.14-.24-.51-.49-.38.29.3,0,.41.15.65-.62-.36-.5.46-.91-.05a3.28,3.28,0,0,1-.87,1.26c.07,0,.19.1.3.23-.38.27-.49.37-.52.69-.09-.09-.06-.14-.12-.21a4.4,4.4,0,0,1-1.39,1,2.24,2.24,0,0,1,.17.47c-.34-.14-.28,0-.17.27-.25-.09-.53-.49-.52-.21.4.13.07.45,0,.58-.16-.18-.24,0-.42-.29s.06-.21-.09-.38c-.31.26-.07.53.28,1,.25.06.45-.09.7-.05-.36-.59.46-.67.76-.55-.07,0,.1.19.06.25-.1-.1-.22-.26-.29-.23.2.77-.39.69-.85.92.43.27.14.35.45.71.41-.29.79-.63,1.18-.86-.32-.06-.09-.38-.12-.51.22.06.74.11.7-.07-.07,0-.19-.1-.3-.23.58.24.74-.15,1.15-.24-.36.19,0,.29-.16.57.34,0,.57,0,.43-.47l.25.26c.2-.65,1.5-.64,1.84-1.38.11.1.24.25.31.22.2-.73,1.56-.76,1.46-1.31.36.3.23.61-.08.53.65.55.47-.12.54-.27,0,0,.18.16.18.17.1-.25-.21-.69,0-.9s.76.1,1-.32c-.53-.3.33-.33.21-.65-.56.4.14-.87.76-.33-.19.11,0,.33,0,.49.23-.26.24,0,.66.23.11-.27.4-.07.57-.18-.32-.23-.48,0-.75-.14.07-.05.06-.13,0-.21.22,0,.77.33.47-.1a1.25,1.25,0,0,0,.42.27c-.54.87-.71,1.24-1.8,1.55-.16.63-1.23.48-1.23,1.31-.17-.15-.23.08-.42-.13-.38.75-2,.4-1.85,1.43.16-.1.28-.34.54-.1-.19.1-.63,1-1.07.2a.66.66,0,0,1-.33.4c.27.43.28-.19.51.07-.2.22-.57.79-1.19.44-.95.72-1.57,1.39-2.64,1.33.38.5-.29-.14-.37,0s.43.41.34.5,0,.12,0,.17c-.14.23-.38-.09-.55,0,.15.3-.18.41-.38.57-.62-.67-.64,0-.87.18a26.35,26.35,0,0,0-3,1.52c.75-.1.75-.46,1.54-.34.34-.83,1.59-.83,2.22-1.41.18.24.32.23.49.39s-.08.29,0,.47c.38,0,.47-.93,1.29-.63-.23-.33.09-.28.25-.32-.36-.75.46-1.29.88-1.39.14.18-.47.36-.16.41.16-.11.32-.24.56,0,0,.12-.41.12-.24.32.29,0,.49-.41.92.22.29-.1-.38-.29-.16-.48.07.06.14.07.19,0,.45.36.3.5.41.74.46.06.14-.32,0-.47.39.11.17.44.49.53a1.36,1.36,0,0,0,.77-.26c-.08,0-.18,0-.28-.1.15,0,0-.42.27-.2-.05.06-.17.1-.08.21.53,0,.82-.57,1.4-.3,0-.22-.35-.19-.28-.39.19-.36.58.09.83,0-.1-.15-.51-.4-.37-.47s.38-.53.75-.11c0,.11-.34.39-.1.38.14-.4.55-.37.3-.84.32-.07.43.49.68.38,0-.11-.33-.33-.24-.42.23.1,1.16,0,.55-.12a2,2,0,0,0,.67-.38c-.12-.13-.35-.29-.3-.38,1.23-.39,1.53-1.41,2.55-1.81-.14-.16-.31-.14-.28-.24.43-.12.79-.21.6-.69a.87.87,0,0,1,.23.28c0-.33.49-.39.82-.43.24.43-.33.4.22,1,.29-.36-.35-1.14.22-1.36-.15-.24-.48-.17-.38-.31.27,0,.26-.12.19-.35.32.26.5.15.72.16,0-.64,1-.48.79-1.28a4.32,4.32,0,0,0,2.1-2.6c.28.13.35-.19.71.1-.13-.53.63-.27.35-.77-.06.05-.13.1-.29,0,0-.17,0-.17.19-.41.16.1.34.24.39.1-.52-.59.45-.56.75-.74-.19-.15-.26-.06-.39-.1a.57.57,0,0,1,.88-.35c0,.2-.57-.1-.3.19.08-.05.27.09.38.09a2.24,2.24,0,0,1,1-1.92c.13-.12-.18-.4-.13-.45s.69,0,.71-.41c0,.07.06-.07.14-.22s.18-.76.69-.66c.28.12-.12.52.14.46.09-.22,0-.36.27-.45-.57-.26-.26-.54,0-.51.06.27-.08.53.23.8.05-.44,0-1.36.88-.8-.11-.06-.08-.17.07-.12.13.38.41.41.54.75-.33-.85.41-1,.62-1.5.09-.23.06-.51-.25-1,.21.09.2.19.4.28.11-.18-.27-.35,0-.54.2.12.27.05.46.15,0-.18.1-.36,0-.53-.08.29-.36.3-.74.16.35-.32,0-.76.67-.86-.22.19.24.34,0,.53.28.07.69.31.76.07-.16-.09-.41-.17-.4-.27.47.28,1-.45,1.14-.8-.38-.26-.37,0-.7-.18.15,0,.21-.16.26-.32.21.25.2.2.63.36.18-.16-.32-.25-.23-.4.41.2.36-.23.69-.13-.26-.44.07-.39.34-.22-.21-.38-.07-.43-.36-.75.26,0,.14.07.44.19,0-.32,0-.27.27-.4-.09-.15-.26-.29-.35-.45.26,0,.16-.23.35.08.46-.62-.74-1.38-.36-1.61-.81-.38-.4-.54-.05-.67-.23-.19-.47,0-.45-.18.3-.08.31-.24.27-.53.37.09.32.24.53.35-.14-.22.12-.34,0-.43a.49.49,0,0,1-.39.06c0-.15-.14-.26,0-.43l.34.13c-.47-.78.27-1.33-.19-1.76-.05-.24.33,0,.4-.14a.85.85,0,0,0-.36-.06c-.23-.25.81-.7.11-.52.11-.29.58-.22.35-.5-.06.14-.34,0-.34-.12.15.15.35.17.37,0a.86.86,0,0,1-.28-.44c.28.28.26-.23.19-.35,0,0,0,.13-.14.09s-.2-.57.1-.58,0,.26.19.34c.24-.15-.11-.34-.15-.6.71.12-.42-.81.46-.61-.52.38.9,1.2-.07,1.21.65.22.22.32.37.67.38,0,.26.2.43.28.15-.27-.09-.23-.18-.34.13,0,.08-.23.38-.08,0,.08-.05.18.08.24,0-.3.12-.4.43-.35-.21-.44.17-.57.1-1.37-.19-.19-.37,0-.44-.27.66-.71-.27-1.81.06-2.4-.34-.23-.69-.06-.69-.39.18-.12.42,0,.71.12-.42-.74.36-.94.25-1.66-1-.53,0-1.23-.77-1.83.16.35.15.76-.27.83-.42-.36-.53-1.17.27-.89-.41-.46.51-.58-.21-.86.76.09.76-.7.52-1.19,0,.07.14-.07.13-.25,0-.46,0-1,0-1.46A3.36,3.36,0,0,0,82.27,71c.19,0,.42.07.36-.08-.31-.05-.62-.11-.61-.3.26,0,.39.25.36,0-.2-.1-.36-.27-.13-.36-.18-.18-.29,0-.36-.12a.24.24,0,0,1,.23-.24c.19,0,.1.19.36.19-.27-.29-.17-.33-.38-.67-.41-.07,0,.23-.47.21C80,68,80.44,66.29,80.08,64.75c.3-.05.22.43.38.23-.37-.67-.75-.83-.21-1.28,0-.25-.44-.28-.63-.43.29-.22-.6-.95.16-1.19-.45-.05,0-.33-.39-.48.44,0,.34-.11.11-.2.69,0,.14-.36.57-.45-.41-.12-.34-.3-.16-.54-.18-.15-.29.08-.37-.07.25-.33-.42-.81.39-1-.58-.18-.48-1.07,0-1.27-.68,0-.62-.79-.32-.8a5.67,5.67,0,0,1-.92-.76c.18,0,.31.08.49.11,0-1.22-.75-2.18-.39-3.67-.2,0-.31,0-.37-.09.84-.61-.88-1.1.56-1.28,0-.24-.42,0-.62-.12.05-.55-.4-.89.07-1.24-.37-.26-.26-.41-.59-.74.27,0,.15.12.38.1-.13-.44-.48-.63.08-1.05-.56.08-.44-.2-.88-.18,0,.26,0,.58-.61.78-.26-.17.4-.34.06-.38-.73.54.22.7.19,1.25a1.25,1.25,0,0,1-.36,0c-.19.2.13.38.32.53-.65,1,.85,1.74.05,3.1.59.31.62,1,.78,1.63-.58-.07-.21-.74-.8-.79,0,.32.51,1.58-.34,1.44.32,0,.7-.07.73.09s-.23.14-.21.27c.68.09.41,1.18.39,1.54,0-.05.09-.08.23-.07-.22.12.5.54.08.78,0-.15-.05-.24-.27-.26-.41.27.5.21.41.51-.28,0-.15-.19-.38-.19.21.55,0,1.53.31,2,.39.09.08-.21.47-.12-.06.09.16.34-.1.33s-.21-.11-.37-.14c0,1,.31,2,.22,3.19-.55.13.18,1,.09,1.3a6.49,6.49,0,0,0,.34,1.91c.21,1.07-.16,2.09.48,3.06-.19,0-.42-.07-.36.08s.44,0,.48.14a.76.76,0,0,1-.7.54,3.31,3.31,0,0,1,.61.36c0-.11-.35-.38,0-.4.06.13.35.17.25.37-.76.14-.26.07-.46.45,0-.11-.1-.18-.25-.24.4.37-.27.7.11,1.06.2-.3.09-.43.38-.65.08.35,0,.42.22.76-.22,0-.4-.27-.48-.09.49.4-.83.65-.27,1.18-.1-.15.2-.32.24-.15s-.19.16-.25.28c.81.41.05.73.45,1.13a.75.75,0,0,1-.48.09,1,1,0,0,1,.45.95c-.38-.05-.08-.32-.35-.41a2.71,2.71,0,0,0,.68,1.34c0,.16-.34,0-.36.11.52,0,.62.55.68.89a2.57,2.57,0,0,1-.7-.24c.15,0,.06-.29-.1-.42-.24.13-.42-.3-.71-.37.07-.12.19-.09.36,0-.26-.54.07-1.07-.19-1.6.14,0,.27.18.36.08-.42,0-.07-.24-.35-.27-.24.13-.5-.26-.59-.39.17.11.29.13.36,0-.73-.3.09-.46-.34-.72.18-.11.38.2.36-.05l-.48-.1c-.05-.24-.08-.91-.09-1.1s-.6.06-.48-.22c.54.14-.21-.74.62-.65-.37-.65.16-.81-.39-1.41.2,0,.39-.32.1-.43.09.12-.23.24-.23.09.51-.86.13-2.18.35-3.15,0,.07-.13.09-.23.1v-.26a1,1,0,0,1,.36.1c-.31-.25.43-.51.21-.69-.13.17-.14-.12,0-.13-.33-.07-.27,0-.49-.24,0,.09.05.24-.11.25-.52-.59,0-1.34,0-1.92-.24-.22-.39.19-.6,0,.43-.17-.61-.53,0-.57.31.07.24.67.75.43-.33-.33-1.12-.58-.66-.93-1.18,0-.7-.83-1.28-1.13.23-.14.56-.55.18-.81a1.16,1.16,0,0,1-1,1c0-.07,0-.18-.13-.19-.17.34.55.24.4.57.46,0,.15-.36.57-.35a1.82,1.82,0,0,1,0,1.31c.09-.2-.4-.11-.38-.27s.32-.33.09-.37c-.64-.12-1.13-.83-.57-1.2-.7-.2,0-.54,0-.62-.1.16-.45-.06-.49-.13.55,0,.35-.62-.14-.31,0-.25.28-.3.46-.3a4.08,4.08,0,0,0-.89-.56c.3,0,.39.12.47-.06-.18-.15-.24,0-.37-.12,0,0,.09-.07.23-.06-.88-.22.33-.74-.09-.86,0,.07,0,.15-.23.13,0-.28,0-.58.41-.68-.55-.08.18-.21.08-.43-.8-.07-1-1.09-.34-1-.32-.19-.71-.3-.3-.6-.64,0-.11.42-.43.51-.31-.16,0-.66-.33-.83a1.83,1.83,0,0,1,.93-.3c-.1-.16-.46-.15-.63-.26,0,.07,0,.17-.1.19-.46-.19-.32-.67.41-.7-.1.16.56.16.49.09-.52,0-.46-.46-.91-.54-.14.28.37.16.29.4-.37.11-.5,0-.7.18a.89.89,0,0,0-.21-.76c.24,0,.17.15.49.07.1-.23-.42-.08-.51-.19.13-.12.14-.28.44-.33a.85.85,0,0,1-.48-.63,4.28,4.28,0,0,0,0-.65c-.53,0,0,.27-.32.31-.72-.44-.66-1-1.29-1.42.17,0,.21.05.37.05-.58-.21,0-.48-.55-.49.48-.72-.19-2.11.41-2.79-.07-.34-.87-.69,0-1-.5-.12-.07-.62-.49-.71,0,.07-.2,0-.25,0,.38-.78-.81-1-.57-1.84-.6.11.27.54-.63.59,0,.45-.38.64-.3,1,0,0,0-.13-.14-.12s0,.09-.1.11c0-.21-.1-.33-.43-.35.15.3.33.7-.06,1-.54,0-.05-.66-.36-.67a2.54,2.54,0,0,0-.45.92c-.4-.09,0,.14-.46.15-.34-.15-.07-.3-.2-.42,0,0-.32.2-.35.09.14-.16,0-.15-.05-.31.16,0,.39.13.48,0-.33-.13-.91-.38-.35-.58-.23,0-.25.09-.47.11,0-.11,0-.21-.17-.25l.36,0a1.82,1.82,0,0,0-.92-.41c.09-.16.23-.72-.25-.72-.14.25.51.48-.23.75.15.58,0,1.31.29,1.65s-.1.6,0,.8.47.48-.13.68c.23-.16-.25-.27,0-.45-.19-.07-.28.09-.36,0,.4-2.25-2.43-4.25-2.45-6.64-1.07.19-.77-.53-.53-.8-.68,0,0-.39-.56-.35-.24.15.1.4-.39.51-.21,0-.68.17-.72.08-.32-.48.59-.94,0-1.1.07.26-.77.63-.64,1,0-.06-1,.1-.59.1.81-.18.18.17.65.2,0,.15-.32.24-.67.33-.54,0-.49-.41-1-.49-.49.09-.66.26-.41.37-.8.79.52,1.69.37,2.44,0,.08-.31.1-.2.2.2.35,1,.86.14,1.36.24.23.14.47.14.75.32,0,.45,0,.4.2-.25,0-.15,0-.48.07-.07-.1-.1-.22-.29-.26s0,.22-.44.23c0-.28-.58-.3-.71-.54,0,.09-.33.12-.2.24.71.08.73.53,1.67.49a1.34,1.34,0,0,1-.82.2c-.57.41.11.81-.27,1.19-.44.06-.46-.1-.75-.11,0,.31-.32,0-.6,0,.43.17.42.57.64.85-1.09,2.27.74,4.46.28,6.6a9.47,9.47,0,0,1,.7,1.71c.57.23.92.77.6,1,.33.14.41.82.48,1,0-.29-.16,0-.36,0-.07-.38.08-.66-.56-.72a.51.51,0,0,1,.22-.14s0,.09.13.09c.14-.3-.77.08-.86-.16.63-.05-.16-.31.69-.29.08.14-.26.19.15.22a1.72,1.72,0,0,0-.36-1c-.41.17.19.47.08.68-.15.05-.44.06-.59.11-.27.24.16.45-.41.59-.47-.6.34-.49.25-.9,0,0-.09.05-.12,0-.13-.28,0-.42-.2-.66.16-.11.89-.46,0-.4.13.17.19.38-.31.46-.18.39.77.57.34.83-.07-.19-.26-.32-.65-.37-.05.19.51.12.4.34-.17,0-.21-.06-.37-.07.25.19.5.57,0,.66a10.06,10.06,0,0,0-.59-.94c.17,0,.46,0,.24-.05h-.24c-.47.41.54.54-.26.83.05-.2-.37-.35-.06-.51-.66,0-.82-.46-.69-.69-.79.62.71,1,.91,1.55-.43,0-.46-.29-.86-.11.76.57-.24,1.37-.14,1.9-.47-.51-.72-.93-.52-1.34,0-.13-.33.11-.37,0,.4-.34-.08-1-.43-1.51.17,0,.21,0,.36,0-.9-.21-.28-.71-.6-1,0,0,0,.08-.11.09a1.7,1.7,0,0,0-.64-1.95l.48,0c-.55-.58-1.18-1.45-.69-2.24-.26,0-.39,0-.38-.08,0-1.8-1.52-3.66-1.4-5.33,0,.06,0,.14-.21.15.53-.84.13-1.46,0-2.13.16-.11.48-.2.67-.31-.51.08-.26.1-.81.21a.68.68,0,0,0,0-1.12l.36-.06c-.51-.18-.73-.48-.4-.76,0,0-.18.07-.35.1-.14-.19-.23-.35.15-.44-.13-.09-.09-.24.29-.38-.14-.13-.58.1-.73,0a11.15,11.15,0,0,0-1.08-5.26,11.37,11.37,0,0,0,1,4.12c-.34.05.2.23-.31.26.58.7-.2,1.87.53,2.51-.14,0-.34,0-.35.1a.67.67,0,0,1,.63.06c-.51.17.08.37-.48.65.53,0,.1.54,0,.65.17,0,.45,0,.5,0-.43.09.09.19-.3.33.56,0,.27.3.46.47-.71.14-.3.33-.27.53.19.06.28-.09.36,0-.13,1.06.36,2,.08,3.19,0,0,0-.08-.13-.07s.34,0,.27.17c-.32,0-.23.1-.48.06.27.16,0,.44,0,.65.38,0,.28-.1.46-.14,0,.1.23.06.15.19-.24,0-.17-.09-.49,0-.13.21.42.09.29.29-.57,0-.1.22-.42.38a2.24,2.24,0,0,0,.73,0c-.09.12-.16.21.16.23l-.36,0c.12.07.63.33.07.44.12-.19-.55-.29-.09-.56-1,.13.32.77-.57,1a9.79,9.79,0,0,1-.28-2.49c-.21,0-.3.1-.36,0s-.18-.22.08-.25-.26.2.26.13a1,1,0,0,0-.23-.66.48.48,0,0,1-.57.2c.43-.78-.11-1.58-.16-2.21-.06-.92,0-1.88,0-2.9l.24,0c-.63-.28.12-.74-.56-.93a.72.72,0,0,1,.55-.34c-.08-.06.09-.26-.17-.22.08.17-.09.29-.54.38a1.69,1.69,0,0,1,0-1.11c-.52-.29-.26-.93-.75-1.18-.3.29.61.67-.53.91.22-.3-.62-.34-.28-.68-.41.08-.42,0-.29-.19-1,0-.15-.78-.84-1a1.49,1.49,0,0,0,.51-.46c-.38,0-.13.17-.46.13-.05.08.19.2-.07.26a22.9,22.9,0,0,1-1.11-2.06c-1.1.23-.31-.37-.6-.44-.5.28-.18-.3-.23-.44A1.89,1.89,0,0,0,41,36c-.51.29.32.34,0,.64a1.21,1.21,0,0,1-.61,0c.19-.07,0-.26-.41-.15.2.18,0,.32-.11.54-.4-.15-1.18-.29-.54-.69-.56-.05-.4-.38-.67-.65-.62.2-.52-.19-.61-.43-.58-.07-.8.17-1-.09-.21.15.17.15-.06.25-.57,0-1.15.1-1.16-.18.17,0,.21,0,.37,0a.94.94,0,0,0-.7-.32c.25-.23-.08-.13-.19-.23s.18-.57-.51-.51c-.23.2.27.28-.37.48-.36-.07.26-.32-.18-.23s.28.43-.34.58l-.06-.22c-.36.08-.28.27-.68.23.08,0-.08.22.17.16,0-.08.07-.14.32-.19a1.53,1.53,0,0,1,0,.47,1,1,0,0,1-.9-1,2.37,2.37,0,0,1-.62,0c0,.17.08.34.28.09.09.12-.2.22-.41.33-.63-.14.08-.24-.12-.43C31.89,34.62,31.7,34.72,31.38,34.68Zm46,14.2c.42,0,.16.15,0,.23C77.13,49.13,77.31,48.91,77.37,48.88Zm1.78,8.75.42.59a.92.92,0,0,0-.37-.06.34.34,0,0,0-.28-.39C79,57.69,79.16,57.71,79.16,57.63Zm3.57,26.46c-.2-.07-.31,0-.37,0-.25-.09-.22-.25-.18-.4.22.19.23,0,.45.22.07-.11-.09-.45.29-.26C82.75,83.69,82.76,83.91,82.73,84.09ZM48.22,103.5c.2.24-.19-.07-.18.13l-.24-.27c.06-.11.17,0,.26,0S48.15,103.52,48.22,103.5ZM16,69.61c-.18-.14.17.45-.18,0C15.7,69.44,15.58,69.12,16,69.61Zm11.16-8.81c.14.1.2.19,0,.29C26.87,61,27,60.89,27.13,60.81Zm5.06-25.89c.23-.05.18.07.49,0,.09.1-.18.18-.05.28-.14,0-.12,0-.15-.08s-.21.06-.22.09C32,35.2,32.09,35,32.19,34.91Zm4.4.69c.25,0,.29.09.3.21-.34.05-.37-.07-.53-.12C36.5,35.67,36.57,35.64,36.59,35.61Zm4,1.21c.27,0,.68.25.08.34C40.78,37,40.65,37,40.62,36.82ZM29.85,43.32c.16-.17.57.2.06.25C29.93,43.51,30,43.35,29.85,43.32Zm-.38,1c.24-.07.28.14.37,0s.38.3,0,.34C29.85,44.51,29.61,44.46,29.47,44.36Zm40.47,2.1c.36,0,.33.26.18.34C69.68,46.79,69.93,46.53,69.95,46.46ZM48.68,50.95c.5-.08.13.16.16.23C48.52,51.21,48.53,51,48.68,50.95Zm1.07,4.65c-.46.08-.12-.2-.39-.2s.07.1-.09.2c1.28.29.54,1.11.71,1.67s.74.85.63,1.2c-.12,0-.11.09-.35.09.35.13,0,.3.06.47-.39.06-.31,0-.22.16-.24-.07-.3,0-.6,0-.1-.1.24-.08.35-.12a2.62,2.62,0,0,0-.62-.15c.07-.08.35-.09.46-.16,0-.08-.34-.07-.38-.15-.39.08,0,.36-.54.46-.1-.19.28-.23.19-.42-.18.09-.2.23-.32.35.47.32,1.61.28,1.77.66.29,0,.25-.15.33-.24.63.3-.05.59.57.81-.11.05-.1.15-.34.15.09.11.6.38.16.4,0,.08.4,0,.37.13-.76.23.41.83-.13,1.08.56.23.5.72.33.87.95.29.64,1,.12,1.26.08.32.39.32.41.62,0-.08.43-.2.22-.26.45.06.39.25.4.54,0,0-.14-.06-.13-.1-.17.38,1.25,1.45-.22,1.69a.48.48,0,0,0-.28-.45c.2.13-.33.5.41.68.07.14-.13.14-.34.15s-.57-.13-.5-.25c-.29-.07.08.2-.35.06,0-.26.25-.37.18-.65-.24.05-.33.2-.32.47-.69-.7-.82-1.07-.62-1.67-.55-.07-.38.19-.83.16.22-.38-.55-.75-.33-1l.24,0c.26,0,.24.08.25.15.36,0-.09-.22-.5-.21,0-.13-.22-.22-.15-.36.26,0,.27.13.26.22.51-.06-.15-.4-.41-.62s.41,0,.35-.08c-.25-.18-.41-1,0-1.15A.8.8,0,0,0,49,62c-.09-.14,0-.21.34-.21-.62-.18-.15-.39.06-.57,0-.14-.39.06-.37-.06s.08,0,.24,0c0-.14-.53-.14-.39-.32a8.23,8.23,0,0,0,1.09.08c0-.09-.51,0-.73-.07s.32-.14.33-.26c-.52,0-1.37-.23-.52-.32.11.13-.12.16-.21.22.3,0,.37-.06.6,0-.35-.19-.07-.2.08-.38a3.18,3.18,0,0,0-1.09,0c.17-.12.25-.26.44-.37s.26.13.27.23.44-.05.59-.07c-.08-.09-.18,0-.37,0,0-.09.17-.14.09-.27.23-.06.15,0,.48,0-.39-.25-1.2-.14-1.13-.39-.15,0-.24,0-.23.11-1.07-.41.3-1-.53-1.34.25-.13.37-.06.1-.19a1.5,1.5,0,0,1,1.11.19,2.25,2.25,0,0,1-.49,0c-.07.19-.56.49.09.72-.07-.34.38-.57.37-.85a1.12,1.12,0,0,0,.59-.06c-.13-.13-.68.13-.84,0,.33-.07-.27-.31.18-.51,0-.05-.21,0-.23,0-.31,0,.34-.16.21-.28a.57.57,0,0,0-.23.13c-.36,0,.1-.09,0-.15s-.09.05-.11.08c-.32,0-.13-.19-.39-.21.23-.07.57-.23.09-.27a1.86,1.86,0,0,0,.37-1.62l.36,0c-.5-.34-.29-.72-.4-1.1.93.19.33.75.53,1.17C49.41,55.19,49.91,55.33,49.75,55.59Zm-1.16-3c.94.17.23.79.54,1.16C48.35,53.57,48.68,52.9,48.59,52.59ZM29.33,56.74c.53.07.24.25.42.34a1.52,1.52,0,0,1-.42-.1C29.23,56.92,29.2,56.82,29.33,56.74ZM50.55,59c.32,0,.4.05.38.16h-.36Zm-24.77.24c.34,0,0,.12,0,.17C25.52,59.32,25.72,59.23,25.78,59.19ZM49,59.38c0,.11-.67.09-.84,0C48.29,59.28,48.68,59.39,49,59.38Zm-.11.11c.14,0,.11.07.14.12-.35,0-.31.05-.6,0C48.46,59.54,48.79,59.55,48.93,59.5Zm-21-.15c.27,0,.42.13-.1.11C27.78,59.4,28,59.39,28,59.35Zm-1.24.52c-.05,0-.22.08,0,.12C26.63,60,26,59.83,26.74,59.87Zm26.32,1.06c.41,0,.2.21.15.3C52.74,61.18,53.1,61.06,53.05,60.94Zm-27.39-1c.5,0,0,.13.39.17,0,.06-.54-.06-.48,0S25.62,60,25.66,59.9Zm50.1,3c.25,0,.25.18.5.21,0,.1-.37,0-.22.24C75.69,63.37,75.79,63.13,75.76,62.95Zm-.2.62c.06.28.32.53.18.82C75.25,64.25,75.55,63.77,75.57,63.56Zm3,.37c-.25.15.14.38-.09.45C78.06,64.39,78.14,63.8,78.59,63.93Zm-2.64-.1c.29.05.52.28.27.39C76,64.12,75.75,63.93,75.94,63.83Zm0,1c.26.15.46.34.28.52-.26,0-.07-.23-.14-.33-.26,0,0,.22-.1.31C75.56,65.14,75.82,65,75.9,64.84ZM76.73,67c.6.12,0,.51.27.66C76.52,67.45,76.93,67.28,76.73,67Zm-.47.2c.25.1.16.5,0,.57-.29,0,.05-.28-.37-.23A1,1,0,0,0,76.26,67.19ZM53.05,64.68a2.25,2.25,0,0,1,.79,1c-.23,0,0-.2-.49-.19C53.4,65.17,53.11,65,53.05,64.68Zm23.71,3c.17.15.73.77,0,.83C77.09,68.33,76.77,68,76.76,67.69Zm-.95.2c.3.06.56.28.37.36C76,68.16,75.76,68.08,75.81,67.89Zm.49.37c.2.24.08.63.16,1-.62-.21.1-.62-.63-.71-.06-.14.08-.16.11-.24C76.07,68.4,76.4,68.56,76.31,68.26ZM26.84,62.1c.41,0,.2.09.26.13C26.68,62.17,26.65,62.09,26.84,62.1Zm49.41,7.73c.23.52.12,1.15.41,2,.51,0-.1-.32.25-.4.41.09.18.4.23.61-.44,0-.59-.2-1.08-.19C76.16,71.05,75.75,70.46,76.25,69.83Zm-24.69-3c.59.11.49.33.51.54C51.46,67.26,51.55,67,51.57,66.87Zm1,.71c.6.12.05.66.13.19C52.61,67.71,52.57,67.64,52.57,67.57Zm24.31,5.19c.46,0,.15.33.23.49C76.77,73.09,77,73.06,76.88,72.77Zm-.37.43a.61.61,0,0,1,.47.41,1.3,1.3,0,0,0-.48-.16ZM77.79,75c.11,0,.39.33.11.28,0,.06.14.08.24.12-.11.16-.18,0-.48,0C77.58,75.13,77.87,75.2,77.79,75Zm-.14.61c.1.06.21.13.24.05.26,0,0,.24.11.35C77.79,75.9,77.59,75.79,77.65,75.6Zm1,1.8c.41.16,0,.25.21.51C78.43,77.84,78.76,77.57,78.68,77.4Zm4,1.21c-.15.23-.31.45-1,.22C82.07,78.79,82.17,78.52,82.69,78.61Zm-3.44-.74c.18.14.35.53.47.19.5.22,0,.43.07.68C79.4,78.41,79.44,78.29,79.25,77.87ZM26.51,64.15c.25.1.24.05.49.15-.25,0-.25.07-.22.18C26.35,64.33,26.59,64.26,26.51,64.15ZM81.81,79c.51.05.46.68,0,.46C81.89,79.25,81.53,79.07,81.81,79ZM79,78.39a.29.29,0,0,1,.07.54C78.84,78.71,79.07,78.69,79,78.39Zm-52.3-13.9c.45.11.23.16.13.14S26.46,64.46,26.67,64.49ZM80.05,79.74c.35.08.39.35.2.39A.35.35,0,0,1,80.05,79.74Zm.79,1.57c-.13.41.31.91.08,1.18-.36-.06-.33-.22-.69-.28.23,0,0-.45.52-.24C80.35,81.73,80.78,81.52,80.84,81.3Zm-.13.1c-.21.05-.69-.15-.56-.37.67.4,0-.31.62-.15C80.64,81.11,80.73,81.1,80.71,81.4Zm2.11,1.39c.31.28.06.29-.07.47C82.43,83,82.68,83,82.81,82.79ZM25.18,65.64c.2.07.21.09.36.15s-.22,0-.12.09C25,65.73,25,65.6,25.18,65.64Zm54.43,21c.35.3-.16.38.32.68-.16.3-.44.32-.18.7l-.56-.22C79.43,87.55,79.27,87,79.61,86.68ZM25.29,66c-.2,0,0,.09-.13.08C24.77,65.88,24.85,65.78,25.29,66ZM79.51,88c.5.43.31.92-.16,1,.45.45.76.86.15,1.13-.26-.3.28-.57-.56-1C79.28,88.69,79.21,88.19,79.51,88ZM78,87.58a.24.24,0,0,1,0,.48c-.29-.16-.39-.35-.34-.55C77.82,87.57,78,87.64,78,87.58Zm-.38.47c.39.21-.1.24,0,.54-.2-.09-.26,0-.46-.12A1.23,1.23,0,0,1,77.64,88ZM22.49,65.32c.21.12.2.16.11.15C22.13,65.26,22.58,65.42,22.49,65.32ZM80.56,90c.24.11,0,.29,0,.43-.2-.24-.24-.08-.28.1C79.85,90.21,80.46,90.12,80.56,90Zm-1.77-.38.33.14L79,90C78.68,89.9,78.87,89.72,78.8,89.57ZM22.23,65.34c.21.1.26.16.23.19C22.18,65.4,22,65.26,22.23,65.34Zm1.79.84c.23.1-.1,0-.13,0C23.42,66,23.82,66.11,24,66.18Zm.46.34c.3.14.23.16.22.2C24.32,66.55,24.28,66.45,24.48,66.52Zm-.39,0a.23.23,0,0,1,.12.06c.31.15.1,0,.48.17-.06,0,.21.14.11.13a1,1,0,0,0-.24-.08C24.26,66.65,24.4,66.65,24.1,66.51ZM80,92.27c-.13,0-.14.07-.18.14-.23,0-.29-.35-.44-.2-.15-.14.45-.09.67-.07,0,.24.24.29,0,.43C79.88,92.49,80,92.38,80,92.27ZM21.45,65.4c.39.18.52.32,0,.06C21.29,65.38,21.3,65.35,21.45,65.4Zm2.49,1.19c.37.17.3.19.58.33a3,3,0,0,1-.48-.19C24,66.65,23.9,66.6,23.95,66.59ZM78.71,92.93a.93.93,0,0,0,.3.22c-.07.05-.26.07-.24,0s-.17.09-.38,0c.09,0,.18,0,.05-.12C78.5,92.9,78.68,93,78.71,92.93Zm.25.64a1.4,1.4,0,0,1-.73-.42C78.49,93.16,79.06,93.31,79,93.57ZM22.55,66.33a1,1,0,0,0,.24.1c.24.15-.26-.1,0,.08-.2-.1-.22-.1-.24-.09C22.23,66.25,22.88,66.55,22.55,66.33ZM74.83,92.81a2.19,2.19,0,0,1-.24,1.57,1.77,1.77,0,0,0-.18.6.7.7,0,0,1-.15-.77C74.39,93.74,74.71,93.2,74.83,92.81Zm.45,1,.32.16c0,.16-.12.29-.27.3C75.05,94.13,75.22,94,75.28,93.82Zm.13.57.32.16c-.1.09-.17.23-.44.07ZM77,95.57c.08.05.06.08,0,.07h-.05c.38.46-.31-.1-.34.12-.13-.09,0-.19,0-.29a1.09,1.09,0,0,0,.26.12A.09.09,0,0,0,77,95.57Zm-2.83-.09c.36.21,0,.41.06.62C73.75,95.76,74.24,95.77,74.13,95.48ZM18,65.06c.16.11.29.24.08.13S18,65.11,18,65.06Zm49.37,36.28c-1-.11-1.23-.67-.63-1.11-.18-.06-.27,0-.4.09-.33-.2.11-.26-.1-.43.09,0,.29.14.44.23a9.38,9.38,0,0,1,.63-1.1c.44.19.2-.23.68-.06,0-.19-.34,0-.41-.27.35-.28.61-.06.74-.53-.28-.19-.12.39-.49,0,.34-.11.38-.35.34-.63a1.42,1.42,0,0,1,.48.37c.13-.11,0-.25-.3-.4.08-.31.41-.18.7-.13.57.74-.88,1.11-.61,1.77a12.7,12.7,0,0,0-1.69,1.42c.19.12.2-.11.36,0,.31.22-.06.41-.34.2C66.8,101,66.88,101.09,67.33,101.34ZM15.16,63.67c.24.16.35.26.19.18S15.12,63.67,15.16,63.67Zm-.77-.47c.42.27.4.3,0,0Zm8.05,5.21c.18.15.15.29-.41-.11C22.35,68.44,22.33,68.39,22.44,68.4Zm-7.09-4.55c.48.36-.11.05,0,.19q-.19-.15-.63-.45s.45.23.26.07C15.17,63.76,15.43,63.93,15.35,63.85ZM67,97.48c.2.18-.17.28-.2.43C66.35,97.51,66.79,97.65,67,97.48ZM19.52,66.68l.42.29c.06.08-.31-.18-.25-.1C19.42,66.69,19.5,66.7,19.52,66.68Zm.95.67.32.21c.21.22-.14,0-.32,0C20.24,67.33,20.64,67.54,20.47,67.35Zm.11.27c.25.3-.43-.07-.22.24l-.62-.45c.37.2.67.25.24-.07a2.11,2.11,0,0,1,.44.27c-.07-.09-.15-.12-.42-.3C20.07,67.31,20.48,67.59,20.58,67.62ZM65.27,97.83c.46.3-.16.1-.13.33C64.95,97.94,65.1,97.89,65.27,97.83Zm-3.2-1.47c0,.76-1,1.28-1.44,1.69,0,.17.47.29.51.17.24.24-.2.15-.24.24-.18-.13-.16-.2-.35-.33s-.24.16-.38.2c-.41-1.23.86-1.23,1.56-2.13C61.87,96.3,62,96.4,62.07,96.36Zm5.76,4.05c.13.16-.06.27,0,.42-.17-.13-.26-.09-.44-.23C67.41,100.35,67.76,100.67,67.83,100.41Zm-48-32.91c.41.29.34.31.35.37l-.41-.31C20,67.72,19.76,67.51,19.82,67.5Zm46,33.15a3.85,3.85,0,0,0,.66.54c-.3.2-.63.14-1.08.27C65.11,101,65.74,101,65.83,100.65Zm.46,2.67.22-.22a4.58,4.58,0,0,1-2.63,2.54c0,.07.16.18.1.24a1.31,1.31,0,0,1-.47.1c-.28-.25.08-.34.19-.5-.13-.11-.26-.23-.33-.19.27-.57,1.33-1.12,1.43-2.18a1.35,1.35,0,0,1,.84,0c0-.19-.34-.21-.49-.37,0-.17.58.08.36-.19.21-.07.2.06.44.25.07-.33.11-.59.32-.68-.29-.29-.28,0-.41.08-.21-.39.22-.61.55-.58.41.24.45.68.74.45.16.45-1,.48-.67.89.57-.17.8-1,1.56-.78,0,.81-1,.8-1.34,1.42Zm-2.57-4c.27.19.39.44.14.38S63.69,99.48,63.72,99.37Zm.19.85c-.07-.07-.06-.11-.16-.19-.53.53-.46.69-.75,1.27-1.17-.6,0-1.37.15-1.7C63.59,99.62,64,99.88,63.91,100.22Zm1.23,1.34c.2.2.12.34.32.54-.35-.16-.38.37-.78.1C65.16,102.22,64.71,101.62,65.14,101.56Zm-5.79-1.62c-.1-.07-.13,0-.18,0s.09-.14-.07-.27-.3.21-.47.27c-.27-.52.29-.8.16-1.14a1.41,1.41,0,0,1,.58.45c.36.22.1-.08.36,0,0-.2-.33,0-.57-.3.31-.3.51-.27.33-.65.27,0,.15.13.34-.16.7.49-.11.36,0,.64.55.18.16-.78.82-.29-.6.41-.54,1.58-1.82,1.56C58.76,99.83,59.25,100.13,59.35,99.94ZM64,101.68c.18-.13.26.38.43.25.26.27-.19.11-.27.1C63.93,101.88,64.18,101.83,64,101.68Zm.22.47c-.08.5-1,1.09-1.26.55C63.59,102.81,63.46,102.19,64.22,102.15Zm-8.47-5.3c.1,0,.14.16.23.12.36.41-.32.32-.47.43C55.06,97,56,97.16,55.75,96.85Zm-.39.35-.2.17c-.06-.09-.12-.18-.19-.15s.09-.13-.07-.26C55,96.93,55.15,97,55.36,97.2Zm7.86,5.92c0,.48-1,.87-1.31,1.53-.42-.9.64-.93.94-1.51C63.09,103.41,63.11,103.18,63.21,103.13ZM53.49,97.7c-.26-.07-.19.42-.68.1,0,.14.1.32-.1.39-.22-.15-.42-.16-.5-.37.06-.1.31.19.4.14s-.16-.29-.28-.24a1.21,1.21,0,0,1,1-.81c0,.14.22.49-.09.39.58.49.43,0,.37-.16.13.09.53.18.46.24.3.24-.19.18-.13.43.38.13.4-.44.62-.37-.26-.17-.57-.33-.4-.46.64.56,1,.48,1.26.35a1.34,1.34,0,0,0,.34.34c-.77.11-1,1.44-1.87,1.76-.17-.14-.14-.21-.33-.36-.09.15.21.43.08.56l-.37-.32c-.09.05,0,.17-.08.22s.19.09.23.28l-.21.17c-.1-.1-.17-.14-.22-.13-.11-.24-.37-.52-.17-.65a1.49,1.49,0,0,1-.41-.29c.28.08.06-.34.42-.19,0-.1-.12-.23-.29-.39A1.92,1.92,0,0,0,53.49,97.7Zm8.93,7.8c-.34-.22-.22-.31-.38-.48.37-.14.37-.26.69-.47-.71-.14.26-.77.64-.59C63.35,104.69,62.26,104.82,62.43,105.49Zm.56.14c.21.19-.15.23-.23.21C62.46,105.54,62.81,105.61,63,105.64Zm-1.12-.46c.38.26.34.42.14.53-.29-.19-.1-.24-.28-.4-.64.1-.76.67-1.55.21.48-.15.38-.46.43-.84.16,0,.34.14.46.08.15.25,0,.22-.14.28C61.33,105.3,61.64,105.35,61.87,105.18Zm-1.43,1.39c.17.22-.21.33-.42,0a.21.21,0,0,1,.1-.24C60.24,106.48,60.36,106.6,60.43,106.57ZM12.56,63.4c.36.36-.1-.05-.12,0-.25-.24.09,0-.16-.19C12.26,63.12,12.63,63.49,12.56,63.4Zm.93,1.19c.1.16-.26-.15.09.27,0,0-.4-.4-.36-.32-.16-.16-.27-.31-.34-.36-.2-.25-.18-.26-.2-.33.12.11.32.32.43.44A3.6,3.6,0,0,1,13.49,64.59ZM54.8,107.32c.18.2-.17.19-.21.31C54.36,107.39,54.62,107.25,54.8,107.32Zm1.42,1.8c.17.21-.22.22-.27.35C55.49,109,56.09,109.33,56.22,109.12Zm-2.92.36c.29,0,.18.41,0,.45C52.85,109.53,53.42,109.63,53.3,109.49Zm-36-39.4a1.1,1.1,0,0,0,.33.52c0,.18-1-.95-1.19-1.36A4.84,4.84,0,0,1,17.26,70.09Zm24.69,32c.25.28.15.36,0,.43-.13-.17-.21-.16-.34-.35C41.71,102.09,41.81,102,41.94,102.09ZM16.82,71.87a1.78,1.78,0,0,1,.34.65,15.51,15.51,0,0,1,1,1.5c0,.08-.2-.15-.29-.23-.59-.85-.58-.86-1-1.61,0-.12.13,0-.19-.46C16.72,71.81,16.74,71.79,16.82,71.87Zm13.34,19.7c.14.23-.11.19-.18.13s-.06-.23,0-.28C30.07,91.59,30.11,91.59,30.16,91.57ZM17.4,73.25s-.11-.1-.12-.06c-.2-.27-.15-.27-.32-.51A4.42,4.42,0,0,1,17.4,73.25ZM39.09,106c.28.35-.17.47-.33.08S38.95,106,39.09,106Zm-2.74-.46-.07,0c-.2-.34-.39-.43-.25-.56C36.21,105.35,36.29,105.28,36.34,105.52Z" fill-rule="evenodd"/><path d="M25.61,61c.26,0,0-.17-.16-.27.57.07-.17-.06.23,0s-.08.24.53.37c.16,0,.09,0,.11-.06.29,0,.07.15-.34.1C26,61.05,26,61,25.61,61Z" fill-rule="evenodd"/><path d="M82.66,68.51c0,.14.33.13.25.3s-.22.65.27.93c-.06.14-.18.12-.36,0,.41.87.13,1.42.79,2.26-.46-.25-.27.64.13.51a3.65,3.65,0,0,0,.48,3.37c-.16-.38.3-.91-.19-1.3.52.26.09-.29-.11-.37l.36.07c.07-1.49-.12-3.11-.2-4.66s-.13-3-.14-4.35c-.44-.32.09-1.24-.82-1.59.24-.37.33-.5.06-.9.68.19,0-.43.58-.33-.28-.33.27-.69-.18-.85-.1.43.26.72-.31.83.11-.4-.24-.85.29-1.11-.18-.33-.64-.94-.2-1.19-.56,0,.08-.38-.3-.56-.21,0-.3.1-.36,0-.28-.27.21-.61-.08-.83,0,.08,0,.16-.23.14-.11-.21.19-.21.08-.42-.41,0-.17.3-.32.42.39.14.5.94.22,1-.23-.24-.52-.31-.17-.55-.33,0-.23.14-.47.14,0,.23.41.23.41.48a4.42,4.42,0,0,1-.75-.28c0,.25.49.19.52.41-.22.06-.42-.21-.48,0,.37.14-.13.36-.2.47.7,0,0,.34.39.48-.17-.21.31-.38.47-.2-.4.15-.11.28-.32.54-.12,0-.14.05-.24.06,0-.32-.67-.28-.12-.07-.08.42-.2.87-.28,1.15a.5.5,0,0,1,.23-.2c.07.41-.42.32.15.41,0,.29-.52.22-.69.38.43,0,.12.31.5.3,0-.13-.19-.42.22-.33a1,1,0,0,0,.18.89c-.23,0-.26.06-.48,0,.15-.19.14-.48-.28-.56-.13.37.15.58.54.84-.39.14-.08.42.15.42-.18.18-.44.05-.72,0,.14.4.16.54-.19.79,0-.1-.27-.1-.37-.16.32.29.18.32-.08.53.43.27.78,1.18.31,1.56.49.32.35.55.52,1.2.53.16,0-.4.35-.36s.76.65.27.78c-.29,0,.06-.3-.37-.25C81.74,69.66,82.51,68.85,82.66,68.51ZM82,61.26h.36c.15.22-.18.16-.22.27S82,61.36,82,61.26Zm-.44.54c.41.24,1,.57.54.91l-.48,0c-.08-.12.33-.27,0-.34.1-.22.24.09.37.08C82.25,62.26,81.38,62.13,81.56,61.8Zm.34,3.29c.33.18.4.77-.07.81C81.86,65.63,81.68,65.24,81.9,65.09Zm-.81.35c.31.1.26.38.28.63C80.93,65.92,81,65.68,81.09,65.43Zm.76.6a.52.52,0,0,1,.27.43C81.66,66.49,81.67,66.13,81.85,66Zm-.95.19c.32,0,.4.13.37.3C81,66.52,80.87,66.4,80.9,66.23Zm1,.29c.79.21-.07.87-.45.7C81.77,67,81.9,66.82,81.87,66.52Zm.5.66c.12-.09.05.3.14.56C82,67.6,82.17,67.32,82.38,67.18Zm-1.32.14c.31,0,.58.27.72.08a7,7,0,0,1-.21.86A.79.79,0,0,1,81.06,67.31Z" fill-rule="evenodd"/><path d="M35.85,33.76c.12,0,.6.21.09.33C36,33.91,35.93,33.92,35.85,33.76Z" fill-rule="evenodd"/><path d="M70.87,26.41c.16,0-.07.56.28.6C70.78,27.22,70.74,26.54,70.87,26.41Z" fill-rule="evenodd"/><path d="M42.42,35.63c.17,0,.42,0,.41.16-.31.07-.22.18-.56.24C42.52,35.86,42.63,35.76,42.42,35.63Z" fill-rule="evenodd"/><path d="M49.71,36.15c-.1-.13.39-.18.29-.31.28,0,.18.23-.19.25a.52.52,0,0,0,.37,0C50.09,36.28,49.84,36.2,49.71,36.15Z" fill-rule="evenodd"/><path d="M57.81,39.25a1.07,1.07,0,0,1,.63.06C58.23,40,58.49,39.25,57.81,39.25Z" fill-rule="evenodd"/><path d="M61.28,38.85c0-.07.15,0,.36-.06a4.26,4.26,0,0,1-.26.49C60.94,39.25,61.75,38.88,61.28,38.85Z" fill-rule="evenodd"/><path d="M82.16,36.13c0-.05-.22,0-.37,0-.11-.29.66-.64.18-.86-.26.07.05.25-.18.32-.26-.08.08-.21-.2-.36l.7-.17c.22.37,0,.36.18.85-.44-.07-.12.29-.3.3.47-.1.43.11.06.28.14.11.3-.12.48,0-.23.21.29.51-.26.53,0,.05,0,.09-.1.11.14.1.5-.18.5.06-.43-.09-.3.17-.44.27-.75-.13-.33-.84-.71-1.1A2.86,2.86,0,0,1,82.16,36.13Z" fill-rule="evenodd"/><path d="M68.61,37.6c.27-.09-.11.36,0,.51C68.22,38,68.62,37.74,68.61,37.6Z" fill-rule="evenodd"/><path d="M60.47,39.65c.23,0-.17.27,0,.4-.33.08,0-.25-.28-.17C60.26,39.81,60.46,39.75,60.47,39.65Z" fill-rule="evenodd"/><path d="M56.1,44a.4.4,0,0,1,.09.46A.32.32,0,0,1,56.1,44Z" fill-rule="evenodd"/><path d="M72.73,43.59A.3.3,0,0,1,73,44C72.82,43.9,72.85,43.7,72.73,43.59Z" fill-rule="evenodd"/><path d="M76.17,44.51c.24,0,.1.31.53.26C76.45,44.93,75.92,44.63,76.17,44.51Z" fill-rule="evenodd"/><path d="M83,44.63c.49,0,.75-.32.41-.44.49,0,.41.5.85.67-.2-.15-.72-.1-.52-.22-.05-.11-.53,0-.47.11C83.1,44.75,83.21,44.6,83,44.63Z" fill-rule="evenodd"/><path d="M26.33,53.2c.57.23-.13.83.77,1-.3.06-.17.2-.57.25.25-.39-.45-.44,0-.75C26.08,53.62,26.34,53.33,26.33,53.2Z" fill-rule="evenodd"/><path d="M74,47.42c-.34.08-.12.09-.09.2-.16.19,0-.19-.37,0,0-.13-.05-.25.32-.27,0,0,0,0-.11.06a1.4,1.4,0,0,0,.37,0C74.09,47.46,74,47.44,74,47.42Z" fill-rule="evenodd"/><path d="M74.33,48.82c0,.09,0,.2-.33.22.1-.22-.24-.2-.29-.34s-.08.07-.1.11c-.7-.15-.24-.67.08-1a1.57,1.57,0,0,1,.5.08C73.43,48,74,48.67,74.33,48.82Z" fill-rule="evenodd"/><path d="M81.91,48.44c0,.11.23.12.16.27l-.49,0c.67.65-.3,1.87.72,2.52-.75.33.63.51-.14.74a1.8,1.8,0,0,1,.6-.06c-.47-.28-.17-.83.48-.92-.64.09.72,0,.15.23.28,0,.43-.17.48,0a4.16,4.16,0,0,1-.57.3.89.89,0,0,0,.28.26c-.14,0-.34,0-.35.08.34-.06.39,0,.35.09s-.16.26-.18.33a.72.72,0,0,0,.36-.35.71.71,0,0,1,.4-.25c-.41,0-.07-.08-.15-.23.14,0,.34,0,.35-.08s.23-.24-.16-.32c-.05.11-.17.12-.35.08.15-.25-.24-.49.25-.8-.67,0-.37-.16-.29-.36-.18,0-.44.07-.48,0s.31-.13.46-.2c0,.09.26.26.38.1-.34,0,.06-.34-.28-.31q.05.15-.34.18c.29-.15-.26-.07-.16-.27a3.54,3.54,0,0,1-.85,0c.59-.18-.27-.24-.3-.4a2.87,2.87,0,0,1,1-.41c-.1-.14,0-.2-.16-.22s-.3.13-.45.2c-.31-.26-.2-.38-.11-.71-.34,0-.52-.09-.4-.24C81.81,47.78,82.54,48.25,81.91,48.44Zm.51,1.82c0-.06.21-.06.35-.09s.18.11.15.22C82.43,50.53,82.92,50.13,82.42,50.26Z" fill-rule="evenodd"/><path d="M27,54.52c.29-.09-.21.19-.07.3-.34,0-.34-.16-.41-.28C26.73,54.56,26.93,54.67,27,54.52Z" fill-rule="evenodd"/><path d="M73.94,50.21c0-.09-.34,0-.27-.15.23-.07.5-.14.57-.25s.09.08.25.06c-.6.14-.12.34-.9.47C73.64,50.28,73.73,50.23,73.94,50.21Z" fill-rule="evenodd"/><path d="M74,50.34c.39-.08.2.07,0,.09,0,.07,0,.13.14.12-.1.12-.48,0-.5-.08C73.85,50.46,74,50.42,74,50.34Z" fill-rule="evenodd"/><path d="M25.31,55.82s.12,0,.12,0c.29.05,0,.33.3.4-.06,0-1-.38-.31-.47C25.45,55.78,25.4,55.8,25.31,55.82Z" fill-rule="evenodd"/><path d="M25.15,56.34c-.31,0-.47.24-.68.35.36,0,.24.35.33.6-.39-.09-.79-.72,0-.88.06-.2,0-.21.06-.4a1,1,0,0,1,.51,1C25,57,25.23,56.51,25.15,56.34Z" fill-rule="evenodd"/><path d="M74.21,52.17c.15-.2.14,0,.48,0l0,.23c-.26-.07-.23,0-.47.09,0,.15.67,0,.51.18-.26.05-.18-.07-.37-.06.3.1.34.39.08.61-.36-.06-.17-.21,0-.36a2.38,2.38,0,0,0-.62-.1.16.16,0,0,0,.09-.19c.14,0,.11.07.14.13S74.62,52.18,74.21,52.17Z" fill-rule="evenodd"/><path d="M25.42,57.36a2.87,2.87,0,0,0-.34.11c-.16,0-.11,0-.13-.06.18,0,.38,0,.35-.09.16.06.61,0,.62.07C25.45,57.46,25.59,57.37,25.42,57.36Z" fill-rule="evenodd"/><path d="M26.42,57.5c.35,0-.1.12.15.15C26.14,57.67,26.42,57.55,26.42,57.5Z" fill-rule="evenodd"/><path d="M74.61,53.4c.05.13,0,.23-.21.26.12.16.19.05.49,0l0,.24c-.41-.27-.19.12-.58.17C74.52,53.82,74.07,53.59,74.61,53.4Z" fill-rule="evenodd"/><path d="M74.79,54.93c.08-.25-.24-.38-.05-.5s.2.1.37.1c-.14.17-.2.59-.68.43C74.48,54.86,74.59,55,74.79,54.93Z" fill-rule="evenodd"/><path d="M55.33,56.65c-.36,0-.48-.51-.28-.29C55.06,56.5,55.44,56.46,55.33,56.65Z" fill-rule="evenodd"/><path d="M54.85,56.68c.35.08,0,.31.05.44C54.6,57.05,55,56.85,54.85,56.68Z" fill-rule="evenodd"/><path d="M73.66,56.8c.18-.05.16-.2.46-.21.09.44,0,.6.21.92-.29-.13-.33,0-.61-.1l0-.18c.14,0,.11.11.14.18C74.26,57.34,74,56.81,73.66,56.8Z" fill-rule="evenodd"/><path d="M77.24,57.68c.18.21-.14.43.08.77C77,58.25,77.09,57.94,77.24,57.68Z" fill-rule="evenodd"/><path d="M82.23,58.3c-.11-.21.41-.09.21-.35.33.06.34.33.75.33C82.8,58.48,82.64,58,82.23,58.3Z" fill-rule="evenodd"/><path d="M76.35,58.41c-.23.13-.17.4-.3.58h.24C75.88,59.26,75.79,58.37,76.35,58.41Z" fill-rule="evenodd"/><path d="M80.65,59.41a1.3,1.3,0,0,1,.49.07c-.05.16-.82.12-.44.41-.1.21-.21-.15-.37-.14C80.45,59.64,80.7,59.61,80.65,59.41Z" fill-rule="evenodd"/><path d="M76.1,59.55c.51.09,0,.41-.06.57a1,1,0,0,0-.37-.07c.31.25-.25.17-.33.37s.24,0,.25.13-.08.28-.46.24c.18-.32.14-.28,0-.62h.36a.25.25,0,0,1,.09-.31c-.3,0-.41.08-.61-.06s.09.28-.34.18l.32-.37c.19.27.42.12.85.06-.21.12,0,.16,0,.31C76.27,60,76.1,59.76,76.1,59.55Z" fill-rule="evenodd"/><path d="M81.17,59.82c-.14.18-.24.2-.08.41-.21,0-.31,0-.35.13S80.77,59.82,81.17,59.82Z" fill-rule="evenodd"/><path d="M75.72,60.75c.45.2-.22.33-.45.37.08.06.28.07.25.19C74.69,61.15,75.66,61,75.72,60.75Z" fill-rule="evenodd"/><path d="M21.42,60.23c.14,0-.08.1-.09.15C21.07,60.32,21.36,60.26,21.42,60.23Z" fill-rule="evenodd"/><path d="M50.4,63.15c0-.07-.1-.15-.13-.09-.11-.21.21-.22.6,0,0,0-.51,0-.11.11C50.72,63.24,50.61,63.16,50.4,63.15Z" fill-rule="evenodd"/><path d="M50.52,64.5c.14,0,.07,0,0,0,.14.06.35.12.26.23C50.5,64.7,50.27,64.55,50.52,64.5Z" fill-rule="evenodd"/><path d="M21.68,60.93c.4.09.11.1,0,.13S21.82,61,21.68,60.93Z" fill-rule="evenodd"/><path d="M21,62.15v0c.1,0,.11,0,.12,0a3.64,3.64,0,0,1,.5.22C21.17,62.26,21.47,62.28,21,62.15Z" fill-rule="evenodd"/><path d="M21.52,62.75c-.31-.11.24-.06-.25-.13.41,0,.49-.07.19-.24,0,.08-.3,0-.46,0-.36-.17.51,0,0-.19a1.78,1.78,0,0,1-.36-.09s.08.09-.23,0,.27,0-.26-.16a1.18,1.18,0,0,1,.14.82c.17,0,.15,0,.35,0,0,0,0,0,.12.06s0,0,.12,0c-.11,0,.16.16.38.2-.41-.14-.13-.11,0-.11-.23-.1-.63-.16-.73-.24.42,0-.39-.3.33-.14.33.13-.39.06.52.35,0-.07-.3-.24.21-.15l-.37-.14C21.36,62.68,21.38,62.74,21.52,62.75ZM21,62.41c.39.1.45.17.26.14S21,62.44,21,62.41Z" fill-rule="evenodd"/><path d="M26.07,63.45c.27.07.06.09.14.13a.66.66,0,0,0-.24-.06C25.71,63.45,26.13,63.5,26.07,63.45Z" fill-rule="evenodd"/><path d="M23.89,63.88c.2.1.6.31.26.27S24,64,23.89,63.88Z" fill-rule="evenodd"/><path d="M23.17,63.76a4,4,0,0,1,.49.13s.48.28-.23,0C23.51,63.92,23.9,64,23.17,63.76Z" fill-rule="evenodd"/><path d="M20.43,63.35l.24.07c.37.17.13.14-.11.09S20.64,63.47,20.43,63.35Z" fill-rule="evenodd"/><path d="M81.85,84.84c0-.19.48-.24.61,0C82.64,84.9,82.08,84.79,81.85,84.84Z" fill-rule="evenodd"/><path d="M23.72,64.72s.15,0,.12,0c.44.19.26.15.37.25C24,64.94,24.13,64.85,23.72,64.72Z" fill-rule="evenodd"/><path d="M23.12,64.9c.38.21,0,.17.48.44C22.92,65,23.22,65,23.12,64.9Z" fill-rule="evenodd"/><path d="M22.39,64.77c-.21-.09-.23-.08-.24-.07-.28-.11-.28-.15-.12-.1s.87.4.36.2Z" fill-rule="evenodd"/><path d="M81.73,88.55c.3,0-.41.32-.17.58-.27-.3-.47,0-.63,0-.36-.28,0-.36.05-.62C81.17,88.95,81.53,88.64,81.73,88.55Z" fill-rule="evenodd"/><path d="M92.34,93.74c-.25-.08,0-.28,0-.41a.9.9,0,0,1,.57,1Z" fill-rule="evenodd"/><path d="M20.2,64.45c.5.23,0,.05,0,.09C19.92,64.41,20.35,64.56,20.2,64.45Z" fill-rule="evenodd"/><path d="M78.91,97.27c-.14-.11.08-.05.1-.18.11.17.12.31.25.05.21,0,0,.47-.16.54C78.93,97.58,79.23,97.17,78.91,97.27Z" fill-rule="evenodd"/><path d="M74,103.17c.09-.17,0,.54.17.75-.22-.07-.76-.08-.6.16-.62-.27.26-.25.42-.52-.22-.12-.32,0-.47,0C73.38,103.32,74,103.54,74,103.17Z" fill-rule="evenodd"/><path d="M71.66,104.12c.13-.06.12-.4.42-.11-.36.22.15.66.53.69.07.1,0,.19.21.31C72.31,105,72.1,104.47,71.66,104.12Z" fill-rule="evenodd"/><path d="M72,105.75c-.26-.26-.75-.28-.74-.45.24-.11.44.29.83.35-.11.06,0,.15.11.24-.51.14-.24.52-.73.8-.13-.17-.09-.36.13-.32-.49-.18-.12-.39-.28-.78l.5.36Z" fill-rule="evenodd"/><path d="M74.47,111.12c-.4-.46-.5-.1-.74-.12C73.53,110.62,74.78,110.71,74.47,111.12Z" fill-rule="evenodd"/><path d="M66.56,108.79c.07-.13.73-.62.34,0A.73.73,0,0,0,66.56,108.79Z" fill-rule="evenodd"/><path d="M66.34,109.65a.88.88,0,0,1,.41-.71c.1.29.42.24.67.38a.46.46,0,0,1-.68.13c0,.14.15.11.32.36a.23.23,0,0,0-.3.28C66.54,110.08,66.81,109.79,66.34,109.65Z" fill-rule="evenodd"/><path d="M65.64,109a2.37,2.37,0,0,1-.68,2.18c0,.07.12.19.22.29-.25,0-.35,0-.56-.32-.23.19-.1.33-.46.23,0,.09,0,.19.16.33a8.69,8.69,0,0,0-2.64,2.53c-.09-.4-.33,0-.62-.44A.22.22,0,0,1,61,114c.19.15.28-.09.51.22-.42,0-.46.23-1-.15-.16-.32.7.18.11-.38l2.23-1.59c.7-.49,1.44-1,2.35-1.76.2-.06-.09-.25-.12-.37.19.11.24-.22.44-.06a.46.46,0,0,0-.22-.45C65.36,109.28,65.8,109.2,65.64,109Z" fill-rule="evenodd"/><path d="M54.16,105.24c.26.26-.11.28,0,.47a.69.69,0,0,0,.32.06c.28.8-.67.73-1,1.2-.35-.61-1.61,0-1.23.61-.08.19-.31-.16-.44-.12,0,.22.17.51.07.7a1.18,1.18,0,0,0-.28-.39c-.08.3-.7-.22-1-.28.17.3-.05.33-.25.34,0-.35-.33-.3-.48-.1.07-.43-.12-.81.18-1,.09.13,0,.2.15.34a.69.69,0,0,0,.86-.18.83.83,0,0,1,.41.45c-.11-.39.68-.32.26-.93.17,0,.36,0,.5-.07.28.39-.16.09-.29.21a1.06,1.06,0,0,0,.15.34A15.55,15.55,0,0,0,54.16,105.24Z" fill-rule="evenodd"/><path d="M50.5,102.41c.32.17.49-.1.83.13-.21.12-.7.06-.71.23S50.56,102.5,50.5,102.41Z" fill-rule="evenodd"/><path d="M8.34,59.39l.34.36-.25-.25-.25-.26-.09-.1Z" fill-rule="evenodd"/><path d="M56,110.68c.17-.36.4-.4.6-.76.08.12.11.23,0,.29a1,1,0,0,1,.3.22c-.56-.06-.62.28-.69.67C56.18,111,56.28,110.41,56,110.68Z" fill-rule="evenodd"/><path d="M55.39,111.39c.31.16-.3.06-.48-.24a.29.29,0,0,0,.29-.06C55.34,111.19,55.19,111.45,55.39,111.39Z" fill-rule="evenodd"/><path d="M57,113.64c.08.07.06.1,0,.13l.16.18c-.45-.35-.66.48-1.17-.19.08-.13.22.05.35.19C56.68,113.86,56.83,113.69,57,113.64Z" fill-rule="evenodd"/><path d="M60.57,121.77c-.16.15-.37-.07-.53.08.06-.19-.07-.61.26-.62-.13-.17-.24-.14-.38-.32.24-.14.34,0,.42-.3-.12-.09-.24-.13-.34-.05-.14-.33.15-.19,0-.58.15-.06.34.4.34.5.18,0,.38.16.54.06,0,.12-.06.19.12.36C60.69,121.26,60.43,121.28,60.57,121.77Z" fill-rule="evenodd"/><path d="M44.42,101.95c.06,0,.1.08.08.09s.18,0,.32.21c-.18,0-.42-.14-.61-.15C43.86,101.91,44.62,102.15,44.42,101.95Z" fill-rule="evenodd"/><path d="M45.91,104.43c.08.22.25.48,0,.56-.22-.59-.14.33-.48.2,0,.05.22.5.26.41-.32,0-1,.5-1.63.26.38.68-.49,0-.11.67-.1,0-.28-.3-.38-.32,0,.48-.59.13-.7.35-.09,0-.52-.81-.42-.29-.37-.35.08-.38.41,0,.15-.19.34-.19.64-.15.06-.08,0-.24-.2-.44.31-.11.47.07.49-.34.7,1.07.63-.41,1.45.15C45.22,105,45.72,104.89,45.91,104.43Z" fill-rule="evenodd"/><path d="M50.47,111.83a.28.28,0,0,1-.15.41c.17.29.27.19.43.43-.3.19-.26.52-.33.82-.31-.66-1.35.4-2-.34a.24.24,0,0,1-.13.24.78.78,0,0,0-.82-.16c-.76-.52-1.45-.3-2-.8.26.07.38-.39.28-.34.66-.86,3.18-.61,2.88-2.3-.27,0,.06.67-.42.73,0-.45-.26-.9-.11-1.39-.21-.27-.23.34-.47-.11-.05-.22.23,0,.34-.24.29.77.92.21,1,0,.15.18,0,.21.21.44-.14.19-.51,0-.44.31.73.48.76-.16,1.24-.3-.29.34.12,1.51-.07,2.12-.28.06-.56.24-.21.73-.14.06-.36-.26-.48-.1s.42.5-.06.63a.72.72,0,0,0,.19.45c.46.32.57-.61.87,0,.16,0-.07-.23,0-.3-.16-.24-.19.22-.38-.17s.2-.23.43.14C50.45,112.49,50.12,112,50.47,111.83Z" fill-rule="evenodd"/><path d="M44.77,104.07c.16.21-.21,0-.22.16a.85.85,0,0,1-.34-.5C44.41,103.89,44.54,104.18,44.77,104.07Z" fill-rule="evenodd"/><path d="M43.06,105.57a1.31,1.31,0,0,1-.72.21S42.76,105.24,43.06,105.57Z" fill-rule="evenodd"/><path d="M45.31,110.16c-.58-.86.6-.35,1-.38C46,110,45.68,110.26,45.31,110.16Z" fill-rule="evenodd"/><path d="M28.11,87.72c-.08.12-.38-.36-.5-.38S27.86,87.3,28.11,87.72Z" fill-rule="evenodd"/><path d="M10.22,64.42c-.11.08-.39-.41-.55-.5S10,64.1,10.22,64.42Z" fill-rule="evenodd"/><path d="M17.93,78c.14.27-.2-.13-.22,0-.1-.22-.08-.33,0-.41C17.76,77.81,17.77,78,17.93,78Z" fill-rule="evenodd"/><path d="M8.7,64c-.07,0-.2.15-.51-.24C8.43,63.85,8.42,63.76,8.7,64Z" fill-rule="evenodd"/><path d="M8,63c.15.38-.22-.09-.3-.09C7.38,62.9,7.83,62.83,8,63Z" fill-rule="evenodd"/><path d="M11.67,74.28c-.06,0,0,.17-.06.18-.23-.39,0-.53.09-.49,0,.35.31.47.52.81a1.65,1.65,0,0,0,.4.88,1.35,1.35,0,0,1-.67-.42C12.13,75.23,12.33,75.19,11.67,74.28Z" fill-rule="evenodd"/><path d="M9.18,77.88c.26.15,0-.15-.15-.33.28.47-.12.28-.19.55a3.3,3.3,0,0,1-.42-.59c.09-.08.53.12.07-.61,0-.51.5-.59.38-1.24-.71-1-.65-.39-.67.14-.2-.41-.28-.3-.42-.45-.49-1.23.4-.58.79-.5,0,.17.29.35.27.54.54.55,1,.63,1.57,1.41.1,0,0-.23.09-.2a2.27,2.27,0,0,0,.33.5c0-.28.07-.47.36.19,0-.06.22,0,0-.29.13.1.3.37.43.44s-.17-.35,0-.29c.32.48.46.23.79.77-.07-.45.58.21.95.67.12,1.17-1-.19-1.57.16-.38-.67-.63-.71-.7-.41a1.71,1.71,0,0,1-.42-.58.3.3,0,0,1-.34.07c0,.77.36,1.87-.07,2.32-.25-.34-.16-.13-.33-.21a9.59,9.59,0,0,0-.31-1.36A4,4,0,0,1,9.18,77.88Z" fill-rule="evenodd"/><path d="M40,21.95a1.8,1.8,0,0,0,.47-.1c0,.19.27.16.24.35-.27,0-.76.27-.44.21-.12.14-.62,0-.42.25-.44.12-.26-.19-.77,0C39.69,22.33,39.8,22.22,40,21.95Z" fill-rule="evenodd"/><path d="M83.7,45.85c.34.07.43.28.78.34,0,.11-.28.14-.58.17.14,0,.12.09-.11.11.36.1.09.25.43.38-.25.13-.64.23-.54.45-.3-.31.07-.69-.25-.84.17-.12.47-.21.55-.36-.17-.11-.56-.1-.54-.32.24,0,.37-.06.34-.14a1.23,1.23,0,0,0,.37,0A2.79,2.79,0,0,1,83.7,45.85Z" fill-rule="evenodd"/><path d="M77.08,58.59c.1.1.39.09.39.25-.55,0-.42.28-.43.52-.48,0-.17-.4-.3-.57C76.85,58.72,77.18,58.76,77.08,58.59Z" fill-rule="evenodd"/><path d="M60.9,117.37c-.22-.17.14-.2-.24-.57.35.25.59-.13,1,.32.17-.38.1-.83-.63-1.49,0-1,1.3-1.08,2.22-.76,1.26.92,1.78,1.86,1.46,2.37-.49.76-2.43.11-2.51,1-.32,0-.94.42-1.48.33-.19-.33-.18-.21-.49-.54.15-.24.68-.36.26-.78A.65.65,0,0,1,60.9,117.37Z" fill-rule="evenodd"/></g></g></svg>