<svg xmlns="http://www.w3.org/2000/svg" viewBox="0 0 132.64 58.75"><title>Asset 9-240</title><g id="Layer_2" data-name="Layer 2"><g id="Layer_30" data-name="Layer 30"><path d="M25.62,57.22l3.71-2.28a66.83,66.83,0,0,1,7.8-4.18A22.53,22.53,0,0,1,41,49.48a32.94,32.94,0,0,1,5.17-.77,89.65,89.65,0,0,1,15.5.61l4.68.53c1.53.18,3,.37,4.39.57,2.78.4,5.26.86,7.4,1.37a40.08,40.08,0,0,1,5.46,1.68,22.88,22.88,0,0,1,3.63,1.79A13.26,13.26,0,0,1,90.54,58c.44.55.55.78.57.78l41.54-25.2-1.19-1.86a56.61,56.61,0,0,0-3.66-4.91,61.93,61.93,0,0,0-15.32-13,71.41,71.41,0,0,0-11-5.46,88.45,88.45,0,0,0-12-3.74c-4-1-8-1.67-11.8-2.22-1.91-.28-3.76-.51-5.57-.73L66.73,1A136,136,0,0,0,42.59.26a81.5,81.5,0,0,0-12.88,2A71.59,71.59,0,0,0,18,6.08,111.84,111.84,0,0,0,4.21,13.36L0,15.94Z" fill="none"/><path d="M21,49.78c.12-.13.27-.1.48.27C21.36,50.18,21.21,50.15,21,49.78Z" fill-rule="evenodd"/><path d="M23.24,52.77c0-.32-1-1.16-.6-1.34.16.38.72.71.46.86.41.51.09-.11.28-.17C23.75,52.79,23.51,52.64,23.24,52.77Z" fill-rule="evenodd"/><path d="M9.31,30.17c-.35-.56-.66-1.09-.45-1.24C9.1,29.41,9.41,29.94,9.31,30.17Z" fill-rule="evenodd"/><path d="M18.21,43.89c-.28-.48-.16-.92.06-.8C18.52,43.55,18.63,44.16,18.21,43.89Z" fill-rule="evenodd"/><path d="M14.71,38.25c-.14-.34,0-.69.23-.52C15,38,14.93,38.39,14.71,38.25Z" fill-rule="evenodd"/><path d="M14.46,37.84c-.07-.41-.43-.67-.68-1.1.12-.25,0-.67.17-.87.17.4.39.84.23,1,.41.57.18-.39.63.37C14.46,37.28,14.62,37.67,14.46,37.84Z" fill-rule="evenodd"/><path d="M18.52,44.27c.22-.05.46,0,.79.65C19,44.57,18.83,44.77,18.52,44.27Z" fill-rule="evenodd"/><path d="M17,41.75c.2.05.43.3.68.72a.48.48,0,0,0,.06.35C17.44,42.69,17.32,42.18,17,41.75Z" fill-rule="evenodd"/><path d="M8.36,26.19c-.17-.35-.32-.69-.19-.83C8.46,25.79,8.44,26,8.36,26.19Z" fill-rule="evenodd"/><path d="M25.83,54.21c-.37-.49-.22-.76,0-.58C26.14,54,26,54.14,25.83,54.21Z" fill-rule="evenodd"/><path d="M24.1,50.91c.13-.17.34.06.5.07C24.85,51.42,24.36,51.39,24.1,50.91Z" fill-rule="evenodd"/><path d="M24.65,50.95c.39-.71,2.06,2.09,2.6,3.15-.43-.19-1-1-1.35-.88C25.24,52.51,25.16,51.5,24.65,50.95Z" fill-rule="evenodd"/><path d="M10,24.82c-.14-.28-.34-.61-.16-.66.32.57.21.3.35.17a1.48,1.48,0,0,0,.19.45C10.24,24.92,10.07,24.6,10,24.82Z" fill-rule="evenodd"/><path d="M31.4,53.32c-.09-.19,0-.27-.15-.48.11,0,.3.3.5.65C31.68,53.66,31.49,53.27,31.4,53.32Z" fill-rule="evenodd"/><path d="M31.62,51.88a2.57,2.57,0,0,0,.54.63C32.53,53.27,31.28,52.07,31.62,51.88Z" fill-rule="evenodd"/><path d="M33.73,48.92a2.79,2.79,0,0,0-.25-.6C33.62,48.14,34,49,33.73,48.92Z" fill-rule="evenodd"/><path d="M37.9,47.83c-.17-1,.59.79,0,0Z" fill-rule="evenodd"/><path d="M41.82,46.63c0-.52.05-.9.2,0C41.87,46.51,41.91,46.49,41.82,46.63Z" fill-rule="evenodd"/><path d="M42.24,47.38c-.09-.49,0-.49.16-.51a2.5,2.5,0,0,0,0,.48C42.31,47.06,42.38,47.46,42.24,47.38Z" fill-rule="evenodd"/><path d="M42.6,47.16c-.11-.54.12-.71.2,0Z" fill-rule="evenodd"/><path d="M42.69,46.16c0-.31.11-.74.21-.53s0,.35.05.65C42.86,46.32,42.77,46.34,42.69,46.16Z" fill-rule="evenodd"/><path d="M43.91,46c0-.19,0-.48.16-.51C44.18,46.09,44,46.26,43.91,46Z" fill-rule="evenodd"/><path d="M45.11,42.94c-.07-.56.17-.7.25-.51C45.4,42.92,45.22,42.84,45.11,42.94Z" fill-rule="evenodd"/><path d="M43.47,4.91c.16-.67.21-.13,0-1,.31-.19.27.39.54.29a1.83,1.83,0,0,0,0,.81C43.74,4.9,43.68,5,43.47,4.91Z" fill-rule="evenodd"/><path d="M44.64,4.35c0-.37.48-.09.68-.2,0,.57-.48.19-.39.83C44.7,5.07,44.82,4.39,44.64,4.35Z" fill-rule="evenodd"/><path d="M47.87,4.4a.54.54,0,0,1,.41-.5C48.33,4.6,48.09,4.53,47.87,4.4Z" fill-rule="evenodd"/><path d="M49.16,41.44c.12-.88-.11-.33-.23-1,0-.61.31.67.27-.17.07.06.09.29.17.32,0,.21-.09.25-.1.49s.36,0,.33,1C49.39,41.9,49.49,41.46,49.16,41.44Z" fill-rule="evenodd"/><path d="M49.37,40.31c.08-.5.27.06.44,0-.05.33-.21.35-.38.32C49.44,40.44,49.41,40.34,49.37,40.31Z" fill-rule="evenodd"/><path d="M49.76,41.28c0-.35.14-.35.27-.32C50,41.44,49.84,41.53,49.76,41.28Z" fill-rule="evenodd"/><path d="M50.48,39.18c0-.62.65-1,.74-.32-.14.16-.34-.45-.4.48C50.64,39.46,50.65,39.06,50.48,39.18Z" fill-rule="evenodd"/><path d="M51.61,3.41c.3.33.61-.34.64.5C52,3.71,51.62,4,51.61,3.41Z" fill-rule="evenodd"/><path d="M51.81,5.68c.15-.17.29-.4.49-.47C52.22,5.71,52,5.89,51.81,5.68Z" fill-rule="evenodd"/><path d="M53.32,38.27c0-.52.39-.71.49-.46C53.67,38,53.53,38.26,53.32,38.27Z" fill-rule="evenodd"/><path d="M53.53,40.22c-.07,0,0-.3,0-.49.23,0,.45-.33.51.35C53.87,40,53.68,40,53.53,40.22Z" fill-rule="evenodd"/><path d="M55.91,2.9c.18.21.51.16.52.67C56.09,3.65,55.93,3.39,55.91,2.9Z" fill-rule="evenodd"/><path d="M57.09,3.12c.38-.09.5.26.67.53-.12.67-.47-.5-.48.29C57,4,57.14,3.41,57.09,3.12Z" fill-rule="evenodd"/><path d="M56.14,36.15l0-.48c.28-.12.28,0,.5-.13,0,.24.06.41.08.65a2.25,2.25,0,0,0,.28-.47c.09,0,0,.48.09.49-.1.42-.48.34-.48-.19C56.48,36.44,56.36,36.26,56.14,36.15Z" fill-rule="evenodd"/><path d="M59.68,3.94c.05-.31.08-.69.28-.63C59.95,3.74,59.92,4.12,59.68,3.94Z" fill-rule="evenodd"/><path d="M63.73,9c.11-.39.26.25.5,0,0-.44,0-.41,0-1,.53.08,1.19-.26,1.71.18.18.14,0-.76.21-.63s.19.63.34.85c-.11.6-.45.44-.5-.05a1.13,1.13,0,0,0-.21.63c-.26-.48-.58,0-.72-.72-.51-.09-.72.75-.94,1.53C64,9.52,63.93,9.14,63.73,9Z" fill-rule="evenodd"/><path d="M64.19,12.3c.32.35.54.08.86-.07,0,.36-.16.22-.19.47.22.78.75-.35,1.21,0-.4,1-.86.61-1.27.68.07-.55-.34-.27-.36-.69-.11.06,0,.21,0,.48C64.17,13.13,64.19,12.7,64.19,12.3Z" fill-rule="evenodd"/><path d="M61.74,37.43c.18-.62.49-.65.67-.26C62.24,37.23,62.1,37.53,61.74,37.43Z" fill-rule="evenodd"/><path d="M63,25.35c.13-.5,0-.43.15-.8.24.14-.1.53.14.66C63.19,25.44,63.06,25.34,63,25.35Z" fill-rule="evenodd"/><path d="M63.42,24.75c.37-.83.33.85,0,1.14C63.09,25.09,63.77,25.39,63.42,24.75Z" fill-rule="evenodd"/><path d="M66,2.88c.24,0,.1.71.37.69-.07.21-.19.28-.32.29C66.13,3.4,65.95,3.35,66,2.88Z" fill-rule="evenodd"/><path d="M65.35,17.46c-.11-.32-.38-.37-.4-.85C65.21,16.67,65.38,16.88,65.35,17.46Z" fill-rule="evenodd"/><path d="M64.55,21.77c.28-.7.27.05.56-.76-.18.56,0,.4,0,1C64.85,22.19,64.63,22.15,64.55,21.77Z" fill-rule="evenodd"/><path d="M63.51,36c.17-.53.36,0,.68-.25a.85.85,0,0,1-.26.62C63.69,36.12,63.76,36.08,63.51,36Z" fill-rule="evenodd"/><path d="M66.38,12.36c.31-.16.05.69.19.84,0,.22-.19.11-.29.13C66.37,12.82,66.19,12.69,66.38,12.36Z" fill-rule="evenodd"/><path d="M67,6.4c.14-.13.6-.39.65-.09C67.54,6.87,67.22,6.47,67,6.4Z" fill-rule="evenodd"/><path d="M65.67,24c.05-.62.5-.63.59-.42C66.08,23.78,65.85,23.81,65.67,24Z" fill-rule="evenodd"/><path d="M68.4,3c.18-.31.74-.14.67.4A.92.92,0,0,1,68.4,3Z" fill-rule="evenodd"/><path d="M66.11,25.52a1.29,1.29,0,0,1,.55-1.24c-.06.27,0,.31.1.34-.2.48-.44,1.8-.7,1.39,0-.56.28-.24.34-.62S66.11,25.26,66.11,25.52Z" fill-rule="evenodd"/><path d="M65,36.15c-.09-.68.3-.3.51-.43C65.45,36.66,65.19,35.6,65,36.15Z" fill-rule="evenodd"/><path d="M69.22,6.49c.11-.58.51-.24.56.06C69.56,6.8,69.29,6.87,69.22,6.49Z" fill-rule="evenodd"/><path d="M67.33,24.36c.21-.92.58.37,0,0Z" fill-rule="evenodd"/><path d="M69.16,8.92c.06-.66.44-1,.58-.75C69.58,8.54,69.41,8.86,69.16,8.92Z" fill-rule="evenodd"/><path d="M66.53,36c-.14-.43.36-.5.58-.42C67,36.29,66.58,35.81,66.53,36Z" fill-rule="evenodd"/><path d="M68.32,22.19c.17-.48.35-.19.47.05C68.69,22.64,68.56,22,68.32,22.19Z" fill-rule="evenodd"/><path d="M70.52,8.11c.09-.35.41,0,.32.36C70.6,8.58,70.65,8.19,70.52,8.11Z" fill-rule="evenodd"/><path d="M67.43,38.38c.18-.56.41-.57.63-.42C67.93,38.56,67.6,38.61,67.43,38.38Z" fill-rule="evenodd"/><path d="M69.48,22.82c.06-.23.15-.39.21-.63.07.07.14.3,0,.33s.07.14.12.18C69.73,22.91,69.54,23,69.48,22.82Z" fill-rule="evenodd"/><path d="M71.21,8.35a.36.36,0,0,1,.6-.25C71.64,8.45,71.42,8.67,71.21,8.35Z" fill-rule="evenodd"/><path d="M69.41,23.95c0-.62.31-.73.39-.44C69.71,23.78,69.62,24.05,69.41,23.95Z" fill-rule="evenodd"/><path d="M71,11.09c0-.45.23-.44.41-.44C71.35,11.28,71,11.28,71,11.09Z" fill-rule="evenodd"/><path d="M71.57,7.74c-.19-.43.54.29.43-.6l.36,0a3.92,3.92,0,0,1-.24.78C72,7.85,71.82,7.7,71.57,7.74Z" fill-rule="evenodd"/><path d="M70.08,21.26c0-.13.09-.15.11-.31l.14,0c-.22.18.2,1-.2,1.12,0-.19,0-.28.11-.31A.84.84,0,0,0,70.08,21.26Z" fill-rule="evenodd"/><path d="M68.21,38.32c.1-.73.48-.36.76-.4C68.81,38.42,68.52,38.36,68.21,38.32Z" fill-rule="evenodd"/><path d="M71.94,8.27c.1-.36.41,0,.59-.09C72.41,8.92,72.11,8.44,71.94,8.27Z" fill-rule="evenodd"/><path d="M72.66,7.71c.17-.43.42.06.39.37.13-.23.41-.46.52-.1C73.19,8.6,72.85,8.32,72.66,7.71Z" fill-rule="evenodd"/><path d="M69.57,35.71c0-.33.16-.12.27-.62a1,1,0,0,1,0,1c0-.37-.46.09-.32-.53C69.59,35.52,69.58,35.61,69.57,35.71Z" fill-rule="evenodd"/><path d="M74.28,8.24c.13-.55.49-.37.79-.38A.81.81,0,0,1,74.28,8.24Z" fill-rule="evenodd"/><path d="M70.55,37.14l.06-.48c.4,0,.9-.41,1.19.16C71.47,37.41,71,37,70.55,37.14Z" fill-rule="evenodd"/><path d="M75.13,3l.3,0c0,.4-.18.48-.26.78C75,3.55,75.18,3.45,75.13,3Z" fill-rule="evenodd"/><path d="M73.24,23a1.2,1.2,0,0,1-.18.79c0-.37-.25-.32-.34-.54.09-.28.13,0,.2,0S73.05,22.76,73.24,23Z" fill-rule="evenodd"/><path d="M72.35,30c0-.26.1-.27.13-.47.15,0,.16.3.37.21-.41.42.09.33-.31.77C72.36,30.57,72.58,29.92,72.35,30Z" fill-rule="evenodd"/><path d="M74.92,12.25c.23-.06.52-.6.53-.09C75.25,12.43,75.08,12.39,74.92,12.25Z" fill-rule="evenodd"/><path d="M73.62,22.2c0-.5.26-.16.25-.78.39,0,.18.41.64.42C74.28,22.78,73.94,21.55,73.62,22.2Z" fill-rule="evenodd"/><path d="M73.16,29A5.79,5.79,0,0,1,73,30.61c-.2-.34.09-1.43-.15-1.33C72.72,28.93,73.07,28.75,73.16,29Z" fill-rule="evenodd"/><path d="M72.46,37.08l.09-.64.25,0C72.69,36.65,72.64,37.13,72.46,37.08Z" fill-rule="evenodd"/><path d="M76.82,7.78c-.17-.21.32-.16.42-.27-.16.72.24-.22.08.5C77.07,8.06,77.1,7.69,76.82,7.78Z" fill-rule="evenodd"/><path d="M75.41,17.55c0-.39.18-.33.19-.79.06.19.06.48.31.37C75.79,17.46,75.62,17.59,75.41,17.55Z" fill-rule="evenodd"/><path d="M73.09,36.68c.56-.58,1-.67,1.53-.09C74.2,36.92,73.52,37.19,73.09,36.68Z" fill-rule="evenodd"/><path d="M73.89,33a6.36,6.36,0,0,0,.33-.93c.14.07.2.29.42.23C74.52,33.13,74.16,32.89,73.89,33Z" fill-rule="evenodd"/><path d="M73.9,34.67l0-.32s.07-.05.09-.15,0,.2,0,.33c.17,0,.17-.25.25,0S74,34.6,73.9,34.67Z" fill-rule="evenodd"/><path d="M75.4,25.24c.16,0,.29-.21.49-.09-.11.41-.36.29-.46.75A1.2,1.2,0,0,1,75.4,25.24Z" fill-rule="evenodd"/><path d="M75.39,27.53l0,.32c-.18,0-.17.25-.26,0l0-.32C75.3,27.24,75.21,27.52,75.39,27.53Z" fill-rule="evenodd"/><path d="M75.54,30.83a.43.43,0,0,1,.44-.26C75.83,31.22,75.75,30.86,75.54,30.83Z" fill-rule="evenodd"/><path d="M76.53,24.6c0-.14.05-.15.09-.15s.09.17.18.19a1.48,1.48,0,0,0-.22.95C76.21,25.71,76.63,24.62,76.53,24.6Z" fill-rule="evenodd"/><path d="M78.34,13.25c0-.26.11-.26.15-.47.25.48.41-.19.77,0-.05.4-.2.47-.28.77A.74.74,0,0,0,78.34,13.25Z" fill-rule="evenodd"/><path d="M79.94,3.18c0-.39.34.14.31-.44,0,.18.29.1.16.52C80.18,3.13,80,3.55,79.94,3.18Z" fill-rule="evenodd"/><path d="M78.65,14.12c.06-.41.09-.19.17-.14s.09-.19.13-.31.21.17.14.52S78.89,14.07,78.65,14.12Z" fill-rule="evenodd"/><path d="M79.15,13.38c.14-.19.17-.75.31-.93.29.1-.18.54.14.52C79.55,13.47,79.35,13.45,79.15,13.38Z" fill-rule="evenodd"/><path d="M74.9,39.42c.09-.53.27-.58.46-.58C75.23,39.11,75,39.78,74.9,39.42Z" fill-rule="evenodd"/><path d="M79.11,14.52c.05-.32.23-.17.25-.61.2,0-.22.88.11.68C79.39,15,79.14,14.62,79.11,14.52Z" fill-rule="evenodd"/><path d="M80.51,8c.24.26.28,0,.51.25C80.83,8.42,80.33,8.75,80.51,8Z" fill-rule="evenodd"/><path d="M79.8,12.67c.08-.37.34,0,.37.06s-.11.11-.18.14.14.19.07.5C79.68,13.7,80,12.8,79.8,12.67Z" fill-rule="evenodd"/><path d="M81.87,3.33c.18-.31.57,0,.78-.19C82.46,3.91,82.23,3.41,81.87,3.33Z" fill-rule="evenodd"/><path d="M76.2,36.52c0-.29.11-.32.09-.15.06,0,.08-.19.12-.31.23-.07.12.6,0,.82C76.27,36.86,76.39,36.43,76.2,36.52Z" fill-rule="evenodd"/><path d="M80.26,13.07a.36.36,0,0,1,.35-.27c0,.18,0,.29,0,.33C80.55,13.51,80.29,13.17,80.26,13.07Z" fill-rule="evenodd"/><path d="M80.84,9.72c.13-.47.14.18.31.05l-.06.32c-.08.07-.15.14-.26.12C80.88,10,80.93,9.77,80.84,9.72Z" fill-rule="evenodd"/><path d="M81,8.77c.07-.59.36-.43.58-.55C81.55,8.94,81.2,8.57,81,8.77Z" fill-rule="evenodd"/><path d="M80.67,11.17a2.05,2.05,0,0,0,.21-.78c.37.73.57-.92.85-.34-.29.4-.19.81-.38,1.25,0,.25.13.38.32.39C81.32,12.05,81,11.39,80.67,11.17Z" fill-rule="evenodd"/><path d="M77.83,28.26c0-.6.4-.23.42-.09C78.18,28.52,78,28.19,77.83,28.26Z" fill-rule="evenodd"/><path d="M80.42,13.92l.3.05c0,.5-.26.27-.29.77A2.35,2.35,0,0,1,80.42,13.92Z" fill-rule="evenodd"/><path d="M82.89,3.68a1.3,1.3,0,0,0,.17-.46c.19.73,1,0,1.13.7C83.72,4,83.26,4.19,82.89,3.68Z" fill-rule="evenodd"/><path d="M82,16.52a1.43,1.43,0,0,0,.17-.46c.24.09.62,0,.71.3-.06.62-.39.12-.45.74C82.32,16.61,82.2,16.73,82,16.52Z" fill-rule="evenodd"/><path d="M78.43,35.28c.44-.92.65.21,1.1-.44l-.13.63C79,35.09,78.81,35.65,78.43,35.28Z" fill-rule="evenodd"/><path d="M78.71,33.85c.22-.39.73-.58.74-.18C79.29,34.24,79,33.8,78.71,33.85Z" fill-rule="evenodd"/><path d="M82.19,17.88c.3-.44.43-.06.86-.16l-.16.79A3.2,3.2,0,0,1,82.19,17.88Z" fill-rule="evenodd"/><path d="M78.66,37c.14-.18.41-.35.45-.08C79,37.13,78.71,37.29,78.66,37Z" fill-rule="evenodd"/><path d="M83.3,17.27c.29-.77-.12-.6-.2-.87.24-.16.4-.67.72-.51-.23.58.14.35,0,.82C83.52,16.44,83.55,17.45,83.3,17.27Z" fill-rule="evenodd"/><path d="M81.94,22.78c-.12-.15.53-.33.52-.06C82.27,23.31,82.16,22.77,81.94,22.78Z" fill-rule="evenodd"/><path d="M79.7,33.72c.17-.8.39.51.59-.37,0,0,0,.17.09.18s0,.16,0,.17C80.2,33.88,79.81,34.08,79.7,33.72Z" fill-rule="evenodd"/><path d="M85.27,7.76c.42-.79.88-.57,1.43-.35C86.08,8.18,85.72,7.31,85.27,7.76Z" fill-rule="evenodd"/><path d="M79.67,35.37l.1-.48c.53.13,1-.15,1.3.12C80.41,35.84,80.25,35.2,79.67,35.37Z" fill-rule="evenodd"/><path d="M83.94,14.93c.08-.63.27.14.56,0C84.3,15.47,84.17,14.93,83.94,14.93Z" fill-rule="evenodd"/><path d="M79.43,37.14c.1-.63.36-.12.54-.22C79.83,37.32,79.5,37.5,79.43,37.14Z" fill-rule="evenodd"/><path d="M80.19,37.3c.12-.64.64-.85.35.08Z" fill-rule="evenodd"/><path d="M86.74,7.58c.1-.43.47-.29.52-.05C87.06,7.9,86.92,7.75,86.74,7.58Z" fill-rule="evenodd"/><path d="M82.54,27.87c.15-.35.43,0,.63,0C83,28.23,82.62,28.17,82.54,27.87Z" fill-rule="evenodd"/><path d="M86,12.55c.25-.35.19-.31.29-.93-.14,1,.71.19.53,1.29C86.56,12.52,86.36,12.53,86,12.55Z" fill-rule="evenodd"/><path d="M80.51,38c.1-.47.39-.47.42-.23C80.83,38.2,80.66,38.07,80.51,38Z" fill-rule="evenodd"/><path d="M81.4,35.25c.16-.69.66-.41.56.3C81.66,35.61,81.65,35.25,81.4,35.25Z" fill-rule="evenodd"/><path d="M82.06,32.91c.15-.22.49-.72.31.07C82.2,32.84,82.11,33.24,82.06,32.91Z" fill-rule="evenodd"/><path d="M86.61,13.36c.19-.67.69,0,1-.09C87.26,14.17,87.13,12.87,86.61,13.36Z" fill-rule="evenodd"/><path d="M80.79,38.93c.18-.51.43-.46.66-.51l-.15.63C81.1,38.86,80.82,39.19,80.79,38.93Z" fill-rule="evenodd"/><path d="M86.47,15.32l.15-.63c.26-.06.24.23.42.27C86.9,15.33,86.67,15.24,86.47,15.32Z" fill-rule="evenodd"/><path d="M87.6,11.93c-.11.29-.12,1-.35.75C87.3,12.3,87.31,11.92,87.6,11.93Z" fill-rule="evenodd"/><path d="M82.92,32.61c-.17,0-.25-.12-.13-.53.13.1.2-.25.35-.08A2.4,2.4,0,0,1,82.92,32.61Z" fill-rule="evenodd"/><path d="M81.48,38.76c.15-.58.78-.43.78.2-.23,0-.69.41-.69-.34C81.54,38.58,81.51,38.67,81.48,38.76Z" fill-rule="evenodd"/><path d="M88.54,10.82c0-.14.07-.14.12-.14s.32-.15.4-.56c.28.45.41.36.86.39-.13.37.06.38-.12.8C89.42,10.66,89.2,10.85,88.54,10.82Z" fill-rule="evenodd"/><path d="M89.29,8.17c.08-.61.44-.1.66-.16C89.65,8.34,89.58,8.41,89.29,8.17Z" fill-rule="evenodd"/><path d="M82.07,38.08c.14-.18.41-.33.44-.06C82.36,38.2,82.1,38.35,82.07,38.08Z" fill-rule="evenodd"/><path d="M82.56,36.86c.23-.06.07.6-.08.81C82.36,37.62,82.45,37.25,82.56,36.86Z" fill-rule="evenodd"/><path d="M90.12,8.39c.31-.59.86,0,1,.08C90.89,8.79,90.32,8.56,90.12,8.39Z" fill-rule="evenodd"/><path d="M90,9.53c-.2-.35.66-.66.33.08C90.08,9.78,90.12,9.13,90,9.53Z" fill-rule="evenodd"/><path d="M87.4,19.89c.11-.1,1.16-.71,1,.27-.51-.5-.73,1.78-1.09.88C87.57,20.61,87.9,19.89,87.4,19.89Z" fill-rule="evenodd"/><path d="M85.87,28.19c.64-.57.48.74.91.76-.42.91-.42-.28-.95-.1,0-.26.13-.25.19-.45C85.91,28.41,86,28.22,85.87,28.19Z" fill-rule="evenodd"/><path d="M85.17,32c-.09.41-.21.66-.35.57C84.78,32.3,85,32,85.17,32Z" fill-rule="evenodd"/><path d="M89,17.28c.27-.46.67-.17.83.23C89.48,18,89.29,17.35,89,17.28Z" fill-rule="evenodd"/><path d="M89.93,13.69c.13-.21.29-.28.48-.2C90.32,14,90,14,89.93,13.69Z" fill-rule="evenodd"/><path d="M83.68,38.16c-.06-.18.64-.14.59-.17C84.19,38.81,83.91,38.18,83.68,38.16Z" fill-rule="evenodd"/><path d="M88.88,20.46c-.18-.46.62-.69.29.08C88.95,20.71,89,20.06,88.88,20.46Z" fill-rule="evenodd"/><path d="M86.76,28.27c.09-.44.29-.08.4-.39a1.19,1.19,0,0,1,0,.66C86.94,28.51,86.79,28.47,86.76,28.27Z" fill-rule="evenodd"/><path d="M87.69,26c.07-.44.22-.27.31-.58.21.08.57,0,.34.6C88.11,25.87,87.93,26.21,87.69,26Z" fill-rule="evenodd"/><path d="M88.88,29.24c-.32-.41-1.23.24-1-.65.4-.19.44.64.94,0-.46-.36-1-.21-1.59-.14.14.39-.28.46-.35.74.39.9.91.23,1.56.64.22-.16.14-.3.27-.42C88.64,29.59,88.8,29.41,88.88,29.24Zm-1.6-.32c.11-.59.43-.18.43,0C87.6,29.22,87.42,28.86,87.28,28.92Z" fill-rule="evenodd"/><path d="M88.59,25.93c.13-.34.35,0,.52,0C88.88,26.4,88.72,26,88.59,25.93Z" fill-rule="evenodd"/><path d="M92.93,14.06c-.33.5-.38-.07-.77-.07A.53.53,0,0,1,92.93,14.06Z" fill-rule="evenodd"/><path d="M93.68,9.21c.23-.52,1.4.24,1.66.34-.6.33-1-.32-1.63.17C93.9,9.54,94,9.16,93.68,9.21Z" fill-rule="evenodd"/><path d="M93,12.2c.54-.57,1.15-.09,1.49.12C94,12.68,93.52,12.4,93,12.2Z" fill-rule="evenodd"/><path d="M88.78,27l.33.1C88.71,27.51,88.47,28.38,88.78,27Z" fill-rule="evenodd"/><path d="M85.31,39.32c.05-.34-.15-.34,0-.84.17.2.3-.65.47-.36-.07.16-.14.07-.21.27l0,.51C85.52,39.26,85.4,39,85.31,39.32Z" fill-rule="evenodd"/><path d="M88,30.16c.21-.34.4,0,.48-.19C88.53,30.55,88.15,30.37,88,30.16Z" fill-rule="evenodd"/><path d="M89.32,26c.15-.23.34-.08.51-.18C89.71,26.54,89.34,26.19,89.32,26Z" fill-rule="evenodd"/><path d="M89.89,24.13c.11-.22.23-.36.33-.58.14.22.3.2.52-.18a1.77,1.77,0,0,1,0,.86C90.46,24,90.19,24.21,89.89,24.13Z" fill-rule="evenodd"/><path d="M84.92,40.38c.13-.39.27-.25.42-.21C85.18,40.37,84.92,40.67,84.92,40.38Z" fill-rule="evenodd"/><path d="M89.1,27.61c.26-.27.11-.83.44-.71C89.58,27.18,89.29,27.6,89.1,27.61Z" fill-rule="evenodd"/><path d="M91.09,21.79c.26-.43.28.22.51.16C91.35,22.52,91.18,22,91.09,21.79Z" fill-rule="evenodd"/><path d="M87.93,32c.15-.54.5-.55.52-.34s-.23.35-.17.11c-.08,0-.14.26-.21.44C88,32.11,88,32,87.93,32Z" fill-rule="evenodd"/><path d="M86.52,36.81c.28-.21.86-.59.84.11C87,37.31,86.71,37.21,86.52,36.81Z" fill-rule="evenodd"/><path d="M93.56,15.1c.44-.45.84.15,1.25.25C94.52,15.66,93.89,15.22,93.56,15.1Z" fill-rule="evenodd"/><path d="M93.67,17.69c-.22-.17-.33.21-.39-.13a1.3,1.3,0,0,0,.23-.43c0,.13.13.31.23.08.08,0,.05.08,0,.18Z" fill-rule="evenodd"/><path d="M93.49,18.49c0,.13-.08.14-.13.13-.06.23.21.13.12.38-.12.58-.38,0-.51.51-.23,0,.34-.82.1-.82A.37.37,0,0,1,93.49,18.49Z" fill-rule="evenodd"/><path d="M86.27,39.8c.15-.59.53-.24.26.26C86.41,40,86.47,39.74,86.27,39.8Z" fill-rule="evenodd"/><path d="M87.36,37.09c.07-.25.14-.25.21-.44.09.1.22.14.07.54Z" fill-rule="evenodd"/><path d="M94.31,18.08a.46.46,0,0,0-.26.25c-.16-.21.39-.56-.07-.54.1-.3.28-.12.36-.56.26-.14,0,.69.26.26.18.21-.22.48-.26.76C94.26,18.26,94.28,18.17,94.31,18.08Z" fill-rule="evenodd"/><path d="M86.33,40.67c.23-.47.32-.07.42,0C86.6,41,86.47,40.62,86.33,40.67Z" fill-rule="evenodd"/><path d="M87.7,37.2c.12-.59.55-.5.5-.17C88,37.63,87.87,37.13,87.7,37.2Z" fill-rule="evenodd"/><path d="M92.25,24l.16-.46c.13.19.5.13.33.63C92.71,23.87,92.43,24,92.25,24Z" fill-rule="evenodd"/><path d="M89.43,33.18c.22-.48.44-.9.67-1.31C90.1,32,89.63,33.39,89.43,33.18Z" fill-rule="evenodd"/><path d="M88.25,37.4c.09-.28.18-.3.27-.59.28.25.63.24.72.44C88.83,37.91,88.7,37.37,88.25,37.4Z" fill-rule="evenodd"/><path d="M98.25,10c.15-.28.71-.05.32.46C98.27,10.51,98.56,10,98.25,10Z" fill-rule="evenodd"/><path d="M87,42.1c.25-.68.33,0,.13.39C86.9,42.55,87.16,42,87,42.1Z" fill-rule="evenodd"/><path d="M87.5,42.47l.17-.45c.2.47.69-.16.75.47C87.86,43,87.92,42.17,87.5,42.47Z" fill-rule="evenodd"/><path d="M89.35,37.63c.24-.4.25-.13.55-.13C89.7,38.11,89.53,37.56,89.35,37.63Z" fill-rule="evenodd"/><path d="M96.65,20c.46-.68.3.56.66-.09.1.44-.45.46-.62.45C96.7,20.19,96.72,20,96.65,20Z" fill-rule="evenodd"/><path d="M100.32,12.91c.43-.07,1.36.44,1.61.5C101.57,13.88,100.57,13.17,100.32,12.91Z" fill-rule="evenodd"/><path d="M95.28,25.53c.41-.31.4.55.57.76C95.24,26.79,95.5,25.87,95.28,25.53Z" fill-rule="evenodd"/><path d="M98.82,16.84c.2-.49.4-1.07.67-.95C99.28,16.33,99.09,16.91,98.82,16.84Z" fill-rule="evenodd"/><path d="M88.47,42.51c.18-.31.46-.35.18.24C88.52,42.76,88.47,42.66,88.47,42.51Z" fill-rule="evenodd"/><path d="M96.53,26.24c.26-.2.43-.12.55.06-.18.13-.36.35-.54.29C96.56,26.45,96.59,26.3,96.53,26.24Z" fill-rule="evenodd"/><path d="M98.65,22.39c.15-.4.32-.44.5-.31C99,22.48,98.82,22.52,98.65,22.39Z" fill-rule="evenodd"/><path d="M99.67,20.72c.15.23,0,.68-.16,1.17C99.16,21.82,99.62,21.11,99.67,20.72Z" fill-rule="evenodd"/><path d="M91.48,39c.23-.6.39-.34.56-.27C91.83,39.13,91.65,39.2,91.48,39Z" fill-rule="evenodd"/><path d="M98.41,23.7c.2-.3.64-.24.36.35C98.59,24,98.42,23.91,98.41,23.7Z" fill-rule="evenodd"/><path d="M97.75,25.36c.25-.3.51.17.77.18A.47.47,0,0,1,97.75,25.36Z" fill-rule="evenodd"/><path d="M101.54,17.84c.09-.25.19-.22.28-.4a5.23,5.23,0,0,0,1,.83C102.32,18.73,101.9,18,101.54,17.84Z" fill-rule="evenodd"/><path d="M95.51,31.46c.31-.52.59,0,.88.06A.61.61,0,0,1,95.51,31.46Z" fill-rule="evenodd"/><path d="M99.13,24c.49-.21.7.23,1.08.15C99.66,25.11,99.39,24.13,99.13,24Z" fill-rule="evenodd"/><path d="M92.32,39.26c.24-.15.51-.45.55-.1C92.59,39.65,92.38,39.54,92.32,39.26Z" fill-rule="evenodd"/><path d="M102,20.19c.38-.59.35-.1.68-.21C102.44,20.52,102.21,20.31,102,20.19Z" fill-rule="evenodd"/><path d="M99,26.66c.32.16-.07.48-.29.94C98.59,27.35,98.7,27.05,99,26.66Z" fill-rule="evenodd"/><path d="M105.48,13.44c.27-.45,1.22,0,.63.68C106.12,13.75,105.85,13.55,105.48,13.44Z" fill-rule="evenodd"/><path d="M100.14,24.52a1,1,0,0,1,1.21.44A1.4,1.4,0,0,1,100.14,24.52Z" fill-rule="evenodd"/><path d="M103.07,18.75c.25-.26.51-.24.76-.52.22.11-.06.55.18.64A1,1,0,0,1,103.07,18.75Z" fill-rule="evenodd"/><path d="M98.77,27.63c.2-.56.36,0,.56-.44C100,28.24,99.5,27.71,98.77,27.63Z" fill-rule="evenodd"/><path d="M97.4,31.66c-.11.55.1.32.2.65-.21.22-.37-.05-.57.07C97.06,32,97.21,32,97.4,31.66Z" fill-rule="evenodd"/><path d="M102.69,21.27c.4-.63.62-.07.76,0-.13.17-.25.15-.38.35C102.78,21.64,103,21.29,102.69,21.27Z" fill-rule="evenodd"/><path d="M102.54,22.47c0-.64.48.09.52.27C102.58,23.35,102.78,22.24,102.54,22.47Z" fill-rule="evenodd"/><path d="M99.85,28c.21-.55.37-.06.55-.08C100.06,28.34,100.06,28.21,99.85,28Z" fill-rule="evenodd"/><path d="M92.41,42.38c.18,0,.94-.18.58.68C93,42.52,92.51,43,92.41,42.38Z" fill-rule="evenodd"/><path d="M94.94,37.67c.17-.31.26.06.4,0C95.12,38.09,94.9,37.91,94.94,37.67Z" fill-rule="evenodd"/><path d="M94.31,40.09c.43-.39.9-.24.68.39C94.82,40.41,94.43,40.44,94.31,40.09Z" fill-rule="evenodd"/><path d="M99.8,30c.18-.38.36-.6.5-.46C100.28,29.84,100,30.08,99.8,30Z" fill-rule="evenodd"/><path d="M95.52,38c.23-.3.94-.32.52.29Z" fill-rule="evenodd"/><path d="M98.94,32.85c.49-.62.53.32.88.12C99.45,33.56,99.25,32.83,98.94,32.85Z" fill-rule="evenodd"/><path d="M107.9,17.09c.4-.63.58.39.83.09C108.48,18,108.23,17,107.9,17.09Z" fill-rule="evenodd"/><path d="M92.5,44.64c.25-.53.28-.1.42-.14C92.71,44.86,92.61,44.7,92.5,44.64Z" fill-rule="evenodd"/><path d="M102.4,27.18l.24-.42L103,27c-.53.37.37.25-.13.85C102.31,27.87,102.84,27,102.4,27.18Z" fill-rule="evenodd"/><path d="M99.93,32.11c.28-.57.44,0,.65,0C100.35,32.26,100.15,32.11,99.93,32.11Z" fill-rule="evenodd"/><path d="M110.13,15.75c-.22.35-.51.14-.51-.11C109.83,15.29,110.13,15.49,110.13,15.75Z" fill-rule="evenodd"/><path d="M94.17,43.37c.25-.15.62-.27.26.35C94.38,43.57,94.36,43.4,94.17,43.37Z" fill-rule="evenodd"/><path d="M107.3,21.61c.42-.51.3.21.7.24C107.66,22.31,107.42,21.8,107.3,21.61Z" fill-rule="evenodd"/><path d="M103.54,28c.18-.14.93.08.59.55C103.84,28.27,103.65,28.39,103.54,28Z" fill-rule="evenodd"/><path d="M110,17.36c.22-.41.45-.76.67-.54A.64.64,0,0,1,110,17.36Z" fill-rule="evenodd"/><path d="M97.3,38.83c.44-.42.37.11.68,0C97.54,39.38,97.52,38.93,97.3,38.83Z" fill-rule="evenodd"/><path d="M93.75,45.38c.24-.48.27-.14.38-.15C93.85,45.56,93.77,45.61,93.75,45.38Z" fill-rule="evenodd"/><path d="M97.11,40c.28-.3.33-.14.38,0C97.25,40.46,97.05,40.26,97.11,40Z" fill-rule="evenodd"/><path d="M95.13,43.57a.61.61,0,0,0,.47.31c-.54.73-.33-.11-.77.26A2.58,2.58,0,0,1,95.13,43.57Z" fill-rule="evenodd"/><path d="M97.83,39.34l.26-.41c.45-.09.53-.05.69.26C98.22,39.86,97.94,39.8,97.83,39.34Z" fill-rule="evenodd"/><path d="M94.08,45.4c.56-.3.65.27.93.42A.92.92,0,0,1,94.08,45.4Z" fill-rule="evenodd"/><path d="M111,19c.4-.25.8-.67,1.19-.57a7.66,7.66,0,0,0-.87.79Z" fill-rule="evenodd"/><path d="M94.51,44.91c.18-.11.48-.16.41.08S94.45,45.15,94.51,44.91Z" fill-rule="evenodd"/><path d="M104.56,29.63c.13-.23.55,0,.39.26C104.55,30.5,104.63,29.73,104.56,29.63Z" fill-rule="evenodd"/><path d="M108.76,23.67c.79-.49,1.44.63,2,1C109.52,25.22,110,23.95,108.76,23.67Z" fill-rule="evenodd"/><path d="M98.82,39.23c.14,0,.18.15.16.3-.18.25-.23,0-.42.3C98.5,39.74,98.61,39.52,98.82,39.23Z" fill-rule="evenodd"/><path d="M106.27,28c.28-.28.56-.57.84-.81.32.18-.23.32-.38.72a4,4,0,0,1,2.22,1.58C107.83,29.65,107.3,28.39,106.27,28Z" fill-rule="evenodd"/><path d="M93.86,47l.27-.4c0,.2.26-.13.43-.3C94.5,46.56,94,47.11,93.86,47Z" fill-rule="evenodd"/><path d="M98.94,39.69c.31-.36.18-.1.29,0,.11-.05.26-.27.33-.16-.22.34-.36.36-.56.6C98.87,40.06,99,39.81,98.94,39.69Z" fill-rule="evenodd"/><path d="M100,38.26c.39-.31.62.08.9.24C100.39,38.92,100.21,38.45,100,38.26Z" fill-rule="evenodd"/><path d="M113.31,18.92l.37-.53c.25.11,0,.42-.12.7Z" fill-rule="evenodd"/><path d="M95.26,46.2c.2-.16.35-.17.46-.07C95.38,46.65,95.41,46.17,95.26,46.2Z" fill-rule="evenodd"/><path d="M113.77,21a5.94,5.94,0,0,1,1.41.44c-.16.3-.09.59-.41.71q-.39-.12.06-.57C114.09,22.08,114,21.29,113.77,21Z" fill-rule="evenodd"/><path d="M100.24,39.82l.2.14C100.11,40.49,99.84,40.3,100.24,39.82Z" fill-rule="evenodd"/><path d="M115.81,19.11c.21-.08.4.07.6.24-.42.58-.19-.23-.53,0,.08.92.2.24-.58.78A2.08,2.08,0,0,1,115.81,19.11Z" fill-rule="evenodd"/><path d="M111.65,24.9c.23,0,.32.41.71.74-.58.84-.42,0-.9.12A2.21,2.21,0,0,0,111.65,24.9Z" fill-rule="evenodd"/><path d="M100.49,40.2c.2,0,.45.14.71.35-.5.35-.32-.44-.91.11C100.16,40.5,100.56,40.31,100.49,40.2Z" fill-rule="evenodd"/><path d="M101.41,39.27c.47-.36.8.05.73.57C102.08,39.4,101.67,39.59,101.41,39.27Z" fill-rule="evenodd"/><path d="M113.49,23.85c.16-.16.27,0,.4.11-.24.17-.53.69-.72.47C113.33,24.22,113.59,24,113.49,23.85Z" fill-rule="evenodd"/><path d="M95.06,48.28c.48-.46.7-.92.93-.91-.06,0-.65.74-.3.38-.05.31-.26.13-.53.61Z" fill-rule="evenodd"/><path d="M109.24,30c.47-.57.38.09.43.13C110.34,30.67,110,30.63,109.24,30Z" fill-rule="evenodd"/><path d="M115.42,22.48c.36-.39.59.3,1-.45,0,.45-.59.84.07.88C115.7,23.53,116.11,22.55,115.42,22.48Z" fill-rule="evenodd"/><path d="M111.34,28.54a1.83,1.83,0,0,1-.51.63C110.69,29,111.05,28.25,111.34,28.54Z" fill-rule="evenodd"/><path d="M117.55,20.44c.42-.27.61.09.76.4C118,21.07,117.8,20.52,117.55,20.44Z" fill-rule="evenodd"/><path d="M111.07,29.56c.34-.53.72-.22.27.22Z" fill-rule="evenodd"/><path d="M113.12,27.48l-.62.75C112.42,28.11,112.9,27.17,113.12,27.48Z" fill-rule="evenodd"/><path d="M97.18,47.07c.1-.12,0-.13,0-.19a2.79,2.79,0,0,0,.45-.47c.44.09.2.43.65.55l-.64.73c-.13.07-.23.08-.28,0,.24-.19.26.07.67-.49C97.25,47.5,98.11,46.37,97.18,47.07Z" fill-rule="evenodd"/><path d="M118.4,21.56c.37-.13.65.55,1.07.06,0,.56-.78.49-1,.4A.81.81,0,0,0,118.4,21.56Z" fill-rule="evenodd"/><path d="M100.12,44c.22-.12.48,0,.43.16l-.21.24c-.09,0-.18.07-.23,0C100.57,44,99.86,44.47,100.12,44Z" fill-rule="evenodd"/><path d="M101.23,43.08c.24-.27.23.1.36.1C101.3,43.5,101.14,43.29,101.23,43.08Z" fill-rule="evenodd"/><path d="M99.44,45.38c.21-.1.55-.15.41.15C99.66,45.6,99.35,45.61,99.44,45.38Z" fill-rule="evenodd"/><path d="M104,40.3l.32-.37c.11.43.67.55.74.89C104.57,40.9,104.28,40.58,104,40.3Z" fill-rule="evenodd"/><path d="M100,45.41c.38-.31.07.25.26.24C99.66,46.28,99.8,45.68,100,45.41Z" fill-rule="evenodd"/><path d="M112,32.51c.24-.46.74,0,.31.29Z" fill-rule="evenodd"/><path d="M114.85,30.07c.45-.37.18.14.51.26C115,30.68,114.95,30.26,114.85,30.07Z" fill-rule="evenodd"/><path d="M98,48.24c.22-.18.35-.16.42-.05a2.86,2.86,0,0,0-.48.44C97.76,48.63,98,48.35,98,48.24Z" fill-rule="evenodd"/><path d="M113.37,31.79l.88-.95C114.67,31,113.59,31.9,113.37,31.79Z" fill-rule="evenodd"/><path d="M98.56,47.86c.48-.54.36.08.88-.51,0,0-.11.17-.19.26s0,.16,0,.21C98.92,48,98.51,48.12,98.56,47.86Z" fill-rule="evenodd"/><path d="M115.88,31.75c0,.25-.55.65-.68.93C115,32.49,115.57,31.84,115.88,31.75Z" fill-rule="evenodd"/><path d="M111.66,37.15c.38-.46.5.09.44.23C111.76,37.48,111.71,37.37,111.66,37.15Z" fill-rule="evenodd"/><path d="M99.21,49.68c.34-.39.74-.33.26.05-.08,0,.07-.16,0-.2C99.31,49.72,99.26,49.7,99.21,49.68Z" fill-rule="evenodd"/><path d="M100,49.06c.12-.1,1.22.06.45.77A1.2,1.2,0,0,0,100,49.06Z" fill-rule="evenodd"/><path d="M102.47,47c.43-.44.58-.21.45,0C102.6,47.29,102.56,47.1,102.47,47Z" fill-rule="evenodd"/><path d="M118.31,33.64c.62-.07.8-.21.25.52C118.41,34,118.59,33.78,118.31,33.64Z" fill-rule="evenodd"/><path d="M102.77,47.34l.37-.32c0,.15.4.15.14.42C102.54,47.93,103.14,47.25,102.77,47.34Z" fill-rule="evenodd"/><path d="M101.85,48.51c.73-.51.59.27,1,.23C102.25,49,102.17,48.59,101.85,48.51Z" fill-rule="evenodd"/><path d="M98.79,51.17c.28-.22.15.09.27.08C98.34,51.8,99,51.21,98.79,51.17Z" fill-rule="evenodd"/><path d="M100.57,51.08c1.11-.59.4.33.87.39C100.7,51.74,101.24,50.93,100.57,51.08Z" fill-rule="evenodd"/><path d="M122.5,35c.24.21-.09.46-.48.72C122,35.49,122.21,35.24,122.5,35Z" fill-rule="evenodd"/><path d="M126.34,32.58c.23.07.61,0,.45.35-.42.35-.49-.25-1,.3C125.83,33,126,32.8,126.34,32.58Z" fill-rule="evenodd"/><path d="M101.9,50.43c.66-.42.06.32-.22.53l-.13-.17a2.44,2.44,0,0,0,.42-.25Z" fill-rule="evenodd"/><path d="M121.82,36.82c0,.38-.63.34-.93.65C120.76,37.17,121.49,37,121.82,36.82Z" fill-rule="evenodd"/><path d="M125.42,36.09c.37-.12.88-.53,1-.17C126.15,35.9,125.59,36.43,125.42,36.09Z" fill-rule="evenodd"/><path d="M128.23,35.06a1,1,0,0,0,.47-.16c-.11.44,0,.54.35.85l-.55.34C128.68,35.75,128.51,35.4,128.23,35.06Z" fill-rule="evenodd"/><path d="M15.2,36.23c.06,0,.12-.07.2.07s0,.15,0,.21c-.24-.17-.4.1-.6.18a15.26,15.26,0,0,0,2.61,4.1c-.1.48.32.46.37,1.1.17-.28.14-.71.34-1,.26.6.86,1.43.51,1.59a1.32,1.32,0,0,0,.68.72c.15.94,1.23,2.35,1.82,3.44a.77.77,0,0,1,.34.17,10.84,10.84,0,0,1,.65,1.31c.15-.07.28-.14.25-.34.09.32.35.45.31.76.45.34.7.92,1.18,1.17-.15-.27.12-.21-.09-.52s0,.26-.25,0,.15-.24-.17-.65c-.11,0-.24,0-.39-.14.17-.27-.16-.57-.45-.86,0-.79.62-.1,1.1.08.18.51.13.53.48.66,0,.68,1.23,1.66,1.47,2.52.16.1.28,0,.47.28.22.59,1.75,2.7,2.4,2.89a4.6,4.6,0,0,0-1.28-1.88c-.32-1-.87-1.14-1.4-2.18.22-.16.53.14.81.27s.1.32.15.48c.12,0,0-.23.12-.27.63,1.09,1.09,1.28,1.71,2.37.5-.08,1,1.47,1.45,1.4-.71-.84-1.79-2.81-2.46-3.43,0-.15-.36-.67-.26-.79.94,0,2.56,3.38,3.71,4a3,3,0,0,0-1-1.31,3.78,3.78,0,0,0-.77-1.42c-.53-1.76,1.36,1.16,1.94,1.68-.09-.17,0-.2.06-.22-.34-.42-.44-.67-.39-.89-.36,0-.41-1-.95-1.32-.13,0-.19.34-.37,0-.29-.53-.05-.49.13-.45-.07-.33-.3-.63-.31-.76.29.11.65.62.95.77.13.38,0,.14,0,.36.38.12.54.59,1,1.3.1-.22.44.23.2-.3-.34,0-.5-1.06-.87-1.55-.28-.21-.14.27-.37,0-.19-.52.27-.24.32-.55a2.33,2.33,0,0,0,.74.89c.36.92.71.9,1.28,1.88.17.11.31.06.47.11-.13-.47-.55-.76-.8-1,0-.29-.46-.85-.59-1,.13,0,.24-.1.07-.41s0,.13-.23.13c-.19-.48-.26-.31-.4-.52.38-.07-.37-.52-.3-.76.91.82,1.88,2.1,2.74,2.93-.37-.78-.67-1-1.11-2-.11,0-.14.29-.3,0,.07-.09-.12-.43-.05-.52.23.52.28.17.26,0,.5.79.37.14.27-.14.18.08.42.52.53.28-.11-.26-.25-.34-.22-.43.49.56.13,0,.51-.08.09.15.25.31.16.1-.14,0-.39-.59-.54-.63.36.19.62-.73,1,.43.23.15.08-.19.32,0-.16-.47-.5-.67-.46-.86.09,0,.26.47.34.38-.23-.56.12-.06.11-.41a3.4,3.4,0,0,1,.39.71c.2-.38,1,.43.9-.23-.1-.26-.22-.35-.2-.44s.25.17.34,0c.08.22,0,.28.12.48.21-.33.63-.74,1-.25-.1-.63.23-.27.45,0-.23-.89.24-.52.32-.64a1,1,0,0,1-.21-.27s0-.14,0-.18c.27.5,0,0,.1,0,.27-.13.93.29.8-.77a3.56,3.56,0,0,1,.16.63c.12-.41.32-.17.64,0-.15-.47.05-.3,0-.67a3.59,3.59,0,0,1,.36.58c0-.21-.24-.57-.17-.79.3.77.21-.18.46.22.05.41-.22-.1-.15.2s.5.25.29-.24c0,.16-.15-.46-.31-.76.14.05.28.63.42.56s0-.34,0-.51c.06.38.27.33.15,0s0,.43-.15-.13c-.07-.4-.23-1-.1-1,.1.38,0,.36.14.8.14.27.1,0,.2,0a1.34,1.34,0,0,0,.3.77c0-.28-.25-.92-.17-1,.26,1,.45.37.67.36a7.9,7.9,0,0,1,0-1.33c.16.48,0,.68.11.8s.11-.08.16,0c.15.68-.07.23,0,.5.07,0,.11.38.16.63.17-.2.37-.1.35-.88-.14-.19-.14.39-.21,0,.08-.15.31-.59.43-.07-.07.22-.15-.06-.14.19.09,0,.14.59.23.62-.1-.6.31-.62.05-1,.34.24.63.1.75-.29-.12-.49-.11,0-.22-.3s.17-.19.29-.2c0,.73.34,1.05.29.46-.11.11-.32-.63-.24-.79.2.52.46.69.65.41a3.79,3.79,0,0,0,.19.79c-.07-.52.08-.48.09-.83.1.51.08.33,0,.65.12-.3.28,0,.47.11,0-.32-.1-.31-.14-.48.13-.31.11-.33.33-.52,0,.12,0,.8.11.64-.14-.8.08-.7,0-1.3-.14.15-.09.15-.21-.14,0,.37,0,.61,0,.65-.1-.31-.33.08-.38-.45.22-.15,0-1.2,0-1.3.1.53.08-.19.13-.17,0,.33.15.76.13.31-.08,0-.08-.39-.11-.64.17.4.24-.06.27-.35,0,.4.06.78.17.8,0-.29.11-.48.13-.82a2.07,2.07,0,0,0,.09.48,1.66,1.66,0,0,0-.21,1c.25.23.34-.2.31-1,.16.4.08-.35.29-.19a3.47,3.47,0,0,1,.09.48c-.15.11-.18-.29-.25,0,0,.64.15.32.2.63,0,0,0,.29,0,.32,0-.68.23-.52.33-.84a1.53,1.53,0,0,1-.15-.64c.11,0,.25.87.29.47-.15-.3.08,0,.15,0a6.09,6.09,0,0,1-.19-2.1c.06.52.3.31.41.63l0,.32c-.15.22-.32-.46-.36,0,0,0,.1,0,.11.16s-.1,0-.09.17c.46.14.63-.27.9.28,0-.69.32.23.4-.35-.06-.17-.19,0-.18-.48,0-.19.24-.08.32.15-.11.24.08.45-.08.65.12,0,.2,0,.26-.17a5.21,5.21,0,0,0-.32-1.45c.16-.12.17.28.33.15-.15.51.4.49.2,1.13.06.12.26.63.32.15-.12.26-.17-.54-.07-.48,0,.32.15.2.13.65-.07,0,0,.28-.1.33,0-.27-.2,0-.21.17.26.07.21.35.13.81.22-.16.18-1.08.33-1.47,0,.39.11.35.07.81.25.1.23-.54.41-.66,0,.38.26.83.32.48-.1-.91-.52-.29-.65-.79.23-.19-.1-.72.13-1.62.28-.09,0,1.28.34.64-.13-.12,0-.48.05-.16,0-1-.49-1.8-.09-2.43,0,.25,0,1.42.3,1.13-.16-.4,0-.24.11,0,0-.24,0-.6.05-.65s.16.36.18.65c.12-.53.24.27.34.32-.21-.72-.09-.76-.29-1.13.07,0,0-.18,0-.32.3-.13.44.17.63.32.08-1.75.58.78.63,0,0-.3-.1.09-.11-.16s-.07-.5.12-.65c0,.33.21.15.23.49a3.49,3.49,0,0,0,.1,1.14c0-.13.05-.19.12-.16.11-.51-.21-.67,0-.81s.2.79.29.33c-.21-.39.33.23.12-.16a.8.8,0,0,1-.17-.33c.11,0,0-.27.06-.32.12.38.23,0,.41,0,.23.45.21,1.85.5,1.14-.11,0-.13-.16-.1-.49h.35c.11-.63-.25-.06-.22-.49.12,0,.09-.44.25-.32,0,.26,0,.56.1.49.19-.31-.18-.81,0-1,0,.73.35-.16.34.5a.52.52,0,0,1-.13.32c0-.13,0-.32,0-.33a1,1,0,0,0,.27.82c.14-.1.12-.73.27-.8.06.25,0,.73.21.66.11-.4.16-1,.35-1.12.41,0,.42,0,.91-.12,0,.62,0,.06.17.17-.07.44.1.33.09.65.26-.14.34,0,.58-.45,0-.28-.29,0-.29-.34l.24,0c.1-.37,0-.36.16-.64-.08-.09-.33.17-.3-.18l0-.32c.41.49,1-.64,1.08.56.08-.48.26-.62.48-.62,0,.44-.13.32,0,.65.49-.43.36.53.85.39.18-.45.32-.26.66-.44l-.05.65c.19.16.16-.41.29-.47a6,6,0,0,0,.26.67c.1-.51-.06-.51-.06-.82.4,0,.06-.35,0-.49.38,0,.45.25.71-.1,0,.38.16.38.2.67-.14.48-.33-.38-.34.29a1.25,1.25,0,0,0,1.91,0c.11,0,0,.45.08.5.21-.37.63,0,.77-.57-.43.13-.19.14-.22-.35,0,.23-.16.17-.23.3.09-.68-.13-.76.13-1.29-.08-.29-.4-.1-.32-.68.68-.58.31,2,.82.9-.05-.46-.23,0-.26-.68l.9.09c-.06.36,0,.61.06.66,0-.24,0-.6.13-.64.15.21.19.16.06.66.22-.09.26,0,.34-.13-.07-.07-.11-.22-.08-.5,1.11,0,2-.45,3,0,.1-.41-.17-.77,0-1a1.22,1.22,0,0,1,.06.66c1.32.27,1.95-.22,3.34-.41a1.77,1.77,0,0,0,.07.5c.31-.88.44-.22.77-.39a3.6,3.6,0,0,0,0-1.14c.08,0,.12-.19.21-.14a3.94,3.94,0,0,0,.09,1.32c.21-.68.47-.21.69-.72.08-.18,0-.82.15-.14.21-.59.1-.92.33-1.42-.29.22-.08-.44-.19-.52-.07.21-.18.28-.3.29,0-.16,0-.2,0-.33a1.69,1.69,0,0,0,.11-1.29c.16,0,.24-.22.33-.45-.09,0-.25,0-.24-.2.13-.41.39-.29.5-.75-.09.4-.2.61,0,.66.05-.53.11-1,.35-.6,0,.26-.2.06-.24.29.28.38.42-.8.62-1.06.19,0,0,.61.11.67.18-.11.3-.48.45-.75,0,.31,0,.78.24.69a2.71,2.71,0,0,1,.19-1.77c-.52.79-.84,1.2-.51-.24,0-.4-.3.29-.31-.21.35-.4.5-.35.82,0,.19-.76.37,0,.56-.57-.19-.37-.75.23-.44-.72-.2.06-.38.18-.58.24,0-.1,0-.89-.13-.51s.15.32,0,.82l-.2,0a1.28,1.28,0,0,0,.11-.8A4.15,4.15,0,0,0,72.55,24l.14,0c-.24.24-.11.72-.26.94l-.13,0c.27-.88-.13-1.54.34-2.08-.19-.15-.19.42-.38.28.1-.27.13-.8.26-.95.12,1,.9.52,1.36.18-.25,0-.39.13-.48-.07.19-.31.06-.52,0-.81-.56.18-.85.57-1.14-.32,0,.28-.11.41-.2.46,0-.28-.32,0-.3-.36.3-.15,0-1.14.42-1.09.13.11.11.27,0,.49.26.1.42-.32.46.22,0-.19,0-.46.13-.47,0,.21,0,1,.21.52-.09-.58.37.19.36-.61.23-.07.17.33.34,0,0,.16-.08.19-.11.31.23-.1,1-.55.53.24.61-.27,1.13.5,1.61-.42.28.12,0,.13.2.52.2-.94.62.24.89-.68,0,.37.19.51.22.85-.14.07-.3,0-.4.27,0,.41.28-.14.25.2-.11.55-.18,0-.26.29,0,.57.7.5.77-.37-.16,0-.25-.08-.23-.36a.83.83,0,0,0,.29-.45c-.14-.24-.36.42-.35-.06.19-.23.47-.07.59-.56l-.08.48a19.8,19.8,0,0,1,4.39.14c0-.39,0-.76.3-.77,0,.46-.18.39-.23.78.23.14.39-.7.49-.23.07-.39.15-.77.31-.76a3.54,3.54,0,0,1-.2,1c.47,0,1.38-.08,2-.07.13-.26.21-.78.36-.91-.14.66.31-.11.29.4-.14.2-.37,0-.47.39.11.12.92.68,1,.06-.07.35-.27,0-.4.07.06-.24-.11-.71.12-.8.1.19,0,.83.36.42.1-.3,0-.33,0-.51.27-.17.37.16.5.45-.1.21-.28,0-.37.24.13.13.44.53.62,0-.08,0-.16-.09-.07-.35.26-.5.59.19.7-.32s-.24.16-.36-.09c.1-.43.2-.28.16-.63-.35-.16-.16.46-.38.57,0-.27-.1,0-.22-.06a3.08,3.08,0,0,0-2.54-.25s.05.15,0,.16,0-.2-.11-.19c0-.2.14-.2.18-.46-.38,0-1,.43-1.22.07.09,0,0,.46-.1.48-.41-.21-.35-.55-.39-1.4-.28.24.1.53-.13.64,0-.4-.32-.33-.31-.72-.33.66-.35-.11-.45-.42-.13.49,0,.68-.22.78-.15-.05-.08-.43,0-.82a3.88,3.88,0,0,0-.59.39,2.2,2.2,0,0,1,.41.57c-.53.39-.71-.66-.8-1.3-.21.19-.1.31-.23.45-.28-.3-.16-.21-.48-.25-.11.52.22.39.15.85-.37-.36-.47.24-.58.39-.33-.45-1.08.06-1.25-.86.2.17.29-.09.41-.26.06.79.36.32.73.45.1-.55-.33-.3-.32-.71,0,.12-.05.32-.12.31-.37-.32-.14-1.2.05-2.13-.31.58-.28-.44-.56.24.21,0,.4,0,.28.54-.36-.4-.91.44-1.22-.68-1,1.33-1.67-.49-2.47.46-.59-.08-.51-1.52-.1-2.46.28.38.33-.26.64.09-.26.4.14.31.13.67-.19-.22-.4.63-.26.78.1-.27.3-.23.38-.6-.12-.36.18-.66,0-1,.2-.34.62.07.74-.55-.76-.19-1.08.61-1.83-.58.2.15.28-.13.45-.1,0,.13,0,.32,0,.33.22-.82-.27-.49-.23-1,.06-.2.14-.32.26-.29.3.52.83.56,1.42-.13.18,1.14,1.08-.38,1.37.37.11-.2.16-.58.27-.78a1.66,1.66,0,0,1-.45-1.05c-.21-.15-.21.42-.42.27a1.41,1.41,0,0,0,0-.49,2.15,2.15,0,0,1-1.25-.18,3.82,3.82,0,0,1-.31.61c0-.23,0-.28.07-.48-.35-.21-.4.61-.47.75-.15-.14.1-.92-.18-.84a2,2,0,0,1-.72,1.54c0-.21-.06-.23,0-.49.19.52.37-.48.44-1.08-.24.08-.15.09-.36,0-.11.29.15.57-.08.64-.14-.08-.06-1.16-.37-.54.07,0,.14.29,0,.33a6.22,6.22,0,0,1-.51-.55.39.39,0,0,1-.74.07c-.12.68-.47,1-.41,1.58-.21-.14-.67,0-.48.43.14-.09.72.46.67-.73.2-.12.44-.21.48.22-.16.09-.38.5-.15.63.11-.23.15-.71.37-.61s0,.34,0,.82c.59-.52,1-.12,1.45,0a7.88,7.88,0,0,0-.84,1.36c.12-.32,0-.78-.1-.34.14.33-.06-.11-.21,0-.21.5.22.54,0,.65a1.12,1.12,0,0,1-.18-.84c-.06-.25-.26.36-.33-.21-.23.36-.26.73-.56.42a5.46,5.46,0,0,0-.05,1c-.28-.25-.18.75-.43.6A6,6,0,0,0,72,12.2c-.13.09-.18.47-.29.62,0-.42-.44-.36-.61-.24.09.15,0,.24,0,.65-.6-.07-.58,1-1.09.85l.06-.48c-.55.27-1.27.15-1.35.82,0-.19-.09-.19-.19-.18l.05-.48c-.41-.16-.7.57-.9-.1,0,.19,0,.46-.12.47-.15-.49-.43,0-.57-.55-.27.67-.46.46-.88.39-.13.39.13.69-.09.8-.21-.2-.3-.6-.55-.71,0,.42-.36.53-.15.8.21-.46.13.28,0,.32.74-.34,1.09.4,1.72-.46,0,.23-.14.26-.19.47.36-.13.81-.18.88.26.18-.35.53-.14.74-.4.08.91.69,0,.91-.06,0,.23-.14.26-.19.47.32.19.49.66.76.09-.05.28.27.54.06.66,0,0-.08,0-.09.15.2-.1.83-.71.74.25-.34-.38-.69-.08-1,.21l.09-.8c-.45.1-.51.35-.74-.25a1.48,1.48,0,0,1-.18,1,2,2,0,0,0,.76.58c0,.12,0,.32-.11.31-.34-.33-.54.29-.85-.42-.07.79-.56.18-.71.73.3.19-.1.44-.07.64.17,1.32,1.74-.27,1.76.86-.66.33-.94-.71-1.5.48.14.13.12.56.26.68.19-.19-.07-.5.14-.64.44.13.66.74,1.15.14-.08,1.35.39-.46.67.73.43-.88.57.36.9-.54.17.08.19.43.35.53,0-.19,0-.46.13-.47,0,.26.18.11.16.35a6.13,6.13,0,0,0-.21,1.12c.12.31.34-.41.45.22-.15.34-.28.73-.56.58.15-.93-.5.32-.37-.86,0,.52-.29.95-.14,1.12l0-.32c.33,0,.55.34.64.41-.13.55-.42.67-.41,1.09,0-1.15-.68,0-.78-.91.12-.23.3-1.25.09-1.29,0,.12-.08.18-.16.14.28.48-.16,1.44-.34,2.24-.42-.11,0-.66-.08-1,0,.1,0,.19-.09.15s0-.19-.07,0,0,1-.21.63c-.1.89.3.34.39.7-.13.3-.38.2-.53.43-.12-.17,0-.84-.17-.84-.1.42.06.74,0,1.3.08-.22.32,0,.33,0-.29.21,0,.19-.08.64-.1.09-.08.62-.21.63s-.08-.19-.09-.34.13-.13.17-.3c-.12-.08,0-.63-.21-.51,0,.68-.33.61-.12,1-.12.23-.33,0-.21-.51-.34-.14-.12.66-.29.78-.13-1.15-.08-1.2-.25-.19-.07,0-.08-.19-.1-.34s.13-.13.17-.31-.06-.14,0-.33c-.23.27-.6.42-.56-.39.16.49.17-.91.48-.6.11-.8-.29-1.35-.56-1,.39.18-.06.47-.16.8.1,0,.25,0,.25.19-.17.24-.11,1.28-.4,1.09,0-.59.22-.6.26-1.11-.17-.23-.34-.08-.51.27,0-.78-.22-.23-.33-.69-.15.44-.26,1-.38,1.59.17.14.17-.3.3-.29a1.59,1.59,0,0,0,0,.49c-.52.23-.9.69-1.24.19,0,.19,0,.46-.12.48-.2-.34-.11-.22-.4,0,.19-1,.18-1.24.51-1.57-.1-.6-.77,0-.82.07.2,0,.34.08.37.37-.36-.15-.2.59-.07.64a5.23,5.23,0,0,1-.54.59c-.18-.16,0-.25,0-.65-.29,0-.15.27-.22.79-.16-.21-.42.27-.4,0l.12-1.13c-.4.47-.4.79-.9,1.53a3.41,3.41,0,0,1,.23-1c-.45-.23-.12.88-.48.77,0-.31.11-.35.13-.64s-.14.06-.28.13c0-.8-.3-1.48.07-2.11,0-.39,0-.79-.09-1.15,0,1-.82.42-1,1.37.13,0,0,.45.24.35,0-.25,0-.56.18-.47-.15.4,0,.57-.14.8-.09-.26-.32.17-.37-.36s.17-.56.17-1.12c-.18,0-.16.26-.27,0-.08.43,0,1.29-.2,1.44a4.2,4.2,0,0,0-.19-1.64,1.88,1.88,0,0,1-1.66-.47c.29.61.62-.92.91-.25-.12-.2-.34.23-.16.31.1-.43.19.25.4,0a5.1,5.1,0,0,0,.18-1.28c-.34.6-.81-.5-1.13.39.1,0,.26,0,.26.18-.11.55-.27-.06-.5.28.05-.3-.1-1.3.24-1.28.21.77.87,0,.93-.41.17,0,0,.64.22.67.15-.55.46-.15.69-.1.08-.47-.27-.82,0-1.14,0,.2,0,.38.11.33s.09-.28.17-.31c0,.16,0,.2,0,.33-.2.19-.18.52-.16,1-.2.21-.3-.13-.49.12,0,.29-.08.86.13.83.17.13,0-.77.19-.63s.41.13.26.84c.21,0,.24-.62.52-.44a2.08,2.08,0,0,0,0,1c-.11-.06-.2.2-.1.32a7.47,7.47,0,0,0,.49-1.58c-.23-.26-.08.72-.32.46.18-.32,0-.52,0-.81.52-.82.73,1.58,1.27.29-.15-.23-.28.61-.29.13,0-.16,0-.2,0-.33.29.22.23-1.34.42-.77.12-.4-.13-.79.1-1-.16.56.22.12.16.5-.2.13,0,.51-.1,1-.1-.33-.26-.47-.3.3.36-.31.15.44.73.24l.08-.81a2.76,2.76,0,0,1-.31-.36,6.86,6.86,0,0,1,.4-1.91c.12.41.15-.23.36-.13s-.05.73.09,1.15c.17-.58.06.38.25.19s0-.81.2-.63c0,.2-.11.21-.12.48l.27,0a1.75,1.75,0,0,0-.15-1.16c.06.41-.28.45-.22.14a.49.49,0,0,1,.17-.31c.11.1.27.11.31.36-.14.75.33.87.13,1.32.33.11.09-.48.27-.62.36.22.39.21.58-.26.35-.33.39.24.08.5.42,0,.72-.46,1,.11.09-.35-.25-.55,0-.81.12.33.16.39.29-.13-.15-.12-.28-.27-.52-.22.12-.74-.39-.26-.1-1-.23-.26-.09.72-.33.45a5.6,5.6,0,0,0,0-1.14c-.22,0-.41,0-.44-.37.15,0,.23-.11.26-.46-.33.19-.13-.55-.1-1-.16.75-.48-.11-.77.73.1,0,.26,0,.26.19-.34,0,0,.43-.09.8-.07-.24-.2-.15-.24.3s.38-.58.48.05c-.09,0-.09.28-.17.31-.08-.28-.27,0-.43.12-.1-.22.26-1-.1-1,0,.72-.2,1,.07,1.31-.61.16-.12,0-.51-.38-.19.78-.81.75-.89.56.28-.43-.09-1,0-2,.43.33.1-1.28.34-.62,0-1.47-.66-.52-1.15-.44-.11.51.06.51.06.82-.29-.15,0,.33-.17.31,0-.21-.11-.16-.11-.34,0-2.09.7-1.12,1.08-1.68-.38,0-.31-.75-.56-.71.12-.32.41-.13.48-.6-.43.33-.15-.29-.27-.84-.25-.2-.17.59-.4.45.07-.82.16-.48.31-.94s-.2.19-.35,0c-.05.27.06.42,0,.48-.36-.91-1,.2-1.52-.63.26-.33.12-.85.32-1.11.09.34.66,1.5.83.4-.19.07-.27.19-.34-.19.28.28.09-.83.29-.79,0,.2,0,.38.11.33a7.07,7.07,0,0,0,.18-1.12c-.21.36,0-1.38,0-1.46.11.29.5.26.6-.11-.59-.47-.8-.16-1.41.19a1.79,1.79,0,0,1,.13-.64c-.17.15-.44.54-.6.11a1.65,1.65,0,0,1-.19.47c-.23-.88-1.54.46-1.18-.91l-.3,0c-.07.28.16.69-.06.81-.27-.07-.21-.73-.63-.54,0,1-.49.23-.52,0a1.46,1.46,0,0,1-.34.62c-.22-.61-.36-.16-.79-.7-.12.6.23.33.26.67-.14.19-.53,0-.6,0,0-.27.21-.07.25-.31-.24,0,.22-.45,0-.49,0,.49-.38.9-.48.46,0-.27.22-.08.25-.31-.36-.12-.39.58-.69.12-.23.33.09.89-.21,1-.07-.4-.6.05-.66-.36.28,0,.31-.21.53,0a1.78,1.78,0,0,1,.26-.63c-.19,0-.07-.64-.27-.67,0,1.1-.51.55-.74.77.06,0,.15,0,.15.17s-.48.39-.47.14.28-.49,0-.65c-.06.76-.41,0-.46-.18-.07.39,0,.66-.41.63.09-.74-.07-.47-.13-.65a.45.45,0,0,1,.17-.32c0,.31,0,.7.2.66-.09-.73-.3-1.22-.81-1.17-.2.21.12.5-.1.64-.15-.6-.7-.63-.55,0-.3.05-.19-.66-.54-.5-.08.52.2.34.22.65-.35-.14-.7-.19-.8.3-.23,0-.43,0-.38-.49.09,0,.17.29.24,0-.16-.46-.42-.28-.71-.18.09-.48-.17-.29-.31-.33.18-.33,0-.46,0-1a.38.38,0,0,0-.33.32c.35,0,0,.84-.17.81-.1-.38,0-.3-.08-.81-.26-.14-.17.42-.33.48,0-.4-.28,0-.32,0,0-.23.13-.27.16-.48-.28.13-.31-.24-.57-.16,0,.28.12.42,0,.49s-.27-.13-.49-.49c-.22.4.38,1.1.17,1.46-.25,0-.35-.88-.65-.32V6c-.37.05-.7,0-.51-.64a1.7,1.7,0,0,1-2.18-.27l0,.81c-.14-.06-.2.25-.25,0,.21-.35.2-1-.21-1-.2.23.17.48-.06.65-.64-.83-1.4,0-2.32-.36-.06.31.29.53,0,.65-.21-.26-.41-.58-.74-.59a1.17,1.17,0,0,1-.11.82c-.18,0-.28-.11-.3-.46.15,0,.21-.14.23-.35-.07,0-.11-.13-.11-.31-.22.2-.64.36-.65-.43-.5-.12-.15.27-.31.52-.36-.71-.74-.32-1.24,0,0,.24.09.59,0,.65-.13-.46-.2.24-.44.05-.26-.71,0-.62.39-.54-.23-.82-.67-.08-.87.27-.59-.05-1.28-.93-1.73-.11.07,0,.34.5.16.47-.38-.53-1.18-.86-1.51-.26-.44-.5-.92-.22-1.35.22l-.09-.48c-.35.09-.47.19-.73.63-.37-.45-.61-.12-.94,0l-.13-.64c-1,.11-1.74.6-2.64.76-.48.08-1-.5-1.41-.48-.07,0-.27,1-.52.3,0,.31.42.45.17.62-1,.08-1.54.09-2.56.25.06.24.21.56.1.65-.1-.2-.23-.25-.29-.59-1,0-1.26.94-1.95.64-.17.32.38.57.18.8-.28-.22-.23-.55-.32-.92-.52-.14,0,.6-.15.74l-.36.13c-.18-1-1.07-.28-.59,0-.11-.37.36-.24.41,0-.12.2-.87.54-.71-.25-.17.59-.5.75-1,.23-.05.4.6.94,0,1-.1-.45-.28-.34-.39-.72-.51.07-.44.46-1.08.09a1.6,1.6,0,0,0,.35,1.08l-.42.18c-.41-.83-.94-.7-1.48-.41a1,1,0,0,1,.1.66c0,.05-1.18-.42-.68-.4-.83,0-1.81.69-1.65,1.31-.54-.78-.68,0-1.23-.12a3.42,3.42,0,0,1,.06.7c-.1-.16-.19-.42-.29-.39.33.74-.26.07-.38.2-.11.41.39.71.21,1-.23-.06-.45-.71-.67-.56.07.3.48.36.3.58l-.15.08a1.81,1.81,0,0,1-.3-.76A3.51,3.51,0,0,1,12.32,13c.16.57.3,0,.45.31-1.33.25-2.39.94-2.51,2.13l-1.05,0c.71,1.36-1,1.06-.71,2.11.36.11.34-.53.8-.28-.15.31-.21.43.23,1-.54-.38.34,1.06-.35.58.12.26.31.3.25.42s-.31.09-.48-.09c.28-.14-.13-.21-.25-.42a.31.31,0,0,1,.24-.33,2.79,2.79,0,0,0-.56-.8.77.77,0,0,0-.48.66L8.3,19c-.43.11,0,.84-.21,1.07.46.64.49,1,.28,1.16.37.78.73,1.07.66,1.49.15,0,.37.48.52.44-.29-.49.38.17.1-.25-.09,0-.29-.14-.23-.24.21.25.32-.24.54.06-.18.85.78,2,.49,2.73-.18-.21-.32-.12-.49-.27s-.48-1-.65-.93l.33.94c-.21-.29-.32.19-.53-.06.26.42,0,.47-.1.63.57.57,0,.73.47,1.42.18-.2.4-.19.64,0a5,5,0,0,1-.38-1.29c.08,0,.19.13.26,0-.12-.25-.3-.3-.25-.41.38.4.52.31.06,0,.57-.21.9.73,1.52,1.16-.35-.11-.6.38-.14.84-.37-.16-.56.36-.54.71-.14,0-.34-.3-.49-.27-.06.55.24,1.36.24,1.95a8.43,8.43,0,0,1,.68,1.1c.29-.06.67.52,1,.54,0-.25.17-.75.35-.6A37.29,37.29,0,0,0,14,34.86c.29.09.27-.25.43-.46a7,7,0,0,1,1.19,1.93C15.53,36.26,15,35.8,15.2,36.23ZM54.87,6.58c0,.35-.21.34-.4.31C54.49,6.24,54.69,6.47,54.87,6.58ZM64,13.26c.06.5-.45.23-.2.63,0,.19-.14.12-.23.14,0-.14,0-.16-.05-.17C63.65,13.5,63.81,13.3,64,13.26Zm-.8,2.36a11.53,11.53,0,0,0,.4-1.26c.16-.52.17.29.25.35C63.63,14.93,63.53,15.57,63.23,15.62ZM70.06,18c.15.21-.62,0-.11.31,0,.22-.19.11-.29.13.19-.54,0-1.06.32-.94,0-.22-.11-.32-.24-.36.23-.38.37.47.35-.61l.21,0C70.33,17.23,69.71,17.67,70.06,18Zm-.33,15.45c0-.42.11-.69.27-.62C70,33.25,69.89,33.52,69.72,33.45ZM17.55,40.68c-.05-.29,0-.73.28-.55C17.89,40.42,17.8,40.71,17.55,40.68ZM22,46.47c.31.25.28-.69.66-.4-.21.19-.37,1.32-1.13.13.16-.19.18-.42.5-.3C22.19,46.27,22,46.32,22,46.47Zm-3.11-4.55c-.32-.66.52.16.28-.55.22.45.37.47.56.79A1,1,0,0,0,18.94,41.92Zm-5.09-8.27c.06,0,.15.14.23.24.16-.07,0-.32,0-.56.34.15.17.58.25.8C14.18,34.16,14,34,13.85,33.65Zm4.95,7.41c-.14-.28.15-.24-.17-.66.14,0,.37.51.48.28.27.06-.3.39.2.45C19.45,41.57,18.91,41,18.79,41.05Zm4.92,6.67a1.7,1.7,0,0,1,0-.79c-.18-.33-.25-.06-.42-.31-.11.19.23.26.34.55-.1-.07-.28-.12-.16.1-.23,0-.24-.46-.42-.69,0-.12.38,0,.19-.31.64.55.27.25.58.22.27.54.48,1,.78,1,0,.21.15.61-.12.64.15.19.29.3.44.49.06-.12,0-.38.1-.44a6.28,6.28,0,0,0,.56.8c.06.42-.45-.31-.59,0-.31-.63-.54-.8-.69-.53-.09-.29-.14-.55-.2-.82C23.81,47.22,23.8,47.59,23.71,47.72Zm-.47-2c.29.65-.31.24-.52.13C22.58,45.34,23.15,46,23.25,45.73ZM12,27.16c-.29,0-.21-.34-.56-.79.15,0,.65.7.3-.18.15,0,.25-.41.47.09C11.85,26.47,12.07,26.85,12,27.16ZM23.38,45.84a2.15,2.15,0,0,1,0-.55c.19-.07.44.22.66.36C24.12,46.22,23.53,45.63,23.38,45.84Zm2.54,4c-.38-.44.13-.19-.09-.51a1.55,1.55,0,0,1,.52.63C26.2,49.79,26,49.57,25.92,49.79Zm-3.31-5.95c.09.17.16.24.22.24.22.32-.29.07.09.51C22.72,44.66,22.31,43.81,22.62,43.84ZM14,29.75c-.26-.81-.71-1.82-.84-2.33.71.74.44,1.67,1.13,2.15C14.51,30,14.06,29.48,14,29.75ZM12.67,27c-.19-.52.54.1.19-.5C13.44,26.92,13,27.3,12.67,27Zm-3.3-5.76c-.17,0-.16-.25-.25-.42.15,0,.3-.11.5.27C9.58,21.26,9.16,20.77,9.37,21.21ZM30.1,49.4a7.42,7.42,0,0,0-.33-.93c.12,0,.3.3.49.65C30.27,49.27,30.23,49.38,30.1,49.4Zm0-1.12c-.25-.37.28,0,0-.39A4.73,4.73,0,0,1,30.81,49C30.57,48.91,30.38,48.22,30.1,48.28Zm-2.74-7.36c.22.14.4,0,.69.55A1,1,0,0,1,27.36,40.93Zm.74.15c-.31-.28.31.15,0-.37.11,0,.25.18.4.52-.09-.08-.26-.15-.15.08C28.28,41.31,28.17,41,28.1,41.08Zm2.19,4.15c.09-.21.3.32.42.33C30.85,46,30.46,45.71,30.29,45.23Zm-4.22-8.39c.12-.09.25-.16.4,0,.11.36-.56-.17,0,.54C26.37,37.38,26.23,37.18,26.07,36.84ZM32.26,48.4c-.14-.38.27.11.31-.16C32.64,48.62,32.5,48.68,32.26,48.4Zm0-.38c-.18-.41-.17-.63,0-.71-.36-.72-.18,0-.45-.32-.25-.63.15-.07.27-.14a4.13,4.13,0,0,1,.4.89c-.06,0-.11.09-.21-.08C32.27,47.79,32.39,48,32.29,48Zm-1.1-2.35c.19.16.32-.07.6.6l-.18.09A3,3,0,0,1,31.19,45.68ZM32.76,48a3.2,3.2,0,0,1,.32.74C32.89,48.85,32.4,47.92,32.76,48Zm-.94-2.43c-.11,0-.28-.31-.46-.68C31.48,44.77,31.79,45.38,31.81,45.54Zm2.08,1.68c0-.37.52.23.73.38.15.4-.35-.24-.07.39.1.29-.14-.13-.07-.15C34.23,47.26,34.09,47.38,33.89,47.22ZM16.75,10.92c-.19-.5.22-.36.42-.37C17.31,10.88,16.85,10.77,16.75,10.92ZM35,47.78c-.06-.19-.08-.33,0-.35s.26.54.32.39C35.54,48.49,35.14,47.88,35,47.78Zm4.06-1.85c-.16-.52-.17-.94,0-.66C39,45.35,39.19,46,39.06,45.94Zm.45-2.28c-.23-.29,0-.53-.11-.81C39.63,43.14,39.44,43.38,39.51,43.65Zm.78.15c0,.31-.23.34-.28-.27.1.19.2.18.14-.19C40.26,43.27,40.13,43.82,40.29,43.81Zm.14.63.22.45c.1,0-.06-.6,0-.82C41,45,40.48,45.33,40.42,44.44Zm1.52-.78c.15.09.32,0,.43.42a2.18,2.18,0,0,0,0-1.31c.18-.11.17.48.29.12.07.56-.23.27,0,1.15-.13.44-.49-.27-.44.57A7.57,7.57,0,0,1,41.94,43.66Zm.25-3.16c-.12-.63.24-.23.34-.37C42.54,40.71,42.33,40.18,42.19,40.5Zm1.38,2.76c-.12,0,0-.28-.08-.64.13-.22.1.52.22.3C43.79,43.52,43.54,42.95,43.57,43.26Zm-.15-1.61c0-.22.1-.15.17-.19,0,.36-.12,1.07.16,1C43.74,43.28,43.52,42,43.43,41.65Zm.32.28c-.09-.49,0-.48-.06-1C43.79,41.18,44,42,43.75,41.93Zm2.73-1.85c-.09-.13,0-.24-.09-.64.08,0,.21.07.2-.17C46.74,39.5,46.47,39.78,46.48,40.08Zm.36-1.32c0-.48.14.2.27,0a7.3,7.3,0,0,0,.1,1c-.11.4-.11-.24-.27-.15C47.06,39.16,47.09,38.92,46.83,38.76Zm.91-.52c-.3.49.07-.69-.2-.8C47.78,36.74,47.65,38.21,47.74,38.24Zm.15,1.29c.17,0,.27.19.39.31s-.09.26-.1.49A1.1,1.1,0,0,1,47.89,39.53Zm0-1.13c.1.52.37-.35.1-.33,0-.18.11-.11.1-.33,0,.5.25.5.25,1.13-.14-.1-.29-.32-.27.33A1.59,1.59,0,0,1,47.85,38.4Zm.41,1c-.05-.44.26.11.21-.33,0,.29.06,1.1-.14,1.14C48.3,39.66,48.45,39.5,48.27,39.36Zm0-2.43c.2.19.19.23.35.32-.07.84.18.69.14,1.45h-.22C48.79,37.83,48.35,37.68,48.26,36.93Zm1,.46v-.49a1,1,0,0,1,.35.32C49.49,37.56,49.37,37.07,49.23,37.4ZM50.52,6.48c.17-.48.39.29.4.65C50.73,7,50.7,6.59,50.52,6.48Zm2,1.32c0-.25.59-.34.47.17C52.79,8.09,52.75,7.8,52.56,7.8ZM54,35.22c.19.12.06.44,0,.81C53.92,36,54,35.43,54,35.22ZM55.2,11.3c.08-.37.47-.14.36.34C55.37,11.65,55.34,11.37,55.2,11.3Zm.23-1.77a2.07,2.07,0,0,1,.11-.81c.17.49.37.15.59.35-.2.19-.39.56,0,.32C56,10.25,55.7,9,55.44,9.52Zm-.9,25.72c-.12.06-.08.62-.27.48a6.37,6.37,0,0,0,.11-1c.2-.13.06.54.22.49C54.57,35.43,54.53,35.34,54.53,35.25Zm1-11.94c0-.83.28.29.36-.3C56.12,23.55,55.65,23.56,55.54,23.3Zm.71-12c0-.63.39-.6.3,0Zm-.09,3.07a1.81,1.81,0,0,0,.11-.64c.06.61.66.18.59,1C56.76,14.4,56.46,14.41,56.16,14.42Zm-1,21.35c0-.16.08-.12.13-.15.1-.19.1-.7.34-.47C55.53,35.5,55.44,35.89,55.18,35.76ZM56.68,8.94c.16.25.12.35.37.18,0,.43-.18.41-.33.47A1.78,1.78,0,0,1,56.68,8.94Zm-.25,9.55c-.09-.06,0-.41,0-.65s.37-.5.5-.13c-.13.57-.23,0-.44.3Zm.3-5.17,0-.32c.06,0,.07-.06.08-.16a.3.3,0,0,0,.35.19C57.05,13.49,57,13.15,56.73,13.32ZM56.88,12l0-.48c.07,0,0,.2.05.33s.25-.09.31-.3C57.41,12,57.11,12.3,56.88,12ZM57,9.93c.14-.26.23-.66.49-.62,0,.24-.31.38-.1.48C57.3,10.07,57.1,10.19,57,9.93ZM57.27,8c.16-.52.17.43.44.19-.1.24-.11.72-.34.63C57.4,8.42,57.43,8,57.27,8Zm-.32,13.44c0,.31-.07.69-.25.63C56.66,21.62,56.66,21.38,56.95,21.44Zm.24-4.85c-.17-.35.29-.59.41-.78.17.06-.11.43-.11.64-.06,0-.06-.17-.13-.17A.47.47,0,0,0,57.18,16.59Zm.2-3.23c0-.44.32-.27.41-.62C58,13,57.62,13.54,57.38,13.36Zm-.27,8.74c.05-.24.13-.4.18-.64C57.52,21.56,57.37,22.32,57.11,22.1Zm.67-6.93c.31-.54,0-.8.16-1.29a2.42,2.42,0,0,1,0,1.62C57.88,15.44,57.88,15.21,57.78,15.17Zm.35-4.2c-.12-.29.22.13.32-.3a5.22,5.22,0,0,1-.07-1.14c.34.14.32-.16.27-.63.07.11.05.38.2.34a1.77,1.77,0,0,0-.12.64H58.5a7.33,7.33,0,0,1,0,1.46c-.05-.12-.19-.26-.22,0C58.18,11.26,58.23,11,58.13,11Zm0,4.86c.14-.83.78-.45,1-.41-.08.61-.37-.17-.47.61C58.46,15.69,58.46,15.85,58.09,15.84Zm.33-3.71c.16-.67.35-1.24.75-1.24C58.82,11.54,58.95,11.66,58.42,12.13Zm-.29,5.17c0-.71.3-.72.49-.94C58.71,16.62,58.29,17.08,58.13,17.3Zm.62-8.88c0-.2.42.07.51.2C59.12,9.05,58.82,8.6,58.75,8.42ZM57,33.77c.14-.29.11.1.31,0,0,.45-.15.32-.17.64.34.09.24-.24.54-.45,0,.32-.19.19-.17.64l-.5,0C57.25,34.18,56.92,34.41,57,33.77ZM58.36,15c.18-.33,0-.46.07-1C58.62,14.37,58.87,15,58.36,15Zm-.2,5.83c.18-.5.29-.07.5-.28,0,.21-.14.24-.17.47C58.32,21.11,58.36,20.75,58.16,20.87Zm0,2.43c-.14-.25.2-.71.27-1,0,.64.42-.17.53.2C58.75,23.07,58.22,22.55,58.12,23.3Zm1.17-11.11c0,.31.27.15.17.66-.34-.1-.12.13-.19.63-.18-.13-.16.32-.25.47-.05-.18-.26-.07-.18-.5.3.59.29-1.06.47-1.42C59.38,12.07,59.33,12.2,59.29,12.19Zm-1.14,11.6c0-.3.23-.1.24-.47.09.06,0,.41,0,.65C58.27,24,58.24,23.85,58.15,23.79Zm.71-3a2.22,2.22,0,0,1,.12-.64c.14.19-.05,1,.28.83C59.12,21.62,59,20.81,58.86,20.76Zm1.28-9.15c-.15.06-.27-.52-.3.14-.09-.06,0-.41,0-.65s-.12-.15-.21-.18c.15-.59.72.41.68-.27.13,0,.14.21.28.18,0,.19-.14.13-.23.14S60.15,11.24,60.14,11.61Zm-1,11.29c-.15-.11-.07-.79-.25-1.16.22,0,.49,0,.44.52C59.07,22,59.21,22.35,59.17,22.9ZM60,12.57c-.1-.08,0-.2,0-.48C60.64,12.71,60.56,12.64,60,12.57ZM58.41,34.2c.09-.55.2-.09.32,0-.06.21-.16.29-.28.3C58.47,34.35,58.45,34.24,58.41,34.2Zm1.79,0c.1-.23-.08-.37.09-1,0,.14.13.87.29.35.15.11.09.62.1,1-.29.23.1-.89-.19-.67-.17,0,.06.29-.06.65a1.36,1.36,0,0,1-.91.08c-.08-.33,0-.2.06-.65-.18,0-.15.76-.37.62.13-.46-.24-.49-.19,0-.11,0-.12-.21-.24-.18a2.42,2.42,0,0,1,.13-.8c.25-.16.15.42.35.35s.09-.54.18-.63,0,.3,0,.49c.13-.13.14-.65.36-.45,0,.49-.26.61-.15,1C59.9,34.16,60,33.56,60.2,34.19ZM60,20.69c.12-.37.52.07.59-.44.19.37,0,.52.33.19a1.93,1.93,0,0,1,0,.65C60.84,20.9,60.35,20.93,60,20.69Zm.75-9c.09-.21.12-.59.21-.8s.17.65.28.18c.09.06,0,.41,0,.65,0-.4-.36.15-.17.31C61,12.5,61,11.59,60.79,11.66Zm.27,1.16c-.19-.24.17-.56.33-.46l0,.48C61.16,13.05,61.11,12.4,61.06,12.82Zm.41-.61c0-.32.21-.19.2-.63.07.41.38.41.43.85C61.85,12.66,61.8,12.13,61.47,12.21Zm-.15,2.59c.12-.2.11-.76.23-1,.15.32-.12.56,0,1Zm.89-5.93c.36-.57.77.23,1.08-.55.09,0,0,.33,0,.32,0,.19.06.1.07,0,.21.69-.47.93-.3,1.6-.33,0,.05-.73,0-1.14,0-.13-.06-.17,0-.33A.52.52,0,0,1,62.2,8.86ZM61.43,19c0-.43.14-.52.32-.46C61.74,19,61.61,19.09,61.43,19Zm.9-4.47c.25,0,.3,1.13,0,1C62.41,15,62.24,15,62.33,14.56ZM62,18.92c.06-.51.22-.69.26-1.28C62.38,17.9,62.22,19,62,18.92Zm1.29-5.41c-.12-.3-.58.13-.75-.39.25-.79.4.39.85.08.07.54-.41.74-.08.81a1.47,1.47,0,0,0-.12.48c-.05-.1-.11-.21-.14,0-.09-.06,0-.41,0-.65C63.17,13.83,63.24,13.71,63.29,13.51Zm.2.83c-.13.21-.16.76-.41.61C63.14,14.5,63.27,14.28,63.49,14.34ZM60.87,34.58l0-.48c.11,0,.11.14.1.33a2.69,2.69,0,0,0,.2-.79c.15.35.55.24.48,1-.12-.08-.13-.36-.29-.36.11.65,0,1,.27,1.17-.15.66-.33-.08-.54.27.2-.39.15-.31.22-1C61.22,34.74,61.18,34.37,60.87,34.58Zm.89-8.7c.1-.47.15.22.33,0,0,.13-.08.16-.1.32.13.09.15-.22.18-.47.05.27.21.54.05.82-.06-.23-.27-.19-.45-.2C61.8,26.15,61.83,25.92,61.76,25.89Zm.54-5c.08-.23.11-.62.32-.46,0,.31-.26.52-.06.64C62.5,21.46,62.39,20.88,62.3,20.9Zm-.08,4.38c0-.46.26-.29.23-1,.17.3,0,.6,0,1.13C62.36,25.37,62.31,25.28,62.22,25.28Zm.1.34a.25.25,0,0,0,.25.19l-.06.64C62.34,26.37,62.32,26,62.32,25.61Zm.69-5c0,.29.05.35,0,.65.11.17.27-.46.27,0-.09.76-.26-.08-.49.11,0-.29.26-.65.08-.81.29-.13.45-.67.76-.74C63.53,20.45,63.25,20.48,63,20.64Zm.52-3.2c0-.35.25,0,.36-.13l-.06.64c-.15.06-.11-.24-.09-.5Zm.79-.24a.28.28,0,0,1-.36.13,11.07,11.07,0,0,1,.09-1.62c.26,0,.37.22.52.38-.09.35-.28.38-.41.61.06.24.25.24.21.67C64.32,17.61,64.31,17.37,64.33,17.19Zm-.27.62a1.19,1.19,0,0,1,.29.52c-.15.16-.31.3-.46.44C63.76,18.37,64.07,18.45,64.06,17.82Zm-.95,13.25c.16,0,0,.47.15.5.15-.3-.12-.92.3-.95a6.21,6.21,0,0,0-.12,1.13C63.21,31.73,63,31.7,63.11,31.06Zm1.18-1.18c0-.41.27-.65.09-.81,0-.19.13-.12.22-.14,0,.13,0,.15,0,.17C64.45,29.11,64.51,30,64.29,29.89Zm.13.66c-.18.56,0,.4,0,1C64.13,31.75,64.19,30.41,64.42,30.55Zm.34.53c-.13-.17.15-.8.29-.78C65.05,30.9,64.85,30.8,64.76,31.08ZM65.35,30c.07.06.14.3,0,.33,0,.19.1.15.18.18,0,.43-.18.4-.32.45A1.13,1.13,0,0,1,65.35,30Zm-.23,1.44c0-.21.39,0,.28.52a.24.24,0,0,1-.28.13C65.14,31.84,65.22,31.48,65.12,31.44Zm1.65-11.87c-.08-.2,0-.62-.12-.83s.24-.09.26-.46c.17.28,0,.51,0,.82l.48.05c0,.28-.16.4-.05.48C67.24,19.83,67.06,19.27,66.77,19.57ZM65.57,31c.08-.23.24-.21.37-.29,0,.34.24.69,0,1.14C65.5,31.87,65.86,31.13,65.57,31Zm.28-1.27c.12-.3.09.4.33,0-.05.64-.35.4-.44.93C65.53,30.05,66,30,65.85,29.73Zm.14-.64c.33-.33-.14-1.07.33-1.11-.24.38,0,.73.11.18A1.85,1.85,0,0,1,66,29.42C66,29.24,66,29.13,66,29.09Zm1.24,1.44c.28.16.65.18.55,1,0-.46-.35-.2-.32-.69-.12.46-.08.39-.25.46C67.08,31.09,67.29,31,67.23,30.54Zm-.44.93a.94.94,0,0,0,.07-.64c-.14.4-.47.13-.55.75-.19-.08,0-.77-.15-1,.23-.55.7-.24.85-1,.12.17.06.65.26.68C67.11,30.65,67.06,31.46,66.78,31.46Zm.32-5.18c.13-.37,0-.3.16-.8.22,0,0,.92.07,1.15C67.25,27,67.26,26.21,67.11,26.29Zm1-7.7c0-.41.66-.51.54.06C68.45,18.3,68.34,18.93,68.12,18.58Zm-.5,7.93c.14-.43.4-.28.55-.1C68,26.93,67.89,26.48,67.62,26.51Zm.63,2.68-.33,0c.06-.44-.07-.34.07-.64.06,0,0,.2,0,.33s.16-.18.28-.13c0-.19,0-.29,0-.33C68.55,27.92,68.3,28.84,68.25,29.19Zm-.07,2.28c0-.18,0-.5,0-1,.18.64.21.22.59.07,0,.5-.23.55-.3.29a5.87,5.87,0,0,1-.18,1C68.14,31.94,68.35,30.88,68.18,31.46ZM70.31,15.9c-.07-.59.36-.83.48-1.08.09.06,0,.41,0,.65C70.57,15.44,70.41,15.58,70.31,15.9ZM68.77,28.76c.15-.31,0-.2.08-.64l.26,0c-.42.55.23.41-.05,1C69,28.93,69,28.65,68.77,28.76Zm.29,2c-.26.21,0,.81-.36.77,0-.52.2-.67.22-1.28.23.2.24-.38.43-.27-.24.33,0,1.49-.37,1.42C68.92,31.07,69,31.19,69.07,30.75ZM70.63,19c0,.47.23-.41.38-.28-.18.6.3.07.13.67-.2-.32-.51-.1-.42.6a2,2,0,0,1-.36-1c.27.26.24-.52.47-.43C70.79,18.85,70.72,19,70.63,19ZM70,28.59c-.08.11-.07.48-.23.79-.12-.45-.22.17-.41.11,0-.15,0-.29-.09-.34.18-.57.62-.22.73-1.05a3.32,3.32,0,0,0,.62.4c0,.24-.42.18-.11.31C70.34,29.43,70,29.25,70,28.59Zm.77-11.32c.05-.44.37-.34.43-.11S70.9,17.19,70.77,17.26ZM69.1,33.2c.06-.41.26-.29.43-.27C69.44,33.53,69.24,33.35,69.1,33.2Zm.3-2.41a2.3,2.3,0,0,1,.14-.63c.08.07.07.3.16.35.06-.44-.07-.34.08-.64.21.16.31-.26.39,0-.18.6-.13.18-.1.8C69.75,30.91,69.67,30.61,69.39,30.79Zm1.5-4.54c.17.14.17-.3.31-.29.06-.35-.23-.1-.31-.2,0-.6.39-.25.42-.11-.2.6-.05.72.21.52-.06.5-.27.43-.28,1.11-.05-.29-.27-.93-.4-.05-.1-1.13-.3.64-.34-.53-.09.06-.16.19-.19.46a1,1,0,0,1-.1-.83c.07.35.36.05.24-.3C70.47,26.11,70.76,26.11,70.9,26.25Zm-.4-1.68c.08-.27.17-.08.11.18.11-.06.12-.5.31-.29a2.3,2.3,0,0,1-.17.79l-.2,0C70.47,25.12,70.62,24.61,70.5,24.57Zm1.15-7a2.22,2.22,0,0,0,.17-.79c.15,0,.17.13.26.2-.13.44-.3.17-.24.79C71.79,17.63,71.75,17.54,71.65,17.54ZM70.19,29.75c.05-.28.16-.35.3-.29,0,.29,0,.35,0,.65C70.25,30.23,70.31,29.84,70.19,29.75Zm1.5-11.39c.26-.67.73-.11.65.41-.31.11-.37-.21-.42-.54C71.85,18.3,71.78,18.38,71.69,18.36ZM70.24,30.9c-.18-.13.11-.33.08-.64.16,0,.33.07.27.52-.11,0-.09-.17-.18-.18A.49.49,0,0,0,70.24,30.9Zm.81-6.42a.67.67,0,0,1,0,.81C70.85,25.25,70.94,24.67,71.05,24.48ZM72.32,15c.42-.06.1-.83.11-1.45a2.62,2.62,0,0,0,.71.58c.09,0,.16-.47.06-.48,0-.23.22,0,.25-.29,0,.28.14,1.21.26.2.26.24-.06.33-.11.8s.22-.21.26.2c.06-.27,0-.31-.1-.34.09-.23.26-.2.4-.27a1.28,1.28,0,0,1-.95,1.18,1.47,1.47,0,0,1,0,.49c.06.24.24.28.29.53-.35.49-.51-.4-.35-1.19a.27.27,0,0,1,.3-.12c0-.21-.09-.27-.08-.5-.15.59-.53.37-.79.55,0,.17.14.19.08.5.09,0,.1-.29.13-.47s.17.13.26.2c-.07-.44-.37,1-.06.48C72.66,16.21,72.53,15.69,72.32,15ZM72,17.42a1.49,1.49,0,0,0,.13-.47c.19,0,.14.36.13.67C72.12,17.66,72.1,17.48,72,17.42Zm.95-6.9c0-.28.35-.53.21,0,.06,0,.09-.15.16-.14.1-.5-.12-.48-.2-.68.16-.46.25.25.5.06-.25.91.2.48.2.68C73.71,11.14,73.12,10.62,73,10.52Zm-2.14,19c.06-.64.36-.4.45-.92a2.16,2.16,0,0,1,.44.22c-.14.57-.21.07-.42.11-.1.42.1.33.13.51C71.2,29.71,71,29.37,70.82,29.5Zm-.15.63c-.23-.48.16-1.41.13-2.1.06,0,0,.2,0,.33s.16-.18.28-.13c-.06.14-.12.28,0,.32C70.72,28.78,70.85,29.59,70.67,30.14Zm1.24-10.78c.1-.54.4-.26.23.36C72.05,19.62,72,19.46,71.91,19.36Zm-.32,4.69c0-.43.16-.52.33-.45C71.88,24,71.76,24.12,71.59,24.06Zm-.48,5.81c.24.44.38-.52.72-.39,0,.27,0,.42.07.5-.18.23-.17.32-.17.8-.19.14-.44.47-.45-.06-.09,0-.15.47-.06.48-.29.5-.38-.39-.35-.86C71.16,30.42,71,30.66,71.11,29.87Zm.44-5c.12-.42.54-.52.6-.41C72,24.74,71.83,25,71.55,24.87Zm.92-6.57c.36-.68.33.28.38.87C72.63,19,72.71,18.38,72.47,18.29Zm-.72,8.23c-.1-.54.36-.64.53-.42a1.23,1.23,0,0,0-.17.79C72,26.89,71.88,26.14,71.74,26.52Zm-.33,5c0,.34.28.08.28.37-.12.58-.25-.07-.54.09a3.58,3.58,0,0,0,.39-.93C71.7,31.11,71.49,31.6,71.42,31.54Zm.49-3.69a1.39,1.39,0,0,1,.22.85C71.93,29,71.79,28.46,71.91,27.85ZM72.56,25l.06-.48c.19.21.48-.44.54.07C73.07,25,72.89,25,72.56,25Zm-.77,6.27c.14-.09.09-1,.3-.78C72,31,72,31.36,71.78,31.26Zm.45.06c-.12.45,0,.43,0,.81C71.95,32.19,71.92,31.23,72.24,31.33Zm.57-5.15c.32.18.38-.64.73-.88,0,.51-.41,1-.6,1.39C72.78,26.71,72.93,26.21,72.81,26.17Zm2.14-7.87c0-.15.1-.11.16-.14,0-.22-.11-.32-.23-.36.08-.21.19-.27.33-.28,0-.33-.35-.1-.19-.68-.11.28-.47.88-.37,1.09-.37.47,0-1.35-.41-1.2a2.15,2.15,0,0,1,.16-.63c.19-.11.22.84.35,0,.2.45.42.09.57.57.09,0,.1-.28.14-.47.14.75,1.11-.38,1.13.66.16-.62.38-.1.45-.59.3.59.73-.15,1.19.35,0,.13-.1.15-.12.31-.06,0-.08.05-.1.15-.07-.81-.44.18-.69.22-.05-.48-.72-.54-1,0,.16,0,.61-.05.52.9-.13,0-.12-.22-.26-.2,0,.26.2.17,0,.66-.35,0-.12-.87-.35-1a6.39,6.39,0,0,0-.38,1.09c-.2.14-.25-.65,0-.49.06-.28-.35-.34-.3.12-.05-.47,0-.38-.21-.52C75.23,18,75.14,18.37,74.95,18.3Zm-.37.11c0,.32.16.23,0,.66-.16,0-.17-.14-.26-.2a.8.8,0,0,1,.3-.61C74.76,18.36,74.65,18.43,74.57,18.41Zm1-8.36c.31-.94.29.58.33.87C75.49,11.14,76,9.89,75.59,10.05ZM73.38,26.42c.13,0,.12.17,0,.17,0,.5.29-.2.31.21-.09.23-.22.32-.38.27C73.41,26.78,73.33,26.72,73.38,26.42ZM76.7,11.19c.08-.48.61-1.17.49-.26C76.93,10.69,77,11.44,76.7,11.19Zm4.94,8.72c.14-.52.32-.17.46-.07C82,20.19,81.78,19.85,81.64,19.91Z" fill-rule="evenodd"/><path d="M73.16,29l.09-.64c.15.09.18-.27.35-.11.07.44-.09,1.28,0,1.64,0,.16-.35-.28-.39-.55,0-.5.25-.16.24-.78C73.27,28.29,73.37,29.27,73.16,29Z" fill-rule="evenodd"/><path d="M24,50.19c-.08-.11-.06-.14,0-.17,0,.2.23-.23.7.52l-.38.23C24.27,50.54,24.34,50.21,24,50.19Z" fill-rule="evenodd"/><path d="M39.84,47.08a1.32,1.32,0,0,1,.19.45l-.18,0C39.71,47.13,39.83,46.54,39.84,47.08Z" fill-rule="evenodd"/><path d="M43.86,45.18c0-.25.25-.72.42-.22C44.29,44.87,44,45.5,43.86,45.18Z" fill-rule="evenodd"/><path d="M45.31,43.57c0-.71.15,0,.25.14,0,.59-.38.11-.43.53-.19-.45.25-.34.33-.52S45.37,43.59,45.31,43.57Z" fill-rule="evenodd"/><path d="M48.26,43.09c-.13-.14.1-.5.19-.49,0-.35-.08-.31-.16-.32.19-.25.43-.18.57.15-.11.29-.35.2-.34.82C48.4,43.38,48.28,42.68,48.26,43.09Z" fill-rule="evenodd"/><path d="M48.62,4.05c-.24-.44.53.34.5,0C49.41,4.57,48.65,4.39,48.62,4.05Z" fill-rule="evenodd"/><path d="M50.36,3.89c-.06-.65.37.11.58-.32.35.16-.3.44,0,.49a4.82,4.82,0,0,1-1.65-.16c.11-.6.34,0,.5-.49C50,3.53,50.25,3.56,50.36,3.89Z" fill-rule="evenodd"/><path d="M52.13,39.21c0,.14,0,.29.11.33-.14,0-.43.3-.69.15.08-.56.5-.07.59-.63C52.2,39.08,52.16,39.21,52.13,39.21Z" fill-rule="evenodd"/><path d="M52.14,38.72c.09-.71.52,0,.88-.3,0,.44-.13.32-.14.64.13,0,.19-.12.19-.48.2.39.37,0,.57.51-.21.86-.45-.46-.64,0,0,.27,0,.31.11.33-.09.31-.41,0-.5-.5-.11,0-.19.1-.24.32-.09-.07,0-.51-.22-.33a2.13,2.13,0,0,0,.07-.32S52.15,38.62,52.14,38.72Z" fill-rule="evenodd"/><path d="M54.16,38c-.1-.38.35,0,.41.18C54.39,38.76,54.36,37.81,54.16,38Z" fill-rule="evenodd"/><path d="M64,11c-.11.47,0-.49-.27-.19,0,.29.05.35,0,.65-.06,0-.06-.07-.05-.17s-.13-.18-.14,0,0-.57,0-.81C63.65,10.78,64.09,10.45,64,11Z" fill-rule="evenodd"/><path d="M63.6,10.29c.44.28,1.11-.9,1.22,0-.43-.23-.42.41-.51.76C64.09,10.63,63.88,10.23,63.6,10.29Z" fill-rule="evenodd"/><path d="M65,10.27c.29-.51.7.28.78-.57l.43,0c0,.63-.45,1,0,1.14-.11.36-.45,0-.65.1,0-.23.22,0,.25-.3-.08-.5-.36.15-.57-.06.21.37.1,1-.12,1.13A2,2,0,0,0,65,10.27Z" fill-rule="evenodd"/><path d="M66.25,2.75c.4-.41.68.51,1.12.44.07-.6-.43-.22-.43-.7a1.34,1.34,0,0,1,1.21.78c-.28-.08-.59-.81-.74.24C66.86,3.48,66.59,3,66.25,2.75Z" fill-rule="evenodd"/><path d="M65.54,17c-.37,0-.27-.92-.5-1.19.19-.42.36.25.68-.42A4.46,4.46,0,0,1,65.54,17Z" fill-rule="evenodd"/><path d="M65,17.43c.08,0,0,.3,0,.49.23-.12.35-.45.57-.1-.09.7-.3-.23-.32.45A.59.59,0,0,1,65,17.43Z" fill-rule="evenodd"/><path d="M67.78,8.61c-.11.21-.35,0-.4.44-.17-.28-.5-.6-.65.09-.18-.07-.05-.69-.19-.84,0-.22.39-.28.19-.47.06-.41.1.23.28,0-.14,1,.28.27.42.7.06-.43.45-.74.44-.12.13,0,.1-.54.21-.63.37.46.59,0,1,.44-.14.15-.51.3-.21.63-.05.36-.15-.23-.35,0,.33.61-.47,0-.56.59.12.36.6-.15.28.68.19.19.16-.34.21-.63.29,1,1.12-.25,1.35.48.1,0,.1-.4.14-.64.09.15.25.16.13.67.44-.61.37.55,1,.12-.13-.51.16-1,.24-1.44.14,0,0,.45.24.36-.31.22-.27.52-.21,1.12.17-.19.22-.76.5-.59-.25.41-.1.39-.12,1-.59-.57-1.71.7-2-.4-.48.62-1.37.76-1.67-.19-.22.12-.11.23-.14.64-.31-.71-.77.07-.94-.43-.14.48-.47.32-.54.43-.09-.46.54-.43.61-1.07.16.54.56.17.84.09.1-.78-.22-.23-.3-.52S67.83,9.47,67.78,8.61Z" fill-rule="evenodd"/><path d="M65.15,21.84a2.31,2.31,0,0,1,.15-.8c.22-.05.13.45.29.52C65.46,22,65.32,22,65.15,21.84Z" fill-rule="evenodd"/><path d="M65.48,24.48l0-.32.2,0c0,.13-.08.15-.1.32.16,0,.25.05.32.2-.05.5-.23,1.14,0,.81.19.6-.34.85-.37.29,0-.19.14-.12.22-.14C65.69,25.22,65.7,24.64,65.48,24.48Z" fill-rule="evenodd"/><path d="M65.81,22.72c-.12-.15.22-.55.29-.78.07-.42-.25-.15-.13-.67.18.15.2-.21.36-.12,0,.69-.15,1.25,0,1.63,0,.21-.15.24-.19.47,0-.19,0-.65-.27-.68C65.84,22.53,65.82,22.63,65.81,22.72Z" fill-rule="evenodd"/><path d="M68.35,12.91c-.26-.06,0,.13-.12.48-.21-.44-.76.2-1.12,0-.15,0,0-.69,0-1,.32-.15.39,0,.64-.09l-.05.48c.21-.4.35-.38.54-.43,0-.17-.14-.18-.08-.5.41-.15.15.94.24,1S68.34,13,68.35,12.91Z" fill-rule="evenodd"/><path d="M68.38,7.7c-.25-.13-.77.22-.65-.56.12.05.37-.12.25.35.16-.21.27-.59.49-.6,0-.29-.21-.32-.3-.52.09-.23.22-.33.39-.28C68.71,6.84,68.33,7.07,68.38,7.7Z" fill-rule="evenodd"/><path d="M67.77,16.26c.07-.14.23-.11.5-.1-.41.28,0,.47.14,0,.77.31-.28.69-.57.75C67.75,16.81,67.89,16.3,67.77,16.26Z" fill-rule="evenodd"/><path d="M66.43,31.1c-.31-.38.47-1.07.55-.75C66.81,30.64,66.53,30.55,66.43,31.1Z" fill-rule="evenodd"/><path d="M70.57,4c-.08,0,0-.16,0-.16-.21-.42-.5-.05-.7-.08,0-.28.09-.3.18-.31-.13-.46-.56-.06-.62.42-.11-.23.16-.7.06-1.13.6.52.85.09,1.35.64C70.8,3.74,70.63,3.71,70.57,4Z" fill-rule="evenodd"/><path d="M69,12.66c.12-.44.4.12.17.34l.14,0C69.18,13.46,69.07,12.79,69,12.66Z" fill-rule="evenodd"/><path d="M70,8c-.1-.41.23.15.42,0,0,.14,0,.45.09.5-.16.21-.24,0-.41.44C69.79,9,70.4,8.07,70,8Z" fill-rule="evenodd"/><path d="M69.78,13.23c-.23.06.07-.8-.2-.67.63-.52.76.14,1.43-.16C70.61,13.68,70.18,12.32,69.78,13.23Z" fill-rule="evenodd"/><path d="M69.16,21.47c.08-.47.41-.08.53-.42C69.81,21.32,69.36,21.55,69.16,21.47Z" fill-rule="evenodd"/><path d="M70.69,9.1c0,.14,0,.16.05.17-.36.32.16-.7.31-.78C71.21,8.76,70.8,9,70.69,9.1Z" fill-rule="evenodd"/><path d="M69.83,36.72c0-.18.08-.08.06,0,.08-.1.11-.36.23-.3.06.33,0,.2-.08.64l-.19,0C69.89,36.87,69.88,36.76,69.83,36.72Z" fill-rule="evenodd"/><path d="M72.6,32.52c-.28-.2.47-.62.27-1.43a7.5,7.5,0,0,1,.11,2c-.2-.06-.31.25-.53.09.1-.27.27-.23.35-.61,0-.15,0-.29-.08-.34S72.63,32.4,72.6,32.52Z" fill-rule="evenodd"/><path d="M76,7.49c.31.24.21-.88.54-.58,0,.15-.11.11-.17.14,0,.37.42.11.28.7a.31.31,0,0,0-.35-.21c-.16.67.15.78,0,1.3,0-.09-.1-.18-.2-.19C76.34,7.95,75.84,8.18,76,7.49Z" fill-rule="evenodd"/><path d="M73.06,32.91a7.87,7.87,0,0,1,.27-.94c.18.43.31.2.68.26,0,.35-.13.5-.26.45,0,.13,0,.16,0,.17C73.64,32.66,73.24,32.95,73.06,32.91Z" fill-rule="evenodd"/><path d="M76.52,13.46l.07-.48c.11.33.36-.37.68-.06,0,.19-.15.12-.24.13s0,.16,0,.17A1.3,1.3,0,0,1,76.52,13.46Z" fill-rule="evenodd"/><path d="M74.21,31.77s0-.17-.1-.18c0-.26.1-.27.14-.47.06,0,0,.2,0,.33s.15-.42.3-.28l-.07.48C74.33,31.61,74.34,31.31,74.21,31.77Z" fill-rule="evenodd"/><path d="M74.78,27.11c.23,0,.83-.79.79.12C75.19,27.47,75.17,27,74.78,27.11Z" fill-rule="evenodd"/><path d="M74.72,29.72c.19-.5.16.66.28-.12,0,.23.36.13.12.51.29-.17.48-.36.66-.39C75.72,30.23,74.74,30.82,74.72,29.72Z" fill-rule="evenodd"/><path d="M77.85,11c.07,0,.06.07,0,.17s.4.12.37-.43c.07.05,0,.32.1.34s0-.35.1-.64c.29-.11,0,.7.1.83.33-.29.16.26.5.24C78.77,11.86,77.82,12.08,77.85,11Z" fill-rule="evenodd"/><path d="M78.57,7.88c.2,0,.43.16.5-.25.14.11.12.27,0,.49.59-.56.86-.17,1.33.05A1.68,1.68,0,0,1,79,8.27c0,.18,0,.29,0,.33S78.52,8.33,78.57,7.88Z" fill-rule="evenodd"/><path d="M77.34,25.55c-.13-.24.17-.58,0-.65.17-.08.66-.31.48.41.12-.05.14-.49.32-.27C78,25.72,77.6,25.28,77.34,25.55Z" fill-rule="evenodd"/><path d="M79.68,13.8c.25.07-.08,1,.2,1C79.7,15.41,79.46,14.55,79.68,13.8Z" fill-rule="evenodd"/><path d="M80.34,11.77c-.22.47-.32-.24-.19-.69.14,0,.12.15.1.34.06,0,.08,0,.1-.15C80.58,11.27,80.07,11.71,80.34,11.77Z" fill-rule="evenodd"/><path d="M81.89,8.76c-.35.17-.07-.84,0-1.65.62-.19,1.41.14,1.79,0C83.19,8,82,7.58,81.89,8.76Z" fill-rule="evenodd"/><path d="M82.18,9.8c-.08-.41.29.22.33.39-.11.56-.19-.39-.26.12C82.14,10.25,82.3,9.83,82.18,9.8Z" fill-rule="evenodd"/><path d="M83.85,9.46c.14-1.32-.8-.23-1.47-.77.29-.61.58.27.79-.35s-.37.35-.28-.22c1.11-.85,1.73.68,2.68.2.18,0,.23.18.14.53.64-.46,1.26,0,2,.12-.81.27-2.61.56-3.24-.54C84.2,8.52,84,8.94,83.85,9.46Z" fill-rule="evenodd"/><path d="M84.13,11.33c-.1-.09.07-.2.1-.48-.19-.15-.22.3-.33.43-.08-.06,0-.33-.09-.35,0,.38-1,.27-.82-.33-.32-.17-.37.6-.7.36.19-.57.32-.09.33-.93.44,0,.59.4.84.66.18,0,.06-.44-.09-.35,0-.26.57-.22.36.24.33-.76.61,0,1.11-.27,0,.67-.28.46-.35.92C84.41,11,84.22,11,84.13,11.33Z" fill-rule="evenodd"/><path d="M85.91,17a1.59,1.59,0,0,0-.26.44c.28-.9-.45-.24-.38-1.09-.07,0-.11.14-.18.12.05.57-.47.33-.39,1.07-.22-.44,0-.85.05-1.64.27.12.86.7,1.16.09a.47.47,0,1,0-.9-.2c-.26-.31,0-.57.17-1.12,0,.37,1,.54,1.21-.06a3.65,3.65,0,0,1-.48,1.72,9.49,9.49,0,0,1,2.41.59c.17,0,.67-.39.44.45-1.16.41-1.77-1.08-2.89.11C85.59,17.47,85.88,17.38,85.91,17Z" fill-rule="evenodd"/><path d="M87.51,7.59c.23.17.34-.09.53,0-.08,1.05.38-.07.74.17C88.33,8.48,87.46,8.71,87.51,7.59Z" fill-rule="evenodd"/><path d="M88.81,9.39c.12.56-.41-.45-.4.24-.31-.26-.44-.13-.69-.33C88.18,8.4,88.36,9.44,88.81,9.39Z" fill-rule="evenodd"/><path d="M88.39,8.63c.22.17.34-.09.53,0s-.12.58.13.53,0-.27.2-.45c.09.08.06.31.17.38-.08-.5.23-.09.58-.19-.1.34-.29.28-.49.21,0,.3.14.52-.12.81-.07-.22.07-.81-.21-.22C89.18,8.82,88.22,9.43,88.39,8.63Z" fill-rule="evenodd"/><path d="M90.08,10.55c.11,0,.22.09.28-.09.08.06,0,.33.08.35s.14-.3.25-.27c-.24-.35.2-.76-.2-.89.07-.22.13-.44,0-.49.19-.65.26.26.5-.21-.12.47-.36,1.72.44,2-.37.8-.8.37-1.36.8C89.78,11.31,90.12,11.48,90.08,10.55Z" fill-rule="evenodd"/><path d="M85.23,32.54l.13-.47.19.05c-.05.26-.13.25-.19.45l.12,0C85.3,33.07,85.38,32.43,85.23,32.54Z" fill-rule="evenodd"/><path d="M92,10.24c.29-.55.5.66.63-.32.07.35.29.13.5.15C92.9,10.84,92.24,10.44,92,10.24Z" fill-rule="evenodd"/><path d="M92,12.09c-.2-.1.19-.24.18-.62.31,0,.22.35.14.71C92.06,12.62,92.22,11.69,92,12.09Z" fill-rule="evenodd"/><path d="M96.67,12c0,.37.24,0,.37.3.13,0,.21-.36.3-.58.28.16.43.57.87.49-.06.15-.15.08-.22.09-.29.45.23.22-.06.67-.68-.28-1.52-1-2.13-.07-.21,0-.4-.11-.44-.32.25-.45.12-.34.31-.92-.19-.17-.32,0-.4.38-.08,0-.06-.09,0-.18l-.17-.06c.59-1,1.24,0,1.82-.41.09.09,0,.32.15.4C96.93,12,96.81,12.1,96.67,12Z" fill-rule="evenodd"/><path d="M93.79,17.57c-.14,1.41.65.24.48,1.36.22,0,.42-.17.64-.11,0-.15-.2-.53-.25-.26-.07-.29.42-.54.49-.17.19-.52-.21-.05,0-.69-.16-.09-.29,0-.39.37,0-.63.59-1.07.88-1.23s0,.36.2.42c.3-.42,1.9,0,1.75.84.3,0,.7-.59.47.19.18,0,.32-.34.48-.5a6.28,6.28,0,0,0,.67.63c.93-.61,1.07,1.45,2.26.66,0,.53.31.5.71.34.08.63-.75.41-.65.76-.2.41,0-.45-.29.22-.2-1.23-1.79-.67-1.77-1.69-.83.68-1.1-.08-1.7-.35s-1.34.64-1-.59c-.33.49-.35.27-.77.41-.16.31,0,.33.12.39-.26.11-.48.52-.76.41,0,.67.92-.05,1.32,0-.27.07-.54.73-.08.67-.09.21-.18.42-.1.48-.29.33-.62.11-.93.16.12-.26.26-.3.42-.19.06-.71-.66.49-.6-.22-.26.06.1.42-.23.61-.24-1-.65-1-1.64-1.1.28-.65.11-.85-.07-1C93.48,17.77,93.66,17.85,93.79,17.57Z" fill-rule="evenodd"/><path d="M92.2,22.32c.52-1,.84-.12,1.4-.55-.2,1.24,1.79.11,1.81,1.37A8,8,0,0,0,92.2,22.32Z" fill-rule="evenodd"/><path d="M96.75,16.2c-.46-.38-1.69,0-1.73-1,0,.27.52.53.67-.12.16.38.61-.15.45.51.33,0,.62-.31.87-.89.2.34.39.05.59.39-.56,1,.75.41.77,1.17a1.23,1.23,0,0,0-.26.42c-.6,0-.68-.39-1.1-.26-.2.09.28-.89,0-.36-.21-.37.27-.19.33-.4C97.26,15.23,96.71,15.73,96.75,16.2Z" fill-rule="evenodd"/><path d="M94.63,16.65l.11-.31a.31.31,0,0,1,.29-.07l-.21.61.16.05C94.67,17.4,94.88,16.55,94.63,16.65Z" fill-rule="evenodd"/><path d="M87.73,40.31c.19-.81.35-.11.54-.66C88.3,39.83,87.87,40.46,87.73,40.31Z" fill-rule="evenodd"/><path d="M98.24,12.44c.6-.51.78.34,1.39.19C99.07,13.13,98.77,12.6,98.24,12.44Z" fill-rule="evenodd"/><path d="M88.91,43c.06-.09.33-.16.32.14-.26.44-.16.4-.37.72C88.74,43.78,89,43.23,88.91,43Z" fill-rule="evenodd"/><path d="M104.92,14.78c-.2-.12-.38.1-.57.09.21.45-.38.74-.67.76.34-.11.14-.67.43-.69a.54.54,0,0,0-.63-.65c.26-.78,1.45.08,1.77.67-.11.2-.22.4-.13.48-.43.45-.5,0-.65,0-.08-.37.33-.49.4-.17C104.9,15.13,104.76,15.06,104.92,14.78Z" fill-rule="evenodd"/><path d="M103.2,20.45a.72.72,0,0,0-.52.46c.15-.42-.09-.56.13-1,.18-.06.63.33.48.79a1.75,1.75,0,0,0,.6-.6c.46.43,1.44,1.41,2,1.28,0,.41.18.42.06.78,0-.4-.78.08-.45-.63A3.26,3.26,0,0,1,103.2,20.45Z" fill-rule="evenodd"/><path d="M105.43,15c.5-.71.73,0,1,.34-.07.17-.15.24-.23.24a.42.42,0,0,0,.27.5c.41-.48-.36-.22,0-.7a.83.83,0,0,1,.21,1c-.41.24-.51-.66-1,0,.11-.27.15-1.29.44-1C106.24,15,105.63,15.07,105.43,15Z" fill-rule="evenodd"/><path d="M104,25.27c.4.3-.25.44-.31.38-.31-.27-.27-.13-.72-.22-.6-.12-1.18-.83-1.5-.44a8.92,8.92,0,0,0,2.3,1.64,5.68,5.68,0,0,0,2.3,1.05c-.07-.47-.89-.41-.53-1.3-.11.16-.23.4-.33.37l-.28-.17c.29-.27.15-.26.49-.65C104.78,26.24,104.56,25.18,104,25.27Zm.64,1.32c-.26-.07,0-.5.2-.64A.52.52,0,0,1,104.59,26.59Z" fill-rule="evenodd"/><path d="M101.28,29.9l-.32-.18c.39-.27.71-.34.89-.05C101.48,30.16,101.56,29.34,101.28,29.9Z" fill-rule="evenodd"/><path d="M109.61,15.45c-.21.34-.31-.12-.34-.19.22-.25.45.13.67-.18C110.21,15.55,109.35,15.16,109.61,15.45Z" fill-rule="evenodd"/><path d="M104.59,24.33c.08-.64.84-.92,1.14-.27a1.25,1.25,0,0,0-.32.37c-.07.3.31.34.34.58.29-.06.4-.15.57-.6.38,0,.19.41.18.68.27.14.13-.55.33-.37s-.13.54-.22.82c-.46-.35-1.4.15-1.44-.88-.14,0-.08.2-.25.42-.2,0,.12-.76-.12-.45-.17-.14.24-.18.33-.56L105,24C104.8,24.07,104.88,24.24,104.59,24.33Z" fill-rule="evenodd"/><path d="M107.24,23.09c.08-.17.2-.54-.23-.14,0-.65-.6-.4-.81-.87,1.18-.13,1.74.83,2.66,1.28-.53.88-.57-.64-1.17,0C107.88,23.12,107.63,22.74,107.24,23.09Z" fill-rule="evenodd"/><path d="M109.88,18.44c-.08-.08,0-.17.08-.14.16-.24.08-.35.26-.6.18.19,0,.56.24.72C110.08,18.83,110.17,18.18,109.88,18.44Z" fill-rule="evenodd"/><path d="M105,28.77c-.11.14-.19,0-.31.18-.12-.33.73-.46.22-.63.38-.62.46-.2.42.08S104.88,28.57,105,28.77Z" fill-rule="evenodd"/><path d="M106.58,25.92c.28-.47.3.11.69-.13,0-.31-.28-.42-.24-.74.51-.27.55.6,1,.43-.53.47-.58.75-1.09,1C106.84,26.19,107,25.84,106.58,25.92Z" fill-rule="evenodd"/><path d="M96.3,44.56c-.26.36-.12.32-.37.53a1,1,0,0,1,.25-.62c.22-.1.06.07.3,0C96.48,44.64,96.35,44.61,96.3,44.56Z" fill-rule="evenodd"/><path d="M96.28,46.55c.45-.25.2.63.76.39C96.41,47.75,96.39,46.7,96.28,46.55Z" fill-rule="evenodd"/><path d="M112.53,25.57c.08,0,0,.1,0,.18.25.25.76.07.8.63-.35.57-.74.13-.71-.14-.2-.13-.48.32-.74.65C111.53,26.38,112.52,26.22,112.53,25.57Z" fill-rule="evenodd"/><path d="M97.52,46.29c0-.45,1-1,.35-.13-.14,0,.14-.28.1-.34C97.76,45.86,97.75,46.2,97.52,46.29Z" fill-rule="evenodd"/><path d="M98,46.1c.54-.53.55-.09,1.08-.35-.51.57.21.07,0,.4-.53.33-.34-.23-.87.11C98.72,45.66,98,46.42,98,46.1Z" fill-rule="evenodd"/><path d="M102.84,49.23c.44,0,.71.13.79.54C103.24,49.78,103,49.53,102.84,49.23Z" fill-rule="evenodd"/><path d="M104.9,48.78a.57.57,0,0,0-.33.1,1.53,1.53,0,0,1,.47-.46c.31,0-.19.33-.08.44C104.79,49,104.77,48.87,104.9,48.78Z" fill-rule="evenodd"/><path d="M22.3,50.49c-.25-.38-.05-.44-.12-.69-.32.06-1-1.56-1-1.65-.55-.77-1.54-2-.86-2.14.17.88.95,1.39,1.64,2.41.18.26.09.39.14.48.71,1.18,1.95,2.28,2.26,2.79s.11.42.65.93c-.23.2-.58-.3-.77.1-.26-.37.13-.26,0-.55s-.73-.51-.85-1c-.19-.28,0,.29-.31,0C22.83,50.52,22.64,50.93,22.3,50.49Z" fill-rule="evenodd"/><path d="M46.45,41.54c0-.39.24.08.13-.49.18.39.28.38.53.29,0-.19-.1-.13-.16-.15.23-.33.53.44.68.13-.24.41-.44,1.53-.65,1.49a2.87,2.87,0,0,1,.26-1c0-.17-.11-.1-.12-.32-.15,0-.15.43-.28.5C46.59,41.54,46.6,41.87,46.45,41.54Z" fill-rule="evenodd"/><path d="M49,39c.15-.65.35-.15.61-.65.09.74.33.17.51.49-.22,1-.67.25-.94,1-.19-.15,0-.3-.07-.81Z" fill-rule="evenodd"/><path d="M69.21,36c-.66,0-1.42.17-1.86-.23.07-.21.17-.28.3-.29-.07-.31-.22.09-.29-.36.45-.4.79,0,1.29-.34.07.33,0,.2-.08.64C68.77,35.41,69.26,35.38,69.21,36Z" fill-rule="evenodd"/><path d="M74.77,32.35c.17.45.13.08.45.07,0-.16-.06-.14-.1-.18.12-.63.18.15.31-.28.1.26-.11.38-.06.81l.13,0c.08,0,.1-.28.14-.47.35.1-.1.64-.18,1.12-.07-.54-.47.22-.66.06S74.85,32.87,74.77,32.35Z" fill-rule="evenodd"/><path d="M79.4,10.47c.14-.35.48,0,.71,0-.23.42-.24.08-.51.24,0,.43.35.13.32.38-.13.64-.2,0-.43.26,0,.2,0,.34.17.36a.48.48,0,0,1-.5.24C78.92,11.18,79.76,10.86,79.4,10.47Z" fill-rule="evenodd"/><path d="M74.81,36.61c0-.26.1-.27.14-.47.37.55,1.11-.59,1.17.52C75.72,36.64,75,37.39,74.81,36.61Z" fill-rule="evenodd"/><path d="M75.72,33.32a2.42,2.42,0,0,0,.19-.79c.58-.51.78,0,1.35.07-.1.14-.49.34-.47.08a1.26,1.26,0,0,0-.24.62C76.47,32.59,76,34,75.72,33.32Z" fill-rule="evenodd"/><path d="M84.7,10.12c0-.23.44-.43.1-.47a.36.36,0,0,1,.59,0c-.05.18-.17.1-.27.11,0,1.23.83.34,1.46.15,0,.44-.23.27-.34.42.05.29.68.34.74-.33.2.07.18.36.36-.08.08.88.42,1.49,1.09,1.09-.23.41-.59.27-.87.46.07-.27,0-.42,0-.51a1.18,1.18,0,0,1-1.5,0c-.06.47-.53.86-.51.06-.14.22-.35.18-.49.39-.11-.09,0-.51-.25-.38C84.85,10.54,85,10,84.7,10.12Z" fill-rule="evenodd"/><path d="M81,37c.49-.26.7.06,1.18-.05-.22.31-.13.62-.27,1.1-.12,0-.23.3-.36.25,0-.22.15-.75.11-1C81.28,37.24,81.09,37.7,81,37Z" fill-rule="evenodd"/><path d="M107.35,26.43c.42-.19.66.12,1.27-.51,1,.35.64,1.8,1.94,1.19-.56.28.06.54-.14.91.1,0,.24-.22.33-.15.11.29.37.51-.19,1.09-.24-.22-.5-.38-.8-.22,0-.29.24-.67.15-.91-.26-.35-1.09.15-.83-.6-.14,0-.09.19-.28.39C108.63,26.79,107.67,27.21,107.35,26.43Z" fill-rule="evenodd"/></g></g></svg>