<svg xmlns="http://www.w3.org/2000/svg" viewBox="0 0 82.84 49.51"><title>Asset 12-240</title><g id="Layer_2" data-name="Layer 2"><g id="Layer_30" data-name="Layer 30"><path d="M82.84,12.09s-.54-.52-1.6-1.44c-.53-.47-1.19-1-2-1.59s-1.72-1.23-2.77-1.88a40,40,0,0,0-7.33-3.52A48.44,48.44,0,0,0,61,1.52,69.62,69.62,0,0,0,53.52.66C52.35.58,51.32.54,50.37.49l-3-.13C43.32.19,39,.07,34.65,0,26-.08,17.31.12,10.82.43S0,1,0,1L3.41,49.51S7.24,49.21,13,49s13.44-.45,21.12-.36c3.84,0,7.68.15,11.28.29L48,49l2.25.12a22.4,22.4,0,0,1,2.36.24c.06,0,.18-.17.19-.16s0-.19,0-.19h0s0,.21,0,.19l0-.08.09-.31c.12-.48.24-.92.38-1.39l.21-.68.16-.56c.11-.37.22-.73.35-1.08s.27-.73.35-1a23.72,23.72,0,0,1,2-4.33c.1-.17.2-.33.31-.47L57,39l.18-.22.08-.1a1.69,1.69,0,0,1,.15-.16Z" fill="none"/><path d="M76.76,18.39c-.21-.13-.25-.31.06-.6C77,17.92,77.08,18.11,76.76,18.39Z" fill-rule="evenodd"/><path d="M79,15.36c-.37,0-.79,1.3-1.21.87.34-.23.39-1,.73-.65.34-.57-.19-.11-.38-.34C78.68,14.71,78.65,15,79,15.36Z" fill-rule="evenodd"/><path d="M60.86,34.78a6.54,6.54,0,0,1-.92.92A8.06,8.06,0,0,1,60.86,34.78Z" fill-rule="evenodd"/><path d="M71.7,22.55c-.38.4-.84.41-.79.17C71.27,22.33,71.83,22.06,71.7,22.55Z" fill-rule="evenodd"/><path d="M67.27,27.49c-.28.24-.58.28-.46,0S67.37,27.26,67.27,27.49Z" fill-rule="evenodd"/><path d="M67,27.85a5.6,5.6,0,0,0-.86,1c-.21,0-.54.29-.71.24.31-.3.65-.66.79-.6.43-.55-.33,0,.25-.64C66.49,28.06,66.8,27.79,67,27.85Z" fill-rule="evenodd"/><path d="M72,22.14c-.12-.21-.15-.46.36-1C72.09,21.55,72.36,21.7,72,22.14Z" fill-rule="evenodd"/><path d="M70,24.27a1.65,1.65,0,0,1,.5-.86.49.49,0,0,0,.31-.16C70.77,23.62,70.31,23.89,70,24.27Z" fill-rule="evenodd"/><path d="M58.16,37.57l-.52.62A7.14,7.14,0,0,1,58.16,37.57Z" fill-rule="evenodd"/><path d="M78.89,11.86c-.31.53-.76.37-.73,0C78.43,11.48,78.66,11.65,78.89,11.86Z" fill-rule="evenodd"/><path d="M76.24,14.52c-.29-.12-.16-.41-.27-.61C76.29,13.51,76.62,14.12,76.24,14.52Z" fill-rule="evenodd"/><path d="M75.89,13.85c-1.1-.32.8-3,1.63-3.83.16.59-.36,1.42.1,1.88C77.29,12.85,76.16,13.12,75.89,13.85Z" fill-rule="evenodd"/><path d="M57.83,37.73c-.17.25-.39.58-.37.53.36-.55.2-.3.16-.28l.27-.4C57.94,37.53,57.74,37.84,57.83,37.73Z" fill-rule="evenodd"/><path d="M72,5.21c-.12.18-.27.16-.38.36-.19-.11,0-.46.15-.82C72.09,4.75,71.84,5.12,72,5.21Z" fill-rule="evenodd"/><path d="M70.06,5.59a1.61,1.61,0,0,0,0-.85C70.49,4,70.68,5.85,70.06,5.59Z" fill-rule="evenodd"/><path d="M64.3,5.4a1.68,1.68,0,0,0-.24.61C63.71,6,64,5.15,64.3,5.4Z" fill-rule="evenodd"/><path d="M57.44,3.48c-.39.93-.42-1,0,0Z" fill-rule="evenodd"/><path d="M51.47,3.16c-.09.51-.28.87-.22,0C51.37,3.27,51.32,3.26,51.47,3.16Z" fill-rule="evenodd"/><path d="M51.2,2.33c0,.5-.15.47-.28.47A2.39,2.39,0,0,0,51,2.32C51.05,2.63,51.07,2.23,51.2,2.33Z" fill-rule="evenodd"/><path d="M50.76,2.47c0,.55-.28.67-.21,0Z" fill-rule="evenodd"/><path d="M50.46,3.43c-.08.3-.26.7-.32.47s.07-.34.07-.64C50.32,3.24,50.42,3.24,50.46,3.43Z" fill-rule="evenodd"/><path d="M49.22,3.37c-.07.18-.13.46-.24.47C49,3.23,49.16,3.1,49.22,3.37Z" fill-rule="evenodd"/><path d="M47.68,6.22c0,.56-.23.67-.28.48C47.43,6.21,47.57,6.3,47.68,6.22Z" fill-rule="evenodd"/><path d="M45.34,44.2a2,2,0,0,0-.08,1c-.15.17-.09-.4-.22-.33a4,4,0,0,0,0-.81C45.22,44.18,45.26,44,45.34,44.2Z" fill-rule="evenodd"/><path d="M44.78,44.66c0,.36-.22.05-.32.15,0-.58.22-.16.22-.8C44.8,43.95,44.7,44.62,44.78,44.66Z" fill-rule="evenodd"/><path d="M43.32,44.44c0,.32-.12.43-.21.48C43.12,44.23,43.23,44.3,43.32,44.44Z" fill-rule="evenodd"/><path d="M44.19,7.39c-.14.88.07.33.14,1s-.21-.69-.22.16c-.05-.06-.06-.29-.12-.33,0-.21.08-.25.1-.48s-.28,0-.22-1C44,6.92,43.94,7.36,44.19,7.39Z" fill-rule="evenodd"/><path d="M44,8.51c-.08.49-.21-.06-.34,0,.05-.33.17-.34.31-.31C43.94,8.38,44,8.48,44,8.51Z" fill-rule="evenodd"/><path d="M43.72,7.53c0,.35-.12.34-.22.32C43.51,7.37,43.67,7.28,43.72,7.53Z" fill-rule="evenodd"/><path d="M43.11,9.62c0,.62-.51,1-.56.31.11-.17.24.46.31-.48C43,9.34,43,9.73,43.11,9.62Z" fill-rule="evenodd"/><path d="M41.55,45.36c-.13-.33-.3.35-.29-.5C41.35,45.06,41.56,44.8,41.55,45.36Z" fill-rule="evenodd"/><path d="M41.5,43.09a1.53,1.53,0,0,1-.25.48C41.31,43.06,41.4,42.89,41.5,43.09Z" fill-rule="evenodd"/><path d="M41,10.53c0,.53-.27.72-.35.48C40.77,10.79,40.86,10.54,41,10.53Z" fill-rule="evenodd"/><path d="M40.85,8.58s0,.3,0,.49c-.17,0-.33.35-.37-.33C40.61,8.86,40.75,8.85,40.85,8.58Z" fill-rule="evenodd"/><path d="M39.49,46c-.09-.2-.25-.14-.25-.65C39.4,45.21,39.48,45.46,39.49,46Z" fill-rule="evenodd"/><path d="M38.92,45.77c-.18.11-.25-.24-.34-.49.06-.67.23.47.24-.32C38.94,44.91,38.89,45.49,38.92,45.77Z" fill-rule="evenodd"/><path d="M39.07,12.75v.48c-.19.14-.19,0-.34.15l-.07-.65a2.69,2.69,0,0,0-.18.48c-.06,0,0-.48-.07-.49.05-.43.32-.36.33.17C38.83,12.48,38.92,12.65,39.07,12.75Z" fill-rule="evenodd"/><path d="M37.62,45.1c0,.31,0,.69-.13.64C37.49,45.32,37.5,44.93,37.62,45.1Z" fill-rule="evenodd"/><path d="M35.37,40.36c0,.4-.15-.22-.27,0,0,.44,0,.4.06,1-.29,0-.63.37-.94,0-.1-.12,0,.76-.08.65s-.13-.61-.23-.81c0-.61.22-.48.27,0a1.94,1.94,0,0,0,.09-.65c.16.46.31,0,.42.65.28,0,.36-.81.45-1.61A2.29,2.29,0,0,0,35.37,40.36Z" fill-rule="evenodd"/><path d="M35,37.12c-.19-.31-.3,0-.47.16,0-.36.08-.23.08-.48-.16-.75-.4.42-.67.16.18-1,.45-.69.68-.8,0,.56.2.24.23.65.06-.07,0-.21,0-.49C35,36.29,35,36.72,35,37.12Z" fill-rule="evenodd"/><path d="M35.27,11.87c-.09.63-.29.69-.42.32C35,12.11,35,11.8,35.27,11.87Z" fill-rule="evenodd"/><path d="M35.12,24c-.05.51,0,.43-.05.81-.15-.11,0-.54-.11-.65C35,23.95,35.06,24,35.12,24Z" fill-rule="evenodd"/><path d="M34.86,24.65c-.18.87-.24-.81-.07-1.13C35,24.28,34.62,24,34.86,24.65Z" fill-rule="evenodd"/><path d="M34.4,46.67c-.13,0-.08-.69-.22-.65,0-.22.09-.3.16-.32C34.32,46.17,34.42,46.19,34.4,46.67Z" fill-rule="evenodd"/><path d="M34.09,32.09c.08.3.24.33.27.81C34.21,32.87,34.1,32.67,34.09,32.09Z" fill-rule="evenodd"/><path d="M34.34,27.72c-.13.72-.16,0-.29.81.08-.57,0-.4,0-1C34.14,27.34,34.27,27.36,34.34,27.72Z" fill-rule="evenodd"/><path d="M34.21,13.48c-.08.55-.23,0-.42.32a1.17,1.17,0,0,1,.13-.65C34.08,13.36,34,13.41,34.21,13.48Z" fill-rule="evenodd"/><path d="M33.76,37.27c-.17.19-.06-.68-.15-.81s.1-.13.16-.16A4.66,4.66,0,0,1,33.76,37.27Z" fill-rule="evenodd"/><path d="M33.74,43.26c-.07.15-.31.45-.35.16C33.4,42.85,33.59,43.22,33.74,43.26Z" fill-rule="evenodd"/><path d="M33.55,25.61c0,.62-.26.68-.33.48C33.32,25.89,33.46,25.83,33.55,25.61Z" fill-rule="evenodd"/><path d="M33.13,46.82c-.08.33-.39.22-.38-.33C32.91,46.45,33,46.64,33.13,46.82Z" fill-rule="evenodd"/><path d="M33.2,24.15a1.84,1.84,0,0,1-.25,1.29c0-.28,0-.31-.08-.33.09-.5.16-1.84.34-1.45,0,.55-.15.27-.17.65S33.22,24.41,33.2,24.15Z" fill-rule="evenodd"/><path d="M33.25,13.47c.1.67-.17.33-.3.48C32.93,13,33.16,14,33.25,13.47Z" fill-rule="evenodd"/><path d="M32.5,43.41c0,.59-.27.29-.31,0S32.44,43,32.5,43.41Z" fill-rule="evenodd"/><path d="M32.54,25.44c-.07.94-.37-.31,0,0Z" fill-rule="evenodd"/><path d="M32.4,41c0,.66-.18,1.09-.28.81C32.19,41.41,32.27,41.07,32.4,41Z" fill-rule="evenodd"/><path d="M32.29,13.79c.11.41-.19.54-.34.48C31.95,13.55,32.26,14,32.29,13.79Z" fill-rule="evenodd"/><path d="M32.08,27.7c-.07.5-.2.23-.28,0C31.84,27.3,32,27.93,32.08,27.7Z" fill-rule="evenodd"/><path d="M31.7,41.95c0,.36-.22.08-.19-.32C31.63,41.49,31.62,41.88,31.7,41.95Z" fill-rule="evenodd"/><path d="M31.54,11.52c-.07.58-.22.61-.38.49C31.2,11.4,31.42,11.32,31.54,11.52Z" fill-rule="evenodd"/><path d="M31.36,27.22l-.08.65c0-.06-.1-.28,0-.32s0-.13-.08-.16C31.21,27.15,31.31,27,31.36,27.22Z" fill-rule="evenodd"/><path d="M31.31,41.79c0,.54-.29.39-.31.32C31.07,41.73,31.17,41.49,31.31,41.79Z" fill-rule="evenodd"/><path d="M31.32,26.08c0,.61-.14.76-.2.49S31.2,26,31.32,26.08Z" fill-rule="evenodd"/><path d="M31.28,39c0,.46-.1.47-.2.49C31,38.89,31.24,38.85,31.28,39Z" fill-rule="evenodd"/><path d="M31.15,42.43c.13.4-.31-.22-.2.65h-.19a6.87,6.87,0,0,1,.08-.81C30.93,42.37,31,42.5,31.15,42.43Z" fill-rule="evenodd"/><path d="M31.11,28.84a2.89,2.89,0,0,0,0,.32H31c.12-.2-.19-1,0-1.13a.57.57,0,0,1,0,.32A1.19,1.19,0,0,0,31.11,28.84Z" fill-rule="evenodd"/><path d="M31,11.68c0,.73-.29.41-.46.49C30.64,11.65,30.84,11.67,31,11.68Z" fill-rule="evenodd"/><path d="M30.92,41.95c0,.36-.22.06-.31.16C30.62,41.36,30.81,41.8,30.92,41.95Z" fill-rule="evenodd"/><path d="M30.57,42.59c-.06.45-.23,0-.23-.32-.06.24-.19.51-.27.16C30.22,41.78,30.43,42,30.57,42.59Z" fill-rule="evenodd"/><path d="M30.36,14.43c0,.33-.09.14-.13.65a1.51,1.51,0,0,1-.08-1c0,.37.29-.15.25.49C30.37,14.62,30.37,14.53,30.36,14.43Z" fill-rule="evenodd"/><path d="M29.67,42.27c0,.57-.23.43-.39.48C29.36,42.38,29.52,42.32,29.67,42.27Z" fill-rule="evenodd"/><path d="M29.61,13.13v.49c-.26,0-.55.53-.79,0C29,13,29.34,13.31,29.61,13.13Z" fill-rule="evenodd"/><path d="M29.6,47.61h-.15a7.08,7.08,0,0,1,.08-.81C29.64,47,29.54,47.13,29.6,47.61Z" fill-rule="evenodd"/><path d="M29.14,27.54a2,2,0,0,1,0-.81c0,.37.17.29.24.49s-.07,0-.12,0S29.27,27.72,29.14,27.54Z" fill-rule="evenodd"/><path d="M29.09,20.42a4.25,4.25,0,0,1,0,.48c-.1,0-.12-.28-.25-.16.22-.47-.09-.31.12-.81C29,19.88,29,20.56,29.09,20.42Z" fill-rule="evenodd"/><path d="M29,38.38c-.12.09-.23.66-.27.16C28.85,38.26,28.95,38.26,29,38.38Z" fill-rule="evenodd"/><path d="M29,28.35c0,.5-.14.2-.08.81-.22.07-.14-.38-.4-.32C28.55,27.87,28.85,29,29,28.35Z" fill-rule="evenodd"/><path d="M28.68,21.55a9.27,9.27,0,0,1,0-1.62c.16.31.07,1.43.21,1.29C28.95,21.55,28.76,21.79,28.68,21.55Z" fill-rule="evenodd"/><path d="M28.36,13.46v.65H28.2C28.26,13.92,28.24,13.43,28.36,13.46Z" fill-rule="evenodd"/><path d="M28.39,43.08c.1.18-.15.21-.19.33,0-.73-.11.25-.08-.48C28.24,42.84,28.26,43.21,28.39,43.08Z" fill-rule="evenodd"/><path d="M28.36,33.21c0,.39-.07.35,0,.81,0-.18-.07-.46-.2-.32C28.15,33.35,28.23,33.2,28.36,33.21Z" fill-rule="evenodd"/><path d="M28,13.95c-.31.65-.59.82-1,.33C27.23,13.88,27.65,13.5,28,13.95Z" fill-rule="evenodd"/><path d="M27.84,17.67a9.36,9.36,0,0,0-.12,1c-.1,0-.16-.25-.29-.16C27.43,17.67,27.68,17.85,27.84,17.67Z" fill-rule="evenodd"/><path d="M27.67,16.05v.32s0,.06,0,.16,0-.2,0-.32-.08.27-.17,0S27.59,16.15,27.67,16.05Z" fill-rule="evenodd"/><path d="M27.68,25.6c-.09.05-.15.26-.28.16,0-.43.18-.34.2-.81A1.88,1.88,0,0,1,27.68,25.6Z" fill-rule="evenodd"/><path d="M27.46,23.34V23c.11,0,.08-.27.16,0v.32C27.54,23.61,27.57,23.32,27.46,23.34Z" fill-rule="evenodd"/><path d="M27,20.1c0,.23-.14.31-.24.33C26.81,19.77,26.9,20.1,27,20.1Z" fill-rule="evenodd"/><path d="M27.07,26.42c0,.14,0,.15,0,.16s-.07-.15-.12-.16a2.44,2.44,0,0,0,0-1C27.15,25.27,27,26.41,27.07,26.42Z" fill-rule="evenodd"/><path d="M27.16,37.91a4.55,4.55,0,0,1,0,.49c-.17-.44-.2.26-.39.16a6.91,6.91,0,0,1,.07-.81C27,38,27,37.92,27.16,37.91Z" fill-rule="evenodd"/><path d="M27.23,48.11c0,.39-.18-.09-.11.49,0-.17-.14,0-.12-.49C27.12,48.19,27.15,47.75,27.23,48.11Z" fill-rule="evenodd"/><path d="M26.91,37.1c0,.41,0,.2-.08.16s0,.2,0,.32-.13-.13-.12-.48S26.79,37.18,26.91,37.1Z" fill-rule="evenodd"/><path d="M26.72,37.91c-.05.21,0,.76-.07,1-.16,0,0-.56-.12-.48C26.51,37.89,26.61,37.88,26.72,37.91Z" fill-rule="evenodd"/><path d="M26.47,11.53c0,.54-.11.62-.25.65C26.28,11.89,26.36,11.18,26.47,11.53Z" fill-rule="evenodd"/><path d="M26.64,36.78c0,.32-.11.21-.07.65-.1.05,0-.91-.12-.65C26.45,36.4,26.61,36.68,26.64,36.78Z" fill-rule="evenodd"/><path d="M26.54,43.42c-.14-.21-.14,0-.27-.16C26.34,43.09,26.56,42.68,26.54,43.42Z" fill-rule="evenodd"/><path d="M26.46,38.72c0,.38-.17.09-.2,0s0-.13.08-.16a1.27,1.27,0,0,1-.08-.48C26.42,37.68,26.34,38.62,26.46,38.72Z" fill-rule="evenodd"/><path d="M26.31,48.27c-.06.34-.27.06-.34.33C26,47.81,26.14,48.26,26.31,48.27Z" fill-rule="evenodd"/><path d="M25.95,14.61c0,.29,0,.33,0,.16,0,0,0,.2,0,.32s-.15-.57-.09-.81C25.86,14.28,25.84,14.73,25.95,14.61Z" fill-rule="evenodd"/><path d="M26.18,38.4c0,.22-.08.3-.15.33,0-.19,0-.29,0-.32C26,38,26.15,38.31,26.18,38.4Z" fill-rule="evenodd"/><path d="M26.21,41.8c0,.49-.08-.16-.16,0v-.32c0-.09.06-.17.12-.16C26.17,41.54,26.16,41.77,26.21,41.8Z" fill-rule="evenodd"/><path d="M26.22,42.77c0,.59-.14.49-.23.65C25.94,42.7,26.15,43,26.22,42.77Z" fill-rule="evenodd"/><path d="M26.16,40.34a3.94,3.94,0,0,0,0,.81c-.25-.65-.19,1-.38.49a10.35,10.35,0,0,0,.06-1.3c0-.24-.1-.35-.2-.32C25.75,39.59,26,40.19,26.16,40.34Z" fill-rule="evenodd"/><path d="M25.91,23c0,.59-.21.3-.24.16C25.67,22.83,25.84,23.12,25.91,23Z" fill-rule="evenodd"/><path d="M26,37.59h-.16c0-.5.1-.31.07-.81A4.23,4.23,0,0,1,26,37.59Z" fill-rule="evenodd"/><path d="M25.81,48.12a2.67,2.67,0,0,0,0,.49c-.16-.68-.46.15-.58-.48C25.4,48,25.59,47.68,25.81,48.12Z" fill-rule="evenodd"/><path d="M24.92,35.34a2.61,2.61,0,0,0,0,.49c-.13,0-.32.13-.4-.16,0-.62.19-.19.15-.81C24.75,35.32,24.79,35.17,24.92,35.34Z" fill-rule="evenodd"/><path d="M24.64,16.24c-.16,1-.46-.08-.65.65v-.65C24.29,16.55,24.34,16,24.64,16.24Z" fill-rule="evenodd"/><path d="M24.66,17.7c-.09.42-.38.72-.45.33C24.23,17.44,24.5,17.8,24.66,17.7Z" fill-rule="evenodd"/><path d="M24.67,34c-.11.49-.22.14-.43.33v-.81A1.93,1.93,0,0,1,24.67,34Z" fill-rule="evenodd"/><path d="M24.24,14.63c-.07.21-.22.42-.29.17S24.16,14.33,24.24,14.63Z" fill-rule="evenodd"/><path d="M24.16,34.87c-.06.81.13.56.21.81-.1.21-.13.74-.31.65,0-.61-.11-.31-.09-.81C24.15,35.73,24,34.74,24.16,34.87Z" fill-rule="evenodd"/><path d="M24.2,29.2c.08.13-.25.43-.28.17C23.95,28.75,24.08,29.24,24.2,29.2Z" fill-rule="evenodd"/><path d="M24,18c0,.81-.32-.42-.32.49,0,0,0-.16-.09-.16s0-.15,0-.16C23.69,18,23.92,17.69,24,18Z" fill-rule="evenodd"/><path d="M24.31,44.58c-.1.86-.34.75-.61.66C23.89,44.34,24.15,45.12,24.31,44.58Z" fill-rule="evenodd"/><path d="M23.81,16.41v.49c-.37,0-.63.36-.87.17C23.25,16.11,23.46,16.71,23.81,16.41Z" fill-rule="evenodd"/><path d="M24.12,37.29c0,.63-.15-.08-.27.17C23.87,36.84,24,37.34,24.12,37.29Z" fill-rule="evenodd"/><path d="M23.7,14.64c0,.64-.23.19-.33.33C23.4,14.54,23.6,14.3,23.7,14.64Z" fill-rule="evenodd"/><path d="M23.16,14.64c0,.65-.29,1-.25,0Z" fill-rule="evenodd"/><path d="M23.66,45.07c0,.44-.18.39-.23.16C23.48,44.83,23.56,44.95,23.66,45.07Z" fill-rule="evenodd"/><path d="M23.16,24.36c0,.37-.25.06-.36.17C22.82,24.13,23.07,24.08,23.16,24.36Z" fill-rule="evenodd"/><path d="M23.42,40.06a2.86,2.86,0,0,0,0,1C23.33,40,23,41,23,39.9,23.14,40.22,23.23,40.16,23.42,40.06Z" fill-rule="evenodd"/><path d="M22.81,14c0,.48-.18.55-.24.33C22.57,13.91,22.7,14,22.81,14Z" fill-rule="evenodd"/><path d="M22.7,16.92c0,.71-.36.56-.42-.15C22.46,16.63,22.53,17,22.7,16.92Z" fill-rule="evenodd"/><path d="M22.66,19.35c-.06.25-.19.81-.21,0C22.59,19.44,22.58,19,22.66,19.35Z" fill-rule="evenodd"/><path d="M23,39.42c0,.69-.32.16-.46.33C22.6,38.79,22.83,40,23,39.42Z" fill-rule="evenodd"/><path d="M22.47,13.2c0,.54-.21.55-.36.66v-.65C22.26,13.34,22.39,13,22.47,13.2Z" fill-rule="evenodd"/><path d="M22.82,37.48v.65c-.12.12-.15-.16-.24-.16C22.61,37.57,22.74,37.6,22.82,37.48Z" fill-rule="evenodd"/><path d="M22.73,41c0-.31-.07-1,.06-.81C22.83,40.61,22.87,41,22.73,41Z" fill-rule="evenodd"/><path d="M22.17,19.84c.11,0,.18.05.17.48-.1-.06-.08.3-.2.17A3.65,3.65,0,0,1,22.17,19.84Z" fill-rule="evenodd"/><path d="M22,13.53c0,.59-.45.62-.58,0,.17,0,.4-.58.55.15C22,13.72,22,13.63,22,13.53Z" fill-rule="evenodd"/><path d="M22.45,42.34c0,.14,0,.15,0,.16s-.12.23-.1.65c-.18-.37-.23-.24-.43-.15,0-.39-.08-.35-.06-.81C22.08,42.72,22.15,42.48,22.45,42.34Z" fill-rule="evenodd"/><path d="M22.46,45.09c0,.61-.18.21-.26.33C22.28,45,22.3,44.94,22.46,45.09Z" fill-rule="evenodd"/><path d="M21.74,14.35c-.06.21-.22.42-.29.17S21.67,14.09,21.74,14.35Z" fill-rule="evenodd"/><path d="M21.64,15.64c-.14.12-.16-.56-.1-.81C21.63,14.86,21.64,15.24,21.64,15.64Z" fill-rule="evenodd"/><path d="M22.08,45.1c-.05.64-.37.2-.42.17C21.69,44.91,22,45,22.08,45.1Z" fill-rule="evenodd"/><path d="M22,44c.13.29-.2.81-.15,0C21.9,43.75,22,44.39,22,44Z" fill-rule="evenodd"/><path d="M21.71,33.29c0,.13-.47,1-.56,0,.33.33.09-1.91.41-1.14C21.51,32.64,21.46,33.42,21.71,33.29Z" fill-rule="evenodd"/><path d="M21.17,24.88c-.26.73-.41-.57-.66-.47.07-1,.29.15.57-.17a4.34,4.34,0,0,1,0,.49C21.11,24.68,21.12,24.87,21.17,24.88Z" fill-rule="evenodd"/><path d="M20.88,21c0-.42,0-.69.11-.65C21.07,20.63,21,21,20.88,21Z" fill-rule="evenodd"/><path d="M21.34,36.21c-.06.51-.29.35-.43,0C21,35.64,21.17,36.24,21.34,36.21Z" fill-rule="evenodd"/><path d="M21.42,39.93c0,.24-.09.35-.19.33C21.19,39.7,21.36,39.68,21.42,39.93Z" fill-rule="evenodd"/><path d="M20.62,14.69c.08.15-.41.32-.37.33C20.13,14.22,20.46,14.75,20.62,14.69Z" fill-rule="evenodd"/><path d="M20.88,33.15c.17.39-.19.84-.16,0C20.8,32.93,20.88,33.56,20.88,33.15Z" fill-rule="evenodd"/><path d="M20.65,25.05c0,.45-.15.16-.15.49a1.91,1.91,0,0,1-.1-.65C20.5,24.87,20.6,24.87,20.65,25.05Z" fill-rule="evenodd"/><path d="M20.54,27.49c0,.44-.07.33-.07.65-.13,0-.3.16-.29-.48C20.34,27.74,20.37,27.36,20.54,27.49Z" fill-rule="evenodd"/><path d="M19.26,24.77c.26.29.65-.61.7.3-.19.3-.38-.47-.52.34.33.2.6-.12.93-.35-.15-.34.07-.52.06-.81-.4-.75-.57.05-1-.14-.09.22,0,.32-.07.49C19.32,24.35,19.27,24.58,19.26,24.77Zm1-.19c.05.6-.21.3-.24.17C20,24.39,20.16,24.67,20.23,24.58Z" fill-rule="evenodd"/><path d="M20.07,27.82c0,.36-.2.07-.28.17C19.83,27.46,20,27.81,20.07,27.82Z" fill-rule="evenodd"/><path d="M20,40.45c.06-.58.18-.05.35-.17C20.28,40.54,20.14,40.63,20,40.45Z" fill-rule="evenodd"/><path d="M20.46,45.3c0,.56-.61.2-.73.18.19-.5.46,0,.64-.67C20.32,45.05,20.33,45.44,20.46,45.3Z" fill-rule="evenodd"/><path d="M20.31,42.23c-.14.71-.47.43-.65.34C19.8,42.08,20,42.21,20.31,42.23Z" fill-rule="evenodd"/><path d="M19.76,26.86h-.2C19.7,26.36,19.66,25.46,19.76,26.86Z" fill-rule="evenodd"/><path d="M19.23,14.08c0,.34.18.28.19.8-.16-.14,0,.71-.24.49,0-.18.08-.11.07-.33l-.14-.48C19.09,14.2,19.23,14.39,19.23,14.08Z" fill-rule="evenodd"/><path d="M19.56,23.62c-.05.39-.24.08-.24.33C19.18,23.41,19.44,23.46,19.56,23.62Z" fill-rule="evenodd"/><path d="M19.67,28c0,.27-.17.18-.23.33C19.35,27.58,19.62,27.81,19.67,28Z" fill-rule="evenodd"/><path d="M19.72,29.93l-.06.65c-.11-.17-.19-.1-.23.33a2.87,2.87,0,0,1-.18-.8C19.44,30.21,19.55,30,19.72,29.93Z" fill-rule="evenodd"/><path d="M19.24,12.94c0,.41-.13.33-.24.33C19.05,13,19.16,12.67,19.24,12.94Z" fill-rule="evenodd"/><path d="M19.46,26.38c-.09.34.1.82-.1.81A1.17,1.17,0,0,1,19.46,26.38Z" fill-rule="evenodd"/><path d="M19.55,32.53c0,.49-.18-.13-.28,0C19.28,31.92,19.47,32.37,19.55,32.53Z" fill-rule="evenodd"/><path d="M19.22,21.85c0,.56-.17.68-.23.49s.06-.41.08-.16c0,0,0-.3,0-.49C19.13,21.78,19.17,21.86,19.22,21.85Z" fill-rule="evenodd"/><path d="M19,16.84c-.14.29-.42.84-.58.18C18.58,16.52,18.79,16.53,19,16.84Z" fill-rule="evenodd"/><path d="M19.58,39.66c-.11.57-.39.14-.58.18C19.06,39.44,19.41,39.65,19.58,39.66Z" fill-rule="evenodd"/><path d="M19.08,37.24c.13.09.11-.31.2,0a2.57,2.57,0,0,0,0,.49c0-.11-.11-.25-.12,0,0,0,0-.06,0-.16Z" fill-rule="evenodd"/><path d="M19,36.43c0-.14,0-.15,0-.16,0-.23-.12-.05-.13-.32-.05-.59.17-.14.14-.65.11-.08,0,.88.1.81C19.15,36.32,19.09,36.41,19,36.43Z" fill-rule="evenodd"/><path d="M18.43,13.94c0,.6-.3.4-.25-.16C18.27,13.78,18.31,14.06,18.43,13.94Z" fill-rule="evenodd"/><path d="M18.39,16.86a4.42,4.42,0,0,1,0,.49c-.08-.07-.18-.05-.18-.48Z" fill-rule="evenodd"/><path d="M18.72,37.09a.69.69,0,0,0,.07-.33c.11.14-.07.66.13.48,0,.32-.1.21-.06.65-.09.22-.14-.64-.16-.16-.12-.13,0-.52,0-.81C18.71,36.9,18.71,37,18.72,37.09Z" fill-rule="evenodd"/><path d="M18.16,13.14c0,.52-.21.18-.29.17C17.88,12.94,18.07,13.24,18.16,13.14Z" fill-rule="evenodd"/><path d="M18.14,16.86c.07.6-.23.65-.28.33C17.81,16.58,18,17,18.14,16.86Z" fill-rule="evenodd"/><path d="M18.54,30.78v.49c-.1-.14-.28,0-.29-.48C18.34,31.1,18.45,30.86,18.54,30.78Z" fill-rule="evenodd"/><path d="M18.06,21.24c0,.53,0,1-.08,1.46C17.95,22.57,17.89,21.12,18.06,21.24Z" fill-rule="evenodd"/><path d="M17.72,16.87c0,.29,0,.34,0,.65-.25-.13-.47,0-.58-.14C17.21,16.61,17.44,17.07,17.72,16.87Z" fill-rule="evenodd"/><path d="M18.51,46c0,.32-.26.3-.2-.32C18.43,45.56,18.4,46.12,18.51,46Z" fill-rule="evenodd"/><path d="M17.29,12c0,.72-.24.13-.22-.32C17.19,11.59,17.16,12.15,17.29,12Z" fill-rule="evenodd"/><path d="M16.78,11.88l0,.49c-.3-.35-.46.42-.72-.14C16.31,11.51,16.55,12.32,16.78,11.88Z" fill-rule="evenodd"/><path d="M16.94,17.06c0,.46-.13.21-.32.33C16.58,16.75,16.84,17.2,16.94,17.06Z" fill-rule="evenodd"/><path d="M17.31,36.16c-.06.8-.25-.4-.27.33a.55.55,0,0,1,.18-.65C17.24,36,17.26,36.12,17.31,36.16Z" fill-rule="evenodd"/><path d="M17.22,44.1c-.15.22-.59.14-.69.19C16.57,43.7,17.07,43.94,17.22,44.1Z" fill-rule="evenodd"/><path d="M16.73,30.51c-.12.44-.32-.36-.46-.47C16.44,29.33,16.54,30.29,16.73,30.51Z" fill-rule="evenodd"/><path d="M17,39.89c0,.53.05,1.14-.08,1.14C17,40.54,16.92,39.93,17,39.89Z" fill-rule="evenodd"/><path d="M16,12.23c0,.35-.22.5-.21-.15C15.92,12,16,12.1,16,12.23Z" fill-rule="evenodd"/><path d="M16,30.37c-.08.29-.17.29-.27.17.05-.19.08-.47.18-.49C15.89,30.2,15.91,30.34,16,30.37Z" fill-rule="evenodd"/><path d="M15.92,34.75c0,.42,0,.53-.14.49C15.75,34.81,15.81,34.71,15.92,34.75Z" fill-rule="evenodd"/><path d="M15.87,36.69a3,3,0,0,1-.2-1.13C15.83,35.49,15.8,36.32,15.87,36.69Z" fill-rule="evenodd"/><path d="M15.1,16.64c.05.64-.14.47-.27.5C14.85,16.72,14.94,16.57,15.1,16.64Z" fill-rule="evenodd"/><path d="M15.71,33.46c0,.35-.22.49-.24-.15C15.56,33.28,15.66,33.28,15.71,33.46Z" fill-rule="evenodd"/><path d="M15.61,31.68c0,.37-.28.07-.39.18C15.31,31.4,15.52,31.55,15.61,31.68Z" fill-rule="evenodd"/><path d="M15.76,40.1a4.57,4.57,0,0,1,0,.49c-.22-.13-.32-.27-.56-.3C15.26,39.64,15.58,40.07,15.76,40.1Z" fill-rule="evenodd"/><path d="M15.09,25.22c0,.61-.32.22-.47.34C14.73,25.17,14.92,25.1,15.09,25.22Z" fill-rule="evenodd"/><path d="M15.31,33.48c-.16.4-.36.11-.5.34C14.81,32.76,15.18,33.51,15.31,33.48Z" fill-rule="evenodd"/><path d="M14.49,16.82c-.1.25-.16.63-.32.34C14.18,16.6,14.36,16.6,14.49,16.82Z" fill-rule="evenodd"/><path d="M15.06,38.18c0,.7-.11.25-.22.49C14.79,38.1,14.94,38.18,15.06,38.18Z" fill-rule="evenodd"/><path d="M14.7,31.07c-.19,0-.09-.46-.12-1A1.6,1.6,0,0,1,14.7,31.07Z" fill-rule="evenodd"/><path d="M15.27,45.79c0,.51-.4.59-.36-.31C15,45.81,15.12,45.84,15.27,45.79Z" fill-rule="evenodd"/><path d="M14.76,33.5c-.18.43-.42.39-.63.18C14.38,33.36,14.57,33.37,14.76,33.5Z" fill-rule="evenodd"/><path d="M15,40c0,.34-.14.45-.16.82-.1,0-.1-.51-.21-.48C14.67,40,14.8,39.95,15,40Z" fill-rule="evenodd"/><path d="M14.55,30.1c.06.59-.17.14-.13.65C13.8,30.17,14.19,30.38,14.55,30.1Z" fill-rule="evenodd"/><path d="M14.06,25.91c-.11-.53-.15-.24-.3-.47,0-.3.21-.13.27-.33A2.7,2.7,0,0,1,14.06,25.91Z" fill-rule="evenodd"/><path d="M14.52,37.55c0,.74-.22.35-.3.34,0-.21.06-.26.06-.49S14.4,37.68,14.52,37.55Z" fill-rule="evenodd"/><path d="M14.28,36.43c.15.57-.21.15-.28,0C14,35.68,14.24,36.74,14.28,36.43Z" fill-rule="evenodd"/><path d="M14,30.29c.06.58-.15.23-.23.33C13.76,30.09,13.8,30.21,14,30.29Z" fill-rule="evenodd"/><path d="M13.26,14.11c-.14.05-.57.62-.68-.29C12.81,14.28,12.94,13.63,13.26,14.11Z" fill-rule="evenodd"/><path d="M13.43,19.45c0,.36-.17.08-.24.17C13.18,19.18,13.37,19.23,13.43,19.45Z" fill-rule="evenodd"/><path d="M12.92,17c-.12.55-.46.67-.58,0C12.47,17,12.7,16.81,12.92,17Z" fill-rule="evenodd"/><path d="M13.4,28.53c0,.42,0,.7-.09.65C13.22,28.91,13.29,28.54,13.4,28.53Z" fill-rule="evenodd"/><path d="M13,19.47c0,.37-.42.76-.41,0Z" fill-rule="evenodd"/><path d="M12.91,25.63c0,.79-.36,0-.47.34C12.43,25.29,12.77,25.81,12.91,25.63Z" fill-rule="evenodd"/><path d="M13.64,43.75c0,.75-.29,0-.3.34C13.23,43.26,13.56,44,13.64,43.75Z" fill-rule="evenodd"/><path d="M12.22,12.21c.06.58-.16.23-.24.33C12,12.14,12.11,12.22,12.22,12.21Z" fill-rule="evenodd"/><path d="M13.07,32.27l0,.48h-.24c.11-.59-.23,0-.19-.8C12.91,31.63,12.93,32.63,13.07,32.27Z" fill-rule="evenodd"/><path d="M12.68,26.78c.05.64-.21.2-.31.34C12.43,26.86,12.57,26.89,12.68,26.78Z" fill-rule="evenodd"/><path d="M13.24,46c0-.41.13-.39.19-.17C13.44,46.28,13.29,46.25,13.24,46Z" fill-rule="evenodd"/><path d="M11.63,14.19c-.1.26-.29.57-.34-.15C11.4,14.13,11.49,14.26,11.63,14.19Z" fill-rule="evenodd"/><path d="M12.72,39.57c0,.65-.16,0-.31.18C12.41,39.18,12.63,39.48,12.72,39.57Z" fill-rule="evenodd"/><path d="M12.35,32.14c0,.21-.4.43-.41-.14C12.15,32.11,12.19,31.9,12.35,32.14Z" fill-rule="evenodd"/><path d="M12.9,44.59c0,.46,0,.88-.08.82A1.22,1.22,0,0,1,12.9,44.59Z" fill-rule="evenodd"/><path d="M11.63,19.69c-.08.59-.25.11-.4.34C11.27,19.37,11.47,19.73,11.63,19.69Z" fill-rule="evenodd"/><path d="M11,12.27c.07.54-.12.26-.19.33C10.8,12.18,10.83,12.09,11,12.27Z" fill-rule="evenodd"/><path d="M11.25,18.58c0,.4-.13.29-.24.17C11,18.31,11.19,18.36,11.25,18.58Z" fill-rule="evenodd"/><path d="M10.9,14.54a.42.42,0,0,0-.46,0c0-.9.27-.11.39-.66A3.05,3.05,0,0,1,10.9,14.54Z" fill-rule="evenodd"/><path d="M11.13,19.55l0,.48c-.21.33-.27.35-.49.18C10.69,19.35,10.87,19.25,11.13,19.55Z" fill-rule="evenodd"/><path d="M10.72,12.44c-.24.57-.6.16-.87.2A.73.73,0,0,1,10.72,12.44Z" fill-rule="evenodd"/><path d="M12.17,43.81c-.06.43-.07,1-.22,1.14,0-.36.06-.71.06-1.14Z" fill-rule="evenodd"/><path d="M10.66,13.09c-.07.2-.25.41-.33.18S10.58,12.86,10.66,13.09Z" fill-rule="evenodd"/><path d="M11.43,31.37c0,.27-.23.28-.24,0C11.16,30.65,11.38,31.32,11.43,31.37Z" fill-rule="evenodd"/><path d="M11.66,38.65c-.13.85-.66.3-.93.37C10.95,37.82,11.17,39.11,11.66,38.65Z" fill-rule="evenodd"/><path d="M10.62,20.22c-.09.06-.16,0-.21-.15,0-.31.13-.12.1-.49C10.58,19.61,10.62,19.85,10.62,20.22Z" fill-rule="evenodd"/><path d="M11.26,33.64c0,.39,0,.79-.07,1.14-.17,0,0-.4-.08-.81A1.07,1.07,0,0,1,9.81,34C10.17,33.28,10.77,33.94,11.26,33.64Z" fill-rule="evenodd"/><path d="M10,11l0,.48c-.14-.13-.12.26-.14.49C9.8,11.75,9.89,11,10,11Z" fill-rule="evenodd"/><path d="M10.36,19.91c0,.47-.05.19-.16.17s0,.38-.11.33a6.52,6.52,0,0,1,0-.81C10.24,19.57,10.28,19.85,10.36,19.91Z" fill-rule="evenodd"/><path d="M10.41,21.69c-.08.47-.35.31-.56.35C9.93,21.4,10.22,21.65,10.41,21.69Z" fill-rule="evenodd"/><path d="M11.5,45.14l0,.65c-.1.05-.12-.33-.15-.64Z" fill-rule="evenodd"/><path d="M9.46,12.5c0,.25-.15.35-.28.34C9.12,12.23,9.37,12.63,9.46,12.5Z" fill-rule="evenodd"/><path d="M10.81,43.72c-.19.32-.28.26-.52.51a2.4,2.4,0,0,1-.08-.81q.14-.15.14.48C10.43,43.07,10.67,43.65,10.81,43.72Z" fill-rule="evenodd"/><path d="M9.61,20.6H9.45C9.39,20,9.61,20,9.61,20.6Z" fill-rule="evenodd"/><path d="M10.75,46.48c0,.19-.13.19-.22.17,0-.72.11.07.14-.33-.27-.68-.12-.07,0-1A5.12,5.12,0,0,1,10.75,46.48Z" fill-rule="evenodd"/><path d="M10.35,39.36c-.08.13-.22-.13-.44-.14-.08-1,.13-.28.24-.66A4.23,4.23,0,0,0,10.35,39.36Z" fill-rule="evenodd"/><path d="M9.32,20.45c-.08.15-.3.17-.53.19.09-.59.36.12.42-.67C9.36,20,9.23,20.41,9.32,20.45Z" fill-rule="evenodd"/><path d="M9.26,21.75c-.08.57-.41.47-.61,0C8.87,22.08,9,21.67,9.26,21.75Z" fill-rule="evenodd"/><path d="M10.1,41.32c0,.22-.09.14-.15.17,0-.28,0-.87.08-.82C10,40.93,10,41.29,10.1,41.32Z" fill-rule="evenodd"/><path d="M8.36,10.78c-.05.66.07,1.15-.1,1.3.05,0,0-1,0-.48-.16-.27.11-.27,0-.81Z" fill-rule="evenodd"/><path d="M9.56,33.89c0,.74-.16.17-.19.17C9,34.06,9.08,33.87,9.56,33.89Z" fill-rule="evenodd"/><path d="M9.95,43.6c0,.53-.25.15-.14,1-.13-.33-.08-1-.27-.64C9.57,43,9.74,44,9.95,43.6Z" fill-rule="evenodd"/><path d="M9.33,36.34a4,4,0,0,1,0-.81C9.4,35.58,9.52,36.38,9.33,36.34Z" fill-rule="evenodd"/><path d="M9.94,46.52c0,.47-.18.32-.3.18C9.66,46.33,9.86,46.62,9.94,46.52Z" fill-rule="evenodd"/><path d="M9.08,35.38c.06.62-.16.63-.16,0Z" fill-rule="evenodd"/><path d="M9.12,38.29l-.05-1C9.13,37.35,9.28,38.37,9.12,38.29Z" fill-rule="evenodd"/><path d="M7.64,13.08c0,.16.06.12.09.16a3.08,3.08,0,0,0,0,.65c-.34.24-.39-.18-.75,0l-.05-1c0-.14.1-.22.2-.17,0,.3-.22.12-.12.82C7.33,12.81,7.47,14.23,7.64,13.08Z" fill-rule="evenodd"/><path d="M9.43,46.22c-.06.34-.31,0-.27.66a1.15,1.15,0,0,1,.14-1A.94.94,0,0,0,9.43,46.22Z" fill-rule="evenodd"/><path d="M7.62,17.3c-.06.23-.27.32-.32.18l0-.32c0-.09.06-.17.12-.17C7.41,17.66,7.53,16.81,7.62,17.3Z" fill-rule="evenodd"/><path d="M7.54,18.76c0,.36-.17.08-.24.18C7.27,18.49,7.47,18.54,7.54,18.76Z" fill-rule="evenodd"/><path d="M7.25,15.86c-.06.22-.22.48-.32.18C7,15.84,7.17,15.62,7.25,15.86Z" fill-rule="evenodd"/><path d="M7.59,22.65l0,.49c-.25-.25-.55.08-.74-.12C7,22.65,7.31,22.65,7.59,22.65Z" fill-rule="evenodd"/><path d="M6.94,16.2c0,.49-.19-.12-.29,0C6.59,15.37,6.87,15.89,6.94,16.2Z" fill-rule="evenodd"/><path d="M7.77,33.83c.09.49-.23.51-.2,0Z" fill-rule="evenodd"/><path d="M7.78,37.56c0,.58-.1,0-.23.18C7.54,37.2,7.69,37.49,7.78,37.56Z" fill-rule="evenodd"/><path d="M6.33,12.83c0,.28-.11.36-.23.34a3.08,3.08,0,0,0,0-.65C6.23,12.37,6.25,12.77,6.33,12.83Z" fill-rule="evenodd"/><path d="M7.61,35.3l.07,1.29C7.53,36.8,7.5,35.37,7.61,35.3Z" fill-rule="evenodd"/><path d="M6.24,13.48c.06.72-.28.2-.19,1,0,0,0-.2-.06-.32S5.9,14,5.85,14C6,13.67,6.09,13.27,6.24,13.48Z" fill-rule="evenodd"/><path d="M6.92,37.12c-.08-.19-.08-.84-.15-1.13C6.91,35.93,7,36.83,6.92,37.12Z" fill-rule="evenodd"/><path d="M6.08,30.36c.07.59-.19.31-.23.18C5.91,30.21,6,30.25,6.08,30.36Z" fill-rule="evenodd"/><path d="M4.52,12.78c.09.51-.19.79-.2.17.06-.05.08.15.14.15C4.43,12.83,4.47,12.8,4.52,12.78Z" fill-rule="evenodd"/><path d="M4.54,13.75c0,.16-.73.91-.84-.11A1.23,1.23,0,0,0,4.54,13.75Z" fill-rule="evenodd"/><path d="M4.61,17c.07.61-.15.58-.23.34C4.36,16.91,4.5,17,4.61,17Z" fill-rule="evenodd"/><path d="M5.65,37.68c-.12.52-.1.75-.25-.15C5.5,37.52,5.54,37.8,5.65,37.68Z" fill-rule="evenodd"/><path d="M4.24,17l0,.48c-.1-.09-.29.22-.34-.14C4,16.47,4.13,17.35,4.24,17Z" fill-rule="evenodd"/><path d="M3.9,15.57c0,.89-.49.32-.66.69C3.31,15.59,3.67,15.79,3.9,15.57Z" fill-rule="evenodd"/><path d="M3.56,11.54c0,.36-.17.08-.24.18C3.29,10.8,3.41,11.66,3.56,11.54Z" fill-rule="evenodd"/><path d="M2.57,13.06c-.1,1.26-.49.15-.8.54C1.92,12.81,2.33,13.72,2.57,13.06Z" fill-rule="evenodd"/><path d="M4.32,40.2c-.12.08-.15-.34-.17-.8A2.08,2.08,0,0,1,4.32,40.2Z" fill-rule="evenodd"/><path d="M4.5,44.73c-.06.15-.08.52-.18.18-.05-.55.15-.27.05-1A2.37,2.37,0,0,1,4.5,44.73Z" fill-rule="evenodd"/><path d="M2.41,14.53c0,.78-.28-.12-.32-.47H2.3a2.46,2.46,0,0,0,0,.49Z" fill-rule="evenodd"/><path d="M3.78,38.62c-.13-.24,0-.71-.08-1.13C3.84,37.54,3.78,38.25,3.78,38.62Z" fill-rule="evenodd"/><path d="M3.47,42c0,.38.06,1-.09,1C3.43,42.76,3.32,42,3.47,42Z" fill-rule="evenodd"/><path d="M3.44,45a2.63,2.63,0,0,0,0,.49c-.13-.32-.18-.28-.32-.14l0-.65C3.15,45,3.28,45,3.44,45Z" fill-rule="evenodd"/><path d="M65.56,28s-.07-.06,0-.18c0,0,.12-.07.17-.07-.11.26.13.25.22.37a19,19,0,0,0,3-3.79c.46-.07.33-.45.91-.71-.3-.08-.69.12-1,0,.46-.46,1-1.31,1.31-1a1.25,1.25,0,0,0,.45-.88c.85-.45,1.82-1.94,2.67-2.85a.77.77,0,0,1,0-.4c.39-.28.45-.67,1-1-.16-.15-.32-.28-.51-.19.3-.18.27-.5.64-.53.1-.58.59-1,.55-1.61-.19.24-.32-.09-.52.22s.3,0,.12.29-.36-.11-.61.36a.39.39,0,0,1,.09.47c-.4-.12-.51.32-.66.72-.86.18-.47-.65-.6-1.24.42-.35.48-.3.39-.71.76-.18.94-1.85,1.73-2.35,0-.2-.21-.32,0-.62.5-.41,1.71-2.74,1.26-3.62-.67.74-1.08,1.27-1,2-.84.63-.57,1.33-1.32,2.23-.37-.21-.29-.65-.38-1,.14-.29.28-.21.42-.31-.14-.13-.28,0-.42-.07.68-1.05.48-1.66,1.14-2.72-.6-.56.78-1.57.15-2.14-.24,1.1-1.47,3-1.54,4-.22,0-.43.63-.65.57-.93-1,1.36-4.06.73-5.66a1.77,1.77,0,0,0-.45,1.59,2.15,2.15,0,0,0-.82,1.4c-1.43,1.3-.14-1.94-.27-2.81-.09.16-.22.1-.34,0-.07.55-.25.76-.57.81.46.38-.6.87-.4,1.6.11.15.58,0,.44.38-.27.54-.48.28-.64.07-.29.22-.36.6-.49.66-.19-.34,0-1-.21-1.33.26-.31.21,0,.38-.19-.32-.46,0-.83.29-1.64C69.92,6,70,5.47,69.7,6c.36.36-.57,1-.66,1.65.09.38.44,0,.42.34-.34.45-.55-.14-.92,0a1.52,1.52,0,0,0,.08-1.18c.56-.84.11-1.17.45-2.25-.1-.23-.35-.35-.5-.53-.34.38-.11.94-.09,1.35-.32.15-.34.91-.3,1.1-.2-.1-.39-.18-.52.15,0,.34.18,0,.41.15-.27.44,0,.42-.06.67-.52-.33-.1.63-.44.7-.21-1.31-.06-2.92-.36-4.22a18.56,18.56,0,0,1-.61,2.19c.09.12.47,0,.35.28-.18,0-.29.37-.46.36.24-.52-.17-.35-.26-.25.17-.93-.32-.41-.47-.15-.15-.2,0-.69-.4-.62-.11.26,0,.43-.13.47-.08-.77-.19-.08-.71-.36,0-.17,0-.41-.11-.2.17.12-.05.71.09.86-.27-.43-1.45,0-.84-1.06-.16-.28-.27.07-.39-.26-.2.46.05.86-.15,1-.13,0,.07-.53-.1-.52-.19.58-.2,0-.5.22a2.15,2.15,0,0,1,.1-.81c-.61.13-1-1-1.43-.46-.08.27,0,.43-.09.48s-.21-.3-.44-.25c.06-.22.16-.25.22-.45-.58.1-1.47.21-1.7-.44-.31.58-.56.09-.69-.26-.29.88-.7.31-.92.37a.76.76,0,0,1,.14.34c-.06,0-.09.12-.14.15-.07-.57-.06,0-.18,0-.5,0-1.22-.71-1.62.31a2.27,2.27,0,0,1,.12-.64c-.4.32-.56,0-.94-.25,0,.49-.22.26-.27.63a3,3,0,0,1-.22-.67c-.15.18.06.62-.12.8-.06-.83-.36.09-.51-.36.09-.41.25.17.28-.14s-.55-.41-.48.13c0-.15,0,.48.09.82-.15-.1-.11-.69-.31-.67s-.16.32-.23.47c.07-.38-.22-.4-.2,0s.17-.4.14.17c-.05.4-.06,1-.21,1,0-.39.11-.35.1-.8-.08-.31-.13,0-.25,0a1.09,1.09,0,0,0-.1-.82c0,.28,0,1-.11,1,0-1-.4-.48-.64-.52a8.16,8.16,0,0,1-.4,1.27c-.05-.51.21-.65.09-.81s-.14,0-.19,0c0-.7.14-.2.17-.48-.07,0,0-.39,0-.65-.26.14-.42,0-.58.78.1.21.23-.35.21,0-.11.13-.43.52-.43,0,.12-.2.13.09.18-.15-.09,0,0-.6-.1-.65,0,.6-.44.54-.26,1-.28-.31-.6-.23-.77.13,0,.5.11,0,.15.33s-.19.15-.31.15c.1-.73-.13-1.09-.19-.5.12-.09.19.68.09.81-.09-.54-.31-.75-.53-.51a3.91,3.91,0,0,0,0-.81c0,.53-.15.46-.21.8,0-.52,0-.34.07-.64-.16.28-.26-.08-.42-.18a1.17,1.17,0,0,0,.06.49c-.15.29-.15.31-.36.47,0-.12.14-.79,0-.65,0,.81-.16.68-.18,1.29.14-.13.09-.13.16.17,0-.37,0-.61.11-.64,0,.32.3,0,.28.5-.22.12-.16,1.19-.18,1.29,0-.54-.09.18-.13.15.06-.33,0-.77-.07-.33.06,0,0,.39,0,.65-.09-.42-.21,0-.27.31,0-.4,0-.78,0-.81-.06.28-.15.46-.2.8a2.41,2.41,0,0,0,0-.49,1.89,1.89,0,0,0,.3-1c-.19-.26-.32.15-.38,1-.09-.41-.1.34-.26.15a4.14,4.14,0,0,1,0-.49c.14-.09.12.31.21,0,.09-.63-.1-.34-.1-.65,0,0,.07-.28,0-.32,0,.68-.26.49-.37.8A1.79,1.79,0,0,1,47,8c-.09,0-.12-.89-.19-.49.09.31-.07,0-.13,0a7.43,7.43,0,0,1,0,2.1c0-.53-.21-.33-.27-.66V8.6c.14-.21.22.49.3,0,0,0-.08,0-.08-.17s.08,0,.09-.16c-.36-.18-.54.21-.71-.35,0,.69-.25-.26-.35.31,0,.17.15.06.11.49-.05.19-.2.05-.25-.17.1-.24,0-.46.11-.64-.1-.06-.16,0-.22.15a6.64,6.64,0,0,0,.16,1.46c-.13.11-.11-.28-.25-.17.15-.5-.28-.51-.09-1.14,0-.12-.17-.64-.25-.17.11-.25.1.55,0,.49,0-.32-.11-.21-.06-.65.06,0,0-.28.1-.32,0,.27.16,0,.18-.15-.2-.08-.15-.36-.06-.81-.19.15-.21,1.07-.35,1.44,0-.39-.06-.36,0-.81-.19-.12-.22.53-.36.64,0-.38-.17-.84-.24-.49,0,.92.41.31.48.83-.19.18,0,.72-.18,1.61-.22.08,0-1.28-.23-.65.1.12,0,.48,0,.16,0,1,.29,1.82,0,2.43,0-.25,0-1.43-.17-1.14.1.41,0,.23-.08,0a2.18,2.18,0,0,1-.06.65c-.09,0-.1-.37-.1-.65-.11.53-.17-.28-.24-.33a7.83,7.83,0,0,0,.17,1.14c-.05,0,0,.18,0,.32-.22.12-.31-.18-.45-.34-.11,1.75-.41-.79-.46,0,0,.3.07-.09.08.16s0,.5-.1.65c0-.33-.15-.16-.15-.49a4.72,4.72,0,0,0,0-1.13c0,.13,0,.19-.09.16-.09.51.14.67,0,.81s-.13-.79-.2-.33c.14.39-.23-.23-.09.16a.92.92,0,0,1,.12.33c-.08,0,0,.27-.05.32-.08-.38-.17,0-.29,0-.16-.45-.14-1.85-.35-1.14.08,0,.09.16.07.49h-.25c-.08.63.18.06.15.49-.08,0-.07.44-.18.32s0-.56-.07-.49c-.14.32.12.81,0,1,0-.73-.25.17-.24-.49a.66.66,0,0,1,.09-.32c0,.13,0,.32,0,.33a1.28,1.28,0,0,0-.19-.82c-.1.11-.08.73-.19.81,0-.24,0-.72-.15-.65a4.35,4.35,0,0,1-.24,1.13,5.75,5.75,0,0,0-.63.15c0-.62,0-.06-.12-.17,0-.44-.08-.33-.07-.65-.18.15-.24,0-.39.48,0,.28.2,0,.2.33h-.17c-.06.38,0,.36-.1.65.06.09.22-.18.21.17v.32c-.29-.47-.63.69-.74-.5,0,.49-.16.62-.31.64,0-.44.08-.33,0-.65-.31.46-.25-.5-.58-.33-.1.46-.21.28-.43.48v-.65c-.13-.14-.09.42-.18.48-.06-.23-.12-.46-.2-.65a2.88,2.88,0,0,0,.07.81c-.27,0,0,.36,0,.49-.25,0-.31-.21-.46.15,0-.38-.12-.36-.16-.65.07-.49.23.35.21-.32-.35-.63-.91-.43-1.26.14-.07,0,0-.45-.08-.49-.11.38-.41,0-.47.64.27-.17.12-.16.16.33,0-.23.09-.18.13-.32,0,.68.12.75,0,1.29.06.28.26.07.24.65-.41.64-.3-1.95-.57-.82.06.45.15,0,.2.65h-.58c0-.37,0-.61-.08-.65a2.18,2.18,0,0,1,0,.65c-.11-.19-.13-.14-.08-.65-.13.11-.17,0-.21.16a.84.84,0,0,1,.08.49c-.7.14-1.21.65-1.91.31,0,.41.16.75,0,1a1.84,1.84,0,0,1-.08-.65c-.85-.11-1.21.44-2.08.81a2.58,2.58,0,0,0-.08-.48c-.12.91-.26.27-.46.48a5.57,5.57,0,0,0,.08,1.13c-.05,0-.06.21-.12.16a5.86,5.86,0,0,0-.17-1.3c-.08.7-.28.27-.37.81,0,.19.06.82-.08.16-.08.62,0,.93-.08,1.46.16-.26.09.42.17.48,0-.22.09-.3.16-.32a3,3,0,0,0,0,.32,2.64,2.64,0,0,0,0,1.29c-.1,0-.13.25-.16.49.06,0,.15-.06.16.16,0,.42-.21.34-.24.81,0-.41.07-.63-.08-.65,0,.53,0,1-.16.65,0-.27.11-.09.12-.32-.2-.33-.18.85-.28,1.13-.11.07,0-.6-.12-.65a3,3,0,0,0-.2.81c0-.3-.05-.78-.21-.65a4.37,4.37,0,0,1,0,1.78c.23-.86.4-1.31.33.16,0,.4.15-.33.2.16-.17.45-.27.42-.49.16,0,.78-.22.07-.28.65.14.34.42-.34.33.64.11-.09.21-.24.32-.33,0,.09.1,1.09.12.7S28.5,26,28.53,26h.12c-.05,0-.05.19,0,.41.25.1.62-.41.81-.41h-.08c.12,0,0,0,.08-1h.08c-.09,1,.2,1.71,0,2.31.12.12.08-.34.2-.22a8.92,8.92,0,0,1-.08,1c-.15-1-.57-.37-.81,0,.15,0,.22-.17.28,0a1.8,1.8,0,0,0,0,.81c.31-.25.45-.67.68.17a.87.87,0,0,1,.08-.48c0,.28.19,0,.2.32-.16.19.08,1.14-.16,1.13-.08-.09-.09-.25,0-.49-.16-.07-.22.37-.28-.16,0,.19,0,.46,0,.49,0-.2-.1-1-.16-.49.1.57-.23-.14-.16.65-.13.1-.12-.3-.2,0a3,3,0,0,1,0-.32c-.13.13-.52.69-.32-.16-.33.36-.69-.34-.88.65-.17-.08,0-.13-.16-.49,0,1-.38-.14-.44.81,0-.36-.15-.47-.21-.81.07-.09.17-.08.2-.32-.06-.4-.15.18-.16-.16,0-.56.11,0,.12-.33-.07-.56-.45-.39-.4.49.09,0,.15,0,.16.32a1.19,1.19,0,0,0-.12.49c.1.21.16-.48.2,0-.08.26-.26.15-.28.65v-.49a8.44,8.44,0,0,1-2.43.67c0,.38.07.75-.07.81,0-.46.05-.42,0-.81-.14-.09-.12.77-.24.33,0,.4,0,.79-.07.81a6.44,6.44,0,0,1,0-1c-.25.12-.73.38-1,.5a8,8,0,0,1-.06,1c0-.68-.14.18-.2-.32,0-.23.19-.07.19-.49-.08-.09-.58-.44-.52.17,0-.35.14-.08.2-.17,0,.24.16.66.05.81-.08-.16-.14-.8-.24-.32a1.26,1.26,0,0,0,.09.48c-.12.23-.21-.07-.33-.32s.15,0,.15-.33c-.09-.1-.31-.4-.32.17,0,0,.1,0,.09.32-.06.55-.33,0-.31.49s.1-.21.2,0c0,.44-.06.33,0,.65.2.07,0-.49.11-.65,0,.28.05,0,.12,0,.5.43.94-.09,1.35-.35,0,0,0-.13,0-.16,0,.12,0,.19.08.16a4.37,4.37,0,0,0,0,.49c.2-.06.48-.64.63-.33-.05,0-.06-.45,0-.49.24.12.26.47.38,1.29.12-.29-.11-.5,0-.65,0,.39.21.26.25.64.1-.71.19,0,.28.32,0-.51-.1-.66,0-.81.09,0,.09.41.09.81a3.66,3.66,0,0,0,.27-.49,2.09,2.09,0,0,1-.28-.48c.24-.48.45.51.57,1.13.09-.22,0-.32.07-.49.18.24.11.18.28.16,0-.53-.16-.34-.17-.81.24.29.23-.31.27-.49.22.38.58-.24.76.64-.13-.14-.15.14-.2.32-.11-.77-.23-.25-.44-.32,0,.56.21.24.24.65,0-.13,0-.32,0-.32a4.72,4.72,0,0,1,.18,2.1c.11-.62.19.39.27-.32-.11,0-.22,0-.2-.49.23.33.45-.58.72.48.43-1.48.95.23,1.3-.82.34,0,.4,1.44.24,2.43-.18-.34-.16.3-.35,0,.11-.44-.1-.29-.12-.65.12.19.17-.68.08-.81,0,.28-.14.27-.16.65s0,.68.08,1c-.08.36-.34,0-.35.65.42.08.53-.76,1,.32-.12-.12-.14.16-.24.16s0-.32,0-.32c-.06.84.18.45.2,1,0,.2-.05.33-.12.32-.2-.48-.48-.44-.74.33-.19-1.1-.53.53-.74-.16,0,.21,0,.6-.07.81a2.12,2.12,0,0,1,.32,1c.12.12.07-.44.19-.32a2.61,2.61,0,0,0,0,.48c.23-.08.44-.18.66,0a6.15,6.15,0,0,1,.12-.65,1.28,1.28,0,0,1,0,.49c.2.16.17-.65.19-.81.09.12,0,.92.16.81a3.1,3.1,0,0,1,.27-1.62,4.59,4.59,0,0,1,0,.49c-.14-.49-.16.52-.15,1.13.12-.11.07-.11.19,0,0-.3-.12-.54,0-.65.08.06.11,1.14.23.48,0,0-.09-.27,0-.32a5.06,5.06,0,0,1,.31.49c0-.42.31-.43.39-.16a10.14,10.14,0,0,0,.12-1.62c.12.11.37-.08.24-.49-.07.1-.42-.37-.31.81-.1.15-.22.26-.27-.16.08-.11.17-.54,0-.65,0,.24,0,.72-.16.65s0-.34-.08-.81c-.29.59-.53.25-.78.16a12.49,12.49,0,0,0,.35-1.46c0,.33.06.77.08.32s0,.1.12,0c.08-.52-.16-.51,0-.65a1.82,1.82,0,0,1,.16.81c0,.24.11-.39.2.16.1-.38.09-.75.28-.49,0-.5,0-.59,0-1,.17.21,0-.77.2-.65a10.78,10.78,0,0,0,0,1.94,6.19,6.19,0,0,0,.12-.65c0,.42.27.31.35.16s0-.24,0-.65c.34,0,.26-1,.56-1v.48c.29-.34.71-.29.72-1,0,.19.06.18.12.16v.48c.24.11.37-.64.51,0,0-.19,0-.46,0-.48.11.47.25-.06.35.49.12-.69.24-.51.48-.48.06-.4-.11-.67,0-.81.13.18.2.56.35.65,0-.41.18-.56,0-.81-.1.47-.09-.27,0-.32-.4.41-.64-.28-1,.64,0-.23.07-.27.08-.48-.2.17-.45.27-.51-.17-.08.36-.3.2-.4.48-.1-.9-.39.05-.52.16,0-.23.07-.27.08-.48-.19-.15-.32-.6-.44,0,0-.29-.18-.5-.08-.65s0,0,0-.16c-.11.12-.42.8-.44-.16.22.34.4,0,.56-.32V34c.25-.15.27-.4.44.16a2.49,2.49,0,0,1,0-1,1.23,1.23,0,0,0-.48-.49c0-.13,0-.32,0-.32.22.29.29-.35.52.33,0-.8.31-.24.36-.81-.18-.16,0-.45,0-.65-.18-1.3-1,.45-1.08-.65.36-.4.59.59.84-.64-.09-.11-.1-.54-.2-.65-.1.21.07.49,0,.65-.27-.08-.43-.66-.68,0,0-1.35-.2.51-.44-.65-.19.92-.36-.29-.48.65-.11-.06-.14-.4-.24-.49,0,.19,0,.46,0,.49,0-.27-.11-.09-.12-.32a10.47,10.47,0,0,0,0-1.13c-.09-.3-.17.45-.28-.16.06-.36.11-.76.28-.65,0,.94.05-.38.07.81-.06-.51.79-1-.21-1.13v.32s-.13-.27-.19-.32c0-.57.3-.72.27-1.13.1,1.14.46-.1.58.81-.05.24-.06,1.28.06,1.3s0-.19.09-.16a7.08,7.08,0,0,1,.05-2.27c.26.06,0,.66.12,1,0-.1,0-.19,0-.16s0,.18,0,0-.09-1,.08-.65c0-.89-.2-.3-.28-.65s.21-.24.29-.49c.08.15,0,.84.16.81,0-.42-.09-.72-.08-1.3,0,.23-.19,0-.2,0,.16-.24,0-.19,0-.65.06-.1,0-.62.08-.65s.06.18.08.32-.07.15-.08.32,0,.63.16.49c0-.68.15-.64,0-1,.06-.24.19-.08.16.49.22.09,0-.67.13-.81.15,1.12.13,1.18.16.16,0,0,.06.18.08.32s-.07.15-.08.32,0,.13,0,.32c.12-.29.34-.49.36.32-.13-.47,0,.92-.25.65,0,.81.26,1.31.4,1-.25-.14,0-.47,0-.81-.06,0-.15.06-.16-.16s0-1.28.17-1.13c0,.59-.09.62-.09,1.13.12.21.21,0,.29-.32,0,.78.14.21.24.65.06-.46.09-1.07.13-1.62-.11-.12-.08.32-.17.32a2.56,2.56,0,0,0,0-.49c.3-.29.51-.78.74-.32,0-.19,0-.46,0-.49.14.32.08.21.25,0a4.15,4.15,0,0,1-.22,1.62c.09.58.46-.06.49-.16s-.21,0-.24-.33c.23.11.09-.6,0-.65a5.85,5.85,0,0,1,.29-.65c.12.14,0,.24,0,.65.18,0,.08-.28.09-.81.11.19.24-.31.25,0v1.13c.22-.51.2-.82.47-1.61a5.49,5.49,0,0,1-.09,1c.28.18,0-.89.26-.81,0,.31-.05.36,0,.65s.08-.07.17-.16a6.51,6.51,0,0,1,.05,2.11c0,.39.06.79.11,1.13-.05-1,.47-.48.55-1.45-.08,0,0-.44-.16-.32s0,.56-.09.48c.08-.41,0-.57.05-.81.06.25.19-.19.24.33s-.08.57-.06,1.13c.11,0,.09-.27.16,0a9.28,9.28,0,0,1,.06-1.46,6.72,6.72,0,0,0,.18,1.62.78.78,0,0,1,1,.34c-.19-.59-.34,1-.53.32.08.19.2-.25.09-.32,0,.44-.12-.23-.24,0a8.48,8.48,0,0,0-.06,1.29c.18-.63.49.44.66-.47-.06,0-.15.06-.16-.16,0-.56.16,0,.29-.32,0,.3.1,1.29-.1,1.29-.15-.75-.51,0-.53.48-.1,0,0-.63-.15-.65-.07.56-.26.19-.41.16,0,.47.19.8.06,1.13,0-.2,0-.38-.08-.32s0,.28-.09.32a3,3,0,0,0,0-.32,2.06,2.06,0,0,0,.06-1c.11-.23.18.1.29-.16s0-.87-.11-.81c-.11-.12,0,.76-.09.65s-.25-.09-.19-.81c-.13,0-.12.64-.29.48a3.36,3.36,0,0,0-.07-1c.07,0,.11-.22,0-.32a11.69,11.69,0,0,0-.23,1.62c.15.24,0-.72.17-.48a1.76,1.76,0,0,0,0,.81c-.27.86-.5-1.51-.77-.17.1.22.13-.64.16-.16a3,3,0,0,0,0,.32c-.18-.2-.07,1.36-.21.81,0,.41.11.77,0,1,.07-.57-.14-.1-.11-.49.11-.15,0-.51,0-1,.07.32.17.44.17-.32-.2.34-.11-.42-.44-.17v.81a2.48,2.48,0,0,1,.2.33,11.64,11.64,0,0,1-.14,1.94c-.09-.4-.08.24-.2.16s0-.73-.11-1.13c-.07.59-.06-.38-.16-.16s0,.81-.09.65a4.41,4.41,0,0,0,0-.48H33.8A2.74,2.74,0,0,0,34,30.31c-.06-.4.14-.48.12-.16a.69.69,0,0,1-.08.32c-.07-.09-.17-.09-.2-.33,0-.76-.24-.83-.15-1.3-.2-.07,0,.48-.13.65-.22-.19-.24-.17-.32.32s-.24-.2-.08-.49c-.25,0-.4.54-.6,0,0,.36.18.52,0,.81-.09-.31-.12-.37-.16.16.1.1.18.23.32.16,0,.75.24.22.11,1,.15.24,0-.72.16-.48a9.54,9.54,0,0,0,.07,1.13c.13,0,.24,0,.28.33-.09,0-.13.13-.12.49.18-.23.1.53.11,1,.05-.77.28.06.4-.81-.06,0-.15.06-.16-.16.2-.05,0-.43,0-.81.06.23.13.12.12-.32s-.19.62-.28,0c.05,0,0-.28.08-.32.06.27.16-.05.24-.16.07.21-.1,1,.11,1,0-.71.06-1.05-.11-1.3.35-.22.07,0,.32.33.07-.8.43-.83.49-.64a10.82,10.82,0,0,0,.1,1.94c-.26-.29,0,1.28-.17.65.09,1.46.4.46.67.33a3,3,0,0,0-.07-.81c.17.12,0-.32.08-.32,0,.21.07.15.08.33.09,2.08-.35,1.18-.54,1.77.22,0,.21.72.35.65-.06.33-.22.17-.25.64.23-.37.1.28.19.81.14.17.07-.61.2-.48a3,3,0,0,1-.13,1c0,.36.1-.21.2,0,0-.28-.05-.42,0-.49.24.87.56-.29.86.5-.13.35,0,.85-.14,1.13-.06-.34-.41-1.44-.47-.33.1-.08.14-.21.19.17-.16-.25,0,.84-.13.81,0-.2,0-.38-.07-.32,0,.47-.06,1-.06,1.13.1-.38,0,1.38.06,1.46-.07-.28-.28-.21-.31.16.33.42.43.1.75-.31a3.3,3.3,0,0,1,0,.65c.08-.17.22-.57.31-.16A2.79,2.79,0,0,1,36.3,41c.15.85.8-.57.65.82h.16c0-.29-.1-.67,0-.81.14,0,.13.71.34.49,0-1,.25-.27.27,0a2.23,2.23,0,0,1,.17-.64c.12.6.19.15.41.66.05-.6-.12-.32-.14-.65s.28,0,.31,0c0,.27-.11.09-.12.32.12,0-.11.46,0,.49,0-.49.18-.91.24-.48,0,.27-.11.09-.12.32.18.1.2-.59.35-.15.12-.34-.05-.88.1-1,0,.39.31-.08.34.33-.14,0-.16.22-.27,0a3.05,3.05,0,0,1-.13.64c.1,0,0,.63.14.65,0-1.1.26-.57.37-.8,0,0-.08,0-.07-.16s.24-.4.24-.16-.14.5,0,.65c0-.76.21,0,.23.17,0-.39,0-.66.21-.64-.05.75,0,.46.06.65a.69.69,0,0,1-.09.32c0-.31,0-.7-.1-.65,0,.72.15,1.21.4,1.14.1-.21-.06-.49.06-.65.07.59.34.62.27,0,.15-.06.08.66.26.49,0-.52-.09-.34-.1-.65.17.14.34.18.4-.31.11,0,.21,0,.18.49,0,0-.08-.29-.12,0,.07.46.2.27.35.17-.05.49.08.29.15.33a4.77,4.77,0,0,0,0,1c.07,0,.13-.1.17-.32-.17,0,0-.84.1-.81,0,.38,0,.3,0,.81.12.15.09-.42.17-.48,0,.4.13.05.16,0,0,.23-.07.27-.09.48.14-.13.14.25.27.17,0-.28,0-.42,0-.49s.13.13.22.49c.12-.4-.14-1.11,0-1.46.12,0,.14.89.3.33l0,.65c.18,0,.33,0,.21.65.37-.32.68-.4,1,.36l0-.81c.06.07.11-.24.12,0s-.14.94,0,1c.1-.21-.05-.49.06-.65.24.87.64.06,1,.53,0-.3-.09-.55,0-.65.08.28.14.61.28.66a2.36,2.36,0,0,1,.11-.81c.09,0,.12.14.1.49-.07,0-.1.12-.13.32a.59.59,0,0,1,0,.32c.11-.17.31-.29.25.5.21.17.09-.25.18-.48.1.75.29.39.53.19a2.34,2.34,0,0,1,.07-.65c0,.47.11-.21.19,0,0,.74-.07.61-.22.48,0,.84.28.17.39-.14.25.14.45,1.1.72.36,0,0-.09-.54,0-.49.11.57.39,1.05.6.51.12.57.35.38.58,0l0,.48c.16,0,.21-.1.35-.47.08.51.2.25.33.18l0,.65c.35.11.64-.2.93-.11s.23.76.32.83.21-.84.17-.15c.05-.3,0-.55.05-.64.28.22.4.38.63.54a3.7,3.7,0,0,1,.09-.64,6.05,6.05,0,0,1,0,.65c.2.27.42-.46.47.05.09-.23,0-.66.12-.8a6.68,6.68,0,0,1-.12,1c.05.31.1-.57.16-.63h.08c-.16,1,.11.66.1.18-.06.38-.1.09-.06-.17s.24-.17.06.5c.14-.47.21-.5.16.19.09-.34.12-1.09.21-.95-.08.45,0,.42-.11.8.07.14.14-.24.13.34a9.23,9.23,0,0,0,.2-1.11h.07c-.15.92-.1,1,0,1a5.49,5.49,0,0,1,.15-.63c0-.05,0,.88-.06.64,0,.38.13.17.3-.43-.2.91,0,.28-.1.64l.18-.62-.12.47c.21-.78,0,.06,0,0,.1-.3.22-.78.28-.93,0,.15-.23.8-.21.78.09-.29.14-.52.18-.62h0l-.23.78c.06-.18.06-.24.11-.38l.26-.8-.09.26.64-1.81.28-.7.13-.3.08-.21c.09-.23.19-.46.3-.69L56,40.58c-.08.15-.17.33-.24.48l.08-.17.18-.35h0l.12-.22h0l-.12.22,0,0,.25-.43.18-.32.1-.15.06-.09v0l.11-.18.17-.27c-.31.48.18-.29-.09.13l-.17.27.17-.28c.35-.53,1.14-1.81,1.46-2.14-.15.23-.12.23-.24.42s-.61.87-.64.94l.56-.79c-.21.3,0,0-.17.28.29-.4.25-.31.31-.37.46-.64.42-.5.93-1.13-.08,0,0-.07.13-.31l-.8,1s.11-.17.08-.15c-.16.23-.23.34-.28.4.3-.45.29-.46,0,0,0-.13.58-.92.92-1.53-.11.25.12.06.46-.48-.16.3.1.07.32-.16,0,.06-.24.37-.25.42.32-.31.89-1,1.26-1.27.41-.52.35-.43.83-1,0-.14.43-.68.46-.88-.17.15-.49.32-.38.12,1-1.19,1.88-2,2.82-3.14,0-.25-.21-.07-.37-.08a11.51,11.51,0,0,1,1.36-1.81C65.55,27.69,65.24,28.28,65.56,28ZM40,42.24c0-.35.11-.35.2-.32C40.2,42.57,40.1,42.35,40,42.24Zm-5-6.09c-.06-.49.25-.27.09-.65,0-.19.07-.14.12-.16,0,.14,0,.15,0,.16C35.24,35.87,35.16,36.09,35,36.15Zm.35-2.42c0,.41-.2,1.16-.18,1.29-.07.53-.11-.28-.15-.33C35.19,34.45,35.22,33.8,35.39,33.73Zm-4-1.65c-.1-.19.35-.09,0-.32,0-.22.1-.14.16-.16-.07.56.07,1.05-.12,1,0,.22.08.3.16.32-.11.41-.24-.42-.16.65H31.3C31.24,32.86,31.56,32.35,31.34,32.07Zm-.9-15.38c0,.42,0,.7-.12.65C30.31,16.92,30.34,16.64,30.45,16.69Zm38.43,7.48c-.25.16-.66.28-.57,0C68.55,24,68.84,23.94,68.88,24.17Zm3.77-6.28c.08-.41-.87-.09-.8-.58.31.15,1.6,0,.76,1.16-.28-.11-.53-.07-.58-.43C72.37,17.79,72.52,18,72.65,17.89Zm-3.07,4.58c-.5.54,0-.54-.61,0a5.71,5.71,0,0,0,.51-.83A1.06,1.06,0,0,0,69.58,22.47Zm-5.88,7.73s.1-.17.17-.28-.24.13-.4.31c.1-.32.41-.42.57-.59C64.06,29.71,63.93,29.91,63.69,30.19Zm5.14-7.27c-.21.24-.27,0-.53.41-.06-.12.33-.54.09-.54,0-.27.46.12.33-.36C69.07,22.13,68.71,22.86,68.84,22.92ZM73,15.71a1.92,1.92,0,0,1-.86.21c-.23.3.1.28-.06.54.27,0,.13-.33.36-.54,0,.13.05.33.21.14.13.25-.34.4-.46.67-.15,0-.25-.39-.43-.09.16-.85.08-.37-.15-.67.37-.48.73-.85.55-1.19.25,0,.54-.37.78-.08.09-.22.11-.41.2-.64-.18,0-.38.17-.55,0,.32-.38.24-.55.44-.87.42-.2,0,.6.44.66-.45.54-.48.84-.07.92-.25.19-.5.33-.74.48C72.36,15.77,72.76,15.66,73,15.71Zm-1.77,1.17c.48-.53.45.23.45.48C71.19,17.69,71.53,16.88,71.19,16.88ZM59.44,35.12a5.72,5.72,0,0,1-.51.82c0-.1.47-.81-.05,0,0-.07-.18.14.11-.31C59,35.68,59.27,35.31,59.44,35.12ZM71.21,16.7a2.19,2.19,0,0,1-.53.24c-.19-.16-.06-.53-.07-.81C71.11,15.8,70.9,16.63,71.21,16.7Zm2.37-4.06c-.18.56-.32-.09-.5.26a1.12,1.12,0,0,1,.26-.79C73.35,12.33,73.25,12.6,73.57,12.64ZM69.7,18.24c.11-.15.14-.25.11-.32.18-.35.24.26.45-.29C70.43,17.81,69.84,18.55,69.7,18.24ZM61.08,32.32c-.5.67-1.09,1.58-1.38,2,.45-.91,1-1.34,1.28-2.06C61.23,31.86,60.91,32.47,61.08,32.32ZM59.41,34.9c-.3.45.11-.37-.25.23C59.44,34.5,59.62,34.48,59.41,34.9Zm-3,5.06h0l-.08.14ZM69.12,8.35a4.74,4.74,0,0,0-.6.81c-.16-.09,0-.45.14-.81A.37.37,0,0,1,69.12,8.35ZM68,8.95c-.1.43-.33-.25-.43.18a3.09,3.09,0,0,1,.37-1.24C68.09,8.16,67.6,8.72,68,8.95Zm-4,6.81c-.06-.26-.34-.26-.11-.89A.89.89,0,0,1,64,15.76Zm-.46-.66c0,.42-.13-.33-.28.25-.09-.07-.06-.31.07-.66,0,.12.09.29.18.06C63.54,14.81,63.43,15.08,63.51,15.1Zm1.4-4.48c-.27.06,0-.45-.14-.55C65,9.68,65.16,10.18,64.92,10.62Zm-3,8.91c-.13,0-.26-.06-.27-.25.17-.34.24.51.35-.4C62.12,18.95,62.07,19.19,62,19.53ZM65.64,6.95c-.19.36-.23-.31-.52-.15C65.37,6.48,65.61,6.56,65.64,6.95Zm-.4.22c-.17.41-.38.55-.61.5-.22.77.18.16.22.57-.28.63-.23-.07-.43-.12a2.76,2.76,0,0,1,.34-.92c.11,0,.21,0,.17.22C65,7.34,65.12,7.08,65.25,7.17Zm-.87,2.45c-.07-.26-.4-.2-.12-.87l.28.08A2.15,2.15,0,0,1,64.38,9.61Zm.25-2.78a2,2,0,0,1,.29-.76C65.3,6.13,65,7.15,64.63,6.83Zm-1,2.4c.14.06,0,.43-.07.82C63.32,10,63.49,9.36,63.6,9.23Zm-1-2.75c-.29.28-.46-.54-.63-.8.14-.41.26.43.42-.24.12-.29.07.19,0,.16C62.19,6.21,62.48,6.23,62.59,6.48ZM53.7,45.63c-.12.52-.08.22-.09.15C53.69,45.43,53.67,45.72,53.7,45.63Zm7.9-40.35c-.07.19-.15.31-.26.28S61.44,5,61.23,5C61.46,4.37,61.51,5.11,61.61,5.28Zm-6.94-.61c0,.54-.19.94-.27.63C54.53,5.24,54.51,4.59,54.66,4.66Zm-1.45,2c.16.35-.13.51-.15.8C52.9,7.12,53.19,7,53.21,6.67Zm-.82-.38c0-.32.37-.27.23.34-.05-.21-.17-.23-.21.15C52.26,6.82,52.56,6.31,52.39,6.29Zm0-.65-.11-.49c-.12,0-.11.6-.19.8C51.94,4.95,52.63,4.77,52.43,5.64ZM50.67,6c-.12-.12-.3-.06-.32-.5a2.22,2.22,0,0,0-.23,1.29c-.19.07-.07-.5-.25-.17,0-.56.26-.22.22-1.12.21-.41.41.37.53-.46A7.44,7.44,0,0,1,50.67,6Zm-.83,3c0,.64-.24.18-.35.31C49.59,8.81,49.67,9.36,49.85,9.08Zm-.75-3c.11,0-.07.27,0,.65-.15.19,0-.53-.16-.33C48.94,5.84,49.07,6.44,49.09,6.12ZM49,7.74c0,.22-.11.13-.18.15,0-.37.26-1,0-1C48.94,6.07,48.95,7.38,49,7.74Zm-.24-.33c0,.5-.09.47-.09,1C48.59,8.14,48.55,7.31,48.74,7.4ZM46.26,8.92c.06.14,0,.24,0,.65-.07,0-.16-.08-.17.15C46,9.48,46.23,9.22,46.26,8.92Zm-.39,1.28c-.05.47-.1-.21-.21,0a9.08,9.08,0,0,0,0-1c.11-.39.07.25.2.17C45.72,9.78,45.68,10,45.87,10.2Zm-.73.46c.26-.47-.09.68.1.81C45,12.15,45.2,10.7,45.14,10.66Zm0-1.3c-.13,0-.19-.21-.28-.34s.08-.25.1-.48A1.27,1.27,0,0,1,45.1,9.36Zm0,1.13c0-.52-.3.33-.1.32,0,.18-.09.11-.1.32A8.5,8.5,0,0,1,44.74,10c.1.11.2.34.22-.32A2,2,0,0,1,45.06,10.49Zm-.26-1c0,.44-.19-.12-.18.32,0-.29,0-1.1.17-1.13C44.79,9.21,44.66,9.36,44.8,9.51Zm-.13,2.42c-.14-.2-.13-.24-.24-.33.09-.83-.1-.7,0-1.46h.17C44.31,11,44.65,11.19,44.67,11.94Zm-.7-.51,0,.49a.9.9,0,0,1-.24-.33C43.79,11.25,43.85,11.74,44,11.43ZM42.15,42.3c-.1.48-.18-.29-.17-.65C42.06,41.76,42.06,42.19,42.15,42.3Zm-1-1.33c0,.25-.3.35-.23-.17C41.07,40.69,41.08,41,41.18,41Zm-.66-27.38c-.13-.12,0-.43,0-.81C40.6,12.8,40.58,13.39,40.51,13.59Zm-.65,23.95c0,.37-.25.15-.19-.33C39.77,37.19,39.79,37.47,39.86,37.54Zm-.12,1.78a4,4,0,0,1-.06.81c-.09-.48-.19-.14-.3-.33.1-.2.2-.57,0-.32C39.45,38.61,39.6,39.88,39.74,39.32Zm.44-25.73c.08-.06,0-.63.18-.48a9.16,9.16,0,0,0-.07,1c-.14.14,0-.53-.15-.49C40.15,13.4,40.18,13.49,40.18,13.58Zm-.54,12c0,.83-.17-.28-.21.32C39.29,25.34,39.57,25.3,39.64,25.55Zm-.33,12c0,.62-.2.62-.16,0Zm0-3.08a3.25,3.25,0,0,0-.06.65c0-.6-.36-.15-.33-1C39,34.5,39.18,34.47,39.34,34.45Zm.39-21.37c0,.16-.05.12-.09.16-.07.19-.06.71-.22.48C39.49,13.37,39.55,13,39.73,13.09ZM39.09,40c-.09-.24-.06-.34-.19-.17,0-.43.09-.42.17-.48A3.32,3.32,0,0,1,39.09,40Zm.07-9.55a2.26,2.26,0,0,1,0,.65c-.08.15-.2.52-.28.15.07-.58.13,0,.25-.32ZM39,35.58v.32s0,.06,0,.16c0-.14-.1-.22-.19-.17C38.86,35.42,38.89,35.76,39,35.58ZM39,36.87v.48s0-.2,0-.32-.13.1-.16.32C38.68,36.92,38.85,36.61,39,36.87Zm0,2.1c-.07.26-.11.67-.25.64,0-.23.16-.39.05-.48C38.76,38.85,38.87,38.72,38.92,39Zm-.12,1.94c-.08.52-.09-.42-.23-.17.05-.24.05-.72.17-.64C38.72,40.51,38.71,40.89,38.8,40.92Zm0-13.44c0-.31,0-.7.14-.64C39,27.29,39,27.52,38.83,27.48Zm-.07,4.86c.1.35-.15.6-.22.8-.09,0,.06-.43.05-.65,0,0,0,.16.08.16A.67.67,0,0,0,38.76,32.33Zm-.07,3.24c0,.44-.17.29-.21.64C38.38,35.93,38.55,35.4,38.68,35.57Zm0-8.74-.1.65C38.49,27.39,38.56,26.62,38.72,26.83Zm-.27,7c-.16.55,0,.8-.07,1.29a4.29,4.29,0,0,1,0-1.62C38.38,33.51,38.39,33.74,38.45,33.78ZM38.32,38c.07.28-.12-.12-.16.32a9.61,9.61,0,0,1,.05,1.13c-.18-.13-.16.18-.13.64,0-.11,0-.37-.11-.33a3.31,3.31,0,0,0,.05-.65h.12a13.94,13.94,0,0,1,0-1.46c0,.11.1.25.12,0C38.29,37.7,38.26,38,38.32,38Zm-.05-4.86c-.06.83-.42.49-.57.47,0-.61.21.14.25-.64C38.06,33.29,38.06,33.14,38.26,33.13Zm-.12,3.72c-.07.67-.17,1.25-.38,1.29A4.18,4.18,0,0,1,38.14,36.85Zm.07-5.18a1.37,1.37,0,0,1-.26,1A2.35,2.35,0,0,1,38.21,31.67ZM38,40.57c0,.2-.22,0-.27-.17C37.82,40,38,40.39,38,40.57Zm.49-25.41c-.09.3-.07-.1-.21,0,0-.44.09-.32.1-.65-.23-.07-.15.26-.34.48,0-.32.12-.2.1-.65h.33C38.37,14.77,38.59,14.53,38.52,15.16Zm-.39,18.77a4.65,4.65,0,0,0,0,1C38,34.62,37.85,34,38.13,33.94Zm0-5.83c-.09.51-.17.09-.29.32,0-.21.08-.25.09-.48C38,27.88,38,28.24,38.13,28.11Zm0-2.43c.09.24-.1.72-.14,1,0-.64-.24.2-.32-.17C37.73,26,38.05,26.44,38.1,25.68Zm-.43,11.16c0-.31-.15-.13-.11-.65.19.08.06-.14.09-.65.1.11.08-.33.13-.48,0,.17.15.05.11.49-.18-.57-.14,1.08-.23,1.45C37.62,37,37.65,36.84,37.67,36.84Zm.39-11.65c0,.31-.14.11-.13.48a2.25,2.25,0,0,1,0-.65C38,25,38,25.14,38.06,25.19Zm-.34,3.07a3.77,3.77,0,0,1-.05.65c-.09-.18,0-1-.19-.81C37.54,27.42,37.62,28.22,37.72,28.26Zm-.5,9.22c.08-.07.16.5.16-.16a2.3,2.3,0,0,1,0,.65c0,.19.07.14.11.16-.07.6-.39-.36-.36.32-.07,0-.08-.2-.15-.16,0-.19.07-.14.12-.16S37.23,37.85,37.22,37.48Zm.25-11.33c.09.1.06.79.18,1.14-.13,0-.29.06-.27-.49C37.56,27.07,37.47,26.71,37.48,26.15Zm-.2,10.36c.06.07,0,.21,0,.49C36.93,36.42,37,36.48,37.28,36.51Zm.33-21.69c0,.56-.13.11-.21,0s.09-.3.17-.32C37.56,14.68,37.58,14.79,37.61,14.82ZM36.44,15c-.06.23.07.36,0,1,0-.13-.12-.86-.2-.33a3,3,0,0,1-.11-1c.18-.25,0,.9.16.65.11,0-.05-.28,0-.65a.64.64,0,0,1,.59-.15c.06.32,0,.2,0,.65.12,0,.06-.77.22-.64-.07.47.18.48.13,0,.07,0,.08.2.16.16a3.65,3.65,0,0,1-.06.81c-.16.17-.11-.4-.24-.33s0,.55-.09.65,0-.3,0-.49c-.08.14-.06.65-.22.48,0-.49.14-.63.06-1C36.63,15,36.57,15.59,36.44,15ZM37,28.41c-.06.38-.3,0-.33.48-.12-.36,0-.51-.2-.17a3.24,3.24,0,0,1,0-.65C36.56,28.27,36.84,28.2,37,28.41Zm-.16,9.06c0,.21,0,.6-.09.81s-.11-.64-.15-.16a2.32,2.32,0,0,1,0-.65c0,.4.19-.18.08-.32C36.75,36.65,36.78,37.56,36.87,37.48Zm-.18-1.14c.11.22-.08.57-.17.48v-.49C36.63,36.11,36.68,36.76,36.69,36.34Zm-.21.64c0,.32-.11.2-.09.65-.05-.4-.22-.37-.26-.81C36.26,36.56,36.31,37.08,36.49,37Zm0-2.59c-.06.2,0,.76-.1,1-.09-.31,0-.57,0-1Zm-.3,6c-.17.59-.42-.17-.56.64,0,0,0-.32,0-.32,0-.19,0-.09,0,0-.14-.67.22-1,.1-1.62.18,0,0,.73,0,1.13a3.13,3.13,0,0,1,0,.32C35.9,40.13,36.07,40.24,36.19,40.38Zm.09-10.2c0,.42-.06.53-.17.48C36.11,30.24,36.18,30.13,36.28,30.18Zm-.35,4.53c-.14.06-.21-1.1,0-1C35.87,34.23,36,34.21,35.93,34.71Zm0-4.37c0,.51-.1.71-.1,1.29C35.78,31.39,35.82,30.23,36,30.34Zm-.52,5.5c.08.29.31-.17.43.33-.11.81-.24-.36-.47,0-.06-.53.2-.78,0-.81a2.56,2.56,0,0,0,0-.48c0,.1.07.2.08,0a2.29,2.29,0,0,1,0,.65C35.49,35.5,35.46,35.63,35.44,35.83ZM35.29,35c.07-.22.06-.77.21-.64C35.48,34.83,35.42,35.06,35.29,35ZM36,14.63v.49c-.07.06-.08-.13-.08-.33a4,4,0,0,0-.09.81c-.12-.34-.36-.2-.36-1,.08.07.1.35.2.33-.1-.64,0-1-.23-1.14.07-.67.21,0,.34-.32a2.45,2.45,0,0,0-.1,1C35.75,14.51,35.8,14.87,36,14.63Zm-.17,8.74c0,.47-.1-.21-.2,0a3.13,3.13,0,0,0,0-.32c-.09-.08-.08.23-.09.48a1.75,1.75,0,0,1-.07-.81c0,.22.18.16.28.17C35.78,23.12,35.77,23.35,35.82,23.37Zm-.11,5c0,.24,0,.63-.17.48,0-.3.13-.54,0-.65C35.56,27.84,35.65,28.41,35.7,28.39ZM35.56,24c0,.46-.14.31-.09,1a3.1,3.1,0,0,1,0-1.13C35.48,23.94,35.51,24,35.56,24Zm-.08-.33c0-.12-.09-.17-.16-.16v-.65C35.44,22.94,35.47,23.31,35.49,23.69Zm-.19,5c0-.29,0-.34,0-.65-.07-.16-.14.48-.16,0,0-.77.16.06.28-.16,0,.29-.13.67,0,.81-.16.16-.23.71-.41.8A1.07,1.07,0,0,1,35.3,28.71Zm-.16,3.24c0,.35-.14.07-.2.16v-.65c.09-.07.07.23.07.49Zm-.44.32c0-.14.11-.21.2-.16,0,.83.05.95,0,1.62-.15.05-.22-.18-.31-.33a2.49,2.49,0,0,1,.21-.65c0-.23-.16-.22-.15-.65C34.68,31.85,34.69,32.09,34.69,32.26Zm.13-.65a1.4,1.4,0,0,1-.19-.49l.25-.48C35,31,34.78,31,34.82,31.62Zm-.08-13.28c-.1,0,0-.47-.12-.49-.08.31.13.91-.13,1a9.87,9.87,0,0,0,0-1.13C34.63,17.69,34.77,17.69,34.74,18.34Zm-.67,1.29c0,.4-.13.67,0,.81s-.08.13-.12.16c0-.14,0-.15,0-.16S33.92,19.55,34.06,19.63ZM33.94,19c.08-.57,0-.4,0-1C34.06,17.76,34.1,19.09,33.94,19Zm-.24-.49c.09.16,0,.81-.13.81C33.53,18.7,33.66,18.78,33.7,18.49Zm-.3,1.13c0-.06-.1-.29,0-.32,0-.19-.07-.14-.12-.16,0-.43.09-.42.17-.48A1.77,1.77,0,0,1,33.4,19.62Zm.05-1.46c0,.21-.25,0-.2-.49,0-.13.09-.17.17-.16C33.42,17.77,33.4,18.14,33.46,18.17Zm-.3,12c.06.19.06.61.11.81s-.13.11-.12.48c-.11-.26,0-.51-.07-.81h-.28c0-.28.07-.42,0-.48S33,30.47,33.15,30.14Zm.05-11.49c0,.24-.13.23-.21.32a2.56,2.56,0,0,1-.07-1.13C33.19,17.78,33,18.55,33.21,18.65Zm-.09,1.3c-.06.31-.08-.38-.21,0,0-.65.19-.44.21-1C33.29,19.59,33,19.72,33.11,19.94Zm0,.65c-.18.37.15,1-.13,1.13.12-.4-.06-.72-.08-.16A2.8,2.8,0,0,1,33,20.27C33,20.46,33,20.55,33.07,20.59Zm-.85-1.3c-.19-.13-.41-.11-.41-1,0,.46.23.16.24.65,0-.47,0-.4.13-.49C32.26,18.72,32.14,18.87,32.21,19.29Zm.21-1a1.49,1.49,0,0,0,0,.65c.06-.42.28-.18.29-.81.12.06.08.76.16,1-.11.57-.42.31-.46,1.13-.08-.15-.08-.64-.2-.65C32.28,19.16,32.26,18.36,32.42,18.32Zm.13,5.18c-.05.38,0,.3,0,.81-.13,0,0-.92-.11-1.14C32.42,22.79,32.47,23.6,32.56,23.5Zm-.13,7.77c0,.41-.35.58-.32,0C32.25,31.58,32.28,31,32.42,31.27Zm-.19-7.93c-.06.44-.22.32-.33.16C32,23,32.07,23.39,32.23,23.34Zm-.56-2.59h.2c0,.44.07.32,0,.65,0,0,0-.2,0-.32s-.09.2-.16.16a.57.57,0,0,0,0,.32C31.57,22,31.66,21.09,31.67,20.74Zm-.11-2.27c0,.17,0,.49.08,1-.16-.62-.15-.2-.37,0,0-.5.11-.58.17-.32a9.3,9.3,0,0,1,0-1C31.55,18,31.5,19.08,31.56,18.48Zm-.22,15.7a2.43,2.43,0,0,1-.2,1.13,2.28,2.28,0,0,1,0-.65C31.22,34.67,31.3,34.52,31.33,34.18Zm0-13c-.07.32,0,.21,0,.65h-.16c.22-.59-.17-.38,0-1C31.23,21.09,31.25,21.37,31.38,21.23Zm-.32-1.94c.15-.24,0-.81.17-.81,0,.52-.08.68,0,1.3-.15-.17-.12.4-.25.32.12-.36-.13-1.47.13-1.46C31.13,19,31.06,18.84,31.06,19.28ZM30.95,31.1c-.05-.46-.1.43-.2.32.06-.62-.18,0-.12-.65.14.29.3,0,.2-.65a2.7,2.7,0,0,1,.28,1c-.18-.23-.11.55-.24.49A.87.87,0,0,1,30.95,31.1Zm-.3-9.55c0-.12,0-.49.08-.81.11.43.12-.2.25-.16s0,.29.08.32c-.07.59-.36.3-.37,1.13a1.88,1.88,0,0,0-.41-.32c0-.24.24-.23,0-.32C30.37,20.75,30.61,20.89,30.64,21.55ZM31,32.88c0,.44-.19.38-.24.16S30.91,33,31,32.88Zm-.12-16c0,.41-.14.32-.25.32C30.62,16.58,30.76,16.73,30.86,16.86Zm0,2.43a3.64,3.64,0,0,1,0,.65c-.05-.06-.06-.29-.12-.32,0,.44.07.33,0,.65-.14-.13-.17.3-.25,0a1.7,1.7,0,0,0,0-.81C30.63,19.21,30.7,19.5,30.85,19.28ZM30.27,24c-.11-.12-.08.32-.16.32,0,.35.14.07.2.16,0,.6-.21.29-.24.16.08-.62,0-.72-.16-.49A7.8,7.8,0,0,0,30,23c.05.28.23.89.24,0,.14,1.11.14-.67.24.49a.88.88,0,0,0,.08-.49,1.42,1.42,0,0,1,.12.81c-.07-.34-.22,0-.12.32C30.54,24.06,30.36,24.1,30.27,24Zm.36,1.62c0,.27-.09.1-.08-.16-.06.07,0,.51-.16.32a3.77,3.77,0,0,1,0-.81h.12C30.61,25,30.56,25.57,30.64,25.6Zm-.17,7.12a3.83,3.83,0,0,0,0,.81c-.08.07-.11-.11-.16-.16,0-.46.16-.2.08-.81C30.38,32.64,30.41,32.73,30.46,32.72Zm0-12.3c0,.28-.07.37-.16.32,0-.29,0-.34,0-.65C30.37,20,30.36,20.35,30.44,20.42Zm-.06,11.49c-.1.69-.41.2-.4-.32.17-.15.23.16.28.49C30.3,32,30.33,31.9,30.39,31.91Zm-.07-12.63c.12.11,0,.34,0,.65-.1,0-.21,0-.21-.49.07,0,.07.15.12.16A.66.66,0,0,0,30.32,19.28Zm0,6.48a1,1,0,0,1,0-.81C30.38,25,30.37,25.55,30.31,25.76Zm0,9.55c-.23.11,0,.84,0,1.46a1.67,1.67,0,0,0-.43-.49c-.05,0-.05.48,0,.49,0,.23-.12.06-.12.32,0-.27-.17-1.18-.16-.16-.16-.21,0-.34,0-.81s-.11.23-.16-.16c0,.27,0,.3.08.32,0,.24-.13.24-.2.32,0-1,.24-1,.43-1.29a2.57,2.57,0,0,1,0-.48c0-.23-.15-.25-.2-.49.16-.53.31.33.28,1.13,0,.12-.09.17-.16.16,0,.21.07.25.08.48,0-.6.26-.44.4-.65A1.26,1.26,0,0,1,30,35s0,.3,0,.49-.1-.11-.16-.16c.07.42.13-1,0-.48C30,34.16,30.1,34.67,30.26,35.31Zm0-2.43a2.53,2.53,0,0,0,0,.48c-.1,0-.1-.34-.12-.65C30.19,32.65,30.21,32.83,30.26,32.88Zm0,7c0,.28-.15.57-.12,0,0,0,0,.16-.08.16,0,.51.1.46.16.65-.06.48-.15-.21-.27,0,.07-.93-.14-.45-.16-.65C29.77,39.32,30.13,39.77,30.22,39.84Zm-.15-19.1c0,.64-.19.44-.21,1a1.06,1.06,0,0,1-.29-.16c0-.59.12-.1.25-.16,0-.43-.08-.31-.12-.49C29.82,20.58,30,20.9,30.07,20.74Zm0-.65a12.58,12.58,0,0,1,.08,2.1s0-.2,0-.32-.09.2-.16.16,0-.29,0-.32C30.19,21.45,30,20.66,30.11,20.09Zm.07,10.85c0,.55-.21.31-.16-.32C30.09,30.7,30.13,30.85,30.19,30.94ZM30,26.24c0,.43-.06.53-.16.49C29.85,26.3,29.92,26.2,30,26.24Zm-.16-5.83c-.18-.41-.19.57-.41.48a.84.84,0,0,0-.08-.48,1.53,1.53,0,0,0,0-.81c.1-.16.23-.52.29,0,.05,0,.05-.48,0-.48.14-.54.27.34.29.81C29.79,19.88,29.85,19.62,29.87,20.42Zm.12,5c0,.43-.28.59-.32.48C29.74,25.62,29.81,25.33,30,25.44Zm0,6.64c-.15.72-.21-.24-.28-.81C29.8,31.38,29.8,32,29.95,32.07Zm-.2-8.26c.1.52-.17.68-.28.49a2,2,0,0,0,0-.81C29.59,23.48,29.69,24.21,29.74,23.82Zm-.21-5c0-.34-.18,0-.21-.33,0-.59.16,0,.33-.16a5.22,5.22,0,0,0-.16,1C29.39,19.26,29.49,18.75,29.54,18.8Zm0,3.72a1.93,1.93,0,0,1-.21-.81C29.43,21.39,29.56,21.9,29.54,22.52Zm-.16,2.91v.48c-.13-.19-.25.49-.32,0S29.18,25.47,29.38,25.43Zm0-6.31c-.08.11,0,1-.12.81C29.2,19.47,29.2,19,29.33,19.12Zm-.29,0c0-.46-.06-.42,0-.81C29.15,18.22,29.24,19.17,29,19.12Zm.09,5.18c-.21-.13-.18.69-.36,1A4.69,4.69,0,0,1,29,23.81C29.1,23.77,29.06,24.28,29.13,24.3Zm-.58,8.1c0,.16,0,.13-.08.16,0,.22.09.3.16.32,0,.22-.08.3-.16.32,0,.33.2,0,.16.65a4.49,4.49,0,0,0,.12-1.13c.17-.52.1,1.34.32,1.13a3.77,3.77,0,0,1,0,.65c-.09.13-.19-.8-.2,0-.14-.41-.24,0-.36-.48,0,0,0,.29,0,.49-.14-.72-.58.53-.68-.48,0,.64-.2.15-.19.65-.21-.53-.38.26-.67-.16a3.05,3.05,0,0,0,0-.32s0-.06,0-.16c.12.79.22-.25.36-.33.07.47.44.42.56-.16-.08.06-.33.15-.36-.81.07,0,.09.2.16.16,0-.25-.13-.14-.08-.65.19-.08.14.84.28,1A11.37,11.37,0,0,0,28,32.08c.1-.17.19.61,0,.48,0,.29.22.29.16-.16.07.46.05.38.16.49C28.41,32.7,28.43,32.36,28.55,32.4Zm.2-.16c0-.32-.11-.2-.08-.65.08-.07.11.11.16.16a1.21,1.21,0,0,1-.12.65C28.65,32.31,28.71,32.23,28.75,32.23Zm.1,8.42c-.09,1-.19-.53-.24-.81C28.83,39.56,28.66,40.87,28.85,40.65Zm-.09-16.51c-.07,0-.08-.15,0-.16-.05-.49-.15.24-.2-.16,0-.24.1-.35.2-.32C28.72,23.78,28.78,23.83,28.77,24.14Zm-.58,15.54c0,.49-.22,1.25-.23.32C28.11,40.22,28,39.47,28.19,39.68Zm-3.47-7.74c0,.54-.15.23-.24.17C24.48,31.75,24.65,32,24.72,31.94Z" fill-rule="evenodd"/><path d="M28.68,21.55v.65c-.1-.07-.09.3-.2.16-.08-.43-.06-1.28-.17-1.62,0-.16.24.23.29.48,0,.5-.14.2-.08.81C28.67,22.27,28.52,21.31,28.68,21.55Z" fill-rule="evenodd"/><path d="M75.46,14.74c-.07.12-.12.1-.17.07.2-.09-.42-.22.1-.94l.54.41C75.7,14.39,75.28,14.37,75.46,14.74Z" fill-rule="evenodd"/><path d="M54.12,3.32c0-.17-.11-.18-.07-.49l.27,0C54.31,3.32,53.89,3.83,54.12,3.32Z" fill-rule="evenodd"/><path d="M49.14,4.18c-.08.24-.35.67-.43.14C48.67,4.41,49.08,3.85,49.14,4.18Z" fill-rule="evenodd"/><path d="M47.58,5.57c-.09.7-.13,0-.21-.17.05-.58.35-.06.45-.47.11.47-.27.31-.36.47S47.53,5.54,47.58,5.57Z" fill-rule="evenodd"/><path d="M45,5.79c.1.15-.11.49-.19.48,0,.35,0,.31.12.33-.17.24-.36.16-.46-.18.11-.28.3-.18.33-.8C44.91,5.49,45,6.2,45,5.79Z" fill-rule="evenodd"/><path d="M43,44.76c.09.44-.23-.36-.23,0C42.61,44.23,43,44.41,43,44.76Z" fill-rule="evenodd"/><path d="M42.14,44.89c0,.65-.17-.12-.28.32-.16-.17.15-.43,0-.49.15-.06.39,0,.77.19-.07.6-.16,0-.25.48A.74.74,0,0,1,42.14,44.89Z" fill-rule="evenodd"/><path d="M41.88,9.58c0-.14,0-.29-.08-.33.1,0,.32-.3.51-.15-.07.56-.37.07-.44.63C41.83,9.71,41.86,9.58,41.88,9.58Z" fill-rule="evenodd"/><path d="M41.87,10.07c-.07.71-.38,0-.64.31,0-.44.09-.32.1-.65-.09,0-.14.13-.14.48-.14-.38-.26,0-.41-.5.15-.86.32.44.46,0,0-.28,0-.31-.08-.32.07-.32.3,0,.37.49.08,0,.14-.1.18-.32.06.07,0,.51.16.33a2.81,2.81,0,0,0-.05.32S41.86,10.16,41.87,10.07Z" fill-rule="evenodd"/><path d="M40.42,10.84c.07.37-.25,0-.29-.17C40.25,10.06,40.28,11,40.42,10.84Z" fill-rule="evenodd"/><path d="M35.13,38.42c0-.48,0,.49.15.16s0-.34,0-.65c0,0,0,.06,0,.16s.08.16.08,0,0,.57,0,.81C35.35,38.58,35.12,39,35.13,38.42Z" fill-rule="evenodd"/><path d="M35.39,39.07c-.25-.24-.57,1-.67.15.24.19.21-.45.25-.81C35.11,38.77,35.24,39.15,35.39,39.07Z" fill-rule="evenodd"/><path d="M34.61,39.22c-.14.54-.39-.21-.4.64H34c0-.62.2-1.09-.07-1.13,0-.37.25-.06.35-.16,0,.23-.12.06-.12.32.07.49.19-.18.31,0a1.71,1.71,0,0,1,0-1.13A3.39,3.39,0,0,0,34.61,39.22Z" fill-rule="evenodd"/><path d="M34.28,46.83c-.19.45-.38-.44-.61-.33,0,.6.24.17.26.65-.22,0-.5-.07-.68-.65.15,0,.35.75.39-.32C33.94,46.15,34.1,46.63,34.28,46.83Z" fill-rule="evenodd"/><path d="M34,32.58c.21,0,.2.89.35,1.14-.09.44-.22-.22-.36.48A7.69,7.69,0,0,1,34,32.58Z" fill-rule="evenodd"/><path d="M34.29,32.1s0-.3,0-.49c-.13.14-.18.49-.32.16,0-.71.19.19.16-.48A.75.75,0,0,1,34.29,32.1Z" fill-rule="evenodd"/><path d="M33.18,41.15c.05-.23.19-.07.2-.48.11.27.31.55.35-.16.11,0,.06.68.15.81s-.2.32-.08.48c0,.42-.06-.22-.16,0,0-1-.17-.24-.27-.65,0,.43-.21.78-.24.16-.07,0,0,.55-.08.65-.23-.42-.33.05-.58-.33.07-.16.26-.35.08-.65,0-.36.1.21.19,0-.21-.57.25-.09.28-.65-.09-.35-.32.21-.19-.65-.12-.16-.07.36-.08.65-.22-.93-.61.37-.78-.33a2.32,2.32,0,0,0,0,.65c-.06-.14-.15-.13-.11-.65-.2.66-.24-.5-.55,0a6,6,0,0,1,0,1.46c-.08,0,0-.44-.15-.32.15-.26.11-.54,0-1.13-.08.21-.07.79-.24.65.11-.44,0-.4,0-1,.36.5.9-.9,1.13.16.23-.67.72-.9.94,0,.11-.14,0-.24,0-.65.21.67.42-.15.55.33.05-.49.24-.36.28-.48.08.45-.28.49-.28,1.13-.12-.52-.32-.11-.47,0,0,.79.14.2.19.49S33.11,40.3,33.18,41.15Z" fill-rule="evenodd"/><path d="M34,27.72a3.86,3.86,0,0,1,0,.81c-.13.08-.1-.44-.2-.49C33.79,27.62,33.87,27.55,34,27.72Z" fill-rule="evenodd"/><path d="M33.64,25.13v.32h-.12a3,3,0,0,0,0-.32c-.09.05-.16,0-.2-.16,0-.5.07-1.16,0-.81-.15-.58.16-.88.21-.32,0,.19-.08.14-.12.16A3.44,3.44,0,0,0,33.64,25.13Z" fill-rule="evenodd"/><path d="M33.54,26.91c.08.13-.1.57-.13.81,0,.43.16.13.12.65-.11-.13-.11.23-.2.16a9.93,9.93,0,0,0-.11-1.62c0-.21.07-.25.08-.49,0,.19,0,.64.2.65S33.54,27,33.54,26.91Z" fill-rule="evenodd"/><path d="M32.62,36.94c.15,0,0-.13,0-.49.14.41.42-.28.63-.16s0,.69,0,1c-.17.18-.22,0-.36.16v-.49c-.1.42-.18.41-.28.48a1.25,1.25,0,0,1,.07.49c-.22.2-.14-.92-.19-1S32.63,36.85,32.62,36.94Z" fill-rule="evenodd"/><path d="M32.9,42.12c.14.1.41-.3.38.49-.07,0-.2.16-.15-.32-.08.23-.12.61-.24.64,0,.28.13.3.19.49s-.1.35-.2.32A13.29,13.29,0,0,1,32.9,42.12Z" fill-rule="evenodd"/><path d="M32.77,33.54c0,.14-.13.14-.28.16.22-.33,0-.47-.08,0-.46-.22.12-.71.28-.81C32.75,33,32.69,33.51,32.77,33.54Z" fill-rule="evenodd"/><path d="M32.67,18.64c.21.35-.22,1.11-.29.81C32.46,19.14,32.64,19.2,32.67,18.64Z" fill-rule="evenodd"/><path d="M31.91,46s0,.16,0,.16c.14.39.27,0,.38,0,0,.28,0,.31-.08.32.09.45.3,0,.31-.48.07.22,0,.72,0,1.13-.35-.45-.46,0-.76-.49C31.8,46.31,31.89,46.32,31.91,46Z" fill-rule="evenodd"/><path d="M32.27,37.26c0,.45-.23-.08-.12-.32h-.08C32.13,36.48,32.23,37.13,32.27,37.26Z" fill-rule="evenodd"/><path d="M32,41.95c.08.4-.14-.12-.23,0,0-.13,0-.44-.08-.49.07-.22.13,0,.2-.48C32,41,31.77,42,32,41.95Z" fill-rule="evenodd"/><path d="M31.8,36.77c.12-.08,0,.8.15.65-.32.59-.43,0-.79.32C31.3,36.42,31.63,37.72,31.8,36.77Z" fill-rule="evenodd"/><path d="M31.64,28.51c0,.47-.24.13-.28.48C31.27,28.74,31.52,28.46,31.64,28.51Z" fill-rule="evenodd"/><path d="M31.54,41c0-.14,0-.15,0-.16.18-.36,0,.71-.12.81C31.28,41.38,31.49,41.1,31.54,41Z" fill-rule="evenodd"/><path d="M30.12,13.46c0,.18,0,.09,0,0,0,.1,0,.37-.13.32-.07-.32,0-.21,0-.65h.13A.56.56,0,0,0,30.12,13.46Z" fill-rule="evenodd"/><path d="M28.71,18c.19.15-.24.69,0,1.46a11.61,11.61,0,0,1-.25-1.94c.13,0,.17-.29.33-.16,0,.29-.15.27-.16.65,0,.14,0,.29.08.32S28.7,18.11,28.71,18Z" fill-rule="evenodd"/><path d="M28.86,43.24c-.18-.19,0,.9-.23.65,0-.16,0-.13.08-.16,0-.37-.22,0-.2-.65,0,.14.1.21.19.16,0-.68-.14-.74-.08-1.29,0,.08.06.17.12.16C28.63,42.84,28.86,42.54,28.86,43.24Z" fill-rule="evenodd"/><path d="M28.38,17.67c0,.38,0,.67-.08,1-.16-.4-.22-.15-.45-.16q0-.53.12-.49c0-.14,0-.15,0-.16C28,18,28.26,17.66,28.38,17.67Z" fill-rule="evenodd"/><path d="M28.1,37.42v.49c-.09-.31-.16.42-.35.16,0-.19.07-.14.12-.16s0-.15,0-.16S27.95,37.47,28.1,37.42Z" fill-rule="evenodd"/><path d="M27.76,19s0,.16.08.16a4.26,4.26,0,0,1,0,.49s0-.2,0-.32,0,.44-.16.32v-.48C27.7,19.15,27.73,19.44,27.76,19Z" fill-rule="evenodd"/><path d="M27.87,23.66c-.13.07-.42.91-.49,0C27.59,23.36,27.65,23.84,27.87,23.66Z" fill-rule="evenodd"/><path d="M27.65,21.07c-.07.53-.16-.63-.16.16-.05-.22-.23-.07-.13-.48-.16.21-.26.44-.37.49C27,20.72,27.53,20,27.65,21.07Z" fill-rule="evenodd"/><path d="M27.6,40s0-.06,0-.16-.22-.06-.15.49c0,0,0-.32-.08-.32s0,.35,0,.65,0-.7-.12-.81c-.14.33-.1-.23-.28-.16C27.05,39.35,27.53,39,27.6,40Z" fill-rule="evenodd"/><path d="M27.5,43.25c-.1,0-.23-.09-.23.33-.08-.09-.08-.25,0-.49-.25.64-.41.31-.66.17.2-.27.44-.47.7-.33a.59.59,0,0,0,0-.32C27.26,42.44,27.49,42.79,27.5,43.25Z" fill-rule="evenodd"/><path d="M26.5,25.61c.1.21,0,.6,0,.65-.09.11-.35.41-.33-.32-.06.07,0,.51-.16.32C26.08,25.55,26.38,25.92,26.5,25.61Z" fill-rule="evenodd"/><path d="M26.41,37.59c-.14,0-.06-1-.21-1C26.24,36,26.45,36.81,26.41,37.59Z" fill-rule="evenodd"/><path d="M26.27,39.69c.07-.5.19.18.16.65-.07.06-.07-.13-.08-.32,0,0,0,.06,0,.16S26.41,39.71,26.27,39.69Z" fill-rule="evenodd"/><path d="M25.79,42.94c.15-.23.12.81.17,1.62-.27.3-.68.12-.85.34C25.25,44,25.86,44.12,25.79,42.94Z" fill-rule="evenodd"/><path d="M25.55,42c.08.39-.16-.16-.2-.32,0-.57.13.34.12-.16C25.52,41.52,25.49,42,25.55,42Z" fill-rule="evenodd"/><path d="M24.78,42.63c.08,1.32.4.06.78.47-.08.65-.31-.16-.34.49s.14-.41.16.16c-.43,1.05-.89-.33-1.27.34-.08,0-.13-.13-.12-.48-.24.59-.59.22-.92.34.32-.47,1.13-1.13,1.55-.18A2.65,2.65,0,0,0,24.78,42.63Z" fill-rule="evenodd"/><path d="M24.45,40.85c.06.07,0,.21,0,.49.11.11.07-.34.11-.49,0,0,0,.32.08.32,0-.38.47-.47.43.16.17.1.12-.66.31-.49,0,.6-.15.15-.07,1-.21.08-.32-.28-.47-.48-.09,0,0,.44.08.32,0,.26-.25.33-.2-.16-.08.81-.29.16-.5.49-.06-.65.08-.51.06-1C24.35,41.22,24.44,41.23,24.45,40.85Z" fill-rule="evenodd"/><path d="M22.87,35.7a2.79,2.79,0,0,0,.07-.49c0,.94.26.12.33,1,0,0,0-.16.08-.16-.1-.55.19-.42.06-1.13a7,7,0,0,1,.18,1.62c-.15-.06-.52-.49-.59.17s.5.68.47,0c.17.24.08.55.06,1.13-.05-.36-.54-.3-.58.33a7.09,7.09,0,0,1,0-1.78,2.82,2.82,0,0,1-1.26,0c-.09,0-.27.55-.28-.32.51-.7,1,.58,1.41-.84C23,35.18,22.84,35.34,22.87,35.7Z" fill-rule="evenodd"/><path d="M23.31,45.24c-.12-.12-.14.17-.23.17-.09-1-.16.16-.35,0C22.84,44.57,23.21,44.14,23.31,45.24Z" fill-rule="evenodd"/><path d="M22.51,43.8c-.13-.51.24.33.15-.33.17.18.22,0,.35.16C22.92,44.6,22.71,43.64,22.51,43.8Z" fill-rule="evenodd"/><path d="M22.8,44.44c-.12-.12-.14.17-.23.17s0-.6-.13-.48.05.25,0,.49c-.05-.06-.07-.28-.12-.32.1.46-.09.14-.23.33,0-.35.09-.35.19-.33a1.84,1.84,0,0,1-.05-.81c.06.19.07.8.12.16C22.42,44.44,22.77,43.61,22.8,44.44Z" fill-rule="evenodd"/><path d="M21.8,43c-.06,0-.11,0-.11.16,0,0,0-.32-.08-.32s0,.32-.07.32c.16.27,0,.79.21.81,0,.23,0,.46,0,.49,0,.68-.15-.18-.19.33,0-.49-.08-1.76-.47-1.77,0-.88.29-.58.48-1.14C21.83,42.19,21.65,42.12,21.8,43Z" fill-rule="evenodd"/><path d="M20.75,20.52V21h-.12a4.27,4.27,0,0,1,0-.48h-.08C20.6,20,20.68,20.68,20.75,20.52Z" fill-rule="evenodd"/><path d="M21,43.83c0,.61-.31-.49-.22.49-.08-.31-.14,0-.23,0C20.54,43.5,20.88,43.7,21,43.83Z" fill-rule="evenodd"/><path d="M20.73,42.05c.1,0,0,.28,0,.65-.13.11-.15-.27-.17-.64S20.71,42.5,20.73,42.05Z" fill-rule="evenodd"/><path d="M18.79,43.56c-.07-.35-.09.12-.2-.16a2.34,2.34,0,0,0,0,.65c-.14,0-.27-.38-.43-.15,0-.16,0-.13.07-.16,0-.53-.13-.12-.1-.65.32,0,.78.4.87-.67.1,0,.19,0,.24.16a6.66,6.66,0,0,0,0,1c.1.09.14-.07.1-.49,0,0,0,.06,0,.16h.08c-.07,1.18-.51.39-.67,1-.05-.06-.07-.28-.13-.32C18.69,43.69,18.72,43.56,18.79,43.56Z" fill-rule="evenodd"/><path d="M19,37.4c-.19-1.38-.34,0-.47-1.12-.11,0-.16.3-.27.33s.19.42.16.16c.09.25-.08.66-.19.33,0,.55.1,0,.14.64.09,0,.12-.13.1-.49a2.81,2.81,0,0,1-.15,1.46c-.1.12-.09-.32-.17-.32-.06.5-.81.66-.91-.14-.13.08-.17.81-.24,0-.08,0-.06.44-.1.65a1.86,1.86,0,0,0-.4-.31c-.24.95-.75-.89-1,.36-.11-.49-.23-.31-.35,0-.18-.52.2-.7.08-1,0-.45.12.38.07-.33.36,1,.88-.17,1.09.77.19-1,.47-.37.77-.35s.44-1.11.55.15c0-.57.1-.38.26-.65,0-.35-.07-.31-.13-.32.09-.19.11-.65.26-.66-.13-.62-.4.37-.58.5.1-.16.09-.88-.1-.65,0-.23,0-.46-.05-.48.06-.42.25-.34.38-.5,0,.28-.06.37-.15.33.12.68.2-.7.32,0,.1-.15-.13-.36,0-.65.32.89.49.73,1,.46,0,.71.11.84.22,1A3,3,0,0,1,19,37.4Z" fill-rule="evenodd"/><path d="M18.9,32.39c-.06,1.11-.39.38-.57,1-.16-1.23-.86.53-1.13-.62C17.92,32.71,18.42,32.78,18.9,32.39Z" fill-rule="evenodd"/><path d="M18,39.7c.26.19.71-.62.91.3-.07-.24-.32-.32-.26.33-.13-.3-.23.36-.28-.32-.14.09-.2.51-.2,1.14-.15-.25-.17.09-.32-.15,0-1.18-.38-.1-.53-.79a2.63,2.63,0,0,0,0-.49c.25-.21.35.1.5-.18s.05.93.09.32c.16.27-.08.27-.06.49C18,40.79,18.12,40.13,18,39.7Z" fill-rule="evenodd"/><path d="M18.84,38.54v.32c0,.09-.06.17-.11.16l0-.65h-.08C18.68,37.85,18.74,38.72,18.84,38.54Z" fill-rule="evenodd"/><path d="M17.26,14c.1.82-.21.23-.18.81C17,14.63,17.12,13.89,17.26,14Z" fill-rule="evenodd"/><path d="M18.1,43.75c-.15.69-.37,0-.57.34C17.65,43.41,17.86,43.78,18.1,43.75Z" fill-rule="evenodd"/><path d="M15.52,11.92c0,.1-.19.29-.29,0,0-.51,0-.43,0-.81C15.38,11.19,15.4,11.79,15.52,11.92Z" fill-rule="evenodd"/><path d="M15.17,44.33c.1,0,.11-.26.18-.33a1.16,1.16,0,0,1,.08-1c-.1.25.09.66,0,.81.1.53.28.46.36.31.07.81-.53.56-.77.19,0-.23,0-.46-.06-.48.05-.6.17-.24.22-.33.11.3,0,.59-.1.33A1.28,1.28,0,0,1,15.17,44.33Z" fill-rule="evenodd"/><path d="M14.52,38.53a1.23,1.23,0,0,0,.09-.65c0,.44.17.45.19,1-.06.14-.32,0-.37-.47a3.33,3.33,0,0,0-.09.81c-.28-.17-.89-.52-1.06-.11-.12-.34-.18-.27-.22-.64.09.36.27-.46.33.31C13.7,38.36,14.24,38.16,14.52,38.53Z" fill-rule="evenodd"/><path d="M14.94,44.34c0,.86-.26.32-.42.18a.59.59,0,0,1,0-.32q-.06-.36-.21-.31c0,.62.17,0,.14.64-.13-.1-.26-.26-.3-.8s.32.34.33-.5c0,.29.23,1.2.08,1.13C14.67,44.75,14.87,44.41,14.94,44.34Z" fill-rule="evenodd"/><path d="M13,34.7c-.24-.05,0-.5,0-.49.2.08.14,0,.35-.18s.71.13.74-.36a2.06,2.06,0,0,0-1.4-.26,1.4,1.4,0,0,0-1.22.38c.17.34.47-.16.59.78,0-.19,0-.46,0-.49h.16c0,.38,0,.3,0,.81C12.38,34.32,12.77,35.08,13,34.7Zm-.63-.78c.12-.08.16.4.11.64A.91.91,0,0,1,12.35,33.92Z" fill-rule="evenodd"/><path d="M12.75,29.37h.2c-.09.43-.21.65-.38.5C12.58,29.24,12.8,30,12.75,29.37Z" fill-rule="evenodd"/><path d="M13.47,46c0-.4.13-.05.15,0,0,.33-.18.11-.17.49C13.26,46.24,13.62,46.15,13.47,46Z" fill-rule="evenodd"/><path d="M13,35.84c.14.6-.07,1.21-.36.83a2.6,2.6,0,0,0,0-.49c-.06-.29-.21-.12-.29-.31a1.24,1.24,0,0,0,0,.81c-.15.17-.19-.24-.26-.47-.14,0,.11.53,0,.49s-.11-.52-.16-.8c.27,0,.49-.88.79,0,.06-.07,0-.21,0-.49.08-.1.17.71.17.32.1,0,0,.28,0,.65h.08C13,36.16,12.9,36.06,13,35.84Z" fill-rule="evenodd"/><path d="M12.35,38.3c0,.19.08.56.12,0,.17.56.32,0,.52.3-.38.74-.84.2-1.28.38-.06-1,.37.2.4-.67C12.11,38.62,12.3,38.8,12.35,38.3Z" fill-rule="evenodd"/><path d="M12.67,43.63s0,.16,0,.16c0,.29.06.34.07.65-.1-.06-.14-.48-.25-.47C12.5,43.41,12.64,44,12.67,43.63Z" fill-rule="evenodd"/><path d="M11.52,32.34c0-.18.07-.11.06-.33.15.2-.15.79.11.64,0,.72-.12.42-.19.17S11.64,32.42,11.52,32.34Z" fill-rule="evenodd"/><path d="M11.79,35.57c0,.54-.14.08-.21.5s.22.19.3.47c-.11.51-.37-.19-.47.18a11.66,11.66,0,0,1,.09-1.46C11.61,35.49,11.67,35.84,11.79,35.57Z" fill-rule="evenodd"/><path d="M9.64,14.44c0-.44-.09-.32,0-.65a1.16,1.16,0,0,1,.16.64c-.09.21-.08,0-.2.17C9.48,14.48,9.58,14.43,9.64,14.44Z" fill-rule="evenodd"/><path d="M8.56,12.87c-.15.49-.51-.35-.74.2C7.74,12,8.4,12.84,8.56,12.87Z" fill-rule="evenodd"/><path d="M9.88,39.39s0-.06,0-.16-.25.43-.43,0c-.07-.66.18-.57.26-.34.1,0,0-.55,0-1C9.95,38.13,9.69,38.87,9.88,39.39Z" fill-rule="evenodd"/><path d="M7.9,13.88c.25.35-.09,1.41-.15.33.09-.09.08.31.14.32C8,14.36,7.81,14.1,7.9,13.88Z" fill-rule="evenodd"/><path d="M7.67,14.38c0,.76-.29.44-.45,1,0-.76-.16.09-.23-.31.11-.6.34-.06.46-.67C7.51,15.16,7.52,14.11,7.67,14.38Z" fill-rule="evenodd"/><path d="M2.88,16c-.23.36-.42.53-.77.37A.75.75,0,0,1,2.88,16Z" fill-rule="evenodd"/><path d="M2.31,17.95a.66.66,0,0,0,.06-.33,1.83,1.83,0,0,1,.13.64c-.15.23-.15-.34-.27-.31C2.22,17.75,2.3,17.78,2.31,17.95Z" fill-rule="evenodd"/><path d="M76.89,16.76c-.29.35-.47.12-.71.24.23.37-1.22,1.37-1.28,1.46-.56.77-1.37,2.08-1.85,1.39.84-.39,1-1.34,1.74-2.35.19-.26.38-.18.45-.26.91-1,1.38-2.72,1.74-3.18s.43-.2.63-.95c.42.25.07.77.68,1-.26.37-.39-.14-.63.1-.22.4-.11,1-.6,1.19-.2.28.35,0,.19.38C76.62,16.12,77.2,16.3,76.89,16.76Z" fill-rule="evenodd"/><path d="M46.4,7.47c0,.39-.19-.1-.15.48-.11-.4-.2-.41-.41-.34,0,.19.07.14.12.17-.21.31-.4-.49-.54-.18.21-.4.47-1.49.65-1.43a3.33,3.33,0,0,1-.29,1c0,.18.08.11.07.33C46,7.45,46,7,46.12,7,46.29,7.45,46.3,7.13,46.4,7.47Z" fill-rule="evenodd"/><path d="M44.2,9.81c-.14.64-.27.14-.49.63,0-.74-.24-.18-.36-.5.2-1,.51-.24.75-.95.14.15,0,.3,0,.81Z" fill-rule="evenodd"/><path d="M30.57,14.1c.43-.07.9-.34,1.21,0,0,.22-.09.3-.17.32.07.3.13-.11.21.32-.26.45-.5.06-.79.48-.07-.32,0-.21,0-.65C30.9,14.62,30.59,14.72,30.57,14.1Z" fill-rule="evenodd"/><path d="M27.35,18.48c-.15-.42-.09-.06-.29,0,0,.16.05.13.08.16,0,.64-.13-.12-.16.33-.09-.24,0-.4,0-.81h-.08s0,.3,0,.49c-.24,0,0-.65,0-1.13.11.52.28-.3.41-.16A9,9,0,0,1,27.35,18.48Z" fill-rule="evenodd"/><path d="M26.86,40.82c0,.37-.24.06-.35.16.08-.45.11-.11.23-.33-.05-.42-.19-.07-.2-.32,0-.66.1,0,.19-.32s-.05-.33-.12-.32c0-.23.13-.31.23-.33C27,40,26.64,40.5,26.86,40.82Z" fill-rule="evenodd"/><path d="M26.86,14.28a4.24,4.24,0,0,1,0,.49c-.31-.48-.66.77-.84-.32C26.25,14.4,26.66,13.54,26.86,14.28Z" fill-rule="evenodd"/><path d="M26.64,17.68a3.68,3.68,0,0,0,0,.81c-.31.6-.49.15-.86.17,0-.16.27-.42.29-.16a1.85,1.85,0,0,0,.08-.65C26.25,18.52,26.36,17.08,26.64,17.68Z" fill-rule="evenodd"/><path d="M24.31,42.15c0,.24-.16.51,0,.48-.08.29-.17.29-.27.17s.07-.14.11-.16c-.16-1.19-.43-.15-.7.17,0-.44.08-.31.11-.49s-.36-.18-.3.49c-.1,0-.13-.31-.15.16-.14-.84-.38-1.34-.64-.8,0-.46.23-.4.34-.66a.89.89,0,0,0,.09.48c.15-.57.56-.52.69-.34,0-.47.15-1,.23-.16,0-.24.14-.25.19-.49.06.07,0,.51.16.32C24.19,41.77,24.16,42.35,24.31,42.15Z" fill-rule="evenodd"/><path d="M22.67,15.14c-.28.38-.48.11-.78.34a5.16,5.16,0,0,0,0-1.13c.08-.07.1-.35.2-.33.06.21,0,.76.1,1C22.43,15,22.48,14.46,22.67,15.14Z" fill-rule="evenodd"/><path d="M11.35,35.58c-.09.39-.28.28-.3,1.15-.45.32-.77-1.05-1,.21.1-.57-.19-.38-.24-.8,0,0,0,.32-.06.33-.13-.16-.28-.16-.29-1,.15,0,.29,0,.34-.34A4.47,4.47,0,0,0,10,36c.2.12.33-.78.47,0,.05-.07,0-.21,0-.49C10.79,36,11,35.12,11.35,35.58Z" fill-rule="evenodd"/></g></g></svg>