<svg xmlns="http://www.w3.org/2000/svg" viewBox="0 0 94.8 102.29"><title>Asset 6-240</title><g id="Layer_2" data-name="Layer 2"><g id="Layer_30" data-name="Layer 30"><path d="M38.4,0S29.3,7.67,19.67,14.65,0,28,0,28l46.89,74.29s12.58-7.88,24.54-16.67S94.8,67.35,94.8,67.35Z" fill="none"/><path d="M25.59,68.54c-.06-.1,0-.1,0-.13-.12-.22-.25-.62-.12-.66C25.42,67.95,25.67,68.42,25.59,68.54Z" fill-rule="evenodd"/><path d="M29.83,73.42c-.13-.24.08-.12.09-.22C29.94,73.36,30.07,73.71,29.83,73.42Z" fill-rule="evenodd"/><path d="M29.65,72.5c-.2-.32,0-.24,0-.31C29.92,72.61,29.68,72.47,29.65,72.5Z" fill-rule="evenodd"/><path d="M30.09,72.91c-.14-.13.06-.15,0-.29l.19.3c.2.05-.07-.41.11-.38C30.76,73.29,30.32,73,30.09,72.91Z" fill-rule="evenodd"/><path d="M29.74,72.28c-.22-.34-.13-.35-.07-.39A1.1,1.1,0,0,1,29.74,72.28Z" fill-rule="evenodd"/><path d="M29.89,72.32c-.11-.31-.1-.51.16-.27S29.89,72.07,29.89,72.32Z" fill-rule="evenodd"/><path d="M19.14,55.55c-.15-.24,0-.12-.19-.45,0,0,0,0,.08.09l0,0C19.21,55.41,19.17,55.47,19.14,55.55Z" fill-rule="evenodd"/><path d="M19.74,56c-.12-.22-.15-.34-.1-.38C19.77,55.83,19.8,56,19.74,56Z" fill-rule="evenodd"/><path d="M12.21,44.13c-.11-.28,0-.22.11-.23C12.44,44.15,12.22,44,12.21,44.13Z" fill-rule="evenodd"/><path d="M30.7,72.6c-.2-.47.14-.16.27-.06S30.72,72.44,30.7,72.6Z" fill-rule="evenodd"/><path d="M20.08,55.42c-.18-.2,0,.13-.11.09-.18-.26,0-.29-.19-.45s.07-.11.06-.2A2.72,2.72,0,0,0,20.08,55.42Z" fill-rule="evenodd"/><path d="M12.83,44c-.09-.08,0-.46.28-.07A.38.38,0,0,0,12.83,44Z" fill-rule="evenodd"/><path d="M20.37,54.6c-.08-.17-.1-.35,0-.19S20.37,54.51,20.37,54.6Z" fill-rule="evenodd"/><path d="M32.08,72.6c-.3-.48.06-.13.17,0C32.43,73,32,72.39,32.08,72.6Z" fill-rule="evenodd"/><path d="M33.08,71.82c-.15-.11,0-.22.1-.08C33.44,72.19,33.08,71.66,33.08,71.82Z" fill-rule="evenodd"/><path d="M32.43,70.81c-.09-.15,0-.08-.08-.24.15.17.2-.16.3.07Z" fill-rule="evenodd"/><path d="M34.25,71.51c-.14-.26.09-.46.4,0C34.49,71.45,34.32,71.38,34.25,71.51Z" fill-rule="evenodd"/><path d="M23.77,54.51c.19.43-.33,0,0,0Z" fill-rule="evenodd"/><path d="M35.72,71.73c-.29-.57-.07-.45.12-.4C36.1,71.83,35.66,71.45,35.72,71.73Z" fill-rule="evenodd"/><path d="M26,56.23c-.08-.16-.19-.34-.13-.35a5.72,5.72,0,0,1,.46.7C26.29,56.66,26.13,56.24,26,56.23Z" fill-rule="evenodd"/><path d="M27.15,55.49c-.14-.23.05-.1,0-.19C27.43,55.69,27.18,55.42,27.15,55.49Z" fill-rule="evenodd"/><path d="M37.6,71.16c-.11-.17-.14-.5.12-.09C37.57,71,37.64,71.09,37.6,71.16Z" fill-rule="evenodd"/><path d="M23.84,50.33c-.24-.35,0-.22.24.11C24.07,50.55,23.88,50.27,23.84,50.33Z" fill-rule="evenodd"/><path d="M37.72,70.91c-.13-.51,0-.32.12-.55C38.05,70.8,37.84,70.81,37.72,70.91Z" fill-rule="evenodd"/><path d="M39.3,72.55c-.11-.25.32.31.29.08C39.73,72.92,39.45,72.73,39.3,72.55Z" fill-rule="evenodd"/><path d="M39.69,72.7c-.13-.21,0-.14-.13-.35a2.25,2.25,0,0,1,.28.39C39.77,72.67,39.71,72.64,39.69,72.7Z" fill-rule="evenodd"/><path d="M37.91,70c.34.37.29.07.4,0C38.45,70.32,38.45,70.74,37.91,70Z" fill-rule="evenodd"/><path d="M52.81,92.07c-.25-.34-.05-.22,0-.16C53,91.75,52.92,92.21,52.81,92.07Z" fill-rule="evenodd"/><path d="M28.27,55.2c-.14-.11-.25-.42-.14-.35C28.42,55.22,28.09,54.94,28.27,55.2Z" fill-rule="evenodd"/><path d="M36.06,66.12c-.3-.45-.18-.53,0-.43C36.25,66.1,35.88,65.73,36.06,66.12Z" fill-rule="evenodd"/><path d="M37.78,68.57c-.05-.1-.05-.19-.12-.21-.15-.27.13,0,.27.24s0,.14,0,.15S37.81,68.58,37.78,68.57Z" fill-rule="evenodd"/><path d="M35.59,64.66c-.15-.1,0-.22.1-.08s.06.1,0,.11,0,.05.05.11S35.57,64.5,35.59,64.66Z" fill-rule="evenodd"/><path d="M29.12,54.52c-.16-.16.07-.16.09-.23C29.38,54.62,29.16,54.38,29.12,54.52Z" fill-rule="evenodd"/><path d="M32.26,58.74l.06-.05C32.6,59.06,32.51,59.13,32.26,58.74Z" fill-rule="evenodd"/><path d="M32.46,58.27c-.34-.57.2,0,.18-.14C32.74,58.34,32.57,58.38,32.46,58.27Z" fill-rule="evenodd"/><path d="M44,74.61c0-.07.2.18.24.11C44.45,75,44.22,75,44,74.61Z" fill-rule="evenodd"/><path d="M35.93,61.46c-.18-.31-.07-.35,0-.32C36,61.33,35.92,61.33,35.93,61.46Z" fill-rule="evenodd"/><path d="M36.18,61.26c-.21-.34.16-.1.08-.37C36.43,61.2,36.23,61.26,36.18,61.26Z" fill-rule="evenodd"/><path d="M45.86,74.65c-.13-.25.07-.18.31.21C46.13,75,45.84,74.45,45.86,74.65Z" fill-rule="evenodd"/><path d="M37.13,61.72c-.22-.36-.08-.35,0-.43.19.24,0,.26.22.44S37.14,61.64,37.13,61.72Z" fill-rule="evenodd"/><path d="M37.16,61.08c.17.17.13.2.25.41-.09-.07-.09.08-.29-.23,0,0,.1.08.12.06S37.1,61.08,37.16,61.08Z" fill-rule="evenodd"/><path d="M37.07,61c-.15-.32.32.24.16-.14C37.54,61.35,37.29,61.25,37.07,61Z" fill-rule="evenodd"/><path d="M26.21,44.39c-.29-.4,0-.2.08-.06C26.47,44.63,26.16,44.23,26.21,44.39Z" fill-rule="evenodd"/><path d="M32,52.14c-.27-.37,0-.3.15,0C32.11,52.1,32.05,52.07,32,52.14Z" fill-rule="evenodd"/><path d="M29.22,47.33c-.08-.17-.11-.35,0-.19S29.21,47.24,29.22,47.33Z" fill-rule="evenodd"/><path d="M17.79,30.1c-.08-.14-.1-.21-.08-.25.12.18.16.19.29.38l0,0C17.85,30.08,17.81,30,17.79,30.1Z" fill-rule="evenodd"/><path d="M36.93,56.31c0-.46.48-.3.75-.46C38.16,57.06,36.95,55.83,36.93,56.31Z" fill-rule="evenodd"/><path d="M25.24,39.45c-.23-.32-.22-.51.08-.06Z" fill-rule="evenodd"/><path d="M22.41,35.12c-.14-.22,0-.17.11-.09C22.7,35.35,22.39,35,22.41,35.12Z" fill-rule="evenodd"/><path d="M25.46,39.11c-.08-.17-.08-.26,0-.29C25.71,39.18,25.45,39,25.46,39.11Z" fill-rule="evenodd"/><path d="M24.84,37.76c-.2-.13-.17-.48.08-.06C25,37.85,24.65,37.46,24.84,37.76Z" fill-rule="evenodd"/><path d="M24.95,37.67c-.18-.24-.12-.47.12-.1C24.93,37.47,25,37.66,24.95,37.67Z" fill-rule="evenodd"/><path d="M37.9,56.13c-.3-.42,0-.2-.23-.59.08,0,.17.07.36.33S37.83,55.94,37.9,56.13Z" fill-rule="evenodd"/><path d="M35.05,51.5c-.25-.23-.06-.25,0-.29s.06.1.05.11l.14.2C35.21,51.59,34.92,51.28,35.05,51.5Z" fill-rule="evenodd"/><path d="M35.68,51.75c-.13-.24-.28-.5-.16-.49S35.69,51.65,35.68,51.75Z" fill-rule="evenodd"/><path d="M29.1,42.13c-.08-.16-.08-.23,0-.27C29.28,42.17,29.24,42.27,29.1,42.13Z" fill-rule="evenodd"/><path d="M25.35,36.7c-.07-.11,0-.09-.11-.22.23.26.19.19.28.23C25.69,37,25.44,36.79,25.35,36.7Z" fill-rule="evenodd"/><path d="M19.79,28.57c-.27-.36,0-.19,0-.28C19.95,28.57,19.82,28.52,19.79,28.57Z" fill-rule="evenodd"/><path d="M53.51,75.34a1.82,1.82,0,0,1-.24-.58c.11.13.1.29.19.31S53.56,75.32,53.51,75.34Z" fill-rule="evenodd"/><path d="M27.27,37.89c-.1-.2.08-.21.29.07A.34.34,0,0,0,27.27,37.89Z" fill-rule="evenodd"/><path d="M55.27,77.14a2.55,2.55,0,0,0-.19-.31c.31.25.21.08.29-.09C55.64,77.23,55.46,77.25,55.27,77.14Z" fill-rule="evenodd"/><path d="M52.81,73.43c-.19-.33,0-.27.07-.37C53,73.35,52.88,73.28,52.81,73.43Z" fill-rule="evenodd"/><path d="M55.54,76.91c-.42-.57.2,0-.12-.37-.17-.24,0-.07.12.05.18-.28.24.17.05.11,0,0,.07.13.12.21S55.55,76.79,55.54,76.91Z" fill-rule="evenodd"/><path d="M24.66,33.05c-.13-.22-.21-.43,0-.27S24.69,33,24.66,33.05Z" fill-rule="evenodd"/><path d="M27.71,37.2c.33.36.16,0,.08-.23a3.6,3.6,0,0,0,.26.4c-.08,0-.06.11-.05.2A3.49,3.49,0,0,1,27.71,37.2Z" fill-rule="evenodd"/><path d="M26.91,36c0-.23-.4-1.06,0-.76.15.22,0,.1,0,.17.2.28.19.13.24.11C27.21,35.81,27.18,36.19,26.91,36Z" fill-rule="evenodd"/><path d="M55.91,76.61c-.2-.28-.05-.24,0-.3C56,76.53,56,76.58,55.91,76.61Z" fill-rule="evenodd"/><path d="M56.13,76.58c-.22-.3-.18-.34-.12-.37C56.14,76.42,56.24,76.6,56.13,76.58Z" fill-rule="evenodd"/><path d="M56.11,76.28c-.34-.47.58.3,0-.45a2.48,2.48,0,0,1,.43.57C56.34,76.37,56.28,76.29,56.11,76.28Z" fill-rule="evenodd"/><path d="M27.26,35.23l-.21-.29c.15.14.26.18.29.07.19.25-.15,0,.15.34C27.4,35.29,27.26,35.11,27.26,35.23Z" fill-rule="evenodd"/><path d="M38.94,51.66c.07,0,.1-.14.33.18C39.21,51.88,39.19,52,38.94,51.66Z" fill-rule="evenodd"/><path d="M27.69,35.49a2.23,2.23,0,0,0-.33-.5c.18.18.11,0-.06-.26,0-.09.35.48.34.34C27.64,35.21,27.75,35.44,27.69,35.49Z" fill-rule="evenodd"/><path d="M26.27,33.4c-.14-.23-.13-.41.16,0C26.34,33.32,26.3,33.36,26.27,33.4Z" fill-rule="evenodd"/><path d="M27.78,35.25c-.12-.23-.18-.42,0-.3S27.85,35.23,27.78,35.25Z" fill-rule="evenodd"/><path d="M28.09,35.62c-.23-.36-.14-.32,0-.18S28.08,35.54,28.09,35.62Z" fill-rule="evenodd"/><path d="M26.52,33c-.1-.08,0-.33.08-.23S26.52,32.93,26.52,33Z" fill-rule="evenodd"/><path d="M56.41,74.93c-.15-.21-.11-.25-.05-.27.22.29.24.37.4.6C56.67,75.2,56.47,74.93,56.41,74.93Z" fill-rule="evenodd"/><path d="M28.78,36c-.26-.32-.16-.62,0-.45S28.72,35.83,28.78,36Z" fill-rule="evenodd"/><path d="M23.3,27.92l0,0c.08.08.37.49.32.51C23.48,28.11,23.47,28.16,23.3,27.92Z" fill-rule="evenodd"/><path d="M55.52,73c-.08-.16-.3-.45-.21-.45C55.46,72.81,55.62,73,55.52,73Z" fill-rule="evenodd"/><path d="M55.74,72.84c-.21-.3-.11-.29-.11-.38C55.84,72.76,55.74,72.76,55.74,72.84Z" fill-rule="evenodd"/><path d="M28.42,34.39a2.48,2.48,0,0,0-.28-.39c.1.1.13,0,.34.34Z" fill-rule="evenodd"/><path d="M29.14,34.88c.12.16.12.2.11.22a.61.61,0,0,0,.15.18C29.59,35.66,29,34.85,29.14,34.88Z" fill-rule="evenodd"/><path d="M25.63,30c-.1-.34.26.12.12-.26C26.12,30.26,25.81,30.22,25.63,30Z" fill-rule="evenodd"/><path d="M29.37,35a2,2,0,0,1-.26-.57c.06.1.22.39.22.28.11.13.11.29.19.31C29.75,35.44,29.18,34.6,29.37,35Z" fill-rule="evenodd"/><path d="M28.53,33.82c-.31-.51.14-.16.21-.18C28.87,34,28.44,33.5,28.53,33.82Z" fill-rule="evenodd"/><path d="M56.77,73.06c-.14-.3.25.1.26-.06C57.17,73.3,56.87,73.1,56.77,73.06Z" fill-rule="evenodd"/><path d="M26.38,29.68a1.53,1.53,0,0,1-.22-.28c.1,0-.13-.4-.21-.45-.09-.29.19,0,.15-.29a3.65,3.65,0,0,0,.27.4C26,28.77,26.39,29.47,26.38,29.68Z" fill-rule="evenodd"/><path d="M29.44,33.67c-.11-.23,0-.42.24.1C29.4,33.42,29.65,33.89,29.44,33.67Z" fill-rule="evenodd"/><path d="M25.64,28.1c-.24-.28-.12-.38.07-.06Z" fill-rule="evenodd"/><path d="M29.46,33.33c-.14-.14.06-.18,0-.33C29.77,33.47,29.54,33.29,29.46,33.33Z" fill-rule="evenodd"/><path d="M29.69,33.61c0-.25.39.07.69.35C30.48,34.25,29.87,33.63,29.69,33.61Z" fill-rule="evenodd"/><path d="M26.33,28.93c-.39-.57.34.27-.05-.27a2.52,2.52,0,0,1,.3.38A1.32,1.32,0,0,0,26.33,28.93Z" fill-rule="evenodd"/><path d="M28.92,32.38c-.16-.21,0-.09,0-.16a4.38,4.38,0,0,0,.35.49C29.19,32.67,29,32.41,28.92,32.38Z" fill-rule="evenodd"/><path d="M28.52,31.62c-.16-.26-.29-.53-.07-.26S28.56,31.6,28.52,31.62Z" fill-rule="evenodd"/><path d="M29.16,32.17c-.12-.26-.22-.63,0-.35s0,.08.25.41C29.26,32,29.21,32.1,29.16,32.17Z" fill-rule="evenodd"/><path d="M44.69,52.87s-.14-.16-.23-.28.16.11.22.13C44.92,53.07,44.48,52.61,44.69,52.87Z" fill-rule="evenodd"/><path d="M29.71,32c-.4-.5-.05-.68.36,0a1.5,1.5,0,0,1-.23-.28C29.93,32,29.57,31.66,29.71,32Z" fill-rule="evenodd"/><path d="M45.77,53.68c-.06-.13-.23-.43-.06-.26l.21.29C45.9,53.77,45.84,53.74,45.77,53.68Z" fill-rule="evenodd"/><path d="M44.88,52.07a.27.27,0,0,1,0-.35C45.05,52,45,52,44.88,52.07Z" fill-rule="evenodd"/><path d="M59.87,72.3c.05,0,.24.2.31.2C60.3,72.7,60,72.55,59.87,72.3Z" fill-rule="evenodd"/><path d="M46.17,53.17c-.15-.26-.35-.57-.24-.58C46,52.81,46.2,53.08,46.17,53.17Z" fill-rule="evenodd"/><path d="M29.95,30.52c-.15-.22,0-.1,0-.19C30.14,30.59,30.07,30.6,29.95,30.52Z" fill-rule="evenodd"/><path d="M45.9,52.29c-.14-.2,0-.14-.15-.35,0,0,0,0,.09.08s.07.09.09.08C46,52.31,46,52.44,45.9,52.29Z" fill-rule="evenodd"/><path d="M60.78,72l-.21-.29c.13.08.31-.35.19,0C60.78,71.81,60.88,72,60.78,72Z" fill-rule="evenodd"/><path d="M63.4,75.42c-.17-.29,0-.27.07-.21C63.61,75.44,63.4,75.33,63.4,75.42Z" fill-rule="evenodd"/><path d="M46.29,51.33c-.27-.38,0-.33.12-.26S46.16,51.05,46.29,51.33Z" fill-rule="evenodd"/><path d="M63.88,75.17c0-.11-.22-.48,0-.19S64.11,75.4,63.88,75.17Z" fill-rule="evenodd"/><path d="M64.3,75.43l-.21-.29c.11.09.14,0,.35.33C64.42,75.51,64.32,75.38,64.3,75.43Z" fill-rule="evenodd"/><path d="M30.72,29.2c-.14-.22-.22-.38-.13-.37A.53.53,0,0,1,30.72,29.2Z" fill-rule="evenodd"/><path d="M61.55,71c-.23-.17,0-.2-.23-.43,0,0,.16.13.32.36S61.36,70.72,61.55,71Z" fill-rule="evenodd"/><path d="M64.23,74.54c-.29-.41.09,0,0-.28l.21.29C64.41,74.67,64.23,74.43,64.23,74.54Z" fill-rule="evenodd"/><path d="M63.54,73.41c-.2-.16.16,0-.2-.46C63.56,73.06,63.71,73.47,63.54,73.41Z" fill-rule="evenodd"/><path d="M64.86,74.79c-.07-.09,0-.09,0-.13s-.06-.1-.07-.1,0-.12,0-.16C65,74.75,64.92,74.75,64.86,74.79Z" fill-rule="evenodd"/><path d="M63.89,72.94l-.28-.39c.12.11.14,0,.19,0C64,72.86,63.87,72.82,63.89,72.94Z" fill-rule="evenodd"/><path d="M65.88,74.69c0-.18-.1-.38-.11-.53C66,74.49,66,74.65,65.88,74.69Z" fill-rule="evenodd"/><path d="M31.4,28.11c-.24-.37.16-.06.19-.17.19.25-.15,0,.16.34C31.45,28,31.55,28.16,31.4,28.11Z" fill-rule="evenodd"/><path d="M67.52,73.11l-.29-.38c.19.26.41.33.12.05s.19.16.16,0C67.6,73,67.59,73.07,67.52,73.11Z" fill-rule="evenodd"/><path d="M68.43,72.3c-.13-.21-.09-.27,0-.3C68.46,72.17,68.59,72.39,68.43,72.3Z" fill-rule="evenodd"/><path d="M31.06,22.46c-.15-.2,0-.08-.07-.26a.92.92,0,0,0-.19-.15c-.19-.31.12,0,.35.33C31,22.35,31.22,22.62,31.06,22.46Z" fill-rule="evenodd"/><path d="M67.07,69.82c-.05-.09-.11-.19-.14-.19-.11-.23.19.18.1-.09C67.21,69.79,67.12,69.78,67.07,69.82Z" fill-rule="evenodd"/><path d="M67.92,70.83c-.12-.21.05-.24.17-.15S68,70.92,67.92,70.83Z" fill-rule="evenodd"/><path d="M67,69.53c0-.15.11-.1.19-.16.13.24-.12.13,0,.34C67.12,69.59,67.07,69.54,67,69.53Z" fill-rule="evenodd"/><path d="M70.7,72.52c-.16-.3.22.06.08-.23C71.19,72.83,70.75,72.47,70.7,72.52Z" fill-rule="evenodd"/><path d="M70,71.57c-.26-.29,0-.12-.26-.41,0-.06.23.26.27.24C70.21,71.73,70,71.47,70,71.57Z" fill-rule="evenodd"/><path d="M71.18,73.05c.12.11.12,0,.25.1C71.57,73.42,71.49,73.45,71.18,73.05Z" fill-rule="evenodd"/><path d="M70.28,71.3c-.14-.29,0-.54.18-.32s.15.29.13.36c-.12-.31-.43-.24,0,.19C70.54,71.59,70.26,71.16,70.28,71.3Z" fill-rule="evenodd"/><path d="M70.44,70.18l-.22-.29c0-.16.3.33.3.21C70.69,70.33,70.5,70.22,70.44,70.18Z" fill-rule="evenodd"/><path d="M71.48,70.86c-.38-.52.06-.14-.07-.42C71.64,70.77,71.39,70.66,71.48,70.86Z" fill-rule="evenodd"/><path d="M73.13,72.91l-.22-.29c.18.21,0-.19.32.19Z" fill-rule="evenodd"/><path d="M34.31,20.45c-.18-.25-.09-.26-.09-.4.12.17.15.17.18.16C34.48,20.41,34.21,20.21,34.31,20.45Z" fill-rule="evenodd"/><path d="M75.72,74c-.12-.21.06-.15,0-.31C76,74,75.82,74,75.72,74Z" fill-rule="evenodd"/><path d="M35.77,19.09c-.14-.2-.16-.29-.15-.35C35.92,19.09,35.8,19.05,35.77,19.09Z" fill-rule="evenodd"/><path d="M36.42,17c-.06-.1-.07-.18-.13-.2-.15-.32,0-.31.22-.21A2.58,2.58,0,0,1,36.42,17Z" fill-rule="evenodd"/><path d="M37.42,18.19c-.17-.28-.18-.41-.33-.67C37.49,18.07,37.45,18.08,37.42,18.19Z" fill-rule="evenodd"/><path d="M37.12,17.32c-.09-.11-.09-.05-.12-.05-.2-.28-.09-.29-.27-.56.07,0,.18.21.13.2l.46.55a1,1,0,0,0,.1.4,2.53,2.53,0,0,1-.4-.45C36.82,17.06,37.28,17.58,37.12,17.32Z" fill-rule="evenodd"/><path d="M36.52,16.4c-.26-.38,0-.18-.05-.28s-.43-.52.06-.05C36.65,16.35,36.49,16.22,36.52,16.4Z" fill-rule="evenodd"/><path d="M79.79,71c-.47-.63.16,0,0-.31C80.08,71.09,79.77,70.93,79.79,71Z" fill-rule="evenodd"/><path d="M37,16c-.11-.11,0-.26,0-.34C37.07,15.86,37,15.94,37,16Z" fill-rule="evenodd"/><path d="M37.75,16.38c.17.15,0,0,.07-.07C38.14,16.68,38,16.77,37.75,16.38Z" fill-rule="evenodd"/><path d="M39.16,17.84c-.1-.18,0,0,0-.17C39.46,18,39.23,17.91,39.16,17.84Z" fill-rule="evenodd"/><path d="M82.38,71.58c.2.13,0-.11.06-.22C82.66,71.64,82.82,72.12,82.38,71.58Z" fill-rule="evenodd"/><path d="M47.38,27.51l-.22-.28c-.14-.26.08-.08.13-.12C47.3,27.22,47.45,27.46,47.38,27.51Z" fill-rule="evenodd"/><path d="M45.26,23.59c-.13-.17-.15-.24-.09-.24a.6.6,0,0,0,.16.17C45.5,23.75,45.31,23.64,45.26,23.59Z" fill-rule="evenodd"/><path d="M44.92,23.08c-.09-.17.08,0,0-.19.28.33.18.32.14.36A.6.6,0,0,0,44.92,23.08Z" fill-rule="evenodd"/><path d="M42.92,20.2c-.1-.23-.07-.24-.17-.5.07.08.15.15.18.16.19.22-.11,0,.18.32C43,20.1,43,20.2,42.92,20.2Z" fill-rule="evenodd"/><path d="M51.53,29.83c-.42-.51.11-.08-.08-.42s-.27-.19-.25-.09c-.56-.73.43.2-.23-.61.08,0,.17.07.19,0,.29.33,0,.19.06.27.35.31.21.37.62.73C51.61,29.58,51.54,29.63,51.53,29.83Z" fill-rule="evenodd"/><path d="M84.25,70c-.44-.53.14,0-.2-.47.17.14.36.56.62.73C84.89,70.65,84.3,69.94,84.25,70Z" fill-rule="evenodd"/><path d="M83.61,68.13c-.07-.27-.41-.4-.35-.65l.38.47C83.6,68,83.8,68.24,83.61,68.13Z" fill-rule="evenodd"/><path d="M84.29,68.8c0-.27-.5-.88-.45-1.06-.12-.16-.15-.15-.24-.26.06.16,0,.25.09.41-.22-.26-.66-.91-.82-.87-.32-.58.67.55.7.32a5,5,0,0,0,.75.78,7.88,7.88,0,0,1,.41.76c0,.09-.2-.06-.4-.28C84.48,68.86,84.36,68.72,84.29,68.8Z" fill-rule="evenodd"/><path d="M82.15,65.71c.06-.18.48.57.57.45,0,.11.15.28.14.36C82.54,66.08,82.46,66.11,82.15,65.71Z" fill-rule="evenodd"/><path d="M49.34,24.13a2.4,2.4,0,0,0-.45-.56s-.06-.14,0-.15C49,23.63,49.5,24.18,49.34,24.13Z" fill-rule="evenodd"/><path d="M45.16,18.7c-.13-.21-.14-.35.22.12C45.39,18.92,45.14,18.58,45.16,18.7Z" fill-rule="evenodd"/><path d="M44,16.33c-.28-.33,0-.34.06-.23a3.59,3.59,0,0,0-.41-.6c.19.16.5.51.75.77s-.11.22-.28-.06C44.09,16.27,44.12,16.4,44,16.33Z" fill-rule="evenodd"/><path d="M52.38,26.17c-.17-.27.07-.14.19,0S52.41,26.11,52.38,26.17Z" fill-rule="evenodd"/><path d="M54.78,28.17a5,5,0,0,1-.17-.5C55,28.16,54.89,28.19,54.78,28.17Z" fill-rule="evenodd"/><path d="M65.43,41l-.23-.28c.06,0,0-.19.15,0S65.42,40.92,65.43,41Z" fill-rule="evenodd"/><path d="M66.13,41.65a.82.82,0,0,1-.23-.45c.22.28.32.26.47.54C66.36,41.83,66.1,41.49,66.13,41.65Z" fill-rule="evenodd"/><path d="M87.46,67.09c0-.13-.11-.35.17-.16.09.12.05.17,0,0a1.17,1.17,0,0,0,.26.42Q87.76,67.45,87.46,67.09Z" fill-rule="evenodd"/><path d="M87.88,67.53c.47.34.38-.13,1,.5C88.69,67.89,88.45,68.14,87.88,67.53Z" fill-rule="evenodd"/><path d="M60.09,33.17c0-.11,0-.29.26.08C60.29,33.28,60.15,33.15,60.09,33.17Z" fill-rule="evenodd"/><path d="M87,65.38c-.22-.29-.41-.56-.37-.63a6.54,6.54,0,0,1,.52.66C87.07,65.35,87,65.35,87,65.38Z" fill-rule="evenodd"/><path d="M63.3,36.55c-.24-.6.47-.24,1.2.5C64.3,37.06,63.47,36.34,63.3,36.55Z" fill-rule="evenodd"/><path d="M66.8,39.49c-.29-.39.07,0,0-.21s-.26-.28-.28-.23c-.19-.32.26.13.41.27s.11.22.35.49C67.23,39.84,67,39.59,66.8,39.49Z" fill-rule="evenodd"/><path d="M83.94,59.36c-.13-.33.3,0,.47,0C84.53,59.71,84,59.2,83.94,59.36Z" fill-rule="evenodd"/><path d="M84.58,55.37l-.28-.4a1.94,1.94,0,0,1,.61.58C84.87,55.61,84.69,55.42,84.58,55.37Z" fill-rule="evenodd"/><path d="M25.25,67.14l-.08.06c-.09-.14-.18-.29-.21-.29s-.18-.34-.13-.36c.28.47.68.76.66,1A3.41,3.41,0,0,0,25.25,67.14Z" fill-rule="evenodd"/><path d="M34,74c-.08-.3.16-.3.41,0Z" fill-rule="evenodd"/><path d="M33.74,71.61c-.07,0-.21-.21-.23-.12-.16-.29-.42-.72-.44-.56A3.92,3.92,0,0,0,33,70.4c.25.43.57.74.49.83.22.3.13.09.15,0C33.74,71.36,33.55,71.36,33.74,71.61Z" fill-rule="evenodd"/><path d="M37.51,75.34c-.4-.59-.34-.85,0-.42C37.2,74.85,37.44,75,37.51,75.34Z" fill-rule="evenodd"/><path d="M35.24,71.35c.2.31,0,.32-.07.2s-.07-.18-.16-.33C35.16,71.45,35.26,71.55,35.24,71.35Z" fill-rule="evenodd"/><path d="M40.47,74.37c.28.07.59.07.6-.17.56.7.22-.48,1,.6.09,0-.36-.6-.23-.58s.35.3.49.37c-.17-.37,0-.29.3.06,0,0,.1.19.1.23-.28-.27-.39,0-.31.25.13-.09.45,0,.39-.32,0,0,0,.06-.12-.06s-.1-.27,0-.28c.16.21.16.35.22.28s-.15-.3-.13-.35c.31.21.59.23.53-.12.71.7.32-.63,1.25.68,0-.34.1-.49.55-.13,0,0-.21-.34-.15-.34.55.49.17-.55.51-.41.26.4-.24,0,.15.49,0-.58.73.06.9-.12.15.23,0,.16.2.45,0-.07.28,0,.24-.2a3.64,3.64,0,0,1,.29.38c0-.34.37,0,.65.09-.13-.24-.3-.34-.27-.4l.1-.08c.07.15.23.39.29.38,0-.29.39-.17.26-.67.2.41.11.06.12.06l.14.2c.58.26.46-1.12,1-.64-.19-.21-.36-.69-.07-.41s.1.23.24.42c.29-.52.9-.66,1.35-1.11,0,0,0,0-.1-.07.32-.06.61.14.65-.23.29,0,.52-.35.65-.38-.06,0-.24-.13-.26-.25.63.48.78.34,1,.09.35.45.54.31.2-.17-.09,0-.06.1,0,.28-.12-.12-.09.07-.35-.33.09-.07.29-.4.43.11,0-.57.6.08.64-.39.72.91.48-.14.83.4-.11-.29,0-.33.36,0,0,.38-.2.28-.13.58,0-.08.09-.1.26.1-.15-.38,0-.4.22-.19-.31-.43,0-.12.09-.07-.21-.33-.11,0-.31-.36,0-.26.23-.22.57,0,0,0,0,.11.07.25,0-.22.47.21.08-.38-.08,0,0,.21-.19,0,0-.27.18-.23.43,0,0,0-.13.09,0,.16s0-.21,0-.32c.68.56.63.21,1,.28-.23-.37-.06-.36,0-.47a2.47,2.47,0,0,0,.23.28c.19.25,0,.13.23.43.09,0,.13-.32.53,0-.1-.24-.06-.64.41,0-.06.19-.08.39-.29.25.22.34-.48.11,0,.67-.12-.13-.25-.29-.28-.23s.13.36.3.68c-.49-.7.13.41-.33-.19-.12,0,.15.28.14.35s-.31-.28-.4-.29c.15,1.07-.92.57-1.14,1.12.15,0,.24-.11.52.19,0,.05-.28-.2-.1.09.09.06.11,0,.24.11s-.41-.22-.33,0c.13,0,.26.37.28.39s0-.17.35.18c-.13-.19-.17-.2-.3-.38.06,0,.22.24.28.24-.47-1.2.56-.59.47-1.34.37.49.25.18.07-.06a2.16,2.16,0,0,1,.54.48c-.4-.71.33-.17.09-.71.53.5.28-.38.46-.39,0,0-.08-.06-.16-.18s0-.23.21,0S59,73,59,73.09c.62.59.43-.12.77,0a1.53,1.53,0,0,1-.11-.38c.23.25.26.08.35,0-.19-.29-.3-.51-.16-.49-.58-.6-.61-.28-.64-.08-.21-.42-.35-.41-.46-.71.44.5.43-.12.6,0-.06,0-.1,0-.28-.23,0,0,0-.39.19-.16-.14,0,.18.4-.12.1a2.7,2.7,0,0,0,.63.56c-.21-.31-.14-.07-.39-.46,0,0,0-.1,0-.13.22.25.26-.05.49.37,0-.26.25-.34.71.18,0-.4,0-.82.36-.79a2.18,2.18,0,0,0,.3.37,2.43,2.43,0,0,1-.2-.46c.25.33,0,0,.19.15,0,0,.14.23.18.32,0-.06.08,0,.16,0-.21-.31-.15-.07-.39-.45.05,0-.06-.2-.06-.27.33.3,0-.42.36-.15a3.66,3.66,0,0,0,.27.4c0-.09-.26-.48-.24-.59.1.14.09.19.18.32-.43-.77.34-.17.41-.2s-.16-.12-.16-.18c.41-.05.49-.46.76-.66.08.11.09.17.14.19.05-.18-.16-1.77.59-.51,0,0,0,0,.11.07s-.06,0,0,.14,0-.27.08-.38c.11.11.24.27.34.34-.38-.78.49.19.41-.2.19.25,0,.13.24.43-.42-.94.38-.52.41-1,.2.25-.16,0,.15.35,0-.42.55-.38.57-.83.17.34.16.08.36.32.34.77-.26.33-.07,1,.11.13.35.51.38.46-.62-.94,0-.59-.1-1,.12.14.11,0,.32.35-.29-.67.07-.76.51-.62-.27-.46.21-.08.11-.41.07.17.39.57.35.65-.21-.23-.26-.46-.31-.37.51.72-.07.44.08.73.06,0,.1.19.29.38-.13-.33.15-.1,0-.46.26.26.62.42.1-.09.48.5.28-.06.69.35-.24.09,0,.58-.1.72.33.26.24,0,.35,0a2.54,2.54,0,0,1,.2.3c.29-.16.37-.41,1,0-.08-.11-.21-.27-.2-.3.41.3.48-.05.56-.19s-.06,0-.18-.16c.07-.07.09-.23.39.13,0-.07-.3-.43-.22-.44.21.17.53.52.72.64-.34-.32-.21-.77.22,0,.15,0,0-.37.45.07a3.49,3.49,0,0,1-.26-.57c-.71-.9-.76-1-1.3-1.73.07.28.09.46-.4-.12.18.27,0,.38-.18.17.35.7-.43,0-.52.31-.34-.47-.14-.06-.45-.4a1.31,1.31,0,0,0,0-.34,2.1,2.1,0,0,0,.47.54c-.19-.3-.05-.31.13-.12-.29-.42-.2-.11-.37-.31a3.33,3.33,0,0,0-.09-.56c.44.5.54.36.45.08a1.37,1.37,0,0,1,.36.48c-.16-.55.13-.59.52-.31-.49-.73.35.06.23-.21a1.06,1.06,0,0,1-.27-.24c.1,0-.08-.21,0-.18.28.37.33.29.47.38-.12-.19-.29-.27-.29-.38.22,0,.33,0,.23-.37.26.3.45.58.54.48a3.16,3.16,0,0,1-.28-.39c-.14-.09.15.34-.08.07,0-.27.5.28.1-.42.09.06.12,0,.34.33-.06,0-.3-.36-.29-.22.36.42.28.5.25.58.14-.06,1,.91.51.18a12,12,0,0,1,1.18.54c.1.14.1.19.19.32s-.24-.61.22,0c-.07.09-.23.09-.07.39,0,0,.1,0,.21.13-.25-.16.27.38,0,.33.29.35.18.34.39.62.16.11.21,0,.43.26.08.4,0,.4-.43.07,0-.07.17,0,0-.17-.05.14-.2-.39-.25-.25a2,2,0,0,1,.27.72c-.26-.41.12.32-.32-.19,0,.12.21.35.23.44-.6-.49-.79-.18-1-.19.11.09.14,0,.36.32,0,0,0,.1,0,.13-.38-.38-.13.2-.55-.31-.08.09,0,.17-.21,0,.15.22.35.44.21.46-.14-.2-.1-.23-.24-.43-.16.08-.13.65-.6.22.9,1.66-1-.08-.38,1.14-.1-.13-.1-.06-.18-.16q.13,0-.17-.33c-.06.11-.09.06-.35,0,.43.5.5.31.86.68.1.21-.07.18-.11.26.23.26.39.13.44.09s-.23-.32-.18-.32.25.23.29.23,0-.64.48-.11c-.1,0,0,.16.12.38.12-.47.51-.34.78-.7.07.1.07.13.13.21-.05-.31.34-.06.13-.61.1.14.1.19.19.32a1.83,1.83,0,0,0-.11-.55c.14.26.3.26.51.51q-.24-.31-.17-.33c.14.1.16.25.24.27a1.29,1.29,0,0,0,0-.61c.14.17.16.4.33.51-.27-.59.54-.16.71-.16-.14-.07-.18-.35,0-.16-.16-.26-.3-.24-.31-.36.31.35.21,0,.37.15s0,.11.17.33a1.52,1.52,0,0,0,.6.26c.16.56-.73.09-.4,1,.19.21,0-.15,0-.19.5.61.1,0,.32.19.55.81-.22.11-.11.42,0,0,.06,0,.18.16,0,0,0,.1,0,.13-.15,0-.61-.14-.23.37-.12,0-.68-.56-.59-.28a2.3,2.3,0,0,1,.86.67c.1.13-.08.17.08.25-.11-.42,0-.41.07-.55-.13-.14-.07.1-.29-.22.07,0,.05-.23.28.07.07.2.41.47.25.25-.11,0-.26-.36-.26-.41.11.14.11,0,.14,0a3,3,0,0,0,.31.36c.06,0,0-.19,0-.3.62.33.14-1,.58-.85,0,0,0,0,.06.11-.29-.45.07-.22-.16-.5.09.07.3.15.19,0s-.07.08-.23-.11a.65.65,0,0,1-.11-.22c.24.22.15.08.1-.09l.27.24c0-.24.07-.25.11-.42a2.48,2.48,0,0,1,.2.3c0-.14,0-.18.19,0a2.58,2.58,0,0,0,.25.58c0-.22.15-.23-.15-.67-.07,0,.15.34-.08.08a1.76,1.76,0,0,0-.16-.5c.13.17.19.2.2.14a2.26,2.26,0,0,0,.57.61c-.26-.36-.32-.33-.55-.63.14,0-.1-.16-.1-.24s.37.26.46.22a6.07,6.07,0,0,1,.33.67c.14,0-.18-.46-.11-.55.18.24.2.32.31.36-.35-.68,0-.68.08-.89-.2-.21.08.22-.14,0s0-.14-.1-.24c.19.22.22.14.5.52-.17-.42.16-.23.17-.48.13.12.6.67.38.3,0,0-.06,0-.18-.16s0-.2.16-.31c.53.65.63.47,1,.74-.07-.17-.2-.21-.21-.3.54.3.61.16,1,.19,0,.25.21,0,.33.34-.09-.27-.07-.54.1-.42s-.38-.42-.3-.38.28.34.22.13c.26.35.43.52.5.52s-.28-.36-.26-.41c.17.1.13,0,.25.09a1.12,1.12,0,0,0,.17.33c0-.12.18.17.24.27a1,1,0,0,1,.43.25,9.86,9.86,0,0,1-.82-1c-.09,0-.39-.39-.59-.59.21-.28.83-.22,1.61.29a3.45,3.45,0,0,0,.69.83c-1.32-1.87.64-.13.26-1.07-.39-.54-.48-.56-.92-1.11.2,0-.17-.56-.39-1,0-.26.08-.21.1-.42.09.11.18.22.18.16s-.18-.13-.39-.45c.06-.17-.63-1.08-.35-1a7.64,7.64,0,0,1-.81-1c.1.12.14.07,0,0s-.11-.13,0-.12c.09.18.65.63.33.19a1.79,1.79,0,0,1-.79-.73c0,.1-.15,0-.33-.19s-.17-.3-.24-.44-.29-.26-.44-.4c-.16-.36-.19-.8.42-.23,0-.19-.62-1.07,0-.47a1.63,1.63,0,0,0,.28.56c.07-.06-.32-.72.12-.28.36.74.43,1.3.06,1.26.54.41.43-.22.28-.76.25.15.32-.1.16-.48.09,0,.3.27.38.29.1-.15-.33-1.29.55-.19.18.09-.25-.33-.18-.33a1.35,1.35,0,0,1,.43.42c.52,1,.66,1.65,1.11,2.58a3.58,3.58,0,0,1,.8.73c.39-.32-1.3-2.69-.87-3-.77-.82-.92-1.35-1.66-2.06,0,0,0-.07,0-.16a12.55,12.55,0,0,1-1.41-1.79c-.13-.15-.09,0-.2-.14.06-.05-.26-.41-.39-.62s-.07,0-.22-.12c-1.75-2-2.7-2.93-4.63-5-.49-.32-1.24-1.13-1.74-1.48-.26-.41-.72-.72-1-1.18,0,.06-.08,0-.21-.12.06,0,0-.08-.09-.25,0,.15-.38-.4-.41-.44-.63-.68-1.24-1.14-1.95-1.94-.11-.5,1,.55.77-.08a2.89,2.89,0,0,1,.84.69c0,.06,0,.15.21.46s.77.46,1,.38c.7.81.7.35,1,.5.15.18.05.16.27.4.06-.3.42-.32.85-.16,1,1,1.12.45,2,1.53a1,1,0,0,1,.65.37,16.61,16.61,0,0,0,1.08,1.45c.46.46.56.3.93.6-.28-.35-.43-.74-.15-.52s.13.26.24.43c.52.49.89,1,1.4,1.48,0-.08,0-.28.37.14,0,.08-.29-.21-.08.08.06,0,.33.3.4.28-.51-.62,0-.09.1-.09-.13-.25-.38-.45-.58-.77.14-.26,1.76,1.37,1.17.36-.13-.11-.15,0-.19,0a20,20,0,0,0-2-1.56,3.78,3.78,0,0,0-.29-.39c0,.1.12.33.09.42-.17-.16-.34-.32-.34-.17-.29-.49-.38-.35-.66-.69-.06-.19-.1-.22-.43-.58,0,0-.19-.27-.09-.25.32.08.75.23.95.07A4.65,4.65,0,0,0,78,52a8.36,8.36,0,0,0-1.5-1.54c-.15-.06.24.31.09.25a32.31,32.31,0,0,1-2.45-2.62c.25-.12-.66-1.21-.38-1.31-.34-.42-.35-.55-.61-.91a2.86,2.86,0,0,0-.35-.32,2.23,2.23,0,0,1-.31-.54c-1-1.27-.93-.78-1.69-1.69-.07-.37.25-.43,0-1a2.91,2.91,0,0,1-.8-.89c-.33-.21-1-.94-1.26-1.11.23.61,1.12,1.66,1.29,2.25-1.32-1.38-1.61-.74-2-.9a.84.84,0,0,1,.26.25c0,.15-.18,0-.31,0,.32.36.05.23.21.46a1.15,1.15,0,0,1,.35.33c-.28.18.05.88-.08,1.25a1.44,1.44,0,0,1,.21.29c-.4.23-.24.9-.39,1.38a1.42,1.42,0,0,1,.21.29.32.32,0,0,0-.34,0s.08.06.17.17c-.36.08-.27.89-1.44-.44.11.08.12.06,0-.14a2.35,2.35,0,0,1-.76-.76c0,.19-.49-.31-.7-.66a3.79,3.79,0,0,1-.32-.36c-.11,0-.1,0,0,.15a2.62,2.62,0,0,0-.24-.27s.06,0-.11-.23c0,.18-.36-.4-.59-.59,0,.1.43.62.25.58a5.58,5.58,0,0,0-.53-.65s.25.18.06-.06c0,0-.31-.32-.42-.42s0,.07,0,.15c-.22-.39-.07.09-.42-.42.3.15.26-.09.21-.37.55.59.54.19,1.09.77a.93.93,0,0,0,.11.23,4.34,4.34,0,0,1,.44.41c.07-.28,1.31,1.2,1.58,1.13-.41-.51-.34-.6-.15-.52-.38-.46-.24-.4-.12-.38-.74-.84-.66-1.1-1.29-1.75.12.1.16.07,0-.15s-.06.09-.29-.22c-.11-.14,0-.12,0-.15-.8-1-.93-.74-1.53-1.34-.19-.76,1,.49,1,0l.3.37c.45.15-.81-1.38-.5-1.35a4.72,4.72,0,0,1-.67-1.51c-.11-.1-.13-.37-.35-.66.25-.25-1.44-1.75-1.86-2.36a11.07,11.07,0,0,1-1-1c0-.06-.1-.21-.21-.29l.06-.06c-.48-.58-.45-.65-.78-.91.08.42-.38.14-1.1-.6,0,0-.18-.25-.11-.23-.33-.43-.25-.15-.53-.48.21,0,.8.73,1,.82-.23-.25-.18-.26-.37-.48,0,0,.05.14,0,.15-.12-.21-.26-.26-.49-.53-.05.08-.18-.1-.35-.16.12.16.17.39,0,.19.12-.05-.23-.23-.26-.41-.25,0-.49-.24-.54-.14a2.78,2.78,0,0,0-.52-.83c0,.1-.19-.17-.27-.24-.34,0-1.18-.87-1.54-.83-.36-.57,0-.39,0-.7a8.35,8.35,0,0,0-.7-1c-.09.23-.89-.32-.59.42-.57-.48-.08.62-.42.57-.13,0-.26.17.19.81-.25.15-.23.65-.46.94-.21-.23-.28-.44-.32-.36.32.56-.1.42.06.78.31-.17.7-.17.94-.41.11.13.15.13.26.25-.31,0,.59,1.54,0,.79.08.13-.28-.17-.28-.06.64.87-.16.14-.17.33.2.24,0,.13.26.42s.27.21.51.5c.43.74,0,.39-.1.59a1.33,1.33,0,0,1-.23-.28c0,.1.08.41-.28-.06-.07-.25.05,0,.15,0a1.86,1.86,0,0,0-.57-.61,7.67,7.67,0,0,1-.5-.85s-.1,0-.21-.13-.11-.26-.32-.52c0,.16-.09.16-.34,0,.4.5.17.41.11.39-.19-.28-.19-.37,0-.29-.37-.4,0-.18-.33-.51-.17-.08.6,1.23-.14.47.25,0-.14-.52-.22-.79-.95-1.29-.83-.75-1.27-1.1,0,.25-.64-.12-.48.29.14.07.1-.19.53.32s-.27-.15,0,.29c.16.06,0-.18.34.17,0,0,.12.18.12.21a1.74,1.74,0,0,1-.64-.54c.24.29-.23-.2,0,.14a4.47,4.47,0,0,1,.4.44c.05-.09.21,0,.51.34.28.59-.23.14.17.83-.18-.2-.41-.28-.28-.06,0,0,.11.06.25.25-.53-.2-.62,0-.9,0-.17-.33,0-.21-.08-.42a2.21,2.21,0,0,1-.46-.39,2.82,2.82,0,0,0-.44-.74c0-.15-.19-.54.07-.4-.36-.38-.25-.1-.22,0-.07-.09-.1-.1-.16-.17a11.59,11.59,0,0,0-1.33-1.71c-.09-.77,1.05.12.92-.71.18,0,.71.4.75.11.17.23.19.18.39.45-.05-.35.29-.18.63.05-.5-.65.29.09.1-.26a1.37,1.37,0,0,1,.23.28c-.36-.7.67.42.54,0-.12,0-.36-.56-.43-.41.15.23.32.32.3.37-.45-.57-.48-.34-.91-.78.34.6-.15.17-.27.27-.16-.17-.64-.72-.45-.4,0-.1.25.34.36.48-.08.09-.39-.14-.53-.15-.32-.46-.21-.31-.06-.27a7.16,7.16,0,0,1-.45-.56c-.16-.05.07.24.12.38-.48-.64-.36-.08-.67-.35.17.2.23.31.18.32a1.36,1.36,0,0,0-.22-.28c-.26.28-.27.83-.71.84.16.39.13.9-.62-.07-.7-.22-.69.49-1.24.52.26.57,0,.61-.2.52,0,0,.14.25,0,.15-.46-.36-.46-.75-.36-.81,0,.11-.49-.62-.65-.86,0-.39.12-.49.06-.88.07,0,.26.24.31.2-.23-.43.27.06.28-.1s-.29-.53-.26-.58.39.3.43.25-.07-.23-.06-.27.14.2.13.2S44,24,44.06,23.9s.23.26.24.27c.18.11-.15-.45-.13-.54.26.23.29.47.39.46-.25-.32-.15-.33-.29-.55.45.48.13-.2.52.33,0-.26,0-.65.06-.72s-.13-.13-.24-.27c.11-.09.14-.14.05-.38.08.09.08.12.14.2.12-.21.2-.41.4-.39-.08-.14-.2-.3-.26-.41.23.21.15.09,0-.16.17.15.46.53.36.32a.51.51,0,0,1-.21-.46c.15.19.13.08.33.35s0,.14.18.32c.07-.12-.15-.4-.5-.84-.16-.12-.21-.06-.35-.16.4.56,0,.38-.21.21,0,0-.12-.18-.12-.21s.21.27.24.27c-.38-.66,0-.42.13-.46-.33-.34-.2-.31-.5-.68-.11.11-.2.25-.33.32.19.14.18.32.24.43-.14-.11-.43-.3-.35-.16s.13.13.24.27c-.39-.36-.34-.11-.53-.16.13,0-.09-.22-.11-.39s-.3-.15-.07.23l-.22-.28c.11.44-.58,0-.51.49-.09-.11-.21-.27-.24-.27.13.49-.59.06-.37.52-.28-.35-.32-.55-.12-.38-.53-.64-.21-.06-.2,0l-.15-.19c0,.15.33.6.3.7s-.44-.34-.42-.09c.38.41-.08.13.08.42.19-.1.18.61-.32,0,.07,0-.11-.26-.14-.36,0,.11-.12-.06-.43-.42,0,.16-.2-.09-.26-.08.24.29.28.21.46.39,0,0,0,.08,0,.14-.12-.08-.52-.54-.23-.11a3.51,3.51,0,0,0-.31-.36c.05-.44,0-.67.52-.5-.1-.41.52.07.25-.57.14.18.1,0,.27.24,0-.44.92.35.51-.49-.05,0,0,.17-.25-.09.07,0,0-.53.5.19,0-.09,0-.2,0-.2-.29-.42-.08.06-.29-.21,0-.1,0-.42.48,0,.24-.27.33-.59.92-.23-.38-.49.2.19.21.13s-.38-.44-.36-.48,0-.09,0-.12.23.18.31.2c-.19-.28-.05-.26,0-.32.58.69.32.15.39.12.31-.13.87-.1,1-.32-.36-.13-.22.15-.69-.16.14.54-.52.19-.64.45-.19-.24-.25-.27-.4-.44s-.06-.2-.16-.35.1.57-.45.1c.24.32.05.19,0,.18.47.68.23.85,0,.8s.12-.14-.07-.27c0,0-.08.09-.31-.2,0-.08.17,0,0-.18s-.11.17-.56-.45c-.12,0,.31.34.26.42s-.1-.1-.1-.07a3.35,3.35,0,0,1-.48-.7c-.26-.19,0,.2.15.35-.24-.21-.25-.39-.45-.56s-.28-.08-.3,0,.11.08.18.16.16.33-.07.07c0,0,.05,0,0-.13-.28-.18-.23.17-.63-.23.06.16.25.26.28.39s-.33-.26-.43-.25c.1.14.4.47.36.48s0,.28-.35-.16c0-.08,0-.19-.08-.26.07.26-.16.1.13.54-.15-.06-.39-.52-.49-.52s.29.36.27.4c-.15-.15-.62-.41-.25-.09-.13,0-.13,0-.23.05a2.59,2.59,0,0,1,.28.39c-.51-.12-.37.5-.8.43.12.17.21.22.22.28-.2-.07-.37-.14-.12.28a2.92,2.92,0,0,1-.21-.3c.08.23-.16.09-.33,0-.26-.41.07-.16-.39-.78-.05.15.52,1,.27.9.15.23.31.32.3.38s-.11,0,0,.18a1.33,1.33,0,0,0-.44-.41c.16.46-.45-.08-.1.59-.43,0-.69.35-.59.88-.19-.22-.16,0-.44-.41.19.42-.31-.12,0,.36,0,0,.06,0,.18.16s0,.1,0,.19c-.12-.15-.25-.33-.25-.26.43.65-.16.15-.3.12a1.29,1.29,0,0,0,.25.26c0,.1-.07.26-.46-.22,0-.14.37.36.14,0,0,0-.18-.19-.25-.26.27.69-.09.71-.25.72s.17.34.15.35-.42-.37-.38-.14c0,0,0,0-.06.05s0,.35-.35,0,0-.24-.15-.35c0,.08,0,.21-.11.11.39.48.23.47,0,.28a1.4,1.4,0,0,0-.24-.59c0,.23.18.8-.46-.06.07.1.07.14,0,0-.12-.29-.3-.47-.43-.75.45,1-.73-.22,0,1.13-.14-.18-.14-.22-.28-.39-.05,0,.19.34,0,.28s-.18-.2-.31-.37a.34.34,0,0,0,0,.28c0-.1.21.08.46.38-.21-.06.08.42-.37,0,.13,0-.18-.33,0-.28-.19-.21-.47-.6-.49-.52a2.6,2.6,0,0,1,.28.39c-.32-.44-.61-.4-.69-.34.26.37.24.24.46.55-.1-.09-.13-.06-.16,0a3.19,3.19,0,0,0-.42-.59c-.11,0,.22.33.16.34-.27-.36-.22-.13-.45-.4.18.38,0,.13-.22-.12a4,4,0,0,0,.25.58,2.51,2.51,0,0,1-.29-.38c0,.16,0,.1-.17,0l.23.43c-.17-.17-.11,0-.23-.27-.3,0,.47,1.09.22.93.52.71.25.5,0,.31.15.24.31.33.29.38-.2-.18-.21-.12-.2,0a3.45,3.45,0,0,1-.33-.5c.09.19-.09.05,0,.17a1.21,1.21,0,0,1,.26.25s.08.2,0,.17l-.22-.29c.28.64-.26.31,0,.79,0,.13-.22-.22-.27-.24a2.82,2.82,0,0,0,.23.27c.13.25-.59-.33-.11.1-.1,0-.4-.34-.27-.07.05,0,.23.23.22.29-.08-.16-.22-.31-.24-.26a1.06,1.06,0,0,1,.14.35c-.16-.3-.2-.11-.16,0s0,0,.1.07.07.33-.13.12,0-.06-.09-.24,0,.19,0,.3c-.45-.55.18.56-.37-.14.39.26-.46-1,.19-.33-.4-.54-.11-.26-.17-.49-.24-.29-.15-.25-.26-.41s0,.14.09.24c-.09-.09-.07,0-.26-.25,0,0,.05,0,0-.14,0,.13-.12,0-.31-.19.09.29-.16.07-.21.36s.24.28.26.41c-.51-.27-.05.73-.36.65.19.32.44.53.39.62a2.55,2.55,0,0,1-.44-.56c.15.5-.37,0-.43.23.55.87-.24.25.15,1,0-.2,0-.28.33,0s.12.66-.35,0c.18.41-.44-.27,0,.35-.47-.6-.62-.43-.56-.14,0,0-.1-.09-.13,0-.14.24-.48.31-.32.93-.11-.15-.25-.34-.24-.27.18.25.36.5.31.52-.16-.2-.18-.34-.23-.28s.16.33,0,.16c.07.17.19.22.2.3s-.1,0-.2-.14,0-.11-.18-.32c.1.26,0,.18.08.41.24.33,0-.05.34.34.58,1.5-.05,1.49-.25,2-.2-.23,0-.24-.17-.33,0,.38.23.71-.21.34-.05,0,.19.39.27.56-.23-.2.11.61-.41,0,.25.36-.1,0,.11.38-.26-.36-.23-.26-.11-.06-.41-.55-.18-.06-.45-.4.21.35.12.31,0,.2.07.17.19.22.2.31-.24-.17,0,.43-.5-.2.29.49,0,.51-.35.15.39.56.14.59,0,.35a7.57,7.57,0,0,1,.31.84l-.25-.42c-.35.13-.17.87-.83.72a1,1,0,0,1,.18.32c-.63-.65.09.89-.76-.29-.08.06.24.35.29.54-.24,0-.13.48-.52.14.1.35,0,.28,0,.61-.16-.22,0-.15-.16-.33-.11.17,0,.49-.47.08.33.46.15.4.4.76.1,0,.22-.11.64.4.07.24-.35-.28-.19,0,.61.54.17-.28.4-.34a2.9,2.9,0,0,1,.19.31c.18.13.08-.17,0-.35.73.39.27-1,1.1-.48a.72.72,0,0,1,0-.82c.31.48-.09.26.23.75.08-.06.17-.6.61.11-.19-.26-.42-.57-.39-.61s.17.17.2.14c-.36-.57.1-.47.22-.5a.62.62,0,0,1-.16-.18c.16.16-.13-.47.18-.15-.05,0,0,.07.08.25.31.3-.23-.43-.09-.39.17.22,0,.15.17.33,0-.24.41-.21.39-.5-.21-.33-.1,0-.31-.36.06,0,0-.18.14,0s.09.18.18.32c.27-.15.35-.53.72-.63.36.42.15-.28.29-.26s.2-.35.29-.57.62-.22.46-.89c.11.15.24.34.24.26a2.58,2.58,0,0,1-.27-.4c.12,0,.31.15.57.45-.13-.21-.21-.37-.3-.54,0,0,.13.34-.09.08,0-.07-.18-.3-.07-.26.51.56.18.19.4.28,0,0,0,.11.1.23-.16-.36.33.07.16-.31-.19-.09-.14,0-.37-.15,0-.13.09-.09,0-.34.15.17.19.36.29.39-.23-.47.67.49.42-.06,0,.11-.19-.08-.19-.15s.16.11.22.13c-.43-.71.12-.2-.05-.59a2.28,2.28,0,0,1,.33.34c-.21-.34-.15-.56-.1-.55.23.3,0,.13.14.36.1-.2-.1-.57-.17-.81,0-.06.22.26.26.25-.34-.4-.29-.59-.27-.72.25.34.37.5.42.59-.1-.1-.09,0,0,.17s.22.39.39.62c-.07,0-.14-.12-.23-.28.06.32-.26.19-.21.5-.08-.11-.14-.24-.21-.29.28.32,0,.1.17.33a1.17,1.17,0,0,1,.3.53c-.09-.15-.16-.25-.23-.28.4.62-.16,0,.07.42-.14-.11-.2-.33-.24-.26l.29.39a1.29,1.29,0,0,1-.18.32c-.07,0,.39.44.26.41-.31-.45,0,.33-.53-.33.1.44-.3,0-.09.56-.13-.16-.32-.24-.17,0,0-.09.2.13.17.17-.54-.25-.63.28-1,.27,0,0,.1.09.17.17l-.06.05a2.83,2.83,0,0,1-.2-.3c.12.29-.39-.25-.3-.05s.06.13,0,0a1.39,1.39,0,0,1,.24.43s0-.08.13,0c.16.51-.34.23-.51.29.08.22.29.29.35.49-.3-.32.22.57-.13.12-.17-.26,0-.29-.33-.66.11.31.52,1,.14.67.71.95.19.69.45,1.19-.18-.16-.48-.36-.33,0,.19,0,.43.15.87.67,0,0-.05,0,0,.14s-.26-.48-.08-.41c-.27-.37-.19-.07-.44-.41.08-.16.15-.3.38-.18-.11,0,.21.34.15.34s-.29-.21-.16,0c.35.53.44,1,0,.64.36.59-.14.11-.15.13a1,1,0,0,1,.25.41c-.32-.45-.39-.19,0,.16-.06.06-.25-.18-.36-.32a7.76,7.76,0,0,0,.36.8c-.17-.24-.19-.33-.3-.38a2.84,2.84,0,0,0,.18.32.6.6,0,0,1-.16-.18c.45.75-.42-.17-.21.18,0,0,.06,0,.17.17-.1,0-.18.07-.45-.25.29.46-.17-.12-.18,0,.44.66.24,1-.12.41.12.29.31.62,0,.32.35.53.19,0,.4.29s-.18.12-.07.38a5,5,0,0,1-.62-.73,4.93,4.93,0,0,0,.27.55s0-.05.11.06c.2.41,0,.35-.45-.25.1.06-.26-.48-.25-.42.28.43.11.43.34.81.17.09-.16-.32,0-.29a4,4,0,0,0,.45.56c-.13,0-.16.08-.13.27-.14-.19,0-.16-.25-.42-.13-.06.21.36.22.44a1.2,1.2,0,0,1-.35-.33c.25.63,0,.43-.18.63.29.45.09-.08.3.22.21.68,0,.72.11,1.32-.09-.14-.09-.19-.18-.32.22.52-.2.08.1.55-.56-.28-.8.49-1.4.09-.11.11.16.84-.42.2.21.44-.23.15-.05.51,0,0,.12.16.12.21-.53-.22,0,.82-.5.74.36.5.09-.31.58.45.2-.06.48.23.61.11,0,0-.06,0,0,.14s0,0,.1.07c-.11,0-.09.13.07.41.05-.17.14-.38.49-.1.28.46-.27.14-.11.4.22.1.47.27.64.25.17.35.07,0,.31.37s-.09.11-.09.23c0,0,.25.24.22.28s-.07,0-.11.09c-.09-.13-.15-.35-.26-.41.11.3.31.83-.08.38.13.19.17.2.29.38,0,0-.08,0,0,.18l-.21-.3A2.75,2.75,0,0,0,30,44c-.12,0-.44-.09-.19.32.18.08,0-.51.45.09.18-.21.57-.22.59-.5s.32,0,.35-.14,0-.48.37,0c-.19-.17,0,.25-.22,0,.07.17.19.22.19.31-1.2,0-.65,2.73-1.78,3,.62.89.13.73-.11.56.34.58-.18.06.12.53.19.19.14-.14.43.27a4.32,4.32,0,0,1,.39.61c-.07.34-.74-.39-.53.13.09-.1.68.59.81.42,0,0,.53.83.34.5-.49-.67,0-.18-.23-.59.07,0,.27.24.49.53.25.47.05.48.24.89s.45.53.38.3c.78.58.56-.69,1-.66,0,0,.21.25.2.14s-.07-.94.58-.32c0-.25.15-.19.28-.24-.18-.27-.21-.39-.11-.38.11.22.09.12.27.39a.33.33,0,0,0,0,.29c.12.12.09-.06.34.34-.11.08.16.55.11.69s.22.26.22.13c-.32-.62-.12-.71-.62-1.5a2.68,2.68,0,0,1,.51.66c.48.41.33-.23.7,0a3.64,3.64,0,0,1,.33.66c.15,0,.17.27.33.5-.14-.4.05-.45.07-.69,1.63.52,1.71-1.46,2.89-1.51a3.73,3.73,0,0,1,.34-.92c-.22-.52-.2-.91.08-.7-.13-.3.11-.49.15-.6-.1.08.1.13.23.28-.11.14-.31.07,0,.6a.83.83,0,0,1-.19-.15s0,0,0-.12.48.61.43.74c-.38-.51,0,.19-.52-.51,0-.09.23.18,0-.16-.17.08-.21.33-.21.49.3.3.08-.25.24-.2l.38.46c.25.17.1-.22.48.21,0,.51-.4-.18-.53,0,0,0,.07.06.07.1s-.2,0-.17.3c-.14-.11-.69-.64-.14.12,0-.14.05-.23.37.16.27.07-.2-.75.16-.45,0,.09,0,.28.21.61.11,0-.24-.44-.08-.4s.09.19.18.32c-.06-.25,0-.53.31-.1a5.64,5.64,0,0,0-.07.69c-.1-.14-.27-.37-.16-.18l.14.19c.45.3-.07-.56.51,0-.12,0,.05.38-.19.16.35.55.26.78.08.72.72.51,0-.81.17-1.09.27.34.14.44.44.72-.19-.75.75-.11.92-.32.06.51,0,.8-.3.73-.07,0,.24.25.2.31-.38-.24-.42.3-.45.7a1.32,1.32,0,0,0-.21-.29c.41.79-.17.39-.1.72,0,0,0,0,.1.07-.4,0-.72.24-.57,1l-.28-.39c0,.58,0,1.32-.69,1.06.15.21.21.32.16.33-.89.32-1,2-1.89,2.21,0,0,0-.06.19.16-.69-.3-.79.15-1,.4-.14-.12-.34-.38-.49-.52.3.43.18.21.51.66-.43-.33-.58-.16-.57.17l-.21-.3c.16.47.12.71-.19.47,0,0,.13.14.22.28s-.07.26-.3-.06c0,.13-.08.12-.33-.19,0,.14.33.48.38.62a3.31,3.31,0,0,0-2.22,1.66c.65-.33,1.36-.56,1.7-1.38.19.28,0-.21.28.23.08-.6,1.06-.12,1-.84.08.11.19.28.22.28a1.12,1.12,0,0,1-.28-.55c.34.41.15-.13.57.31-.28-.45.23-.17.33-.12-.07-.14-.24-.38-.22-.43.26.36.05-.1.32.2-.26-.48,0-.28,0-.47.43.58.31.2.4.13-.06-.17-.19-.22-.19-.31.59-.09.82-.67,1.54-.66,0,0,0,0,0,.12s-.16-.29-.06-.26c.19.27.17.17.28.39-.06-.26.2-.12.33-.12-.2-.32-.19-.22-.31-.37.07,0-.09-.21,0-.17.14.2,0,.16.24.42.17.07-.17-.37,0-.3.32.47.16,0,.41.28a4.24,4.24,0,0,0-.38-.62c.11.05.19.09,0-.18l.21.29c0-.11-.17-.6.18-.15-.15-.06.14.52-.23.19.57.79.21-.42.79.28-.27.42-.66.49-1.07.74.11.17.2.23.21.3s0,.2-.17,0,.24.18-.07-.25a.37.37,0,0,0-.21.33s.3.18.39.45c-.61-.22-.74.39-1,.55a9.15,9.15,0,0,1-1.5.47l-.14-.2c.17.59-.44,0-.2.63a1.07,1.07,0,0,1-.44-.41c0,.08-.18,0,0,.18,0-.1.19,0,.45.4a.53.53,0,0,1-.58.17c.1.5-.36.36-.25.83.3.22.06-.63.73.32-.26-.15.12.59-.23.34.24.34.2.36,0,.28.47.86-.34.25-.12.87a2,2,0,0,0-.49-.38c.21.33.15.09.29.38.07,0,0-.2.17,0A7.4,7.4,0,0,1,37.12,64c.63.93-.06.32,0,.59.38.4-.08.2-.13.26a1.35,1.35,0,0,0-.06.82c.4.41,0-.32.33-.11a2.11,2.11,0,0,1,.28.54c-.13-.16-.12.08.1.38,0-.2.16-.09.35,0,.1.37.38,1.08-.13.57.23.5,0,.39-.07.67.39.52.13.48,0,.59.22.52.45.68.4.9.18.16,0-.17.17,0,.28.49.57,1,.42,1-.09-.14-.08-.19-.17-.33a1.09,1.09,0,0,0,.13.66c-.24-.19,0,.09-.05.19s-.41-.09-.07.51c.21.18,0-.27.44.27.12.32-.29-.18-.05.19s.13-.31.49.22l-.1.08c.2.3.28.21.43.57,0-.07.17,0,0-.17,0,0-.11,0-.25-.26,0,0,.17-.05.27-.06.28.7,0,.9-.21.93a3.9,3.9,0,0,1,.28.54c.09-.05.17-.11-.07-.25,0-.09.22.15.37.32.19.57-.18,0-.21.16C40.21,73.93,40.35,74.08,40.47,74.37ZM24.93,32.82c-.23-.35,0-.16.07-.06S25,32.87,24.93,32.82Zm1.91-2.6-.08-.41a2.88,2.88,0,0,0,.2.31c-.06,0-.06.09.05.27C27,30.39,26.86,30.21,26.84,30.23Zm3.46-7.88a.92.92,0,0,0,.24.26c.16.21.12.24.07.26-.12-.22-.15-.18-.27-.4-.06,0,0,.21-.21-.13C30.25,22.46,30.27,22.38,30.3,22.35ZM49.47,28c-.19-.25.13.1.06-.06l.22.28c0,.07-.09,0-.13,0S49.5,28,49.47,28ZM79.85,62.62c.22.1-.11-.52.27-.09C80.2,62.71,80.26,63.1,79.85,62.62ZM59.31,71c0-.17.06-.28.27-.23C59.66,71.12,59.52,71.12,59.31,71ZM40.26,73.63c-.13-.2,0-.16-.23-.43,0-.09.18.13.19,0,.07.12,0,.11,0,.14a.56.56,0,0,0,.15.19C40.51,73.75,40.34,73.71,40.26,73.63Zm-1.54-4c-.12-.22-.08-.27,0-.29a.93.93,0,0,1,.17.48A.56.56,0,0,0,38.72,69.66ZM37.58,66c-.13-.23-.18-.63.15-.12C37.59,65.81,37.67,65.91,37.58,66Zm8.67,8.37c-.17-.1-.15-.53.12-.1C46.33,74.23,46.2,74.2,46.25,74.33Zm.78.13c-.15-.19,0-.27-.17-.32s0-.38.22,0C46.95,74.11,47,74.33,47,74.47Zm-19.19-35c-.21-.3-.06-.31.05-.2C28.13,39.61,27.89,39.44,27.85,39.44ZM41,56.66c-.3-.41,0-.14,0-.18C41.2,56.75,41.1,56.77,41,56.66Zm1.68-1.89c.29.37,0,.14.11.37s0-.08.15,0c-.55-1.14.25-.71.43-1s0-.81.22-.81a1.21,1.21,0,0,1,.24.26c-.14-.31.16,0,.19-.17.25.3.16.26.2.14a2.87,2.87,0,0,0,.35.49c0,.1-.18-.17-.26-.25a4.37,4.37,0,0,0,.29.54c-.08,0-.25-.26-.34-.33s.16.29.15.35c.26.29.17-.1.54.32,0,.13-.28-.17-.32,0,.15.12.23.1.35.17-.11-.47-.8-1.38-.71-1.6C44.08,53,44,53.08,44,53c-.23-.58.31-.1,0-.66.09.08.13,0,.27.24,0-.1-.19-.58.09-.23,0,0-.22-.33-.16-.33.56.54.13-.54.57-.18-.24-.5,0-.58.19-.48-.45-.81.06-.76.49-.43.09-.15-.1-.39,0-.48-.05,0-.36-.27-.25-.1-.26-.36-.14-.37,0-.46s.07.13,0,.12c.28,0-.2-1.34.87-.29-.08,0-.1.13,0,.33-.08-.19.44.11,0-.5,0-.09.15.06.29.22s.32.46.22.44c.16.24,0-.12.26.25-.09.1-.33-.09-.41,0,.18.17.31.19.42.11.15.72.06.92-.35.94.33.44.33.23.61.58-.32-.06,0,.63-.26.54l-.14-.19c-.16-.2-.11-.2-.09-.23-.24-.27,0,.13.22.44,0,0,0,.23-.07.22-.15-.21-.11-.24-.06-.26-.35-.37-.09.23,0,.5s-.25-.32-.26-.25a.33.33,0,0,1-.55.32,1.28,1.28,0,0,0,.32.51c0,.11-.12,0-.31-.21.29.54-.1.23-.31.11,0,.06.27.29.19.3s-.07-.05-.16-.18c-.07,0,.25.46.08.4-.16-.25-.36-.54-.62-.89,0,0,.29.42.41.6s-.26-.22-.32-.19c.33.4.71,1.16.15.5,0-.13.15,0,.24.11a2.87,2.87,0,0,1-.35-.49c.12.34-.06.11-.23,0a5.63,5.63,0,0,0,.63.88c-.16-.1-.27-.13-.44-.25s-.09-.24,0-.28-.29-.34-.38-.46c0,.08.13.13.2.31-.06,0-.17-.1-.18,0-.17-.17-.09-.12-.28-.39.11.38.64,1,.47,1,.09.11.17.18.19.15.41,1-.69,0-.37.79-.2-.17-.24-.29-.15,0a2.46,2.46,0,0,1-.53-1,4,4,0,0,1,.26.4c.13,0,.56.33.31-.26-.13.15-.5-.17-.63-.09a2.05,2.05,0,0,0-.37-.47c0,.14.45.52.47.69-.22-.25,0,.3-.35,0,0,.05.12.17.16.18.15.27-.27-.24-.25-.1a.84.84,0,0,0,.19.15c.2.3-.1-.06-.06.06s.07.06.1.07c.18.26,0,.16.11.37-.16-.17-.43-.41-.18,0a.81.81,0,0,0-1,.08l-.21-.29c.11.5-.19.4-.31.58-.4-.82.18-.45.27-.7S42.45,54.69,42.66,54.77Zm-.82,1.64c-.41-.83.26-.36.27-.7C42.44,56.39,41.95,56.27,41.84,56.41ZM54.13,71.69c-.24-.46,0-.26,0-.48C54.27,71.49,54.36,71.86,54.13,71.69ZM43.83,53.3c-.19-.25-.21-.34-.15-.35l.21.29ZM58.41,73.24c-.16-.3.13-.09.17-.15C58.72,73.36,58.48,73.27,58.41,73.24ZM44.92,54.41s.43.52.51.67C45.3,55,45.13,54.7,44.92,54.41Zm.12.06c-.08-.12,0-.11,0-.14.19.29.2.23.37.47C45.34,54.84,45.14,54.57,45,54.47ZM57.28,71.38c-.14-.23-.12-.42.17,0C57.45,71.5,57.32,71.34,57.28,71.38Zm1.3.62c.07,0,.23.12.12-.1C58.82,72,59,72.6,58.58,72ZM43.26,50.79c-.23-.34,0-.22,0-.19C43.55,51,43.28,50.72,43.26,50.79Zm16,22c-.29-.4.12-.13-.06-.42.08,0,.28.46.3.37C59.52,72.86,59.37,72.8,59.28,72.81Zm-29-40.55c-.14-.2-.1-.23-.24-.43.05,0,.23.29.2.14C30.48,32.26,30.35,32.21,30.32,32.27Zm.29.06c0-.09,0-.33.12-.27C31,32.48,30.68,32.31,30.61,32.33Zm-1.72-2.46c.19.17,0-.16.17,0C29.33,30.22,29.12,30.24,28.89,29.86ZM30.45,32c-.16-.24-.24-.45-.05-.27S30.6,32.13,30.45,32Zm.31-.11c-.12-.23-.18-.41,0-.3s0,.09,0,.16.09,0,.14,0C31.06,32.1,30.87,31.9,30.76,31.87Zm.07-1c-.33-.49.14-.08,0-.32C31.08,30.95,30.78,30.66,30.83,30.86Zm.34.34c-.13-.21,0-.21.13-.12s-.11,0,.17.33A1.43,1.43,0,0,0,31.17,31.2ZM44.89,49.85A1.51,1.51,0,0,1,44.8,49c.13.19-.07.07.24.43C44.88,49.45,45,49.73,44.89,49.85ZM31,30.72c-.07-.16-.26-.71.19-.17C31,30.35,31.05,30.67,31,30.72Zm.64.71c-.17-.25-.28-.49-.14-.36S31.71,31.43,31.63,31.43ZM31.42,31c-.06-.2.11-.17.15-.29.33.52-.22,0,.21.62,0,.07-.09,0-.13,0S31.44,30.85,31.42,31ZM60.88,70.33c-.26-.31-.06-.2-.06-.27C61.08,70.38,61,70.46,60.88,70.33Zm-29-39.58c0-.28.23-.28.23-.68-.32-.4,0,.15-.24-.1s0-.23,0-.31c.29.33.33.5.64.87C32.26,30.63,32.33,31,31.86,30.75Zm15,19.64c-.34-.47-.18-.46-.11-.54C47.05,50.34,46.89,50.35,46.81,50.38Zm-.36-1c-.35-.48.24-.23,0-.15C46.48,49.37,46.48,49.41,46.45,49.43ZM32.17,29.67c-.28-.36,0-.19,0-.28C32.31,29.68,32.17,29.53,32.17,29.67Zm.33.18a.87.87,0,0,1-.21-.45,3.65,3.65,0,0,0,.27.4Zm-.43-1.38c-.06-.09-.19-.37,0-.15,0,0-.08-.13-.13-.21.1,0,.12.13.3.37C32.23,28.61,32.06,28.37,32.07,28.48Zm.22,0c-.05-.09-.11-.19-.14-.19-.16-.21,0-.09,0-.16C32.25,28.27,32.36,28.45,32.28,28.45ZM32,27.27c-.23-.34.08,0,0-.28C32.23,27.34,32,27.17,32,27.27ZM29.6,24c.14.06.27.12.67.68A5.93,5.93,0,0,1,29.6,24Zm2.11,2.77c-.09-.17-.13-.4-.27-.4-.29-.43.06-.13.07-.23A1.37,1.37,0,0,1,31.71,26.72ZM63.32,69c-.12-.22-.15-.18-.27-.4.26.11.29.09.38,0C63.65,68.95,63.37,68.86,63.32,69ZM30.23,24.51c-.32-.4-.19-.52.1-.09C30.22,24.39,30.43,24.7,30.23,24.51ZM32,26.79c-.22-.29-.07-.31,0-.2S32,26.64,32,26.79ZM63.54,68.64c-.28-.34,0-.25,0-.18S63.68,68.78,63.54,68.64Zm-32-43c-.22-.28-.2-.38-.07-.26S31.54,25.61,31.5,25.62Zm-.29-1c.14,0-.08-.5.1-.41.23.28.19.31.42.59-.15-.15-.09.11-.38-.31C31.59,24.82,31.28,24.57,31.21,24.59Zm.1.07c.14.14.43.55.32.52-.39-.61,0,.11-.43-.41C31.32,24.79,31.26,24.74,31.31,24.66Zm-1.21-2c-.17-.32,0-.13.1-.09C30.38,22.92,30.21,22.74,30.1,22.69Zm36,45.74c-.12-.15-.11-.18-.2-.3s.2.11.21,0C66.34,68.42,66.26,68.56,66.11,68.44ZM32.58,23.67c-.22-.36.13,0-.17-.49.12,0,.31.18.16-.14l.36.48C32.75,23.46,32.82,23.79,32.58,23.67ZM66.32,68.09c.18.1.07-.09.21,0C66.76,68.39,66.58,68.45,66.32,68.09ZM32.72,23.22c-.32-.52-.17-.59.14-.29-.28-.5-.48-.88-.07-.58.17.31-.2,0,.35.81C32.9,23.11,32.92,23.36,32.72,23.22Zm1,1.22c-.21-.28-.09-.3,0-.19.19.27.24.41.2.46A1.2,1.2,0,0,0,33.69,24.43Zm.27.07c-.25-.36.07,0,0-.2.13.17.17.19.3.37A.81.81,0,0,1,34,24.51ZM68.54,69.8c-.09-.2-.05-.24,0-.2C68.85,70,68.54,69.66,68.54,69.8ZM32.08,21.7c-.16-.21,0-.1,0-.17.13.24.16.2.19.15C32.56,22.08,32.15,21.7,32.08,21.7Zm1.16,1.37L33,22.78l.07-.07C33.32,23,33.2,23,33.24,23.07Zm35.6,46.78c-.11-.18-.11-.26,0-.28C69,69.81,69,70,68.84,69.85Zm-1-1.48c-.14-.18.12,0,.16,0C68.23,68.79,67.94,68.52,67.8,68.37Zm-.16-.5c-.18-.25-.09-.24,0-.28C67.84,67.89,67.79,68,67.64,67.87ZM68,68s-.08-.09-.07-.1c-.19-.26-.12,0-.34-.34.07,0-.1-.21,0-.17s.14.16.18.16C68,67.81,67.84,67.76,68,68ZM32.44,21c.09.11.09.06.12.06.15.17.2.36.29.38s-.29-.25-.43-.41c0-.08-.17-.3,0-.18S32.44,21,32.44,21ZM69.76,70c-.24-.31-.23-.51.08-.08C69.92,70.05,69.88,70.09,69.76,70Zm-1.51-2c-.24-.29-.15-.29-.31-.52a1.82,1.82,0,0,1,.32.35C68.3,67.9,68.31,68,68.25,68Zm-35-46.38a3,3,0,0,0-.2-.3s.16.14.16.18a1.35,1.35,0,0,1,.25.26c-.06,0-.11-.09,0,0S33.28,21.57,33.26,21.59Zm-.19-.47a4.7,4.7,0,0,1,.5.68C33.39,21.62,33,21.18,33.07,21.11ZM69.49,68.63c-.08-.11-.13-.17-.16-.18-.11-.23.19.17.1-.09.12.17.15.17.18.16C69.75,68.79,69.32,68.3,69.49,68.63Zm-33.7-44.5c-.24-.56.16-.62.11-.91C36.31,23.85,35.87,23.91,35.79,24.13Zm-.35-.81L35.21,23s.06-.08.16,0C35.56,23.29,35.47,23.28,35.43,23.32Zm-.12-.38-.22-.29c.06,0,.09,0,.28.23Zm-1.1-1.59c-.08-.11,0-.07,0,0-.29-.48.21.24.2.14.09.13,0,.11,0,.15A1.19,1.19,0,0,0,34.22,21.35ZM36,23.1c-.25-.33-.05-.25-.11-.39C36.24,23.16,35.93,22.87,36,23.1ZM73.66,70.66c-.09-.17-.12-.35,0-.2S73.65,70.57,73.66,70.66ZM39.23,22.88c.63.54.87,1,.61,1.07.12.13.15.09.22.12.24.29,0,.13.15.35a2.49,2.49,0,0,1-.31-.36,1.39,1.39,0,0,1-.16.47c-.3-.34-.07.07-.39-.28,0,.12.21.17.29.38-.16,0-.35-.25-.35,0,.21.27,0-.2.29.22-.18-.09-.17,0-.1.26a4.35,4.35,0,0,1-.35-.49c-.06,0,.05.18.25.42,0,.17-.22-.09-.41-.27-.47-.78.35-.29.06-.88.36.08.46-.13.72-.19-.14-.17-.09,0-.2-.14-.23-.3-.05-.26.16,0A2.63,2.63,0,0,0,39.23,22.88ZM76,72.39c-.15-.22-.17-.39,0-.28S76.09,72.36,76,72.39Zm.57.62c-.3-.35-.2-.44.07-.06Zm-5.44-7c-.1-.2,0-.39.37.15C71.27,65.93,71.26,66,71.15,66ZM76,72.09c-.25-.52.28-.18.26-.4a3.59,3.59,0,0,0,.39.61c-.1.06-.44-.24-.37,0C76.17,72.18,76,72,76,72.09ZM40.21,25.73c-.16-.22.05-.11,0-.2C40.58,26,40.29,25.71,40.21,25.73ZM73.27,68.27a3.19,3.19,0,0,0-.28-.39c0-.12.23.23.23.11C73.41,68.23,73.31,68.23,73.27,68.27Zm-.61-.9-.22-.28c-.09-.3.18,0,.36,0C72.91,67.37,72.59,67.11,72.65,67.37Zm.07-.39c-.08-.41.46,0,.42-.38.16.25.15.21.43.58-.31-.23-.62-.28-.34.15,0,0-.16-.13-.33-.35,0,.13.09.16.28.39C73.09,67.38,72.82,67,72.72,67ZM41.17,26.3c-.33-.43.08,0,0-.18C41.35,26.38,41.27,26.34,41.17,26.3Zm2.21,2.52c-.16-.57.32-.53.51-.64,0-.13-.34-.41-.34-.34-.19-.28.08,0,.09-.08.13.17.14.22.28.39s.1,0,.18,0c.52,1.1-.24.58-.48.94C43.51,29,43.41,28.82,43.38,28.82ZM39.14,23.3c-.11-.17,0-.16-.06-.27.13.17.17.18.31.36S39.12,23.15,39.14,23.3ZM73.54,67c-.29-.37-.2-.41-.16-.5.13.17.14.22.28.39C73.45,66.75,73.62,67,73.54,67ZM40.26,24c-.17-.23-.25-.38-.5-.68.13,0,.33.17.57.28C40.61,24.11,40.23,23.81,40.26,24Zm-.88-2.12-.07.07c0-.51.21-.94.83-.78,0,0-.14-.2-.12-.22a.66.66,0,0,1,.23.11c.23.3.05.23,0,.3a1.19,1.19,0,0,0,.24.27c0,.33-.44.31-.23,1a1.51,1.51,0,0,1-.48-.36c0,.12.25.3.37.47s-.35-.31-.16,0c-.11,0-.13-.13-.31-.36,0,.21.08.38,0,.35.23.33.16.11.22.12.21.37,0,.34-.19.17-.29-.35-.42-.68-.53-.65-.19-.39.47.1.18-.34-.29-.13-.22.39-.73-.14-.17-.56.39-.13.44-.42Zm2.4,4c-.2-.26-.32-.49-.16-.34S41.78,25.83,41.78,25.89Zm-.3-.7c.06.08.06.11.13.2.19-.16.11-.31.14-.62.82.92.3,1,.3,1.19A1.53,1.53,0,0,1,41.49,25.19Zm-1-1.5c-.16-.23-.15-.3-.31-.53.24.27.13-.11.43.26C40.3,23.2,40.7,23.83,40.46,23.69Zm3.73,3.55c.07.09.07.06.1.07s0,.07.1.23.12,0,.21,0c.28.5,0,.5.18.81a3.75,3.75,0,0,1-.44-.57c-.26-.31,0,0-.21-.13.05.16.2.15.4.45-.11.11-.23,0,0,.37-.16-.1-.12-.16-.16,0-.52-.65,0-.22-.16-.5-.36-.35.09.53-.41-.11.26-.07-.06-1,.69-.48C44.56,27.55,44.21,27.13,44.2,27.24Zm-3.1-3.15c-.07,0-.24-.39-.31-.36-.21-.3.08,0,.13,0C41.09,24,41,23.9,41.09,24.08Zm-.24-.43c-.07-.33.29-.4.58.11C41.06,23.43,41.28,23.93,40.86,23.65ZM47,31c-.05,0-.12-.18-.16-.18-.3-.45.11-.14.18-.16C47.41,31.14,46.82,30.65,47,31Zm.15-.14.07-.07c.06.09.11.19.15.19s0,.07.1.23C47.45,31.19,47.34,31.05,47.17,30.84Zm-6-7.5c-.1-.33.32-.27.32-.64.48.83-.1.46-.12.77C41.18,23.18,41.23,23.34,41.19,23.34Zm6.95,7.74c.17.14,0-.27.37.14,0-.11-.14-.29,0-.29a2.51,2.51,0,0,1,.39.46c0,.06-.23-.26-.27-.24s.17.29.22.28c0,.31-.07.41-.35.34,0-.12-.25-.47,0-.29-.46-.59-.26-.18-.18,0-.09-.11-.35-.32-.33-.35-.24-.3.07-.08,0-.3-.26-.24-.13.21-.26.09.19.22.41.46.34.5-.51-.66-.68-.72-.82-.71a3.52,3.52,0,0,0-.28-.39c.42.18.24-.77.63-.76.13.17.14.21.28.39,0-.09-.23-.41-.2-.47l.3.38s-.06-.15,0-.15-.13-.13-.21-.3l.07-.07a.6.6,0,0,0,.16.17c.13.22.35.53.27.57a3.45,3.45,0,0,1,.31.36c-.18-.16.06.25-.19,0a2.09,2.09,0,0,0,.27.41C48.32,30.87,48.21,30.88,48.13,31.08ZM41,21.88a3.39,3.39,0,0,1,.34.5c-.17,0-.13.05-.26.08.44.38.06.48-.2.19C40.7,22.13,41.27,22.45,41,21.88Zm-.35-.32c-.17-.22,0-.11.07-.07C41,21.83,40.74,21.65,40.63,21.56Zm.75.77c-.28-.34-.31-.44-.23-.44.21.25.12.22.27.4.33.17.22-.23.79.4-.22-.05-.08.21,0,.49-.09-.08-.23-.23-.28-.23-.15-.24-.08-.18,0-.16C41.65,22.44,41.47,22.29,41.39,22.33Zm.38-.53c-.16-.23,0-.18.22.12,0,.09,0,.13,0,.15C41.9,21.93,41.8,21.8,41.77,21.8ZM81.09,70.65c-.26-.42.15,0,.23,0,.22.26-.15,0,.06.27C81.36,70.94,81.08,70.52,81.09,70.65ZM80.73,69c0-.23.37.05.13-.45,0-.08.38.41.4.28.16.16.2.36.3.38.11.32,0,.36,0,.5a2.06,2.06,0,0,1-.37-.47A1.13,1.13,0,0,1,80.73,69Zm-36.14-46c-.16-.21,0-.1,0-.18C44.8,23.15,44.71,23.18,44.59,23.07Zm-1.36-1.84c-.16-.22,0-.1,0-.19C43.67,21.58,43.22,21.11,43.22,21.23Zm1.44.61c-.17-.12-.24-.37-.15-.35C44.89,21.94,44.55,21.69,44.66,21.84ZM78.18,62.55a.74.74,0,0,0-.28-.56c0-.22,1,.88,1.19,1.34A2.52,2.52,0,0,1,78.18,62.55ZM53.54,30.71c-.24-.29-.21-.33-.15-.35.13.17.18.18.32.36C53.68,30.76,53.64,30.8,53.54,30.71ZM79.19,60.12c-.38-.43-.25-.45-.36-.65a11.46,11.46,0,0,1-1.12-1.41c0-.1.22.11.34.17a15.61,15.61,0,0,1,1.18,1.52c0,.13-.17.07.19.48C79.32,60.16,79.28,60.2,79.19,60.12ZM64.3,41.59c-.16-.21,0-.15.09-.09s.11.21.09.25C64.36,41.58,64.33,41.58,64.3,41.59ZM78.58,58.71s.13.08.14,0c.23.25.17.26.36.48A3,3,0,0,1,78.58,58.71ZM53.86,28.23c-.29-.34-.07-.33.16,0S53.95,28.27,53.86,28.23Zm1.81.9,0,0c.25.31.4.41.35.49C55.82,29.3,55.79,29.34,55.67,29.14Z" fill-rule="evenodd"/><path d="M60.59,72c-.24-.15-.18.15-.2.33-.32-.46.05.17-.19-.15s.33-.12,0-.66c-.1-.13-.1,0-.14,0-.19-.22.12-.16.35.17C60.38,71.71,60.31,71.68,60.59,72Z" fill-rule="evenodd"/><path d="M27.55,25.95s-.17-.28-.08-.24.28.07,0-.36c.07,0,.14.12.23.28-.06-.46.25-.33,0-1,.23.4.32.11,0-.19.41.11.63-.28.32-1.09,0,.2-.35,0-.12.43-.28-.45-.11,0,0,.16l-.21-.29A7.78,7.78,0,0,1,26,25.4c.19.39-.36.09.1.86-.23-.14-.32-.2-.26.07-.36-.57-.13,0-.42-.42.08.27-.33-.13-.1.25.16,0,0-.31.39.14-.17,0-.07.3-.44-.09,0,.19.15.65-.18.31.32.46-.14,0,0,.3s.2.23.21.29c.09.26-.28-.11-.17.15,0,0,.06,0,.17.17s-.16-.13-.16,0c.23.33.18.11.3.22-.19-.33,0-.5.15-.29s.22.46,0,.2c.18.27.17.17.31.36,0,0-.18-.36-.11-.38.18.27.23.41.36.64.07,0-.24-.42-.19-.47.14.17.19.36.28.39-.18-.31.17.06.24.1-.42-.56.11,0-.11-.38,0,.17-.28-.2-.32-.35.27.3.14.05.33.19s.1.11.16.18.33.58.06.11A3.2,3.2,0,0,1,27,28a.88.88,0,0,1-.18-.15c.07-.11.33.29,0-.17,0-.08.37.39.51.51-.27-.34,0-.14-.22-.44-.06,0,0,.21-.21-.13.14,0,.15,0,.12-.26.13.19.17.2.3.38-.14-.1-.21,0,0,.3.18.05.06-.2-.11-.54.27.29.16,0,0-.17a2.17,2.17,0,0,1,.42.58c0-.17,0-.2.32,0a2.48,2.48,0,0,0,.18.32c-.12-.29,0-.18.19,0-.18-.37-.19-.8.2-.49-.22-.44-.08-.37,0-.61-.29-.44-.09.08-.3-.21s-.32-.7,0-.33c.18.23-.11,0,.17.33C28.38,26.49,27.71,26,27.55,25.95Zm-1.39,1.54-.21-.29c0-.15.15.12.2.14S26.17,27.45,26.16,27.49Zm.4.29c-.18-.36-.45-.88-.09-.56l.28.39c0,.08-.27-.23-.07.06-.12-.05-.12-.21-.2-.3S26.75,27.87,26.56,27.78Zm.63-.71c-.15-.29-.05-.42.25-.06C27.35,27,27.36,27.22,27.19,27.06Zm.58.6c-.16-.26-.06-.26,0-.31C28,27.73,27.88,27.7,27.77,27.66ZM27.46,27c-.08-.15-.08-.23-.05-.27C27.69,27.07,27.59,27.11,27.46,27Zm.62.73c-.19-.25-.21-.34-.15-.34C28.12,27.61,28.14,27.7,28.09,27.7Zm-.52-.81c-.43-.66.25-.09.44.25C27.74,26.89,27.62,26.82,27.56,26.89Zm-.15-.5c-.1-.08,0-.09,0-.2C27.74,26.62,27.57,26.52,27.41,26.39Zm.84,1c-.2-.23-.29-.5-.42-.58.09,0,.15,0,.33,0C28.39,27.23,28.38,27.37,28.25,27.4Z" fill-rule="evenodd"/><path d="M38,70.54c0-.11-.14-.55.15-.12C38,70.37,38.05,70.46,38,70.54Z" fill-rule="evenodd"/><path d="M18.39,40.6c-.07-.14.29,0,.15-.27C18.8,40.64,18.51,40.71,18.39,40.6Z" fill-rule="evenodd"/><path d="M36.11,64.55c-.06-.15-.18-.37-.1-.38.18.27.2.17.38.46C36.19,64.43,36.08,64.35,36.11,64.55Z" fill-rule="evenodd"/><path d="M33,58.13c0,.1-.28-.32-.3-.22-.14-.24,0-.18.22.13a.94.94,0,0,0-.17-.32C32.91,57.79,33,58,33,58.13Z" fill-rule="evenodd"/><path d="M30.69,50.76a2,2,0,0,1-.28-.55C30.84,50.3,30.36,50.17,30.69,50.76Z" fill-rule="evenodd"/><path d="M28.8,47.83c-.05,0-.08-.13-.2-.3a3.44,3.44,0,0,1,.36.17C29.16,48.07,28.59,47.42,28.8,47.83Z" fill-rule="evenodd"/><path d="M17.22,30.26a1.61,1.61,0,0,0,.19.31c-.07.12-.6-.51-.46-.09.16.22.08-.06.23.12s-.13,0-.05.2l-.42-.58c0-.22.15,0,.27-.22.19.38.18.08.28.24-.28-.39-.17-.37.09-.07,0-.13-.2-.25-.26-.41.2.18.07-.29.35.17,0,0,0,0,.1.07,0-.13-.33-.41-.23-.43.18.37.22.24.33.35.32.65-.17.37-.1.7C17.45,30.54,17.33,30.38,17.22,30.26Z" fill-rule="evenodd"/><path d="M24.61,41.68c-.18-.23.22.06.24,0C25,42,24.67,41.66,24.61,41.68Z" fill-rule="evenodd"/><path d="M29.58,48.42c-.1-.2.21.11.21,0,.2.27-.14,0,.06.26C29.76,48.59,29.64,48.43,29.58,48.42Z" fill-rule="evenodd"/><path d="M33.84,51.57c0-.12.05-.17.18-.15S34,51.67,33.84,51.57Z" fill-rule="evenodd"/><path d="M25.17,37.48c-.14-.24-.08-.33,0-.31C25.26,37.35,25.15,37.35,25.17,37.48Z" fill-rule="evenodd"/><path d="M23.77,34.44c-.11-.21.08-.13-.17-.48C23.8,34.15,24,34.63,23.77,34.44Z" fill-rule="evenodd"/><path d="M20.24,28.65c-.26-.41-.52-.59-.39-.29-.25-.41,0-.4-.18-.79,0,.19.34.62.19.47,0,.06.3.44.29.38C20.24,28.56,20.13,28.49,20.24,28.65Z" fill-rule="evenodd"/><path d="M53.7,75.18c-.16-.54.54-.1.17-.92.19.24.2.1.43.42-.35-.12,0,.49-.43.2C54.07,75.28,53.77,75.14,53.7,75.18Z" fill-rule="evenodd"/><path d="M26.13,35.88c.21.27.1.09.13,0,.17.11-.08,0,.18.32,0,.06-.07.08-.28-.23,0,0,0,0,.08.09a3,3,0,0,0-.18-.32S26.14,35.88,26.13,35.88Z" fill-rule="evenodd"/><path d="M26.53,35.39c.06,0,.09,0,.27.24-.14-.05,0,.23,0,.3s.07.06.1.07c.31.61-.15.3-.47.09a3.34,3.34,0,0,1-.23-.43C26.66,36.26,26.62,35.65,26.53,35.39Z" fill-rule="evenodd"/><path d="M22.33,29.08s-.08-.21,0-.17l.25.42c-.1-.65.89,0,.58-1,.53.57-.15-.6.36,0a4.44,4.44,0,0,1-.35-.49c.15.44-.23.27-.61-.26.38.52-.39-.6,0-.16-.14-.24-.3-.33-.28-.39l.42.43a.83.83,0,0,0-.05-.27,1.57,1.57,0,0,0,.22.28c-.42-.55,0-.2,0-.19-.27-.32-.33-.21-.62-.57.22.34,0,.07,0,.16a1.55,1.55,0,0,0-.22-.28c.06.11-.22-.16,0,.19.07,0,.14.13.22.28-.18-.09-.05.28-.44-.09.38.55.14.33,0,.3a2.6,2.6,0,0,1,.26.4s-.21-.24-.32-.35,0-.26-.16-.33c.2.28-.16,0,0,.28q0-.07.25.26c-.21-.22.11.23,0,.17.18.26.37.54.46.71-.39-.47.06.26,0,.31a6.39,6.39,0,0,1-.71-.81c0,.11-.07,0,0,.16s.21.24.32.35c.06.29,0,.22-.22.19.17.29.24.45.12.37C22.12,29.25,21.92,28.58,22.33,29.08Zm.43-.69a1.52,1.52,0,0,1-.22-.28c0-.1-.05-.16,0-.16C22.86,28.34,22.45,28,22.76,28.39Z" fill-rule="evenodd"/><path d="M54.09,74.23c-.2-.22.22.13.21,0,.17.29.09.33.05.42C54.27,74.48,54.23,74.29,54.09,74.23Z" fill-rule="evenodd"/><path d="M27.31,35.51s.17.28.08.25a2.57,2.57,0,0,0-.41-.44c-.07-.11,0-.09-.11-.22.38.48.2,0,.67.68A.91.91,0,0,1,27.31,35.51Z" fill-rule="evenodd"/><path d="M27.35,35.47c-.24-.31-.08-.18,0,0,0,0,.05,0,0-.14a.85.85,0,0,1,.23.43C27.46,35.53,27.37,35.43,27.35,35.47Z" fill-rule="evenodd"/><path d="M55.73,75.35s-.06-.11-.07-.1c-.12-.26.17-.13.07-.37,0,.05.33,1-.1.4C55.63,75.25,55.67,75.28,55.73,75.35Z" fill-rule="evenodd"/><path d="M56.1,75.35c.16.27.38.33.56.47-.21-.29.07-.31.17-.46.15.35,0,.87-.5.26-.14,0-.11.07-.26.06a.53.53,0,0,1,.29-.71C56.55,75.3,56.16,75.23,56.1,75.35Z" fill-rule="evenodd"/><path d="M28,34.95c-.16-.09-.08-.12-.28-.39l.08-.06c.11.23.14.19.29.38.06,0-.38-.55-.2-.46s.07.16.18.32c-.11-.28-.05-.33.16-.14s0,.17-.09.08c.11.19.15.3.3.53-.07-.06-.11-.08-.13,0s0-.11,0-.14S27.74,34.61,28,34.95Z" fill-rule="evenodd"/><path d="M56.55,74.82a2.39,2.39,0,0,0,.28.23c.09.14,0,.12,0,.16-.08-.16-.21-.32-.24-.26,0-.16-.31-.53-.25-.58C56.63,74.74,56.47,74.66,56.55,74.82Z" fill-rule="evenodd"/><path d="M56.2,73.86c-.16-.31.17,0,.07-.21C56.5,74,56.23,73.84,56.2,73.86Z" fill-rule="evenodd"/><path d="M28.17,34.44c0-.06.07,0,.2.14,0-.12-.09-.16-.26-.4l.06-.05c.14.37.14.14.38.46C28.36,34.48,28.53,34.87,28.17,34.44Z" fill-rule="evenodd"/><path d="M28.55,34.12c-.12,0,0,.24-.12.1s-.08-.18-.18-.32a1,1,0,0,1,.51.51C28.71,34.39,28.68,34.28,28.55,34.12Z" fill-rule="evenodd"/><path d="M40.08,49.9c.22.29,0,.5,0,.29C40.16,50.16,39.93,49.85,40.08,49.9Z" fill-rule="evenodd"/><path d="M40.36,50.29c-.16-.3.12-.08.16-.14C40.65,50.42,40.33,50.1,40.36,50.29Z" fill-rule="evenodd"/><path d="M29.75,34.82c-.12-.14-.15-.1-.32-.35.08-.13.17-.09.16-.29a5.73,5.73,0,0,0,.32.51l0,0c-.08-.12,0-.1,0-.13C29.57,34.26,29.54,34.51,29.75,34.82Z" fill-rule="evenodd"/><path d="M28,31.79c0-.17.2.06.18-.15C28.28,31.94,28.12,31.88,28,31.79Z" fill-rule="evenodd"/><path d="M25.25,27.65c0,.11-.26-.32-.21-.13a7.1,7.1,0,0,0-.35-.65C25,27.17,24.92,27.36,25.25,27.65Z" fill-rule="evenodd"/><path d="M28.69,32.42c.17.17.22.09.34.18l-.14-.19C29.21,32.7,29,32.88,28.69,32.42Z" fill-rule="evenodd"/><path d="M26.47,28.81a4.26,4.26,0,0,1-.27-.4c.07,0,.51.65.37.31.12.06.08.19.18.32C26.65,28.95,26.49,28.75,26.47,28.81Z" fill-rule="evenodd"/><path d="M29.16,32.48c-.27-.42.11-.06.2,0a2.94,2.94,0,0,0,.2.3c-.11-.28.2.18.3.21s-.13-.2-.11-.22.13,0,.34.34c-.19-.1-.16-.07-.15.13l-.21-.29c0,.06-.07,0-.14,0a2,2,0,0,1,.34.5c.16.24,0-.11.26.25l-.3-.21c0-.19-.21-.35-.48-.69.16.16,0,0,.07-.07C29.21,32.29,29.22,32.45,29.16,32.48Z" fill-rule="evenodd"/><path d="M26.27,28.34c.13.09.2.17.16,0a.92.92,0,0,0,.24.27S26.51,28.67,26.27,28.34Z" fill-rule="evenodd"/><path d="M29.73,32.62c-.21-.39.22.13.37.31,0-.08-.15-.24-.1-.23C30.45,33.39,29.82,32.64,29.73,32.62Z" fill-rule="evenodd"/><path d="M62.54,75.69c0-.14.22,0,.29-.09C62.93,75.85,62.64,75.7,62.54,75.69Z" fill-rule="evenodd"/><path d="M45.89,52.31c-.06,0,0,.12,0,.12s-.23-.1-.37-.47c0,0,.34.39.12.06C45.73,52,45.76,52.15,45.89,52.31Z" fill-rule="evenodd"/><path d="M46.43,51.84c-.08-.11,0-.07,0,0-.06-.13-.17-.3-.06-.26C46.54,51.8,46.61,52,46.43,51.84Z" fill-rule="evenodd"/><path d="M63.39,74.8c-.18-.36,0-.17.17-.15C63.67,74.85,63.38,74.64,63.39,74.8Z" fill-rule="evenodd"/><path d="M65.85,73.93l0,0c-.06-.08-.07-.09-.09-.08,0-.16-.17-.4-.15-.5C65.82,73.68,65.56,73.51,65.85,73.93Z" fill-rule="evenodd"/><path d="M66.21,73c.15.27-.32-.06.06.27-.39-.21-.58-.18-.55.16.12-.09.31.14.47.22.09.37-.49-.26-.26.22,0,0,.17.2.21.29s.06-.14.25.1-.31-.11,0,.33a4.41,4.41,0,0,1,1.19-1c-.13-.12-.18-.06-.32-.2s0,0,0-.13,0,0-.11-.07c.13,0,.07-.26-.1-.39.21.34,0,.19-.15.14.09.22.41.47.4.61-.36-.24-.07.54-.55,0-.13-.31.49.11,0-.64-.1.08,0,.41-.43.06l.16.33C66.26,73.14,66.33,73.06,66.21,73Zm0,.64c-.23-.3-.19-.41,0-.28S66.27,73.59,66.21,73.61Z" fill-rule="evenodd"/><path d="M62.95,69.79c-.16-.21,0-.1,0-.18.05.09.11.19.14.19C63.26,70,63,69.72,62.95,69.79Z" fill-rule="evenodd"/><path d="M65.4,70.66c-.06-.2-.2-.59.08-.38C65.55,70.49,65.39,70.5,65.4,70.66Z" fill-rule="evenodd"/><path d="M66,71.13a2.19,2.19,0,0,1-.3-.37c.07,0-.13-.5.28.07C65.82,70.82,65.53,70.56,66,71.13Z" fill-rule="evenodd"/><path d="M68.25,72.77c-.08-.11-.13-.17-.16-.18-.16-.34.06-.21.26-.07S68.19,72.55,68.25,72.77Z" fill-rule="evenodd"/><path d="M31,22.73c0,.08-.34-.27-.4-.44S30.8,22.59,31,22.73Z" fill-rule="evenodd"/><path d="M66.57,69.94s-.12-.09-.14,0c-.22-.38-.09-.26-.08-.41C66.49,69.59,66.31,69.64,66.57,69.94Z" fill-rule="evenodd"/><path d="M67.39,70c-.16-.36.21-.17,0-.64C67.74,70,67.43,69.86,67.39,70Z" fill-rule="evenodd"/><path d="M68,70.43c.12.17.15.17.18.16.16.23.12.26,0,.15S67.75,70,68,70.4Z" fill-rule="evenodd"/><path d="M31.28,21.46c-.2-.21.28.16.13-.12a1,1,0,0,0,.42.43c.23.36,0,.14-.06.21A1.17,1.17,0,0,0,31.28,21.46Z" fill-rule="evenodd"/><path d="M24.44,12c.16.2,0,.09,0,.16-.35-.48-.37-.64-.38-.78Z" fill-rule="evenodd"/><path d="M70.07,71.48c-.28-.41.09-.06.14-.12C70.35,71.58,70,71.3,70.07,71.48Z" fill-rule="evenodd"/><path d="M32.81,19.23c.1.15,0,0,0,0-.09-.16-.11-.25-.16-.18-.13-.15-.08-.28,0-.2S32.62,19.09,32.81,19.23Z" fill-rule="evenodd"/><path d="M34.91,18.42c0,.06-.11-.35-.26-.58.14.16.46.43.32.19.42.48-.1,0-.14.13.15.19.19.15.28.23C35.26,18.64,34.83,18.18,34.91,18.42Z" fill-rule="evenodd"/><path d="M36.09,18.94c-.06,0,0,.21-.22-.12.16,0-.24-.52-.46-.72a1.42,1.42,0,0,0-.19-.31A8.71,8.71,0,0,1,36.09,18.94Z" fill-rule="evenodd"/><path d="M35.52,17.68c.21.3.49.54.53.65s-.32-.4-.56-.62c.05,0,0-.1-.12-.22.25.13,0-.24.22-.21s.14.29,0,.16c.32.35.16.32.35.66l-.37-.47Z" fill-rule="evenodd"/><path d="M32.77,12.89c.35.5.3.29.44.41C33.42,13.64,32.7,13,32.77,12.89Z" fill-rule="evenodd"/><path d="M37.77,17.86c0,.07-.22.16-.19-.15A.91.91,0,0,0,37.77,17.86Z" fill-rule="evenodd"/><path d="M37.64,17.32c0,.16.11.35,0,.35a2.79,2.79,0,0,0-.47-.54c0-.1.1-.09.33.18,0-.1-.11-.14-.28-.39.12.11.17.07.08-.08C37.4,16.93,37.34,17,37.64,17.32Z" fill-rule="evenodd"/><path d="M38.22,18.09c-.3-.5-.46-1.22-.31-1.36a1.62,1.62,0,0,0-.21-.3,1.33,1.33,0,0,1,.4.44c.06-.05,0-.2.17,0a1,1,0,0,0-.2-.31c.46-.09.47-.6.52-1,.19.33.17.11.48.54,0-.06-.06-.12,0-.13-.15-.18-.11,0-.34-.34.2.1.15,0,.58.44.19.29-.42-.36.08.25-.45.38-.76.5-1.3.91-.09,0,.13.22.18.32-.14-.15-.06.07-.22-.12a1.36,1.36,0,0,0,.26.42C38.28,18,38.06,17.86,38.22,18.09Z" fill-rule="evenodd"/><path d="M45.61,24.9c-.22-.28,0-.19-.14-.36a.86.86,0,0,0-.19-.15c-.41-.71.13-.37.15-.64.39.58.88.47.47-.11,0-.13.22.21.28.22a4.09,4.09,0,0,1-.27-.56,3.6,3.6,0,0,0,.29.39c-.06-.21.46.37.67.52-.2-.28-.08-.24,0-.19.1.27.28.33.3.21.11.32.34.67.25.76-.09-.13-.09-.17-.2-.31-.26-.23-.41-.23-.41-.1a2.35,2.35,0,0,1-.37-.47c.19.34-.26.06.17.66-.09,0-.21-.14-.25-.09-.28-.39.06,0,.09-.08a3,3,0,0,0-.2-.31C46.1,24.45,45.72,24.58,45.61,24.9Z" fill-rule="evenodd"/><path d="M48.53,28.23c-.23-.23-.24-.06-.5-.34.08,0,.37.15.32,0C48.42,27.93,48.47,28.14,48.53,28.23Z" fill-rule="evenodd"/><path d="M85.54,74.36a3.12,3.12,0,0,0-.28-.39c.26.29.45.41.36.16.07.06.22.25.26.25.25.35,0,.05,0,.19C85.62,74.26,85.57,74.29,85.54,74.36Z" fill-rule="evenodd"/><path d="M42.83,20.12c0,.23-.08.18-.06.39-.09-.12-.14-.21-.11-.23a2.78,2.78,0,0,1-.24-.27c.32.22.24,0,.14-.3C42.61,19.82,42.76,20.22,42.83,20.12Z" fill-rule="evenodd"/><path d="M42.88,19.74c-.22-.22.14,0,.34.33-.07-.06-.11-.07-.13,0C43,19.91,43,19.75,42.88,19.74Z" fill-rule="evenodd"/><path d="M41.23,17.52c-.07-.08-.06-.09-.06-.11L41,17.22c.36.41.17-.16.68.51,0,.07-.13-.11-.25-.25S41.3,17.54,41.23,17.52Z" fill-rule="evenodd"/><path d="M36.35,10.27c0-.06.21.17.23.11,0,.12.27.48.12.39.13.17.18.18.31.36-.07,0-.15-.08-.09.09s.17.17.19.15c.2.29,0,.09.23.44a2.2,2.2,0,0,1-.36-.48c-.11-.09-.25-.24-.29-.21a1.44,1.44,0,0,0-.2-.31C36.48,10.61,36.61,10.68,36.35,10.27Z" fill-rule="evenodd"/><path d="M52.14,30.23s-.08-.09-.08-.09a1.26,1.26,0,0,1-.26-.25c.09,0,.29.22.4.28C52.47,30.4,52,30,52.14,30.23Z" fill-rule="evenodd"/><path d="M50.47,27.86c-.12-.2-.3-.45-.21-.46.32.53,0-.23.21,0,0,0-.29-.45-.29-.39.19.09.39-.15.83.2-.46-.63.27.11-.17-.5,0,0,.26.31.33.35-.19-.39.29,0,.28-.1,0,0,.59.77.35.33.34.36.09.28-.24-.1,0,.12-.13.06-.31,0,0,0,.1.19.27.4-.14,0-.29-.17-.16.16-.77-1-.21.18-.88-.48C50.68,27.62,50.42,27.54,50.47,27.86Z" fill-rule="evenodd"/><path d="M45.35,20.84c-.12-.18-.12-.25-.07-.27-.2-.27-.21-.22-.39-.45.09-.06-.06-.33-.13-.54.41.59.57.07,1.22.82,0-.08,0-.13,0-.15.25.25.42.37.5.34.61.6.9.61,1.4,1.14-.17-.12-.06.21,0,.19,0,.51-1.51-.37-.72,1,.16.09-.28-.54,0-.46a12.28,12.28,0,0,1,.57,1.11c.21.27,0-.2.3.21.11.19-.12,0-.1.1-.44-.68-.58-.41-.56-.29-.15-.19-.06-.16-.27-.4,0-.11.28.15.13-.12-.57-.58-.36-.09-.57-.11,0-.19-.6-1.21-.73-1.63.13,0,.21,0-.16-.51.06,0,.29.3.3.21s-.41-.5-.2-.47a2.14,2.14,0,0,0-.27-.4c-.37-.37-.08.31-.46-.22-.07,0,.12.2.11.23.17.23,0-.11.27.24s0,.12-.28-.22C45.12,20.33,45.47,20.8,45.35,20.84Z" fill-rule="evenodd"/><path d="M51.24,28.44c-.17-.21.13.09.07-.07a2.18,2.18,0,0,1,.36.48C51.51,28.67,51.34,28.41,51.24,28.44Z" fill-rule="evenodd"/><path d="M51.7,27.66c.09,0,.14-.1.34,0C52,27.68,52,28,51.7,27.66Z" fill-rule="evenodd"/><path d="M48.78,23.51c.64.82-.2.12-.39,0C48.47,23.47,48.54,23.34,48.78,23.51Z" fill-rule="evenodd"/><path d="M66.8,45.16c0-.1.37.35.47.38S67.08,45.55,66.8,45.16Z" fill-rule="evenodd"/><path d="M86.75,66.62c.07-.06.41.38.56.46S87,66.91,86.75,66.62Z" fill-rule="evenodd"/><path d="M77.11,54.31c-.18-.24.18.13.16,0,.14.19.16.29.15.36C77.29,54.51,77.23,54.35,77.11,54.31Z" fill-rule="evenodd"/><path d="M88,67.05c.05,0,.11-.13.46.23A.88.88,0,0,1,88,67.05Z" fill-rule="evenodd"/><path d="M88.84,67.93c-.22-.34.2.09.25.09C89.35,68.08,89,68.12,88.84,67.93Z" fill-rule="evenodd"/><path d="M82.8,58s-.06-.15,0-.15c.29.35.16.46.08.42-.12-.3-.37-.43-.63-.72a2.62,2.62,0,0,0-.56-.79,1.74,1.74,0,0,1,.62.4C82.17,57.11,82,57.14,82.8,58Z" fill-rule="evenodd"/><path d="M83.47,55c-.23-.13,0,.13.22.29-.36-.41,0-.24,0-.46a5.35,5.35,0,0,1,.49.52c0,.06-.43-.12.15.53.15.44-.17.5.12,1.05.84.88.6.36.44-.1.28.36.3.27.45.4.75,1.08-.1.49-.42.41-.05-.15-.32-.31-.37-.48a15.7,15.7,0,0,1-1.6-1.28c-.07,0,.11.2,0,.17a3.69,3.69,0,0,0-.4-.45c.1.24.1.4-.33-.18,0,0-.16,0,.09.25-.13-.09-.34-.34-.45-.4s.24.31.09.25c-.38-.43-.41-.22-.82-.7.2.39-.48-.21-.9-.63-.46-1,.8.22,1.08-.06.49.6.69.64.64.38a2.76,2.76,0,0,1,.49.52c0-.09.12-.09.22,0-.28-.67-.87-1.62-.71-2,.29.3.15.11.31.2.14.32.45.79.67,1.18A6.6,6.6,0,0,1,83.47,55Z" fill-rule="evenodd"/><path d="M29.43,67.84a3.35,3.35,0,0,0-.24-.41c.12,0,0-.25.1-.23.13.24.45.66.29.38.13.1.25.56.31.36.25.39,0,.24.29.68A2.88,2.88,0,0,0,29.43,67.84Z" fill-rule="evenodd"/><path d="M20.36,27.92c-.16-.3-.12-.4-.28-.7,0,0,.2.22.37.46-.06-.12,0-.11.1.07-.15-.32,0-.11-.08-.41.19.2.43.5.46.39,0,.29-.31,0-.2.32a3.93,3.93,0,0,0-.43-.41c.05.16.25.48.16.49-.13-.2-.22-.3-.24-.27a3,3,0,0,0-.19-.31C20.13,27.65,20.26,27.81,20.36,27.92Z" fill-rule="evenodd"/><path d="M28.31,31.8c0-.09-.2-.33-.15-.34.31.45.32.3.4.29.29.39,0,.19,0,.31C28.48,32,28.3,31.7,28.31,31.8Z" fill-rule="evenodd"/><path d="M37.86,13.46c.18.2,0,.11.33.51-.27-.3-.25-.09-.62-.56a3.84,3.84,0,0,0,.86,1.33c.35.76-.28.39-.87-.16A7.92,7.92,0,0,1,36,12.29c0-.4,1.2.74.92.11.16.1.32,0,.62.23s.17.21.45.56c0,.13-.21,0,.16.51A1.21,1.21,0,0,1,37.86,13.46Z" fill-rule="evenodd"/></g></g></svg>