<svg xmlns="http://www.w3.org/2000/svg" viewBox="0 0 55.86 66.4"><title>Asset 4-240</title><g id="Layer_2" data-name="Layer 2"><g id="Layer_30" data-name="Layer 30"><path d="M7.52,0S6.06,14.79,4.16,29.52,0,58.94,0,58.94L48,66.4s2.4-15.33,4.34-30.73S55.86,4.83,55.86,4.83Z" fill="none"/><path d="M16.23.87c0,.1-.07.15-.5.1C15.7.87,15.81.82,16.23.87Z" fill-rule="evenodd"/><path d="M12.51.69c.27.12,1.5,0,1.44.26-.4-.08-1,0-1-.13-.65,0,0,.08,0,.18C12.19.89,12.46.85,12.51.69Z" fill-rule="evenodd"/><path d="M38.92,3.37c.66.06,1.27.13,1.27.28A4,4,0,0,1,38.92,3.37Z" fill-rule="evenodd"/><path d="M22.63,1.93c.55.06.84.28.62.33C22.73,2.19,22.18,2,22.63,1.93Z" fill-rule="evenodd"/><path d="M29.24,2.59c.36.07.57.25.29.29S29,2.63,29.24,2.59Z" fill-rule="evenodd"/><path d="M29.72,2.64A6.71,6.71,0,0,0,31,2.77c.14.14.55.25.61.4-.42-.08-.91-.15-.95-.29-.7,0,.22.23-.66.12C30.17,2.85,29.76,2.77,29.72,2.64Z" fill-rule="evenodd"/><path d="M22.15,1.92c-.08.11-.27.19-1,.09C21.61,2,21.56,1.86,22.15,1.92Z" fill-rule="evenodd"/><path d="M25,2.24a2.54,2.54,0,0,1-1,0,.71.71,0,0,0-.31-.11A4.37,4.37,0,0,1,25,2.24Z" fill-rule="evenodd"/><path d="M42.71,4.48c.38.06.74.13.79.23C43,4.67,42.81,4.58,42.71,4.48Z" fill-rule="evenodd"/><path d="M9.85,1.24c.61,0,.74.2.46.23C9.81,1.44,9.81,1.34,9.85,1.24Z" fill-rule="evenodd"/><path d="M13.54,1.76c.07.12-.24.12-.34.19C12.69,1.89,13,1.69,13.54,1.76Z" fill-rule="evenodd"/><path d="M13.19,2c.35.45-2.89.1-4.06-.08.4-.12,1.37,0,1.49-.26C11.57,1.64,12.45,2,13.19,2Z" fill-rule="evenodd"/><path d="M42.92,5.65c.31,0,.69.08.63.18-.65-.08-.36,0-.33.08a2.69,2.69,0,0,0-.48-.09C42.68,5.73,43,5.77,42.92,5.65Z" fill-rule="evenodd"/><path d="M7.42,4.26c.21,0,.25.09.48.12,0,.08-.41,0-.81,0C7,4.27,7.42,4.34,7.42,4.26Z" fill-rule="evenodd"/><path d="M8.49,5a3.54,3.54,0,0,0-.82,0C6.83,4.91,8.52,4.74,8.49,5Z" fill-rule="evenodd"/><path d="M9.84,7.57a3.48,3.48,0,0,0,.64.11C10.57,7.85,9.66,7.7,9.84,7.57Z" fill-rule="evenodd"/><path d="M8.79,11.3c.95.28-1,.21,0,0Z" fill-rule="evenodd"/><path d="M8.49,15.4c.51.11.85.29,0,.18C8.6,15.48,8.59,15.53,8.49,15.4Z" fill-rule="evenodd"/><path d="M7.66,15.57c.5.05.47.17.46.28a2.75,2.75,0,0,0-.48-.09C7.95,15.71,7.55,15.67,7.66,15.57Z" fill-rule="evenodd"/><path d="M7.78,16c.55,0,.65.29,0,.18Z" fill-rule="evenodd"/><path d="M8.72,16.28c.3.09.68.28.45.31s-.33-.08-.64-.11C8.52,16.39,8.53,16.31,8.72,16.28Z" fill-rule="evenodd"/><path d="M8.59,17.35c.18.08.45.14.46.24C8.44,17.55,8.31,17.38,8.59,17.35Z" fill-rule="evenodd"/><path d="M11.35,18.9c.56.05.65.25.46.28C11.32,19.13,11.42,19,11.35,18.9Z" fill-rule="evenodd"/><path d="M49,24a2,2,0,0,0,1,.15c.15.16-.41.06-.35.19a4.05,4.05,0,0,0-.8-.09C49,24.17,48.88,24.12,49,24Z" fill-rule="evenodd"/><path d="M49.46,24.64c.36.07,0,.22.12.32-.57-.06-.14-.23-.78-.29C48.75,24.56,49.41,24.71,49.46,24.64Z" fill-rule="evenodd"/><path d="M49.13,26.07c.31.06.42.15.46.25C48.89,26.25,49,26.15,49.13,26.07Z" fill-rule="evenodd"/><path d="M12.28,22c.87.2.33,0,1,0s-.7.13.14.2c-.06,0-.29,0-.33.07-.21,0-.25-.1-.47-.13s0,.24-1,.11C11.8,22.14,12.23,22.27,12.28,22Z" fill-rule="evenodd"/><path d="M13.38,22.33c.49.11-.08.17,0,.3-.32-.07-.33-.18-.29-.3A.61.61,0,0,0,13.38,22.33Z" fill-rule="evenodd"/><path d="M12.39,22.47c.35,0,.33.13.3.22C12.21,22.65,12.14,22.5,12.39,22.47Z" fill-rule="evenodd"/><path d="M14.42,23.2c.62.08,1,.54.26.52-.16-.11.47-.17-.45-.32C14.13,23.28,14.52,23.33,14.42,23.2Z" fill-rule="evenodd"/><path d="M49.89,27.91c-.34.1.32.33-.52.25C49.57,28.08,49.33,27.85,49.89,27.91Z" fill-rule="evenodd"/><path d="M47.62,27.75a1.53,1.53,0,0,1,.45.29C47.58,27.94,47.41,27.83,47.62,27.75Z" fill-rule="evenodd"/><path d="M15.16,25.14c.52.08.7.31.45.36C15.4,25.38,15.17,25.27,15.16,25.14Z" fill-rule="evenodd"/><path d="M13.21,25.08s.3,0,.49,0c-.06.14.32.32-.36.29C13.47,25.33,13.47,25.21,13.21,25.08Z" fill-rule="evenodd"/><path d="M50.28,30c-.21.07-.17.23-.68.19C49.53,30,49.79,30,50.28,30Z" fill-rule="evenodd"/><path d="M50.05,30.56c.09.2-.26.22-.52.28-.67-.12.49-.19-.29-.27C49.19,30.46,49.77,30.56,50.05,30.56Z" fill-rule="evenodd"/><path d="M17.21,27.08l.48.06c.12.18,0,.17.12.32h-.65a2.93,2.93,0,0,0,.46.21s-.48,0-.49,0c-.42-.09-.33-.32.2-.28C16.92,27.26,17.1,27.21,17.21,27.08Z" fill-rule="evenodd"/><path d="M49.25,31.78c.31.05.69.1.63.19C49.46,31.94,49.07,31.89,49.25,31.78Z" fill-rule="evenodd"/><path d="M44.3,33.48c.39.09-.24.12,0,.27.44,0,.4,0,1,0-.06.28.29.66-.11.91-.13.09.76.07.63.16s-.62.06-.83.13c-.6-.1-.45-.27,0-.27a2,2,0,0,0-.63-.16c.47-.1,0-.31.69-.34.08-.27-.77-.44-1.55-.62A2.31,2.31,0,0,0,44.3,33.48Z" fill-rule="evenodd"/><path d="M41,33.49c-.33.15-.06.29.1.48-.36,0-.22-.1-.47-.14-.76.07.37.43.08.66-1-.29-.63-.51-.72-.75.55.08.26-.17.67-.15-.06-.07-.21,0-.48-.06C40.21,33.42,40.64,33.47,41,33.49Z" fill-rule="evenodd"/><path d="M16,30.35c.62.15.66.33.28.41C16.19,30.66,15.89,30.56,16,30.35Z" fill-rule="evenodd"/><path d="M28,31.88c.5.11.43,0,.8.14-.13.13-.53-.1-.66,0C28,32,28,31.94,28,31.88Z" fill-rule="evenodd"/><path d="M28.64,32.19c.84.27-.83.13-1.13-.07C28.29,32,28,32.35,28.64,32.19Z" fill-rule="evenodd"/><path d="M50.46,35.16c0,.12-.7,0-.67.15-.21-.05-.29-.12-.3-.19C50,35.18,50,35.09,50.46,35.16Z" fill-rule="evenodd"/><path d="M35.95,33.77c.31,0,.35-.18.84-.16C36.73,33.75,36.52,33.83,35.95,33.77Z" fill-rule="evenodd"/><path d="M31.64,33c.71.2,0,.15.77.37a4,4,0,0,0-1-.09C31.23,33.17,31.26,33,31.64,33Z" fill-rule="evenodd"/><path d="M17.47,31.49c.53.13,0,.21.27.41a1.29,1.29,0,0,1-.63-.19C17.34,31.58,17.39,31.62,17.47,31.49Z" fill-rule="evenodd"/><path d="M41.05,34.69c.17.18-.69,0-.82,0s-.12-.11-.14-.17A4.8,4.8,0,0,1,41.05,34.69Z" fill-rule="evenodd"/><path d="M47,35.41c.14.09.41.35.12.36C46.55,35.7,46.94,35.55,47,35.41Z" fill-rule="evenodd"/><path d="M29.45,33.51c.62.07.65.32.44.36C29.7,33.76,29.65,33.63,29.45,33.51Z" fill-rule="evenodd"/><path d="M50.45,36.44c.31.12.17.41-.37.34C50.07,36.61,50.27,36.53,50.45,36.44Z" fill-rule="evenodd"/><path d="M28,33.66a2,2,0,0,1,1.26.39c-.27,0-.31,0-.33,0-.49-.15-1.81-.37-1.41-.49.55,0,.25.17.62.23S28.22,33.68,28,33.66Z" fill-rule="evenodd"/><path d="M17.36,32.34c.67,0,.31.19.45.32C16.87,32.57,17.92,32.49,17.36,32.34Z" fill-rule="evenodd"/><path d="M47,36.65c.58.1.26.3,0,.3S46.63,36.67,47,36.65Z" fill-rule="evenodd"/><path d="M29.17,34.43c.92.18-.35.31,0,0Z" fill-rule="evenodd"/><path d="M44.58,36.46c.65.08,1.06.31.77.37C45,36.71,44.65,36.6,44.58,36.46Z" fill-rule="evenodd"/><path d="M17.57,33.23c.42-.05.51.24.44.36C17.3,33.5,17.76,33.28,17.57,33.23Z" fill-rule="evenodd"/><path d="M31.36,35.13c.49.12.2.21,0,.26C30.94,35.31,31.57,35.28,31.36,35.13Z" fill-rule="evenodd"/><path d="M45.45,37.26c.36.07,0,.23-.35.15C45,37.27,45.37,37.33,45.45,37.26Z" fill-rule="evenodd"/><path d="M15.24,33.61c.57.14.58.27.44.4C15.08,33.9,15,33.7,15.24,33.61Z" fill-rule="evenodd"/><path d="M30.79,35.75l.63.16c-.06,0-.29.06-.32,0s-.13,0-.17.05C30.71,35.88,30.59,35.76,30.79,35.75Z" fill-rule="evenodd"/><path d="M45.24,37.62c.53.07.35.33.28.35C45.16,37.85,44.93,37.72,45.24,37.62Z" fill-rule="evenodd"/><path d="M29.67,35.64c.61,0,.74.22.46.25S29.57,35.75,29.67,35.64Z" fill-rule="evenodd"/><path d="M42.51,37.31c.45.05.45.15.46.25C42.33,37.52,42.32,37.33,42.51,37.31Z" fill-rule="evenodd"/><path d="M45.86,37.86c.41-.08-.26.27.62.27l0,.19a7,7,0,0,1-.79-.18C45.77,38.07,45.92,38,45.86,37.86Z" fill-rule="evenodd"/><path d="M32.37,36.18a3.07,3.07,0,0,0,.32.08v.08c-.19-.13-1,0-1.12-.18a.61.61,0,0,1,.32.08A1.24,1.24,0,0,0,32.37,36.18Z" fill-rule="evenodd"/><path d="M15.34,34.08c.73.1.38.3.43.47C15.27,34.42,15.31,34.25,15.34,34.08Z" fill-rule="evenodd"/><path d="M45.35,38c.36.08,0,.22.12.33C44.74,38.24,45.2,38.11,45.35,38Z" fill-rule="evenodd"/><path d="M46,38.45c.43.12,0,.22-.35.19.23.09.48.25.13.29C45.1,38.68,45.36,38.51,46,38.45Z" fill-rule="evenodd"/><path d="M18,35c.33,0,.12.1.63.2a1.66,1.66,0,0,1-1-.05c.37,0-.11-.28.51-.16C18.18,35,18.09,35,18,35Z" fill-rule="evenodd"/><path d="M45.52,39.29c.56.1.4.28.43.44C45.59,39.6,45.55,39.45,45.52,39.29Z" fill-rule="evenodd"/><path d="M16.62,35.52l.48.06c0,.24.46.56-.09.7C16.4,36.06,16.77,35.79,16.62,35.52Z" fill-rule="evenodd"/><path d="M50.8,40.06l0,.15A7.08,7.08,0,0,1,50,40C50.21,39.94,50.32,40.05,50.8,40.06Z" fill-rule="evenodd"/><path d="M30.85,37.85a2.1,2.1,0,0,1-.8-.14c.37,0,.31-.12.51-.16s0,.07,0,.11S31,37.76,30.85,37.85Z" fill-rule="evenodd"/><path d="M23.78,37a4.61,4.61,0,0,1,.47.1c0,.09-.29.07-.19.2-.44-.26-.32,0-.79-.22C23.24,36.94,23.9,37.1,23.78,37Z" fill-rule="evenodd"/><path d="M41.58,39.39c.07.13.63.31.13.29C41.43,39.55,41.45,39.46,41.58,39.39Z" fill-rule="evenodd"/><path d="M31.63,38.11c.5,0,.18.16.79.18,0,.22-.4.08-.37.33C31.09,38.44,32.29,38.32,31.63,38.11Z" fill-rule="evenodd"/><path d="M24.85,37.48a10.08,10.08,0,0,1-1.61-.18c.33-.1,1.43.12,1.31,0C24.89,37.23,25.1,37.44,24.85,37.48Z" fill-rule="evenodd"/><path d="M16.8,36.68l.64.08,0,.15C17.24,36.83,16.76,36.78,16.8,36.68Z" fill-rule="evenodd"/><path d="M46.15,40.65c.19-.08.19.18.3.23-.72-.12.23.14-.49,0C45.89,40.76,46.26,40.8,46.15,40.65Z" fill-rule="evenodd"/><path d="M36.36,39.35c.39,0,.34.12.8.14-.19,0-.47,0-.35.15C36.48,39.56,36.34,39.46,36.36,39.35Z" fill-rule="evenodd"/><path d="M17.23,37.08c.61.36.74.64.2.93C17.07,37.74,16.75,37.31,17.23,37.08Z" fill-rule="evenodd"/><path d="M20.9,37.72c.24.09.61.16.95.24-.06.08-.27.11-.19.24C20.85,38.09,21.06,37.88,20.9,37.72Z" fill-rule="evenodd"/><path d="M19.28,37.65l.32,0s.06,0,.16.06-.2,0-.32,0,.26.11,0,.15S19.36,37.73,19.28,37.65Z" fill-rule="evenodd"/><path d="M28.74,38.95c0,.09.23.17.13.28-.42-.08-.32-.22-.78-.29A2,2,0,0,1,28.74,38.95Z" fill-rule="evenodd"/><path d="M26.47,38.84l-.32,0c0-.1-.26-.11,0-.15l.32,0C26.75,38.8,26.47,38.73,26.47,38.84Z" fill-rule="evenodd"/><path d="M23.21,38.78c.22.08.29.17.29.27C22.85,38.94,23.19,38.9,23.21,38.78Z" fill-rule="evenodd"/><path d="M29.47,39.62c.14,0,.15,0,.16.06s-.16,0-.18.09a2.61,2.61,0,0,0-1-.17C28.34,39.39,29.45,39.68,29.47,39.62Z" fill-rule="evenodd"/><path d="M40.86,41.14a4.66,4.66,0,0,1,.48.1c-.46.11.23.22.11.4a7.13,7.13,0,0,1-.79-.18C40.9,41.33,40.85,41.29,40.86,41.14Z" fill-rule="evenodd"/><path d="M51,42.49c.39,0-.11.16.47.18-.18,0-.07.13-.5.05C51,42.61,50.61,42.53,51,42.49Z" fill-rule="evenodd"/><path d="M40,41.26c.41.05.19.05.15.1s.19.06.32.08-.15.1-.5,0S40.09,41.39,40,41.26Z" fill-rule="evenodd"/><path d="M40.8,41.56c.2.08.75.12,1,.2-.07.14-.55-.12-.5,0C40.76,41.76,40.76,41.66,40.8,41.56Z" fill-rule="evenodd"/><path d="M14.65,38.09c.53.07.6.19.61.31C15,38.3,14.29,38.13,14.65,38.09Z" fill-rule="evenodd"/><path d="M39.67,41.48c.32,0,.19.13.63.16,0,.11-.89-.16-.66,0C39.27,41.61,39.57,41.49,39.67,41.48Z" fill-rule="evenodd"/><path d="M46.23,42.52c-.23.11,0,.14-.2.24C45.87,42.66,45.5,42.39,46.23,42.52Z" fill-rule="evenodd"/><path d="M41.57,41.93c.37.06.07.18,0,.19s-.12-.06-.15-.1a1.3,1.3,0,0,1-.49,0C40.53,41.82,41.45,42,41.57,41.93Z" fill-rule="evenodd"/><path d="M51,43.43c.33.11,0,.28.27.39C50.5,43.69,51,43.61,51,43.43Z" fill-rule="evenodd"/><path d="M17.63,39c.29,0,.32.08.16.06,0,0,.19.06.32.08s-.58.06-.81,0C17.3,39,17.74,39.1,17.63,39Z" fill-rule="evenodd"/><path d="M41.21,42.15c.21.05.29.12.3.19a.59.59,0,0,0-.33,0C40.81,42.28,41.12,42.17,41.21,42.15Z" fill-rule="evenodd"/><path d="M44.58,42.61c.48.09-.17.06,0,.15l-.32,0c-.08,0-.16-.08-.14-.14C44.32,42.62,44.55,42.65,44.58,42.61Z" fill-rule="evenodd"/><path d="M45.55,42.74c.59.07.47.2.61.31C45.43,43,45.75,42.84,45.55,42.74Z" fill-rule="evenodd"/><path d="M43.13,42.45a4,4,0,0,0,.8.15c-.68.15,1,.33.43.44a10.47,10.47,0,0,0-1.27-.25c-.24,0-.36,0-.35.15C42.33,42.74,43,42.63,43.13,42.45Z" fill-rule="evenodd"/><path d="M26,40.22c.59,0,.26.24.13.25C25.73,40.41,26,40.29,26,40.22Z" fill-rule="evenodd"/><path d="M40.39,42.2l0,.15c-.5,0-.29-.15-.79-.18A4.38,4.38,0,0,1,40.39,42.2Z" fill-rule="evenodd"/><path d="M50.78,43.91a2.65,2.65,0,0,0,.48.1c-.7.06.08.48-.56.51C50.55,44.3,50.31,44.06,50.78,43.91Z" fill-rule="evenodd"/><path d="M38,42.92a2.7,2.7,0,0,0,.48.1c-.06.12.08.32-.21.36-.62-.05-.16-.21-.78-.26C38,43.08,37.82,43,38,42.92Z" fill-rule="evenodd"/><path d="M19.07,40.39c1,.29-.14.4.56.68L19,41C19.33,40.74,18.75,40.61,19.07,40.39Z" fill-rule="evenodd"/><path d="M20.52,40.58c.41.14.66.45.26.45C20.2,40.93,20.6,40.73,20.52,40.58Z" fill-rule="evenodd"/><path d="M36.69,43c.47.17.11.23.26.46l-.8-.11A1.91,1.91,0,0,1,36.69,43Z" fill-rule="evenodd"/><path d="M17.42,40.5c.2.09.39.26.13.28S17.12,40.53,17.42,40.5Z" fill-rule="evenodd"/><path d="M37.43,43.57c.8.17.58,0,.83-.08.19.13.71.23.6.39-.6-.14-.32.06-.81,0C38.28,43.71,37.29,43.69,37.43,43.57Z" fill-rule="evenodd"/><path d="M31.83,42.69c.14-.06.39.3.12.28C31.35,42.86,31.86,42.81,31.83,42.69Z" fill-rule="evenodd"/><path d="M20.76,41.18c.81.11-.46.23.44.36,0,0-.17,0-.17.05s-.15,0-.17,0C20.67,41.49,20.41,41.24,20.76,41.18Z" fill-rule="evenodd"/><path d="M47.05,44.88c.84.23.69.44.56.7C46.76,45.25,47.56,45.11,47.05,44.88Z" fill-rule="evenodd"/><path d="M19.13,41.15l.48.07c-.06.33.27.62.05.8C18.76,41.61,19.38,41.51,19.13,41.15Z" fill-rule="evenodd"/><path d="M39.82,44c.63.06-.1.13.13.29C39.34,44.14,39.85,44.09,39.82,44Z" fill-rule="evenodd"/><path d="M17.36,41c.64.06.16.23.28.34C17.23,41.24,17,41,17.36,41Z" fill-rule="evenodd"/><path d="M17.29,41.47c.65.07.92.4,0,.22Z" fill-rule="evenodd"/><path d="M47.44,45.59c.44.06.36.23.13.25C47.18,45.74,47.31,45.67,47.44,45.59Z" fill-rule="evenodd"/><path d="M26.9,42.93c.36.09,0,.24.11.36C26.62,43.21,26.61,43,26.9,42.93Z" fill-rule="evenodd"/><path d="M42.45,45.07a2.91,2.91,0,0,0,1,.17c-1-.1-.07.34-1.18.23C42.57,45.36,42.53,45.26,42.45,45.07Z" fill-rule="evenodd"/><path d="M16.61,41.68c.47.06.52.25.29.27C16.49,41.88,16.6,41.78,16.61,41.68Z" fill-rule="evenodd"/><path d="M19.48,42.22c.7.1.5.41-.21.35C19.16,42.39,19.51,42.38,19.48,42.22Z" fill-rule="evenodd"/><path d="M21.87,42.63c.24.09.78.3,0,.19C22,42.71,21.56,42.66,21.87,42.63Z" fill-rule="evenodd"/><path d="M41.76,45.36c.68.11.11.34.26.5C41.07,45.66,42.32,45.63,41.76,45.36Z" fill-rule="evenodd"/><path d="M15.77,41.86c.53.11.52.27.6.42l-.64-.09C15.88,42.07,15.52,41.89,15.77,41.86Z" fill-rule="evenodd"/><path d="M39.81,45.24l.64.09c.1.13-.18.12-.19.21C39.88,45.46,39.93,45.35,39.81,45.24Z" fill-rule="evenodd"/><path d="M43.32,45.88c-.3-.06-1-.08-.79-.19C42.91,45.73,43.28,45.74,43.32,45.88Z" fill-rule="evenodd"/><path d="M22.29,43.14c0-.1.08-.15.5-.08-.08.08.28.12.14.21A4,4,0,0,1,22.29,43.14Z" fill-rule="evenodd"/><path d="M16,42.32c.59.09.55.5-.07.52,0-.15-.52-.45.23-.46C16.22,42.35,16.13,42.33,16,42.32Z" fill-rule="evenodd"/><path d="M44.56,46.36c.14,0,.15,0,.16.06s.2.16.62.2c-.39.12-.28.19-.22.4-.38-.07-.36,0-.81-.07C44.88,46.78,44.66,46.67,44.56,46.36Z" fill-rule="evenodd"/><path d="M47.28,46.78c.61.05.18.21.28.31C47.19,46.94,47.11,46.91,47.28,46.78Z" fill-rule="evenodd"/><path d="M16.8,42.68c.2.09.39.26.12.28S16.54,42.71,16.8,42.68Z" fill-rule="evenodd"/><path d="M18.07,43c.1.14-.58.06-.81,0C17.29,42.86,17.67,42.91,18.07,43Z" fill-rule="evenodd"/><path d="M47.23,47.16c.63.16.14.4.1.44C47,47.51,47.1,47.25,47.23,47.16Z" fill-rule="evenodd"/><path d="M46.1,47.08c.31-.09.77.32,0,.15C45.87,47.11,46.51,47.14,46.1,47.08Z" fill-rule="evenodd"/><path d="M35.51,45.65c.12.06.9.6-.07.53.38-.26-1.87-.38-1.06-.57C34.83,45.74,35.6,45.91,35.51,45.65Z" fill-rule="evenodd"/><path d="M27.12,44.84c.68.35-.62.28-.56.53-1-.22.19-.24-.09-.55a4.65,4.65,0,0,1,.48.1C26.91,44.86,27.11,44.88,27.12,44.84Z" fill-rule="evenodd"/><path d="M23.25,44.49c-.42,0-.69-.11-.62-.2C22.91,44.26,23.25,44.39,23.25,44.49Z" fill-rule="evenodd"/><path d="M38.34,46.47c.5.14.3.33-.06.42C37.71,46.73,38.34,46.63,38.34,46.47Z" fill-rule="evenodd"/><path d="M42,47c.23.07.33.14.29.23C41.76,47.16,41.76,47,42,47Z" fill-rule="evenodd"/><path d="M17,43.73c.16,0,.25.41.28.38C16.44,44.09,17,43.88,17,43.73Z" fill-rule="evenodd"/><path d="M35.24,46.42c.41-.1.8.32,0,.15C35,46.46,35.65,46.49,35.24,46.42Z" fill-rule="evenodd"/><path d="M27.22,45.34c.45,0,.13.16.46.22a2,2,0,0,1-.65,0C27,45.45,27,45.36,27.22,45.34Z" fill-rule="evenodd"/><path d="M29.6,45.83c.44,0,.31.12.63.16,0,.12.12.31-.52.2C29.82,46.06,29.45,46,29.6,45.83Z" fill-rule="evenodd"/><path d="M26.72,46.57c.33-.19-.5-.69.41-.59.27.22-.52.27.25.53.25-.27,0-.57-.2-.91-.36.09-.51-.15-.79-.19-.8.25,0,.53-.29.91.2.12.32.07.47.14C26.32,46.45,26.54,46.53,26.72,46.57Zm0-.92c.6,0,.26.24.13.25C26.46,45.84,26.77,45.73,26.68,45.65Z" fill-rule="evenodd"/><path d="M29.86,46.32c.36.07,0,.19.12.29C29.47,46.49,29.84,46.39,29.86,46.32Z" fill-rule="evenodd"/><path d="M42.31,48.41c-.56-.16,0-.18-.11-.36C42.45,48.18,42.51,48.33,42.31,48.41Z" fill-rule="evenodd"/><path d="M47.17,48.78c.55.11.09.63.06.75-.46-.27.07-.45-.55-.74C46.9,48.88,47.29,48.93,47.17,48.78Z" fill-rule="evenodd"/><path d="M44.11,48.43c.68.26.35.53.23.69C43.89,48.9,44.05,48.69,44.11,48.43Z" fill-rule="evenodd"/><path d="M28.86,46.45l0,.19C28.36,46.42,27.46,46.31,28.86,46.45Z" fill-rule="evenodd"/><path d="M16.17,44.87c.34,0,.3-.12.82,0-.16.12.69.16.45.29-.17,0-.1-.09-.31-.12l-.5,0C16.26,45,16.47,44.91,16.17,44.87Z" fill-rule="evenodd"/><path d="M25.64,46.12c.38.11,0,.23.29.27C25.36,46.42,25.46,46.2,25.64,46.12Z" fill-rule="evenodd"/><path d="M30,46.72c.26.08.15.18.29.27C29.51,47,29.77,46.74,30,46.72Z" fill-rule="evenodd"/><path d="M31.89,47l.63.17c-.19.08-.13.16.29.27a3,3,0,0,1-.82,0C32.12,47.29,31.88,47.15,31.89,47Z" fill-rule="evenodd"/><path d="M15.05,44.67c.41.06.3.17.29.27C15.12,44.85,14.77,44.7,15.05,44.67Z" fill-rule="evenodd"/><path d="M28.34,46.65c.32.13.82,0,.79.22A1.24,1.24,0,0,1,28.34,46.65Z" fill-rule="evenodd"/><path d="M34.42,47.58c.48.12-.16.15,0,.26C33.78,47.72,34.25,47.62,34.42,47.58Z" fill-rule="evenodd"/><path d="M23.84,46.13c.56.07.64.27.45.29s-.4-.12-.15-.1c0,0-.29-.07-.47-.1C23.75,46.2,23.84,46.18,23.84,46.13Z" fill-rule="evenodd"/><path d="M18.86,45.51c.27.17.77.51.09.54C18.48,45.84,18.52,45.65,18.86,45.51Z" fill-rule="evenodd"/><path d="M41.46,48.72c.54.2.07.4.08.59C41.16,49.18,41.42,48.87,41.46,48.72Z" fill-rule="evenodd"/><path d="M39,48.8c.11-.11-.28-.16,0-.19a2.65,2.65,0,0,0,.47.11c-.11,0-.26.07,0,.11,0,0-.07,0-.16,0Z" fill-rule="evenodd"/><path d="M38.19,48.72c-.14,0-.15,0-.15-.06-.23,0-.07.1-.34.07-.59,0-.11-.19-.62-.24-.06-.12.87.15.81,0C38.1,48.58,38.17,48.65,38.19,48.72Z" fill-rule="evenodd"/><path d="M15.91,45.55c.6.06.35.34-.19.2C15.73,45.66,16,45.68,15.91,45.55Z" fill-rule="evenodd"/><path d="M18.78,46.06a4.86,4.86,0,0,1,.48.11c-.08.06-.08.15-.5.08Z" fill-rule="evenodd"/><path d="M38.78,49.11a.71.71,0,0,0-.31-.12c.16-.08.64.18.5,0,.32,0,.19.13.63.17.2.12-.65,0-.18.13-.15.09-.51-.1-.8-.11C38.59,49.09,38.69,49.1,38.78,49.11Z" fill-rule="evenodd"/><path d="M15.08,45.66c.51.12.14.21.12.28C14.84,45.87,15.16,45.75,15.08,45.66Z" fill-rule="evenodd"/><path d="M18.75,46.29c.6,0,.61.31.28.31C18.42,46.54,18.85,46.39,18.75,46.29Z" fill-rule="evenodd"/><path d="M32.53,48.23l.48.07c-.15.07,0,.27-.52.2C32.82,48.47,32.6,48.33,32.53,48.23Z" fill-rule="evenodd"/><path d="M23.05,47.08c.52.1,1,.21,1.43.32C24.35,47.41,22.9,47.22,23.05,47.08Z" fill-rule="evenodd"/><path d="M18.7,46.66c.29,0,.33.09.64.13-.16.2-.07.42-.23.5C18.36,47.07,18.84,46.95,18.7,46.66Z" fill-rule="evenodd"/><path d="M47.54,50.81c.31.06.25.31-.35.15C47.09,50.83,47.64,50.95,47.54,50.81Z" fill-rule="evenodd"/><path d="M13.85,46.24c.71.1.09.23-.35.14C13.4,46.25,14,46.37,13.85,46.24Z" fill-rule="evenodd"/><path d="M13.63,46.66l.48.07c-.39.21.34.47-.25.61C13.19,47,14,46.93,13.63,46.66Z" fill-rule="evenodd"/><path d="M18.76,47.39c.45.12.19.15.28.34C18.4,47.66,18.88,47.5,18.76,47.39Z" fill-rule="evenodd"/><path d="M37.64,50.3c.78.19-.43.17.28.31a.56.56,0,0,1-.61-.28A.71.71,0,0,0,37.64,50.3Z" fill-rule="evenodd"/><path d="M45.44,51.76c.2.18,0,.6.06.71C44.93,52.33,45.26,51.87,45.44,51.76Z" fill-rule="evenodd"/><path d="M32,49.88c.42.19-.41.24-.54.34C30.77,49.94,31.72,50,32,49.88Z" fill-rule="evenodd"/><path d="M41.27,51.2c.53.08,1.14.15,1.11.27C41.89,51.4,41.28,51.33,41.27,51.2Z" fill-rule="evenodd"/><path d="M13.85,47.37c.34.08.46.28-.19.16C13.63,47.44,13.71,47.39,13.85,47.37Z" fill-rule="evenodd"/><path d="M31.71,50.57c.27.12.26.21.12.29-.18-.08-.45-.16-.45-.26A.71.71,0,0,0,31.71,50.57Z" fill-rule="evenodd"/><path d="M36,51.38c.42,0,.52.13.46.22C36,51.55,35.95,51.47,36,51.38Z" fill-rule="evenodd"/><path d="M37.91,51.77a3,3,0,0,1-1.14,0C36.72,51.59,37.54,51.77,37.91,51.77Z" fill-rule="evenodd"/><path d="M18,49c.64.07.44.21.44.33C18.08,49.19,17.94,49.08,18,49Z" fill-rule="evenodd"/><path d="M34.71,51.35c.34.08.45.3-.19.2C34.5,51.45,34.51,51.36,34.71,51.35Z" fill-rule="evenodd"/><path d="M32.94,51.13c.36.1,0,.27.11.4C32.61,51.36,32.79,51.18,32.94,51.13Z" fill-rule="evenodd"/><path d="M41.25,52.48a4.65,4.65,0,0,1,.47.11c-.16.19-.33.26-.4.49C40.71,52.88,41.19,52.65,41.25,52.48Z" fill-rule="evenodd"/><path d="M26.49,50.47c.59.12.17.33.26.5C26.38,50.79,26.34,50.6,26.49,50.47Z" fill-rule="evenodd"/><path d="M34.65,51.72c.37.22,0,.36.25.54C33.86,52.07,34.66,51.85,34.65,51.72Z" fill-rule="evenodd"/><path d="M18.12,49.53c.22.14.6.26.28.34C17.85,49.77,17.88,49.61,18.12,49.53Z" fill-rule="evenodd"/><path d="M39.24,52.81c.68.13.23.15.45.3C39.11,53,39.22,52.92,39.24,52.81Z" fill-rule="evenodd"/><path d="M32.18,51.87c0,.18-.47,0-1-.06A1.68,1.68,0,0,1,32.18,51.87Z" fill-rule="evenodd"/><path d="M46.76,54c.51.09.51.5-.37.3C46.73,54.25,46.79,54.13,46.76,54Z" fill-rule="evenodd"/><path d="M34.58,52.25c.39.24.32.47.07.63C34.38,52.58,34.42,52.4,34.58,52.25Z" fill-rule="evenodd"/><path d="M41,53.21c.33.1.42.21.77.31,0,.1-.52,0-.51.12C41,53.51,40.93,53.37,41,53.21Z" fill-rule="evenodd"/><path d="M31.2,51.84c.59,0,.11.19.62.24C31.14,52.54,31.42,52.22,31.2,51.84Z" fill-rule="evenodd"/><path d="M27,51.54c-.54,0-.26.09-.52.19-.28-.09-.1-.21-.28-.31A2.89,2.89,0,0,1,27,51.54Z" fill-rule="evenodd"/><path d="M38.53,53.21c.73.14.3.28.28.35-.21,0-.24-.1-.47-.15S38.63,53.34,38.53,53.21Z" fill-rule="evenodd"/><path d="M37.38,53.23c.59,0,.11.23,0,.26C36.6,53.32,37.68,53.32,37.38,53.23Z" fill-rule="evenodd"/><path d="M31.28,52.43c.58,0,.2.18.29.27C31.05,52.57,31.18,52.56,31.28,52.43Z" fill-rule="evenodd"/><path d="M15.26,50.14c0,.13.51.61-.41.55C15.34,50.57,14.73,50.33,15.26,50.14Z" fill-rule="evenodd"/><path d="M20.54,50.94c.35.06,0,.17.13.25C20.22,51.13,20.31,51,20.54,50.94Z" fill-rule="evenodd"/><path d="M18.08,51c.52.21.58.53-.08.52C18,51.36,17.8,51.12,18.08,51Z" fill-rule="evenodd"/><path d="M29.45,52.62c.42.05.69.11.62.21C29.79,52.85,29.45,52.72,29.45,52.62Z" fill-rule="evenodd"/><path d="M20.48,51.35c.36.1.67.52-.05.37Z" fill-rule="evenodd"/><path d="M26.52,52.54c.77.18-.07.33.25.5C26.09,52.92,26.67,52.7,26.52,52.54Z" fill-rule="evenodd"/><path d="M44.45,55.19c.74.12-.09.27.28.35C43.9,55.5,44.7,55.32,44.45,55.19Z" fill-rule="evenodd"/><path d="M13.21,50.71c.58,0,.2.18.29.27C13.09,50.92,13.19,50.81,13.21,50.71Z" fill-rule="evenodd"/><path d="M33.07,53.61l.48.07,0,.23c-.56-.22-.07.21-.82,0C32.41,53.64,33.4,53.81,33.07,53.61Z" fill-rule="evenodd"/><path d="M27.6,53c.63.07.16.23.28.35C27.63,53.21,27.69,53.08,27.6,53Z" fill-rule="evenodd"/><path d="M46.62,56c-.41-.06-.36-.2-.13-.21C46.9,55.86,46.85,56,46.62,56Z" fill-rule="evenodd"/><path d="M15,51.58c.24.13.51.36-.2.27C14.95,51.78,15.09,51.72,15,51.58Z" fill-rule="evenodd"/><path d="M40.18,55.3c.64.13,0,.15.12.33C39.74,55.53,40.07,55.37,40.18,55.3Z" fill-rule="evenodd"/><path d="M32.81,54.26c.2.07.35.46-.21.35C32.74,54.44,32.55,54.36,32.81,54.26Z" fill-rule="evenodd"/><path d="M45.14,56.07c.46.06.88.12.79.23A1.23,1.23,0,0,1,45.14,56.07Z" fill-rule="evenodd"/><path d="M20.46,52.61c.56.18.06.25.27.42C20.07,52.86,20.47,52.76,20.46,52.61Z" fill-rule="evenodd"/><path d="M13,51.82c.54,0,.23.15.29.23C12.93,51.94,12.85,51.9,13,51.82Z" fill-rule="evenodd"/><path d="M19.29,52.74c.39.11.26.17.13.25C19,52.92,19.06,52.75,19.29,52.74Z" fill-rule="evenodd"/><path d="M15.26,52.3a.35.35,0,0,0-.06.41c-.89-.17-.06-.26-.58-.46A3.4,3.4,0,0,1,15.26,52.3Z" fill-rule="evenodd"/><path d="M20.23,53l.48.07c.29.25.29.31.1.47C20,53.39,19.88,53.2,20.23,53Z" fill-rule="evenodd"/><path d="M13.17,52.07c.52.32.06.55,0,.8A.61.61,0,0,1,13.17,52.07Z" fill-rule="evenodd"/><path d="M44.24,56.64c.41.14,1,.27,1.08.43-.35-.09-.68-.19-1.1-.28Z" fill-rule="evenodd"/><path d="M13.8,52.23c.19.1.36.3.12.32S13.56,52.26,13.8,52.23Z" fill-rule="evenodd"/><path d="M31.89,55c.26,0,.23.27,0,.23C31.13,55.09,31.83,55,31.89,55Z" fill-rule="evenodd"/><path d="M39.08,56.15c.81.29.17.69.19,1C38.13,56.66,39.44,56.7,39.08,56.15Z" fill-rule="evenodd"/><path d="M20.8,53.61c0,.09,0,.14-.19.16-.3,0-.09-.14-.46-.18C20.2,53.53,20.44,53.54,20.8,53.61Z" fill-rule="evenodd"/><path d="M34.09,55.57l1.11.28c0,.17-.39-.06-.81-.08A1,1,0,0,1,34.21,57C33.53,56.52,34.29,56.09,34.09,55.57Z" fill-rule="evenodd"/><path d="M11.65,52.41l.48.07c-.16.1.23.15.46.22C12.33,52.74,11.6,52.51,11.65,52.41Z" fill-rule="evenodd"/><path d="M20.45,53.78c.46.1.17.08.14.17s.36.09.3.16a7.14,7.14,0,0,1-.79-.19C20.09,53.83,20.37,53.84,20.45,53.78Z" fill-rule="evenodd"/><path d="M22.2,54.08c.45.16.24.37.24.57C21.82,54.46,22.13,54.24,22.2,54.08Z" fill-rule="evenodd"/><path d="M45.42,57.55l.64.09c0,.11-.35,0-.66,0Z" fill-rule="evenodd"/><path d="M13,53.18c.24.09.31.19.28.31C12.68,53.42,13.12,53.28,13,53.18Z" fill-rule="evenodd"/><path d="M43.89,57.94c.28.25.2.32.4.6a2.42,2.42,0,0,1-.81-.08q-.12-.17.5,0C43.18,58.18,43.8,58.06,43.89,57.94Z" fill-rule="evenodd"/><path d="M21,54.58l0,.15C20.34,54.67,20.37,54.46,21,54.58Z" fill-rule="evenodd"/><path d="M46.58,58.54c.18.07.16.16.13.25-.71-.1.09-.1-.3-.2-.72.13-.09.1-1-.14A5.14,5.14,0,0,1,46.58,58.54Z" fill-rule="evenodd"/><path d="M39.53,57.53c.11.1-.17.19-.22.39-1-.13-.24-.18-.6-.36A4.31,4.31,0,0,0,39.53,57.53Z" fill-rule="evenodd"/><path d="M20.78,54.82c.13.1.12.3.09.51-.56-.2.19-.3-.58-.5C20.36,54.7,20.73,54.89,20.78,54.82Z" fill-rule="evenodd"/><path d="M22,55.12c.55.18.39.46-.08.56C22.3,55.54,21.92,55.35,22,55.12Z" fill-rule="evenodd"/><path d="M41.4,58.15c.22,0,.12.11.14.18-.27-.08-.86-.13-.78-.23C41,58.13,41.36,58.21,41.4,58.15Z" fill-rule="evenodd"/><path d="M11.12,53.8c.64.18,1.15.16,1.26.34,0-.05-1-.19-.48-.07-.3.09-.25-.15-.8-.16Z" fill-rule="evenodd"/><path d="M34,57.21c.73.12.14.18.13.21C34.06,57.81,33.9,57.66,34,57.21Z" fill-rule="evenodd"/><path d="M43.6,58.75c.52.09.09.27.93.33-.35.06-1-.13-.68.13C42.91,59,43.93,59,43.6,58.75Z" fill-rule="evenodd"/><path d="M36.36,57.91a4.1,4.1,0,0,1-.8-.12C35.64,57.7,36.44,57.74,36.36,57.91Z" fill-rule="evenodd"/><path d="M46.46,59.34c.45.13.28.24.11.33C46.22,59.58,46.54,59.44,46.46,59.34Z" fill-rule="evenodd"/><path d="M35.37,58c.62.06.59.27,0,.15Z" fill-rule="evenodd"/><path d="M38.24,58.5l-1-.14C37.32,58.3,38.35,58.36,38.24,58.5Z" fill-rule="evenodd"/><path d="M13.25,54.87c.16,0,.13,0,.17-.05a3.44,3.44,0,0,0,.63.13c.17.34-.25.31-.1.67l-1-.14c-.13-.06-.2-.13-.13-.21.29.09.08.21.78.27C12.93,55.1,14.34,55.25,13.25,54.87Z" fill-rule="evenodd"/><path d="M46.06,59.78c.32.12,0,.3.6.4a1.15,1.15,0,0,1-.93-.33A.94.94,0,0,0,46.06,59.78Z" fill-rule="evenodd"/><path d="M17.38,55.72c.22.1.26.31.12.32l-.32,0c-.08,0-.16-.09-.14-.14C17.69,56,16.88,55.7,17.38,55.72Z" fill-rule="evenodd"/><path d="M18.79,56.08c.35.06,0,.17.13.25C18.48,56.26,18.57,56.1,18.79,56.08Z" fill-rule="evenodd"/><path d="M15.9,55.76c.2.1.42.29.12.32S15.65,55.79,15.9,55.76Z" fill-rule="evenodd"/><path d="M22.61,56.81l.48.07c-.29.18,0,.51-.26.65C22.51,57.31,22.56,57.06,22.61,56.81Z" fill-rule="evenodd"/><path d="M16.17,56.11c.48.13-.16.14,0,.26C15.29,56.25,15.85,56.1,16.17,56.11Z" fill-rule="evenodd"/><path d="M33.6,58.88c.5,0,.46.32,0,.19Z" fill-rule="evenodd"/><path d="M37.25,59.62c.57.12,0,.1.13.25C36.85,59.77,37.17,59.7,37.25,59.62Z" fill-rule="evenodd"/><path d="M12.76,56c.27.08.33.17.29.27a3.44,3.44,0,0,0-.63-.13C12.29,56,12.68,56,12.76,56Z" fill-rule="evenodd"/><path d="M35,59.32l1.28.19C36.46,59.71,35.06,59.44,35,59.32Z" fill-rule="evenodd"/><path d="M13.38,56.18c.72.09.15.28.93.37,0,0-.2,0-.33,0s-.15,0-.18.09C13.51,56.47,13.14,56.27,13.38,56.18Z" fill-rule="evenodd"/><path d="M36.65,60.34c-.2,0-.84-.1-1.13-.09C35.49,60.11,36.38,60.24,36.65,60.34Z" fill-rule="evenodd"/><path d="M29.87,59.74c.59.05.26.24.13.25C29.69,59.87,29.74,59.82,29.87,59.74Z" fill-rule="evenodd"/><path d="M12.36,57.54c.51,0,.74.33.13.21,0-.07.16,0,.18-.09C12.39,57.63,12.37,57.58,12.36,57.54Z" fill-rule="evenodd"/><path d="M13.31,57.72c.16,0,.75.82-.27.71A1,1,0,0,0,13.31,57.72Z" fill-rule="evenodd"/><path d="M16.49,58.32c.61.06.54.25.28.27C16.37,58.52,16.48,58.42,16.49,58.32Z" fill-rule="evenodd"/><path d="M36.94,61.66c.48.22.71.26-.19.2C36.76,61.78,37,61.8,36.94,61.66Z" fill-rule="evenodd"/><path d="M16.44,58.65l.48.07c-.11.07.16.3-.21.27C15.86,58.79,16.75,58.82,16.44,58.65Z" fill-rule="evenodd"/><path d="M15,58.65c.87.19.22.5.54.73C14.87,59.17,15.13,58.9,15,58.65Z" fill-rule="evenodd"/><path d="M11,58.12c.35.06,0,.17.13.25C10.18,58.2,11,58.27,11,58.12Z" fill-rule="evenodd"/><path d="M12.25,59.3c1.21.35.05.46.37.81C11.87,59.8,12.84,59.64,12.25,59.3Z" fill-rule="evenodd"/><path d="M39.12,63.47c.05.13-.36.07-.82,0A2.13,2.13,0,0,1,39.12,63.47Z" fill-rule="evenodd"/><path d="M43.58,64.27c.13.09.49.19.13.21-.54-.07-.23-.21-.94-.26A2.4,2.4,0,0,1,43.58,64.27Z" fill-rule="evenodd"/><path d="M13.65,59.74c.77.15-.18.22-.52.19l0-.19a2.74,2.74,0,0,0,.47.11Z" fill-rule="evenodd"/><path d="M37.46,63.64c-.26.08-.7-.14-1.12-.17C36.42,63.35,37.1,63.56,37.46,63.64Z" fill-rule="evenodd"/><path d="M40.74,64.69c.37.1,1,.17.94.3C41.42,64.88,40.67,64.82,40.74,64.69Z" fill-rule="evenodd"/><path d="M43.58,65.36a2.65,2.65,0,0,0,.47.11c-.34.06-.31.11-.21.28l-.64-.1C43.55,65.64,43.61,65.52,43.58,65.36Z" fill-rule="evenodd"/><path d="M30.6,3.56s0,.07-.17.06c0,0-.13-.06-.15-.09.27,0,.15-.21.19-.32a26.9,26.9,0,0,0-4.84-.45c-.34-.23-.56,0-1.11-.26.13.18.5.33.6.51-.64-.12-1.66-.18-1.59-.39a2.14,2.14,0,0,0-1,0,28.84,28.84,0,0,0-3.85-.54,1,1,0,0,1-.33.08c-.46-.1-.8-.05-1.44-.22,0,.09,0,.18.14.24-.32-.09-.57,0-.8-.16-.53.06-1.15-.05-1.63.06.3,0,.1.13.47.16s-.19-.11.17-.09.11.16.63.18c0-.07.12-.11.34-.12.12.18.55.15,1,.13.63.32-.27.31-.7.45-.52-.12-.51-.15-.81,0-.55-.27-2.06-.1-2.9-.33-.17,0-.17.12-.5.1a12.88,12.88,0,0,0-3.74,0,7.38,7.38,0,0,0,2.26.16c1,.23,1.43.05,2.58.23,0,.17-.41.19-.68.27A1.33,1.33,0,0,1,12.27,3c0,.07.17.1.15.16C11.17,3,10.75,3.17,9.5,3c-.22.27-1.75-.14-2,.13,1.09,0,3.32.28,4.21.21.1.09.75.1.79.19-.5.47-4.22-.14-5.39.19a4.34,4.34,0,0,0,1.62.06,5.67,5.67,0,0,0,1.61.2c1.75.47-1.72.21-2.47.3.19,0,.17.08.15.13a1.56,1.56,0,0,1,1,.17c.18-.2,1,.18,1.62.06.1-.05-.17-.24.18-.2.6.07.44.18.3.25.31.1.68.11.8.16-.25.11-.87.08-1.16.18-.38-.09-.09-.08-.31-.14-.31.16-.79,0-1.62,0C9,5,8.39,5,9,5.13c.22-.17,1.16.18,1.77.19.33-.06-.15-.19.18-.2.53.12,0,.25.28.4a3.16,3.16,0,0,0-1.14,0,16.46,16.46,0,0,0-2.27-.09c-.19.05-.22.15-.35.22a3.74,3.74,0,0,0,1.3,0,3,3,0,0,0,1.13.08c0,.09,0,.18.3.22s-.09-.08,0-.18c.5.1.4,0,.65,0-.15.25.63,0,.8.16-1.18.16-2.78.17-3.94.33.86.12,1.18,0,2.26.2.09,0-.17-.21.18-.17,0,.08.43.12.47.2-.56-.09-.29.09-.18.13-.94,0-.32.16,0,.22-.16.07-.66,0-.51.21s.42,0,.48.05c-.74.06,0,.09-.2.35-.18,0-.39,0-.17.06s.7,0,.82-.06c-.35.14.31.72-.86.43-.24.09.12.14-.18.2.49.1.83,0,1,.07,0,.07-.53,0-.5.06.6.09,0,.1.3.26a4.12,4.12,0,0,1-.81,0c.23.31-.85.49-.24.76.27,0,.42,0,.48.05s-.27.11-.19.24c-.23,0-.26-.09-.47-.13.18.31.36.83-.27.94.6.19.14.32-.2.39.9.2.35.43.43.57a1,1,0,0,1,.33-.08s.13.06.15.09c-.57,0,0,0,0,.11,0,.3-.66.74.37,1a3.5,3.5,0,0,1-.64-.11c.33.27,0,.36-.23.61.49,0,.26.16.63.22a3.8,3.8,0,0,1-.66.11c.18.11.62,0,.8.13-.83,0,.09.25-.36.33-.4-.09.17-.16-.14-.2s-.41.37.12.35c-.15,0,.48,0,.82,0-.1.11-.69,0-.67.19s.31.13.47.2c-.38-.07-.4.13,0,.15s-.4-.15.17-.09c.4.06,1,.11,1,.22-.39,0-.34-.11-.8-.13s0,.09,0,.18a1.42,1.42,0,0,0-.82,0c.28.05,1,.06,1,.15-1-.09-.49.28-.54.46a9.68,9.68,0,0,1,1.26.4c-.51,0-.64-.21-.8-.13s0,.11,0,.15c-.69-.06-.19-.12-.47-.17,0,.05-.39,0-.65,0,.13.21,0,.34.75.53.22-.07-.34-.22,0-.18.12.11.5.41,0,.37C10,16,10.3,16,10.06,16c-.05.07-.6,0-.66,0,.6.07.51.42.94.29-.32.22-.26.5.08.68.5,0,0-.1.34-.11s.14.18.13.28c-.72-.14-1.09,0-.5.13-.08-.11.68-.11.82,0-.55,0-.77.21-.54.42a4.49,4.49,0,0,0-.81,0c.53.05.45.17.79.24-.52,0-.34,0-.64-.11.27.16-.1.22-.2.35a1.32,1.32,0,0,0,.49,0c.28.16.3.15.45.35-.12,0-.78-.18-.65,0,.8,0,.67.19,1.27.26-.12-.13-.13-.09.18-.13-.37,0-.6-.08-.63-.15.33,0,0-.26.51-.2.11.2,1.18.23,1.27.26-.54,0,.17.09.15.13-.32-.08-.77,0-.33,0,0-.05.39,0,.65,0-.42,0,0,.18.3.26-.4-.05-.78-.1-.81,0,.28.08.45.17.79.24a2.74,2.74,0,0,0-.49,0,2.09,2.09,0,0,0-.94-.33c-.27.14.13.29.93.41-.42,0,.33.12.13.24a4.69,4.69,0,0,1-.49,0c-.08-.13.31-.08,0-.18-.62-.13-.34.06-.66,0,0,0-.28-.08-.32,0,.68.08.47.26.77.39a2,2,0,0,1,.65,0c0,.08-.89,0-.5.13.31-.06,0,.06,0,.11a8.44,8.44,0,0,1,2.09.21c-.52,0-.34.16-.67.18l-.32,0c-.2-.14.5-.15,0-.26,0,0,0,.07-.17.05s0-.07-.15-.09c-.2.3.17.49-.4.59.68.08-.28.2.29.33.18,0,.07-.13.5-.05.18.06,0,.18-.19.2s-.46,0-.63-.15c-.06.08,0,.14.14.2a7.42,7.42,0,0,0,1.47,0c.1.13-.29.08-.19.2-.49-.18-.52.2-1.14,0-.12,0-.65.1-.19.2-.24-.12.56,0,.49,0-.32,0-.22.08-.65,0,0,0-.28-.07-.31-.11.27,0,0-.14-.14-.17-.09.17-.37.1-.81,0,.14.18,1.05.28,1.42.43-.39-.06-.36,0-.81-.06-.13.16.51.24.61.37-.38,0-.85.08-.51.16.91,0,.34-.33.86-.35.16.19.72,0,1.59.3.06.2-1.28-.13-.67.15.13-.08.48,0,.16.06,1,.12,1.83-.09,2.41.25-.25,0-1.42-.15-1.15.05.41-.05.23.06,0,.07a2.44,2.44,0,0,1,.64.11c0,.08-.37.06-.66,0,.52.14-.29.12-.35.18a8.63,8.63,0,0,0,1.15,0s.18,0,.32,0c.11.21-.21.26-.37.37,1.74.26-.82.29,0,.41.3,0-.08-.07.17-.05s.5,0,.64.15c-.33,0-.17.12-.5.09a5.31,5.31,0,0,0-1.13-.06c.12,0,.18.05.15.09.5.12.67-.06.81.06s-.8,0-.34.15c.4-.09-.25.18.15.09a1,1,0,0,1,.33-.07c0,.07.27,0,.32.08-.38,0,0,.15,0,.26-.46.1-1.85-.06-1.17.2,0-.07.17-.07.49,0l0,.22c.62.14.08-.15.5-.09,0,.07.43.1.3.19s-.56-.07-.49,0c.3.15.82,0,1,.08-.73-.06.15.23-.51.16a.72.72,0,0,1-.31-.11c.13,0,.32,0,.33,0a1.4,1.4,0,0,0-.83.09c.1.1.72.14.79.25-.25,0-.72-.06-.66.07a4.8,4.8,0,0,1,1.1.32,4.71,4.71,0,0,0,.09.58c-.62-.08-.06,0-.17.09-.44-.08-.33,0-.65,0,.14.17,0,.21.44.39.28,0,0-.18.34-.15l0,.15c.37.09.36,0,.63.15.09,0-.16-.22.18-.17l.32,0c-.49.21.63.63-.56.61.48.08.61.21.61.34-.44-.05-.32-.1-.64-.08.43.33-.52.17-.39.48.45.14.26.21.44.43l-.64-.08c-.15.1.41.13.46.21-.23,0-.47.06-.67.1a3.2,3.2,0,0,0,.81,0c0,.24.35.06.49,0,0,.23-.24.25.11.43-.38,0-.37.07-.66.07-.48-.12.37-.17-.3-.23-.66.25-.51.76,0,1.13,0,.06-.45,0-.49,0,.37.15,0,.37.59.49-.14-.26-.14-.12.34-.11-.23,0-.17-.1-.31-.15a5.16,5.16,0,0,1,1.28.16c.28,0,.09-.23.67-.14.6.44-2,0-.87.42.46,0,0-.13.67-.1l-.07.52c-.36-.06-.61-.07-.65,0a2.41,2.41,0,0,1,.64.12c-.2.07-.15.1-.65,0,.09.13,0,.15.14.21a.93.93,0,0,1,.49,0c.07.64.52,1.17.1,1.75.41.08.76-.05,1,.09a2,2,0,0,1-.65,0c-.21.74.3,1.14.56,2a2.84,2.84,0,0,0-.49,0c.89.23.24.27.43.47a6.11,6.11,0,0,0,1.13.07s.2.08.15.13a6.45,6.45,0,0,0-1.3,0c.68.16.23.29.76.44.18.05.82.06.15.1.6.15.92.1,1.43.27-.23-.18.43,0,.5-.09-.21-.05-.29-.12-.3-.19a3.22,3.22,0,0,0,.33,0,2.87,2.87,0,0,0,1.29.13c0,.09.23.15.46.21,0-.05,0-.15.18-.13.41.09.31.24.77.33-.41-.07-.61-.15-.65,0,.53.06,1,.12.62.23-.26,0-.07-.12-.31-.15-.35.14.82.28,1.09.41.05.11-.6,0-.66,0a3.19,3.19,0,0,0,.78.29c-.31,0-.78-.06-.67.1a4.71,4.71,0,0,1,1.77.2c-.82-.33-1.24-.54.2-.28.4,0-.31-.19.18-.17.42.22.38.3.1.47.77.14,0,.21.61.35.35-.09-.28-.44.68-.21-.07-.12-.21-.23-.28-.34.1,0,.88,0,.5,0a3.15,3.15,0,0,1-.81,0V38a2.26,2.26,0,0,0,.8.11,1.35,1.35,0,0,0,.1-.75v.08c-.26-.15-.72-.1-1-.2V37.2c.89.2,1.52,0,2.08.31.13-.1-.43-.13-.3-.23a8.42,8.42,0,0,1,1,.2c-1,0-.46.47-.1.75,0-.14-.16-.23,0-.26a1.87,1.87,0,0,0,.81.07c-.21-.32-.61-.51.25-.62a.93.93,0,0,1-.47-.14c.28,0,0-.18.35-.15.17.17,1.14.08,1.1.3-.1.07-.26,0-.49,0-.09.14.34.25-.2.24.19,0,.46.05.48.1-.2,0-1,0-.5.09s-.17.19.62.24c.08.13-.32.08,0,.19a3.17,3.17,0,0,1-.32-.08c.11.13.61.58-.2.28.31.35-.42.6.53.91-.1.15-.13,0-.5.09,1,.16-.19.33.75.52-.37,0-.49.08-.83.08-.08-.08-.06-.17-.3-.23-.4,0,.16.16-.18.13-.56-.09,0-.1-.31-.16-.57,0-.44.37.43.44,0-.09.06-.14.34-.11a1.25,1.25,0,0,0,.47.18c.22-.07-.45-.22,0-.19.24.11.11.26.61.35l-.48-.06a7.37,7.37,0,0,1,.33,2.38c.38,0,.75,0,.79.18-.46,0-.41-.11-.8-.15-.11.12.74.23.29.27.4,0,.78.1.79.18a6.76,6.76,0,0,1-1-.13c.08.25.27.74.35,1a8.37,8.37,0,0,1,1,.21c-.67-.08.16.16-.35.14-.22-.08,0-.19-.46-.25-.1.06-.52.48.09.51-.35,0-.05-.14-.14-.21.24,0,.68,0,.81.07-.17.05-.81,0-.35.18a1.31,1.31,0,0,0,.49,0c.21.15-.1.19-.36.26s0-.15-.3-.2c-.11.07-.44.23.12.32,0,0,.06-.08.33,0,.54.14-.08.31.44.37s-.2-.12,0-.19c.44.06.31.11.64.09.09-.18-.48-.09-.63-.2.27,0,0-.05,0-.11.5-.4.06-.9-.15-1.33,0,0-.14,0-.16,0s.19,0,.17-.05a4.58,4.58,0,0,0,.48.1c0-.2-.57-.55-.24-.65,0,0-.45,0-.48-.07.16-.21.5-.17,1.33-.17-.27-.15-.51,0-.64-.09.39,0,.28-.16.67-.14-.69-.2.07-.18.36-.22-.5-.09-.67,0-.8-.15,0-.08.42,0,.81,0a3.66,3.66,0,0,0-.45-.33,2.11,2.11,0,0,1-.52.2c-.44-.3.57-.36,1.2-.38-.21-.12-.32-.07-.47-.14.27-.14.19-.08.2-.24-.52-.08-.36.1-.82,0,.32-.18-.28-.26-.45-.33.41-.16-.16-.58.74-.63-.15.1.12.16.3.23-.77,0-.28.18-.38.37.55.08.26-.16.67-.14-.12,0-.32,0-.32-.08a4.91,4.91,0,0,1,2.11.13c-.6-.19.41-.13-.29-.31,0,.11,0,.21-.51.12.36-.17-.51-.51.57-.62-1.41-.62.36-.87-.64-1.35,0-.32,1.48-.19,2.44.09-.36.13.28.2,0,.34-.42-.16-.3.05-.66,0,.21-.09-.65-.25-.79-.18.28.07.25.17.62.24s.67.13,1,.05c.35.13,0,.33.6.43.13-.39-.68-.61.45-.94-.13.1.14.16.13.25s-.32,0-.33,0c.82.17.47-.11,1-.06.2,0,.32.09.31.16-.5.13-.5.41.23.76-1.12,0,.46.59-.26.7.21.07.59.12.79.18a2.16,2.16,0,0,1,1-.18c.14-.1-.43-.13-.3-.23a2.65,2.65,0,0,0,.49,0c0-.23-.12-.45.09-.65a6.27,6.27,0,0,1-.63-.2,1.3,1.3,0,0,1,.48.06c.18-.18-.63-.25-.78-.3.13-.07.92.11.82,0A3.17,3.17,0,0,1,42.94,39a4.69,4.69,0,0,1,.49,0c-.5.07.5.23,1.1.3-.1-.13-.1-.09,0-.19-.3-.08-.55,0-.64-.08.07-.07,1.15,0,.51-.17,0,0-.28.06-.33,0a5.14,5.14,0,0,1,.52-.24c-.41-.09-.39-.35-.11-.4a10.29,10.29,0,0,0-1.59-.32c.13-.1,0-.37-.45-.29.09.08-.42.36.76.41.13.12.23.25-.19.25-.1-.09-.51-.24-.64-.12.23.08.71.13.62.24s-.34,0-.81,0c.55.35.18.55.06.78a12.53,12.53,0,0,0-1.4-.53c.32.09.77,0,.33,0s.1,0,0-.11c-.5-.14-.52.08-.65,0a1.87,1.87,0,0,1,.82,0c.24,0-.38-.16.19-.17-.37-.15-.74-.19-.45-.33-.49-.09-.59,0-1-.09.23-.14-.76-.15-.62-.27a11.13,11.13,0,0,0,1.92.29,6.31,6.31,0,0,0-.63-.2c.42,0,.34-.22.2-.32s-.24,0-.65,0c0-.33-1-.38-.89-.66l.48.06c-.3-.32-.2-.72-.87-.81.19,0,.18,0,.18-.09l.48.06c.14-.22-.6-.43.06-.49-.19,0-.46-.05-.48-.1.48-.05,0-.24.52-.28-.67-.2-.48-.29-.42-.52-.39-.1-.68,0-.8-.1.19-.1.58-.13.69-.26-.42,0-.54-.23-.8-.14.46.15-.28.05-.32,0,.36.43-.35.58.52,1-.23,0-.26-.1-.47-.14.14.21.21.46-.22.47.35.12.16.31.43.44-.9,0,0,.38.1.51-.23,0-.26-.1-.47-.14-.18.17-.64.23-.05.42-.28,0-.52.11-.65,0s0,0-.16-.06c.11.12.74.51-.21.39.36-.16,0-.38-.25-.57l.8.1c-.12-.26-.37-.31.21-.4a2.6,2.6,0,0,1-1-.16,1.22,1.22,0,0,0-.54.39c-.12,0-.32,0-.32-.08.32-.17-.31-.32.38-.45-.79-.09-.2-.33-.76-.44-.18.16-.44-.08-.64-.08-1.31,0,.34,1-.77.93-.36-.39.66-.48-.54-.87-.12.07-.55,0-.67.11.2.12.49,0,.64.12-.11.24-.71.33-.08.64-1.34-.13.48.25-.7.33.89.3-.33.3.58.54-.07.09-.42.08-.51.16.19,0,.46.05.48.1-.26,0-.1.09-.34.07A11.05,11.05,0,0,0,31.93,37c-.3,0,.42.22-.2.24-.35-.1-.74-.2-.61-.35.93.14-.34-.3.84-.16-.51,0-1-.22-1.12-.15l.32,0c0,.19-.31.29-.37.33a9,9,0,0,0-1.1-.3c1.14.05,0-.39.87-.38.23.08,1.26.24,1.29.13-.12,0-.18-.06-.15-.1A7.51,7.51,0,0,1,29.45,36c.09-.23.66,0,1,0-.1,0-.19,0-.16-.06s.19,0,0,0-1,0-.63-.16c-.89-.11-.32.15-.68.18s-.21-.23-.45-.33c.16-.06.83.08.82,0-.42-.08-.73,0-1.29-.09.23.06,0,.18,0,.19-.22-.18-.19,0-.64-.08-.09-.06-.62-.09-.63-.16a.71.71,0,0,1,.33,0c.21,0,.14.08.31.12s.63.05.5-.09c-.67-.06-.62-.22-1-.13-.23-.08-.06-.19.5-.09.12-.19-.66-.11-.79-.22,1.13,0,1.19,0,.18-.13a.71.71,0,0,1,.33,0c.21,0,.14.08.31.12a.6.6,0,0,1,.33,0c-.28-.15-.44-.37.36-.3-.48.06.91.15.61.31.8.11,1.33-.08,1-.25-.16.21-.47-.06-.8-.14,0,.05,0,.15-.18.13s-1.28-.14-1.1-.3c.59.05.61.16,1.11.22.22-.08.06-.19-.29-.3.78.07.22-.11.67-.14-.45-.11-1-.21-1.59-.32-.13.09.31.12.3.19a2.76,2.76,0,0,0-.49,0c-.25-.31-.72-.56-.23-.72-.19,0-.46-.05-.48-.1.33-.09.22,0,0-.22a4.43,4.43,0,0,1,1.58.39c.59,0,0-.44-.1-.47s-.07.19-.35.18c.13-.2-.59-.15-.64-.08a6.17,6.17,0,0,1-.61-.34c.15-.09.25,0,.65,0,0-.17-.27-.1-.79-.18.2-.08-.28-.26,0-.22l1.12.14c-.48-.26-.8-.28-1.55-.62a5.91,5.91,0,0,1,1,.2c.21-.24-.88-.13-.78-.33.3,0,.35.09.64.12s-.06-.08-.14-.17a7,7,0,0,1,2.1.19l1.14,0c-1-.06-.43-.49-1.38-.67,0,.07-.44,0-.34.11s.56.07.47.14c-.4-.12-.57,0-.8-.14.26,0-.17-.19.35-.18s.56.14,1.12.18c0-.1-.26-.11,0-.15A10,10,0,0,1,28,31a7.16,7.16,0,0,0,1.63,0c-.17-.34.07-.7.44-.9-.61.12.92.42.26.53.19-.05-.23-.21-.31-.12.43.09-.24.09,0,.23a9.08,9.08,0,0,0,1.28.2c-.61-.24.49-.41-.41-.66,0,.05,0,.15-.18.13-.55-.1.06-.15-.29-.3.3.05,1.29,0,1.28.24-.76.05,0,.48.42.55,0,.09-.63,0-.66.07.55.12.16.27.11.4.47.08.81-.09,1.13.07-.2,0-.38,0-.33,0s.28.07.31.12a3.21,3.21,0,0,0-.33,0,2.19,2.19,0,0,0-1-.16c-.21-.13.12-.16-.13-.28s-.86-.11-.82,0c-.13.09.76.07.63.16s-.12.22-.83.09c0,.12.62.18.45.32a3.6,3.6,0,0,0-1,0c.06-.06-.2-.13-.32-.08a12.62,12.62,0,0,0,1.58.39c.25-.11-.72-.1-.46-.21a1.88,1.88,0,0,0,.81.06c.83.35-1.55.3-.25.69.22-.07-.62-.2-.14-.17a3.22,3.22,0,0,0,.33,0c-.21.15,1.34.22.78.29.41.09.78,0,1,.12-.56-.13-.11.12-.5.05-.13-.12-.51,0-1-.12.33,0,.46-.11-.3-.19.32.23-.43.06-.21.39l.8.1a2.53,2.53,0,0,1,.35-.15,12.26,12.26,0,0,1,1.91.36c-.4,0,.23.1.14.21s-.73-.08-1.14,0c.58.13-.38,0-.18.13s.81.07.63.16a4.64,4.64,0,0,0-.48-.1l0,.15a2.87,2.87,0,0,0,1.14,0c-.4,0-.46-.19-.15-.13a.72.72,0,0,1,.31.12c-.1.06-.1.15-.34.15-.75-.13-.85.13-1.3,0-.09.18.48.08.63.2-.21.19-.19.2.28.34s-.22.2-.49,0c0,.24.49.44-.07.56.36.08.53-.11.81.07-.32,0-.38.06.14.17.11-.08.25-.14.2-.28.74.12.25-.2,1,0,.25-.11-.72-.1-.46-.21a10,10,0,0,0,1.13.07c0-.12,0-.23.35-.22,0,.08.12.14.47.18-.21-.2.54,0,1,0-.76-.14.09-.26-.75-.48,0,.05,0,.15-.18.13,0-.19-.43,0-.8-.1.24,0,.14-.1-.31-.15s.59.25,0,.26c0-.05-.28-.07-.31-.12.27,0,0-.15-.13-.25.22,0,1,.21,1,0-.71,0-1-.18-1.3-.05-.18-.35,0-.06.36-.26-.79-.16-.77-.5-.59-.53a11.32,11.32,0,0,0,1.94.13c-.32.21,1.28.14.62.23,1.46.09.5-.33.4-.6a3.11,3.11,0,0,0-.81,0c.14-.15-.32,0-.31-.12.21,0,.15,0,.33,0,2.08.15,1.14.47,1.7.72,0-.21.74-.12.68-.26.32.09.14.23.61.31-.34-.26.29-.06.83-.09.19-.12-.6-.14-.46-.25a3.08,3.08,0,0,1,.95.24c.36,0-.2-.12,0-.19-.27,0-.42,0-.48-.06.89-.13-.23-.57.59-.77.34.16.84.13,1.11.26-.34,0-1.47.24-.38.41-.07-.11-.2-.16.18-.17-.27.13.83.11.79.22-.2,0-.38,0-.33,0,.46.1.94.16,1.12.18-.37-.14,1.37.13,1.45.11-.29,0-.24.25.12.32.45-.28.14-.41-.23-.76a3.34,3.34,0,0,1,.64.12c-.16-.1-.55-.27-.12-.32a2.84,2.84,0,0,1-.47-.14c.87-.06-.49-.84.88-.55L46,32c-.28-.06-.68,0-.8-.1.06-.13.72,0,.52-.28-1-.11-.24-.27,0-.27a2.27,2.27,0,0,1-.62-.23c.61-.06.16-.17.69-.34-.59-.11-.33.09-.66.07s0-.27,0-.3c.27,0,.07.12.31.15,0-.13.45.15.49,0-.49,0-.89-.27-.45-.29.27,0,.08.12.31.15.12-.17-.57-.25-.12-.36-.33-.15-.88,0-1-.2.39,0-.05-.31.36-.3,0,.14.2.17,0,.27a3.09,3.09,0,0,1,.63.19c0-.1.63,0,.66-.07-1.1-.11-.54-.31-.76-.44,0,0,0,.07-.17.06s-.38-.28-.13-.25.48.19.64.08c-.75-.1,0-.21.19-.21-.38-.07-.65-.08-.62-.27.74.12.46,0,.65,0a.7.7,0,0,1,.31.12c-.31,0-.69-.07-.66,0,.72,0,1.21,0,1.18-.28-.2-.12-.49,0-.64-.12.59,0,.65-.27,0-.27,0-.15.66,0,.52-.21-.51-.1-.35.06-.66,0,.15-.15.21-.32-.27-.42,0-.11,0-.21.51-.13,0,0-.3.05,0,.11.47,0,.29-.17.2-.32.48.1.3-.05.34-.11a4.82,4.82,0,0,0,1,.12c0-.07-.09-.14-.3-.19,0,.17-.83-.1-.79-.17.39,0,.3,0,.81.06.16-.11-.41-.13-.46-.21.4,0,.06-.12,0-.15.23,0,.26.1.47.13-.11-.15.26-.12.19-.25-.27,0-.42,0-.48-.06s.14-.11.51-.17c-.38-.15-1.12,0-1.46-.1,0-.12.9-.06.36-.27l.64.08c0-.18,0-.32.67-.15-.29-.39-.34-.71.44-1l-.8-.1c.07-.06-.23-.13,0-.11s.92.21,1,0c-.2-.12-.49,0-.64-.11.89-.17.11-.63.61-1-.3-.07-.55.05-.64-.08.28-.06.62-.09.68-.23a2.38,2.38,0,0,1-.79-.17c0-.09.15-.11.5-.06,0,.06.11.11.31.15a.59.59,0,0,1,.33,0c-.17-.12-.27-.33.51-.21.19-.19-.24-.11-.47-.21.75,0,.41-.26.22-.52a2.36,2.36,0,0,1-.64-.11c.47,0-.2-.12,0-.19.74,0,.61.11.46.25.84,0,.19-.26-.12-.4.15-.24,1.13-.37.4-.69,0,0-.55.05-.49,0,.58-.07,1.08-.32.55-.56.58-.08.4-.32.07-.57l.48.06c0-.15-.09-.22-.44-.4.52-.06.27-.21.2-.36l.64.07c.13-.38-.15-.77,0-1.13.06-.19.78-.27.86-.41s-.83-.3-.13-.25c-.3-.07-.55.05-.64-.07a8.34,8.34,0,0,0,.59-.94,2.36,2.36,0,0,1-.64-.11,3.86,3.86,0,0,1,.65,0c.29-.34-.43-.64.09-.8-.23-.13-.67,0-.8-.13a3.6,3.6,0,0,1,1,.11c.32-.14-.57-.13-.63-.22l0-.15c1,.18.67-.29.19-.21.38.05.08.18-.18.14s-.15-.43.51-.18c-.47-.2-.49-.35.21-.4-.34-.12-1.1,0-.95-.26.45.08.42,0,.81,0,.15-.19-.23-.26.37-.39a3.78,3.78,0,0,0-1.12-.16l0-.19c.93.08,1-.13,1-.39a2,2,0,0,1-.63-.15c-.06,0,.91-.29.66-.12.4-.28.23-.81-.39-.93.94,0,.3-.24.69-.39a6.22,6.22,0,0,1-.63-.18c.19,0,.46.06.49,0-.8-.1.07-.11,0-.19-.3-.16-.81-.07-1-.22.16-.06.83.06.82-.07-.3-.07-.55.06-.64-.07v-.08a4,4,0,0,1,.8.12c-.31-.34-.42-.54-.41-.78-.57-.12-.11.12-.5.06.47-.55.45-1.16-.48-1.6l.53-.41c-1.52-.19-.34-.73-1.36-1-.29.1.25.32-.2.4-.18-.16-.24-.23-1-.25.61-.08-1.07-.24-.29-.34-.28,0-.42,0-.48,0s.1-.15.34-.16c0,.16.25,0,.48,0s.2.12.14.21a5.37,5.37,0,0,0,1,.06c.09-.16-.09-.29-.28-.42l-.81-.08c.15-.21-.71-.28-.77-.46-.78,0-1.08-.16-1.11-.31A5.94,5.94,0,0,1,45.16,6c-.05.07-.6,0-.66,0,.57.06-.36.09.15.13,0,0,.28-.06.33,0-.32,0,0,.22-.35.2C44,6,42.52,6,42.11,5.61c.28,0,.28-.09.5-.1a5.82,5.82,0,0,0,1.13.08l-1-.21c.36,0,0-.2.35-.2-.49,0-.39-.17-.46-.28-.79,0-.63-.25-1.43-.34.06.15-.07.24-.35.27a8.57,8.57,0,0,1,1.27.32s-.21,0-.17.1c.28,0,.42,0,.48,0-.54,0-.55.1,0,0-.15.31-1.11.1-1.81.2.29-.1,0-.39-.61-.37.34-.09,0-.36-.28-.49.06-.07.44,0,.5-.1-.42-.23-1.25-.41-1.73-.63-.66,0-.56-.05-1.29-.13-.12.14-.81.09-1,.2.21.09.51.35.29.37-1.52-.27-2.68-.63-4.15-.8-.24.09.05.21.13.35a12.41,12.41,0,0,1-2.25-.23C30.39,3.69,31,3.66,30.6,3.56Zm16,25.58c-.35,0-.33-.14-.3-.23C47,29,46.75,29.06,46.64,29.14Zm-6.56,4.2c-.5,0-.24-.27-.63-.16-.19,0-.13-.09-.15-.13.14,0,.15,0,.17,0C39.83,33.11,40,33.21,40.08,33.33Zm-2.37-.61c.4.08,1.13.33,1.27.31.52.12-.29.07-.34.11C38.41,33,37.76,32.9,37.71,32.73Zm-2.1,3.65c-.2.07,0-.35-.32-.08-.22,0-.12-.11-.14-.17.55.14,1.05.07.95.24.22,0,.31,0,.34-.11.39.15-.45.18.62.23v.11C36.38,36.57,35.91,36.2,35.61,36.37ZM20.25,35.24c.42,0,.69.1.63.2C20.46,35.4,20.19,35.34,20.25,35.24ZM25.63,2.87c.27.09.6.28.29.33S25.46,3,25.63,2.87Zm-7.29-.29c-.38,0,.41.39,0,.45,0-.17-.87-.68.54-.55.06.14.24.24,0,.33C18.41,2.72,18.47,2.63,18.34,2.58ZM23.83,3c.72.12-.42.16.29.33-.49-.08-.59,0-1-.06A1,1,0,0,0,23.83,3Zm9.66,1s-.2,0-.33,0,.23.14.47.2c-.32.09-.57-.15-.79-.19C32.88,3.92,33.12,3.92,33.49,4Zm-8.88-.71c.31,0,.11.16.63.18-.07.07-.63,0-.5.1-.2.09-.15-.28-.48-.09C23.82,3.34,24.63,3.34,24.61,3.26Zm-8.25-.42a2,2,0,0,1,.62.33c.37,0,.19-.09.49-.06-.09-.12-.35,0-.64-.07.12,0,.26-.08,0-.11.15-.09.52.07.81.08.08.06-.21.17.14.2-.81.07-.36,0-.51.17A2.79,2.79,0,0,0,16,3.32c-.14-.1-.58-.17-.46-.31h-.65c.06.08.34.13.3.22-.49-.08-.59,0-1-.06s.51-.08.35-.26q1,.16.82-.1c.29.07.54.15.79.23C16.71,3.07,16.42,2.92,16.36,2.83Zm1.89.57c-.7-.12,0-.23.19-.28C19,3.26,18.08,3.25,18.25,3.4ZM39.83,5.64c.15-.12.4,0,1,.06-.11.05-.94,0,0,.19-.08.06.2.25-.34.16C40.5,5.81,40.07,5.77,39.83,5.64ZM18.09,3.42a2.92,2.92,0,0,1,.47.2c0,.11-.43.11-.67.16C17.36,3.6,18.18,3.57,18.09,3.42ZM13.41,3c.58,0,.08.14.47.16a2.47,2.47,0,0,1-.81,0C13.25,3.14,13.54,3.15,13.41,3Zm6.75.84a.61.61,0,0,0-.33,0c-.39,0,.11-.16-.47-.16C19.43,3.58,20.36,3.73,20.16,3.86ZM36.59,5.5c.82.19,1.89.38,2.39.51-1,0-1.62-.43-2.41-.32C36.1,5.61,36.79,5.62,36.59,5.5Zm3,.46c.54.11-.39.18.3.26C39.24,6.3,39.17,6,39.63,6Zm6.59.75c.12-.06.29,0,.48,0-.08.07-.08.16-.5.1C46.06,6.78,46.71,6.79,46.23,6.72ZM11.39,5.24c.24.08.62.14,1,.21,0,.08-.41,0-.81,0C11.4,5.38,11.33,5.32,11.39,5.24Zm.93.47c.44,0-.13.16.31.18a6.84,6.84,0,0,1-1.29-.1C11.54,5.7,12.22,5.89,12.32,5.71ZM20,7.26c-.24.06-.17.22-.83.14A1.18,1.18,0,0,1,20,7.26Zm-.52.32c.4-.05-.29.1.31.15,0,.06-.29.06-.65,0,.11,0,.26-.08,0-.11C19.16,7.59,19.44,7.63,19.45,7.58Zm-4.67-.49c.13.13-.43,0-.5.1C13.85,7.1,14.29,7,14.78,7.09Zm9.32,1.1c0,.09,0,.18-.18.21-.37-.08.44-.21-.47-.2C23.5,8.13,23.74,8.14,24.1,8.19Zm-13-1.31c.4.08-.24.12,0,.26C10.67,7,10.69,6.91,11.06,6.88Zm.31.18c.44.07.62.17.62.29.8.09.12-.1.5-.13.67.12,0,.12,0,.22a5.52,5.52,0,0,1-1-.14c0-.05,0-.11.17-.09C11.57,7.16,11.31,7.13,11.36,7.06Zm2.57.35c-.23,0-.11.22-.82.1l0-.15A4.13,4.13,0,0,1,13.93,7.41Zm-2.76,0a4.18,4.18,0,0,1-.8-.12C10.35,7.07,11.4,7.18,11.17,7.38Zm2.56.46c0-.08.41,0,.81,0C14.55,8,13.87,7.89,13.72,7.84Zm-2.51.59c.33.15-.46.25-.69.34-.42-.08.38-.13-.3-.22-.3-.06.18,0,.16,0A1.1,1.1,0,0,0,11.22,8.43Zm39.91,4.32c.53.07.21.17.14.25C50.91,13,51.22,12.83,51.13,12.75ZM10.18,9c.19,0,.33.08.31.15S9.9,9,10,9.15C9.31,9,10,9,10.18,9ZM10,13.15c.54,0,.94.18.63.22C10.63,13.28,10,13.26,10,13.15Zm2,1.16c.35-.1.51.13.8.16C12.48,14.57,12.32,14.34,12,14.31Zm-.39.59c-.31-.05-.26-.29.34-.15-.21,0-.23.11.14.17C12.17,15,11.68,14.77,11.64,14.9ZM11,14.83l-.49.06c0,.1.59.13.79.2C10.29,15.16,10.14,14.61,11,14.83Zm.32,1.46c-.13.1-.07.26-.52.24a2.51,2.51,0,0,0,1.27.3c.06.17-.51,0-.19.2-.55-.07-.21-.24-1.11-.28-.39-.21.39-.33-.43-.5A8.56,8.56,0,0,1,11.32,16.28Zm3,.94c.64.05.17.23.29.33C14,17.43,14.58,17.4,14.31,17.23Zm-3,.44c0-.09.27.08.64.07.18.14-.52,0-.34.11C11,17.78,11.64,17.71,11.33,17.67Zm1.6.22c.22,0,.12.11.14.17-.36,0-1-.31-1-.07C11.27,17.79,12.57,17.89,12.93,17.89Zm-.35.18c.5,0,.47.12,1,.15C13.31,18.26,12.48,18.23,12.58,18.08Zm1.36,2.3c.14,0,.24,0,.65,0,0,.06-.09.13.14.17C14.48,20.65,14.24,20.41,13.94,20.37Zm1.25.45c.47.09-.22.07,0,.18-.49-.09-.59,0-1-.08s.25,0,.18-.17C14.77,20.92,15,21,15.19,20.82Zm.41.69c-.45-.27.67.14.82,0C17.08,21.74,15.64,21.45,15.6,21.51Zm-1.29-.08c0,.12-.22.15-.35.22s-.24-.1-.47-.13A1.4,1.4,0,0,1,14.31,21.43Zm1.12.13c-.52,0,.31.29.31.11.17,0,.1.09.31.11a9.42,9.42,0,0,1-1.14,0c.11-.08.35-.15-.3-.22A2.2,2.2,0,0,1,15.43,21.56Zm-1,.14c.44,0-.14.16.3.19-.29,0-1.09-.11-1.11-.25C14.14,21.69,14.28,21.81,14.44,21.71Zm2.41.32c-.21.11-.25.09-.35.18-.82-.15-.7,0-1.45-.1l0-.15C15.9,22.26,16.1,22,16.84,22Zm-.56.57.48.06a.89.89,0,0,1-.35.18C16.1,22.75,16.59,22.73,16.29,22.6ZM46.89,27c.47.14-.31.15-.67.11C46.35,27.08,46.78,27.12,46.89,27Zm-1.41.83c.24,0,.32.32-.19.21C45.2,28,45.48,28,45.49,27.88Zm-27.32-2c-.13.1-.44,0-.81-.06C17.39,25.73,18,25.8,18.17,25.88Zm23.77,3c.36.07.13.25-.35.15C41.59,28.89,41.87,28.9,41.95,28.83Zm1.76.29a4,4,0,0,1,.8.14c-.49,0-.16.17-.36.26-.19-.12-.55-.25-.32,0C43,29.33,44.25,29.31,43.7,29.12ZM18.14,26.18c-.06-.08-.62-.11-.46-.21.38,0,.46.12,1,.16.13.14-.53,0-.5.09C17.95,26.18,18,26.17,18.14,26.18ZM30,27.86c.83.07-.29.13.3.23C29.75,28.17,29.74,27.9,30,27.86Zm11.88,1.5c.62,0,.6.26,0,.15ZM38.83,29a3.38,3.38,0,0,0,.64.12c-.6,0-.18.33-1,.22C38.84,29.35,38.83,29.19,38.83,29ZM17.6,26.53c.16,0,.12.06.15.09.19.08.7.12.46.25C17.87,26.77,17.47,26.67,17.6,26.53Zm26.67,3.29c-.25.06-.35,0-.18.17-.43,0-.4-.13-.46-.21A3.39,3.39,0,0,1,44.27,29.81Zm-9.5-1a2.38,2.38,0,0,1,.65,0c.14.09.5.24.13.28-.57-.12,0-.13-.29-.27Zm5.14.63.32,0s.06,0,.16.06c-.14,0-.23.08-.18.17C39.74,29.58,40.08,29.59,39.92,29.43Zm1.28.2.48.06s-.2,0-.33,0,.09.14.3.19C41.22,29.91,40.93,29.72,41.2,29.63Zm2.09.26c.25.1.66.18.62.31-.23,0-.37-.2-.48-.1C43.15,30,43,29.91,43.29,29.88Zm1.92.31c.51.13-.43,0-.19.21-.23-.07-.71-.12-.62-.23C44.79,30.23,45.17,30.28,45.2,30.2ZM31.84,28.81c-.31-.05-.69-.1-.63-.19C31.67,28.64,31.9,28.66,31.84,28.81Zm4.82.56c.35-.06.59.21.78.29-.06.08-.42-.1-.64-.12,0,0,.16,0,.17-.06A.69.69,0,0,0,36.66,29.37Zm3.21.4c.43.07.27.19.62.27C40.21,30.1,39.69,29.88,39.88,29.77Zm-8.69-.92.63.15C31.72,29.12,31,29,31.18,28.85Zm6.89,1c.53.21.8.06,1.28.2a4.45,4.45,0,0,1-1.62-.12C37.8,29.85,38,29.87,38.07,29.82Zm4.17.56c.29,0-.13.1.3.19a9.88,9.88,0,0,1,1.13.06c-.14.16.16.18.63.19-.11,0-.37,0-.34.07a3.38,3.38,0,0,0-.64-.12v-.11a14.26,14.26,0,0,1-1.45-.14c.12,0,.26-.07,0-.11C42,30.37,42.24,30.42,42.25,30.37Zm-4.84-.45c.82.15.45.45.42.59-.61-.09.16-.19-.61-.31C37.55,30.13,37.4,30.12,37.41,29.93Zm3.69.5c.66.14,1.23.29,1.24.5A4.32,4.32,0,0,1,41.1,30.42ZM36,29.82a1.42,1.42,0,0,1,.93.35A2.45,2.45,0,0,1,36,29.82Zm8.83,1.1c.2,0-.07.21-.19.25C44.16,31.05,44.61,30.93,44.79,30.92ZM19.56,27.82c.29.11-.1.06,0,.19-.44,0-.31-.11-.63-.15-.09.2.24.16.45.36-.32,0-.19-.13-.63-.15l0-.3C19.16,27.91,18.94,27.7,19.56,27.82ZM38.2,30.14a4.83,4.83,0,0,0,1,.12C38.87,30.33,38.2,30.41,38.2,30.14Zm-5.8-.61c.5.14.08.16.29.3-.21,0-.24-.1-.47-.14C32.16,29.6,32.52,29.66,32.4,29.53ZM30,29.31c.24-.06.71.17.95.23-.64,0,.17.25-.2.28C30.22,29.68,30.74,29.43,30,29.31ZM41,30.88c-.31,0-.15.13-.66,0,.1-.17-.13-.07-.63-.16.12-.09-.32-.11-.47-.17.18,0,.07-.13.5-.05-.58.11,1.06.24,1.42.37C41.17,30.94,41,30.9,41,30.88ZM29.5,29.29c.3,0,.1.14.47.17a2.41,2.41,0,0,1-.65,0C29.26,29.33,29.44,29.33,29.5,29.29Zm3,.64a4,4,0,0,1,.64.12c-.19.06-1-.11-.83.09C31.66,30,32.47,30,32.52,29.93Zm9.12,1.44c-.07-.08.51-.1-.14-.17a2.37,2.37,0,0,1,.65,0c.19,0,.14-.05.18-.09.59.13-.4.34.28.38,0,.07-.21.06-.18.13-.19,0-.13-.09-.15-.13S42,31.41,41.63,31.37ZM30.39,29.93c.11-.08.79,0,1.15,0,0,.12,0,.27-.51.2C31.31,29.95,30.94,30,30.39,29.93Zm10.28,1.28c.08,0,.2,0,.48.06C40.55,31.55,40.61,31.51,40.67,31.22ZM19.14,28.6c.55.1.09.13,0,.19s-.29-.12-.3-.19A.61.61,0,0,0,19.14,28.6Zm0,1.06c.23.08.37,0,1,.12-.14,0-.86,0-.34.15a3.34,3.34,0,0,1-1,0c-.23-.19.89.12.66-.07,0-.1-.28,0-.64-.08a.53.53,0,0,1-.09-.54c.33,0,.2,0,.64.08,0-.11-.76-.14-.62-.27.46.11.49-.11,0-.11,0-.07.21-.05.18-.13a4,4,0,0,1,.8.14c.16.16-.41.06-.35.18s.54.09.63.15-.3,0-.49,0c.14.08.64.13.46.25-.49-.05-.61-.2-1-.16C19.2,29.49,19.8,29.61,19.17,29.66Zm13.42.93c.37.1-.07.28.45.36-.37.07-.51,0-.19.17a3.43,3.43,0,0,1-.65,0C32.4,31,32.36,30.74,32.59,30.59Zm9,1.13c.21.07.59.11.79.18s-.65,0-.18.13a2.38,2.38,0,0,1-.65,0c.4,0-.16-.2-.31-.12C40.76,31.74,41.67,31.81,41.59,31.72Zm-1.15,0c.23-.08.56.13.46.21l-.48-.06C40.21,31.8,40.85,31.82,40.44,31.76Zm.62.27c.32,0,.19.13.63.16-.41,0-.39.17-.84.16C40.62,32.2,41.14,32.22,41.06,32Zm-2.57-.28c.2.08.76.12,1,.2-.32.06-.56-.11-1-.08Zm5.92.94c.57.23-.21.39.58.61,0,0-.33,0-.32,0-.18,0-.09,0,0,0-.68.06-.94-.32-1.6-.28,0-.17.73.08,1.13.1a3.19,3.19,0,0,1,.33,0C44.13,32.94,44.25,32.79,44.4,32.69Zm-10.13-1.2c.42,0,.52.12.46.21C34.31,31.66,34.22,31.58,34.28,31.49Zm4.46.83c0,.14-1.11.08-1-.08C38.26,32.32,38.25,32.23,38.74,32.32Zm-4.34-.51c.51.07.7.17,1.28.24C35.42,32.1,34.28,31.92,34.4,31.81Zm5.41,1.11c.29,0-.14-.32.37-.38.79.19-.38.19-.06.45-.53,0-.75-.28-.8-.1a2.66,2.66,0,0,0-.48-.1c.1,0,.2,0,0-.08a2.38,2.38,0,0,1,.65,0C39.48,32.82,39.61,32.87,39.81,32.92ZM39,33c-.21-.09-.76-.14-.62-.27C38.82,32.76,39,32.85,39,33ZM18.8,30l.48.06c.05.07-.13.05-.33,0a4.45,4.45,0,0,0,.79.18c-.35.06-.23.3-1,.21.08-.06.36,0,.35-.14-.65,0-1-.09-1.15.08-.66-.14.07-.19-.28-.34a2.73,2.73,0,0,0,1,.2C18.65,30.23,19,30.23,18.8,30Zm8.67,1.13c.47.09-.22.07,0,.19-.13,0-.16-.06-.32-.08s.22.1.47.14a1.88,1.88,0,0,1-.81,0c.23,0,.18-.14.19-.24C27.21,31.17,27.43,31.2,27.47,31.16Zm5,.67c.23.06.62.11.46.21s-.52-.18-.64-.08C31.88,31.9,32.46,31.88,32.44,31.83Zm-4.36-.36c.46.05.3.17,1,.2a3.32,3.32,0,0,1-1.13-.1C28,31.54,28.08,31.52,28.08,31.47Zm-.33,0c-.13,0-.18.06-.18.13l-.64-.08C27,31.46,27.36,31.48,27.75,31.5Zm5,.74c-.29,0-.34,0-.65,0s.46.19,0,.15c-.76-.1.08-.14-.13-.28.29,0,.65.19.8.1.14.17.68.3.76.48A1.11,1.11,0,0,1,32.71,32.25Zm3.2.52c.35,0,.06.14.14.21l-.64-.08c-.07-.09.24,0,.49,0Zm.27.46C36,33.16,36,33.1,36,33c.82.08.95.06,1.61.17,0,.15-.2.19-.36.26a2.58,2.58,0,0,1-.62-.27c-.24,0-.24.12-.66.07C35.77,33.19,36,33.2,36.18,33.22ZM35.55,33a1.43,1.43,0,0,1-.51.13l-.45-.29C35,32.82,34.92,33,35.55,33Zm-13.2-1.45c0,.09-.47,0-.5.05.3.11.92,0,1,.23a10.83,10.83,0,0,0-1.12-.14C21.7,31.6,21.72,31.47,22.35,31.58Zm1.21.76c.41,0,.65.19.8.1s.12.09.14.13c-.13,0-.15,0-.16,0S23.47,32.46,23.56,32.34Zm-.66,0a4,4,0,0,0-1-.09C21.7,32.12,23,32.24,22.91,32.37Zm-.51.16c.17-.06.8.14.79.21C22.58,32.71,22.68,32.6,22.4,32.53Zm1.09.41c-.06,0-.29.06-.33,0C23,32.91,23,33,23,33c-.43,0-.4-.13-.46-.21A1.93,1.93,0,0,1,23.49,32.94ZM22,32.71c.21,0,0,.22-.5.12-.12,0-.16-.11-.14-.17C21.65,32.7,22,32.77,22,32.71ZM33.9,34.43c.2,0,.61,0,.82,0s.09.14.47.17c-.27.08-.51-.05-.81,0l0,.26c-.28,0-.41-.12-.48-.06C33.66,34.67,34.21,34.61,33.9,34.43ZM22.5,33c.23.06.22.15.3.23a2.79,2.79,0,0,1-1.13-.07C21.64,32.91,22.38,33.16,22.5,33Zm1.28.24c.3.09-.39,0,0,.19-.64-.07-.41-.23-.94-.31C23.44,33,23.53,33.32,23.77,33.24Zm.64.12c.34.21,1.05,0,1.11.26-.38-.16-.72,0-.17.05a3,3,0,0,1-1.26-.31A.59.59,0,0,0,24.41,33.36ZM23,34c-.15.15-.15.36-1,.25.46,0,.19-.19.67-.14-.46-.1-.39-.07-.47-.17C22.47,33.86,22.61,34,23,34Zm-.94-.31a1.63,1.63,0,0,0,.64.08c-.41-.11-.15-.28-.77-.36.08-.1.77,0,1,0,.55.17.26.41,1.07.56-.16.06-.64,0-.67.1C22.9,33.9,22.11,33.82,22.09,33.67Zm5.16.51c.37.1.3,0,.8.14,0,.12-.91-.08-1.14,0C26.52,34.22,27.33,34.27,27.24,34.18Zm7.7,1.07c.41,0,.54.4,0,.3C35.23,35.45,34.61,35.35,34.94,35.25ZM27,34.46c.43.11.29.24.12.32C26.64,34.64,27.08,34.61,27,34.46Zm-2.64.19,0-.19c.44.06.33,0,.64.08,0,0-.2,0-.33,0s.19.1.14.17a.61.61,0,0,0,.33,0C25.69,34.9,24.75,34.7,24.41,34.65Zm-2.26-.18,1,.05c-.63.07-.21.11,0,.34-.5,0-.56-.17-.3-.19-.49,0-.58-.11-1-.16C21.67,34.41,22.74,34.6,22.15,34.47ZM37.7,36.64a2.51,2.51,0,0,1,1.1.34,2.36,2.36,0,0,1-.65,0C38.17,36.82,38,36.72,37.7,36.64ZM24.85,35c.31.1.2,0,.64.08l0,.15c-.56-.27-.4.1-1-.09C24.7,35.1,25,35.11,24.85,35Zm-2,0c-.22-.16-.81-.06-.78-.25.52.06.67.15,1.28.2-.19.12.38.16.29.27-.34-.16-1.47-.07-1.43-.3C22.57,34.92,22.45,35,22.89,35Zm11.71,1.6c-.46,0,.41.15.3.23-.6-.14-.05.16-.66,0,.31-.09.07-.28-.62-.27a2.82,2.82,0,0,1,1-.14c-.25.14.53.17.45.29A.91.91,0,0,1,34.6,36.62Zm-9.51-.94c-.11-.06-.48-.07-.79-.18.44,0-.18-.14-.13-.25a.72.72,0,0,0,.33,0c.57.14.25.37,1.08.48a1.77,1.77,0,0,0-.37.33c-.24,0-.2-.25-.32-.08C24.27,35.83,24.43,35.63,25.09,35.69Zm11.28,1.13c.44.06.36.23.13.25S36.45,36.89,36.37,36.82ZM20.46,34.89c.41.06.3.17.29.27C20.15,35.07,20.32,35,20.46,34.89Zm2.41.31a4,4,0,0,1,.64.12c-.06,0-.29,0-.34.07.44.06.33,0,.64.08-.15.11.28.2,0,.22a1.86,1.86,0,0,0-.8-.11C22.77,35.41,23.06,35.38,22.87,35.21Zm4.59,1.13c-.13.09.31.12.3.19.35.05.09-.12.18-.17.6,0,.27.24.13.25-.61-.15-.72-.07-.5.09a8.38,8.38,0,0,0-1.11-.22c.29,0,.91-.1,0-.22,1.12,0-.65-.21.51-.16a1,1,0,0,0-.47-.14,1.52,1.52,0,0,1,.82,0c-.34,0,0,.2.31.15C27.57,36.11,27.59,36.27,27.45,36.34Zm1.65-.13c.27.06.09.1-.17.05.06.07.5.1.3.19a4.05,4.05,0,0,1-.8-.14V36.2C28.56,36.16,29.07,36.28,29.1,36.21Zm7,1.07a4,4,0,0,0,.8.14c.06.09-.12.09-.18.13-.45-.1-.18-.18-.79-.18C36.06,37.36,36.15,37.34,36.15,37.29Zm-12.2-1.56c.28,0,.36.11.3.19-.29,0-.35,0-.65,0C23.47,35.74,23.86,35.79,23.94,35.73Zm11.39,1.53c.67.19.14.41-.37.34-.12-.18.19-.19.52-.2C35.4,37.35,35.32,37.31,35.33,37.26ZM22.8,35.69c.12-.1.34.08.64.08,0,.09-.06.19-.51.12,0-.07.16,0,.18-.09A.71.71,0,0,0,22.8,35.69Zm6.42.84a1.09,1.09,0,0,1-.81-.07C28.44,36.37,29,36.46,29.22,36.53Zm9.46,1.28c.08.23.83.11,1.45.15a1.66,1.66,0,0,0-.54.35c0,.05.47.11.48.06.23,0,0,.12.31.16-.27,0-1.19,0-.18.13-.23.12-.33-.05-.8-.11s.22.13-.18.13c.27,0,.31,0,.33,0,.23.06.22.15.3.23-.95-.14-1-.37-1.23-.59a2.66,2.66,0,0,1-.49,0c-.24,0-.26.11-.51.13-.51-.22.37-.26,1.16-.12.12,0,.16.11.14.17.21,0,.26,0,.49,0-.59-.11-.4-.31-.59-.46a1.3,1.3,0,0,1-.49,0s.29.07.48.1-.13.09-.18.13c.43,0-1-.26-.48-.06C37.51,37.92,38,37.89,38.69,37.81Zm-2.41-.32a2.64,2.64,0,0,0,.48.1c0,.11-.35.05-.66,0C36,37.54,36.22,37.54,36.28,37.5Zm6.9.94c.28,0,.54.22,0,.11,0,0,.16.06.15.1.5.08.47,0,.66-.07.47.12-.23.12,0,.27-.91-.19-.46.08-.66.07C42.61,38.8,43.09,38.52,43.18,38.44Zm-19-2.33c.64.07.41.23.94.31a1,1,0,0,1-.19.24c-.58-.11-.08-.12-.13-.25-.43-.08-.32,0-.5,0C24,36.31,24.36,36.23,24.22,36.11ZM23.58,36a13.74,13.74,0,0,1,2.1.2s-.2,0-.33,0,.19.1.14.17-.28-.08-.32,0C24.93,36.09,24.14,36.12,23.58,36Zm10.76,1.33c.54.09.28.24-.34.11C34.09,37.38,34.25,37.36,34.35,37.32Zm-4.68-.46c.42,0,.52.12.46.21C29.71,37,29.61,37,29.67,36.86Zm-5.8-.61c-.43.11.54.25.43.44a.91.91,0,0,0-.49,0,1.66,1.66,0,0,0-.8-.14c-.15-.11-.49-.28,0-.26,0-.05-.47-.11-.48-.06-.52-.2.37-.2.84-.16C23.33,36.25,23.08,36.16,23.87,36.25Zm5,.54c.42.09.55.33.44.36C29,37,28.73,36.94,28.86,36.79Zm6.58.9c.7.24-.26.16-.84.16C34.73,37.74,35.36,37.82,35.44,37.69Zm-8.21-.89c.53,0,.66.24.45.33a2.12,2.12,0,0,0-.8-.14C26.88,36.91,27.61,36.9,27.23,36.81Zm-5-.47c-.33,0-.07.16-.35.14-.58-.1.05-.14-.12-.32a5.72,5.72,0,0,0,.94.28C22.67,36.53,22.17,36.38,22.23,36.34Zm3.69.49a2.05,2.05,0,0,1-.83.08C24.78,36.78,25.31,36.72,25.92,36.82Zm2.87.53.48.06c-.2.1.46.3,0,.3S28.8,37.54,28.79,37.35Zm-6.26-.79c.1.09,1,.1.79.22C22.85,36.73,22.44,36.67,22.52,36.57Zm0,.26c-.45-.09-.42,0-.81-.07C21.61,36.61,22.57,36.65,22.49,36.83Zm5.15.6c-.16.17.66.25.92.46a5,5,0,0,1-1.41-.42C27.1,37.39,27.61,37.5,27.64,37.43Zm7.95,1.62c.16,0,.12.06.15.1.22,0,.31,0,.34-.11.21.05.29.12.3.19.33,0,.07-.18.66-.07a4.67,4.67,0,0,0-1.11-.26c-.5-.23,1.34.09,1.16-.15a3.92,3.92,0,0,1,.64.12c.12.11-.82.07,0,.19-.43.08-.05.22-.53.28,0,0,.29.07.48.1-.74,0,.45.62-.57.58.63.12.13.21.62.27-.56.13.2.4-.25.62a3.16,3.16,0,0,0-.32-.08s-.06,0-.16-.06c.79,0-.22-.24-.28-.38.47,0,.48-.36-.09-.55,0,.09.1.33-.85.23,0-.07.21-.05.18-.13-.25,0-.15.1-.65,0-.06-.19.85,0,1-.14-.4-.08-.59-.19-1.11-.26-.16-.12.63-.1.49,0,.28,0,.31-.17-.14-.17.46,0,.38,0,.5-.09C35.87,39.23,35.53,39.16,35.58,39.06Zm-.14-.21c-.32,0-.22.08-.65,0-.06-.09.12-.09.18-.13a1.26,1.26,0,0,1,.63.2C35.51,39,35.44,38.88,35.45,38.85Zm8.36,1c1,.22-.55.12-.83.12C42.72,39.75,44,40.09,43.8,39.87ZM27.43,37.75c0,.07-.16.06-.17,0-.5,0,.22.17-.19.17-.23-.06-.33-.14-.3-.23C27.07,37.74,27.13,37.7,27.43,37.75Zm15.32,2.64c.48.07,1.21.39.29.27C43.27,40.54,42.53,40.51,42.76,40.39Zm-8.14,2.22c.53.09.21.18.13.25C34.39,42.81,34.7,42.69,34.62,42.61Z" fill-rule="evenodd"/><path d="M24.85,37.48l.64.08c-.08.08.28.12.14.21-.43,0-1.28-.12-1.62-.06-.16,0,.26-.19.52-.2.5,0,.18.15.79.18C25.57,37.58,24.6,37.59,24.85,37.48Z" fill-rule="evenodd"/><path d="M14.16,2c.14,0,.15,0,.16.05-.18-.06.06.19-.82.1l0-.26C13.74,2,14,2.14,14.16,2Z" fill-rule="evenodd"/><path d="M8.71,13.45a1.33,1.33,0,0,1-.49,0l0-.18C8.71,13.31,9.22,13.63,8.71,13.45Z" fill-rule="evenodd"/><path d="M9.39,17.48c.23.09.65.35.12.39C9.6,17.9,9.06,17.51,9.39,17.48Z" fill-rule="evenodd"/><path d="M10.69,18.94c.7.14,0,.11-.18.17-.58-.09,0-.31-.44-.43.47-.06.29.26.45.35S10.66,19,10.69,18.94Z" fill-rule="evenodd"/><path d="M10.75,21.19c.15-.07.48.14.46.21.34.06.31,0,.34-.07.23.17.13.33-.21.39-.27-.12-.16-.27-.77-.35C10.44,21.25,11.15,21.26,10.75,21.19Z" fill-rule="evenodd"/><path d="M49.41,26.45c.45-.06-.37.2,0,.23C48.85,26.75,49.07,26.42,49.41,26.45Z" fill-rule="evenodd"/><path d="M49.48,27.27c.65,0-.13.16.29.31-.18.14-.42-.19-.48-.06,0-.15,0-.38.25-.74.59.12,0,.15.45.29A.74.74,0,0,1,49.48,27.27Z" fill-rule="evenodd"/><path d="M14.29,24.28a.71.71,0,0,0-.33,0c0-.09-.28-.31-.11-.46.55.11,0,.34.6.45C14.42,24.34,14.29,24.3,14.29,24.28Z" fill-rule="evenodd"/><path d="M14.77,24.34c.7.13-.07.33.25.59-.44,0-.31-.11-.63-.15,0,.08.12.13.47.17-.39.09-.06.23-.53.31-.85-.22.47-.24,0-.41s-.31,0-.33,0c-.31-.09,0-.26.52-.27,0-.07-.09-.14-.3-.19.08,0,.51,0,.34-.11a3.17,3.17,0,0,0,.32.08S14.87,24.35,14.77,24.34Z" fill-rule="evenodd"/><path d="M15.42,25.69c.38,0,0,.22-.19.24C14.64,25.76,15.59,25.83,15.42,25.69Z" fill-rule="evenodd"/><path d="M42.34,33.51c-.47-.09.49,0,.18-.13s-.34,0-.65,0c0,0,.07,0,.17,0s.17-.06,0-.08.57.05.81.06C42.53,33.31,42.88,33.57,42.34,33.51Z" fill-rule="evenodd"/><path d="M43,33.32c-.27.21.93.67.08.67.22-.21-.42-.26-.77-.33C42.69,33.56,43.08,33.47,43,33.32Z" fill-rule="evenodd"/><path d="M43.08,34.1c.52.19-.25.36.6.46l0,.23c-.62,0-1.06-.32-1.13-.07-.36-.09,0-.25-.12-.36.23,0,0,.12.31.15.5,0-.16-.2,0-.3a1.76,1.76,0,0,1-1.12-.14A3.47,3.47,0,0,0,43.08,34.1Z" fill-rule="evenodd"/><path d="M50.6,35.29c.42.24-.48.32-.4.57.6.08.2-.22.68-.19,0,.22-.13.49-.73.61.07-.15.78-.27-.27-.42C49.89,35.56,50.38,35.45,50.6,35.29Z" fill-rule="evenodd"/><path d="M36.42,33.91c0-.2.9-.08,1.17-.2.43.13-.24.18.44.4A8,8,0,0,1,36.42,33.91Z" fill-rule="evenodd"/><path d="M36,33.58s-.3,0-.49,0c.13.14.46.23.12.32-.7-.1.21-.15-.46-.21A.78.78,0,0,1,36,33.58Z" fill-rule="evenodd"/><path d="M44.83,35.72c-.22-.08,0-.2-.46-.25.28-.07.58-.23-.12-.36.06-.1.68,0,.82,0s.3.23.47.14c.41.06-.23,0,0,.15-1-.14-.26.14-.68.18.43.06.75.29.13.25,0,.07.54.09.63.16-.44.17,0,.33-.39.53-.15-.09-.32-.3-.63-.16-.36-.05.22-.07,0-.19-.59.14-.06-.26-.61-.35-.35,0,.17.34-.67.11-.18.09.35.11.63.16-.95.1.29.64-.42.72a2.36,2.36,0,0,0,.64.12c-.15,0-.15.13-.66,0,.62.28-.53.17-.07.53a6.14,6.14,0,0,1,1.44.23c0,.08-.44,0-.34.11-.24-.18-.53-.18-1.12-.18.2.1.77.17.61.31-.42-.16-.4-.08-1-.13.54-.29-.78-1,.3-1.08-.64-.31-.81-.81.12-.91-.13-.13-.24-.07-.64-.12.69-.13-.1-.43.39-.49-.48-.11-.33-.28-.45-.33.45,0,.45.33,1.09.41-.53.05-.15.3-.06.46.78.11.22-.11.51-.13S44,35.69,44.83,35.72Z" fill-rule="evenodd"/><path d="M31.59,33.37a4.09,4.09,0,0,1,.8.14c.06.13-.45,0-.51.13C31.47,33.53,31.41,33.45,31.59,33.37Z" fill-rule="evenodd"/><path d="M29,33.37l.32,0v.11a3.24,3.24,0,0,0-.32-.08c0,.09,0,.14-.18.17-.5-.06-1.14-.2-.81-.07-.59.07-.85-.25-.3-.23.19,0,.13.09.15.13A3.65,3.65,0,0,0,29,33.37Z" fill-rule="evenodd"/><path d="M30.74,33.68c.14-.06.55.16.79.22.42.07.14-.13.66,0-.15.09.21.13.14.21A10.62,10.62,0,0,0,30.7,34c-.21,0-.24-.1-.47-.14.19,0,.64,0,.67-.11S30.83,33.69,30.74,33.68Z" fill-rule="evenodd"/><path d="M40.59,35.75c0-.14-.13,0-.48-.1.43-.09-.23-.43-.08-.63s.68.07,1,.09c.16.19,0,.21.12.36l-.48-.06c.41.14.39.22.45.33a1.29,1.29,0,0,1,.49,0c.17.24-.93,0-1,.07S40.5,35.74,40.59,35.75Z" fill-rule="evenodd"/><path d="M45.76,36.11c.12-.13-.25-.44.53-.32,0,.06.14.21-.34.11.22.1.59.19.61.31.29,0,.31-.1.51-.13s.33.14.3.23A13.41,13.41,0,0,1,45.76,36.11Z" fill-rule="evenodd"/><path d="M37.23,35.2c.14,0,.12.14.13.28-.3-.25-.46-.05,0,.08-.27.41-.69-.2-.77-.37C36.68,35.15,37.2,35.27,37.23,35.2Z" fill-rule="evenodd"/><path d="M22.44,33.48c.37-.15,1.08.33.77.36S23,33.58,22.44,33.48Z" fill-rule="evenodd"/><path d="M49.49,37.56s.16,0,.16,0c.4-.09,0-.27,0-.38.28,0,.3.07.31.12.45,0,0-.3-.44-.37.22,0,.71.14,1.13.11-.49.29-.05.46-.58.7C49.8,37.7,49.82,37.61,49.49,37.56Z" fill-rule="evenodd"/><path d="M40.86,36.13c.44.1-.1.21-.34.07v.08C40.08,36.17,40.74,36.15,40.86,36.13Z" fill-rule="evenodd"/><path d="M45.49,37c.4,0-.14.12,0,.23-.13,0-.44,0-.49,0-.21-.1,0-.13-.46-.25C44.56,36.8,45.48,37.2,45.49,37Z" fill-rule="evenodd"/><path d="M40.32,36.52c-.07-.13.8.09.66-.07.55.39-.1.41.22.8C39.92,37,41.25,36.8,40.32,36.52Z" fill-rule="evenodd"/><path d="M32.11,35.65c.47.08.1.24.45.33C32.29,36,32.05,35.76,32.11,35.65Z" fill-rule="evenodd"/><path d="M44.47,37.29c-.14,0-.15,0-.17,0-.33-.22.7.13.79.22C44.83,37.6,44.59,37.36,44.47,37.29Z" fill-rule="evenodd"/><path d="M17,35.12c.18,0,.08,0,0,0,.1.05.36.09.31.15-.33,0-.2,0-.64-.08v-.11A.62.62,0,0,0,17,35.12Z" fill-rule="evenodd"/><path d="M21.33,37c.18-.15.65.31,1.44.23a12.58,12.58,0,0,1-2,0c.05-.12-.26-.2-.12-.32.28.07.25.17.62.23a.72.72,0,0,0,.33,0S21.45,37,21.33,37Z" fill-rule="evenodd"/><path d="M46.37,40.21c-.21.15.89.16.61.31-.16,0-.12-.06-.15-.1-.37,0-.08.21-.67.11.14,0,.23-.07.19-.17-.67-.12-.76,0-1.29-.09.09,0,.18,0,.18-.09C45.95,40.39,45.68,40.12,46.37,40.21Z" fill-rule="evenodd"/><path d="M21,37.23c.37.06.65.13,1,.2-.41.09-.18.17-.21.39q-.53-.06-.47-.18c-.14,0-.15,0-.17,0C21.26,37.59,20.94,37.33,21,37.23Z" fill-rule="evenodd"/><path d="M40.5,40.17l.48.06c-.32,0,.39.21.12.36-.19,0-.13-.09-.15-.14s-.15,0-.17,0S40.53,40.32,40.5,40.17Z" fill-rule="evenodd"/><path d="M22.18,38s.17,0,.17-.05a4.65,4.65,0,0,1,.48.1s-.2,0-.33,0,.43.11.3.19l-.48-.06C22.35,38,22.64,38.06,22.18,38Z" fill-rule="evenodd"/><path d="M26.84,38.51c0,.13.85.51-.06.45C26.51,38.72,27,38.73,26.84,38.51Z" fill-rule="evenodd"/><path d="M24.25,38.35c.51.13-.65.06.14.17-.23,0-.1.2-.5,0,.19.18.4.29.44.4C23.82,38.92,23.16,38.31,24.25,38.35Z" fill-rule="evenodd"/><path d="M43,41s-.07,0-.17,0-.09.2.46.22c0,0-.32,0-.33,0s.35,0,.64.09c.13.16-.7-.05-.82,0,.31.19-.24.07-.2.24C42.27,41.44,42,40.93,43,41Z" fill-rule="evenodd"/><path d="M46.19,41.55c0,.1-.12.21.29.27-.1.07-.26,0-.49,0,.6.33.26.44.08.67-.24-.24-.41-.49-.23-.73a.6.6,0,0,0-.33,0C45.36,41.67,45.74,41.49,46.19,41.55Z" fill-rule="evenodd"/><path d="M28.6,40c.22-.06.59.12.65,0,.1.1.37.38-.36.26.06.07.5.1.3.19C28.48,40.42,28.89,40.19,28.6,40Z" fill-rule="evenodd"/><path d="M40.44,41.82c0,.13-1-.09-1,.06C38.85,41.75,39.68,41.67,40.44,41.82Z" fill-rule="evenodd"/><path d="M42.51,42.25c-.48-.14.21-.16.66-.07.05.07-.13.05-.33,0,0,0,.06,0,.16.06S42.54,42.12,42.51,42.25Z" fill-rule="evenodd"/><path d="M45.65,43.18c-.2-.18.82,0,1.62.06.26.31,0,.69.21.88C46.57,43.86,46.83,43.29,45.65,43.18Z" fill-rule="evenodd"/><path d="M44.66,43.28c.4,0-.18.14-.35.15-.57-.08.36-.08-.14-.14C44.21,43.24,44.64,43.34,44.66,43.28Z" fill-rule="evenodd"/><path d="M45.19,44.12c1.32.12.12-.38.58-.7.63.17-.2.28.44.41s-.38-.2.18-.13c1,.58-.46.82.15,1.3,0,.09-.15.1-.5,0,.55.32.14.61.2,1-.41-.39-.95-1.28,0-1.55A2.66,2.66,0,0,0,45.19,44.12Z" fill-rule="evenodd"/><path d="M43.39,44.19c.08,0,.2,0,.48.07.12-.09-.32-.12-.47-.18,0,0,.32,0,.33,0-.38,0-.4-.53.22-.4.12-.15-.64-.21-.44-.37.58.12.13.17,1,.21,0,.22-.32.28-.54.39,0,.09.44,0,.33,0,.26,0,.29.29-.19.17.79.19.11.31.41.56-.66,0-.5-.15-1-.21C43.74,44.34,43.76,44.25,43.39,44.19Z" fill-rule="evenodd"/><path d="M38.06,44.93a2.87,2.87,0,0,0-.47-.14c.93.16.16-.22,1-.17,0,0-.15-.06-.15-.1-.55,0-.39-.25-1.11-.23a7.26,7.26,0,0,1,1.62.07c-.08.13-.56.43.08.59s.75-.38.06-.45c.26-.13.56,0,1.13.12-.37,0-.38.48.24.61a7.31,7.31,0,0,1-1.76-.28,2.61,2.61,0,0,1-.17,1.21c0,.08.5.34-.36.22-.61-.59.73-.88-.61-1.47C37.56,44.75,37.71,44.9,38.06,44.93Z" fill-rule="evenodd"/><path d="M47.56,46c-.13.1.15.16.13.25-1-.07.13.18,0,.34C46.82,46.32,46.45,45.9,47.56,46Z" fill-rule="evenodd"/><path d="M46,46.52c-.53,0,.37-.19-.3-.2.2-.14.06-.21.21-.32C46.87,46.25,45.89,46.31,46,46.52Z" fill-rule="evenodd"/><path d="M46.69,46.34c-.13.1.15.16.13.25s-.59-.07-.5,0,.26,0,.47.1c-.06,0-.29,0-.34.07.47,0,.13.11.29.27-.35-.05-.33-.14-.29-.23a1.85,1.85,0,0,1-.81-.07c.2,0,.8.05.18-.09C46.63,46.71,45.87,46.24,46.69,46.34Z" fill-rule="evenodd"/><path d="M45.11,47.1c0,.05,0,.1.14.14,0,0-.32,0-.33,0s.32.07.31.12c.29-.11.78.11.83-.08.23,0,.45.07.49,0,.67.1-.2.12.29.23-.48-.06-1.75-.2-1.82.17-.86-.19-.53-.38-1.05-.65C44.31,46.94,44.22,47.1,45.11,47.1Z" fill-rule="evenodd"/><path d="M22.75,44.53l.48.07,0,.11a4.65,4.65,0,0,1-.47-.1v.07C22.26,44.59,22.9,44.62,22.75,44.53Z" fill-rule="evenodd"/><path d="M45.8,48c.59.14-.53.23.45.3-.32,0-.07.13,0,.23C45.41,48.41,45.65,48.11,45.8,48Z" fill-rule="evenodd"/><path d="M44,48c.05-.09.27.09.64.09.09.14-.29.1-.66.06S44.44,48.09,44,48Z" fill-rule="evenodd"/><path d="M45.18,50.13c-.35,0,.1.11-.19.17a2.36,2.36,0,0,0,.64.13c-.07.13-.42.2-.22.4-.16,0-.12-.06-.15-.1-.51-.12-.14.11-.65,0,.07-.31.53-.7-.52-1,0-.1,0-.19.19-.21a6.73,6.73,0,0,0,1,.14c.11-.09,0-.15-.46-.18,0,0,.07,0,.16,0V49.4c1.15.26.3.56.87.82-.06,0-.29,0-.34.07C45.29,50.25,45.16,50.2,45.18,50.13Z" fill-rule="evenodd"/><path d="M39.15,48.86c-1.39,0-.06.32-1.18.26,0,.11.27.2.28.31s.45-.11.18-.13c.26,0,.64.19.29.23.55.08,0-.1.66,0,0-.08-.11-.14-.46-.18a2.88,2.88,0,0,1,1.42.39c.1.12-.33,0-.34.11.48.14.51.89-.29.85.06.14.77.3,0,.23,0,.08.42.14.63.21a1.84,1.84,0,0,0-.38.33c.89.4-1,.57.17,1.07-.5,0-.34.17,0,.34-.55.08-.65-.32-.95-.25-.45-.07.4,0-.31-.12,1-.16,0-.87.95-.91-.92-.35-.29-.52-.21-.8s-1-.61.24-.51c-.56-.14-.36-.16-.6-.36s-.31,0-.34.07c-.18-.12-.63-.22-.6-.36-.64,0,.3.45.4.64-.14-.12-.85-.23-.65,0-.23,0-.45-.07-.49,0-.4-.13-.3-.3-.43-.45.28,0,.36.12.3.2.69,0-.65-.31,0-.3-.13-.12-.38.06-.64-.09.93-.15.8-.35.61-.84.7.13.84,0,1-.05A3.11,3.11,0,0,1,39.15,48.86Z" fill-rule="evenodd"/><path d="M34.18,48.16c1.09.24.31.43.88.7-1.24-.06.38.91-.79,1C34.34,49.14,34.49,48.68,34.18,48.16Z" fill-rule="evenodd"/><path d="M41.24,50.23c.23-.22-.49-.79.44-.83-.24,0-.37.25.28.31-.32.08.31.28-.36.22.07.16.47.28,1.09.39-.27.1.06.18-.2.28-1.15-.23-.16.35-.87.38a2.68,2.68,0,0,0-.48-.11c-.16-.28.15-.32-.09-.52s.92.11.33,0c.29-.1.25.12.47.14C42.31,50.45,41.69,50.21,41.24,50.23Z" fill-rule="evenodd"/><path d="M40.24,49.24l.32,0c.08,0,.16.08.14.14l-.64-.09v.08C39.53,49.28,40.4,49.36,40.24,49.24Z" fill-rule="evenodd"/><path d="M15.76,46.58c.83.05.19.23.77.3C16.37,46.92,15.66,46.69,15.76,46.58Z" fill-rule="evenodd"/><path d="M45.24,50.84c.65.26-.1.35.24.62C44.84,51.22,45.24,51.08,45.24,50.84Z" fill-rule="evenodd"/><path d="M13.47,47.77c.1,0,.25.22,0,.26-.5-.11-.42-.05-.8-.15C12.72,47.77,13.32,47.85,13.47,47.77Z" fill-rule="evenodd"/><path d="M45.31,53.8c0-.09-.24-.15-.29-.24a1.17,1.17,0,0,1-.95-.25c.23.14.67,0,.8.15.54,0,.5-.19.37-.3.81.08.46.62.05.78-.23,0-.45-.07-.49,0-.58-.16-.2-.21-.29-.27.31-.05.58.11.3.16A1.28,1.28,0,0,1,45.31,53.8Z" fill-rule="evenodd"/><path d="M39.48,53.38a1.26,1.26,0,0,0-.63-.21c.44,0,.47-.08,1,0,.13.08,0,.31-.53.27a3.42,3.42,0,0,0,.78.23c-.22.23-.67.76-.31,1-.35.05-.3.12-.67.1.37,0-.41-.34.36-.26C39.17,54.14,39.07,53.58,39.48,53.38Z" fill-rule="evenodd"/><path d="M45.28,54c.84.17.27.31.1.44-.19,0-.28,0-.31-.08q-.36,0-.35.14c.6.14.05-.17.66,0-.12.11-.3.2-.84.15-.38-.16.4-.25-.43-.41.29,0,1.23,0,1.13.12C45.63,54.37,45.33,54.11,45.28,54Z" fill-rule="evenodd"/><path d="M35.45,54.15c-.1.22-.5-.07-.48-.11s0-.14-.11-.36.26-.64-.21-.76c-.44.36-.42.86-.51,1.27a1.3,1.3,0,0,0,.15,1.22c.37-.09-.07-.47.88-.41-.19,0-.46-.06-.48-.11l0-.15c.37.1.3,0,.8.16C35,54.64,35.78,54.42,35.45,54.15Zm-.88.45c-.06-.13.42-.08.65,0A.94.94,0,0,1,34.56,54.6Z" fill-rule="evenodd"/><path d="M30.16,53.38l0-.19c.41.17.61.32.43.45C30,53.51,30.78,53.44,30.16,53.38Z" fill-rule="evenodd"/><path d="M46.66,55.78c-.4-.06,0-.14,0-.15.32.07.08.19.45.26C46.83,56,46.81,55.66,46.66,55.78Z" fill-rule="evenodd"/><path d="M36.56,54.35c.61,0,1.17.29.74.49a2.69,2.69,0,0,0-.47-.11c-.3,0-.15.18-.36.22a1.28,1.28,0,0,0,.79.19c.14.18-.27.13-.51.16,0,.14.54,0,.47.11s-.53,0-.82,0c.09-.25-.78-.63.11-.76-.06-.07-.21,0-.48-.07-.08-.09.72,0,.34-.1.05-.09.27.09.64.09v-.08C36.88,54.42,36.76,54.47,36.56,54.35Z" fill-rule="evenodd"/><path d="M38.86,55.42c.19,0,.57,0,0-.11.58-.05.08-.3.39-.45.66.51,0,.84.14,1.3-1-.14.26-.32-.58-.51C39.13,55.71,39.35,55.56,38.86,55.42Z" fill-rule="evenodd"/><path d="M44.15,56.12s.16,0,.16,0c.29,0,.34,0,.65.06-.08.09-.49,0-.51.16C43.91,56.23,44.52,56.21,44.15,56.12Z" fill-rule="evenodd"/><path d="M32.85,55.08c-.17,0-.1-.09-.31-.12.23-.1.75.29.65,0,.72.1.39.19.13.21S33,55,32.85,55.08Z" fill-rule="evenodd"/><path d="M36.07,55.43c.54.07,0,.15.45.3.28,0,.23-.18.52-.19.48.2-.25.32.09.48a12.2,12.2,0,0,1-1.42-.36C36,55.59,36.32,55.6,36.07,55.43Z" fill-rule="evenodd"/><path d="M14.94,53.39c-.44-.07-.33,0-.64-.09a1.28,1.28,0,0,1,.66,0c.19.12,0,.07.13.21C15,53.53,14.92,53.44,14.94,53.39Z" fill-rule="evenodd"/><path d="M13.21,54c.45.23-.44.38.06.69C12.25,54.59,13.15,54.17,13.21,54Z" fill-rule="evenodd"/><path d="M39.46,58s-.07,0-.16,0,.37.32-.06.42c-.66-.06-.53-.29-.28-.31,0-.1-.53-.16-.95-.22C38.24,57.67,38.91,58.07,39.46,58Z" fill-rule="evenodd"/><path d="M14.08,54.81c.39-.16,1.36.35.3.2-.08-.1.31,0,.34-.06C14.57,54.81,14.28,54.93,14.08,54.81Z" fill-rule="evenodd"/><path d="M14.52,55.1c.74.17.38.34.89.59-.75-.12.06.16-.35.14-.57-.22,0-.31-.57-.54C15.26,55.39,14.23,55.18,14.52,55.1Z" fill-rule="evenodd"/><path d="M15.15,59.63c.3.28.43.48.21.75A.65.65,0,0,1,15.15,59.63Z" fill-rule="evenodd"/><path d="M17,60.55a.71.71,0,0,0-.31-.12,2,2,0,0,1,.65,0c.2.18-.37.06-.35.17C16.76,60.59,16.81,60.53,17,60.55Z" fill-rule="evenodd"/><path d="M14.9,1.15c.46,0,.39.15.63.21a7.61,7.61,0,0,1,1.93.19c.94.06,2.48.09,2.23.45a13.82,13.82,0,0,0-2.91-.22,1.73,1.73,0,0,1-.48-.12c-1.37-.15-3,0-3.57-.1a3.83,3.83,0,0,0-1.13-.08c0-.18.58-.14.36-.37.45,0,.14.15.47.2a4.58,4.58,0,0,1,1.3,0c.34,0-.22-.12.18-.13C14.58,1.36,14.35,1.13,14.9,1.15Z" fill-rule="evenodd"/><path d="M12.51,20.13c.39,0-.11.16.47.17-.41.06-.42.14-.37.33.19,0,.14-.05.17-.09.29.21-.51.31-.22.46-.39-.22-1.46-.54-1.38-.69a3.69,3.69,0,0,1,.94.34c.18,0,.12-.06.33,0,0-.11-.4-.18-.46-.28C12.48,20.22,12.16,20.18,12.51,20.13Z" fill-rule="evenodd"/><path d="M14.7,22.26c.63.18.12.25.59.48-.74,0-.2.19-.52.28-.94-.26-.2-.47-.89-.75.16-.11.3,0,.81.06Z" fill-rule="evenodd"/><path d="M17.7,34.8c0-.39-.23-.84.14-1.08.21.05.29.12.3.19.3,0-.1-.13.35-.14.42.29,0,.46.39.77-.33,0-.2,0-.64-.08C18.25,34.57,18.31,34.86,17.7,34.8Z" fill-rule="evenodd"/><path d="M21.64,38.27c-.44.08-.07.07,0,.26.16,0,.13,0,.17-.05.63.1-.13.1.3.19-.25,0-.39-.08-.81-.07v.07s.29.07.48.1c-.07.21-.64-.08-1.12-.15.53,0-.26-.29-.11-.39A10,10,0,0,1,21.64,38.27Z" fill-rule="evenodd"/><path d="M43.71,41.83c.36.09,0,.25.12.36-.44-.14-.1-.13-.29-.27-.42,0-.1.17-.35.15-.65-.1,0-.1-.3-.23s-.34,0-.34.07c-.23-.08-.29-.17-.29-.27C43,41.55,43.35,42,43.71,41.83Z" fill-rule="evenodd"/><path d="M17.42,38.12a4.7,4.7,0,0,1,.48.1c-.52.21.68.7-.42.7C17.47,38.68,16.66,38.2,17.42,38.12Z" fill-rule="evenodd"/><path d="M20.76,38.8a4.05,4.05,0,0,0,.8.14c.55.36.09.46.06.8-.15-.06-.38-.3-.12-.28a2,2,0,0,0-.63-.16C21.55,39.27,20.14,39,20.76,38.8Z" fill-rule="evenodd"/><path d="M44.65,44.51c.23,0,.49.23.48.07.28.12.26.21.12.29s-.13-.09-.15-.14c-1.21,0-.21.4.07.71-.44,0-.3-.12-.47-.18s-.23.32.44.37c0,.09-.32.08.14.17-.85,0-1.39.17-.88.5-.44-.12-.36-.29-.6-.43a.9.9,0,0,0,.49,0c-.54-.23-.42-.63-.23-.73-.47,0-.93-.29-.13-.25-.23-.08-.23-.18-.45-.26.08-.05.51,0,.34-.11C44.26,44.58,44.83,44.69,44.65,44.51Z" fill-rule="evenodd"/><path d="M17.71,42c.33.31,0,.44.22.75a5.73,5.73,0,0,0-1.12-.15c-.06-.08-.33-.14-.29-.23.21,0,.76.08,1,.06C17.5,42.17,17,42,17.71,42Z" fill-rule="evenodd"/><path d="M36,55.85c.37.16.22.31,1.07.51.23.49-1.18.53,0,1-.54-.2-.41.1-.83.07,0,0,.31.07.31.12-.18.09-.21.24-1,.08,0-.14,0-.28-.27-.39a4.58,4.58,0,0,0,.83-.07c.15-.17-.7-.46.07-.45-.06-.07-.21,0-.48-.07C36.34,56.47,35.49,56.09,36,55.85Z" fill-rule="evenodd"/></g></g></svg>