<svg xmlns="http://www.w3.org/2000/svg" viewBox="0 0 86.9 114.67"><title>Asset 5-240</title><g id="Layer_2" data-name="Layer 2"><g id="Layer_30" data-name="Layer 30"><path d="M58.56,80.36s-.81-.79-2.12-2.26c-.65-.74-1.43-1.65-2.28-2.74-.42-.55-.86-1.13-1.31-1.76l-.68-1-.34-.51-.18-.26s0,0,0,0l0-.06.93-1C57.35,65.54,62,60.12,66.17,54.9s7.88-10.24,10.95-14.62,5.51-8.11,7.18-10.74l2.6-4.16L45.49,0,43.32,3.45c-1.39,2.19-3.42,5.29-6,8.94s-5.64,7.82-9.11,12.17-7.34,8.85-11.37,13.2l-2.42,2.57c-1.15,1.17-2.23,2.37-3.32,3.56s-2.23,2.36-3.23,3.59a40,40,0,0,0-2.67,3.78,35,35,0,0,0-3.72,8.05c-.22.7-.41,1.41-.57,2.12S.6,62.86.48,63.59A34,34,0,0,0,0,67.91,37.55,37.55,0,0,0,3.19,84.14c.5,1.27,1.13,2.49,1.69,3.71s1.21,2.39,1.86,3.53S8,93.66,8.67,94.74,10,96.88,10.6,97.87l.81,1.22.65,1,1.29,1.84c.85,1.18,1.68,2.29,2.48,3.32,1.6,2.05,3.07,3.78,4.31,5.18s2.26,2.46,3,3.18l1.08,1.1Z" fill="none"/><path d="M52.35,86.55c-.13-.06-.11-.2.2-.49C52.68,86.12,52.67,86.26,52.35,86.55Z" fill-rule="evenodd"/><path d="M54.82,83.74c-.28.11-1,1.16-1.14.92.32-.25.57-.81.73-.65.42-.5-.1,0-.17-.18C54.81,83.32,54.69,83.57,54.82,83.74Z" fill-rule="evenodd"/><path d="M35.89,102.36c-.47.47-.91.89-1.12.7C35.19,102.72,35.64,102.31,35.89,102.36Z" fill-rule="evenodd"/><path d="M47.33,90.67c-.4.38-.83.39-.75.16C47,90.48,47.52,90.22,47.33,90.67Z" fill-rule="evenodd"/><path d="M42.58,95.31c-.3.22-.66.18-.54-.09S42.68,95.08,42.58,95.31Z" fill-rule="evenodd"/><path d="M42.24,95.65c-.38.16-.56.56-.92.91-.26-.05-.64.17-.87,0,.36-.25.74-.56.92-.44.47-.52-.41-.08.24-.68C41.71,95.78,42.05,95.54,42.24,95.65Z" fill-rule="evenodd"/><path d="M47.63,90.29c-.08-.18-.05-.41.5-.88C47.84,89.76,48.05,89.87,47.63,90.29Z" fill-rule="evenodd"/><path d="M45.51,92.28a1.68,1.68,0,0,1,.57-.81.52.52,0,0,0,.31-.14C46.32,91.68,45.86,91.93,45.51,92.28Z" fill-rule="evenodd"/><path d="M32.14,104.08c-.31.23-.61.45-.79.34C31.72,104.06,31.95,104,32.14,104.08Z" fill-rule="evenodd"/><path d="M55.94,81.18c-.42.45-.66.41-.51.16C55.78,81,55.87,81.06,55.94,81.18Z" fill-rule="evenodd"/><path d="M53.11,83.61c-.16-.06,0-.3,0-.44C53.52,82.82,53.52,83.25,53.11,83.61Z" fill-rule="evenodd"/><path d="M53.11,83.13c-.67-.14,1.75-2.32,2.67-3.07-.15.41-.84,1.09-.71,1.37C54.47,82.18,53.57,82.55,53.11,83.13Z" fill-rule="evenodd"/><path d="M30.39,102.67c-.25.18-.53.45-.63.27.5-.43.25-.26.09-.38a1.42,1.42,0,0,0,.41-.27C30.43,102.37,30.15,102.6,30.39,102.67Z" fill-rule="evenodd"/><path d="M54.83,76.75c-.17.12-.25.1-.43.24,0-.09.25-.33.57-.58C55.13,76.43,54.77,76.68,54.83,76.75Z" fill-rule="evenodd"/><path d="M53.46,76.86a3,3,0,0,0,.55-.61C54.69,75.75,53.66,77.13,53.46,76.86Z" fill-rule="evenodd"/><path d="M50.32,75.41a2.72,2.72,0,0,0-.55.34C49.56,75.64,50.35,75.16,50.32,75.41Z" fill-rule="evenodd"/><path d="M49.34,72.81c-.91.38.83-.44,0,0Z" fill-rule="evenodd"/><path d="M48.83,72.2c-.54.08-.95.1,0,0C48.71,72.2,48.7,72.2,48.83,72.2Z" fill-rule="evenodd"/><path d="M49.67,72c-.53.08-.52.05-.53,0l.52-.06C49.34,72.06,49.76,72,49.67,72Z" fill-rule="evenodd"/><path d="M49.48,72c-.59.07-.75,0,0,0Z" fill-rule="evenodd"/><path d="M48.42,72.09c-.33,0-.78,0-.54,0l.7-.05S48.62,72.06,48.42,72.09Z" fill-rule="evenodd"/><path d="M48.34,71.87a3.49,3.49,0,0,1-.55,0C48.47,71.83,48.64,71.85,48.34,71.87Z" fill-rule="evenodd"/><path d="M45,71.47c-.63,0-.77-.12-.55-.13C45,71.38,44.93,71.43,45,71.47Z" fill-rule="evenodd"/><path d="M4.74,67.57c-.64-.32-.1-.29-1-.2-.14-.44.42-.28.37-.64a1.42,1.42,0,0,0,.8.09C4.78,67.22,4.91,67.33,4.74,67.57Z" fill-rule="evenodd"/><path d="M4.39,66c-.35-.13,0-.64,0-.91.57.05.07.65.72.66C5.1,66,4.46,65.74,4.39,66Z" fill-rule="evenodd"/><path d="M5.35,61.81A.6.6,0,0,1,5,61.16C5.71,61.28,5.56,61.57,5.35,61.81Z" fill-rule="evenodd"/><path d="M43.8,69.9c-.94-.28-.37-.05-1.09-.17s.79.07-.13-.14c.07,0,.32,0,.38,0,.23.06.26.1.51.17s.07-.12,1.1.17C44.33,70,43.87,69.8,43.8,69.9Z" fill-rule="evenodd"/><path d="M42.6,69.52c-.52-.16.11-.08.08-.16.34.11.34.17.28.23A1.32,1.32,0,0,0,42.6,69.52Z" fill-rule="evenodd"/><path d="M43.72,69.66c-.38-.1-.35-.15-.3-.18C43.93,69.62,44,69.71,43.72,69.66Z" fill-rule="evenodd"/><path d="M41.62,68.78c-.66-.19-.9-.59-.15-.38.14.11-.56,0,.41.31C42,68.8,41.54,68.67,41.62,68.78Z" fill-rule="evenodd"/><path d="M6.12,56.83c.49-.27,0-.88.85-.65C6.67,56.37,6.67,57,6.12,56.83Z" fill-rule="evenodd"/><path d="M8.45,57.26a1.47,1.47,0,0,1-.18-.74C8.7,56.78,8.77,57.05,8.45,57.26Z" fill-rule="evenodd"/><path d="M41.42,67.39c-.51-.23-.59-.44-.32-.38S41.46,67.31,41.42,67.39Z" fill-rule="evenodd"/><path d="M43.39,68.12a3,3,0,0,1-.49-.19c.1-.05-.22-.29.45,0C43.21,67.9,43.16,68,43.39,68.12Z" fill-rule="evenodd"/><path d="M8.5,51.33c.34-.15.56-.56,1.07-.38C9.36,51.4,9,51.49,8.5,51.33Z" fill-rule="evenodd"/><path d="M9.68,50c.23-.5.68-.51,1.09-.6.53.42-.88.36-.14.71C10.47,50.39,10,50,9.68,50Z" fill-rule="evenodd"/><path d="M40.24,65.33l-.43-.25c0-.18.08-.13.05-.29l.62.29a3.16,3.16,0,0,0-.33-.36c.07,0,.43.25.47.21.35.26.15.37-.33.11C40.61,65.32,40.42,65.28,40.24,65.33Z" fill-rule="evenodd"/><path d="M12.89,47.23c-.23-.21-.57-.41-.31-.62C13,46.82,13.3,47,12.89,47.23Z" fill-rule="evenodd"/><path d="M21.33,45.07c-.23-.34.45-.15.51-.55A7.29,7.29,0,0,0,21,44a4.2,4.2,0,0,0,.41-.49l.19-.34a.84.84,0,0,1,.6-.45c.2,0-.59-.49-.39-.53s.59.25.84.28c.42.45.12.57-.29.31a1.3,1.3,0,0,0,.39.53c-.51-.12-.32.37-.93,0-.29.25.11,1.08.57,1.75A1.59,1.59,0,0,0,21.33,45.07Z" fill-rule="evenodd"/><path d="M24.5,46.42c.44,0,.34-.33.39-.65.29.22.09.24.27.42.73.32.11-.74.6-.88.56.88,0,1-.12,1.32-.4-.39-.39.07-.73-.17,0,.12.17.12.36.33C25.14,47,24.81,46.67,24.5,46.42Z" fill-rule="evenodd"/><path d="M43,63.62c-.37-.52-.2-.8.23-.72C43.15,63.08,43.3,63.38,43,63.62Z" fill-rule="evenodd"/><path d="M34.12,55.33c-.32-.4-.32-.28-.55-.6.25-.1.36.4.61.3C34.33,55.19,34.16,55.24,34.12,55.33Z" fill-rule="evenodd"/><path d="M33.91,54.6c-.45-.79.87.26.92.68C34,55.06,34.63,54.72,33.91,54.6Z" fill-rule="evenodd"/><path d="M18,39.38c.14-.14.61.37.72.18.13.18.13.3.07.4C18.46,39.62,18.34,39.71,18,39.38Z" fill-rule="evenodd"/><path d="M29.2,48.74c-.32-.11-.5.05-.9-.23C28.49,48.36,28.75,48.37,29.2,48.74Z" fill-rule="evenodd"/><path d="M32.19,51.95c-.4-.63.2-.17-.29-.88.35.47.32.24.76.61C32.69,52,32.53,52.11,32.19,51.95Z" fill-rule="evenodd"/><path d="M43,61.28c-.32-.46.22-.31.22-.72a.83.83,0,0,1,.34.59C43.18,61.2,43.19,61.12,43,61.28Z" fill-rule="evenodd"/><path d="M25.68,44.91c0-.32.58.38.76.36.15.16,0,.21,0,.29C26,45.2,25.84,45.24,25.68,44.91Z" fill-rule="evenodd"/><path d="M21.24,40.9c0-.18,0-.65.25-.51C21.9,40.78,21.42,40.76,21.24,40.9Z" fill-rule="evenodd"/><path d="M34.61,52.42c-.47-.41-.23-.76,0-.71C34.65,52,34.55,52.17,34.61,52.42Z" fill-rule="evenodd"/><path d="M19.22,37.83c-.16-.31.23-.59.64-.22C19.72,37.82,19.46,37.82,19.22,37.83Z" fill-rule="evenodd"/><path d="M36.07,53a1.32,1.32,0,0,1-.69-1.16c.19.2.26.17.33.12.28.44,1.2,1.41.73,1.37-.44-.34,0-.36-.3-.63S35.86,52.82,36.07,53Z" fill-rule="evenodd"/><path d="M44,60.13c-.61-.32-.06-.43,0-.68C44.7,60.05,43.68,59.64,44,60.13Z" fill-rule="evenodd"/><path d="M22.42,39.36c-.41-.43.06-.5.32-.36C22.83,39.31,22.75,39.54,22.42,39.36Z" fill-rule="evenodd"/><path d="M35.81,51.34c-.63-.7.62-.24,0,0Z" fill-rule="evenodd"/><path d="M24.34,40.86c-.5-.43-.62-.94-.31-.86C24.24,40.33,24.41,40.64,24.34,40.86Z" fill-rule="evenodd"/><path d="M44.81,58.76c-.43-.14-.19-.59,0-.72C45.36,58.51,44.69,58.61,44.81,58.76Z" fill-rule="evenodd"/><path d="M34.61,49.29c-.3-.41,0-.38.3-.33C35.17,49.27,34.58,49,34.61,49.29Z" fill-rule="evenodd"/><path d="M24.35,39.4c-.24-.28.17-.31.44,0C24.77,39.63,24.48,39.36,24.35,39.4Z" fill-rule="evenodd"/><path d="M47.32,59.37c-.36-.47-.22-.68,0-.78C47.77,59,47.6,59.35,47.32,59.37Z" fill-rule="evenodd"/><path d="M35.74,48.76c-.16-.18-.24-.34-.4-.53.09,0,.32.07.28.17.12.1.15,0,.21,0C36,48.62,35.94,48.84,35.74,48.76Z" fill-rule="evenodd"/><path d="M24.87,39.05c-.4-.36,0-.59.08-.58C25.16,38.81,25.23,39.09,24.87,39.05Z" fill-rule="evenodd"/><path d="M36.63,49.46c-.5-.37-.43-.67-.15-.56S36.82,49.36,36.63,49.46Z" fill-rule="evenodd"/><path d="M27,40.84c-.35-.3-.25-.42-.16-.55C27.32,40.66,27.15,40.91,27,40.84Z" fill-rule="evenodd"/><path d="M24.55,38.44c-.43-.11.48-.21-.28-.66l.2-.23c.31.26.31.4.52.63C24.83,38.23,24.64,38.24,24.55,38.44Z" fill-rule="evenodd"/><path d="M34.79,47.39c-.09-.09-.08-.15-.2-.26l.08-.1c0,.27,1,.44.8.8-.15-.12-.21-.2-.2-.26A.87.87,0,0,0,34.79,47.39Z" fill-rule="evenodd"/><path d="M47.74,58.65c-.54-.49,0-.62.13-.88C48.19,58.18,48,58.41,47.74,58.65Z" fill-rule="evenodd"/><path d="M25.16,38.49c-.24-.28.18-.3.2-.47C25.9,38.53,25.37,38.46,25.16,38.49Z" fill-rule="evenodd"/><path d="M25,37.65c-.27-.36.24-.26.48-.06-.13-.22-.19-.56.16-.42C26,37.79,25.61,37.88,25,37.65Z" fill-rule="evenodd"/><path d="M46.4,56c-.26-.21,0-.21-.35-.58.17-.06.66.2.82.54-.31-.21-.2.45-.63,0C46.25,55.89,46.32,55.95,46.4,56Z" fill-rule="evenodd"/><path d="M26.2,36.82c-.39-.41-.09-.56,0-.78A.66.66,0,0,1,26.2,36.82Z" fill-rule="evenodd"/><path d="M48.18,56l-.37-.32c.26-.34.19-1,.84-1C49,55.28,48.33,55.5,48.18,56Z" fill-rule="evenodd"/><path d="M22.26,33.22l.16-.18c.31.26.32.4.53.62C22.66,33.67,22.67,33.47,22.26,33.22Z" fill-rule="evenodd"/><path d="M37.83,45.89c.43.28.34.26.57.58-.31-.2-.39,0-.62,0-.19-.22.06-.1.13-.15S37.56,45.92,37.83,45.89Z" fill-rule="evenodd"/><path d="M43.25,50.51c-.21-.16-.17-.23-.32-.37.1-.12.34,0,.38-.19.13.58.33.1.48.68C43.71,50.8,43.28,50.26,43.25,50.51Z" fill-rule="evenodd"/><path d="M29.77,38.64c.05-.2-.26-.71.16-.43C30.06,38.5,30,38.61,29.77,38.64Z" fill-rule="evenodd"/><path d="M37.39,45.17c-.41-.29,0-.3-.53-.63.18-.32.43.08.66-.27C38.2,45,37,44.56,37.39,45.17Z" fill-rule="evenodd"/><path d="M42.82,49.27c.41.36.84.44,1.27,1-.4,0-1.16-.85-1.19-.6C42.54,49.6,42.56,49.21,42.82,49.27Z" fill-rule="evenodd"/><path d="M49.26,54.21l-.49-.42.18-.2C49,53.78,49.4,54.08,49.26,54.21Z" fill-rule="evenodd"/><path d="M26.89,34.78c-.24,0,0-.32,0-.44.53.51-.08-.29.45.22C27.23,34.77,26.93,34.54,26.89,34.78Z" fill-rule="evenodd"/><path d="M34.38,41.22c-.31-.23-.19-.32-.57-.58.19.06.42.22.45,0C34.47,40.89,34.51,41.08,34.38,41.22Z" fill-rule="evenodd"/><path d="M49.29,53.43c-.16-.81,0-1.26.81-1.44C50.14,52.55,50,53.31,49.29,53.43Z" fill-rule="evenodd"/><path d="M46.63,50.8A6,6,0,0,0,46,50c.14-.09.36,0,.43-.25C47.07,50.3,46.67,50.49,46.63,50.8Z" fill-rule="evenodd"/><path d="M48,51.65l-.25-.21c.06,0,0-.09-.08-.16s.18.09.29.16c.13-.13-.12-.28.17-.2C48.44,51.48,48,51.5,48,51.65Z" fill-rule="evenodd"/><path d="M40.82,45.4c.06-.15,0-.35.17-.45.3.31.07.45.41.77A1.24,1.24,0,0,1,40.82,45.4Z" fill-rule="evenodd"/><path d="M42.75,46.63l.25.21c-.13.13.12.28-.17.2l-.25-.21C42.46,46.55,42.65,46.77,42.75,46.63Z" fill-rule="evenodd"/><path d="M45.65,48.22a.44.44,0,0,1,0-.51C46.14,48.17,45.79,48.06,45.65,48.22Z" fill-rule="evenodd"/><path d="M40.83,44.14c-.11-.08-.1-.12-.08-.15s.19,0,.25,0a1.57,1.57,0,0,0,.7.68C41.62,45,40.9,44.07,40.83,44.14Z" fill-rule="evenodd"/><path d="M32.06,36.71c-.21-.15-.17-.22-.33-.36.51.08,0-.4.27-.58.31.25.32.4.54.62C32.19,36.45,32.21,36.52,32.06,36.71Z" fill-rule="evenodd"/><path d="M24.28,30.12c-.31-.23.24-.15-.26-.45.17.07.18-.13.49.18C24.33,29.94,24.63,30.25,24.28,30.12Z" fill-rule="evenodd"/><path d="M32.92,37c-.32-.26-.12-.16,0-.2s-.12-.17-.21-.26.23-.07.49.17S33,36.75,32.92,37Z" fill-rule="evenodd"/><path d="M32.5,36.19c-.1-.2-.56-.52-.66-.72.19-.15.39.42.49.17C32.73,35.95,32.64,36.08,32.5,36.19Z" fill-rule="evenodd"/><path d="M52.72,53.14c-.41-.35-.35-.55-.23-.73C52.63,52.68,53.09,53.24,52.72,53.14Z" fill-rule="evenodd"/><path d="M33.44,36.83c-.24-.21,0-.26-.42-.51.07-.16.66.63.61.27C33.92,36.85,33.54,36.86,33.44,36.83Z" fill-rule="evenodd"/><path d="M28.52,32.37c.3,0,.13-.18.39-.22C29,32.35,29.06,32.88,28.52,32.37Z" fill-rule="evenodd"/><path d="M32.15,35.34c-.28-.25.1-.27.2-.24s0,.14,0,.2c.15.08.22,0,.45.22C33,36,32.34,35.28,32.15,35.34Z" fill-rule="evenodd"/><path d="M25.07,28.93c-.2-.29.22-.35.09-.62C25.74,28.85,25.25,28.73,25.07,28.93Z" fill-rule="evenodd"/><path d="M50.93,50.49c-.23-.17-.21-.26-.08-.16,0-.05-.12-.17-.21-.26.06-.25.59.18.71.42C51.26,50.59,51,50.27,50.93,50.49Z" fill-rule="evenodd"/><path d="M32.68,35.22c-.14-.17-.15-.29-.09-.4.14.13.23.18.29.16C33.16,35.24,32.77,35.25,32.68,35.22Z" fill-rule="evenodd"/><path d="M30.07,33c-.35-.34.2,0,.16-.19l.25.21c0,.09.07.18,0,.24C30.31,33.15,30.14,33,30.07,33Z" fill-rule="evenodd"/><path d="M29.33,32.41c-.47-.37-.23-.48-.26-.69C29.66,32.13,29.24,32.18,29.33,32.41Z" fill-rule="evenodd"/><path d="M31.23,33.93a2.54,2.54,0,0,0-.58-.57c.75.12-.58-.88,0-.78.23.41.61.56.92.92q.33.17.44,0C32.21,33.92,31.55,33.78,31.23,33.93Z" fill-rule="evenodd"/><path d="M44.6,44.94c-.49-.34,0-.45.13-.4C45,44.77,44.6,44.79,44.6,44.94Z" fill-rule="evenodd"/><path d="M33.46,35.55l.16-.19c.41.28.13.33.54.61A2.77,2.77,0,0,1,33.46,35.55Z" fill-rule="evenodd"/><path d="M25.69,28.44a1.75,1.75,0,0,0-.34-.36c.67.26.34-.63.94-.37C26.23,28.06,26.24,28.47,25.69,28.44Z" fill-rule="evenodd"/><path d="M36.28,35.71a1.69,1.69,0,0,0-.34-.36c.17-.14.22-.47.52-.38.51.35,0,.35.47.71C36.47,35.52,36.53,35.66,36.28,35.71Z" fill-rule="evenodd"/><path d="M51.06,47.8c-.59-.85.53-.52.18-1.24l.5.41C51.18,47.18,51.59,47.62,51.06,47.8Z" fill-rule="evenodd"/><path d="M49.93,46.88c-.23-.38-.15-.94.21-.77C50.57,46.51,50,46.62,49.93,46.88Z" fill-rule="evenodd"/><path d="M37.51,36.24c-.26-.45.11-.36.18-.74l.63.51A2.61,2.61,0,0,1,37.51,36.24Z" fill-rule="evenodd"/><path d="M52.69,48.36c-.09-.22-.09-.55.17-.47C53,48.13,53,48.46,52.69,48.36Z" fill-rule="evenodd"/><path d="M37.4,35.1c-.56-.6-.56-.21-.82-.27-.05-.26-.43-.63-.19-.79.42.46.35.06.71.41C36.76,34.52,37.64,35,37.4,35.1Z" fill-rule="evenodd"/><path d="M41.67,38.83c-.18,0-.08-.58.16-.45C42.26,38.82,41.75,38.66,41.67,38.83Z" fill-rule="evenodd"/><path d="M50.31,45.9c-.63-.52.65-.13,0-.72.06,0,.17.05.21,0s.14.08.17.05C50.71,45.5,50.69,46,50.31,45.9Z" fill-rule="evenodd"/><path d="M29.87,29c-.55-.68-.24-.89.1-1.15C30.47,28.61,29.62,28.43,29.87,29Z" fill-rule="evenodd"/><path d="M51.78,46.66l-.38-.31c.38-.45.38-1,.76-1.19C52.59,46.16,51.92,46,51.78,46.66Z" fill-rule="evenodd"/><path d="M35.59,33.47c-.52-.37.21-.13.15-.44C36.18,33.46,35.68,33.3,35.59,33.47Z" fill-rule="evenodd"/><path d="M53.24,47.69c-.52-.37.08-.41.09-.62C53.63,47.37,53.61,47.77,53.24,47.69Z" fill-rule="evenodd"/><path d="M53.8,47c-.52-.39-.45-1,.26-.31Z" fill-rule="evenodd"/><path d="M30.14,27.86c-.34-.28-.12-.46.1-.38C30.5,27.8,30.33,27.82,30.14,27.86Z" fill-rule="evenodd"/><path d="M46.41,40.69c-.24-.28.21-.35.24-.55C46.93,40.43,46.71,40.77,46.41,40.69Z" fill-rule="evenodd"/><path d="M34.2,30.83c-.23-.35-.21-.28-.72-.66.87.6.37-.42,1.27.24C34.35,30.39,34.3,30.54,34.2,30.83Z" fill-rule="evenodd"/><path d="M54.64,47c-.37-.3-.23-.59,0-.52C55,46.74,54.75,46.85,54.64,47Z" fill-rule="evenodd"/><path d="M52.54,45c-.55-.45-.06-.81.55-.42C53,44.85,52.67,44.72,52.54,45Z" fill-rule="evenodd"/><path d="M50.73,43.33c-.13-.23-.42-.76.21-.26C50.73,43.18,51,43.43,50.73,43.33Z" fill-rule="evenodd"/><path d="M35.09,30.76c-.52-.45.2-.49.21-.78C36,30.66,34.82,30.15,35.09,30.76Z" fill-rule="evenodd"/><path d="M55.61,47.08c-.37-.39-.2-.62-.13-.88l.51.41C55.72,46.73,55.87,47.15,55.61,47.08Z" fill-rule="evenodd"/><path d="M36.75,31.78l-.51-.41c0-.22.27-.07.36-.19C36.89,31.46,36.74,31.6,36.75,31.78Z" fill-rule="evenodd"/><path d="M34.13,29.37c.22.21.81.54.56.6C34.36,29.76,34,29.57,34.13,29.37Z" fill-rule="evenodd"/><path d="M50.85,42.41c-.07.16-.22.19-.54-.1.15-.08-.14-.3.08-.36A2.31,2.31,0,0,1,50.85,42.41Z" fill-rule="evenodd"/><path d="M55.82,46.3c-.46-.38,0-1,.59-.74-.14.23,0,.88-.67.59C55.68,46.17,55.75,46.23,55.82,46.3Z" fill-rule="evenodd"/><path d="M33.42,28.18c-.11-.08-.11-.11-.09-.15s-.05-.29-.39-.54c.46,0,.41-.12.54-.42.29.26.34.13.67.45C33.49,27.49,33.6,27.72,33.42,28.18Z" fill-rule="evenodd"/><path d="M31.3,26.41c-.51-.35,0-.35,0-.53C31.53,26.24,31.57,26.32,31.3,26.41Z" fill-rule="evenodd"/><path d="M55.48,45.42c-.09-.22-.1-.55.17-.47C55.74,45.17,55.75,45.5,55.48,45.42Z" fill-rule="evenodd"/><path d="M54.59,44.46c.05-.25.59.16.72.4C55.2,45,54.9,44.71,54.59,44.46Z" fill-rule="evenodd"/><path d="M31.67,25.94c-.44-.48.21-.58.28-.62C32.2,25.6,31.87,25.88,31.67,25.94Z" fill-rule="evenodd"/><path d="M32.64,26.55c-.35,0-.42-.76.15-.19C32.88,26.61,32.32,26.28,32.64,26.55Z" fill-rule="evenodd"/><path d="M41.05,33.14c-.05-.14-.28-1.22.55-.69-.58.19,1.37,1.34.46,1.24C41.75,33.32,41.21,32.74,41.05,33.14Z" fill-rule="evenodd"/><path d="M48,37.9c-.29-.79.85-.14,1-.52.68.72-.41.26-.44.81-.22-.15-.18-.22-.34-.35C48.23,38,48.07,37.84,48,37.9Z" fill-rule="evenodd"/><path d="M51.27,40.05c.34.25.53.45.38.55C51.36,40.53,51.17,40.2,51.27,40.05Z" fill-rule="evenodd"/><path d="M39.19,30.79c-.33-.4,0-.58.42-.54C40,30.71,39.34,30.57,39.19,30.79Z" fill-rule="evenodd"/><path d="M36.27,28.49c-.16-.19-.18-.34-.07-.44C36.67,28.36,36.52,28.58,36.27,28.49Z" fill-rule="evenodd"/><path d="M56.36,43.79c-.2,0,.17-.72.12-.68C57.22,43.48,56.48,43.55,56.36,43.79Z" fill-rule="evenodd"/><path d="M42,32.2c-.47,0-.45-.78.16-.2C42.24,32.25,41.68,31.93,42,32.2Z" fill-rule="evenodd"/><path d="M48.41,37.14c-.37-.25,0-.28-.22-.5a1.26,1.26,0,0,1,.59.3C48.7,37.08,48.6,37.2,48.41,37.14Z" fill-rule="evenodd"/><path d="M46.66,35.44c-.38-.23-.18-.3-.43-.5.15-.15.18-.48.66-.06C46.67,35,46.92,35.31,46.66,35.44Z" fill-rule="evenodd"/><path d="M50,35.6c-.48.14-.18,1.21-.93.68,0-.43.74-.17.26-.87-.49.28-.5.83-.65,1.38.41,0,.33.42.56.6,1,0,.52-.74,1.12-1.19-.08-.26-.23-.23-.3-.4C50.27,35.94,50.15,35.73,50,35.6Zm-.82,1.34c-.51-.32,0-.45.11-.41C49.58,36.75,49.19,36.79,49.19,36.93Z" fill-rule="evenodd"/><path d="M46.87,34.64c-.27-.24.14-.29.15-.45C47.38,34.57,47,34.55,46.87,34.64Z" fill-rule="evenodd"/><path d="M37.24,26.46c.38.45-.13.25-.21.53C36.92,26.71,37,26.48,37.24,26.46Z" fill-rule="evenodd"/><path d="M33.1,23.87c-.41-.38.44-.86.56-1,.2.55-.44.56-.11,1.2C33.43,23.86,33.12,23.62,33.1,23.87Z" fill-rule="evenodd"/><path d="M35.61,25.66c-.4-.63.13-.86.37-1C36.21,25.13,35.88,25.34,35.61,25.66Z" fill-rule="evenodd"/><path d="M47.92,34.88l.2-.26C48.35,35.13,49.08,35.66,47.92,34.88Z" fill-rule="evenodd"/><path d="M58.23,42.44c-.31-.16-.4.06-.8-.28.27-.12-.49-.52-.14-.62.13.12,0,.17.17.3L58,42C58.28,42.19,58,42.24,58.23,42.44Z" fill-rule="evenodd"/><path d="M50.59,36.7c-.25-.32.17-.35,0-.51C51.13,36.38,50.83,36.66,50.59,36.7Z" fill-rule="evenodd"/><path d="M47.14,34c-.17-.22,0-.32,0-.5C47.77,33.9,47.33,34.09,47.14,34Z" fill-rule="evenodd"/><path d="M45.6,32.84c-.17-.17-.27-.33-.44-.5.24,0,.26-.17,0-.5a2,2,0,0,1,.8.29C45.66,32.32,45.75,32.62,45.6,32.84Z" fill-rule="evenodd"/><path d="M59.09,43.18c-.32-.26-.12-.38,0-.52C59.2,42.88,59.38,43.26,59.09,43.18Z" fill-rule="evenodd"/><path d="M48.57,34.82c-.17-.32-.73-.4-.52-.65C48.32,34.24,48.62,34.65,48.57,34.82Z" fill-rule="evenodd"/><path d="M43.78,31c-.33-.37.27-.14.27-.35C44.51,31,44,31,43.78,31Z" fill-rule="evenodd"/><path d="M52.28,37.43c-.46-.33-.35-.66-.14-.61s.26.34,0,.2c0,.08.2.22.34.35C52.43,37.36,52.33,37.35,52.28,37.43Z" fill-rule="evenodd"/><path d="M56.34,40.38c-.09-.36-.23-1.07.44-.84C57,40,56.8,40.31,56.34,40.38Z" fill-rule="evenodd"/><path d="M38.29,26.42c-.32-.5.27-.56.43-.83C39,25.93,38.45,26.22,38.29,26.42Z" fill-rule="evenodd"/><path d="M40.63,27.36c-.2.1.12.34-.19.25a1.67,1.67,0,0,0-.35-.34c.12,0,.3,0,.11-.15,0-.06.09,0,.17,0Z" fill-rule="evenodd"/><path d="M41.31,27.8c.12.07.11.11.09.15.19.13.16-.11.37,0,.5.31-.06.3.36.59,0,.18-.67-.57-.72-.39C41.27,28,41.25,27.91,41.31,27.8Z" fill-rule="evenodd"/><path d="M59.14,41.52c-.51-.33,0-.64.38-.22C59.43,41.42,59.18,41.28,59.14,41.52Z" fill-rule="evenodd"/><path d="M57,39.59c-.22-.14-.18-.22-.35-.35.13-.06.22-.19.55.08Z" fill-rule="evenodd"/><path d="M41.09,27a.51.51,0,0,0,.18.29c-.22,0-.43-.51-.5-.15-.26-.2-.06-.26-.44-.49-.08-.25.63.23.28-.1.22-.06.39.35.64.49C41.25,27.12,41.17,27.07,41.09,27Z" fill-rule="evenodd"/><path d="M60,41.69c-.36-.38.07-.38.16-.47C60.47,41.45,60,41.52,60,41.69Z" fill-rule="evenodd"/><path d="M57.2,39.27c-.53-.3-.27-.7,0-.57C57.75,39,57.19,39.08,57.2,39.27Z" fill-rule="evenodd"/><path d="M46.12,30.84l-.39-.29c.21,0,.23-.37.66-.06C46.06,30.39,46.14,30.68,46.12,30.84Z" fill-rule="evenodd"/><path d="M53.92,36.36c-.39-.36-.73-.7-1-1C53,35.36,54.18,36.22,53.92,36.36Z" fill-rule="evenodd"/><path d="M57.6,38.74c-.24-.17-.22-.27-.48-.44.34-.23.46-.6.69-.65C58.31,38.25,57.74,38.25,57.6,38.74Z" fill-rule="evenodd"/><path d="M34.44,21.05c-.24-.21,0-.51.44,0C34.87,21.23,34.46,20.83,34.44,21.05Z" fill-rule="evenodd"/><path d="M61.76,41.29c-.58-.43.14-.39.46-.08C62.19,41.45,61.79,41,61.76,41.29Z" fill-rule="evenodd"/><path d="M62.38,40.73,62,40.44c.57-.17.14-.86.82-.83C63.13,40.37,62.26,40.16,62.38,40.73Z" fill-rule="evenodd"/><path d="M58.23,37.62c-.31-.35,0-.3.06-.62C58.83,37.35,58.23,37.41,58.23,37.62Z" fill-rule="evenodd"/><path d="M43.17,25.87c-.56-.58.54-.05,0-.54.41.06.37.5.33.64C43.38,25.9,43.24,25.83,43.17,25.87Z" fill-rule="evenodd"/><path d="M37.15,20.68c0-.32.46-.81.52-1C38.08,20.14,37.4,20.61,37.15,20.68Z" fill-rule="evenodd"/><path d="M48.09,28.75c-.22-.44.59-.17.81-.27C49.27,29.15,48.44,28.66,48.09,28.75Z" fill-rule="evenodd"/><path d="M40.56,23.15c-.43-.32-.93-.66-.8-.82C40.14,22.63,40.65,23,40.56,23.15Z" fill-rule="evenodd"/><path d="M62.85,39.56c-.25-.26-.17-.6.33-.18C63.13,39.54,63,39.58,62.85,39.56Z" fill-rule="evenodd"/><path d="M48.94,27.88c-.15-.28-.05-.4.13-.45.1.19.29.4.2.54C49.15,27.91,49,27.84,48.94,27.88Z" fill-rule="evenodd"/><path d="M45.61,25c-.35-.24-.38-.38-.24-.49C45.72,24.78,45.74,24.93,45.61,25Z" fill-rule="evenodd"/><path d="M44.16,23.73c.22-.05.62.19,1.06.47C45.12,24.46,44.51,23.89,44.16,23.73Z" fill-rule="evenodd"/><path d="M60.38,35.55c-.55-.35-.23-.48-.12-.67C60.57,35.17,60.59,35.39,60.38,35.55Z" fill-rule="evenodd"/><path d="M46.8,25.6c-.25-.25-.17-.6.35-.21C47.08,25.53,47,25.65,46.8,25.6Z" fill-rule="evenodd"/><path d="M48.28,26.6c-.25-.29.21-.39.24-.61C48.78,26.4,48.46,26.58,48.28,26.6Z" fill-rule="evenodd"/><path d="M41.63,21.43c-.22-.14-.19-.21-.36-.34a2.65,2.65,0,0,0,.76-.5C42.46,21.1,41.82,21.22,41.63,21.43Z" fill-rule="evenodd"/><path d="M53.76,30.06c-.45-.41.13-.55.19-.82A.57.57,0,0,1,53.76,30.06Z" fill-rule="evenodd"/><path d="M47.17,25.09c-.16-.46.26-.53.22-.85C48.21,24.92,47.27,24.9,47.17,25.09Z" fill-rule="evenodd"/><path d="M60.84,34.65c-.09-.29-.33-.61.05-.62C61.31,34.39,61.14,34.62,60.84,34.65Z" fill-rule="evenodd"/><path d="M43.78,21.77c-.53-.46-.08-.3-.18-.58C44.09,21.5,43.89,21.63,43.78,21.77Z" fill-rule="evenodd"/><path d="M49.61,25.85c.18-.24.44.17.86.47C50.23,26.37,50,26.2,49.61,25.85Z" fill-rule="evenodd"/><path d="M37.69,17.21c-.4-.33-.08-.87.58-.25A.4.4,0,0,0,37.69,17.21Z" fill-rule="evenodd"/><path d="M47.69,24.38a.66.66,0,0,1,.46-.91A.88.88,0,0,1,47.69,24.38Z" fill-rule="evenodd"/><path d="M42.48,20.53c-.23-.26-.22-.46-.48-.72.1-.13.49.19.57,0A.55.55,0,0,1,42.48,20.53Z" fill-rule="evenodd"/><path d="M50.51,26.27c-.51-.29.06-.31-.38-.59C51.17,25.29,50.64,25.64,50.51,26.27Z" fill-rule="evenodd"/><path d="M54.23,28.32c.52.2.32,0,.66-.08.19.23-.1.35,0,.56C54.56,28.71,54.55,28.56,54.23,28.32Z" fill-rule="evenodd"/><path d="M44.77,21.5c-.57-.47-.06-.5,0-.59.16.14.14.24.32.38C45.1,21.52,44.79,21.28,44.77,21.5Z" fill-rule="evenodd"/><path d="M45.87,21.91c-.59-.18.09-.36.26-.35C46.68,22.1,45.66,21.67,45.87,21.91Z" fill-rule="evenodd"/><path d="M50.94,25.4c-.51-.29,0-.33,0-.5C51.28,25.29,51.15,25.26,50.94,25.4Z" fill-rule="evenodd"/><path d="M64.13,34.79c.1-.21.08-1.12.89-.69C64.45,34.11,64.82,34.68,64.13,34.79Z" fill-rule="evenodd"/><path d="M59.83,31.62c-.29-.22.11-.27.1-.42C60.29,31.46,60.06,31.68,59.83,31.62Z" fill-rule="evenodd"/><path d="M62.19,32.49c-.31-.5-.08-1,.54-.77C62.64,31.92,62.59,32.37,62.19,32.49Z" fill-rule="evenodd"/><path d="M52.84,25.82c-.35-.23-.55-.42-.42-.53C52.71,25.35,52.93,25.67,52.84,25.82Z" fill-rule="evenodd"/><path d="M60.26,31c-.26-.28-.18-1,.38-.54Z" fill-rule="evenodd"/><path d="M55.55,27c-.58-.55.35-.46.18-.82C56.28,26.63,55.54,26.74,55.55,27Z" fill-rule="evenodd"/><path d="M40.8,16.49c-.6-.45.3-.33,0-.58C41.56,16.29,40.67,16.22,40.8,16.49Z" fill-rule="evenodd"/><path d="M66.62,34.65c-.51-.29,0-.35,0-.52C66.92,34.37,66.72,34.5,66.62,34.65Z" fill-rule="evenodd"/><path d="M50.24,23l-.4-.28.22-.31c.35.52.24-.27.81.26C50.9,23.23,50.1,22.63,50.24,23Z" fill-rule="evenodd"/><path d="M54.88,26c-.54-.34,0-.4,0-.61C55.06,25.64,54.89,25.81,54.88,26Z" fill-rule="evenodd"/><path d="M39.4,14.54c.33.24.18.4,0,.34C39,14.63,39.17,14.47,39.4,14.54Z" fill-rule="evenodd"/><path d="M65.65,32.64c-.11-.29-.16-.74.44-.35C65.93,32.36,65.73,32.41,65.65,32.64Z" fill-rule="evenodd"/><path d="M44.9,18c-.49-.43.16-.19.15-.49C45.5,17.83,45.06,17.91,44.9,18Z" fill-rule="evenodd"/><path d="M51,22.2c-.13-.17,0-.78.5-.42C51.24,22,51.36,22.16,51,22.2Z" fill-rule="evenodd"/><path d="M40.83,15c-.39-.26-.73-.5-.56-.61C40.53,14.49,40.86,14.87,40.83,15Z" fill-rule="evenodd"/><path d="M61.38,29.15c-.38-.47.16-.39.12-.73C62,28.9,61.5,28.91,61.38,29.15Z" fill-rule="evenodd"/><path d="M67.79,33c-.49-.25-.08-.32-.07-.46C68,32.82,68.06,32.92,67.79,33Z" fill-rule="evenodd"/><path d="M62.62,29.36c-.28-.31-.1-.35.1-.42C63.07,29.2,62.85,29.42,62.62,29.36Z" fill-rule="evenodd"/><path d="M66.09,31.46a1,1,0,0,0,.43-.61c.7.57-.18.42.14.92A1.92,1.92,0,0,1,66.09,31.46Z" fill-rule="evenodd"/><path d="M62,28.59l-.4-.28c-.05-.49,0-.56.32-.74C62.55,28.15,62.45,28.46,62,28.59Z" fill-rule="evenodd"/><path d="M67.89,32.55c-.2-.67.44-.88.68-1.27A1.73,1.73,0,0,1,67.89,32.55Z" fill-rule="evenodd"/><path d="M42.12,14.61c-.28-.34-.72-.73-.69-1,.26.26.5.51.83.79Z" fill-rule="evenodd"/><path d="M67.44,32.07c-.09-.22-.08-.58.18-.54C67.71,31.75,67.7,32.12,67.44,32.07Z" fill-rule="evenodd"/><path d="M52.49,21.52a.19.19,0,1,1,.22-.31C53.31,21.63,52.59,21.48,52.49,21.52Z" fill-rule="evenodd"/><path d="M46.62,17.22c-.54-.7.38-1,.57-1.4C47.92,16.85,46.71,16.32,46.62,17.22Z" fill-rule="evenodd"/><path d="M61.93,27.52c0-.16.16-.19.32-.18.25.18,0,.24.29.44C62.44,27.85,62.22,27.74,61.93,27.52Z" fill-rule="evenodd"/><path d="M50.88,19.87c-.29-.27-.58-.54-.83-.8.14-.24.32.23.7.41a2.49,2.49,0,0,1,1.17-1.71C52.18,18.71,51.11,19.06,50.88,19.87Z" fill-rule="evenodd"/><path d="M69.67,32.54l-.4-.28c.24-.1-.08-.32-.25-.5C69.31,31.78,69.82,32.39,69.67,32.54Z" fill-rule="evenodd"/><path d="M62.42,27.37c-.36-.32-.09-.19,0-.31,0-.12-.27-.27-.16-.35.34.22.35.37.59.57C62.8,27.43,62.55,27.31,62.42,27.37Z" fill-rule="evenodd"/><path d="M61,26.31c-.29-.4.09-.65.25-.94C61.68,25.87,61.2,26.08,61,26.31Z" fill-rule="evenodd"/><path d="M41.7,12.94l-.53-.37c0-.16.36.06.63.22Z" fill-rule="evenodd"/><path d="M69,30.87a.44.44,0,0,1,0-.58C69.59,30.59,69,30.67,69,30.87Z" fill-rule="evenodd"/><path d="M43.45,13c-.07-.45.05-.52.07-1,.3.16.53.15.7.4q0,.28-.5-.12C44.3,12.89,43.62,12.84,43.45,13Z" fill-rule="evenodd"/><path d="M62.6,26l.15-.22C63.29,26.06,63.08,26.36,62.6,26Z" fill-rule="evenodd"/><path d="M41.34,11.17c-.11-.16,0-.28.07-.39.6.39-.16.1.13.38.77.09.16-.1.8.55A3.35,3.35,0,0,1,41.34,11.17Z" fill-rule="evenodd"/><path d="M47.26,15.13c0-.17.31-.2.51-.47.86.54.1.33.29.72A2.94,2.94,0,0,0,47.26,15.13Z" fill-rule="evenodd"/><path d="M63,25.68c0-.2.14-.49.35-.8.37.49-.44.39.13,1C63.3,26,63.11,25.59,63,25.68Z" fill-rule="evenodd"/><path d="M62,24.79c-.38-.46,0-.83.56-.81C62.14,24.08,62.35,24.49,62,24.79Z" fill-rule="evenodd"/><path d="M46,13.58c-.17-.14,0-.2,0-.29.2.21.72.49.57.61C46.32,13.75,46,13.52,46,13.58Z" fill-rule="evenodd"/><path d="M71.44,30.52c-.47-.49-1-.63-.92-1,0,.09.77.63.4.27.37,0,.11.31.63.51Z" fill-rule="evenodd"/><path d="M52.27,17.55c-.6-.43,0-.31,0-.35C52.71,16.67,52.74,16.95,52.27,17.55Z" fill-rule="evenodd"/><path d="M44.33,12c-.42-.32.11-.4-.64-.79.38,0,.88.54.74.06C45.17,11.88,44.22,11.46,44.33,12Z" fill-rule="evenodd"/><path d="M50.58,15.73a2.52,2.52,0,0,1,.67.45C51.1,16.28,50.37,15.94,50.58,15.73Z" fill-rule="evenodd"/><path d="M42,10.13c-.33-.33-.09-.42.13-.49C42.46,9.89,42,10,42,10.13Z" fill-rule="evenodd"/><path d="M51.55,16c-.54-.31-.35-.6.14-.21Z" fill-rule="evenodd"/><path d="M49.24,14.23l.81.54C50,14.83,49,14.39,49.24,14.23Z" fill-rule="evenodd"/><path d="M70.33,28.12c-.13-.09-.15,0-.21,0a1.93,1.93,0,0,0-.5-.42c.13-.59.5-.4.67-1l.81.54a.27.27,0,0,1-.05.37c-.2-.23.11-.36-.52-.67C70.83,27.87,69.6,27.17,70.33,28.12Z" fill-rule="evenodd"/><path d="M42.75,9.67c-.22-.28.26-.4-.28-.76a.87.87,0,0,1,.64.79A.76.76,0,0,0,42.75,9.67Z" fill-rule="evenodd"/><path d="M67.05,25.45c-.13-.22,0-.56.16-.54l.27.18c0,.09.08.18,0,.26C67,24.94,67.51,25.64,67.05,25.45Z" fill-rule="evenodd"/><path d="M66,24.42c-.29-.21.1-.27.08-.42C66.44,24.24,66.22,24.47,66,24.42Z" fill-rule="evenodd"/><path d="M68.52,25.86c-.11-.22-.16-.59.16-.54C68.78,25.54,68.78,25.91,68.52,25.86Z" fill-rule="evenodd"/><path d="M62.9,22l-.4-.27c.43-.17.45-.76.79-.89C63.41,21.32,63.15,21.69,62.9,22Z" fill-rule="evenodd"/><path d="M68.55,25.24c-.35-.36.27-.17.26-.39C69.52,25.3,68.85,25.35,68.55,25.24Z" fill-rule="evenodd"/><path d="M54,15.29c-.47-.19-.19-.62.17-.26Z" fill-rule="evenodd"/><path d="M51,13c-.45-.36.07-.14.07-.4C51.53,12.91,51.17,12.91,51,13Z" fill-rule="evenodd"/><path d="M71.76,26.55c-.2-.21-.18-.37,0-.52a1.93,1.93,0,0,0,.5.41C72.21,26.7,71.89,26.48,71.76,26.55Z" fill-rule="evenodd"/><path d="M53,14.18l-1.08-.71C51.86,13.13,53,14,53,14.18Z" fill-rule="evenodd"/><path d="M71.33,26c-.62-.37.1-.49-.59-.87,0-.05.2.07.31.12s.18,0,.25-.08C71.46,25.52,71.64,26,71.33,26Z" fill-rule="evenodd"/><path d="M52.16,12.16c.22,0,.73.42,1,.51C53.1,12.88,52.35,12.4,52.16,12.16Z" fill-rule="evenodd"/><path d="M58.24,15.28c-.53-.27-.07-.44.07-.41C58.51,15.15,58.42,15.21,58.24,15.28Z" fill-rule="evenodd"/><path d="M73.49,24.18c-.48-.19-.44-.75,0-.37,0,.12-.19,0-.25.08C73.53,24,73.52,24.11,73.49,24.18Z" fill-rule="evenodd"/><path d="M72.71,23.6c-.12-.1,0-1.53.87-1.05A3,3,0,0,0,72.71,23.6Z" fill-rule="evenodd"/><path d="M70.09,21.68c-.54-.28-.32-.56-.05-.51C70.38,21.4,70.19,21.53,70.09,21.68Z" fill-rule="evenodd"/><path d="M52.86,10.18c-.3-.47-.5-.6.34-.23C53.12,10.08,52.86,10,52.86,10.18Z" fill-rule="evenodd"/><path d="M70.42,21.18,70,20.91c.17-.08.09-.52.43-.36C71.11,21.13,70.26,20.81,70.42,21.18Z" fill-rule="evenodd"/><path d="M71.86,21.62c-.7-.56.2-.84.07-1.31C72.4,20.83,71.9,21.19,71.86,21.62Z" fill-rule="evenodd"/><path d="M75.35,23.68c-.3-.2.1-.28.09-.43C76.18,23.77,75.39,23.4,75.35,23.68Z" fill-rule="evenodd"/><path d="M75.06,21.4c-.91-.91.33-.76.31-1.41C75.85,20.7,74.76,20.68,75.06,21.4Z" fill-rule="evenodd"/><path d="M52.06,6.9c0-.2.4,0,.78.27A1.42,1.42,0,0,1,52.06,6.9Z" fill-rule="evenodd"/><path d="M48.31,4.34c-.06-.16-.34-.42,0-.34.48.27.08.36.73.67A1.58,1.58,0,0,1,48.31,4.34Z" fill-rule="evenodd"/><path d="M74,20.28c-.63-.47.35-.3.66-.15l-.18.29a1.55,1.55,0,0,0-.38-.31Z" fill-rule="evenodd"/><path d="M53.79,7.19c.31,0,.58.42,1,.6C54.58,7.93,54.08,7.41,53.79,7.19Z" fill-rule="evenodd"/><path d="M51.35,4.67c-.29-.25-.86-.56-.7-.72C50.82,4.18,51.51,4.5,51.35,4.67Z" fill-rule="evenodd"/><path d="M49.06,2.83a1.72,1.72,0,0,0-.38-.31c.37,0,.38-.06.39-.32l.55.34A.41.41,0,0,0,49.06,2.83Z" fill-rule="evenodd"/><path d="M40.56,95.31c0-.06-.08-.1,0-.21,0,0,.15,0,.2,0-.12.26.16.36.28.53a16.48,16.48,0,0,0,3.46-3.4c.47,0,.39-.4,1-.61-.29-.09-.69.05-1-.07.52-.39,1.23-1.13,1.42-.86a1.48,1.48,0,0,0,.59-.8,18.71,18.71,0,0,0,3-2.52.82.82,0,0,1,.12-.34,13.54,13.54,0,0,1,1.13-.93c-.07-.11-.16-.2-.33-.12.29-.17.38-.43.66-.48.27-.48.78-.86,1-1.34-.23.21-.2,0-.46.22s.23,0,0,.22-.23-.06-.58.33c.05.09,0,.2-.09.37-.26-.07-.5.29-.74.63-.73.18-.16-.51,0-1,.45-.29.47-.25.56-.59.62-.17,1.42-1.5,2.18-1.93.08-.16,0-.24.23-.47a10.54,10.54,0,0,0,2.48-2.81A5.79,5.79,0,0,0,54,80.74c-.85.53-1,1-1.89,1.77-.17-.15.08-.49.18-.76s.29-.16.43-.25c0-.09-.21,0-.25,0,.95-.82,1.1-1.26,2.06-2.07-.1-.4,1.28-1.19,1.19-1.59-.72.82-2.47,2.24-3,3-.14,0-.59.47-.71.42-.11-.82,2.94-3,3.44-4.19a3.52,3.52,0,0,0-1.15,1.15,4.5,4.5,0,0,0-1.27,1c-1.61.87,1-1.47,1.42-2.09-.15.11-.18.06-.21,0-.36.39-.59.54-.81.54.05.32-.86.58-1.16,1.14,0,.12.33.09.06.32-.47.38-.46.16-.44,0-.31.13-.56.4-.69.44.07-.28.52-.72.63-1,.35-.2.14,0,.34-.09.08-.37.51-.61,1.14-1.16-.21,0,.18-.45-.3-.12,0,.31-1,.67-1.39,1.11-.17.3.27.07.05.33-.47.28-.25-.2-.55-.18a2.52,2.52,0,0,0,.77-.85c.85-.52.79-.83,1.67-1.54.09-.18,0-.3.06-.45a3,3,0,0,0-.91.94c-.27.05-.77.59-.87.73-.05-.11-.12-.2-.4,0s.13,0,.14.19c-.44.27-.27.3-.45.47-.11-.34-.46.44-.7.42.69-1,1.81-2.15,2.51-3.11-.71.49-.87.81-1.78,1.4,0,.11.3.08,0,.29-.1,0-.41.19-.5.14.48-.31.13-.29,0-.25.71-.61.09-.38-.17-.23.05-.18.45-.49.19-.56-.24.15-.29.3-.39.29.48-.57,0-.12-.15-.48.14-.11.27-.29.07-.17,0,.14-.52.47-.54.63.14-.38-.83-.51.27-1,.11-.25-.2-.06,0-.33-.44.23-.58.61-.77.6,0-.09.42-.33.31-.4-.52.31-.08-.11-.43-.05a3.17,3.17,0,0,1,.64-.5c-.42-.16.24-1.06-.42-.92-.24.14-.31.29-.4.27a.7.7,0,0,1,0-.2c0-.05,0-.07,0-.07l.42-.24c-.2,0-.52,0,0-.31-.55.28-.19,0,.1-.14-.82.41-.39.11-.49.13l-.28.16-.16.06c.5-.26,0,0,0,0s.44-.38-.58,0L48.5,73c-.37.08-.11-.05.08-.18-.48.17-.28.06-.65.18.15-.07.38-.16.61-.24-.2,0-.59.21-.8.24.8-.27-.15,0,.27-.18s-.13.08.18,0,.32-.19-.2,0c.16,0-.48.14-.79.25.07-.06.66-.22.61-.24s-.34.06-.51.09c.39-.09.37-.14,0,0s.43-.07-.15.07a5.86,5.86,0,0,1-1,.21c.39-.1.37-.06.83-.19.3-.09,0,0,0-.05a5.46,5.46,0,0,0,.81-.22c-.29.06-1,.23-1,.21,1.07-.25.42-.19.43-.25-.89.13-.54.06-1.39.16.52-.11.71-.07.85-.13s-.07,0,0,0c.73-.12.23,0,.52-.05,0,0,.4-.08.67-.12-.18,0-.07-.07-.91,0-.21.06.41,0,0,.05-.15,0-.62,0,0-.11.23,0-.07,0,.19,0,0,0,.64-.09.68-.12-.64.08-.64,0-1.06.07.28-.11.16-.17-.25-.19s0,0-.33.08-.19,0-.21-.08c.8,0,1.17-.12.51-.09a3.43,3.43,0,0,1-.87.09c.57-.07.77-.14.48-.2.32,0,.74,0,.89,0a8.74,8.74,0,0,1-.91,0,4.64,4.64,0,0,1,.72,0c-.32,0,.06-.07.15-.11a4.38,4.38,0,0,0-.53,0,2.07,2.07,0,0,1-.56-.11c.14,0,.89,0,.72,0-.9,0-.77-.06-1.45-.08.16.05.16,0-.17.06a3.63,3.63,0,0,1,.73,0c-.35,0,.08.1-.52.1a10.26,10.26,0,0,0-1.45-.06c.59,0-.21,0-.19-.06.37,0,.85,0,.35,0a5,5,0,0,1-.72,0c.45,0-.06-.1-.38-.13a3.83,3.83,0,0,0,.9,0l-.92-.12h.54a4.54,4.54,0,0,0,1.1.15c.27-.07-.2-.13-1.11-.19.46,0-.39-.06-.19-.13s.25,0,.54,0c.11.07-.33,0,0,.1.71.07.37,0,.72,0a1.17,1.17,0,0,0,.36,0,2.34,2.34,0,0,1-.92-.21,5.09,5.09,0,0,1-.73,0s1,0,.54-.05,0,0,0-.06a19,19,0,0,1-2.37-.2c.59,0,.37-.09.73-.09l.36,0c.24.09-.54.07,0,.15,0,0,0,0,.18,0s0,0,.18.06c.19-.16-.24-.3.38-.31-.77-.11.3-.08-.34-.22a1.29,1.29,0,0,1-.55,0c-.2-.05-.05-.12.2-.1s.51.06.71.16,0-.08-.16-.13a12.45,12.45,0,0,0-1.65-.15c-.11-.1.33,0,.21-.11.55.17.59-.06,1.28.15.13,0,.73,0,.21-.09.27.1-.63-.05-.54-.08a6.94,6.94,0,0,1,.73.1s.31.08.35.11c-.3-.06,0,.07.16.11s.41,0,.91.13c-.15-.1-1.17-.3-1.57-.44.43.09.4,0,.9.16.15-.05-.56-.21-.66-.3.42.09.95.13.58,0-1-.21-.41.1-1,0-.17-.14-.81-.13-1.75-.45,0-.14,1.41.3.76,0-.16,0-.53-.12-.17-.06A12.8,12.8,0,0,1,39,68.84c.27.07,1.56.35,1.29.16-.47,0-.25-.09,0-.05a3.8,3.8,0,0,1-.69-.2c0-.07.43,0,.74.1-.55-.2.35,0,.42-.05a11.73,11.73,0,0,0-1.28-.2s-.19-.07-.35-.09c-.07-.18.3-.15.51-.2-1.84-.59,1,0,.18-.28-.32-.1.07.07-.2,0s-.55-.13-.65-.27c.35.1.23,0,.58.06a9.52,9.52,0,0,0,1.21.34c-.13,0-.18-.08-.14-.1-.5-.22-.75-.14-.86-.26s.87.19.42,0,.33-.05-.13-.11a1.84,1.84,0,0,1-.39,0c0-.06-.29-.08-.32-.14.43.08,0-.12.13-.18.53.06,1.95.6,1.31.22,0,0-.2,0-.52-.14l.11-.14c-.6-.29-.14.08-.56-.1,0,0-.42-.21-.24-.23s.56.23.53.15c-.25-.2-.88-.24-1-.37.74.28,0-.22.61,0A.84.84,0,0,1,40,67c-.13,0-.32-.13-.34-.11a2.43,2.43,0,0,0,.9.22c-.06-.1-.69-.34-.71-.44.26.08.72.29.71.19a5,5,0,0,1-1-.62,3.58,3.58,0,0,0,.19-.44c.57.3.07,0,.22,0,.39.23.35.11.64.27,0-.17.09-.14-.24-.45-.27-.13-.1.12-.41,0l.09-.1c-.31-.22-.34-.17-.54-.37-.12,0,0,.23-.27,0L39,65c.6,0-.24-.76.89-.22-.41-.27-.46-.42-.39-.53.38.24.24.22.56.35-.22-.44.58.11.62-.17-.34-.32-.12-.28-.16-.54l.53.38c.19,0-.29-.3-.3-.39.22.09.45.19.64.26a3.44,3.44,0,0,0-.7-.44c.14-.18-.27-.23-.42-.26.13-.18.36-.07.16-.4.31.23.36.14.61.3.35.35-.41-.07.13.33.7.16.82-.27.61-.88,0,0,.34.29.4.28-.2-.35.42-.5,0-1-.18.44,0,.24-.42,0,.16.17,0,.23.1.37-.49-.48-.69-.35-.95-.88-.13-.06-.23,0-.31,0s-.17,0-.39-.23,0-.22.2-.2a2.13,2.13,0,0,1,.55.25c.38.21.7.41.43-.13-.4-.23-.18.16-.7-.2l.64-.69c.26.26.46.4.57.34-.17-.17-.46-.39-.43-.49.26,0,.25-.06.57.34.06-.23.2-.19.11-.36-.11,0-.25,0-.45-.23.65-.94.82-1.89,1.84-2.5-.27-.32-.73-.3-.77-.6a1.21,1.21,0,0,1,.57.33c1-.94,1-1.75,1.62-3a1.72,1.72,0,0,0,.45.22c-.56-.75.08-.5.12-.87a3.53,3.53,0,0,0-.94-.65c0-.07-.1-.21,0-.26a3.78,3.78,0,0,0,1.15.65c-.45-.55.09-.52-.22-1-.11-.16-.68-.47,0-.21-.38-.5-.72-.58-1-1.05,0,.36-.41-.17-.54-.12.14.18.13.3.07.41-.12-.11-.18-.09-.29-.16a1.69,1.69,0,0,0-1-.8c.13-.11-.05-.32-.2-.52-.09.06-.11.22-.29.09-.27-.33,0-.48-.35-.83.29.3.4.5.57.32-.42-.33-.79-.64-.32-.62.2.18-.05.2.12.36.46,0-.45-.78-.56-1.09.07-.18.5.35.62.27s-.24-.51-.4-.78c.28.14.64.45.7.17a2.78,2.78,0,0,1-1.39-1.11c.4.85.57,1.34-.46.29-.35-.2.09.4-.33.14-.16-.5,0-.6.38-.7-.55-.56.18-.31-.2-.77-.41,0-.18.73-.83,0-.05.19,0,.41-.09.6-.11,0-.76-.45-.49-.17s.34.05.7.43l-.13.15a1.35,1.35,0,0,0-.61-.53,3.86,3.86,0,0,0-.84,1l.08-.1c.08.33.54.49.65.74l-.09.1c-.59-.71-1.34-.76-1.54-1.43-.22.07.25.39,0,.45-.17-.23-.59-.55-.65-.74.92.49.89-.42.84-1-.13.19-.08.38-.29.34-.16-.33-.4-.34-.65-.48-.13.54,0,1-.84.71.21.18.28.31.28.42-.24-.16-.19.24-.45,0,0-.31-.93-.66-.68-.94.16,0,.28.07.41.27.22-.14-.05-.5.42-.23-.14-.13-.35-.29-.32-.37.18.11.84.53.53.13-.53-.26.34-.18-.32-.62.06-.22.36.05.21-.24.12.11.11.17.2.26,0-.23,0-1.08.45-.28.07-.63,1-.61.42-1.48.23-.15.13,0,.54.12-.7-.66.5-.36-.16-1.05.32.18.51.12.82.28,0,.14-.11.26,0,.45.36.19,0-.3.29-.09.42.38-.12.12.12.36.5.29.75-.29,0-.8-.06.14-.18.16-.41,0a.88.88,0,0,0-.25-.46c-.26,0,.19.51-.2.24-.11-.27.15-.41-.21-.76l.37.31a20.89,20.89,0,0,1,2-3.39c-.32-.22-.64-.4-.55-.61.39.25.27.34.59.56.21-.11-.46-.65,0-.5-.32-.25-.62-.49-.55-.61a4.08,4.08,0,0,1,.75.61c.16-.38.45-1.13.66-1.58-.18-.22-.62-.52-.68-.71.54.41,0-.3.45,0,.13.2-.14.28.18.55.14,0,.92-.42.39-.74.28.21-.08.22-.07.35-.19-.15-.66-.23-.67-.46.2,0,.75.35.49-.09-.24-.21-.3-.13-.46-.21-.06-.29.27-.21.57-.19s-.13.21.1.4c.16,0,.61-.12.19-.5-.06,0-.13.09-.33-.1-.36-.43.35-.38-.07-.7s.07.25-.19.25c-.35-.27-.19-.28-.51-.4-.25.2.36.33.39.55-.23-.15,0,.09-.12.15-.82.33-.88,1.2-1.09,1.87,0,0,.15,0,.13.1s-.18-.08-.21,0c-.16-.13-.12-.2-.34-.35-.15.28,0,1-.38,1,.05-.06.4.22.38.31-.34.22-.61,0-1.36-.38.1.33.5.19.5.41-.34-.2-.4.08-.74-.12.44.58-.23.21-.53.13.37.35.61.31.58.56-.11.09-.4-.16-.7-.42a3.69,3.69,0,0,0,.09.65,2.13,2.13,0,0,1,.65,0c.12.61-.85.21-1.44-.05.07.26.22.24.29.41-.37.06-.24,0-.41.23.4.35.42,0,.78.33-.46.1,0,.48.09.65-.52,0-.41.86-1.26.5.23-.06,0-.27,0-.45.69.37.42-.11.69-.32-.42-.37-.39.1-.74-.13.09.09.24.21.21.26-.42.11-1.07-.53-1.77-1.17.36.54-.48,0,0,.54.09-.16.2-.27.57.08-.48.06,0,.92-1.1.54.67,1.49-1.15,1-.73,2.09-.35.4-1.49-.48-2.08-1.31.44,0-.06-.39.36-.42.22.42.32.08.61.28-.27,0,.34.65.53.62-.18-.23-.05-.35-.33-.61-.35-.11-.47-.5-.82-.54-.19-.33.33-.41-.13-.84-.49.45,0,1.13-1.29,1,.21-.07,0-.28.12-.39.1.07.24.21.28.17-.57-.62-.52-.08-.93-.4-.14-.15-.2-.28-.12-.35.57.08.83-.29.51-1.09,1,.5.15-1,.88-.78-.12-.19-.41-.43-.54-.62a1.71,1.71,0,0,1-1.06-.26c-.21.06.26.38,0,.44a1.71,1.71,0,0,0-.41-.27,1.45,1.45,0,0,1-.67.78A4.21,4.21,0,0,1,28,37c-.19-.13-.25-.12-.37-.32-.32.13.32.63.41.76-.18,0-.71-.59-.77-.35a2.18,2.18,0,0,1,.94,1.39c-.16-.13-.22-.09-.41-.27.51.16-.23-.54-.69-.93,0,.22,0,.16-.2.23.19.24.53.22.49.43-.13.05-1-.63-.61,0,.07,0,.3.07.28.17a5.48,5.48,0,0,1-.69,0c.28.32,0,.64-.28.56.49.48.56.89,1.09,1.21-.21.07-.32.49.12.6,0-.15.72-.25-.28-.9,0-.21,0-.43.41-.21,0,.16.23.56.45.47-.13-.21-.51-.52-.32-.61s.27.2.69.44c-.14-.73.37-.79.69-1A9.19,9.19,0,0,0,29.69,40c-.2-.27-.65-.44-.33-.12.33.08-.11,0-.12.14.31.44.54.15.53.38A1.25,1.25,0,0,1,29,40c-.23-.1.18.39-.33.12.18.37.47.61.08.64a6.23,6.23,0,0,0,.77.6c-.34.06.53.57.28.66a6.89,6.89,0,0,0-1.41-1.33c0,.15.3.4.36.57-.33-.27-.51.11-.49.31.17,0,.17.17.52.38-.35.4.5,1,.15,1.3l-.36-.32c-.05.57-.53,1,0,1.48-.15-.12-.2,0-.25,0l-.36-.33c-.33.21.1.86-.54.6.13.14.35.3.32.37-.47-.18-.21.33-.73.09.39.6.13.61-.14.88.24.33.62.32.6.55-.26,0-.63-.14-.86,0,.35.23.23.58.55.6-.25-.43.29.08.24.22.12-.74.89-.56.54-1.54.16.17.13.26.27.42.09-.34.27-.7.67-.49-.18-.34.17-.48.06-.79.78.48.37-.5.43-.71.16.17.13.26.28.42.32-.12.79,0,.46-.51.2.2.57.11.57.34,0,0,0,.07.08.16,0-.21-.16-1,.58-.41-.48,0-.41.47-.34.87l-.6-.54c-.15.39,0,.58-.58.4a1.61,1.61,0,0,1,.68.7,1.8,1.8,0,0,0,.87-.23c.08.1.24.22.2.26-.45.06,0,.58-.79.39.6.52-.16.53.22,1,.31-.11.31.34.48.43,1.16.65.71-1.47,1.63-.83-.08.7-1.07.3-.41,1.42.18,0,.51.24.69.2-.05-.26-.44-.24-.44-.48.35-.26,1-.07.72-.8,1.05.84-.17-.57.95-.09-.49-.84.59-.23,0-1,.15-.09.45.1.62,0-.14-.13-.35-.3-.32-.37.2.18.19-.07.37.07s.36.34.81.8c.32.08-.16-.5.42-.23.21.31.46.63.19.76-.69-.64,0,.57-.9-.2.44.27.63.77.85.75l-.24-.21c.18-.26.56-.24.67-.27.39.42.33.71.68.94-1-.63-.35.55-1.16.09-.12-.22-.87-.95-1-.81.08.09.11.17,0,.2.54.06,1.09.95,1.65,1.55-.32.26-.54-.38-.86-.5.07.07.14.13.08.16s-.17-.08,0,0,.87.58.4.53c.67.58.44,0,.78.09.18.28,0,.41.06.66-.2,0-.66-.51-.78-.34.29.32.63.38,1.05.77-.14-.19.17-.26.22-.24,0,.35.15.12.48.43,0,.13.46.42.4.53s-.2,0-.33-.12,0-.18-.16-.31c-.13.05-.5-.38-.54-.13.53.42.32.61.72.65.12.23-.14.29-.53-.13-.3.2.47.48.47.69-1-.56-1-.63-.29.09-.07,0-.2,0-.33-.12s0-.18-.15-.31-.15,0-.28-.17c.09.33,0,.72-.63.22.49.16-.64-.66-.22-.72-.59-.55-1.26-.57-1.16-.17.37-.2.35.32.56.59.09-.05.12-.22.3-.08s1,.83.67,1c-.47-.37-.37-.52-.75-.86-.28,0-.25.22-.07.55-.61-.49-.31,0-.74-.15.27.38.7.82,1.07,1.23.21-.05-.15-.31-.06-.41a1.64,1.64,0,0,0,.4.28c-.11.54,0,1.12-.55,1.08.13.14.35.3.31.38-.39,0-.24,0-.26.29-.66-.72-.89-.88-1-1.33-.53-.27-.45.59-.41.69.1-.16.25-.22.5-.07-.32.2.36.51.48.44a5.15,5.15,0,0,1,.17.78c-.23,0-.23-.11-.52-.39-.17.23.13.28.51.64-.26,0,0,.49-.27.29l-.83-.77c.14.6.39.79.69,1.63a3.5,3.5,0,0,1-.62-.76c-.44.21.63.62.32.84-.23-.2-.21-.3-.43-.49s0,.14-.06.3c-.62-.5-1.35-.67-1.63-1.34-.33-.22-.66-.44-1-.62.83.6-.17.9.5,1.6.09-.09.39.23.42,0-.19-.17-.43-.36-.28-.42.24.35.48.32.57.58-.26-.09,0,.34-.51.07s-.35-.46-.82-.78c-.14.13.11.27-.19.2.31.31,1,.76,1.08,1a4.25,4.25,0,0,0-1.48-.79,2,2,0,0,1-1.44,1c.72.1-.4-1,.36-.84-.25,0,0,.39.17.3-.31-.31.33,0,.29-.3a5,5,0,0,0-1-.85c.3.6-1,.39-.4,1.12.1-.06.13-.22.33-.11.41.37-.23.18-.07.54-.23-.2-1.22-.59-1-.85.81.23.6-.69.27-1,.14-.13.58.31.72.18-.38-.42.17-.46.37-.63-.34-.33-.88-.23-1-.61.16.12.31.23.36.09s-.17-.23-.15-.32c.13.1.19.08.3.15,0,.28.32.44.7.68,0,.28-.31.18-.22.47.27.13.68.54.78.35s-.63-.45-.41-.51.37-.26.87.26c.12-.18-.36-.55,0-.68a2.11,2.11,0,0,0,.83.54c-.11,0,0,.28.2.26a8,8,0,0,0-1-1.33c-.36,0,.53.49.17.53-.15-.34-.4-.34-.66-.48-.32-.92,1.75.32,1-.85-.27,0,.33.58-.06.3-.12-.11-.18-.09-.28-.17.34-.08-.94-1-.37-.79-.26-.33-.7-.38-.71-.66.35.46.22-.09.49.19,0,.23.43.28.71.66-.32-.13-.52-.09.06.41,0-.46.43.15.6-.41L32,51.93a2.65,2.65,0,0,1-.46,0,7.42,7.42,0,0,1-1.29-1.46c.39.16-.1-.25.1-.34s.55.48,1,.63c-.37-.48.34.19.29-.08-.2-.21-.64-.5-.39-.53.15.14.11.21.31.38l.17-.19a1.85,1.85,0,0,0-1-.58c.36.2.21.48,0,.25a.51.51,0,0,1-.15-.31c.14,0,.24-.14.45,0,.53.56.87.27,1.12.69.26-.19-.33-.35-.35-.58.38-.14.38-.17.1-.59-.08-.46.4-.16.44.23.26-.3,0-.82.64-.71-.24-.28-.58-.13-.64-.5.33.1.4.11.05-.3-.17,0-.37.06-.46.27-.53-.53-.42.14-.85-.51-.34,0,.53.5.19.51a6.12,6.12,0,0,0-.92-.67.34.34,0,0,1-.54.11q.17-.12-.23-.47c0,.36-.51-.23-.84-.52.52.57-.34.29.17,1,.08-.05.11-.21.29-.08-.17.27.35.25.6.55-.23-.09-.22.06.11.36s-.26-.63.3-.33c-.05.06.17.23.15.31-.26-.11-.13.22-.14.39-.23-.06-.66-.8-.84-.52.58.42.72.77,1.08.74-.2.56-.1.07-.58.16.52.62.15,1.05,0,1-.19-.47-.86-.55-1.55-1.18.49-.11-1-.85-.3-.62-.59-.44-.78-.4-.85-.2s0,.51-.17.81c.33.41.46.24.72.42-.35.2.28.17.12.35-.16-.14-.21,0-.36-.09-.86-.6-1-.94-.84-1.22s.29-.36.18-.68c-.24.26-.74-.26-.88,0-.15-.33.13-.38-.2-.74,0,.51-.31-.07-.8-.33-.37.15.34.52,0,.68-.62-.55-.26-.45-.52-.87-.28-.23,0,.32-.34.36.18.21.41.17.36.32-1.07-.12-.71,1.18-1.86,1.26-.06-.45-.63-.58-.68-.93.38.09,1.87.12,1.09-.67-.11.24-.08.4-.47.26.49-.15-.63-.56-.4-.75.16.12.31.23.39.06a5,5,0,0,0-.78-.82c.11.44-1.13-.81-1.25-.8a.52.52,0,0,0,.48-.75c-1,.43-.91.84-1.19,1.73a1.18,1.18,0,0,1-.43-.49c0,.28,0,.79-.49.75a1.2,1.2,0,0,1,.23.46c-1-.17-1,2-1.93.89l-.3.33c.2.21.78.15.67.46-.31.27-.86-.12-1.08.45.9.52-.24.66-.53.57a1.07,1.07,0,0,1,.26.67c-.77,0-.49.32-1.39.55.46.39.53-.11.87,0,0,.24-.52.57-.58.64-.24-.14.11-.27-.08-.41-.18.28-.23-.45-.5-.16.47.2.53.81,0,.74-.24-.13.11-.28-.08-.41-.42.36.21.69-.47.83.13.4.92.27.75.63-.44-.08-.43.69-.87.59.2-.32,0-.43.45-.58-.28-.18-.26-.37-.39-.56-.18.21-.67-.18-.85,0,1,.47.11.8.16,1.14.08-.05.13-.17.27-.1,0,.15,0,.69-.22.58s-.26-.51-.6-.29c.69.35-.29.47-.52.45.32.23.6.29.31.71-.65-.38-.5-.1-.72-.09a.35.35,0,0,1-.19-.31c.32.09.67.26.78,0-.76-.17-1.4-.1-1.7.51.07.31.56,0,.55.35-.68,0-1.09.59-.39.63-.14.36-.76,0-.83.46.45.27.46-.12.77,0-.36.35-.63.76-.2,1-.11.27-.25.5-.71.29.08-.1.39-.11.15-.28-.55,0-.52.41-.58.79-.42-.25-.38.12-.5.28-.23-.31-.47-.1-.94-.3a.4.4,0,0,0,.14.49c.16-.43.81.25.7.44-.42,0-.28-.1-.83-.14-.28.27.32.32.3.53-.4-.1-.18.32-.16.39-.21-.09-.2-.24-.39-.33,0,.38-.39.31-.44.66.26.11.46,0,.47.13-.16.25-.25.3-.69.48.29.38,1.24-.19,1.49.17-.14.3-1,.2-.59.72L7.27,61c-.11.47-.26.87-.83.47a3,3,0,0,1-1,2.71l.8.13c-.11.17.2.31,0,.32-.3-.35-.9-.45-1,.07.17.3.52-.12.62.21-1,.64-.28,1.79-.79,2.89.3.13.55-.28.65.05-.28.23-.62.42-.67.83a1,1,0,0,1,.81.27c0,.24-.13.34-.49.3,0-.19-.12-.29-.32-.35C5,69,4.89,69,4.7,69c.17.31.31.86-.48.75-.14.61.26.23.51.46-.74.34-.34.88-.07,1.54.25,0,.6,0,.67.11-.47.09.24.27.06.54-.72.23-.63-.1-.55-.54-.83.18-.08.82.29,1.09,0,.71-.88,1.46,0,2.08,0-.09.47-.36.47-.14-.5.41-.79,1.33-.11,1.77-.47.48-.11,1.08.44,1.62l-.49.07a1.55,1.55,0,0,0,.79.9c-.4.41,0,.71.2,1.1l-.65.12c.3,1.14,1.08,2.06,1.4,3.1.19.56-.27,1.19-.14,1.62,0,.08,1.1.31.46.6.34,0,.37-.49.62-.2a28.36,28.36,0,0,0,.94,2.92c.24-.07.54-.26.66-.14-.19.11-.21.27-.55.35.31,1.13,1.34,1.4,1.22,2.21.38.19.5-.46.79-.24-.16.33-.52.29-.88.41,0,.61.63-.07.82.14l.24.41c-1,.26,0,1.27.22.69-.36.15-.36-.41-.1-.48.25.13.82,1-.06.84.67.18.94.54.54,1.22.43,0,.82-.77,1.09-.07-.45.14-.28.35-.64.5.22.6.6.48.41,1.26a1.32,1.32,0,0,0,1-.5l.31.49a1,1,0,0,0-.1,1.61,1,1,0,0,1,.63-.22s-.26,1.17-.31.7c.07.77.89,1.54,1.47,1.28-.69.65.11.63,0,1.18a3.53,3.53,0,0,1,.67-.18c-.15.12-.38.26-.34.35.68-.45.1.24.24.33.42,0,.64-.5.93-.37,0,.22-.63.55-.46.74.29-.12.29-.52.52-.38l.1.13a1.89,1.89,0,0,1-.7.42,3.44,3.44,0,0,1,1.32,1c.53-.25-.09-.28.24-.49a2.72,2.72,0,0,0,2.51,2.16l.25,1.06c1.22-.93,1.26.86,2.26.42,0-.39-.61-.27-.45-.77.34.11.48.16.95-.38-.27.61,1-.51.66.27.23-.16.24-.36.37-.32s.15.3,0,.51c-.2-.27-.19.16-.37.32a.33.33,0,0,1-.38-.19,2.61,2.61,0,0,0-.68.7.85.85,0,0,0,.77.39l.61-.53c.2.43.84-.17,1.13.05.54-.57.88-.65,1.11-.47.7-.51.92-.92,1.36-.91-.07-.15.4-.46.33-.6-.43.38.09-.42-.27-.06,0,.09-.08.31-.19.27.2-.25-.31-.29-.06-.56.89,0,1.87-1.13,2.63-1-.17.22,0,.35-.16.55s-.85.65-.79.82l.87-.49c-.25.27.27.29.07.55.36-.34.47-.09.66,0,.43-.69.73-.18,1.31-.73a.46.46,0,0,1-.16-.65,4.76,4.76,0,0,1-1.2.62c-.06-.07.08-.21,0-.27-.23.17-.23.36-.36.33.31-.46.19-.59-.05-.05-.34-.54.53-1,.82-1.74,0,.38.5.54.87,0-.08.4.48.49.83.41.06.14-.22.4-.16.54.57,0,1.29-.49,1.88-.6a8.18,8.18,0,0,1,.93-.9c-.12-.27.36-.77.32-1.07-.24.07-.77,0-.66-.23a33.56,33.56,0,0,0,3.52-2.4c0-.3-.29-.21-.52-.32a7.25,7.25,0,0,1,1.65-1.55C40.53,95,40.18,95.56,40.56,95.31ZM11.29,53.95c.32.16.18.37,0,.58C10.68,54.27,11,54.12,11.29,53.95Zm13.85-6.79c.46.23-.2.61.34.58.13.14,0,.22-.07.32-.09-.11-.14-.08-.18,0A.77.77,0,0,1,25.14,47.16Zm1.29,2.18c-.26-.33-.57-1.1-.71-1.13-.3-.46.38,0,.49-.05C26.18,48.53,26.63,49,26.43,49.33Zm5.69-3.81c.25,0-.3.48.2.26.15.16,0,.21,0,.3-.34-.46-.86-.62-.6-.79-.19-.11-.31-.1-.41,0-.19-.4.57,0-.32-.62l.12-.14C31.64,44.88,31.68,45.6,32.12,45.52Zm12.49,9.09c-.33-.27-.51-.48-.35-.58C44.59,54.3,44.76,54.51,44.61,54.61Zm-.19,37.47c-.27.12-.69.17-.56-.13C44.12,91.84,44.42,91.85,44.42,92.09Zm4.83-5.5c.2-.34-.67-.06-.44-.47.19.15,1.26,0,.24,1-.19-.09-.41,0-.34-.36C49.06,86.52,49.12,86.65,49.25,86.59Zm-3.86,3.93c-.58.45.08-.51-.56-.12.39-.31.39-.44.67-.7A1,1,0,0,0,45.39,90.52Zm-7.08,6.65s.11-.17.19-.27c-.09-.14-.32,0-.54.14.09-.36.53-.28.73-.41C38.74,96.74,38.59,96.93,38.31,97.17Zm6.29-6.31c-.24.2-.25-.08-.6.31,0-.13.43-.46.19-.5,0-.26.41.18.4-.29C45,90.14,44.48,90.78,44.6,90.86Zm5.65-6.05a1.7,1.7,0,0,1-.73.16c-.29.24,0,.23-.25.44.18,0,.22-.27.48-.44-.06.11-.09.28.11.12,0,.21-.41.33-.6.55-.12,0,0-.33-.3-.09.45-.7.21-.3.15-.56.47-.37.89-.67.89-.94.2,0,.55-.29.6-.05l.41-.51c-.12,0-.35.14-.41,0a7.62,7.62,0,0,0,.69-.69c.38-.16-.25.47,0,.52q-.82.65-.43.74c-.26.15-.5.27-.74.39C49.78,84.85,50.12,84.77,50.24,84.81Zm-1.79.91c.58-.41.26.22.17.43C48.15,86.4,48.71,85.73,48.45,85.72ZM32.28,100.17c.07.28-.29.27-.67.7,0-.16.56-.77-.24-.27,0-.15-.46-.18,0-.48C31.63,100.49,32,100.2,32.28,100.17Zm16.26-14.6a2.27,2.27,0,0,1-.51.16c-.09-.15.16-.44.27-.67C48.82,84.82,48.32,85.49,48.53,85.57ZM52,82.36c-.38.44-.19-.06-.46.21A1.85,1.85,0,0,1,52,82C51.94,82.12,51.75,82.33,52,82.36Zm-5.21,4.37c.15-.12.21-.2.2-.26.27-.27.1.25.47-.2C47.5,86.44,46.75,87,46.74,86.73Zm-12.29,11c-.75.41-1.67,1-2.14,1.24.6-.84,1.57-.73,1.91-1.5C34.62,97.22,34.18,97.76,34.45,97.75ZM32,99.58c-.48.28,0-.56-.53-.11C31.78,98.82,32.22,99.19,32,99.58Zm-5.07,4.28c0,.18-.21.2-.36.32,0-.16-.17-.29.16-.56C26.9,103.64,26.5,104.15,26.89,103.87ZM51.24,78.76a8.4,8.4,0,0,0-.85.49c0-.1.25-.34.57-.58C51.11,78.63,51.21,78.64,51.24,78.76ZM50.18,79c-.32.3-.05-.25-.38,0a5.15,5.15,0,0,1,1-.84C50.73,78.42,50.08,78.73,50.18,79ZM43.4,82.92c.1-.24-.1-.37.44-.75A1,1,0,0,1,43.4,82.92Zm0-.73c-.23.35.1-.32-.36.06,0-.1.15-.27.45-.48-.06.1-.11.27.1.13C43.64,82,43.4,82.12,43.44,82.18Zm3.75-2.82c-.21,0,.27-.34.27-.46C47.85,78.7,47.64,79.12,47.2,79.36Zm-7.61,5.49c-.1-.11-.19-.22-.08-.38.34-.17-.09.57.53-.1C40.06,84.48,39.89,84.65,39.58,84.86ZM50,76.93c-.35.2.07-.28-.2-.27C50.19,76.52,50.27,76.65,50,76.93Zm-.37,0c-.37.24-.59.27-.7.15-.65.47,0,.18-.24.49-.59.35-.1-.13-.18-.24a4.21,4.21,0,0,1,.81-.53c.05,0,.1.1,0,.21C49.43,77,49.64,76.86,49.66,77Zm-2.14,1.46c.12-.21-.11-.3.5-.68l.12.16A3.07,3.07,0,0,1,47.51,78.43Zm2-1.91a3.25,3.25,0,0,1,.68-.44C50.38,76.25,49.54,76.88,49.53,76.52Zm-2.24,1.32c0,.1-.26.33-.6.56C46.58,78.29,47.13,77.89,47.28,77.84Zm1.32-2.34c-.37.07.13-.56.23-.81.38-.21-.17.39.4,0,.27-.15-.1.16-.13.09C48.58,75.15,48.72,75.29,48.61,75.5Zm-33,22.8c-.46.28-.37-.13-.41-.31C15.45,97.8,15.4,98.24,15.57,98.31Zm33.38-24c-.18.09-.31.13-.35.06s.49-.34.32-.39C49.54,73.61,49,74.12,48.95,74.28ZM47.78,73c-.53.18-.94.28-.65.16C47.2,73.19,47.82,73,47.78,73Zm-2.23.32a3.71,3.71,0,0,1-.83.18A4,4,0,0,1,45.54,73.34Zm.21-.32c.33-.06.34,0-.3.14.2-.07.19-.1-.19,0C45.19,73.11,45.76,73.08,45.75,73Zm.66-.14.48-.14s-.63.11-.85.13C47,72.62,47.33,72.72,46.41,72.88Zm-.74-.4c.11-.05,0-.1.48-.16a8.45,8.45,0,0,0-1.42.08c-.11-.06.53-.08.14-.11a9,9,0,0,0,1.25,0c.47,0-.32.17.58.09C46.54,72.37,46,72.43,45.68,72.48Zm-3.42.06c-.68.07-.25-.11-.42-.15C42.48,72.38,41.91,72.48,42.26,72.54ZM45.31,72s-.31,0-.71,0c-.24,0,.57,0,.34-.07C45.61,71.91,45,72,45.31,72Zm-1.79,0c-.24,0-.16,0-.2-.07.41,0,1.18.06,1.07,0C45.35,71.92,43.92,72,43.53,72Zm.33-.12c-.55,0-.54,0-1.08,0C43,71.85,43.92,71.81,43.85,71.89Zm-1.93-1.27c-.16,0-.27,0-.73-.06,0,0,.1-.08-.17-.12A4.52,4.52,0,0,1,41.92,70.63Zm-1.43-.38c-.53-.1.25,0,0-.13.55.1.66.07,1.09.14s-.28,0-.2.09C41,70.21,40.7,70.14,40.49,70.24ZM40,69.71c.5.25-.75-.18-.92-.07C38.38,69.36,40,69.74,40,69.71Zm1.45.21c0-.08.25-.07.41-.09s.27.09.52.15A3,3,0,0,1,41.49,69.92Zm-1.26-.23c.59.07-.32-.25-.34-.12-.19,0-.1-.08-.34-.12.56.09.59,0,1.28.14-.13,0-.4.06.32.19A4.32,4.32,0,0,1,40.23,69.68Zm1.13,0c-.49-.08.17-.08-.32-.17a5.16,5.16,0,0,1,1.22.33C41.7,69.77,41.55,69.67,41.36,69.72Zm-2.67-.57a2.27,2.27,0,0,0,.42-.1c.9.24.79.09,1.62.3l0,.1A6.87,6.87,0,0,0,38.69,69.15Zm.73-.36-.53-.13a1.22,1.22,0,0,1,.43-.08C39.66,68.71,39.1,68.63,39.42,68.79ZM8.52,59.06c-.39-.35.48-.38.84-.29C9.16,59,8.72,58.86,8.52,59.06Zm2.42-2c-.24-.09,0-.8.45-.48C11.35,56.87,11.06,56.82,10.95,57Zm27.7,8.79c.19,0,.45.16.8.33C39.37,66.21,38.81,66,38.65,65.82ZM16.07,55.34c-.3-.22.21-.55.58-.24C16.54,55.3,16.25,55.23,16.07,55.34Zm-1.54-.93a1.56,1.56,0,0,1-.69-.44c.59,0,.42-.35.78-.52,0,.29.24.65.3.15C15.63,54.11,14.2,53.9,14.53,54.42Zm24.31,11.2c0,.08.58.31.37.32-.36-.17-.41-.26-.9-.46-.05-.15.54.2.56.11C39,65.68,38.93,65.65,38.84,65.61Zm-11-5.76c-.79-.35.45-.09-.06-.4C28.41,59.52,28.13,59.87,27.81,59.85ZM16.89,54.27c-.62-.23-.28-.66.24-.3Zm2.87,1.35a1.47,1.47,0,0,0-.53-.37c.62.19.66-.58,1.4-.16C20.19,55,20,55.32,19.76,55.62Zm19.81,9.94c-.15-.08-.09-.09-.1-.13s-.63-.37-.32-.37C39.43,65.28,39.77,65.5,39.57,65.56ZM14.92,52.82c.37-.08.43,0,.47-.33.41.18.24.37.18.55A1.57,1.57,0,0,1,14.92,52.82Zm8.91,4.26c-.12.06-.41-.14-.64-.25,0-.19-.22-.55.23-.51.45.37-.13.23,0,.52Zm-4.69-2.49-.29-.16c.08,0,0-.1-.09-.15A.5.5,0,0,0,19.2,54C19.54,54.34,19.19,54.23,19.14,54.59ZM18,53.9l-.44-.23c.06-.07.23,0,.35.08a.33.33,0,0,0,0-.46C18.42,53.33,18.45,53.77,18,53.9Zm-1.9-1c-.13-.26-.45-.53-.2-.79.24.07.1.5.37.32C16.49,52.62,16.45,52.89,16.12,52.88Zm-1.63-1.1c-.36-.4.55,0,.55-.41.14.22.59.43.31.65C15,51.8,14.66,51.61,14.49,51.78ZM27,57.94c.26.18.6.37.43.48C26.94,58.25,26.72,58.14,27,57.94Zm-4.39-2.37c-.46,0-.34-.53-.44-.73.18-.13.31.29.52.39-.07,0-.2,0-.26,0A.35.35,0,0,0,22.57,55.57ZM19.68,54c-.37-.24,0-.44-.27-.68C19.82,53.23,20,53.79,19.68,54Zm8,4.16c-.19-.15-.29-.29-.47-.44C27.45,57.54,28.06,58,27.69,58.11Zm-6-3.73c-.25-.54-.77-.35-1.08-.73a2.23,2.23,0,0,1,1.55.71C22,54.4,21.81,54.3,21.68,54.38ZM18,52.14c-.37,0,.31-.16,0-.46a4.69,4.69,0,0,1-1.13-.44c.44-.29.13-.41-.35-.57.17,0,.4.12.5-.06a1.23,1.23,0,0,0,.49.42l-.21.23a5.88,5.88,0,0,1,1.34.69c-.15,0-.41.07-.2.22C18.35,52.22,18.13,52,18,52.14Zm4.52,2.25c-.66-.51.2-.94.43-1.17.5.37-.45.28.19.74C22.72,54,22.86,54.05,22.56,54.39Zm-3.19-2c-.49-.46-.85-.92-.51-1.35C19.16,51.69,19.38,51.62,19.37,52.37ZM23.95,55c-.64-.35-.44-.6-.49-.89C23.76,54.18,23.87,54.79,23.95,55Zm-7.76-4.7c-.17-.11.45-.43.65-.47C17.11,50.22,16.42,50.34,16.19,50.33ZM38.4,63.74c-.21-.22.13,0,.14-.15.4.22.23.23.51.41.2-.12-.13-.24-.2-.49.27.18.1.19.5.41l-.21.22C38.84,63.85,38.93,64.12,38.4,63.74ZM22,53.77c-.16-.32-.43-.21-.85-.52C21.62,53.2,22.44,53.29,22,53.77Zm5.22,2.93c-.33-.39.13-.27.09-.56.16.14.12.24.31.38C27.59,56.68,27.29,56.47,27.26,56.69Zm2.19,1.2c-.31,0-.52-.5-.69-.68.6.3.12-.42.53-.32C29.64,57.3,28.83,57.45,29.45,57.9ZM20.17,51.5c.29.14.37-.21.75.15-.37.29,0,.18.42.5-.27.13.16.32.22.47-.21,0-.28.23-.61-.06.79,0-.74-.79-.92-1.15C20.13,51.35,20.21,51.47,20.17,51.5Zm9.75,6.61c-.26-.17.06-.22-.28-.41.11,0,.39.18.6.31C30.2,58.14,30,58.07,29.92,58.11Zm-2.28-2a2,2,0,0,1-.5-.42c.27,0,.88.55.94.18C28.59,56.27,27.8,55.94,27.64,56.06Zm-7.27-5.71c-.07.18-.71,0-.14.38-.13.07-.4-.17-.61-.29s-.24.06-.34.13c-.4-.44,1-.56.35-.85.11-.15.31,0,.41-.21.15.12,0,.22-.07.32S20,50.16,20.37,50.35Zm9.39,6.53c-.2.06-.75-.35-1.2-.38.17-.17.3-.41.75-.09C28.87,56.49,29.29,56.56,29.76,56.88ZM21.11,51c-.16.07-.15-.15-.41-.28C21.78,50.37,21.65,50.43,21.11,51ZM39.29,63.29c-.44-.34,0-.15.14-.14s.19.24.16.3A.64.64,0,0,0,39.29,63.29Zm.64-.9c-.15-.19-.33-.17-.76-.61.13.05.76.44.4.05.14,0,.53.32.83.53.08.28-.68-.58-.61-.3,0,.1.25.14.5.41A.52.52,0,0,1,40,63c-.3-.15-.16-.13-.52-.39-.06.1.58.5.38.53-.34-.33-.51-.16-.08.08,0,.06-.22-.06-.24,0a3.69,3.69,0,0,1-.64-.5c0-.21.41.15.43,0s-.42-.35-.46-.45.26.15.42.26c-.07-.14-.49-.44-.24-.45.4.3.41.48.74.63C39.79,62.52,39.35,62.1,39.93,62.39ZM28.39,55c-.24-.3.42-.4,0-.73.45,0,.48.24.39-.18a1.83,1.83,0,0,1,.57.34C29.11,54.47,28.81,54.9,28.39,55ZM21,49.69c-.1-.2-.42-.42-.52-.63s.73.15.41-.2c.13-.07.38.18.59.32-.4-.15-.17.45.13.34C21.88,49.93,21.06,49.47,21,49.69Zm1.26.31c-.37.07-.35-.46-.13-.58l.39.3C22.53,50,21.91,49.74,22.23,50ZM22,49.26c-.26-.2,0-.32-.38-.54.42.14.68-.19,1.11,0C22.76,49.1,22.27,48.87,22,49.26Zm2.13,1.51c-.08-.22-.57-.51-.65-.73.4,0,.39.41.83.53Zm-4.41-4.06c-.15-.71.93-.74.55-1.51.13-.07.32.13.25.21.16.11.14,0,.08-.08.78.15.36,1,1.09,1.2-.34.34-.58-.46-.94-.66-.11-.07-.2,0-.32-.13C20.51,46.27,20.12,46.54,19.77,46.71Zm8.16,6.22c-.35-.25-.34-.41-.16-.54C28.12,52.65,28.11,52.81,27.92,52.93Zm-3.11-3.31c.18-.28,1.2.33.81.56C25.29,49.82,25.15,50,24.81,49.63Zm3.43,2.73c-.39-.34-.42-.59-.88-1C27.67,51.44,28.51,52.23,28.24,52.36Zm-3.52-4.29c-.35,0-.38.67-1,.56-.46-.7.68-.2.8-.84.5.23.28.85.61.54a1.12,1.12,0,0,0,.3.39c-.13,0-.26,0-.13.14-.12.06-.36-.21-.55-.36C24.89,48.38,24.85,48.23,24.73,48.07Zm.86.26c.06.26.49.6.17.77C25.43,48.79,25.35,48.53,25.59,48.33ZM40.47,62.28,40.1,62c0-.09.15,0,.3.15a4.31,4.31,0,0,0-.56-.59c.34.14.4-.14,1,.38-.1,0-.33-.16-.38-.07.55.35.76.63,1,.59.46.49-.16.11,0,.43a2.78,2.78,0,0,0-.67-.7C40.72,62.19,40.41,62,40.47,62.28Zm-6.61-5.73c-.32-.35.27,0,.21-.23.09.1.08.15.2.26.15,0-.09-.24-.28-.41.25.12.55.17.69.45-.22-.09-.3.09-.41.2C34.1,56.67,33.93,56.51,33.86,56.55Zm-3.76-3.33c-.13-.2-.43-.46-.16-.54.28.15.25.52.49.43C30.71,53.37,30.16,53.13,30.11,53.22Zm3.53,2.62c-.35-.3-.09-.37-.64-.74.34,0,.49.34.89.71C33.79,55.79,33.69,55.78,33.63,55.85ZM34,56a.24.24,0,0,0,.29-.08l.48.44C34.58,56.41,34.28,56.2,34,56Zm-3.58-3.52c.21.2.32.16.53.38.21,0-.18-.51.2-.22.55.53-.24.17-.24.49-.25-.16-.35-.61-.6-.54.08-.32-.21-.82-.09-1.08C30.57,51.89,30.42,52.14,30.38,52.45Zm-2.22-2.37c-.13-.11-.1-.18,0-.24s.15-.07.15-.13l.47.44c0,.15-.25-.07-.44-.24Zm.27-.76c0,.15,0,.27-.1.34a12.16,12.16,0,0,1-1.23-1.06c.12-.2.37-.13.58-.15.23.28.15.44.26.67s.33,0,.65.26C28.75,49.58,28.56,49.45,28.43,49.33Zm.34.58a1.21,1.21,0,0,1,.57.1c0,.21.07.41.1.61C29,50.46,29.28,50.28,28.77,49.9Zm10,8.76c.07-.15.39.27.49.18-.15-.3-.81-.46-.58-.81.31.4.35.3.83.77C39.35,59,39.2,59.14,38.76,58.66ZM38.53,57c-.35-.21-.36-.6-.6-.55-.13-.14,0-.18,0-.25.09.1.13.08.16.06C38,56.42,38.74,56.89,38.53,57Zm.61.29c.34.47.32.24.76.61C39.93,58.25,38.89,57.41,39.14,57.3Zm.63,0c-.22,0-.56-.59-.46-.69C39.79,57,39.59,57.1,39.77,57.34Zm-.52-1.11c.09,0,.32.07.28.17.15.12.18,0,.25,0,.33.27.21.38.18.52A1.14,1.14,0,0,1,39.24,56.23Zm1,1c-.15-.15.26-.3.58.08a.25.25,0,0,1-.06.31C40.6,57.48,40.36,57.21,40.27,57.26Zm-8.62-8.32c-.2-.06-.52-.34-.73-.41s.06-.23-.23-.47c.32,0,.4.33.68.45l.3-.33c.21.18.24.36.36.33C32.11,48.74,31.57,48.54,31.65,48.94Zm8.53,7.7c-.14-.2,0-.32,0-.46.29.17.7.21.93.66C40.84,57.2,40.46,56.48,40.18,56.64Zm-.87-1c-.17-.27.38.16.22-.24.49.42.12.52.5.9C39.39,56.11,39.61,55.67,39.31,55.67Zm-.43-.48c-.08-.46-.94-.52-.71-.91.17.41.6.41.21,0a1.85,1.85,0,0,1,.78,1.07C39,55.22,38.94,55.17,38.88,55.18ZM40.77,55c.3-.13.52-.42,1.17.16-.36-.28-.37.17-.75-.14.31.36.27.29.23.47C41.14,55.46,41.16,55.22,40.77,55Zm.5.9a.94.94,0,0,0-.48-.43c.24.35-.17.46.29.89-.18.1-.65-.42-.9-.46-.31-.5.21-.7-.35-1.3.21,0,.57.33.7.19C40.8,55.19,41.43,55.69,41.27,55.92Zm-4-3.28c-.23-.32-.23-.19-.56-.59.15-.16.72.57,1,.62C37.93,53,37.27,52.48,37.25,52.64Zm-5.67-5.31c-.32-.25-.06-.8.34-.37C31.52,46.92,32,47.37,31.58,47.33Zm6.14,5c-.27-.36,0-.48.23-.49C38.28,52.32,37.85,52.13,37.72,52.36Zm2.54,1.05-.22.25c-.32-.3-.32-.14-.48-.43,0,0,.18.09.28.17s-.06-.24.05-.3c-.13-.13-.22-.18-.29-.17C39.39,52.44,40,53.17,40.26,53.41Zm1.82,1.36c-.15-.09-.41-.28-.81-.55.63.22.3,0,.39-.45.4.31.32.51.07.41.4.29.4.44.68.7C42.45,55.09,41.7,54.31,42.09,54.78ZM30.55,44.12c-.51-.29-.49-.75-.64-1,.09,0,.34.23.52.38C30.3,43.65,30.33,43.85,30.55,44.12Zm9.66,8.63c-.17-.3-.16-.13-.48-.43l.17-.2c.21.65.46.05.77.6C40.48,52.65,40.24,52.5,40.21,52.75Zm1.8.9c0,.34.65.49.43.74-.4-.34-.43-.54-.92-.91.29-.07-.17-.41,0-.51.14.38,1.24.81,1,1.12C42.18,53.94,42.34,53.93,42,53.64Zm-8.75-7.95c.4.24-.21-.41,0-.45.4.48.21-.19.61.29-.36,0-.34.33.27.67a2,2,0,0,1-1-.31c.36-.06-.3-.49-.11-.61C33.19,45.46,33.27,45.59,33.26,45.69Zm7.49,5.95c0,.13.36.33.52.64-.44-.16,0,.28-.14.4-.13-.07-.25-.15-.33-.12-.36-.47.16-.63-.46-1.2A3.23,3.23,0,0,0,41,51.1c.18.16-.08.45.2.26C41.64,51.85,41.28,52,40.75,51.64Zm-8.86-7.09c-.33-.29-.09-.48.13-.39C32.28,44.41,31.89,44.41,31.89,44.56ZM44,55c-.3-.28-.09-.38,0-.51C44.51,54.9,44.25,55,44,55Zm-1.82-1.61a2.3,2.3,0,0,1-.44-.48c.1,0,.28.11.37.07-.33-.3-.32-.13-.49-.43.25-.08,0-.41.26-.3.4.49.07.21.61.54C42.53,53.17,42.23,53.06,42.23,53.39Zm-2.91-3.8c.21-.06-.15-.31-.07-.41-.26-.24-.21.12-.34.14-.49-.35,0-.45.14-.4.39.5.57.45.54.13.38.33.21.46.77.84-.27-.12-.92-.31-.26.29-1-.56.36.61-.62,0,0,.11.07.24.28.42a1,1,0,0,1-.74-.39c.33.14.24-.26-.11-.36C39,49.86,39.13,49.63,39.32,49.6ZM37.72,49c-.18-.21,0-.18.21,0,0-.12-.35-.38-.07-.41a2.39,2.39,0,0,1,.56.58l-.13.15C38.16,49.3,37.82,48.89,37.72,49Zm-5.17-4.91a2.45,2.45,0,0,0-.57-.58c0-.14.19-.05.29-.08.3.35,0,.32.52.63C32.7,44,32.6,44,32.55,44.05Zm9.26,8.09c-.2-.2-.2-.33-.07-.41.21.2.31.17.53.38C42.24,52.37,42,52.1,41.82,52.15ZM33.24,44.5c-.41-.58.28-.62.66-.26-.07.3-.36.16-.66,0C33.28,44.34,33.31,44.44,33.24,44.5Zm9.55,8.26c-.21.08-.22-.28-.49-.43.13-.11.25-.23.58.07,0,.11-.19,0-.25,0A.49.49,0,0,0,42.8,52.75Zm-4.86-4.28c.28,0,.49.16.65.49C38.47,49.07,38,48.67,37.94,48.47Zm-7.12-6.36c.16-.34-.63-.55-1.13-.92A2.27,2.27,0,0,0,30.5,41c0-.08-.31-.38-.37-.32-.17-.16.08-.18-.12-.35.23.15,1.06.58.29-.08.32,0,.24.23.61.53s-.07-.28.29-.08c-.19-.2-.26-.16-.32-.12-.15-.2,0-.31,0-.45a1.28,1.28,0,0,1,.53,1.37,1.67,1.67,0,0,1,.41.27c.23.1.34,0,.57.09.23.54-.58.15-1.14-.42a.23.23,0,0,1,0-.29c-.17-.12-.26-.09-.45-.23.41.44.05.6.07.89.15.08.22,0,.45.23,0-.07-.19-.23-.32-.37,0-.14.19,0,.29-.08-.39-.19.64.84.36.32C32,42.54,31.47,42.34,30.82,42.11Zm1.82,1.6a1.63,1.63,0,0,0-.32-.37c.07-.16.36.1.61.29C32.89,43.77,32.73,43.68,32.64,43.71Zm-5.18-4.65c-.22-.17-.27-.55.12-.14,0-.06-.08-.15,0-.2-.36-.36-.45-.19-.65-.25-.3-.38.32,0,.28-.32.63.7.48.13.65.24C28.31,38.88,27.61,39,27.46,39.06ZM42,51.49c-.5-.41-.13-.52-.51-.89a2.14,2.14,0,0,1,.43-.24c.4.43-.05.21-.14.4.3.32.32.1.5.17C42.35,51.3,42,51.25,42,51.49Zm.44.48c-.53-.08-1.07-.92-1.67-1.29,0,0,.18.09.29.16s-.06-.23.05-.3c.08.13.16.25.24.21C41.31,51.16,42.06,51.51,42.41,52ZM34.18,44.9c-.39-.38,0-.45.41,0C34.47,44.94,34.31,44.89,34.18,44.9Zm3.7,2.91c-.33-.27-.34-.42-.2-.51C38,47.56,38,47.71,37.88,47.81Zm4.55,3.65c.5,0-.22-.61.07-.81.21.18.35.24.45.22.09.28.17.32.57.58,0,.23.14.63-.31.35,0,.09.3.38.36.32.26.52-.54.1-.92-.19C42.92,51.72,43,52,42.43,51.46Zm-3.9-3.16c-.28-.33-.15-.72,0-.71C38.66,47.87,38.79,48.16,38.53,48.29Zm-4.95-4.43c-.38-.66.39-.09.9.2C34.26,44.15,33.78,43.74,33.58,43.87ZM40,49.07c-.5-.22-.34-.65-.06-.66.23.32.14.3.57.58C40.42,49.1,39.76,48.75,40,49.07Zm4,3.06c.26.21.23-.19.46,0,.42.42-.2.18-.23.51a3.46,3.46,0,0,0-.56-.84C43.8,51.65,44.09,52.1,44,52.13Zm-2.8-2.45A1.42,1.42,0,0,1,42,50C42.17,50.29,41.64,50.11,41.19,49.68Zm-2-2.11-.37-.32c.28,0-.11-.63.34-.39C39.4,47.14,39.35,47.3,39.17,47.57Zm4.8,4.1c0-.17-.75-.6-.48-.68C43.85,51.28,44.16,51.56,44,51.66Zm.3-.35c.31.34.38.2.65.48C44.84,52,44,51.53,44.27,51.31Zm-4-3.3c.31-.16-.34-.66-.35-1.08.44.25.61.87.85,1.25C40.71,48.33,40.37,47.94,40.28,48Zm-5.49-6c-.12-.1,0-.14,0-.2-.19-.11-.32-.1-.41,0-.14-.17-.14-.3-.08-.4-.28-.19-.24.21-.65-.23.19.24.51.84.73.88.22.54-1.11-.76-1.18-.36a2.43,2.43,0,0,1-.45-.47c0-.2.8.3.2-.24.46.1.26-.27.73-.11,0-.07-.19-.23-.33-.36.69.31.19-1,1.06-.49-.45-.46.09-.33-.29-.66.62.1.2-.62.81-.71.09.09.08.15.21.26-.06,0,0,.09.08.15-.71-.38,0,.43-.12.64-.43-.22-.77.25-.45.77,0-.14.23-.49,1,.1-.06.1-.24,0-.29.09.21.15.23-.06.57.33-.14.28-.78-.38-1-.3a7.4,7.4,0,0,0,.74.88c0,.23-.66-.16-.41-.27-.2-.2-.45.08,0,.3-.42-.21-.34-.19-.53-.13C34.7,41.63,34.93,41.88,34.78,42Zm-.08.34c.24.21.27,0,.57.33,0,.15-.19.05-.29.09a.86.86,0,0,1-.37-.57A.09.09,0,0,1,34.7,42.34Zm-6.45-5.41c-.64-.75.6.12.85.25C29.1,37.61,28.29,36.54,28.25,36.92ZM40.78,47.68c0-.12.2,0,.17.06.43.26,0-.34.33-.14.15.2.16.35,0,.46C41.1,47.86,41,47.89,40.78,47.68ZM29.67,36.77c-.36-.33-.72-1.08,0-.49C29.34,36.33,30,36.72,29.67,36.77Zm9.39.91c-.4-.36,0-.34.11-.4C39.44,37.51,39.06,37.53,39.06,37.68Z" fill-rule="evenodd"/><path d="M42.82,49.27l-.49-.42c.15-.08-.13-.3.09-.35.41.18,1,.77,1.4.86.1.13-.42.14-.67,0-.41-.29,0-.3-.53-.63C42.29,48.79,43.17,49.24,42.82,49.27Z" fill-rule="evenodd"/><path d="M52.47,83.87c-.09.1-.13.09-.15.07.18-.09-.22-.13.42-.74l.24.25C52.77,83.57,52.47,83.6,52.47,83.87Z" fill-rule="evenodd"/><path d="M49,72.53c.16-.05.16-.06.47-.15v0C49,72.55,48.46,72.66,49,72.53Z" fill-rule="evenodd"/><path d="M47.45,71.89c-.27,0-.78-.06-.21-.1C47.14,71.8,47.81,71.87,47.45,71.89Z" fill-rule="evenodd"/><path d="M45.75,71.46c-.8-.06,0,0,.18-.06.66,0,.09.11.56.16-.51,0-.37-.09-.56-.13S45.77,71.45,45.75,71.46Z" fill-rule="evenodd"/><path d="M45.47,70.57a1.08,1.08,0,0,1-.52-.17c-.38-.09-.35,0-.37,0-.26-.12-.13-.18.24-.13a2.79,2.79,0,0,0,.85.29C45.81,70.6,45,70.47,45.47,70.57Z" fill-rule="evenodd"/><path d="M5.31,60.77c-.52.2.55-.59.2-.64C6.14,59.9,5.64,60.83,5.31,60.77Z" fill-rule="evenodd"/><path d="M5.93,58.52c-.66-.1.29-.44,0-.82.34-.39.27.49.47.15a13.11,13.11,0,0,1-1,2c-.53-.3.18-.43-.25-.76C5.39,58.88,5.56,58.57,5.93,58.52Z" fill-rule="evenodd"/><path d="M42,68.18a1.47,1.47,0,0,0,.36.09c0,.06.21.26,0,.29-.56-.23,0-.2-.51-.44A.25.25,0,0,1,42,68.18Z" fill-rule="evenodd"/><path d="M41.55,68c-.7-.3.18-.18-.06-.44.45.17.29.17.61.31.06,0-.08-.12-.43-.26.43.08.14-.11.65,0,.79.43-.56,0-.19.21s.31.11.35.1c.29.16-.1.13-.63,0,0,0,.05.11.26.21-.1,0-.53-.18-.39,0-.13-.05-.15-.08-.31-.14S41.45,68,41.55,68Z" fill-rule="evenodd"/><path d="M41.37,67c-.39-.13.12-.12.29-.07C42.18,67.21,41.26,66.8,41.37,67Z" fill-rule="evenodd"/><path d="M23.27,45.83c.29.39-.42-.27-.4.19.21.2.34.14.55.36,0,.08-.11,0-.19,0s-.26,0-.14.15c-.13.18-.46-.35-.68-.46C22.75,46.15,22.87,45.47,23.27,45.83Z" fill-rule="evenodd"/><path d="M22.3,45.93c.32-.17.38-.6.47-1s.06-.46.44-.25c-.4.15.11.54.34.82C23,45.56,22.5,45.59,22.3,45.93Z" fill-rule="evenodd"/><path d="M23.34,44.58c-.26-.52.57-.31-.06-.89l.25-.27c.5.37.6,1,.91.68.23.3-.22.32-.26.51-.16-.17.08-.17-.11-.35-.44-.25-.06.34-.34.36.4.08.86.56.83.77A2.27,2.27,0,0,0,23.34,44.58Z" fill-rule="evenodd"/><path d="M18,39.14c-.14-.51.73-.13.88-.48-.44-.41-.38.16-.76-.13a1.06,1.06,0,0,1,1.2-.35c-.2.15-.92-.09-.16.66C18.88,39.2,18.35,39.06,18,39.14Z" fill-rule="evenodd"/><path d="M28.92,48.32c-.23.24-.87-.36-1.22-.36-.23-.39.39-.11,0-.74C28.4,47.63,28.32,47.73,28.92,48.32Z" fill-rule="evenodd"/><path d="M29,49c.07,0,.25.16.4.28,0-.25-.17-.53.23-.48.51.49-.34.09.19.52A.61.61,0,0,1,29,49Z" fill-rule="evenodd"/><path d="M23.4,41.65c.11.21-.15.27.15.55-.31-.05-.73,0-.25.52-.15.09-.57-.38-.76-.37-.17-.14,0-.45-.27-.42-.3-.29.23.07.16-.18.73.71.35,0,.76.12-.31-.3-.37-.76.13-.38.06-.1-.38-.4-.4-.53.55,0,.3-.41.85-.46,0,.19,0,.54.4.52.26.25-.26,0-.2.22.65.13-.2.36.19.75.35.13.18-.52.68.21.24,0-.19-.32-.4-.53.92.37.36-.95,1.06-.69,0-.09-.27-.31-.44-.48.17,0,.26-.09.61.3-.28-.67.63.05.57-.64-.47-.2-.69-.67-1-1,.08-.09.38.24.4,0,0,.35.29.49.81.8-.07-.23-.51-.61-.24-.71.21.42.27.3.73.65-.74.09-.25,1.65-1.3,1.22.26.71-.08,1.44-1,1.09,0,.23.13.21.44.48-.72-.2-.33.6-.82.42.31.38,0,.53.07.65-.41-.21-.07-.65-.55-1.08.51.21.42-.3.49-.54-.58-.54-.29,0-.56-.1S24.11,42.13,23.4,41.65Z" fill-rule="evenodd"/><path d="M32.58,51.52a2.46,2.46,0,0,1-.55-.6c.08-.2.43.17.57.09C32.86,51.37,32.82,51.51,32.58,51.52Z" fill-rule="evenodd"/><path d="M34.88,52.85l-.24-.22.13-.14c.09.1.08.16.2.27.06-.15.19-.17.34-.13.37.34.79.85.64.5.59.21.48.77,0,.46-.13-.14,0-.18,0-.25C35.59,53.13,35.13,52.77,34.88,52.85Z" fill-rule="evenodd"/><path d="M33.65,51.55c-.19,0-.31-.5-.47-.69s-.26.1-.61-.3c.22,0-.06-.28.1-.35.58.38.92.86,1.32.95.14.16.11.26.27.42-.16-.11-.52-.39-.69-.2C33.52,51.41,33.58,51.48,33.65,51.55Z" fill-rule="evenodd"/><path d="M27.13,43.8c-.18.16.08.11.32.37-.46-.11-.23.67-.55.84-.11.09-.52-.44-.76-.61,0-.32.21-.27.25-.52l.36.33c-.21-.39-.12-.48-.07-.65-.15-.08-.22,0-.44-.24.09-.39.83.45.93.42C27.3,43.89,27.2,43.86,27.13,43.8Z" fill-rule="evenodd"/><path d="M23,40.68c-.22.1-.2.68-.77.12.1-.05.08-.33.4,0-.09-.24-.34-.54-.23-.7-.25-.15-.36,0-.56-.1s-.16-.35,0-.44C22.45,39.94,22.44,40.34,23,40.68Z" fill-rule="evenodd"/><path d="M29.52,46.23c-.08-.13,0-.24.18-.43,0,.47.35.31.08-.09.66-.4.4.62.3.87C30,46.57,29.62,46.16,29.52,46.23Z" fill-rule="evenodd"/><path d="M40.76,56c-.49,0-.59-1-.29-.89C40.61,55.42,40.38,55.6,40.76,56Z" fill-rule="evenodd"/><path d="M21.1,37c-.07,0-.14-.08-.12-.11-.44-.1-.28.32-.4.44-.22-.17-.2-.24-.16-.31-.43-.19-.31.35,0,.68-.24-.06-.49-.53-.88-.72.7-.1.48-.53,1.16-.55C21,36.63,20.87,36.73,21.1,37Z" fill-rule="evenodd"/><path d="M27.26,43.17c-.29-.35.3-.22.37.08l.08-.09C28,43.52,27.4,43.21,27.26,43.17Z" fill-rule="evenodd"/><path d="M24.07,39.71c-.38-.17.23-.08.24-.27.13,0,.35.27.44.23.09.23-.15.14.16.55C24.69,40.43,24.26,39.47,24.07,39.71Z" fill-rule="evenodd"/><path d="M28.12,43c-.07.2-.61-.52-.65-.25-.1-.77.49-.48.58-1.14C28.9,42.6,27.59,42.12,28.12,43Z" fill-rule="evenodd"/><path d="M34.48,48.23c-.34-.34.15-.37-.06-.66C34.7,47.64,34.64,48.12,34.48,48.23Z" fill-rule="evenodd"/><path d="M25.24,39.87c.1.1.13.09.16.06.08.45-.48-.53-.48-.68C25.21,39.29,25.2,39.72,25.24,39.87Z" fill-rule="evenodd"/><path d="M47.39,56.35c-.13-.13,0-.11,0-.05,0-.12-.23-.3-.11-.37.32.13.15.14.49.43l-.13.15C47.55,56.38,47.46,56.34,47.39,56.35Z" fill-rule="evenodd"/><path d="M45.48,51.65c-.32.13-.26-.74-1.06-1a7.55,7.55,0,0,1,1.73,1c-.17.14,0,.4-.23.51-.18-.23,0-.36-.32-.63-.13-.07-.26-.14-.33-.11S45.39,51.56,45.48,51.65Z" fill-rule="evenodd"/><path d="M26.3,35.23c.32-.08-.64-.64-.25-.7.12.1,0,.14,0,.2.31.21.26-.23.69.2-.15,0-.27,0-.32.12.48.49.7.33,1.06.75-.1,0-.19,0-.24,0C26.83,35.22,26.82,35.69,26.3,35.23Z" fill-rule="evenodd"/><path d="M46.07,51.46a7.83,7.83,0,0,1-.65-.73c.46.07.34-.16.6-.45q.41.33.24.47c.1.1.13.08.17.06C46.18,50.82,46.2,51.33,46.07,51.46Z" fill-rule="evenodd"/><path d="M31.47,38.15l-.37-.32c.33.1-.15-.46.24-.53.14.13,0,.17,0,.25s.13.08.16.06A1,1,0,0,1,31.47,38.15Z" fill-rule="evenodd"/><path d="M45.74,49.86c-.06,0-.17-.05-.21,0-.21-.16-.17-.23-.33-.37,0,0,.18.09.29.16.08-.1-.28-.35-.07-.41l.37.31C45.66,49.67,45.42,49.51,45.74,49.86Z" fill-rule="evenodd"/><path d="M42.08,46.91c.09-.21-.25-1.1.51-.59C42.6,46.76,42.18,46.53,42.08,46.91Z" fill-rule="evenodd"/><path d="M44.27,48.34c-.33-.43.65.21,0-.3.22.08.3-.24.5.16a3.09,3.09,0,0,1,0-.76C45.24,47.75,45.21,48.91,44.27,48.34Z" fill-rule="evenodd"/><path d="M30,35.86c0-.06.09,0,.16.06s.27-.22-.21-.5c.07,0,.27.18.33.12s-.3-.18-.49-.42c0-.27.57.41.74.38-.11-.39.28,0,.4-.22C31.08,35.65,30.88,36.46,30,35.86Z" fill-rule="evenodd"/><path d="M27.67,33.63c.1-.12.3-.21,0-.48.15,0,.27.07.41.27-.24-.72.17-.69.53-.89a1.09,1.09,0,0,1-.45,1c.14.13.23.18.29.16C28.54,33.87,28,33.92,27.67,33.63Z" fill-rule="evenodd"/><path d="M42,44c-.27,0-.41-.44-.54-.37,0-.18,0-.69.58-.19,0-.12-.35-.37-.08-.41C42.51,43.5,41.92,43.62,42,44Z" fill-rule="evenodd"/><path d="M33.06,36c.16-.15.81.58.94.39C34.43,36.86,33.61,36.59,33.06,36Z" fill-rule="evenodd"/><path d="M31.61,34.48c.31.41-.33.1-.65-.23,0-.12.17,0,.33.11s0-.08-.08-.15C31.28,34,31.45,34.64,31.61,34.48Z" fill-rule="evenodd"/><path d="M29.63,31.8c0,.33-.73-.39-1.4-.85,0-.52.6-.89.6-1.22C29.41,30.49,28.67,31.1,29.63,31.8Z" fill-rule="evenodd"/><path d="M30.61,32.14c-.38-.16.29-.09.44,0,.44.37-.39-.07,0,.24C31,32.4,30.68,32.07,30.61,32.14Z" fill-rule="evenodd"/><path d="M30.88,30.8c-1.08-.77-.44.44-1.14.62-.42-.52.43-.26,0-.73s.17.43-.28.08c-.36-1.2,1.13-.85,1-1.74.06-.12.22-.06.49.17-.21-.67.41-.85.66-1.32,0,.68-.26,2.09-1.39,2C30.19,30.08,30.49,30.42,30.88,30.8Z" fill-rule="evenodd"/><path d="M32.57,31.55c-.11,0-.14-.15-.38-.31-.19.06.19.3.26.45s-.27-.17-.33-.11c.32.21-.11.88-.55.42-.25.14.38.57.06.68-.42-.43,0-.27-.67-.71.15-.3.54-.2.84-.25.09-.11-.35-.26-.33-.11-.21-.16,0-.52.32-.13-.54-.62.17-.45.12-.92.56.35.31.43.67.71C32.38,31.19,32.29,31.3,32.57,31.55Z" fill-rule="evenodd"/><path d="M38.07,33a1.87,1.87,0,0,0,.3.4c-.7-.63-.35.23-1.07-.22,0,.06.09.15,0,.2.52.23.13.51.8.81-.46,0-.73-.43-1.41-.82.2-.14.9-.31.46-.82s-1,.17-.47.58c-.36,0-.5-.26-.92-.66.33.17.78-.46.33-.92a4.54,4.54,0,0,1,1.35,1.16,7.21,7.21,0,0,1,1.23-1.55c.09-.11-.16-.68.52-.14,0,1.07-1.44.87-.76,2.26C38.36,33.45,38.37,33.19,38.07,33Z" fill-rule="evenodd"/><path d="M30.35,27.34c.21-.07,0-.27.1-.38.88.56,0-.29.34-.42C31.34,27.21,31.3,27.93,30.35,27.34Z" fill-rule="evenodd"/><path d="M32.24,27.31c.52.18-.49.08.1.39-.31.09-.23.25-.47.32C31.23,27.29,32.17,27.66,32.24,27.31Z" fill-rule="evenodd"/><path d="M31.48,27.24c.21-.07,0-.28.1-.38.16,0,.48.36.49.16s-.24-.1-.34-.35c.09,0,.28.1.36.06-.45-.18,0-.2,0-.48.27.23.18.33.07.44.26.14.49.14.67.46-.21-.05-.68-.42-.24,0C31.84,26.79,32.13,27.75,31.48,27.24Z" fill-rule="evenodd"/><path d="M33.55,27c.06-.06.13-.12,0-.24.07,0,.28.17.33.1s-.23-.23-.18-.29c-.36,0-.62-.49-.82-.26-.18-.15-.35-.29-.42-.25-.52-.43.28-.06-.07-.44.39.3,1.42,1,1.81.58.62.62.16.73.4,1.32C34.14,27.53,34.37,27.36,33.55,27Z" fill-rule="evenodd"/><path d="M51.77,40.19l-.38-.3.12-.16c.22.15.18.22.34.35l.08-.1C52.29,40.32,51.73,40,51.77,40.19Z" fill-rule="evenodd"/><path d="M33.7,25.47c-.42-.44.68-.06-.16-.58.32.11.17-.14.22-.29C34.41,25.12,33.92,25.41,33.7,25.47Z" fill-rule="evenodd"/><path d="M35.33,26.28c-.13.1-.17-.24-.51-.4,0-.23.35,0,.66.21C35.8,26.48,35,26,35.33,26.28Z" fill-rule="evenodd"/><path d="M36.05,23c.33.14,0-.19.31-.14,0-.1-.29-.28-.48-.44.17-.14.55-.09.53-.43.13.1.06.13.06.19.37.38.22-.08.59.29-.32.39-1.06.7-.33,1.5-.07.13-.16.25-.35.19a4.28,4.28,0,0,0-.77-.59c-.17.06-.08.21.28.44,0,.06-.08,0-.16,0l-.07.1c-.84-.84.2-.87-.11-1.45.09,0,.29.1.37.05C36,22.75,36.12,22.87,36.05,23Z" fill-rule="evenodd"/><path d="M40.54,27.21c1.25.65.33-.41,1.32.15.09-.16-.08-.38,0-.54-.13-.08-.51,0-.28.1-.28-.05-.42-.52-.07-.44-.44-.33-.08.14-.63-.24-.11.09,0,.24.27.44a1.92,1.92,0,0,1-1-1.13c0-.2.33.1.41,0-.33-.39.27-1.43,1-1,.07-.22-.46-.73.22-.3,0-.13-.27-.36-.41-.53a3,3,0,0,0,.63-.3c-.5-.89,1.41-.37.72-1.53.48.17.46-.1.32-.45.58.11.35.69.68.72.37.27-.41-.09.19.29-1.11-.19-.7,1.2-1.64.87.56.85-.17.82-.48,1.18s.43,1.25-.65.59c.4.42.2.36.26.74.26.23.3.11.37,0,.06.24.4.56.26.74.6.24.1-.74.17-1,0,.23.59.67.59.29.18.14.36.28.43.24.27.34,0,.53,0,.79-.22-.18-.23-.31-.11-.39-.64-.29.34.69-.3.4,0,.22.4.07.52.39-1-.17-1,.15-1.29.9-.54-.47-.75-.4-1-.34C40.66,27.53,40.76,27.42,40.54,27.21Z" fill-rule="evenodd"/><path d="M44.52,30.26c-.79-.79.09-.72-.2-1.34,1.1.6.43-1.42,1.57-1A6.7,6.7,0,0,0,44.52,30.26Z" fill-rule="evenodd"/><path d="M39.77,24.47c-.39.21-.21,1.28-1.11.93.25.07.56-.18,0-.54.36,0-.05-.51.52-.14.07-.24-.2-.58-.69-1,.33,0,.09-.27.42-.29.87.79.44-.41,1.12-.15a1.71,1.71,0,0,0,.35.34c-.08.44-.41.37-.35.74.06.18-.76-.53-.33-.1-.36,0-.13-.27-.31-.39C39,23.73,39.34,24.32,39.77,24.47Z" fill-rule="evenodd"/><path d="M39.86,26.23,39.6,26c0-.09-.07-.18,0-.24l.51.39.07-.1C40.55,26.48,39.82,26,39.86,26.23Z" fill-rule="evenodd"/><path d="M60.29,40c-.73-.4,0-.42-.44-.76C60,39.27,60.49,39.89,60.29,40Z" fill-rule="evenodd"/><path d="M36.58,22c-.39-.62.38-.43.28-.92C37.26,21.65,36.77,21.67,36.58,22Z" fill-rule="evenodd"/><path d="M63.6,39.1a.27.27,0,0,1,.28-.38c.36.36.35.24.61.53C64.31,39.38,63.82,39,63.6,39.1Z" fill-rule="evenodd"/><path d="M38.9,18c-.11.11.1.3.09.43.4,0,.66.5.68.72-.1-.28-.6-.3-.62-.52-.5-.22-.62.06-.58.25-.69-.43.06-1,.57-1.07.18.14.37.28.43.24.41.45,0,.37.05.48-.33-.06-.45-.38-.16-.34C39.21,18.14,39.15,18.22,38.9,18Z" fill-rule="evenodd"/><path d="M44,20.89a.87.87,0,0,0,.42.53c-.38-.22-.51-.07-.93-.37-.05-.16.3-.4.72-.16a2.23,2.23,0,0,0-.55-.62c.4-.23,1.24-.78,1.09-1.26.37.06.37,0,.71.12-.37-.11.11.63-.55.22C44.93,20,44.57,20.77,44,20.89Z" fill-rule="evenodd"/><path d="M39.11,17.72c-.65-.57,0-.52.26-.63.16.1.23.18.23.24q.34.15.44-.06c-.45-.43-.18.2-.63-.23.2-.1.44-.15.9.13.23.36-.57.18.08.72-.25-.16-1.15-.47-1-.61C39.05,17.13,39.13,17.59,39.11,17.72Z" fill-rule="evenodd"/><path d="M48.44,21.37c.27-.27.41.29.36.33-.25.21-.12.19-.19.56s-.78.8-.43,1.16a4.66,4.66,0,0,0,1.54-1.6A3.17,3.17,0,0,0,50.57,20c-.42,0-.31.69-1.17.26.15.12.38.25.36.33l-.14.21c-.27-.29-.25-.17-.63-.52C49.3,20.86,48.35,20.87,48.44,21.37Zm1.2-.3c-.05.2-.46-.05-.6-.27A.63.63,0,0,1,49.64,21.07Z" fill-rule="evenodd"/><path d="M52.8,24.46l-.18.26c-.25-.4-.31-.68,0-.8C53.06,24.32,52.28,24.13,52.8,24.46Z" fill-rule="evenodd"/><path d="M39.19,14.83c.32.24-.08.19-.14.2-.25-.22.07-.29-.23-.52C39.22,14.43,39,14.94,39.19,14.83Z" fill-rule="evenodd"/><path d="M47.55,20.67c-.6-.2-.87-.85-.3-1a1.69,1.69,0,0,0,.36.33c.28.11.29-.19.52-.17-.08-.25-.16-.35-.59-.57,0-.3.36-.08.61,0,.11-.19-.51-.2-.36-.33s.51.2.77.31c-.28.31.23,1.17-.72,1,0,.12.18.1.4.28,0,.16-.7-.24-.41,0-.12.11-.18-.23-.53-.37l-.07.1C47.31,20.45,47.46,20.42,47.55,20.67Z" fill-rule="evenodd"/><path d="M46.24,18.31c-.16-.09-.51-.26-.11.15-.59-.14-.32.39-.73.47-.22-1,.63-1.19.9-1.85.85.57-.5.34.14.92C46.21,17.81,45.89,17.93,46.24,18.31Z" fill-rule="evenodd"/><path d="M41.8,15.35c-.06,0-.15-.07-.13-.09-.23-.17-.32-.14-.57-.32.14-.09.5.13.61,0C42.12,15.29,41.53,15.08,41.8,15.35Z" fill-rule="evenodd"/><path d="M51.66,21c.14.11,0,.17.19.29-.3.06-.48-.69-.6-.27-.6-.4-.22-.42,0-.35S51.48,21.12,51.66,21Z" fill-rule="evenodd"/><path d="M48.89,19.33c-.45-.3.07-.23-.18-.58-.28-.07-.36.16-.65.08-.3-.46.49-.35.29-.7.49.5.75.58,1.06,1C49.12,19.15,48.79,19,48.89,19.33Z" fill-rule="evenodd"/><path d="M67.37,29.88c.36.25.33.09.53.37a.82.82,0,0,1-.65-.2c-.08-.25.09-.09.06-.37C67.49,29.65,67.44,29.81,67.37,29.88Z" fill-rule="evenodd"/><path d="M69.62,29.45c-.24-.51.76-.45.55-1.1C71,28.9,69.8,29.27,69.62,29.45Z" fill-rule="evenodd"/><path d="M47.68,14.52c0-.06.08,0,.17,0,.17-.17-.11-.58.38-.56.58.32.28.59,0,.54-.07.14.38.4.74.65C48.6,15.39,48.26,14.6,47.68,14.52Z" fill-rule="evenodd"/><path d="M69.47,28c-.51.12-1-1-.12-.41,0,.17-.31-.09-.38,0C69,27.78,69.38,27.7,69.47,28Z" fill-rule="evenodd"/><path d="M69.29,27.35c-.57-.51-.07-.66-.36-1.21.63.43.08-.27.46-.1.36.53-.27.49.09,1C68.82,26.65,69.64,27.32,69.29,27.35Z" fill-rule="evenodd"/><path d="M72.49,20a1.18,1.18,0,0,1,.4-1.25A1.63,1.63,0,0,1,72.49,20Z" fill-rule="evenodd"/><path d="M71.44,18a.49.49,0,0,0,.2.28,1.2,1.2,0,0,1-.62-.23c0-.35.41,0,.49-.17C71.68,18,71.58,18.12,71.44,18Z" fill-rule="evenodd"/><path d="M52.88,85.23c-.32.33-.39.18-.61.31.08.25-1.31,1.27-1.39,1.35-.64.69-1.61,1.89-1.86,1.34.79-.39,1.17-1.21,2-2.1.22-.23.35-.19.42-.26,1-.95,1.89-2.31,2.33-2.72s.37-.22.79-.82c.19.13-.23.57.14.61-.31.33-.24,0-.49.2s-.4.76-.83,1c-.23.25.26-.07,0,.26C52.86,84.78,53.24,84.82,52.88,85.23Z" fill-rule="evenodd"/><path d="M43.55,70.86c-.44,0,.11-.08-.54-.12.45,0,.45,0,.39-.15s-.16,0-.19,0c-.34-.15.56-.11.23-.22.43.17,1.65.44,1.58.49A7.64,7.64,0,0,1,44,70.63c-.2,0-.13,0-.37,0,0,.06.46.13.53.18C43.57,70.81,43.94,70.85,43.55,70.86Z" fill-rule="evenodd"/><path d="M41.13,69.31c-.67-.24-.09-.19-.58-.44.82.17.26-.09.64-.07,1,.37.12.34.85.65-.19,0-.33-.07-.89-.19Z" fill-rule="evenodd"/><path d="M46.42,56.48c-.41.57-.71,1.31-1.3,1.47a.35.35,0,0,1-.06-.42c-.29-.12-.06.24-.46,0-.06-.61.49-.65.48-1.28.31.13.15.14.48.43C45.67,56.53,45.94,56.1,46.42,56.48Z" fill-rule="evenodd"/><path d="M46.54,49.67c.48.09.14-.07.3-.35-.12-.1-.15,0-.21,0-.47-.43.22-.08-.08-.41.28,0,.27.29.66.47l.09-.1c0-.08-.19-.23-.33-.36.28-.26.5.41.87.73-.51-.21-.06.54-.31.61S47,49.88,46.54,49.67Z" fill-rule="evenodd"/><path d="M30.15,34.46c-.24-.29.2-.33.23-.53.26.39,0,.21,0,.49.37.21.24-.18.44,0,.49.44-.11.12.05.44.17.11.3.15.36.07a.41.41,0,0,1,0,.49C30.56,35.18,30.62,34.4,30.15,34.46Z" fill-rule="evenodd"/><path d="M50.22,51.84c-.21-.15-.17-.23-.33-.37.69-.07.11-1.32,1.11-.82C50.76,51,51,52.07,50.22,51.84Z" fill-rule="evenodd"/><path d="M47.88,49.33a2.32,2.32,0,0,0-.57-.57c-.13-.77.39-.7.77-1.17.07.16,0,.61-.17.46a1.22,1.22,0,0,0,.41.52C47.65,48.29,48.62,49.38,47.88,49.33Z" fill-rule="evenodd"/><path d="M31.72,30.54c-.18-.15-.24-.52-.38-.31-.14-.29,0-.4.14-.43.14.13,0,.17,0,.24,1.07.58.54-.42.56-.95.37.24.16.29.26.45.27.11.49-.31-.07-.68.11-.1.36,0,0-.29.78.38,1.41.41,1.24-.25.3.36.08.54.17.83-.21-.17-.36-.23-.46-.21A.73.73,0,0,1,32.78,30c.39.27.58.8-.1.38.14.21,0,.34.18.54-.11,0-.43-.28-.4,0C32.13,30.64,31.71,30.23,31.72,30.54Z" fill-rule="evenodd"/><path d="M53.93,46.07c0-.59.41-.67.55-1.2.18.35.51.38.89.71,0,.14.17.35,0,.47-.22-.06-.62-.45-.84-.5C54.32,45.89,54.63,46.28,53.93,46.07Z" fill-rule="evenodd"/><path d="M49.29,18.77c-.22-.37,0-.52-.62-1.11.16-.77,1.54-.32.78-1.42.36.48.47,0,.84.2,0-.08-.24-.21-.2-.28.24-.06.39-.26,1,.24a.45.45,0,0,0,0,.64c-.27,0-.65-.25-.85-.2s.3.91-.42.62c0,.12.19.1.4.27C49.46,17.77,50,18.61,49.29,18.77Z" fill-rule="evenodd"/></g></g></svg>