<svg xmlns="http://www.w3.org/2000/svg" viewBox="0 0 116.77 116.64"><title>Asset 10-240</title><g id="Layer_2" data-name="Layer 2"><g id="Layer_30" data-name="Layer 30"><path d="M116.77,50.14l-1.93-1.73c-.63-.53-1.35-1.23-2.18-2l-1.33-1.27-1.42-1.46c-2-2-4.19-4.53-6.48-7.26s-4.49-5.86-6.62-9-4-6.5-5.67-9.66-3.05-6.19-4.1-8.83L86.28,7l-.64-1.72c-.41-1.08-.76-2-1-2.8L83.82,0,0,26.3l1.49,4.49c.46,1.43,1.08,3.15,1.82,5.1L4.48,39l1.39,3.41c1.92,4.77,4.47,10.19,7.39,15.89S19.69,69.88,23.41,75.6s7.81,11.19,11.84,16.17,8,9.43,11.65,13.09l2.58,2.63,2.4,2.31c1.5,1.45,2.83,2.7,4,3.7l3.53,3.15Z" fill="none"/><path d="M38.08,14.35c.11,0,.11,0,.14,0,.25-.06.69,0,.72.2C38.74,14.45,38.21,14.54,38.08,14.35Z" fill-rule="evenodd"/><path d="M32.5,17.81c.27-.05.13.19.23.26C32.55,18,32.17,18,32.5,17.81Z" fill-rule="evenodd"/><path d="M33.5,18.08c.36-.11.26.1.33.19C33.36,18.42,33.53,18.15,33.5,18.08Z" fill-rule="evenodd"/><path d="M33,18.5c.15-.14.16.17.32.15l-.34.11c-.07.28.45.13.41.39C32.58,19.29,32.89,18.78,33,18.5Z" fill-rule="evenodd"/><path d="M33.73,18.34c.39-.13.38,0,.43.12A.93.93,0,0,1,33.73,18.34Z" fill-rule="evenodd"/><path d="M33.68,18.54c.34,0,.56.15.28.39C33.62,19,34,18.69,33.68,18.54Z" fill-rule="evenodd"/><path d="M52.56,12.18c.27-.08.12.11.5,0,0,0,0,0-.1.07l0,.06C52.7,12.34,52.63,12.26,52.56,12.18Z" fill-rule="evenodd"/><path d="M52,12.79c.25-.05.38,0,.41.06C52.19,12.9,52.06,12.88,52,12.79Z" fill-rule="evenodd"/><path d="M65.36,8.36c.31,0,.22.16.23.25C65.31,8.65,65.46,8.42,65.36,8.36Z" fill-rule="evenodd"/><path d="M33.33,19.6c.52,0,.17.3,0,.44S33.49,19.72,33.33,19.6Z" fill-rule="evenodd"/><path d="M52.59,13.55c.23-.15-.13-.07-.08-.2.29-.12.31.13.5,0s.11.15.21.19C53,13.53,52.94,13.44,52.59,13.55Z" fill-rule="evenodd"/><path d="M65.46,9.25c.09-.08.48.25,0,.4A.69.69,0,0,0,65.46,9.25Z" fill-rule="evenodd"/><path d="M53.44,14.37c.19,0,.38,0,.19.16S53.53,14.41,53.44,14.37Z" fill-rule="evenodd"/><path d="M33.24,21.67c.54-.18.14.17,0,.24C32.81,22,33.46,21.71,33.24,21.67Z" fill-rule="evenodd"/><path d="M34.07,23.6c.12-.16.25.13.08.2C33.65,23.93,34.24,23.68,34.07,23.6Z" fill-rule="evenodd"/><path d="M35.19,23.19c.17-.05.08.08.27,0-.19.13.17.39-.08.41Z" fill-rule="evenodd"/><path d="M34.38,25.51c.29-.06.5.39,0,.61C34.44,25.91,34.52,25.7,34.38,25.51Z" fill-rule="evenodd"/><path d="M53.31,19.14c-.47.06,0-.47,0,0Z" fill-rule="evenodd"/><path d="M34.11,27.62c.63-.13.5.14.45.4C34,28.12,34.42,27.67,34.11,27.62Z" fill-rule="evenodd"/><path d="M51.35,21.48c.18,0,.37-.1.39,0a3.69,3.69,0,0,1-.78.31C50.87,21.64,51.33,21.62,51.35,21.48Z" fill-rule="evenodd"/><path d="M52.14,23.4c.25-.09.11.12.21.15C51.92,23.71,52.22,23.47,52.14,23.4Z" fill-rule="evenodd"/><path d="M34.79,30.72c.19-.07.56.05.11.23C35,30.78,34.87,30.83,34.79,30.72Z" fill-rule="evenodd"/><path d="M57.86,21.17c.38-.18.24.16-.13.29C57.61,21.39,57.92,21.25,57.86,21.17Z" fill-rule="evenodd"/><path d="M35.07,31c.57.07.36.14.62.48C35.2,31.59,35.19,31.27,35.07,31Z" fill-rule="evenodd"/><path d="M33.27,32.55c.28,0-.33.31-.08.39C32.86,33,33.08,32.68,33.27,32.55Z" fill-rule="evenodd"/><path d="M33.11,33.06c.23-.09.16.08.39,0,0,.06-.26.15-.42.22C33.15,33.19,33.18,33.12,33.11,33.06Z" fill-rule="evenodd"/><path d="M36.1,31.81c-.41.32-.07.41,0,.61C35.75,32.44,35.28,32.23,36.1,31.81Z" fill-rule="evenodd"/><path d="M11.74,42.56c.37-.2.25,0,.18.1C12.11,43,11.58,42.66,11.74,42.56Z" fill-rule="evenodd"/><path d="M52.44,25.12c.12-.15.46-.16.39,0C52.42,25.32,52.73,25,52.44,25.12Z" fill-rule="evenodd"/><path d="M40.4,31.06c.5-.21.58,0,.49.17C40.42,31.35,40.83,31,40.4,31.06Z" fill-rule="evenodd"/><path d="M37.69,32.36c.11,0,.21,0,.24-.07.29-.09,0,.18-.26.27s-.16,0-.18-.08C37.62,32.44,37.68,32.39,37.69,32.36Z" fill-rule="evenodd"/><path d="M42,31.1c.11-.17.25.11.1.18s-.11,0-.12,0-.06,0-.13,0S42.21,31.14,42,31.1Z" fill-rule="evenodd"/><path d="M53.21,26.63c.18-.16.18.18.26.23C53.09,26.94,53.36,26.74,53.21,26.63Z" fill-rule="evenodd"/><path d="M48.58,29.14l.06.12C48.23,29.47,48.14,29.31,48.58,29.14Z" fill-rule="evenodd"/><path d="M49.1,29.63c.63-.22,0,.27.17.32A.19.19,0,0,1,49.1,29.63Z" fill-rule="evenodd"/><path d="M31.19,38.57c.08.08-.19.22-.11.3C30.74,39,30.82,38.73,31.19,38.57Z" fill-rule="evenodd"/><path d="M45.66,33.14c.34-.11.39.07.36.17C45.81,33.34,45.81,33.18,45.66,33.14Z" fill-rule="evenodd"/><path d="M45.9,33.59c.37-.14.12.28.42.29A.31.31,0,0,1,45.9,33.59Z" fill-rule="evenodd"/><path d="M31.3,41.38c.27-.07.21.21-.22.36C31,41.65,31.53,41.46,31.3,41.38Z" fill-rule="evenodd"/><path d="M45.43,34.76c.39-.16.38,0,.49.14-.26.16-.3-.12-.48.12S45.52,34.82,45.43,34.76Z" fill-rule="evenodd"/><path d="M46.16,35.1c-.19.17-.22.09-.45.18.07-.1-.09-.16.24-.31,0,.05-.09.1-.06.14S46.16,35,46.16,35.1Z" fill-rule="evenodd"/><path d="M46.25,35c.36-.07-.25.36.17.3C45.88,35.53,46,35.21,46.25,35Z" fill-rule="evenodd"/><path d="M64.38,26.91c.44-.23.23.05.07.13C64.12,27.18,64.55,26.91,64.38,26.91Z" fill-rule="evenodd"/><path d="M56,31.76c.4-.22.34.06,0,.19C56,31.88,56,31.81,56,31.76Z" fill-rule="evenodd"/><path d="M61.23,29.85c.19,0,.38,0,.22.13S61.33,29.88,61.23,29.85Z" fill-rule="evenodd"/><path d="M79.94,21c.15-.06.23-.05.27,0-.19.09-.21.14-.41.24l0-.07C80,21.14,80,21.1,79.94,21Z" fill-rule="evenodd"/><path d="M51.6,36.9c.53.23.37.82.6,1.26C50.84,38.35,52.14,37.13,51.6,36.9Z" fill-rule="evenodd"/><path d="M69.83,27.5c.35-.19.56-.11.07.13Z" fill-rule="evenodd"/><path d="M74.52,25.3c.24-.1.19.1.1.17C74.27,25.6,74.64,25.32,74.52,25.3Z" fill-rule="evenodd"/><path d="M70.21,27.92c.19,0,.28,0,.31.06C70.13,28.21,70.32,27.93,70.21,27.92Z" fill-rule="evenodd"/><path d="M71.68,27.57c.13-.22.52-.06.08.12C71.58,27.7,72,27.43,71.68,27.57Z" fill-rule="evenodd"/><path d="M71.78,27.74c.26-.15.52,0,.12.19C72,27.78,71.8,27.87,71.78,27.74Z" fill-rule="evenodd"/><path d="M51.9,38.36c.45-.25.23.14.65-.08,0,.1-.06.21-.34.37S52.11,38.35,51.9,38.36Z" fill-rule="evenodd"/><path d="M56.92,36.25c.23-.26.28,0,.33.08s-.11,0-.12,0l-.21.11C56.84,36.44,57.15,36.15,56.92,36.25Z" fill-rule="evenodd"/><path d="M56.7,37c.26-.08.54-.19.54,0C57.1,37,56.81,37.09,56.7,37Z" fill-rule="evenodd"/><path d="M67.05,31.68c.17-.05.25,0,.31,0C67,31.91,66.9,31.81,67.05,31.68Z" fill-rule="evenodd"/><path d="M72.89,28.6c.12-.06.1,0,.24-.07-.28.21-.2.19-.24.29C72.58,28.95,72.79,28.69,72.89,28.6Z" fill-rule="evenodd"/><path d="M81.63,24.05c.39-.23.2,0,.31,0C81.64,24.25,81.69,24.11,81.63,24.05Z" fill-rule="evenodd"/><path d="M31.59,52.7a1.21,1.21,0,0,1,.64-.09c-.14.1-.33,0-.33.14C31.72,52.81,31.62,52.79,31.59,52.7Z" fill-rule="evenodd"/><path d="M71.68,30.73c.22-.06.24.18-.06.36A.44.44,0,0,0,71.68,30.73Z" fill-rule="evenodd"/><path d="M29.75,54.53a1.47,1.47,0,0,0,.33-.14c-.24.36-.06.28.16.49C29.71,55.06,29.65,54.77,29.75,54.53Z" fill-rule="evenodd"/><path d="M33.74,52.56c.36-.13.33.15.45.27C33.87,52.9,33.92,52.73,33.74,52.56Z" fill-rule="evenodd"/><path d="M30.07,55.06c.61-.37,0,.3.42,0,.26-.14.09.1,0,.16.37.42-.16.29-.13,0,0,0-.14,0-.23.08S30.21,55.12,30.07,55.06Z" fill-rule="evenodd"/><path d="M76.9,28.9c.23-.11.47-.13.3,0S76.95,29,76.9,28.9Z" fill-rule="evenodd"/><path d="M72.47,31.54c-.38.32,0,.22.26.19a2.48,2.48,0,0,0-.43.21c0-.11-.13-.11-.23-.14A2.41,2.41,0,0,1,72.47,31.54Z" fill-rule="evenodd"/><path d="M73.76,30.88c.25.1,1.15-.18.84.21-.23.13-.11-.08-.19-.09-.3.17-.13.21-.1.29C74,31.34,73.56,31.17,73.76,30.88Z" fill-rule="evenodd"/><path d="M30.5,55.77c.3-.16.27,0,.35.11C30.62,56,30.55,55.88,30.5,55.77Z" fill-rule="evenodd"/><path d="M30.58,56.12c.32-.2.38-.12.42,0C30.78,56.21,30.58,56.29,30.58,56.12Z" fill-rule="evenodd"/><path d="M30.94,56.24c.5-.29-.24.74.55.18a1.43,1.43,0,0,1-.6.39C30.88,56.55,31,56.49,30.94,56.24Z" fill-rule="evenodd"/><path d="M74.65,31.59l.31-.18c-.14.16-.18.28,0,.35-.27.17,0-.19-.37.08C74.6,31.76,74.79,31.62,74.65,31.59Z" fill-rule="evenodd"/><path d="M57.18,41.64c0,.11.18.19-.16.4C57,41.94,56.79,41.86,57.18,41.64Z" fill-rule="evenodd"/><path d="M74.39,32.07a1.56,1.56,0,0,0,.54-.28c-.19.18,0,.14.29,0,.1,0-.51.31-.35.33C74.71,32.1,74.46,32.17,74.39,32.07Z" fill-rule="evenodd"/><path d="M76.62,30.88c.25-.12.45,0,0,.2C76.71,31,76.67,30.93,76.62,30.88Z" fill-rule="evenodd"/><path d="M74.67,32.27c.25-.08.45-.1.33.07S74.71,32.36,74.67,32.27Z" fill-rule="evenodd"/><path d="M74.29,32.55c.38-.18.34-.09.2.08S74.38,32.56,74.29,32.55Z" fill-rule="evenodd"/><path d="M77.06,31.3c.09-.1.37.08.26.17C77.06,31.58,77.17,31.34,77.06,31.3Z" fill-rule="evenodd"/><path d="M32.65,57.32c.23-.13.27,0,.31,0a5.49,5.49,0,0,1-.64.33C32.38,57.58,32.67,57.42,32.65,57.32Z" fill-rule="evenodd"/><path d="M74,33.34c.33-.24.68,0,.5.1S74.11,33.3,74,33.34Z" fill-rule="evenodd"/><path d="M82.51,28.68l0,.07c-.08.08-.52.33-.55.26C82.32,28.86,82.26,28.82,82.51,28.68Z" fill-rule="evenodd"/><path d="M34.77,56.84c.18-.05.48-.25.5-.12C35,56.86,34.77,57,34.77,56.84Z" fill-rule="evenodd"/><path d="M35,57.26c.31-.19.33,0,.44,0C35.16,57.46,35.15,57.31,35,57.26Z" fill-rule="evenodd"/><path d="M75.71,33.37c.23-.08.13-.08.41-.25-.1.11,0,.16-.35.34Z" fill-rule="evenodd"/><path d="M75.23,34.15c-.17.11-.21.1-.24.08s-.18.11-.19.15C74.39,34.51,75.24,34,75.23,34.15Z" fill-rule="evenodd"/><path d="M80.36,31.05c.36,0-.11.3.3.23C80.13,31.62,80.15,31.23,80.36,31.05Z" fill-rule="evenodd"/><path d="M75.12,34.42a1.47,1.47,0,0,1,.61-.17c-.11,0-.42.17-.29.21-.14.1-.31.06-.32.16C74.66,34.79,75.54,34.3,75.12,34.42Z" fill-rule="evenodd"/><path d="M76.35,33.68c.54-.26.19.23.22.33C76.16,34.07,76.71,33.66,76.35,33.68Z" fill-rule="evenodd"/><path d="M35,58.73c.33-.08-.06.34.13.42C34.8,59.22,35,58.86,35,58.73Z" fill-rule="evenodd"/><path d="M80.79,32.11s.17-.13.29-.21c0,.12.43-.05.49-.14.32,0,.06.26.33.27a2.63,2.63,0,0,0-.42.23C81.77,31.82,81,32.18,80.79,32.11Z" fill-rule="evenodd"/><path d="M76.61,34.92c.25-.07.47.07-.09.29C76.88,34.94,76.39,35.14,76.61,34.92Z" fill-rule="evenodd"/><path d="M82.48,31.61c.29-.23.42-.05.08.11Z" fill-rule="evenodd"/><path d="M77,35c.14-.14.21.13.37.1C76.87,35.41,77,35.16,77,35Z" fill-rule="evenodd"/><path d="M76.7,35.26c.28,0,0,.49-.31.79C76.08,36.1,76.7,35.49,76.7,35.26Z" fill-rule="evenodd"/><path d="M81.62,32.26c.6-.34-.27.35.3,0,0,0-.24.18-.39.27A1.31,1.31,0,0,0,81.62,32.26Z" fill-rule="evenodd"/><path d="M78,34.62c.22-.14.11.05.19.05a3.06,3.06,0,0,0-.51.31C77.72,34.89,78,34.71,78,34.62Z" fill-rule="evenodd"/><path d="M78.83,34.31c.27-.13.57-.22.29,0S78.85,34.38,78.83,34.31Z" fill-rule="evenodd"/><path d="M78.28,35c.28-.08.69-.11.4.15-.24.09-.09-.07-.44.21C78.45,35.15,78.36,35.07,78.28,35Z" fill-rule="evenodd"/><path d="M56.71,49.28s.17-.14.29-.22-.1.19-.11.27C56.52,49.54,57,49.09,56.71,49.28Z" fill-rule="evenodd"/><path d="M78.54,35.75c.51-.38.77.12,0,.47,0,0,.17-.14.29-.22C78.6,36,78.91,35.65,78.54,35.75Z" fill-rule="evenodd"/><path d="M56,50.51c.15,0,.46-.17.3,0l-.3.19C55.88,50.67,55.9,50.6,56,50.51Z" fill-rule="evenodd"/><path d="M57.7,49.85c.11-.1.35.07.42.17C57.84,50.12,57.78,50,57.7,49.85Z" fill-rule="evenodd"/><path d="M36.7,63.75c.06.1-.19.28-.17.39C36.32,64.22,36.44,63.91,36.7,63.75Z" fill-rule="evenodd"/><path d="M56.66,51.28c.28-.12.6-.29.64-.13C57.05,51.22,56.77,51.35,56.66,51.28Z" fill-rule="evenodd"/><path d="M80.24,36.46c.23-.14.12.08.22.09C80.19,36.69,80.18,36.6,80.24,36.46Z" fill-rule="evenodd"/><path d="M57.64,51.21c.21-.13.17,0,.38-.09,0,0,0,.05-.08.09s-.09.07-.08.09C57.65,51.41,57.5,51.36,57.64,51.21Z" fill-rule="evenodd"/><path d="M37.32,65.25l.3-.2c-.07.16.51.61.06.29C37.54,65.33,37.34,65.4,37.32,65.25Z" fill-rule="evenodd"/><path d="M33.8,67.75c.31-.14.33,0,.28.19C33.84,68.07,33.91,67.79,33.8,67.75Z" fill-rule="evenodd"/><path d="M58.86,52.09c.39-.25.39.15.34.26S59.16,52,58.86,52.09Z" fill-rule="evenodd"/><path d="M34.25,68.6c.14,0,.53-.13.24.13C34.23,68.8,34,68.85,34.25,68.6Z" fill-rule="evenodd"/><path d="M34,69.12l.3-.2c-.08.13,0,.2-.3.4C34,69.27,34.11,69.17,34,69.12Z" fill-rule="evenodd"/><path d="M81.84,37.8c.23-.12.4-.18.4-.07C82,37.88,82,37.8,81.84,37.8Z" fill-rule="evenodd"/><path d="M38.75,66.82c.14-.28.23,0,.47-.17,0,.07-.12.19-.35.33S39.07,66.65,38.75,66.82Z" fill-rule="evenodd"/><path d="M35.15,69.39c.42-.27,0,.14.34.06l-.3.2C35,69.6,35.29,69.44,35.15,69.39Z" fill-rule="evenodd"/><path d="M36.36,68.81c.14-.23.11.27.52-.11C36.79,69,36.33,69,36.36,68.81Z" fill-rule="evenodd"/><path d="M35,70.24c.1-.06.11,0,.15,0s.11,0,.1-.07c.14-.08.14,0,.19.06C35.13,70.49,35.1,70.34,35,70.24Z" fill-rule="evenodd"/><path d="M37.05,69.54l.4-.27c-.11.13,0,.2.07.29C37.19,69.77,37.2,69.56,37.05,69.54Z" fill-rule="evenodd"/><path d="M35.48,71.83a5.05,5.05,0,0,1,.63,0C35.76,72.06,35.57,72,35.48,71.83Z" fill-rule="evenodd"/><path d="M83.19,38.94c.38-.22.09.22.22.28-.26.19,0-.19-.36.12C83.36,39,83.16,39.12,83.19,38.94Z" fill-rule="evenodd"/><path d="M38,74.94l.39-.28c-.27.18-.27.49,0,.16s-.14.22,0,.23C38.2,75.12,38.09,75.06,38,74.94Z" fill-rule="evenodd"/><path d="M39.37,76.63c.22-.12.31,0,.37.07C39.54,76.71,39.3,76.83,39.37,76.63Z" fill-rule="evenodd"/><path d="M89.56,39.74c.2-.14.1.07.28,0a.72.72,0,0,0,.14-.2c.32-.18,0,.15-.32.37C89.68,39.73,89.41,39.91,89.56,39.74Z" fill-rule="evenodd"/><path d="M42,75.53c.1,0,.2-.09.19-.14.25-.08-.16.21.15.18C42.13,75.75,42.1,75.61,42,75.53Z" fill-rule="evenodd"/><path d="M41.05,76.42c.22-.1.33.17.25.31S41,76.55,41.05,76.42Z" fill-rule="evenodd"/><path d="M42.4,75.6c.18,0,.16.2.27.34-.25.1-.21-.23-.44-.16C42.35,75.7,42.4,75.64,42.4,75.6Z" fill-rule="evenodd"/><path d="M39.9,79.95c.32-.13,0,.31.33.21C39.69,80.57,40,80,39.9,79.95Z" fill-rule="evenodd"/><path d="M40.86,79.22c.28-.27.15,0,.43-.23.09,0-.25.25-.21.31C40.74,79.52,41,79.28,40.86,79.22Z" fill-rule="evenodd"/><path d="M39.41,80.48c-.1.14.07.19,0,.33C39.08,80.93,39,80.79,39.41,80.48Z" fill-rule="evenodd"/><path d="M41.32,79.77c.32-.1.68.12.49.38s-.32.12-.41.07c.36-.07.15-.55-.25-.11C41,80.05,41.49,79.8,41.32,79.77Z" fill-rule="evenodd"/><path d="M42.83,80.42l.28-.22c.2,0-.31.33-.15.37C42.74,80.74,42.79,80.48,42.83,80.42Z" fill-rule="evenodd"/><path d="M42.36,81.71c.53-.37.2.13.52,0C42.55,82,42.59,81.65,42.36,81.71Z" fill-rule="evenodd"/><path d="M40.37,83.44l.28-.22c-.19.19.27.14-.12.41Z" fill-rule="evenodd"/><path d="M92.47,44.13c.25-.19.28-.07.44,0-.17.12-.16.16-.15.19C92.56,44.36,92.73,44,92.47,44.13Z" fill-rule="evenodd"/><path d="M40.07,86.94c.22-.11.22.15.4.1C40.13,87.28,40.07,87.08,40.07,86.94Z" fill-rule="evenodd"/><path d="M94.36,46.13c.19-.14.29-.16.37-.14C94.39,46.33,94.42,46.18,94.36,46.13Z" fill-rule="evenodd"/><path d="M96.92,47.22c.09-.06.19-.07.2-.14.33-.14.36.07.3.3A2.76,2.76,0,0,1,96.92,47.22Z" fill-rule="evenodd"/><path d="M95.79,48.29c.28-.17.42-.17.69-.32C95.95,48.4,95.92,48.34,95.79,48.29Z" fill-rule="evenodd"/><path d="M96.72,48c.1-.1,0-.1,0-.13.28-.21.31-.07.58-.27,0,.08-.19.19-.2.14l-.52.5a.91.91,0,0,0-.44.07,1.85,1.85,0,0,1,.41-.43C96.94,47.69,96.46,48.19,96.72,48Z" fill-rule="evenodd"/><path d="M97.62,47.41c.37-.28.2,0,.31,0s.49-.47.08.07C97.72,47.56,97.83,47.39,97.62,47.41Z" fill-rule="evenodd"/><path d="M45.77,94c.61-.5,0,.23.41.07C45.85,94.38,45.92,94,45.77,94Z" fill-rule="evenodd"/><path d="M98.22,48c.1-.12.29,0,.39,0C98.39,48.12,98.29,48.06,98.22,48Z" fill-rule="evenodd"/><path d="M98,48.9c-.13.19,0,.06.1.09C97.73,49.33,97.6,49.2,98,48.9Z" fill-rule="evenodd"/><path d="M96.66,50.46c.19-.11,0,.06.2,0C96.56,50.8,96.6,50.54,96.66,50.46Z" fill-rule="evenodd"/><path d="M46.34,97.62c-.07.26.17.09.32.16C46.4,98,45.84,98.1,46.34,97.62Z" fill-rule="evenodd"/><path d="M87.73,59.48l.27-.24c.26-.14.13.12.19.19C88,59.42,87.81,59.57,87.73,59.48Z" fill-rule="evenodd"/><path d="M91.71,57.33c.16-.14.23-.15.26-.08s-.15.15-.15.18C91.6,57.62,91.67,57.39,91.71,57.33Z" fill-rule="evenodd"/><path d="M92.21,57c.17-.09,0,.1.23.06-.3.31-.33.19-.39.13C92.16,57.08,92.2,57,92.21,57Z" fill-rule="evenodd"/><path d="M95,54.84c.24-.1.25-.06.53-.16-.07.08-.14.16-.13.2-.2.21,0-.13-.32.19C95.11,54.91,95,55,95,54.84Z" fill-rule="evenodd"/><path d="M86.35,64.45c.47-.46.14.15.49,0,.4-.37.13-.32,0-.31.69-.61-.09.52.66-.21,0,.1,0,.21.09.25-.29.32-.21,0-.31,0-.25.4-.37.22-.67.69C86.67,64.59,86.59,64.49,86.35,64.45Z" fill-rule="evenodd"/><path d="M49.46,100.83c.48-.5.1.21.53-.16-.09.21-.57.37-.66.7C48.91,101.57,49.56,100.92,49.46,100.83Z" fill-rule="evenodd"/><path d="M51.63,100.4c.33,0,.32-.49.69-.33l-.43.42C51.76,100.41,51.59,100.65,51.63,100.4Z" fill-rule="evenodd"/><path d="M51.1,101.22c.34,0,.92-.48,1.19-.36.15-.13.12-.17.23-.28-.18,0-.32,0-.5,0,.23-.26.88-.71.73-1,.6-.31-.38.82-.06.93a2.86,2.86,0,0,0-.65.87,4.8,4.8,0,0,1-.81.39c-.14-.08,0-.28.16-.51C51.11,101.47,51.23,101.34,51.1,101.22Z" fill-rule="evenodd"/><path d="M54.1,98.94c.27.14-.52.54-.3.7-.13,0-.3.14-.4.11C53.82,99.39,53.73,99.28,54.1,98.94Z" fill-rule="evenodd"/><path d="M92.44,62.39c.29-.17.23-.2.51-.51,0,0,.15-.06.17,0C92.92,62,92.44,62.59,92.44,62.39Z" fill-rule="evenodd"/><path d="M97.47,57.72c.21-.14.37-.14-.07.26C97.28,58,97.6,57.72,97.47,57.72Z" fill-rule="evenodd"/><path d="M99.86,56.49c.29-.31.38,0,.29.09.1,0,.36-.28.57-.46a9.46,9.46,0,0,1-.65.86c-.18.11-.29-.15,0-.33C100,56.61,99.82,56.64,99.86,56.49Z" fill-rule="evenodd"/><path d="M91.11,66c.26-.19.2.1.1.24S91.18,66,91.11,66Z" fill-rule="evenodd"/><path d="M89.61,68.81a4.16,4.16,0,0,1,.54-.17C89.71,69.1,89.63,69,89.61,68.81Z" fill-rule="evenodd"/><path d="M78.18,80.95l.25-.26c0,.08.23,0,0,.2S78.26,81,78.18,80.95Z" fill-rule="evenodd"/><path d="M77.67,81.78c.23-.22.35-.23.46-.23-.25.25-.19.38-.47.54C77.54,82.05,77.86,81.77,77.67,81.78Z" fill-rule="evenodd"/><path d="M55.19,106.22c.2.08.42-.08.32.28-.11.11-.2,0-.1-.08a.71.71,0,0,0-.43.27Q54.88,106.56,55.19,106.22Z" fill-rule="evenodd"/><path d="M54.84,106.71c-.19.59.4.58-.08,1.37C54.82,107.79,54.34,107.39,54.84,106.71Z" fill-rule="evenodd"/><path d="M85.65,75c.12,0,.34,0,0,.32C85.6,75.29,85.71,75.12,85.65,75Z" fill-rule="evenodd"/><path d="M57.26,106c.27-.25.52-.46.65-.39a3.62,3.62,0,0,1-.6.59A.15.15,0,0,0,57.26,106Z" fill-rule="evenodd"/><path d="M82.84,78.79c.64-.23.51.65-.08,1.51C82.65,80,83.18,79,82.84,78.79Z" fill-rule="evenodd"/><path d="M80.74,83c.35-.33.09.1.29.09.18-.19.24-.3.17-.33.31-.2,0,.33-.14.51s-.23.11-.46.4C80.5,83.52,80.69,83.21,80.74,83Z" fill-rule="evenodd"/><path d="M63.67,102.93c.37-.12.21.42.22.65C63.54,103.69,63.91,103,63.67,102.93Z" fill-rule="evenodd"/><path d="M69.46,104.56l.37-.32a1.19,1.19,0,0,1-.42.74C69.32,104.91,69.46,104.69,69.46,104.56Z" fill-rule="evenodd"/><path d="M39.62,14.65l-.06-.16c.16,0,.33-.1.33-.14s.38-.07.39,0c-.53.14-.88.57-1.13.4A2.13,2.13,0,0,0,39.62,14.65Z" fill-rule="evenodd"/><path d="M31.63,23.7c.33,0,.33.41,0,.62Z" fill-rule="evenodd"/><path d="M34.29,24.7c0-.09.24-.2.14-.28.32-.08.8-.23.63-.35a3.19,3.19,0,0,0,.58.12c-.47.14-.83.45-.93.28-.34.16-.11.14,0,.21C34.55,24.84,34.56,24.56,34.29,24.7Z" fill-rule="evenodd"/><path d="M30.1,28.3c.66-.28.95,0,.47.17C30.64,28.11,30.43,28.37,30.1,28.3Z" fill-rule="evenodd"/><path d="M34.54,27.1c-.34.13-.35-.11-.22-.22s.2,0,.36-.07C34.43,26.92,34.31,27,34.54,27.1Z" fill-rule="evenodd"/><path d="M31.25,33.33c-.07.38-.06.86.21,1-.76.47.54.59-.63,1.17,0,.15.66-.23.65,0a5.64,5.64,0,0,0-.4.54c.41-.07.34.21,0,.43,0,0-.21.05-.25,0,.29-.28,0-.57-.31-.6.11.25,0,.67.39.76,0,0-.07-.09.06-.15,0,.11.3,0,.32.1-.23.13-.39.06-.31.18s.33-.07.4,0c-.21.36-.22.78.18.86-.75.72.75.82-.68,1.55.39.16.57.41.2.9,0,.06.37-.15.38-.05-.52.58.64.54.52,1-.44.19-.07-.38-.55,0,.66.28,0,1.08.23,1.44-.26.11-.18-.09-.51.08.08.09,0,.41.26.46a2.14,2.14,0,0,1-.41.24c.39.12,0,.56,0,.94.27-.08.36-.29.43-.21l.11.2c-.17,0-.43.16-.41.25.34.19.25.69.82.73-.45.1-.05.14-.05.15l-.21.11c-.22.76,1.37,1.26.88,1.81.22-.18.76-.21.47.1s-.25,0-.46.16A23.51,23.51,0,0,1,34,50s0-.07.07-.12c.12.51-.07.85.38,1.09,0,.42.51,1,.57,1.16,0-.06.11-.31.25-.27a1.05,1.05,0,0,0,.07,1.49c-.47.32-.26.67.25.38,0-.14-.14-.14-.33-.07.12-.12-.1-.17.33-.37.1.17.54.61,0,.59.7.28,0,.87.6,1.15-1,.67.26.78-.31,1.07.33,0,.4.18.07.54-.45-.12-.38-.43-.73-.46.1.09.14.19-.06.35.43-.06.47.12.27.42.46-.28.15.09.1.16.36-.16,0-.15.37-.31.31.11.32.45.13.86-.05-.05-.14-.07-.29,0,.27.09-.15.62.48.29,0-.1-.26-.13,0-.29.33.13.31.37.15.67,0-.05-.14-.24-.19-.07s.26.11.39.16c-.53.78-.12.85-.12,1.34.4-.18.43.07.57.19a1.44,1.44,0,0,0-.28.22c-.26.18-.17-.07-.47.16.06.15.43.33.12.79.26-.05.77.18.15.64-.25-.16-.5-.29-.38-.54-.37.18-.26-.78-.83-.35.13-.12.29-.25.22-.32s-.41,0-.77.15c.74-.43-.47,0,.16-.42,0-.16-.31.09-.39.06s.27-.34.26-.48c-1.27-.27-.89-1.66-1.61-2.25,0,.22.18.41-.11.7-.07,0,.18-.34-.13-.2-.06.11.07.18-.08.32-.29-.07.18-.52,0-.48.07.22-.39.22-.41.24s.21.1-.14.45c.2-.11.2-.17.39-.28,0,.08-.24.23-.22.32,1.35-.17.84,1.12,1.73,1.33-.51.35-.16.3.09.13a1.46,1.46,0,0,1-.47.6c.77-.28.28.58.89.46-.48.58.54.59.6.86,0,0,.06-.09.18-.16.12.09.28.08.08.32-.3.08.11-.15,0-.22-.56.69.26.7.24,1.18a1.22,1.22,0,0,1,.44,0c-.24.24,0,.36.07.51.31-.16.55-.24.56,0,.58-.61.19-.79-.07-.93.46-.13.41-.35.75-.39-.5.45.26.7.21.92,0-.09-.06-.16.21-.32.07.09.46.1.24.35,0-.2-.44.11-.16-.22a1.8,1.8,0,0,0-.53.71c.33-.18,0-.19.46-.39,0,0,.11,0,.15,0-.25.22.13.42-.33.58.33.12.48.52,0,1,.51.23,1,.35,1.07.88-.14.1-.38.23-.37.3.24-.12.33-.06.52-.11-.34.24.07.08-.13.23-.06,0-.25.11-.35.14.09.05.07.13,0,.22.33-.18,0-.19.45-.4,0,.09.23,0,.32,0-.28.37.51.12.3.6a2.12,2.12,0,0,0-.42.24c.12.09.53-.19.66-.12-.15.09-.21.06-.34.14.84-.33.31.58.37.69,0,0,.11-.19.17-.17.19.63.73.91,1.05,1.39-.11.08-.19.06-.2.14.24.16,2.15.45.82,1.08,0,0,0,.06-.05.13s-.05-.1-.17,0,.35.17.5.26a3.35,3.35,0,0,0-.32.37c.86-.26-.08.65.39.68-.25.19-.17-.06-.46.19,1-.26.79.76,1.42,1-.25.2,0-.24-.39.09.52.12.67,1,1.25,1.16-.37.13,0,.21-.29.41-.86.21-.51-.51-1.32-.48-.13.12-.53.33-.46.39,1-.56.74.21,1.27.23-.14.13,0,.16-.33.35.75-.18,1,.39,1,1,.49-.23.18.35.56.31-.2,0-.59.37-.7.29.22-.23.49-.22.36-.32-.73.49-.58-.26-.9-.16,0,.1-.2.08-.38.29.37-.07.18.27.58.15-.24.29-.31.76.15.18-.47.53.17.44-.2.9-.19-.39-.73-.18-1-.42-.21.4,0,.34.11.52a1.45,1.45,0,0,1-.31.19c.31.49.66.7.33,1.51.12-.08.26-.21.31-.19-.22.5.25.73.46.9,0,0,0-.09.14-.21.12.13.34.22,0,.52.1,0,.44-.3.48-.18a9.56,9.56,0,0,0-.54.84c.29-.39.91,0,.14.35.1.24.47.12.09.65a2.28,2.28,0,0,1,.63-.19c.88-.74,1-.76,1.71-1.32-.34,0-.55,0,0-.55-.28.17-.47-.08-.28-.33-.77.27-.21-.65-.6-.88.47-.34,0-.19.34-.52a1.94,1.94,0,0,0,.45.15,1.23,1.23,0,0,0-.51.5c.31-.18.37,0,.21.24.43-.28.06-.26.25-.45a3.33,3.33,0,0,0,.69.06c-.48.47-.25.67.08.64a.8.8,0,0,1-.47.37c.65-.05.81.39.6.88.75-.47.06.49.36.42a.69.69,0,0,1,.2-.32c0,.15.24,0,.25.1-.37.29-.24.38-.31.56.2-.11.23-.34.37-.3.12.33.12.49.56.46-.28.28-.57.47-.4.64a1.81,1.81,0,0,1,.4-.28c.06-.17-.38.1-.13-.15.33,0-.16.64.58.29,0,.11,0,.17-.29.39,0-.09.34-.32.17-.34-.4.39-.54.25-.65.18.14.22-.76,1.16,0,.68a12.27,12.27,0,0,1-.19,1.55c-.14.1-.2.08-.33.17,0,.31.7-.15.15.34-.14-.13-.22-.37-.54-.23,0,.06,0,.15-.07.27.1-.31-.38.27-.43-.11-.33.32-.36.15-.64.37-.08.19.06.3-.15.54-.48,0-.55-.2-.28-.66.09,0,0,.24.23.07-.2-.12.42-.17.22-.29a1.52,1.52,0,0,1-.83.16c.43-.25-.37.07.11-.41-.14,0-.36.19-.48.19.38-.72-.09-1.12-.17-1.47-.07.13,0,.2-.27.42,0,0-.11,0-.15,0,.34-.43-.31-.26.18-.71-.14-.15-.22-.07-.12-.32-.23.14-.42.37-.5.15.2-.14.25-.06.45-.21-.17-.27-.89-.42-.52-1-1.79.75-.3-1.47-1.63-1,.13-.1,0-.12.14-.21q0,.18.36-.13c-.16-.13-.12-.16-.12-.51-.48.45-.21.63-.54,1-.23.07-.26-.17-.38-.26-.24.25,0,.54.06.62s.32-.22.34-.16-.2.29-.18.34c.09.28.82.2.34.76,0-.15-.22-.09-.44,0,.65.35.65.88,1.22,1.41a1.66,1.66,0,0,1-.21.12c.38,0,.22.53.84.42-.14.1-.2.08-.33.17a1.75,1.75,0,0,0,.66,0c-.28.12-.22.35-.45.58q.3-.26.36-.14c-.07.18-.26.15-.25.26a1.54,1.54,0,0,0,.77.15c-.17.14-.45.1-.52.32.65-.21.44.85.52,1.1,0-.18.38-.15.2,0,.27-.15.18-.36.34-.34-.32.34.12.32,0,.5s-.15-.05-.36.14a1.61,1.61,0,0,0-.07.81c-.66.05-.45-1.11-1.5-.93-.19.21.2.07.26.1-.59.53,0,.15-.11.41-.82.54-.25-.37-.6-.3,0,0,0,.09-.13.21,0,0-.11,0-.15,0-.12-.24-.07-.86-.58-.48-.09-.19.44-.82.11-.78a1.65,1.65,0,0,1-.51,1.06c-.13.1-.25-.18-.29,0a.75.75,0,0,1,.74.3c.13-.14-.16-.13.17-.35.05.12.32.15,0,.4-.23,0-.44.45-.22.29,0-.15.36-.26.42-.24-.13.12,0,.14,0,.2a1.7,1.7,0,0,0-.34.34c.08.1.25.05.38.06-.15.82,1.34.53,1.39,1.15,0,0,0,0-.12,0,.46-.28.32.18.59-.07-.06.11-.05.4.1.29s-.14-.14,0-.31a.41.41,0,0,1,.24-.1c-.17.29,0,.2.17.18l-.19.32a2.21,2.21,0,0,1,.6.3,1.4,1.4,0,0,1-.3.2c.17,0,.24.07.1.29a1.76,1.76,0,0,0-.65.18c.27,0,.37.3.82,0,0-.1-.38.1-.14-.15a1.4,1.4,0,0,0,.59-.07c-.17.14-.18.21-.1.25a1.31,1.31,0,0,0-.55.64c.35-.27.29-.37.58-.61.05.21.17-.09.27-.07s-.17.46-.08.62c-.32.21-.46.12-.74.26.1.22.52-.12.67,0-.23.19-.34.19-.33.35.74-.3.91.25,1.21.42.18-.23-.25.05,0-.2s.17,0,.27-.07c-.2.21-.08.28-.45.57.48-.12.39.3.73.4-.11.15-.6.67-.21.47,0,0,0-.09.12-.22a.94.94,0,0,1,.49.33c-.61.58-.32.78-.51,1.19.19-.05.18-.23.3-.21-.14.7.09.84.26,1.45-.33-.06.06.29-.29.38.32,0,.69.07.62.28-.11,0,.37-.43.35-.33s-.32.31-.06.28c-.33.28-.49.47-.44.58s.34-.31.41-.27c-.05.22,0,.19,0,.34a.7.7,0,0,0-.35.16c.16,0-.13.22-.23.27a.91.91,0,0,1-.11.56,5.43,5.43,0,0,1,1-.9c0-.14.32-.46.5-.69a2.23,2.23,0,0,1,.43,2.28,1.92,1.92,0,0,0-.75.77c1.82-1.39.51,1,1.59.68a10.86,10.86,0,0,0,1-1c.16.3.67-.09,1.08-.3.33,0,.33.17.62.26-.1.11-.19.21-.11.22s.08-.23.4-.45c.26.14,1.13-.62,1.13-.25a4.28,4.28,0,0,1,1-.9c-.11.11,0,.18.09.08s.12-.12.14,0c-.2.08-.5.78-.08.42a1.15,1.15,0,0,1,.56-1c-.15-.05-.08-.22.08-.42a3.76,3.76,0,0,1,.46-.23,5.49,5.49,0,0,0,.31-.53c.4-.14,1-.06.53.66.23,0,1.1-.62.61.07a1.1,1.1,0,0,0-.6.26c.11.11.8-.28.44.24-.8.33-1.51.28-1.65-.23-.26.67.53.68,1.17.6-.07.31.3.48.73.35,0,.12-.2.36-.19.48.25.19,1.56-.16.55.82,0,.23.3-.28.34-.18a.82.82,0,0,1-.33.51c-1,.51-1.88.55-2.88,1a2.21,2.21,0,0,1-.55,1c.65.65,2.93-1.2,3.56-.53.68-.9,1.31-1,1.86-1.87,0,.05.11.06.2,0a7.13,7.13,0,0,1,1.64-1.59c.14-.14,0-.12.08-.25.1.09.41-.27.62-.42s-.1-.11,0-.28c1.72-2,2.47-3.14,4.2-5.4.18-.61.85-1.49,1.05-2.1.41-.28.58-.85,1-1.16-.09,0-.09-.11.06-.27,0,.08.13.07.28-.07-.21,0,.34-.44.37-.48.57-.73.88-1.47,1.59-2.28.59,0-.21,1.3.48,1.06-.14.32,0,.51-.48,1-.1-.06-.22-.08-.5.2a1.61,1.61,0,0,0,0,1.27c-.7.8-.11.89-.13,1.31-.17.17-.18,0-.39.3a1.22,1.22,0,0,1,.66,1.2c-.85,1.12,0,1.46-1,2.51a.88.88,0,0,1-.15.82,9.71,9.71,0,0,0-1.34,1.22c-.37.54-.09.72-.3,1.17.31-.32.75-.45.62-.11-.18.16-.28.13-.44.26-.37.62-.8,1-1.2,1.65.13.05.39.06,0,.49-.1,0,.11-.36-.15-.12.09.09-.21.4-.14.5.54-.59.14.07.18.15.27-.13.38-.45.71-.66.43.24-.84,2.18.19,1.55.07-.16-.05-.2-.13-.26a13.39,13.39,0,0,0,1-2.46,2.19,2.19,0,0,0,.35-.33c-.15,0-.38.11-.51,0,.12-.21.23-.41,0-.44.49-.31.26-.46.56-.78.22-.05.24-.1.54-.48.06,0,.26-.21.28-.08a2.21,2.21,0,0,0,.44,1.28c.41-.7.22-1,.34-1.57a5,5,0,0,0,1.22-1.79c0-.19-.28.27-.28.08a18.87,18.87,0,0,1,2.14-2.89c.3.35,1.25-.69,1.52-.31.37-.39.54-.38.87-.69a1.8,1.8,0,0,0,.24-.42,1.48,1.48,0,0,1,.54-.33c1.15-1.1.54-1.12,1.33-2,.45,0,.68.39,1.26.09,0-.16.46-.79.75-.94.1-.4.73-1.13.8-1.51-.67.23-1.58,1.25-2.27,1.4,1.11-1.55.16-2,.18-2.52,0,.07-.05.16-.19.31-.2,0-.11-.24-.1-.4-.31.37-.27,0-.49.21a.76.76,0,0,1-.25.42c-.37-.41-1.1-.07-1.64-.31-.1.1-.23.25-.28.24-.49-.58-1.28-.48-2-.76-.1.1-.23.25-.28.23a.57.57,0,0,0-.15-.45s0,.1-.14.19c-.28-.49-1.26-.54-.1-1.87-.06.13,0,.15.16,0a1.51,1.51,0,0,1,.63-.88c-.23,0,.18-.6.52-.82a2.33,2.33,0,0,1,.31-.36c0-.15,0-.12-.19,0a1.63,1.63,0,0,0,.23-.28s.08.09.25-.1c-.25-.09.35-.41.49-.69-.14,0-.59.47-.63.24.25-.13.32-.34.6-.59,0,0-.11.3.1.09-.06-.07.28-.35.35-.49s-.1-.05-.19,0c.4-.22-.14-.11.35-.49-.06.38.23.36.56.36-.51.63,0,.7-.5,1.33a.66.66,0,0,0-.25.1c0,.12-.23.36-.32.52.39.14-.94,1.56-.73,1.93.46-.46.61-.36.6-.11.42-.43.4-.25.44-.1.73-.85,1.1-.7,1.64-1.43-.07.14,0,.2.19,0s-.15-.09.15-.35c.13-.12.14,0,.19,0,.86-.91.52-1.12,1-1.81.88-.14-.15,1.27.42,1.31l-.33.34c0,.58,1.39-.86,1.48-.47a3.54,3.54,0,0,1,1.61-.67c.08-.13.41-.12.67-.37.42.36,1.56-1.64,2.13-2.12a7.28,7.28,0,0,1,.77-1.24c.1.07.22-.1.27-.24l.1.08c.51-.55.62-.5.8-.89-.48.05-.34-.51.27-1.35,0,0,.23-.21.24-.11.4-.38.07-.31.38-.62,0,.26-.56.94-.57,1.24.21-.26.25-.2.44-.41,0-.06-.15.05-.18,0,.21-.13.21-.31.45-.56-.12-.08,0-.22.06-.42-.15.14-.42.17-.25-.06.12.16.19-.27.4-.29-.07-.31.1-.6-.05-.67a1.91,1.91,0,0,0,.81-.57c-.12,0,.13-.22.18-.32-.13-.43.59-1.4.4-1.86.55-.39.49.07.87.11a5.6,5.6,0,0,0,.93-.78c-.32-.14,0-1.09-.75-.79.36-.66-.78-.17-.85-.6,0-.17-.3-.36-.91.14-.27-.34-.88-.38-1.31-.71.2-.24.44-.3.32-.36-.56.33-.55-.18-.93,0a8.22,8.22,0,0,0,.85,1.26c-.12.12-.11.18-.21.29-.06-.4-1.66.55-1-.06-.13.09.11-.33,0-.36-.82.7-.23-.22-.47-.27-.22.23-.16,0-.41.27s-.15.31-.43.58c-.74.45-.48-.08-.77-.21.11-.13.12-.17.26-.25-.12,0-.47,0,0-.36.28-.06,0,.07,0,.19a1.26,1.26,0,0,0,.54-.64c.24-.1.68-.53.85-.52,0,0,0-.12.08-.25s.28-.1.52-.33c-.19,0-.23-.14-.12-.43-.46.44-.44.16-.44.08.27-.21.38-.19.33,0,.35-.41.21,0,.5-.35,0-.2-1.29.6-.62-.25.06.32.59-.11.88-.17,1.23-1,.61-1,.88-1.46-.3-.07-.07-.81-.51-.67,0,.16.26.16-.2.64s.09-.33-.33,0c0,.2.22,0-.09.41,0,0-.17.12-.22.12a1.29,1.29,0,0,1,.44-.74c-.27.26.16-.27-.15,0a3,3,0,0,1-.4.45c.13.08.07.27-.24.6-.62.27-.25-.32-.94.09.18-.2.2-.49,0-.36,0,0,0,.13-.22.29.06-.66-.17-.79-.34-1.17.34-.16.25,0,.48,0a1.6,1.6,0,0,1,.31-.53,2,2,0,0,0,.75-.44c.19.05.58-.17.5.15.34-.4,0-.31-.13-.29a2.12,2.12,0,0,0,.16-.18,7.85,7.85,0,0,0,1.61-1.44c.89,0,.19,1.32,1.13,1.27.06.24-.25.84.13.93-.22.19-.15.22-.41.43.4,0,.32.39.16.79.61-.55,0,.35.35.16a.93.93,0,0,1-.26.25c.71-.37-.27.79.23.69,0-.15.55-.38.34-.5-.23.16-.27.37-.34.34.53-.5.24-.57.62-1.06-.6.36-.26-.21-.42-.38.15-.18.64-.72.32-.51.13,0-.32.28-.45.4-.13-.11,0-.47,0-.65.44-.35.3-.22.3,0a4.87,4.87,0,0,1,.52-.5c0-.2-.26.06-.41.11.61-.52,0-.44.19-.79-.18.18-.29.25-.33.19.13-.11.17-.12.26-.25-.42-.37-1.07-.46-1.22-1-.41.15-1,0-.11-.77,0-.86-.79-.94-1-1.64-.6.24-.71,0-.68-.33,0,0-.25.14-.17,0,.3-.53.75-.46.85-.33-.14-.07.59-.52.83-.69.46,0,.63.22,1.07.2,0,.08-.2.3-.14.36.44-.23,0,.33.2.36s.54-.29.61-.24-.23.45-.17.5.25-.05.3,0-.19.15-.2.14.34-.14.41-.1-.24.25-.25.26c-.07.21.48-.13.6-.08-.2.29-.47.3-.42.43.31-.27.34-.14.56-.29-.43.51.27.19-.23.61.3,0,.76,0,.86.17,0,0,.12-.15.24-.27.14.16.2.2.46.11a2.32,2.32,0,0,1-.2.15c.28.18.55.3.59.54a4.86,4.86,0,0,1,.41-.27c-.17.26-.06.18.19,0-.12.19-.48.51-.26.41.17-.3.37-.2.47-.22-.17.17-.05.16-.3.37s-.16,0-.32.19c.16.1.42-.15.84-.53.09-.18,0-.25.07-.42-.53.44-.46-.05-.32-.28,0,0,.17-.13.21-.13s-.25.23-.24.27c.66-.4.49,0,.59.21.29-.37.3-.22.65-.54a2.86,2.86,0,0,1-.48-.43c-.1.22-.32.19-.43.26.09-.16.22-.5.07-.42,0,0-.11.15-.24.27.3-.44,0-.41,0-.64.08.17.23-.09.42-.09,0-.2.09-.35-.29-.11l.26-.25c-.48.09-.19-.73-.72-.7.1-.1.25-.23.24-.26-.54.1-.25-.75-.71-.52.32-.31.55-.33.41-.11.6-.57,0-.25-.09-.25l.18-.16c-.17,0-.61.34-.73.29s.27-.51,0-.51c-.38.42-.17-.12-.47,0,.17.25-.66.14-.06-.39,0,.09.27-.1.39-.12-.15-.07,0-.14.37-.48-.19,0,.05-.23,0-.31-.28.26-.17.31-.33.51,0,0-.09,0-.15,0,.06-.14.48-.57.06-.28a2.49,2.49,0,0,0,.34-.34c.53.12.79.11.74.71.45-.07.07.63.73.37-.16.15,0,.12-.21.3.5,0-.15,1.11.71.69,0-.07-.21-.06,0-.3,0,.08.62.07-.07.6.1,0,.22,0,.25.07.4-.32-.09-.11.16-.34.13,0,.5.08.09.59.38.33.8.46.55,1.15.46-.42-.16.23-.09.24s.4-.42.45-.4.09,0,.13,0-.14.27-.14.36c.27-.21.29,0,.38,0-.63.64-.07.38,0,.47.25.39.4,1.08.71,1.28,0-.43-.25-.29,0-.83-.59.12-.39-.66-.73-.82a5.3,5.3,0,0,0,.39-.45c.15-.1.21-.06.36-.16.11-.25-.64.07-.26-.55-.3.26-.2.05-.21,0-.66.51-.93.2-.93,0,.17-.15.2.16.3-.06-.06-.06-.13-.1.14-.36.09,0,0,.21.21,0s-.23-.15.36-.64c0-.14-.3.34-.41.28.06-.07.08-.11,0-.12A2.44,2.44,0,0,1,97.6,53c.14-.3-.22,0-.36.16.17-.28.38-.27.52-.49s0-.34,0-.37-.07.12-.14.2c0-.08-.34.16-.1-.09,0,0,0,.07.15,0,.13-.33-.26-.3.09-.75-.16.06-.23.28-.37.31s.21-.38.18-.5c-.14.11-.43.44-.46.39s-.33,0,.09-.41c.08,0,.23.07.27-.07-.28.05-.16-.2-.59.1,0-.17.49-.43.47-.54s-.34.31-.39.29c.13-.17.3-.71,0-.29,0-.15,0-.16-.13-.29-.13.12-.32.31-.37.31,0-.61-.69-.51-.72-1-.16.13-.2.23-.27.24,0-.23.07-.43-.36-.18a2.11,2.11,0,0,1,.29-.22c-.24.07-.15-.21-.08-.4.41-.26.2.1.8-.39-.19-.08-1,.52-1,.22-.23.16-.29.35-.36.32s0-.13-.21,0a1,1,0,0,0,.36-.49c-.49.14,0-.55-.7-.21a1,1,0,0,0-1.16-.86c.21-.21,0-.19.36-.49-.44.17.06-.37-.43-.1,0,0,0,.07-.15.19s-.11,0-.22-.06c.14-.12.32-.27.24-.27-.65.44-.22-.21-.21-.39-.19.15-.16.18-.24.27s-.32-.13.14-.54c.15,0-.33.4,0,.17,0,0,.18-.19.24-.27-.73.23-.85-.21-.9-.41s-.36.16-.37.13.33-.47.08-.45c0,0,0,0-.07-.08s-.41-.07-.07-.43c.23-.2.27.05.37-.13-.1,0-.23,0-.14-.16-.47.41-.48.21-.31,0a1.12,1.12,0,0,0,.63-.2c-.26,0-.88.09,0-.56-.1.08-.15.06,0,0,.31-.11.48-.3.76-.41-1,.39.1-.87-1.29-.17.17-.15.23-.14.39-.28,0-.07-.35.18-.31,0s.19-.19.36-.32a.34.34,0,0,0-.31,0c.12.06,0,.25-.35.51,0-.24-.47,0-.1-.47,0,.15.34-.16.32,0,.21-.19.59-.48.49-.52a1.89,1.89,0,0,1-.4.28c.44-.32.34-.68.24-.8-.37.25-.23.26-.53.48.09-.11,0-.15,0-.19a2.32,2.32,0,0,0,.59-.42c0-.13-.34.22-.36.14.36-.28.1-.26.37-.49-.4.16-.16-.07.1-.24-.33.13-.26,0-.62.21.16-.18.12-.09.38-.29-.18,0-.12,0,0-.21-.13.05-.32.16-.45.21.16-.18,0-.13.27-.24,0-.37-1.15.38-1,.1-.72.52-.52.22-.35,0-.24.14-.32.32-.38.29.17-.22.1-.24-.06-.26a2.51,2.51,0,0,1,.51-.32c-.2.07-.07-.13-.2-.05a.92.92,0,0,1-.24.28c0-.05-.22.06-.2-.05l.29-.22c-.67.22-.4-.38-.9-.13-.14,0,.21-.23.22-.3a2,2,0,0,0-.27.23c-.26.11.27-.68-.14-.16,0-.13.31-.43,0-.33,0,.07-.22.24-.29.21.17-.07.32-.21.25-.25a.84.84,0,0,1-.38.11c.31-.14.1-.22,0-.19s0,0-.06.11-.37,0-.16-.19.08.07.26-.06-.21,0-.33,0c.55-.45-.61.11.1-.44-.23.44,1.1-.36.41.3.55-.4.28-.09.53-.12.29-.25.26-.14.42-.24,0-.15-.16,0-.26.06.09-.09,0-.1.24-.27,0,0,0,.07.15,0-.15,0-.07-.16.17-.35-.31.06-.1-.22-.44-.33-.2.09-.28.25-.42.24.22-.59-.85-.21-.8-.58-.33.17-.53.44-.64.35a1.85,1.85,0,0,1,.57-.44c-.54.08,0-.46-.31-.59-.9.5-.32-.36-1.09,0,.22,0,.32.12,0,.41s-.73,0,0-.43c-.44.13.24-.5-.4-.12.61-.46.4-.68.08-.67,0,0,.09-.11,0-.15-.29-.23-.42-.67-1.1-.62.16-.11.35-.23.27-.24-.26.17-.52.34-.55.27.21-.16.36-.15.28-.22-.18.09-.35.13-.18,0-.18,0-.22.19-.32.18s0-.11.13-.22.12,0,.33-.16c-.28.07-.21,0-.45,0-.35.22.06.07-.33.35-1.61.37-1.67-.45-2.23-.82.24-.19.26,0,.35-.13-.43,0-.77.11-.41-.36-.06-.08-.42.14-.61.19.2-.24-.68,0-.09-.53-.38.22,0-.13-.42,0,.37-.24.26-.23.05-.13.58-.38.05-.21.4-.47-.37.18-.34.07-.23-.11-.18,0-.23.18-.32.17.16-.26-.49-.09.16-.58-.52.23-.58-.16-.2-.49-.59.34-.65,0-.39-.15a5.75,5.75,0,0,1-.9.16l.44-.2c-.17-.49-1-.47-.87-1.27a.72.72,0,0,1-.34.14c.68-.62-1-.15.26-.89-.08-.12-.37.2-.58.21-.07-.32-.55-.31-.2-.71-.39,0-.32-.11-.68-.15.23-.14.16,0,.36-.11-.21-.19-.54-.15-.12-.63-.49.29-.43.07-.82.27,0,.15.13.32-.41.71-.26,0,.29-.36,0-.25-.56.63.32.31.41.63a2.06,2.06,0,0,1-.33.15c-.13.2.2.16.4.16-.37.83,1.18.66.63,1.57.56-.14.69.13.92.29-.51.25-.3-.19-.82.07.07.12.69.39-.07.76.27-.16.6-.38.65-.33s-.17.17-.14.22c.6-.31.54.27.58.43,0,0,.07-.08.19-.15-.17.16.51,0,.19.28,0-.07-.08-.07-.27,0-.31.32.46-.17.43,0-.23.15-.16,0-.36.12.28.11.29.59.61.63.35-.18,0-.12.37-.3,0,.07.2,0,0,.18s-.2.07-.34.14c.2.38.64.59.8,1.1-.43.36.34.27.33.45s.42.35.67.52c.4.27.32.87,1.06.82-.16.11-.35.23-.27.24a1.84,1.84,0,0,1,.42-.25c0,.15-.13.35-.43.62a5.39,5.39,0,0,1,.57-.25c0-.06-.37.08-.1-.13.08,0,.32-.15.29,0-.57.52-.19.19-.26.44,0,0-.12,0-.25.07.39-.11,0,.41.37.28.07-.22-.06-.19.11-.44.16.07.11.14.39.1-.17.15-.38.16-.4.27.5-.18-.46.73.13.55-.12,0,.06-.23.15-.2s-.1.17-.11.24c.74-.38.25.2.67.08a1.66,1.66,0,0,1-.34.34c.36-.19.61-.06.62,0-.3.23-.15,0-.38.1.24.17.63,0,.9,0,.07,0-.26.22-.24.27.4-.34.62-.24.78-.18a5.34,5.34,0,0,1-.61.39c.1-.1,0-.13-.2-.06s-.41.18-.64.35c0-.08.12-.15.28-.23-.35,0-.25-.38-.61-.39.12-.08.25-.12.29-.2-.32.28-.12,0-.35.14a.86.86,0,0,1-.56.25c.16-.07.26-.14.28-.23-.65.37-.06-.21-.47,0,.1-.15.35-.17.26-.25l-.4.27a2.28,2.28,0,0,1-.39-.31c0-.09-.44.4-.43.23.46-.29-.38-.12.29-.6-.48,0-.08-.39-.66-.26.16-.12.23-.35,0-.22.1,0-.12.23-.16.18.19-.62-.41-.88-.44-1.38,0,0-.09.11-.17.18l-.07-.09a2,2,0,0,1,.32-.17c-.31.08.24-.44,0-.38s-.14,0,0,0a1,1,0,0,1-.45.19s.1.06,0,.16c-.56.07-.3-.51-.39-.74-.24,0-.29.3-.51.32.32-.31-.61.14-.15-.2.27-.14.34.13.71-.25-.34.06-1,.4-.74,0-1,.65-.75.06-1.3.25.16-.18.35-.52,0-.43,0,.24-.12.52-.64.94,0,0,0-.08-.15,0-.07.24.51-.2.46,0,.39-.24.05-.23.41-.46.19.15.36.28.25.55,0-.13-.36.18-.37.1s.2-.31,0-.2c-.56.31-1.12.28-.73-.18-.63.29-.14-.21-.17-.23s-.39.22-.44.21c.47-.29.17-.45-.19-.05-.08-.09.17-.27.32-.37a5.87,5.87,0,0,0-.87.23c.26-.15.35-.15.39-.28-.18,0-.22.11-.34.14s.07-.08.19-.15c-.79.37.14-.49-.24-.33,0,0,0,.07-.17.17,0-.13-.1-.26.23-.51-.48.24.11-.18,0-.23-.7.38-1,0-.48-.28-.31.07-.66.22-.37-.11-.56.3,0,.24-.28.44s-.15-.28-.43-.21a3.5,3.5,0,0,1,.76-.59c-.11,0-.43.16-.6.19,0,0,.06.06-.05.13-.44.14-.4-.14.24-.51-.06.12.52-.2.44-.2-.46.23-.47,0-.88.19-.08.2.35-.11.32,0-.3.22-.44.23-.59.42,0-.18-.11-.23-.31-.25.2-.12.17,0,.45-.2,0-.15-.38.16-.48.15a.9.9,0,0,1,.33-.36c-.69.13-.49-.19-.73-.44-.48.23.1.14-.21.33-.74.06-.82-.29-1.49-.28.15-.08.2-.06.35-.13-.57.12-.11-.29-.61-.05.25-.64-.61-1.23-.21-1.89-.13-.18-.93-.07-.25-.63-.48.13-.18-.35-.58-.25,0,.05-.17.1-.23.09.2-.64-.92-.29-.87-.93-.53.3.35.24-.46.61.08.29-.23.55-.08.78,0,0,0-.08-.15,0s0,.05-.07.11c0-.15-.16-.17-.46-.05.2.13.44.32.15.69-.5.21-.18-.41-.46-.29a1.81,1.81,0,0,0-.23.77c-.38.1,0,.1-.39.28-.34,0-.13-.17-.26-.2.05,0-.25.25-.3.2s0-.1-.11-.18c.14-.08.38-.07.44-.2-.33,0-.91.11-.43-.24-.2.1-.21.15-.41.25,0-.07-.06-.13-.2-.1l.32-.17a2.14,2.14,0,0,0-.93.09c0-.14.06-.56-.38-.38-.07.22.57.13-.06.58.26.33.3.86.61,1s0,.44.18.52.54.13,0,.5c.17-.2-.29-.08-.06-.32-.19,0-.24.17-.33.15-.12-1.63-3.16-1.9-3.56-3.59-1,.5-.81-.11-.63-.37-.63.23-.08-.27-.58-.05-.2.18.16.25-.27.48-.2.08-.61.35-.66.3-.39-.23.4-.86-.17-.79.11.16-.63.7-.42.94,0,0-.9.4-.54.27.72-.4.2.06.65-.08,0,.11-.25.28-.57.46-.51.15-.54-.13-1,0s-.57.41-.32.41c-.6.85.81,1.06.81,1.66,0,.06-.27.19-.15.22.25.19,1,.29.41.94.28.08.24.29.3.49.29-.14.42-.14.42,0-.24.07-.13.07-.42.23a.36.36,0,0,0-.33-.08c-.13.11.08.15-.36.33-.11-.19-.61,0-.78-.13,0,.08-.27.21-.13.25.68-.2.8.12,1.66-.27a1.75,1.75,0,0,1-.71.45c-.43.51.29.54,0,1-.39.21-.45.11-.72.21.06.23-.3.12-.54.26.44,0,.53.26.8.38a2.92,2.92,0,0,0,.8,2.48,4.58,4.58,0,0,1,1.31,2.14,6.71,6.71,0,0,1,1.11.81c.57-.12,1,0,.82.37.33-.08.58.33.72.43-.11-.16-.13.09-.29.22-.18-.2-.12-.46-.7-.18a.62.62,0,0,1,.15-.21s0,.05.14,0c0-.27-.64.44-.79.33.53-.35-.23-.13.51-.54.11.05-.17.26.19.07a.94.94,0,0,0-.6-.47c-.3.31.31.21.27.4s-.36.26-.48.37c-.16.29.27.22-.17.6-.59-.16.14-.5-.05-.73,0,0-.06.08-.1.06-.2-.12-.09-.3-.37-.34.11-.15.64-.73-.16-.24.16.05.28.16-.13.46,0,.35.84,0,.55.39-.11-.09-.32-.09-.68.07,0,.16.48-.17.45,0s-.2.06-.34.13c.28,0,.61.14.17.47a7.55,7.55,0,0,0-.81-.35c.15-.09.39-.24.19-.15l-.21.12c-.28.52.64.11,0,.71,0-.16-.43-.06-.22-.33-.59.29-.87.08-.82-.16-.48.82,1,.37,1.29.64-.35.25-.49,0-.77.36.84,0,.27,1.09.55,1.41-.59-.1-.95-.28-.92-.67,0-.1-.25.25-.33.16.22-.45-.41-.7-.89-.9a.83.83,0,0,0,.31-.19c-.86.28-.49-.39-.85-.42,0,0,0,.06-.07.12a1.23,1.23,0,0,0-1.21-1.18l.41-.24c-.68-.2-1.56-.58-1.35-1.38-.23.13-.35.17-.37.09-.48-1.4-2.45-2.24-2.78-3.61,0,.05.08.09-.16.2.26-.85-.26-1.19-.57-1.68.12-.15.4-.32.56-.48-.46.24-.22.17-.71.44.34-.47.13-.77-.24-.9l.32-.16c-.52,0-.8-.14-.55-.48,0,0-.15.12-.3.19-.18-.11-.3-.21,0-.4-.14,0-.14-.16.19-.4-.16-.06-.52.26-.68.26a5.42,5.42,0,0,0-.74-2.06,12.94,12.94,0,0,0-1.28-1.91,6.7,6.7,0,0,0,1.66,3.1c-.31.15.24.13-.24.31.69.39.22,1.58,1.05,1.86-.12.07-.31.15-.3.19a.76.76,0,0,1,.6-.16c-.44.3.16.27-.3.69.49-.2.22.41.16.53.16,0,.41-.18.48-.13-.38.22.12.12-.2.37.53-.16.32.15.54.22-.63.36-.19.36-.11.51.19,0,.24-.17.34-.14.17.88.88,1.45,1,2.48,0,0,0-.06-.14,0s.32-.1.3,0c-.29.16-.18.16-.42.23.3,0,.17.33.18.52.35-.15.23-.19.38-.29,0,.09.23,0,.19.09-.21.12-.18,0-.45.17-.06.21.41-.1.35.11-.51.26,0,.21-.28.47a2.65,2.65,0,0,0,.66-.29c0,.13-.08.23.21.11L51.9,43c.13,0,.67,0,.2.32.05-.2-.58,0-.25-.4-.84.49.52.48-.22,1a6.94,6.94,0,0,1-1-1.86c-.19.09-.24.19-.32.17s-.23-.1,0-.23-.18.26.28,0a.79.79,0,0,0-.41-.44c0,.06-.18.35-.47.37.18-.79-.55-1.22-.77-1.72a16.52,16.52,0,0,1-.69-2.37l.21-.11c-.65,0-.06-.64-.74-.58.05-.13.1-.26.44-.45-.09,0,0-.24-.21-.12.12.11,0,.27-.42.48a1.19,1.19,0,0,1-.24-.91c-.56-.08-.45-.68-1-.74-.22.33.73.37-.31.91.15-.31-.67-.1-.41-.49-.37.19-.4.12-.32-.08-.94.28-.32-.6-1-.59a1.57,1.57,0,0,0,.4-.53c-.36.15-.09.18-.42.24,0,.08.22.12,0,.24a14.8,14.8,0,0,1-1.44-1.46c-1,.48-.37-.24-.66-.23-.43.37-.23-.21-.3-.32a1.77,1.77,0,0,0-.93-.5c-.45.38.37.22.15.55a1.34,1.34,0,0,1-.59.15c.17-.11-.1-.21-.43,0,.23.11.11.27,0,.51-.41,0-1.21,0-.65-.48-.56.08-.45-.24-.77-.43-.57.32-.54-.06-.67-.25-.58.06-.75.32-1,.13-.18.18.19.1,0,.24-.55.16-1.11.34-1.17.08.16-.06.21,0,.36-.08a.93.93,0,0,0-.74-.15c.2-.27-.1-.1-.22-.18s.09-.57-.58-.38c-.19.23.31.21-.29.52-.36,0,.2-.35-.22-.18-.26.23.35.35-.24.62l-.1-.2c-.34.14-.23.31-.63.35.08,0,0,.23.19.12-.05-.06,0-.14.28-.24a1.43,1.43,0,0,1,.08.44.92.92,0,0,1-1.05-.82A2.38,2.38,0,0,1,32,33c.06.16.13.32.28,0,.11.1-.16.25-.35.39-.64,0,0-.24-.19-.4C31.75,33.18,31.58,33.31,31.25,33.33Zm45.91-4c.38-.19.17,0,.07.12C77,29.57,77.11,29.37,77.16,29.32Zm3.05,3.23.45,0a2.05,2.05,0,0,0-.32.17c0-.08-.1-.1-.3,0C80.05,32.68,80.24,32.58,80.22,32.55Zm9.34,6.27c-.17.12-.24.2-.26.25-.21.15-.25.1-.28,0,.23-.11.18-.15.41-.26,0-.07-.24,0,.11-.24C89.42,38.72,89.51,38.76,89.56,38.81ZM87.83,62.08c.23-.21-.08.15.09.08l-.26.25c-.08,0,0-.11,0-.16S87.84,62.12,87.83,62.08ZM57,96.43c0,.29.64,0,.27.41C57.1,96.91,56.61,96.89,57,96.43Zm-18.94-33a.49.49,0,0,1,.36.51C38.1,63.94,38.06,63.71,38.1,63.44Zm-6-30c.22-.09.18,0,.47-.12.1.08-.14.2,0,.28-.13.05-.12,0-.16-.05s-.19.09-.21.13C32,33.73,32,33.49,32.09,33.42Zm4.42-.22c.24-.07.3,0,.33.13-.32.12-.38,0-.54,0C36.44,33.27,36.5,33.23,36.51,33.19Zm4.14.17c.26-.08.7.05.15.28C40.83,33.47,40.71,33.52,40.65,33.36Zm-8.93,8.78c.1-.21.61,0,.13.23C31.84,42.31,31.86,42.13,31.72,42.15Zm-.06,1.12c.21-.14.31.06.36-.09s.45.19.06.35C32.06,43.31,31.82,43.33,31.66,43.27ZM70,31c.32-.17.35,0,.23.14C69.81,31.27,70,31,70,31ZM51.66,42.55c.44-.26.17.07.21.11C51.58,42.82,51.53,42.67,51.66,42.55Zm2.46,3.15c-.39.27-.17-.1-.42,0s.1,0,0,.2c1.24-.34.87.63,1.23,1s1,.3,1,.62c-.09.08-.06.13-.27.24.34-.07.08.25.23.33-.31.24-.28.13-.13.24-.23.07-.26.16-.51.32-.12,0,.17-.18.25-.27a2.88,2.88,0,0,0-.59.2c0-.1.26-.25.33-.36s-.31.12-.38.08c-.3.27.15.28-.28.65-.16-.1.14-.33,0-.43-.12.17-.08.29-.13.44.53,0,1.48-.62,1.76-.42.23-.17.15-.24.19-.35.64-.11.18.47.8.29-.08.1,0,.16-.23.3.12,0,.65-.05.3.21,0,0,.35-.19.36-.11-.53.6.66.38.32.87.55-.16.69.23.61.44.87-.35.91.35.6.84.19.18.44,0,.57.18,0-.08.25-.41.06-.32.37-.24.41-.07.53.13,0,0-.14,0-.14,0,0,.39,1.56.18.54,1.32-.07-.12-.18-.19-.4-.13.21,0,0,.57.6.2.11.05,0,.19-.2.33s-.48.3-.48.16c-.25.15.15.08-.24.28-.15-.16,0-.43-.15-.59a.4.4,0,0,0,0,.55c-.82,0-1.1-.23-1.21-.8-.46.31-.21.38-.56.65,0-.43-.75-.22-.7-.55l.2-.13c.21-.15.22-.09.26,0,.27-.25-.16-.11-.48.15-.07-.09-.27,0-.28-.18.22-.14.27-.07.3,0,.37-.36-.29-.21-.6-.22s.33-.24.24-.28c-.28,0-.76-.54-.49-.89-.18,0-.27,0-.54.27-.13-.06-.07-.18.18-.36-.58.22-.29-.22-.19-.48-.08-.09-.29.27-.32.16s.05-.08.18-.16c-.07-.11-.5.19-.46,0a8.94,8.94,0,0,0,.93-.55c-.06-.05-.44.26-.63.36-.18-.06.21-.29.17-.39-.41.32-1.24.57-.57,0,.15,0,0,.19-.08.29.25-.16.28-.25.51-.32-.38,0-.14-.12-.1-.34a3.51,3.51,0,0,0-.92.57c.09-.18.1-.34.21-.53s.27,0,.32,0,.35-.28.47-.37c-.1,0-.13.13-.33.16,0-.08.09-.2,0-.26.17-.17.13-.08.41-.25-.43,0-1.07.53-1.11.29-.12.09-.19.17-.14.21-1.09.23-.16-1-1-.83.17-.23.3-.23,0-.21a1.61,1.61,0,0,1,1-.39,2.46,2.46,0,0,1-.43.22c0,.18-.29.68.36.54-.19-.24.11-.65,0-.87a1.3,1.3,0,0,0,.49-.34c-.16,0-.54.43-.74.41.26-.22-.35-.12,0-.49-.06,0-.18.11-.19.15-.29.11.24-.29.07-.32a.62.62,0,0,0-.15.21c-.32.17.06-.12-.08-.11s-.06.08-.07.12c-.28.15-.19-.09-.42,0,.18-.17.41-.45,0-.26A1.58,1.58,0,0,0,53,45.58l.31-.18c-.57,0-.5-.43-.73-.67.91-.25.55.43.87.67S54.17,45.42,54.12,45.69Zm-2.06-1.81c.91-.26.47.51.87.67C52.17,44.73,52.24,44.08,52.05,43.88Zm-16,11.47c.51-.15.32.13.58.23C36.36,55.65,35.93,55.63,36.09,55.35ZM56,47.92c.26-.17.36-.17.38-.08l-.31.19ZM35.16,61.13c.33-.1.14.24.22.32C35.1,61.54,35.15,61.23,35.16,61.13ZM54.92,49c.06.08-.53.42-.69.47C54.24,49.35,54.62,49.24,54.92,49Zm0,.15c.12-.07.12,0,.16,0-.31.16-.24.2-.49.34C54.5,49.48,54.78,49.31,54.88,49.19ZM37.17,60.24c.25-.12.48,0,0,.25C37.06,60.45,37.22,60.32,37.17,60.24Zm-.43,1.68c0,.1-.09.29.16.22C36.83,62.3,36.1,62.3,36.74,61.92ZM58.9,48c.36-.2.25,0,.24.12C58.73,48.36,59,48.08,58.9,48Zm-23,14.61c.41-.27.19.24.5.09.05.13-.49.23-.38.29C35.92,63,35.95,62.77,35.92,62.63Zm42.4-26.17c.21-.12.24-.06.46-.19,0,.06-.3.22-.14.22C78.35,36.67,78.38,36.51,78.32,36.46Zm0,.36c.11.08.37,0,.32.23C78.16,37.28,78.31,36.91,78.28,36.81Zm2.58-1.55c-.17.2.19.07,0,.22C80.51,35.74,80.46,35.47,80.86,35.27Zm-2.21,1.44c.25-.14.48-.18.3,0S78.51,36.86,78.65,36.71Zm.17.43c.25-.09.44-.13.33.05s-.11-.05-.18,0,0,.11,0,.18C78.6,37.46,78.8,37.27,78.82,37.14ZM80,37.5c.51-.3.11.2.37.1C79.91,37.8,80.2,37.5,80,37.5Zm-.34.35c.22-.11.24.1.15.2s0-.14-.35.13A1.19,1.19,0,0,0,79.63,37.86ZM60.33,50.64a1.6,1.6,0,0,1,1,.17c-.2.12-.1-.11-.46.19C60.79,50.76,60.48,50.8,60.33,50.64ZM80.15,37.75c.17,0,.76-.15.21.3C80.56,37.8,80.22,37.85,80.15,37.75Zm-.72.64c.26-.16.52-.23.38-.08S79.44,38.5,79.43,38.4Zm.48-.15c.21,0,.21.19.36.27-.55.3-.07-.29-.67.11-.08,0,0-.11,0-.16S80.06,38.3,79.92,38.25ZM39.41,66.1c.31-.26.23,0,.32,0C39.4,66.37,39.29,66.25,39.41,66.1ZM80.25,38.87c.32,0,.36.37.82.46.41-.31-.18,0,.08-.29s.26,0,.36.06c-.33.29-.52.3-.89.61C80.45,39.41,80,39.41,80.25,38.87ZM60.12,53.15c.48-.32.51-.1.62,0C60.22,53.49,60.17,53.26,60.12,53.15ZM61.17,53c.5-.33.33.41.18,0C61.26,53,61.2,53,61.17,53ZM81.53,39.53c.36-.28.21,0,.32,0C81.54,39.71,81.69,39.57,81.53,39.53Zm-.16.38a.67.67,0,0,1,.48-.16,2.57,2.57,0,0,0-.41.25Zm1.5-.22c.1-.06.4-.15.17,0,0,0,.13-.07.21-.11,0,.12-.13.13-.38.3C82.75,39.88,83,39.71,82.87,39.69Zm.07.29c.1,0,.2-.1.2-.14.21-.15.11,0,.18,0C83.14,40,83,40.08,82.95,40Zm1.3-.09c.35-.22,0,.1.32,0C84.2,40.18,84.35,39.89,84.24,39.89Zm3.39-2.28c0,.16-.09.32-.67.7C87.22,38.06,87.21,37.92,87.63,37.61Zm-2.81,2c.18-.08.43-.08.41-.25.44-.27.15.11.27.15A1.13,1.13,0,0,1,84.82,39.65Zm-43,30.62c.24-.09.17-.16.41-.25-.06.34,0,.4.13.57C42,70.78,42,70.39,41.82,70.27Zm45.28-32c.4-.32.56-.12.12.15C87.23,38.3,86.91,38.48,87.09,38.28ZM84.77,40c.3-.21.34,0,.23.1S85,40,84.77,40ZM42.32,70.73c.34-.28.31,0,.24.11S42.19,70.9,42.32,70.73ZM86,39.64c.29-.21.41-.17.28,0S86.05,39.7,86,39.64Zm1.13-.14c.05.18.56,0,.49.21-.28.23-.32.17-.6.4.15-.16-.14-.13.29-.41C87,39.92,87.2,39.58,87.16,39.49Zm-.06.11c-.13.15-.56.43-.54.29.64-.36-.13-.05.4-.45C86.94,39.58,87,39.52,87.09,39.61Zm2-1.11c.33-.15.15,0,.12.14C88.92,38.79,89.1,38.62,89.13,38.5ZM43.46,74.62c.15-.12.19-.09.31-.19.1.08-.07.26.1.31C43.56,75,43.35,74.8,43.46,74.62Zm45-33.22c.37-.2.06.17.52-.12,0,.16-.15.35.19.23l-.48.36C88.72,41.65,88.36,41.68,88.45,41.4ZM44,75.06c-.07.23.14.13.1.32C43.75,75.6,43.61,75.31,44,75.06Zm45-33.4c.54-.29.64-.1.36.24.52-.26.91-.44.64,0-.32.15-.09-.26-.86.28C89.14,41.92,88.87,41.89,89,41.67Zm-1.21,1c.28-.21.33-.05.22.08-.27.18-.42.23-.49.16C87.65,42.78,87.79,42.68,87.78,42.65Zm0,.33c.36-.25.05.1.24.1-.17.13-.18.18-.36.31A.79.79,0,0,1,87.75,43ZM42.59,77.74c.22-.06.28,0,.27.14C42.47,78.14,42.76,77.79,42.59,77.74Zm48-36.58c.21-.16.11.06.2,0-.25.11-.2.16-.14.21C90.25,41.68,90.61,41.25,90.6,41.16Zm-1.35,1.19.29-.22.09.1C89.34,42.46,89.37,42.32,89.25,42.35ZM42.63,78.16c.19-.1.29-.07.35,0C42.73,78.35,42.48,78.38,42.63,78.16Zm1.5-1c.18-.14,0,.17,0,.22C43.76,77.64,44,77.31,44.13,77.15Zm.58-.05c.25-.18.27,0,.34,0C44.76,77.38,44.6,77.27,44.72,77.1Zm0,.52s.08-.09.09-.07c.26-.18,0-.17.3-.38,0,.1.23-.07.22.07s-.15.16-.14.21C44.92,77.63,44.93,77.43,44.69,77.62ZM91.41,41.71c-.11.09,0,.1,0,.13-.16.16-.37.19-.38.29-.17.09.23-.32.38-.47.1,0,.31-.15.2,0S91.45,41.73,91.41,41.71ZM42.81,79.48c.31-.25.57-.17.13.15C42.79,79.68,42.72,79.61,42.81,79.48Zm2-1.52c.29-.25.32-.12.55-.28A1.08,1.08,0,0,1,45,78C44.94,78.06,44.85,78.05,44.82,78ZM91,42.64a2.16,2.16,0,0,0,.3-.2s-.12.18-.17.17-.06.12-.25.26c0-.06.08-.13,0,0S91,42.66,91,42.64Zm.51-.16a3.4,3.4,0,0,1-.68.5C90.95,42.79,91.37,42.41,91.46,42.48Zm-47,37.07c.11-.08.16-.14.16-.18.25-.09-.15.21.15.18-.17.11-.16.16-.14.21C44.35,79.88,44.82,79.43,44.46,79.55Zm44.1-34.21c.59-.2.75.31,1.08.3C89,46,88.83,45.48,88.56,45.34Zm.86-.3.28-.22c.06,0,.1.09,0,.2C89.48,45.2,89.47,45.1,89.42,45Zm.41-.08.28-.22c0,.07,0,.11-.21.3Zm1.59-1.09c.11-.08.07,0,0,0,.49-.27-.24.21-.12.23-.13.1-.12,0-.17,0C91.3,44,91.43,43.9,91.43,43.87Zm-1.62,2c.33-.26.27,0,.43-.06C89.78,46.08,90,45.74,89.8,45.82ZM43.5,85c.18-.07.4-.06.28.14S43.61,85.05,43.5,85ZM90.83,49.88c-.47.7-1,.93-1.09.6-.12.13-.07.18-.08.26-.28.26-.16,0-.37.13,0-.05.21-.21.35-.33a2.19,2.19,0,0,1-.59-.27c.32-.32-.1-.1.23-.45-.14,0-.15.23-.37.31-.06-.21.2-.4-.09-.44-.26.21.24,0-.18.33.06-.22-.1-.22-.33-.17a3.06,3.06,0,0,1,.48-.36c0-.08-.19,0-.43.25-.2,0,.05-.27.21-.47.79-.46.43.49,1,.22,0,.43.27.6.41.94.17-.15,0-.12.11-.24.29-.24.29,0,0,.2A1.86,1.86,0,0,0,90.83,49.88ZM42.27,88c.23-.15.44-.11.35,0S42.33,88.06,42.27,88Zm-.56.63c.33-.32.49-.15.11.12Zm6.82-5.69c.22-.08.51.14,0,.49C48.65,83.09,48.55,83.05,48.52,82.9ZM42.65,88c.58-.19.36.48.65.53a2.07,2.07,0,0,0-.63.37c-.12-.17.12-.57-.18-.55C42.59,88.23,42.82,88,42.65,88ZM87.74,50.65c.22-.16.15.08.25.09C87.5,51.07,87.79,50.75,87.74,50.65ZM46.46,85.25a1.82,1.82,0,0,0,.39-.28c.15,0-.2.27,0,.3C46.56,85.47,46.53,85.33,46.46,85.25Zm.91-.61.28-.23c.35,0,.13.27.17.53C47.47,85,47.68,84.63,47.36,84.64Zm.54.22c.5,0,.14.66.68.73-.25.16-.2.16-.57.44.17-.39.09-.82-.34-.54,0-.07.1-.2.31-.37-.16,0-.17.08-.39.28C47.54,85.28,47.91,85,47.9,84.87Zm39.43-33.1c.41-.35,0,.1.21,0C87.28,52,87.31,51.88,87.33,51.77ZM85,54.14c.63-.1.71.5.9.77.14,0,.39-.36.3-.38.28-.2.06.11.12.13-.16.14-.22.14-.38.29s.06.14.05.23c-1.16.47-.76-.41-1.25-.79C84.84,54.29,85,54.18,85,54.14Zm5.36-4.45c.17-.11.18,0,.3,0-.17.14-.17.19-.35.33S90.48,49.7,90.31,49.69ZM48.17,86c.36-.3.45-.16.58-.08-.16.14-.23.13-.39.28C48.51,86,48.22,86.16,48.17,86ZM89.74,51a8.15,8.15,0,0,0,.66-.53c0,.17-.12.39-.18.67C89.75,51.41,90,51,89.74,51ZM92,50.21l-.1-.1A1.12,1.12,0,0,1,93,51.26s.19-.15.22-.12a.62.62,0,0,1-.06.28c-.28.24-.25,0-.34,0s-.26.22-.25.26c-.39,0-.47-.59-1.27-.44a1.2,1.2,0,0,1,.3-.55c-.13,0-.28.26-.45.39s.27-.4,0-.2c0-.13.11-.14.34-.33-.23,0-.42,0-.41-.08-.32.24-.08.18-.08.26-.38.21-.39,0-.25-.26.33-.31.69-.42.62-.57.4-.18,0,.58.44.28.08-.34-.5-.34,0-.89.6-.13.24.5.59.61Zm-4,2.4c.25-.21.48-.33.35-.15S88,52.62,88,52.61Zm.74-.26a2.23,2.23,0,0,0-.2.13c.24.27.4.19.77.28-.86.9-1.09.22-1.31.19C88.13,52.66,88.48,52.33,88.72,52.35ZM90.2,51.3c.22-.17.31-.14.53-.31-.25.26.16.18-.19.5C90.72,51.16,90.1,51.57,90.2,51.3Zm-3.14,4.17c-.09.08,0,.09,0,.12s-.09,0-.24.09.09.16.09.27c-.51.28-.58-.05-.91.09a2.56,2.56,0,0,1,.54-.47c.29-.28,0-.06.1-.24-.17,0-.12.23-.41.44-.16-.16-.08-.3-.45-.12.07-.18.15-.13,0-.21.62-.56.26,0,.55-.12.32-.4-.6,0,0-.51.16.35,1.14.1.76,1C86.79,55.89,87.18,55.5,87.05,55.47ZM89.91,52c0-.09.39-.24.34-.33.3-.22,0,.1,0,.16C90,52,90.08,51.89,89.91,52Zm.44-.23c.36,0,.54.43,0,.72C90.66,52.09,90.13,52.29,90.35,51.8Zm-6.9,6.66c0-.06.18-.12.16-.18.45-.31.19.17.25.26C83.36,58.93,83.78,58.26,83.45,58.46Zm.21.22.1.11c-.09.06-.19.12-.18.16s-.09,0-.24.09C83.33,59,83.45,58.85,83.66,58.68Zm7.14-6.41c.36-.07.4.44.84.5-.84.48-.57-.18-.94-.26C91,52.29,90.81,52.32,90.8,52.27Zm-7.12,7.61c-.12.2.33.06,0,.45.12,0,.31-.13.33,0-.17.18-.23.32-.42.42s.23-.26.2-.3-.29.17-.27.24c-.38-.07-.52-.16-.52-.51.13,0,.48-.24.33,0,.56-.49.14-.31-.06-.23.1-.1.28-.4.31-.36.28-.25.11.1.35,0,.2-.29-.3-.2-.19-.35-.2.21-.42.45-.49.36.64-.54.65-.75.6-.93a2.36,2.36,0,0,0,.38-.3c-.09.51,1,.44,1.12.93-.16.15-.21.14-.38.3.11,0,.42-.23.51-.17l-.36.32s.16-.05.17,0,.11-.15.29-.22l.11.1c-.11.09-.15.15-.16.18-.23.13-.53.37-.6.26a2.32,2.32,0,0,1-.33.34c.13-.21-.29,0-.08-.25a1.43,1.43,0,0,0-.4.28A.67.67,0,0,0,83.67,59.88Zm8.78-7.66a2.41,2.41,0,0,1-.49.36c0-.2-.1-.17-.17-.33-.32.49-.55,0-.28-.28C92.07,51.83,91.87,52.49,92.45,52.22Zm.28-.4c.22-.18.14,0,.1.1C92.5,52.19,92.66,51.95,92.73,51.83Zm-.69.83c.32-.31.43-.32.46-.22-.23.23-.22.12-.4.28-.1.39.34.3-.24.93,0-.26-.27-.12-.57-.05.06-.11.2-.25.19-.32.24-.16.19-.07.19,0C92,53,92.11,52.76,92,52.66Zm.73.54c.22-.17.21,0-.08.26-.09,0-.14,0-.17,0C92.66,53.35,92.79,53.24,92.78,53.2ZM46.93,96c.43-.26.07.22.18.35-.23.24-.09-.22-.32,0C46.68,96.31,47.1,96,46.93,96Zm2,0c.3,0,.12.53.67.33.12.09-.35.44-.17.5-.14.18-.38.19-.35.33a.75.75,0,0,1-.67-.16,1.15,1.15,0,0,1,.44-.41A1,1,0,0,1,48.92,96Zm43.2-39.4c.2-.18.12,0,.21,0C92.09,56.82,92,56.7,92.12,56.56Zm1.75-1.48c.2-.17.13.06.23.05C93.59,55.6,94,55.1,93.86,55.08Zm-.27,1.72c.09-.2.36-.26.37-.15C93.55,57.08,93.73,56.68,93.59,56.81ZM56.27,94.06c.21,0,.33.11.6-.25.32.11-.66,1.21-1.17,1.36A1.65,1.65,0,0,1,56.27,94.06ZM86,66.91c.26-.27.32-.22.37-.15-.16.15-.15.2-.32.36C86,67.08,85.95,67,86,66.91ZM60,96.09c.38-.43.46-.25.68-.35.68-.66.75-1,1.29-1.26.15.06,0,.29,0,.44a8.9,8.9,0,0,1-1.4,1.32c-.16,0-.19-.25-.54.16C60,96.28,60,96.22,60,96.09ZM76.9,79.36c.2-.18.2.06.15.14s-.21.11-.27.08C76.93,79.44,76.92,79.4,76.9,79.36ZM61.58,95.57c.06,0,0,.16,0,.19-.21.26-.26.19-.45.4A1.74,1.74,0,0,1,61.58,95.57ZM89.16,67.65c.3-.33.38-.06.06.2S89.14,67.75,89.16,67.65Zm-.37,2.19,0,0c-.28.28-.34.46-.46.39C88.65,70,88.58,70,88.78,69.84Z" fill-rule="evenodd"/><path d="M37.26,65c.12-.3-.23-.34-.46-.44.49-.28-.2,0,.13-.23s.24.56.83.34c.13-.1,0-.13,0-.19.22-.2.23.25-.12.45C37.57,64.76,37.58,64.67,37.26,65Z" fill-rule="evenodd"/><path d="M85.1,34.57s.29-.15.26,0,0,.35.41.15c0,.08-.12.15-.28.22.51,0,.41.39,1.12.25-.42.2-.08.37.21.08-.07.48.4.85,1.27.64-.23,0,0-.44-.49-.24.47-.25,0-.14-.18,0l.3-.2L86.48,34.1a6.62,6.62,0,0,1-.94-1.35c-.42.14-.13-.47-1-.08.13-.26.19-.35-.1-.34.6-.31,0-.17.43-.43-.29,0,.11-.38-.29-.19,0,.2.34.1-.12.45,0-.2-.35-.16.05-.54-.21,0-.71,0-.37-.3-.48.28,0-.17-.33,0-.18.1-.24.19-.3.19-.28,0,.09-.33-.19-.26,0,0,0,.07-.17.17s.13-.17,0-.19c-.35.2-.1.2-.21.32.35-.15.56.08.34.26s-.49.16-.23-.11c-.29.16-.17.17-.38.3.05.07.39-.13.42,0-.28.16-.43.18-.68.29,0,.1.45-.19.5-.12-.17.14-.39.15-.41.25.33-.14-.05.2-.09.28.58-.39,0,.14.42,0-.18,0,.2-.3.36-.32-.31.27,0,.16-.18.36s-.11.09-.19.15c-.08-.1-.62.26-.12,0a4.12,4.12,0,0,1,0,.56.69.69,0,0,1,.15-.19c.13.11-.29.35.2.07.09.08-.4.36-.51.52.35-.25.16,0,.47-.17,0-.07-.24,0,.12-.24,0,.18.05.2.31.22-.2.12-.21.17-.39.28.09-.16,0-.25-.33,0,0,.21.23.13.6,0-.3.27,0,.2.2.07a1.56,1.56,0,0,1-.61.39c.19.07.23.1,0,.39,0,0-.24.12-.33.15.32-.07.2,0,0,.24.39-.14.88,0,.57.38.46-.18.4,0,.67.11.46-.26-.09-.13.21-.33s.75-.23.37.11c-.23.17,0-.14-.35.13C84.59,35.5,85,34.76,85.1,34.57Zm-1.87-2.15.3-.19c.17,0-.12.15-.14.21S83.26,32.44,83.22,32.42Zm-.28.43c.39-.14.94-.34.61,0l-.41.26c-.09,0,.23-.28-.08-.11,0-.14.22-.1.32-.17S82.86,33.06,82.95,32.85Zm.87,1c.3-.12.47,0,.09.33C83.88,34,83.66,34,83.81,33.83Zm-.61.59c.28-.14.28,0,.35.07C83.16,34.69,83.18,34.55,83.21,34.42Zm.73-.22c.16-.07.25,0,.3,0C83.87,34.47,83.81,34.33,83.94,34.2Zm-.74.61c.26-.18.35-.18.37-.11C83.3,34.88,83.21,34.89,83.2,34.81Zm.85-.46c.69-.38.12.34-.23.5C84.07,34.58,84.14,34.44,84,34.35Zm.55-.07c.08-.1.1.07.23.11C84.37,34.65,84.46,34.45,84.6,34.29Zm-1,.81c.24-.19.53-.25.6-.39,0,.12,0,.19,0,.42C83.76,35.32,83.6,35.27,83.55,35.1Z" fill-rule="evenodd"/><path d="M35.49,31.64c.12,0,.62.08.14.29C35.68,31.74,35.59,31.77,35.49,31.64Z" fill-rule="evenodd"/><path d="M68.57,18c.15,0-.05.38.28.31C68.51,18.53,68.45,18.11,68.57,18Z" fill-rule="evenodd"/><path d="M42.18,31.9c.17,0,.41-.09.42,0-.29.13-.19.2-.5.34C42.31,32.08,42.4,32,42.18,31.9Z" fill-rule="evenodd"/><path d="M49.28,30.49c-.11-.08.35-.25.23-.33.26-.09.2.13-.14.25a.62.62,0,0,0,.36-.09C49.66,30.5,49.41,30.5,49.28,30.49Z" fill-rule="evenodd"/><path d="M57.45,30.47a1.38,1.38,0,0,1,.6-.16C58,30.87,58.09,30.26,57.45,30.47Z" fill-rule="evenodd"/><path d="M60.65,29.08c0-.06.14-.06.32-.16a3.53,3.53,0,0,1-.17.43C60.4,29.47,61.09,28.94,60.65,29.08Z" fill-rule="evenodd"/><path d="M79.77,20.28s-.21.08-.34.14c-.13-.13.56-.59.1-.55-.24.13.07.12-.14.24s.05-.14-.22-.13l.63-.34c.23.13,0,.2.24.41-.41.12-.09.21-.26.27.42-.22.41-.09.08.14.14,0,.27-.18.44-.19-.2.2.31.18-.19.39,0,0,0,.05-.08.1.14,0,.45-.28.47-.15-.41.1-.26.2-.38.31-.7.2-.4-.34-.76-.35A4.67,4.67,0,0,1,79.77,20.28Z" fill-rule="evenodd"/><path d="M67.34,25.82c.24-.15-.06.27.05.33C67,26.24,67.36,25.91,67.34,25.82Z" fill-rule="evenodd"/><path d="M60,29.9c.21-.06-.12.24,0,.3-.29.16,0-.19-.29,0C59.85,30.08,60,30,60,29.9Z" fill-rule="evenodd"/><path d="M56.73,34.54c.13,0,.19.14.18.31C56.79,34.82,56.63,34.72,56.73,34.54Z" fill-rule="evenodd"/><path d="M72,28.1c.26-.11.37,0,.35.1C72.15,28.26,72.15,28.12,72,28.1Z" fill-rule="evenodd"/><path d="M75.32,27.29c.23-.07.15.14.53-.06C75.65,27.43,75.11,27.47,75.32,27.29Z" fill-rule="evenodd"/><path d="M81.55,24.6c.44-.2.63-.48.31-.41.45-.2.44.1.86,0-.2,0-.67.24-.5.1-.06,0-.48.24-.41.25C81.65,24.63,81.73,24.51,81.55,24.6Z" fill-rule="evenodd"/><path d="M31.81,53.07c.62,0,.22.88,1.12.7-.25.18-.08.26-.42.46.08-.48-.59-.27-.32-.75C31.75,53.58,31.87,53.19,31.81,53.07Z" fill-rule="evenodd"/><path d="M73.85,29.89c-.29.19-.1.1,0,.15-.11.18,0-.11-.35.13-.06-.06-.1-.12.24-.3,0,0,0,0-.09.08a2.12,2.12,0,0,0,.35-.13S73.85,29.91,73.85,29.89Z" fill-rule="evenodd"/><path d="M74.42,30.58c0,.07,0,.12-.25.27,0-.17-.25,0-.33-.08s-.06.08-.07.11c-.66.21-.34-.3-.12-.65a2.38,2.38,0,0,1,.46-.16C73.46,30.47,74.13,30.61,74.42,30.58Z" fill-rule="evenodd"/><path d="M81.16,27.12c0,.05.22,0,.19.08l-.45.19c.7.06.09,1.13,1.13,1-.6.51.66,0,0,.45a3.21,3.21,0,0,1,.52-.3c-.48.07-.31-.36.25-.7-.55.34.64-.32.18,0,.26-.11.35-.28.41-.24-.13.13-.27.27-.44.41a.76.76,0,0,0,.3,0c-.12.07-.3.17-.3.2.59-.37.23,0,.21.09.34-.25.21-.35.59-.62-.36.18-.08,0-.18,0,.12-.07.3-.17.3-.2s.16-.23-.21-.09c0,.08-.13.14-.3.2.09-.2-.31-.15.07-.53-.59.32-.36.08-.33-.05a1.91,1.91,0,0,1-.43.22c0-.06.25-.2.37-.3,0,.05.28,0,.36-.11-.3.17,0-.2-.31,0q.08.05-.27.24c.23-.21-.25.08-.19-.07a6.29,6.29,0,0,1-.76.37c.49-.36-.29,0-.35-.08a4.67,4.67,0,0,1,.85-.67c-.12,0,0-.1-.17-.05s-.25.2-.37.3c-.32,0-.24-.12-.21-.34-.31.13-.48.17-.4,0C81,26.81,81.69,26.75,81.16,27.12Zm.79.75s.18-.13.3-.2.18,0,.18,0C82,28,82.37,27.58,82,27.87Z" fill-rule="evenodd"/><path d="M33,54.12c.23-.2-.11.27.06.32-.31.12-.38,0-.49-.12C32.74,54.28,33,54.32,33,54.12Z" fill-rule="evenodd"/><path d="M74.34,31.57s-.31.13-.27,0a1.83,1.83,0,0,0,.46-.39c.12-.06.1,0,.24-.07-.5.34,0,.25-.7.66C74.09,31.74,74.16,31.67,74.34,31.57Z" fill-rule="evenodd"/><path d="M74.39,31.64c.33-.21.19,0,0,0,0,0,0,.08.15,0a.62.62,0,0,1-.46.17C74.32,31.75,74.43,31.67,74.39,31.64Z" fill-rule="evenodd"/><path d="M32,56.09s.12,0,.1-.06c.29-.07.19.31.46.27-.05,0-1.13,0-.51-.34C32.09,56,32.06,56,32,56.09Z" fill-rule="evenodd"/><path d="M32.08,56.66c-.29.11-.31.43-.45.63.3-.19.39.25.59.47-.4.07-1.06-.4-.43-.88,0-.22-.11-.21-.13-.42.54,0,.82.53.93.77C32.23,57.36,32.23,56.8,32.08,56.66Z" fill-rule="evenodd"/><path d="M75,32.58c.09-.18.12-.07.41-.24l.08.12c-.24.08-.2.13-.4.27,0,.08.58-.33.49-.12s-.18,0-.34.14c.3-.06.37,0,.18.26s-.18,0-.1-.14c-.2.09-.33.11-.56.23.07-.07.07-.12,0-.16.12-.07.12,0,.15,0S75.4,32.41,75,32.58Z" fill-rule="evenodd"/><path d="M32.82,57.58a1.63,1.63,0,0,0-.22.31c-.15.07-.14,0-.19-.07.18,0,.34-.17.27-.25.18,0,.57-.23.64-.11C32.94,57.75,33,57.54,32.82,57.58Z" fill-rule="evenodd"/><path d="M33.9,57.49c.34-.1,0,.25.27.2C33.79,57.88,33.94,57.56,33.9,57.49Z" fill-rule="evenodd"/><path d="M75.62,33c.07,0,0,.1-.14.22.14,0,.17-.06.43-.22l.06.09c-.4.07-.15.15-.48.35C75.6,33.26,75.18,33.36,75.62,33Z" fill-rule="evenodd"/><path d="M76,33.61c0-.15-.27-.05-.13-.19s.19-.06.34-.14c-.1.14-.08.35-.52.51C75.73,33.74,75.85,33.73,76,33.61Z" fill-rule="evenodd"/><path d="M59.4,43.9c-.3.2-.58-.12-.33-.07C59.11,43.92,59.44,43.71,59.4,43.9Z" fill-rule="evenodd"/><path d="M59,44.14c.33-.11.11.2.18.27C58.88,44.51,59.2,44.17,59,44.14Z" fill-rule="evenodd"/><path d="M75.35,35c.15-.12.1-.17.36-.32.16.14.12.25.34.29a4,4,0,0,0-.54.26l0-.07c.12-.07.11,0,.15,0C76,34.91,75.68,34.8,75.35,35Z" fill-rule="evenodd"/><path d="M78.58,33.55c.18,0,0,.25.19.28C78.44,33.92,78.49,33.73,78.58,33.55Z" fill-rule="evenodd"/><path d="M82.94,31.23c-.12,0,.33-.24.13-.24.29-.15.33-.05.69-.27C83.46,31,83.25,30.89,82.94,31.23Z" fill-rule="evenodd"/><path d="M77.93,34.3c-.18.17-.08.25-.16.39l.2-.13C77.68,34.9,77.45,34.58,77.93,34.3Z" fill-rule="evenodd"/><path d="M81.77,32.46a3.07,3.07,0,0,1,.42-.23c0,.09-.68.48-.31.38-.05.13-.2.06-.34.15C81.63,32.66,81.84,32.51,81.77,32.46Z" fill-rule="evenodd"/><path d="M77.92,34.9c.45-.23.08.16,0,.27a2.07,2.07,0,0,0-.32.17c.31-.06-.18.2-.21.33s.21-.11.24-.08,0,.16-.34.35c.08-.22.06-.19-.17-.23l.31-.19c-.07,0,0-.1,0-.18a1.38,1.38,0,0,1-.53.29c-.25.14.13.07-.26.26l.21-.33c.21,0,.37-.17.73-.42-.16.16,0,.06.08.11C78.15,35,78,35,77.92,34.9Z" fill-rule="evenodd"/><path d="M82.27,32.34c-.09.14-.17.2,0,.19-.18.11-.25.18-.27.23S81.93,32.55,82.27,32.34Z" fill-rule="evenodd"/><path d="M77.83,35.59c.42-.16-.11.25-.31.39.08,0,.25-.12.25-.06C77.05,36.31,77.83,35.71,77.83,35.59Z" fill-rule="evenodd"/><path d="M33.23,66.31c.16,0,.12.35.2.49C33.14,66.85,33.24,66.47,33.23,66.31Z" fill-rule="evenodd"/><path d="M57.62,51.18c0-.08-.14-.05-.14,0-.18-.09.07-.3.48-.35,0,0-.39.34,0,.15C57.91,51.05,57.78,51.05,57.62,51.18Z" fill-rule="evenodd"/><path d="M58.28,52.11c.12-.07.08,0,0,0,.14,0,.32-.14.3,0C58.35,52.28,58.11,52.31,58.28,52.11Z" fill-rule="evenodd"/><path d="M34.56,68c.39-.12.22.15.23.32C34.59,68.41,34.76,68.06,34.56,68Z" fill-rule="evenodd"/><path d="M36.43,72.1l0-.06c.09-.05.08-.08.07-.1.19,0,.45-.09.59,0C36.72,72.14,36.86,71.83,36.43,72.1Z" fill-rule="evenodd"/><path d="M37.73,73c-.29.12,0-.46-.32,0,.14-.51,0-.8-.38-.9.15.22-.08.41-.13.63-.44,0,.17-.64-.36-.48,0,.07-.2.17-.29.21.06.09.2.15-.05.33s0-.43-.41-.15a16.22,16.22,0,0,1,1.71,2.23c.1-.15,0-.24.14-.4,0,0,.05.06.15,0s0-.06,0-.13c0,.18.35.21.47,0-.36.18-.25-.12-.23-.28-.25.05-.45.43-.63.36.18-.44-.71-.33-.2-.84.34-.07,0,.69.8.26-.14-.18-.53-.24-.22-.68l-.37.11C37.55,73,37.66,73.17,37.73,73Zm-.8-.26c.31-.23.46-.11.34.05S37,72.87,36.93,72.77Z" fill-rule="evenodd"/><path d="M40.7,69.4c.22-.15.14.1.24.12-.1,0-.2.09-.2.14C40.53,69.78,40.8,69.44,40.7,69.4Z" fill-rule="evenodd"/><path d="M40.39,72.73c.23,0,.68-.07.51.26C40.65,73,40.59,72.78,40.39,72.73Z" fill-rule="evenodd"/><path d="M40,73.37c0-.06.22-.2.36-.31,0,.11.59,0,0,.39C40.34,73.3,40.56,73,40,73.37Z" fill-rule="evenodd"/><path d="M38.7,76.18c.12-.08.17-.13.17-.17.38-.1.29.17.18.41C38.79,76.49,39,76.17,38.7,76.18Z" fill-rule="evenodd"/><path d="M89.24,39.54c-.09,0,.24-.37.43-.42S89.37,39.38,89.24,39.54Z" fill-rule="evenodd"/><path d="M41.71,74.75c-.06,0,.07-.15,0-.19.41-.19.3,0,.49,0C42.13,74.75,42,74.47,41.71,74.75Z" fill-rule="evenodd"/><path d="M41.9,75.93c.4-.1.29.38.81.23C42.09,76.48,42.12,76,41.9,75.93Z" fill-rule="evenodd"/><path d="M41.6,76.7c-.17.11-.16.16-.14.21-.23.16-.29.08-.19-.05s.79-.39.39-.09Z" fill-rule="evenodd"/><path d="M90.73,40.19c.21-.2-.13.32.15.18a.76.76,0,0,0-.41.44c-.37.22-.16,0-.25-.11C90.53,40.62,90.64,40.34,90.73,40.19Z" fill-rule="evenodd"/><path d="M100.24,33.44c-.2.16-.1,0-.17,0,.48-.35.65-.35.81-.34Z" fill-rule="evenodd"/><path d="M41,79.4c.43-.27.12.16.21.24C41,79.78,41.22,79.41,41,79.4Z" fill-rule="evenodd"/><path d="M93.56,42.48c-.15.1,0-.05-.05-.06.16-.08.26-.1.17-.17.14-.14.31-.05.24.08S93.68,42.26,93.56,42.48Z" fill-rule="evenodd"/><path d="M94.93,45.17c-.08,0,.38-.08.61-.23-.15.16-.39.51-.15.36-.46.45-.06-.13-.19-.19-.18.16-.13.21-.2.31C94.76,45.57,95.19,45.11,94.93,45.17Z" fill-rule="evenodd"/><path d="M94.61,46.56c0-.07-.24,0,.09-.25,0,.2.54-.22.71-.47a1.06,1.06,0,0,0,.31-.2A6.33,6.33,0,0,1,94.61,46.56Z" fill-rule="evenodd"/><path d="M95.93,46c-.29.22-.5.54-.62.57,0-.13.39-.34.58-.6,0,.06.11,0,.22-.12-.09.29.28.05.29.3-.17.12-.3.14-.18,0-.32.35-.33.16-.68.34L96,46.1Z" fill-rule="evenodd"/><path d="M100.75,43.25c-.49.37-.26.33-.36.48C100,44,100.58,43.16,100.75,43.25Z" fill-rule="evenodd"/><path d="M96.27,48.76c-.08,0-.24-.29.12-.21A.71.71,0,0,0,96.27,48.76Z" fill-rule="evenodd"/><path d="M96.86,48.66c-.18,0-.37.1-.41-.06.26-.14.32-.33.5-.52.11,0,.13.13-.11.39.11,0,.13-.12.38-.3-.1.13,0,.2.12.11C97.25,48.41,97.1,48.33,96.86,48.66Z" fill-rule="evenodd"/><path d="M96.12,49.28c.5-.31,1.29-.42,1.49-.23,0,0,.18-.13.29-.22-.06.15-.12.22-.41.44.08.08.22,0,0,.21a.75.75,0,0,0,.3-.21c.22.57.82.63,1.28.73-.33.2-.08.2-.49.53.06,0,.12-.06.15,0,.16-.17,0-.14.29-.38-.07.24.07.19-.36.66-.28.21.3-.48-.27.07-.56-.59-.79-1-1.4-1.68,0-.11-.22.13-.32.18.14-.15-.1-.08.08-.25a1,1,0,0,0-.42.26C96.28,49.36,96.35,49.12,96.12,49.28Z" fill-rule="evenodd"/><path d="M90.27,57.61c.26-.24.21,0,.39-.12a.66.66,0,0,0,.11-.22c.71-.42.47.21.8.28-.56.41-.28,1.05.28.6.15,0-.18.25-.17.32.18-.07.45-.28.58-.28a2.51,2.51,0,0,0-.37.31c.23,0-.29.53-.39.77.27-.21.26-.08.24.05-.29.1-.3.32-.15.35-.35.1-.69.35-.82.22.12-.1.17-.1.3-.21.19-.3.14-.48,0-.5a1.62,1.62,0,0,1,.43-.41c-.34.2-.16-.33-.73.14,0-.11.1-.25,0-.31.37-.3,0,.08.13.12a2.1,2.1,0,0,0,.3-.21C91,58.28,90.68,57.79,90.27,57.61Z" fill-rule="evenodd"/><path d="M87.23,60.84c.2-.26,0-.3.25-.6.07.11-.06.45.08.41S87.32,60.77,87.23,60.84Z" fill-rule="evenodd"/><path d="M44.23,101.44a1.71,1.71,0,0,0,.38-.3c-.25.3-.32.55,0,.49,0,.09-.22.24-.2.31-.34.27-.09-.06-.27-.1C44.4,101.6,44.33,101.51,44.23,101.44Z" fill-rule="evenodd"/><path d="M95.05,54.73c-.25,0-.24-.12-.47-.13.12-.09.2-.14.24-.11a2,2,0,0,1,.24-.26c-.16.37.09.3.39.21C95.34,54.49,94.91,54.62,95.05,54.73Z" fill-rule="evenodd"/><path d="M95.51,54.83c.19-.25,0,.16-.29.39,0-.08,0-.13,0-.16C95.34,54.94,95.52,54.93,95.51,54.83Z" fill-rule="evenodd"/><path d="M97.62,53c.07-.07.09-.07.11-.06l.17-.16c-.37.4.24.22-.39.78-.08,0,.09-.15.22-.28S97.62,53.12,97.62,53Z" fill-rule="evenodd"/><path d="M104.6,47.72c.08,0-.14.24-.06.27-.13,0-.47.29-.41.11-.16.15-.16.2-.33.35-.05-.08,0-.18-.13-.12s-.15.19-.12.22c-.28.22-.11,0-.44.25,0-.06.38-.36.45-.4s.2-.28.16-.33a1.1,1.1,0,0,0,.3-.22C104.25,47.86,104.21,48,104.6,47.72Z" fill-rule="evenodd"/><path d="M86.08,65.18s.07-.1.09-.08,0-.13.21-.29c0,.11-.16.34-.19.48C86,65.58,86.27,65,86.08,65.18Z" fill-rule="evenodd"/><path d="M88.35,63.36c.2-.13.43-.32.48-.21-.52.34.26,0,.11.27,0,0,.44-.32.37-.31,0,.23.32.51.06,1,.6-.5,0,.33.54-.16,0,.05-.28.3-.3.38.4-.19.05.37.23.37,0,.06-.71.65-.27.4-.32.38-.31.07,0-.29-.15,0-.13-.17-.07-.39-.06,0-.2.1-.39.3-.07-.18.1-.35-.25-.22,1-.85-.29-.3.26-1.06C88.72,63.67,88.72,63.35,88.35,63.36Z" fill-rule="evenodd"/><path d="M95,57.76c.17-.13.25-.13.3-.06.26-.22.19-.24.41-.44.1.12.37,0,.59-.11-.57.45.1.7-.57,1.43.08,0,.14,0,.17,0-.21.28-.3.48-.24.59-.5.69-.42,1.06-.87,1.64.09-.2-.27-.09-.23,0-.61-.1-.07-1.84-1.47-1-.06.19.55-.29.53,0a8.83,8.83,0,0,1-1.14.59c-.25.24.24,0-.15.35-.19.11,0-.14-.15-.14.66-.47.29-.68.15-.67.17-.17.17-.05.39-.3.13,0-.09.34.19.17.49-.65,0-.44-.06-.7.24.07,1.24-.62,1.69-.73,0,.15.11.27.55-.15,0,.07-.26.33-.15.35s.45-.46.49-.2a1.51,1.51,0,0,0,.38-.3c.32-.42-.4-.13.11-.54,0-.09-.19.13-.23.11-.21.19.14,0-.19.31s-.15,0,.17-.33C95.53,57.52,95.1,57.91,95,57.76Z" fill-rule="evenodd"/><path d="M87.93,64.27c.2-.18-.06.16.11.1a1.46,1.46,0,0,1-.45.4C87.74,64.58,88,64.4,87.93,64.27Z" fill-rule="evenodd"/><path d="M89,65c.05.11.17.19.12.43C89.14,65.37,88.75,65.29,89,65Z" fill-rule="evenodd"/><path d="M93,61.75c-.75.72-.22-.27-.2-.5C92.93,61.38,93.11,61.47,93,61.75Z" fill-rule="evenodd"/><path d="M73.47,82.08c.14.06-.28.44-.27.57S73.1,82.39,73.47,82.08Z" fill-rule="evenodd"/><path d="M55.42,105.31c.12.11-.28.5-.31.69S55.17,105.59,55.42,105.31Z" fill-rule="evenodd"/><path d="M66.65,94.43c.23-.2-.08.23.06.21-.18.16-.3.16-.39.14C66.49,94.65,66.68,94.59,66.65,94.43Z" fill-rule="evenodd"/><path d="M55.57,107c0,.08.24.19,0,.6C55.51,107.36,55.43,107.4,55.57,107Z" fill-rule="evenodd"/><path d="M54.85,108c.34-.23,0,.26,0,.34C54.94,108.7,54.69,108.21,54.85,108Z" fill-rule="evenodd"/><path d="M64.91,101.63c0,.06.16-.05.2,0-.31.34-.53.13-.52,0,.34-.1.36-.43.62-.73s.59-.3.74-.63a1.32,1.32,0,0,1-.18.78C65.7,100.92,65.59,100.73,64.91,101.63Z" fill-rule="evenodd"/><path d="M69.37,103.09c0-.3-.15,0-.27.25.35-.42.32,0,.6,0a3.1,3.1,0,0,1-.41.59c-.11-.06-.08-.57-.62.11-.51.13-.77-.32-1.35,0-.7,1-.13.77.4.63-.32.32-.19.37-.27.55-1,.85-.73-.23-.81-.66.17,0,.23-.39.43-.43a9.89,9.89,0,0,1,.79-2c0-.1-.21.11-.23,0a2.12,2.12,0,0,0,.37-.47c-.26.09-.49.07.06-.42-.07,0-.07-.21-.28.08.05-.16.26-.41.28-.55s-.28.27-.28.08c.36-.45.07-.52.48-1-.42.2,0-.63.33-1.12,1.1-.46.16,1.06.69,1.49-.52.57-.46.83-.15.81a1.62,1.62,0,0,1-.41.59.33.33,0,0,1,.19.31c.74-.27,1.67-.92,2.26-.64-.24.35-.06.19-.08.39a9.63,9.63,0,0,0-1.2.73A3.78,3.78,0,0,1,69.37,103.09Z" fill-rule="evenodd"/><path d="M38.55,20.39a2.08,2.08,0,0,0,.46-.13c0,.17.27.11.25.27-.27.07-.74.31-.42.23-.12.13-.62.06-.41.26-.43.15-.27-.14-.76.06A2,2,0,0,0,38.55,20.39Z" fill-rule="evenodd"/><path d="M82.36,25c.32-.11.43,0,.76-.15,0,.06-.23.19-.5.33.13,0,.12,0-.08.1.34-.1.12.09.44,0-.21.18-.54.39-.41.47-.32,0,0-.4-.36-.34.13-.14.39-.31.44-.42-.17,0-.52.18-.53.05.22-.11.33-.19.29-.22a2.22,2.22,0,0,0,.33-.15A4.75,4.75,0,0,1,82.36,25Z" fill-rule="evenodd"/><path d="M78.59,34c.1,0,.35-.17.37-.1-.48.27-.31.33-.28.43-.41.26-.22-.07-.35-.08C78.41,34.17,78.71,34,78.59,34Z" fill-rule="evenodd"/><path d="M101.35,49.31c-.18.19-.13,0-.49.36.27-.3,0-.3.48-.7-.25,0-.6.25-1.29.92-.78.36-.52-.38,0-1a6,6,0,0,1,2.19-1.72c.45,0-.54,1.38.1,1.09-.07.18.1.38-.09.72a5.48,5.48,0,0,0-.52.5c-.15,0-.12-.25-.54.16A.92.92,0,0,1,101.35,49.31Z" fill-rule="evenodd"/></g></g></svg>