<svg xmlns="http://www.w3.org/2000/svg" viewBox="0 0 88.2 55.27"><title>Asset 11-240</title><g id="Layer_2" data-name="Layer 2"><g id="Layer_30" data-name="Layer 30"><path d="M.38,0S0,13.82,0,27.63.18,55.27.18,55.27L88,53.9s-.22-13-.16-26S88.2,2,88.2,2Z" fill="none"/><path d="M48.11,54.52c-.12,0-.1,0-.13,0-.25,0-.66-.11-.63-.24C47.52,54.35,48,54.39,48.11,54.52Z" fill-rule="evenodd"/><path d="M54.48,53.47c-.28,0-.06-.13-.14-.18C54.5,53.35,54.86,53.42,54.48,53.47Z" fill-rule="evenodd"/><path d="M53.61,53.15c-.37,0-.21-.1-.26-.16C53.85,53,53.6,53.11,53.61,53.15Z" fill-rule="evenodd"/><path d="M54.2,53c-.18.05-.1-.12-.25-.14h.36c.15-.14-.38-.15-.27-.29C54.86,52.63,54.41,52.86,54.2,53Z" fill-rule="evenodd"/><path d="M53.47,53c-.41,0-.36-.07-.37-.14A1.12,1.12,0,0,1,53.47,53Z" fill-rule="evenodd"/><path d="M53.58,52.86c-.32-.07-.49-.18-.15-.27S53.37,52.73,53.58,52.86Z" fill-rule="evenodd"/><path d="M33.67,53.2c-.28,0-.08-.1-.49-.08,0,0,0,0,.12,0v0C33.58,53.08,33.62,53.14,33.67,53.2Z" fill-rule="evenodd"/><path d="M34.36,52.92c-.25,0-.37-.06-.37-.12C34.24,52.81,34.36,52.85,34.36,52.92Z" fill-rule="evenodd"/><path d="M20.31,53.09c-.29-.06-.16-.17-.14-.23C20.45,52.89,20.23,53,20.31,53.09Z" fill-rule="evenodd"/><path d="M54.25,52.33c-.5-.08-.07-.2.09-.25S54.12,52.24,54.25,52.33Z" fill-rule="evenodd"/><path d="M34.05,52.31c-.26,0,.11.07,0,.15-.31,0-.25-.15-.49-.08s-.06-.12-.14-.17A2.63,2.63,0,0,0,34.05,52.31Z" fill-rule="evenodd"/><path d="M20.49,52.43c-.11,0-.38-.29.09-.3A.43.43,0,0,0,20.49,52.43Z" fill-rule="evenodd"/><path d="M33.5,51.6c-.19,0-.35-.1-.14-.15S33.43,51.56,33.5,51.6Z" fill-rule="evenodd"/><path d="M55,51.2c-.57,0-.08-.12.11-.13C55.47,51.1,54.77,51.13,55,51.2Z" fill-rule="evenodd"/><path d="M54.84,50c-.17.07-.19-.12,0-.12C55.36,49.87,54.71,49.89,54.84,50Z" fill-rule="evenodd"/><path d="M53.65,50c-.17,0,0-.06-.25-.06.22,0,0-.25.22-.21Z" fill-rule="evenodd"/><path d="M55.21,48.86c-.29,0-.34-.31.21-.34C55.29,48.63,55.14,48.73,55.21,48.86Z" fill-rule="evenodd"/><path d="M35.24,48.58c.46.07-.16.3,0,0Z" fill-rule="evenodd"/><path d="M56.18,47.77c-.64-.06-.41-.18-.27-.31C56.47,47.52,55.92,47.68,56.18,47.77Z" fill-rule="evenodd"/><path d="M37.9,47.57c-.18,0-.38,0-.37-.08a5.59,5.59,0,0,1,.84,0C38.41,47.59,38,47.49,37.9,47.57Z" fill-rule="evenodd"/><path d="M37.89,46.21c-.27,0-.06-.1-.13-.15C38.21,46.08,37.85,46.15,37.89,46.21Z" fill-rule="evenodd"/><path d="M56.72,46c-.2,0-.5-.15,0-.15C56.55,45.88,56.69,45.88,56.72,46Z" fill-rule="evenodd"/><path d="M31.76,46.18c-.42,0-.16-.17.23-.15C32.07,46.1,31.73,46.11,31.76,46.18Z" fill-rule="evenodd"/><path d="M56.58,45.73c-.5-.16-.28-.15-.4-.39C56.67,45.4,56.56,45.58,56.58,45.73Z" fill-rule="evenodd"/><path d="M58.82,45.31c-.27,0,.43-.09.22-.19C59.36,45.17,59,45.28,58.82,45.31Z" fill-rule="evenodd"/><path d="M59.16,45.08c-.25,0-.12-.08-.37-.08a2.35,2.35,0,0,1,.48,0C59.17,45,59.12,45,59.16,45.08Z" fill-rule="evenodd"/><path d="M55.92,45.09c.5-.08.21-.2.21-.33C56.48,44.83,56.84,45,55.92,45.09Z" fill-rule="evenodd"/><path d="M82.54,44.69c-.42,0-.21-.06-.13-.08C82.37,44.42,82.73,44.67,82.54,44.69Z" fill-rule="evenodd"/><path d="M38.26,45.09c-.17.06-.49,0-.37-.08C38.36,45,37.94,45.1,38.26,45.09Z" fill-rule="evenodd"/><path d="M51.66,44.54c-.54,0-.54-.13-.38-.2C51.75,44.37,51.23,44.48,51.66,44.54Z" fill-rule="evenodd"/><path d="M54.65,44.44c-.11,0-.19-.06-.24,0-.3,0,.09-.09.35-.09.1,0,.13,0,.13.08A.57.57,0,0,0,54.65,44.44Z" fill-rule="evenodd"/><path d="M50.18,44.14c-.17.07-.19-.12,0-.12s.11,0,.12,0,0,0,.12,0S50,44.07,50.18,44.14Z" fill-rule="evenodd"/><path d="M38.15,44c-.23,0-.09-.15-.14-.21C38.38,43.82,38.06,43.87,38.15,44Z" fill-rule="evenodd"/><path d="M43.41,43.67v-.08C43.86,43.56,43.87,43.68,43.41,43.67Z" fill-rule="evenodd"/><path d="M43.13,43.25c-.67,0,.15-.14,0-.23C43.34,43.05,43.28,43.21,43.13,43.25Z" fill-rule="evenodd"/><path d="M63.13,42.65c0-.06.26-.07.23-.13C63.73,42.53,63.53,42.66,63.13,42.65Z" fill-rule="evenodd"/><path d="M47.7,42.12c-.36,0-.33-.14-.26-.19S47.59,42.06,47.7,42.12Z" fill-rule="evenodd"/><path d="M47.67,41.8c-.4,0,0-.18-.27-.27C47.76,41.57,47.7,41.77,47.67,41.8Z" fill-rule="evenodd"/><path d="M64.19,41.22c-.28,0-.11-.15.35-.13C64.59,41.16,64,41.13,64.19,41.22Z" fill-rule="evenodd"/><path d="M48.58,41.27c-.42,0-.34-.12-.38-.21.3,0,.22.14.49.06S48.52,41.22,48.58,41.27Z" fill-rule="evenodd"/><path d="M48.07,40.9c.24,0,.23,0,.48,0-.11,0,0,.11-.35.11.06,0,.12,0,.11-.06S48,40.94,48.07,40.9Z" fill-rule="evenodd"/><path d="M47.95,40.92c-.35-.06.38-.13,0-.21C48.51,40.74,48.28,40.89,47.95,40.92Z" fill-rule="evenodd"/><path d="M28.11,40.67c-.49,0-.18-.1,0-.11C28.45,40.58,27.95,40.62,28.11,40.67Z" fill-rule="evenodd"/><path d="M37.79,40.15c-.46,0-.27-.13.11-.11C37.8,40.07,37.75,40.1,37.79,40.15Z" fill-rule="evenodd"/><path d="M32.23,39.77c-.19,0-.35-.11-.13-.15S32.15,39.73,32.23,39.77Z" fill-rule="evenodd"/><path d="M11.56,39.54c-.16,0-.23,0-.25-.08.21,0,.25,0,.48,0v.06C11.58,39.47,11.52,39.48,11.56,39.54Z" fill-rule="evenodd"/><path d="M44,38.42c-.37-.28,0-.57,0-.88C45.3,37.83,43.6,38.13,44,38.42Z" fill-rule="evenodd"/><path d="M23.47,38.56c-.39,0-.55-.11,0-.11Z" fill-rule="evenodd"/><path d="M18.3,38.45c-.26,0-.12-.13,0-.15C18.65,38.33,18.2,38.39,18.3,38.45Z" fill-rule="evenodd"/><path d="M23.32,38.16c-.19,0-.26-.08-.25-.15C23.52,38,23.22,38.11,23.32,38.16Z" fill-rule="evenodd"/><path d="M21.85,37.89c-.22.1-.49-.14,0-.11C22,37.84,21.5,37.87,21.85,37.89Z" fill-rule="evenodd"/><path d="M21.84,37.74c-.3,0-.45-.18,0-.17C21.66,37.64,21.89,37.65,21.84,37.74Z" fill-rule="evenodd"/><path d="M44.39,37.52c-.52,0-.14-.14-.61-.14a.74.74,0,0,1,.47-.11C44.57,37.34,44.2,37.47,44.39,37.52Z" fill-rule="evenodd"/><path d="M39,37.24c-.33.08-.24-.1-.25-.15s.11,0,.12,0h.24C39.12,37.16,38.71,37.23,39,37.24Z" fill-rule="evenodd"/><path d="M39.52,36.85c-.27,0-.57-.05-.49-.14S39.45,36.79,39.52,36.85Z" fill-rule="evenodd"/><path d="M27.87,36.79c-.17,0-.23-.07-.25-.13C28,36.66,28.07,36.76,27.87,36.79Z" fill-rule="evenodd"/><path d="M21.27,36.79c-.13,0-.09,0-.24,0,.34,0,.27-.05.35-.11C21.71,36.67,21.4,36.77,21.27,36.79Z" fill-rule="evenodd"/><path d="M11.42,36.73c-.45,0-.16-.1-.25-.15C11.51,36.59,11.4,36.67,11.42,36.73Z" fill-rule="evenodd"/><path d="M69.07,35.68a1.94,1.94,0,0,1-.61-.12c.17,0,.3.08.36,0S69.08,35.63,69.07,35.68Z" fill-rule="evenodd"/><path d="M23.35,35.82c-.22,0-.12-.2.22-.21C23.44,35.67,23.36,35.74,23.35,35.82Z" fill-rule="evenodd"/><path d="M71.55,35.3a2.78,2.78,0,0,0-.36,0c.38-.11.18-.12.1-.27C71.84,35.07,71.75,35.21,71.55,35.3Z" fill-rule="evenodd"/><path d="M67.1,35.2c-.38,0-.22-.16-.26-.25C67.15,35,67,35.07,67.1,35.2Z" fill-rule="evenodd"/><path d="M71.52,35c-.71,0,.14-.14-.37-.1-.29,0,0-.07.11-.06-.13-.28.28-.09.12,0,0,0,.15,0,.24,0S71.43,34.91,71.52,35Z" fill-rule="evenodd"/><path d="M17.88,35.14c-.26,0-.48-.09-.25-.13S17.86,35.09,17.88,35.14Z" fill-rule="evenodd"/><path d="M23,35c.49-.07.07-.15-.14-.21a3.36,3.36,0,0,0,.48,0c0,.07.06.12.13.17A3.26,3.26,0,0,1,23,35Z" fill-rule="evenodd"/><path d="M21.59,35c-.18-.16-1.1-.3-.64-.44.27,0,.06.09.13.13.34,0,.21-.09.23-.15C21.6,34.6,21.9,34.86,21.59,35Z" fill-rule="evenodd"/><path d="M71.48,34.54c-.34,0-.23-.08-.25-.14C71.47,34.42,71.49,34.48,71.48,34.54Z" fill-rule="evenodd"/><path d="M71.58,34.36c-.37,0-.39,0-.37-.1C71.46,34.27,71.67,34.28,71.58,34.36Z" fill-rule="evenodd"/><path d="M71.33,34.21c-.58,0,.58-.28-.38-.22a2.69,2.69,0,0,1,.72,0C71.54,34.09,71.44,34.09,71.33,34.21Z" fill-rule="evenodd"/><path d="M21.16,34.19H20.8c.2,0,.3-.12.22-.21.32,0-.1.12.37.08C21.28,34.1,21.06,34.12,21.16,34.19Z" fill-rule="evenodd"/><path d="M41.32,34.09c0-.07-.06-.16.34-.17C41.65,34,41.76,34.09,41.32,34.09Z" fill-rule="evenodd"/><path d="M21.62,34a2.07,2.07,0,0,0-.6,0c.25,0,.05-.1-.25-.11-.07-.07.59,0,.47-.09C21.36,33.84,21.61,33.88,21.62,34Z" fill-rule="evenodd"/><path d="M19.09,33.92c-.27,0-.41-.14.11-.13C19.07,33.82,19.07,33.87,19.09,33.92Z" fill-rule="evenodd"/><path d="M21.48,33.74c-.26,0-.44-.1-.25-.17S21.49,33.67,21.48,33.74Z" fill-rule="evenodd"/><path d="M22,33.7c-.42,0-.34-.07-.13-.13S21.88,33.66,22,33.7Z" fill-rule="evenodd"/><path d="M18.94,33.47c-.12,0-.27-.19-.14-.21S18.86,33.41,18.94,33.47Z" fill-rule="evenodd"/><path d="M70.41,33.27c-.26,0-.26-.05-.25-.1.36,0,.44,0,.72,0C70.77,33.22,70.44,33.22,70.41,33.27Z" fill-rule="evenodd"/><path d="M22.64,33.31c-.41,0-.6-.24-.38-.25S22.49,33.28,22.64,33.31Z" fill-rule="evenodd"/><path d="M12.9,33.11V33c.11,0,.62,0,.6,0C13.16,33.07,13.19,33.11,12.9,33.11Z" fill-rule="evenodd"/><path d="M68.34,32.93c-.18,0-.54,0-.49-.08C68.13,32.85,68.41,32.86,68.34,32.93Z" fill-rule="evenodd"/><path d="M68.31,32.66c-.37,0-.31-.07-.37-.12C68.3,32.54,68.25,32.61,68.31,32.66Z" fill-rule="evenodd"/><path d="M21.14,32.64a2.29,2.29,0,0,0-.48,0,.83.83,0,0,1,.47-.09Z" fill-rule="evenodd"/><path d="M22,32.31c.2,0,.23,0,.24,0a.57.57,0,0,0,.24,0C22.86,32.41,21.87,32.41,22,32.31Z" fill-rule="evenodd"/><path d="M16,32.35c-.33-.12.25-.15-.15-.28C16.44,32.07,16.23,32.32,16,32.35Z" fill-rule="evenodd"/><path d="M22.19,32.19a1.87,1.87,0,0,1-.61-.13c.11,0,.45,0,.36,0,.17,0,.3.08.36,0C22.77,32.13,21.76,32.11,22.19,32.19Z" fill-rule="evenodd"/><path d="M20.74,32.19c-.6,0,0-.22,0-.3C21.11,32,20.43,32.07,20.74,32.19Z" fill-rule="evenodd"/><path d="M69.09,32c-.32-.05.23-.14.1-.23C69.51,31.83,69.17,31.94,69.09,32Z" fill-rule="evenodd"/><path d="M16.12,31.47a1.39,1.39,0,0,1-.36,0c.08-.07-.4-.14-.49-.11-.29-.1.08-.2-.15-.32a3.31,3.31,0,0,0,.48,0C15.13,31.26,16,31.33,16.12,31.47Z" fill-rule="evenodd"/><path d="M21.15,31.29c-.25-.05-.37-.23.23-.15C20.92,31.17,21.45,31.24,21.15,31.29Z" fill-rule="evenodd"/><path d="M14.41,31.11c-.37,0-.38-.14,0-.11Z" fill-rule="evenodd"/><path d="M20.89,31.06c-.2,0-.11-.17-.26-.21C21.18,30.87,20.9,31,20.89,31.06Z" fill-rule="evenodd"/><path d="M21.24,31c-.22-.12.29-.3.69-.38C22.22,30.75,21.36,30.89,21.24,31Z" fill-rule="evenodd"/><path d="M15.48,31c-.69,0,.42-.12-.25-.13a2.29,2.29,0,0,1,.48,0A1.31,1.31,0,0,0,15.48,31Z" fill-rule="evenodd"/><path d="M19.8,30.93c-.26,0-.06-.08-.13-.11a4,4,0,0,0,.6,0C20.19,30.88,19.87,30.88,19.8,30.93Z" fill-rule="evenodd"/><path d="M18.94,30.81c-.3,0-.6-.08-.25-.11Q19,30.73,18.94,30.81Z" fill-rule="evenodd"/><path d="M19.77,30.59c-.27-.06-.64-.2-.26-.26s0,.08.48,0C19.71,30.42,19.74,30.5,19.77,30.59Z" fill-rule="evenodd"/><path d="M45.64,30.1a1.41,1.41,0,0,1-.36,0c-.11-.07.18-.06.23-.1C45.94,30,45.31,30.11,45.64,30.1Z" fill-rule="evenodd"/><path d="M20,30c-.64,0-.58-.39.21-.32a1.38,1.38,0,0,1-.36,0C20.06,29.78,19.59,29.91,20,30Z" fill-rule="evenodd"/><path d="M46.93,29.7c-.14,0-.48-.07-.25-.1H47S47,29.68,46.93,29.7Z" fill-rule="evenodd"/><path d="M45.11,29.48c-.15,0-.26-.15-.26-.23C45.14,29.29,45.11,29.38,45.11,29.48Z" fill-rule="evenodd"/><path d="M70.29,29.26c0-.06.31-.07.35-.12C70.86,29.16,70.59,29.26,70.29,29.26Z" fill-rule="evenodd"/><path d="M46.75,29.08c-.3,0-.66-.05-.61-.15C46.39,29,46.7,29,46.75,29.08Z" fill-rule="evenodd"/><path d="M18.9,28.85c-.27,0-.06-.11-.13-.15C19.07,28.72,19,28.78,18.9,28.85Z" fill-rule="evenodd"/><path d="M45.89,28.78c-.25,0-.12-.08-.37-.08,0,0,0,0,.12,0s.11,0,.12,0C46,28.68,46.09,28.75,45.89,28.78Z" fill-rule="evenodd"/><path d="M70.57,28.42h-.36c.14-.05-.1-.42.11-.14C70.42,28.32,70.64,28.35,70.57,28.42Z" fill-rule="evenodd"/><path d="M74.89,28.34c-.33,0-.25-.11-.13-.16C75,28.19,74.81,28.29,74.89,28.34Z" fill-rule="evenodd"/><path d="M45.33,27.91c-.47,0-.25-.21-.14-.25S45,27.84,45.33,27.91Z" fill-rule="evenodd"/><path d="M75,27.85c-.09-.06-.51-.1-.13-.12S75.28,27.8,75,27.85Z" fill-rule="evenodd"/><path d="M75.43,27.69h-.36a.86.86,0,0,1,.47-.08S75.4,27.65,75.43,27.69Z" fill-rule="evenodd"/><path d="M18.29,27.31c-.26,0-.43-.05-.37-.13A.5.5,0,0,1,18.29,27.31Z" fill-rule="evenodd"/><path d="M70.24,27.31c-.27.08-.18-.08-.49-.06a1,1,0,0,1,.48,0C70.39,27.26,69.88,27.29,70.24,27.31Z" fill-rule="evenodd"/><path d="M74.67,27.25c-.5,0,0-.07-.25-.12h.36C74.87,27.19,74.58,27.19,74.67,27.25Z" fill-rule="evenodd"/><path d="M73.34,27.15c-.24.06.06-.15-.49-.1C73.08,26.95,73.5,27.06,73.34,27.15Z" fill-rule="evenodd"/><path d="M75.24,26.93c-.12,0-.1,0-.12,0a.14.14,0,0,0-.12,0c-.16,0-.1-.05-.13-.08C75.3,26.79,75.24,26.87,75.24,26.93Z" fill-rule="evenodd"/><path d="M73.18,26.64H72.7c.16,0,.11-.09.11-.14C73.2,26.49,73.07,26.59,73.18,26.64Z" fill-rule="evenodd"/><path d="M75.77,26.13c-.17-.07-.36-.13-.5-.21C75.67,26,75.8,26,75.77,26.13Z" fill-rule="evenodd"/><path d="M17.82,26c-.44,0,0-.18,0-.28.32,0-.1.12.37.09C17.73,25.87,17.95,25.91,17.82,26Z" fill-rule="evenodd"/><path d="M75.48,24.08H75c.32,0,.51-.12.11-.06s.24,0,.11-.1C75.44,23.95,75.49,24,75.48,24.08Z" fill-rule="evenodd"/><path d="M75.39,23c-.25,0-.27-.08-.25-.14C75.3,22.89,75.56,22.91,75.39,23Z" fill-rule="evenodd"/><path d="M13.1,22.57c-.25,0,0-.09-.25-.11a.84.84,0,0,0-.24.06c-.36,0,.06-.11.47-.08C13,22.52,13.32,22.53,13.1,22.57Z" fill-rule="evenodd"/><path d="M72.6,22.59c-.11,0-.22,0-.24,0-.25,0,.25,0,0-.12C72.65,22.47,72.59,22.54,72.6,22.59Z" fill-rule="evenodd"/><path d="M73.91,22.54c-.24,0-.16-.17,0-.21S74.05,22.51,73.91,22.54Z" fill-rule="evenodd"/><path d="M72.34,22.45c-.13-.06,0-.13,0-.23.26,0,0,.16.26.21A.58.58,0,0,0,72.34,22.45Z" fill-rule="evenodd"/><path d="M76.94,21.47c-.34-.05.18-.12-.14-.18C77.48,21.29,76.93,21.4,76.94,21.47Z" fill-rule="evenodd"/><path d="M75.74,21.46c-.39,0-.1-.07-.48,0,0,0,.34,0,.35-.06C76,21.38,75.67,21.4,75.74,21.46Z" fill-rule="evenodd"/><path d="M77.65,21.41c.16,0,.06-.1.23-.12S78.16,21.41,77.65,21.41Z" fill-rule="evenodd"/><path d="M75.71,21.09c-.32-.06-.46-.27-.15-.31s.32.06.37.1c-.32-.09-.46.17.13.12C76.1,21.07,75.6,21,75.71,21.09Z" fill-rule="evenodd"/><path d="M74.93,20.35h-.36c-.13-.08.45,0,.35-.1C75.2,20.25,75,20.34,74.93,20.35Z" fill-rule="evenodd"/><path d="M76.1,20c-.64,0-.07-.12-.38-.19C76.13,19.82,75.89,19.94,76.1,20Z" fill-rule="evenodd"/><path d="M78.73,19.95h-.36c.27,0-.12-.14.35-.12Z" fill-rule="evenodd"/><path d="M13.49,18.35c-.31,0-.27-.1-.38-.2.2,0,.23,0,.24,0C13.57,18.17,13.24,18.27,13.49,18.35Z" fill-rule="evenodd"/><path d="M81.15,18.7c-.24,0-.07-.13-.25-.17C81.31,18.55,81.24,18.65,81.15,18.7Z" fill-rule="evenodd"/><path d="M13.33,16.15c-.24,0-.33-.06-.37-.11C13.43,16,13.32,16.09,13.33,16.15Z" fill-rule="evenodd"/><path d="M12.09,14.12c-.11,0-.19-.06-.24,0-.34-.1-.22-.24,0-.34C12,13.88,12,14,12.09,14.12Z" fill-rule="evenodd"/><path d="M13.65,14.1c-.32,0-.43-.13-.73-.18C13.61,13.94,13.59,14,13.65,14.1Z" fill-rule="evenodd"/><path d="M12.79,13.74c-.14,0-.1,0-.12.06-.34,0-.28-.13-.61-.16.07,0,.28,0,.24,0H13c0,.08.22.14.37.2a2.29,2.29,0,0,1-.6,0C12.39,13.83,13.09,13.79,12.79,13.74Z" fill-rule="evenodd"/><path d="M11.7,13.63c-.46,0-.15-.1-.25-.15s-.68,0,0-.09C11.74,13.48,11.54,13.52,11.7,13.63Z" fill-rule="evenodd"/><path d="M81.4,14.23c-.78,0,.13-.09-.25-.17C81.62,14.06,81.29,14.18,81.4,14.23Z" fill-rule="evenodd"/><path d="M11.65,13c-.15,0-.21-.17-.26-.24C11.62,12.78,11.66,12.86,11.65,13Z" fill-rule="evenodd"/><path d="M12.46,12.54c.22,0,0-.05,0-.11C12.93,12.42,12.94,12.57,12.46,12.54Z" fill-rule="evenodd"/><path d="M14.48,12.35c-.21,0,0-.06-.13-.13C14.79,12.21,14.58,12.34,14.48,12.35Z" fill-rule="evenodd"/><path d="M83.44,12.75c.23-.07-.06-.09-.13-.16C83.66,12.6,84.14,12.75,83.44,12.75Z" fill-rule="evenodd"/><path d="M27.17,12h-.36c-.29-.06,0-.13,0-.19S27.17,11.94,27.17,12Z" fill-rule="evenodd"/><path d="M22.79,11.15c-.21,0-.28,0-.25-.09a.56.56,0,0,0,.24,0C23.06,11.05,22.86,11.14,22.79,11.15Z" fill-rule="evenodd"/><path d="M22.18,11.08c-.19,0,0-.08-.13-.15.43,0,.37.07.37.13A.56.56,0,0,0,22.18,11.08Z" fill-rule="evenodd"/><path d="M18.69,10.78c-.24-.07-.23-.1-.49-.2a.62.62,0,0,0,.24,0c.29,0-.06.1.36.07C18.64,10.67,18.76,10.68,18.69,10.78Z" fill-rule="evenodd"/><path d="M31.59,10.2c-.66,0,0-.14-.37-.22-.54,0-.32.09-.23.15-.92,0,.43-.21-.62-.22.07,0,.16-.09.11-.17.43,0,.17.09.25.13.46-.07.42.08,1,0C31.46,10,31.44,10.06,31.59,10.2Z" fill-rule="evenodd"/><path d="M83.4,10.57c-.69,0,.08-.1-.49-.13a7.1,7.1,0,0,0,1,0C84.31,10.51,83.39,10.51,83.4,10.57Z" fill-rule="evenodd"/><path d="M81.55,10c-.26-.11-.58.05-.73-.13h.6C81.47,9.9,81.76,9.88,81.55,10Z" fill-rule="evenodd"/><path d="M82.5,9.86c-.24-.12-1-.16-1.1-.3s-.21,0-.36,0c.16,0,.21.12.37.17-.34,0-1.12-.07-1.19.06-.65-.11.85-.14.7-.3A5.61,5.61,0,0,0,82,9.45c.3,0,.63.09.85.16,0,.08-.18.1-.47.12C82.68,9.77,82.49,9.78,82.5,9.86Z" fill-rule="evenodd"/><path d="M78.77,9.57c-.1-.15.75,0,.71-.13a2.25,2.25,0,0,1,.37.11C79.29,9.51,79.27,9.58,78.77,9.57Z" fill-rule="evenodd"/><path d="M25.81,8.15a2.25,2.25,0,0,0-.72,0s-.15,0-.13-.09C25.2,8.09,26,8,25.81,8.15Z" fill-rule="evenodd"/><path d="M19,7.86c-.25,0-.36-.13.23-.1C19.28,7.82,18.87,7.79,19,7.86Z" fill-rule="evenodd"/><path d="M16.39,7.18c-.43,0-.29-.2-.14-.22a3.27,3.27,0,0,0-.72-.08c.24-.05.71-.06,1.07-.09.21,0,.09.25-.23.19C16.41,7.06,16.53,7.12,16.39,7.18Z" fill-rule="evenodd"/><path d="M29.33,7.06c-.31,0-.06-.15.11-.17S29.3,7,29.33,7.06Z" fill-rule="evenodd"/><path d="M32.41,6.49a4.79,4.79,0,0,1-.49-.2C32.54,6.31,32.49,6.42,32.41,6.49Z" fill-rule="evenodd"/><path d="M49.07,6.63h-.36c.06,0-.15-.11.11-.1S49,6.59,49.07,6.63Z" fill-rule="evenodd"/><path d="M50,6.52a.83.83,0,0,1-.49-.11,3.43,3.43,0,0,1,.72,0C50.32,6.47,49.89,6.44,50,6.52Z" fill-rule="evenodd"/><path d="M83.23,6.74c-.08-.1-.34-.13,0-.2.16,0,.16.06,0,.06a1.3,1.3,0,0,0,.49.07C83.7,6.72,83.54,6.74,83.23,6.74Z" fill-rule="evenodd"/><path d="M83.83,6.71c.56-.12.15-.33,1-.41C84.63,6.37,84.66,6.67,83.83,6.71Z" fill-rule="evenodd"/><path d="M39.66,5.64c-.1,0-.25-.15.23-.14C39.87,5.56,39.67,5.58,39.66,5.64Z" fill-rule="evenodd"/><path d="M81.63,6.06c-.36,0-.69,0-.73-.11a7.33,7.33,0,0,1,.84,0C81.65,6,81.62,6,81.63,6.06Z" fill-rule="evenodd"/><path d="M44.31,5.38c-.61-.21.12-.51,1.16-.59C45.34,5,44.26,5.12,44.31,5.38Z" fill-rule="evenodd"/><path d="M48.81,4.65c-.48,0,0-.08-.13-.17s-.38,0-.36.06c-.36-.06.27-.11.47-.14.37,0,.23.06.6.05C49.37,4.54,49,4.58,48.81,4.65Z" fill-rule="evenodd"/><path d="M75.05,4.61c-.33-.1.18-.22.34-.3C75.71,4.41,75,4.49,75.05,4.61Z" fill-rule="evenodd"/><path d="M72.46,1.78,72,1.73a2.09,2.09,0,0,1,.83-.07C72.82,1.72,72.57,1.73,72.46,1.78Z" fill-rule="evenodd"/><path d="M46.74,54.09v.1a1.11,1.11,0,0,0-.36,0c-.1,0-.38,0-.37-.08.55,0,1-.19,1.2,0A3.44,3.44,0,0,0,46.74,54.09Z" fill-rule="evenodd"/><path d="M57.17,50.37c-.29-.09-.17-.28.21-.34Z" fill-rule="evenodd"/><path d="M55,49.32c-.06,0-.29.06-.23.13-.33,0-.83,0-.71.07a4,4,0,0,0-.5-.18c.49,0,.94-.08,1,0,.37,0,.15-.06.11-.11C54.81,49.2,54.71,49.35,55,49.32Z" fill-rule="evenodd"/><path d="M60.19,48.19c-.72,0-.9-.16-.38-.18C59.61,48.19,59.9,48.09,60.19,48.19Z" fill-rule="evenodd"/><path d="M55.6,48c.36,0,.29.13.13.16s-.19,0-.36,0C55.65,48.08,55.78,48.06,55.6,48Z" fill-rule="evenodd"/><path d="M61,45.32c.21-.18.38-.43.18-.56.89-.08-.28-.42,1-.47,0-.08-.7,0-.61-.12s.44-.12.58-.19c-.4-.05-.22-.18.22-.21,0,0,.21,0,.24,0-.38.08-.25.29,0,.37,0-.15.26-.34,0-.47,0,0,0,.06-.11.06,0-.06-.28-.06-.25-.12.26,0,.39.05.36,0a1.42,1.42,0,0,1-.37-.08c.34-.14.52-.35.19-.48,1-.2-.34-.58,1.26-.63-.29-.16-.35-.33.19-.5,0,0-.4,0-.37-.06.71-.17-.36-.42-.06-.62.48,0-.1.21.49.14-.5-.29.45-.54.41-.77.28,0,.12.09.49.08,0-.06.17-.2,0-.29a3.87,3.87,0,0,1,.48,0c-.3-.15.22-.29.44-.46-.28,0-.45.06-.48,0v-.12c.16,0,.45,0,.48,0-.22-.17.08-.39-.41-.55.45.06.11-.05.11-.06h.24c.54-.32-.67-.94,0-1.09-.28,0-.78-.09-.38-.16a3.41,3.41,0,0,1,.48,0c-.26-.5,0-1-.15-1.63,0,0,0,0-.12,0,.13-.27.46-.39.18-.62.18-.21,0-.59.06-.7s-.24.12-.35.06c.76-.22.72-.41.65-.72.57,0,.57-.25,0-.25-.06.07,0,.1.25.12-.17,0,0,.11-.47.08,0-.11-.16-.43.34-.27-.46-.32.42-.42.06-.7,1.16-.05.17-.44.8-.41-.3-.08-.25-.19.21-.27.32.18.11.3.4.41,0-.07,0-.13.23-.14-.4-.09-.35-.18,0-.27-.53,0-.08-.08,0-.1-.39,0-.09.07-.48,0-.21-.13,0-.3.32-.43,0,0,.09.07.25.08-.19-.11.45-.25-.26-.27-.07,0,.16.14-.11.14-.22-.15-.08-.26.21-.35,0,0,0,.15.13.08s-.17-.12-.26-.18c.85-.21.53-.36.79-.58-.44,0-.33-.15-.38-.25a2.66,2.66,0,0,0,.36,0c.31,0,.1.08.49.06,0-.08-.19-.27.32-.39-.25-.05-.55-.3.21-.33.12.14.27.27,0,.35.41,0-.19.42.51.39-.17,0-.38,0-.35.08.19,0,.37.09.73.14-.86,0,.41.12-.35.14-.1.07.31,0,.37.08-.11.06-.41.08-.47.14,1,.47-.07,1,.25,1.46.11-.1.05-.23.45-.29,0,0-.33.1,0,.12.11,0,0-.1.23-.12s-.42.19-.22.23c0-.12.45,0,.48,0,.2,0-.13-.1.34-.17-.23,0-.26,0-.48,0,0,0,.32,0,.35-.08-1.25-.28-.16-.73-.82-1.07.62,0,.29-.09,0-.08a2.3,2.3,0,0,1,.71-.14c-.81-.08,0-.34-.52-.45.72-.13-.14-.41,0-.55a.58.58,0,0,1-.24,0c-.06-.07-.19-.12.11-.16s-.17,0-.11.1c.84-.15.16-.38.43-.6a1.62,1.62,0,0,1-.37-.12c.33,0,.22-.15.22-.25-.35,0-.59-.05-.49-.14-.82.11-.59.3-.44.43-.46-.07-.54,0-.84,0,.66-.06.16-.39.32-.47,0,0,0,.09-.35.08,0-.06-.34-.18,0-.23-.08.1.43.08,0,.14a2.89,2.89,0,0,0,.83-.16c-.37,0-.14.07-.6,0,0,0-.1,0-.12,0,.33,0,.11-.22.59-.16-.21-.15-.13-.37.56-.43-.3-.25-.66-.45-.42-.7a2.36,2.36,0,0,0,.48,0,2.58,2.58,0,0,1-.49-.1c.42,0,0-.06.23-.06a2.33,2.33,0,0,0,.36,0s0-.08.11-.1c-.37,0-.14.07-.6,0,0-.05-.2-.06-.25-.1.44-.08-.36-.21.09-.35a4,4,0,0,0,.48,0c0-.08-.54-.07-.61-.14.17,0,.21,0,.36,0-.88-.1.07-.35.09-.41a.37.37,0,0,1-.24,0c.2-.33-.08-.62-.08-.93.13,0,.19,0,.24,0-.11-.14-1.52-.86-.06-.72,0,0,0,0,.12,0s0,.06.13.06-.19-.18-.26-.27c.16,0,.36,0,.47-.06-.85-.16.45-.25.09-.41.31,0,.1.08.48.06-1-.21-.19-.57-.55-.87.32,0-.1.11.37.08-.35-.22,0-.61-.31-.89.37.06.16-.08.47-.08.82.18.1.37.77.62.17,0,.62,0,.6,0-1.12-.07-.47-.32-.88-.5a1.43,1.43,0,0,1,.48,0c-.71-.16-.56-.48-.18-.72-.53-.06.06-.2-.27-.31.18,0,.69,0,.73.11-.31,0-.52-.07-.48,0,.88,0,.31.29.63.35,0-.05.21,0,.48,0-.34-.09,0-.17-.38-.25.36,0,.71-.21,0-.12.69-.07.12-.23.69-.3-.08.22.48.31.52.47.41-.09.17-.15.22-.24a2.78,2.78,0,0,1,.36,0c0-.3-.1-.5.66-.71a1.47,1.47,0,0,1-.36,0c.48-.13.25-.37.2-.51,0,0,0,0-.24,0,0-.09-.13-.2.34-.2,0,0-.53,0-.49-.09.26-.06.74-.09.95-.16-.46.06-.73-.28.1-.18.07-.13-.29-.2.34-.28a3.77,3.77,0,0,1-.61-.13c-1.15,0-1.29,0-2.16,0,.26.11.41.19-.34.22.32,0,.32.19,0,.23.77.15-.24.33-.07.55-.58,0-.14.07-.59.1a1.28,1.28,0,0,0-.26-.21,2.28,2.28,0,0,0,.72,0c-.36,0-.27-.14,0-.16-.5,0-.21.09-.47.1a3.46,3.46,0,0,0-.5-.25c.67,0,.61-.19.34-.29a1.49,1.49,0,0,1,.6,0c-.54-.19-.39-.43.08-.55-.88-.06.26-.22,0-.29a1.15,1.15,0,0,1-.36.06c.08-.06-.21-.06-.13-.12a1,1,0,0,0,.59-.12c-.22,0-.4.06-.48,0,.12-.17.21-.24-.15-.37.39,0,.73,0,.71-.12a3.44,3.44,0,0,1-.48,0c-.15,0,.36.09,0,.1s.53-.2-.26-.31a.76.76,0,0,1,.47-.06s-.46,0-.35.08c.55,0,.57.08.61.15,0-.13,1.33-.2.46-.26a12.11,12.11,0,0,1,1.16-.54c.17,0,.21,0,.36,0s-.63-.18.11-.18c0,.1-.07.22.26.27,0,0,.07-.07.23-.08-.27.09.47,0,.25.19a6.58,6.58,0,0,1,.73.07c.19,0,.15-.13.47-.16.36.16.28.26-.21.35-.07,0,.13-.1-.13-.1.07.11-.43-.08-.36,0a2.17,2.17,0,0,1,.74.21c-.49,0,.33.1-.35.12.12,0,.4,0,.49.09-.75.15-.63.46-.79.63a.85.85,0,0,1,.47-.08s.1,0,.12,0c-.53.06.08.2-.58.22,0,.11.13.1-.11.16.27,0,.56,0,.49.11-.24,0-.24-.06-.48-.07,0,.16.44.46-.2.55,1.87.28-.68.68.67.91-.16,0-.11,0-.24,0q.1-.08-.37-.06c0,.1,0,.1-.22.24.66,0,.56-.19,1.06-.24.23,0,.09.15.14.23.35,0,.34-.21.34-.26s-.39,0-.36,0,.33-.05.35-.08-.51-.34.21-.41c-.06.07.11.11.37.13-.29-.34,0-.55-.08-.94.12,0,.15,0,.24,0-.28-.14.16-.28-.4-.43.17,0,.21,0,.36,0a1.93,1.93,0,0,0-.5-.23c.29,0,.39-.07.71-.08q-.39,0-.36-.06c.17,0,.29,0,.36,0a1.32,1.32,0,0,0-.51-.31c.22,0,.41.11.6,0-.63-.13.21-.47.31-.59-.14.06-.39-.07-.13-.08-.3,0-.37.08-.48,0,.47,0,.12-.16.34-.18.42,0,.08.07.37.06a1.58,1.58,0,0,0,.58-.28c.54.2-.38.57.55.84.28,0-.11-.09-.13-.12.79,0,.06-.07.35-.12,1,.06,0,.22.26.31,0,0,0,0,.24,0,0,0,.1,0,.12,0s-.49.35.15.37c0,.1-.86.17-.58.26A2.49,2.49,0,0,1,81,18.37c.17,0,.08.15.25.08-.4-.15-.34-.21-.39-.35-.19,0,0,.1-.35.08,0-.06-.15-.16.23-.16.2.06.63,0,.36,0a.94.94,0,0,1-.48,0c.18,0,.11,0,.11-.08a3.4,3.4,0,0,0,.48,0c0-.06-.15-.1-.25-.14.64-.26-.68-.63-.31-.88,0,0,0,0,.12,0-.53,0-.13-.17-.49-.17.11,0,.3-.13.11-.14s0,.1-.23.1a.71.71,0,0,1-.24,0c.32-.05.16-.06,0-.12l.35-.06c-.19-.13-.15-.18-.26-.31a2.77,2.77,0,0,1,.36,0c-.12-.06-.13-.11.11-.14a2.82,2.82,0,0,0,.61.15c-.2-.09-.09-.23-.62-.27-.07,0,.36.09,0,.1a1.9,1.9,0,0,0-.49-.17c.21,0,.28,0,.23-.06a2.51,2.51,0,0,0,.84-.05c-.44,0-.46,0-.84,0,.09-.09-.19,0-.24-.06s.43-.11.46-.2a6.76,6.76,0,0,1,.73.15c.07-.11-.47-.13-.5-.23.3,0,.38,0,.48,0-.75-.14-.53-.4-.64-.56-.29,0,.22.06-.11.08-.17,0-.14,0-.25-.06a3.82,3.82,0,0,1,.72-.05c-.44-.12-.08-.24-.27-.39.18,0,.89,0,.47-.1,0,0,0,0-.24,0s-.13-.15-.14-.29c.84,0,.76-.17,1.18-.25-.18,0-.29,0-.36,0,.57-.2.51-.33.79-.6.2.14.15-.13.48,0-.27-.09-.46-.26-.26-.31s-.56,0-.48,0,.44,0,.24-.08c.43,0,.68,0,.71-.05s-.46,0-.48,0c.19-.06.1-.08.23-.12a1.24,1.24,0,0,0,.36.07c-.09-.07.25,0,.36,0a1.12,1.12,0,0,1,.47-.16,11.1,11.1,0,0,1-1.32,0,3.64,3.64,0,0,1-.83.07c-.09-.3.35-.7,1.25-.94a3.89,3.89,0,0,0,1.08,0c-2.28-.15.31-.51-.66-.78-.67,0-.73,0-1.44,0,.09-.16-.54-.2-1-.28-.22-.12-.11-.17-.26-.31.15,0,.28,0,.24,0s-.22.05-.6,0c-.09-.14-1.23-.19-1-.32a8.48,8.48,0,0,1-1.32,0c.16,0,.15-.05,0-.06s-.17,0-.12,0,.9-.09.35-.12a2,2,0,0,1-1.07.13c.07.07-.1.1-.35.12l-.49-.09c-.25,0-.38.05-.59.07-.38-.1-.74-.34.09-.43-.17-.08-1.21-.19-.38-.25a1.77,1.77,0,0,0,.61.13c0-.08-.76-.2-.14-.25.8.18,1.27.46,1,.69.66-.14.1-.43-.41-.64.27-.08.13-.28-.27-.39.08,0,.4,0,.47-.1S75.57,8,77,8c.18-.07-.41,0-.37-.07a1.48,1.48,0,0,1,.6-.05c1.08.22,1.69.51,2.69.74A3.94,3.94,0,0,1,81,8.52c0-.45-2.89-.66-2.84-1.13-1.12,0-1.62-.15-2.64-.06,0,0,0-.06-.13-.08a13.73,13.73,0,0,1-2.28-.08c-.2,0-.06.06-.24.06,0-.07-.48-.06-.73-.09s0,.08-.23.08c-2.65,0-4,.15-6.81.28-.56.15-1.66.21-2.25.36-.48-.06-1,.08-1.56,0,0,0,0,.08-.23.08,0,0,0-.08-.25-.09.11.1-.55,0-.6,0-.93,0-1.67.2-2.74.23-.45-.23,1.09-.42.44-.62a3,3,0,0,1,1.07-.19c0,.07.09.13.49.13s.85-.28.92-.48c1.07,0,.72-.29,1-.44.24,0,.16.06.48,0-.19-.22,0-.5.43-.72,1.39-.06,1.07-.53,2.48-.52a1,1,0,0,1,.7-.24,17.7,17.7,0,0,0,1.81.11c.65,0,.59-.22,1.06-.29-.45,0-.84-.15-.49-.21s.28.07.49.09c.71-.07,1.31,0,2-.09,0-.07-.21-.18.35-.18.07,0-.35.08,0,.1,0-.07.44-.05.47-.12-.8,0,0-.08,0-.12-.27-.06-.59,0-1-.06-.1-.26,2.19-.4,1-.6-.16,0-.11.09-.11.14a20.92,20.92,0,0,0-2.49.45,4.07,4.07,0,0,0-.48,0c.07.07.33.12.37.19-.23,0-.46,0-.35.14-.56-.09-.52.05-1,0-.18-.07-.23-.06-.72-.05,0,0-.33,0-.25-.09.27-.18.66-.39.68-.63a4.84,4.84,0,0,0-1.41.41,8.84,8.84,0,0,0-2.15.13c-.14.06.39,0,.24.09a34.52,34.52,0,0,1-3.58.14c.07-.26-1.34-.28-1.24-.54-.54,0-.64-.09-1.09-.12a3,3,0,0,0-.48.05A2.3,2.3,0,0,1,56.68,4a17.9,17.9,0,0,0-2.38.16c-.32-.19-.16-.45-.76-.6a3,3,0,0,1-1.2,0c-.37.11-1.33.1-1.66.22.61.22,2,.23,2.55.48-1.91.1-1.61.72-2,.9a.86.86,0,0,1,.36,0c.11.1-.1.15-.23.2.48,0,.21.11.49.13a1.17,1.17,0,0,1,.47-.05c0,.32.7.52.9.85a1.47,1.47,0,0,1,.36,0c-.09.44.53.75.8,1.16a1.46,1.46,0,0,1,.36,0c-.21.08-.19.19-.22.25a.58.58,0,0,1,.24,0c-.17.32.51.75-1.26.79.13,0,.13,0-.12-.06a2.4,2.4,0,0,1-1.07.09c.15.11-.55.17-1,.11a3.86,3.86,0,0,1-.48,0c-.1.07-.1,0,.13.09a2.66,2.66,0,0,0-.36,0s0-.07-.25-.07c.11.14-.54,0-.83.07.07.08.75.06.61.18a5.67,5.67,0,0,0-.84,0s.29-.08,0-.08c0,.05-.44,0-.6.05s0,.07.13.09c-.44-.08,0,.11-.59.05.31-.13.09-.25-.15-.4.81,0,.49-.29,1.29-.34a.94.94,0,0,0,.25.07,4.38,4.38,0,0,1,.59-.07C50.09,8,52,8,52.15,7.79c-.65,0-.68-.12-.49-.22-.6,0-.46-.07-.37-.15-1.12,0-1.26-.2-2.17-.14.15,0,.15-.08-.13-.09s0,.1-.35.08c-.18,0-.11-.05-.13-.09a9.91,9.91,0,0,0-2,.3c-.71-.34,1-.47.67-.74h.48c.41-.25-1.58-.27-1.35-.48a4.69,4.69,0,0,1-1.59-.47c-.15,0-.37-.14-.73-.16,0-.35-2.27,0-3-.11a11,11,0,0,1-1.43.17c0-.08-.22-.06-.36,0V5.59a5,5,0,0,0-1.2,0c.37.21-.14.39-1.17.46,0,0-.31,0-.24-.07-.55,0-.27.1-.71.09.16-.14,1.07-.14,1.3-.27-.34,0-.31,0-.6,0,0,0,.14,0,.13.09a4.94,4.94,0,0,0-.72,0c0,.09-.19.07-.35.16.2,0,.41.13.13.15,0-.13-.33,0-.49-.07-.18.18-.5.22-.46.33a2.7,2.7,0,0,0-1-.14c.09.06-.25,0-.36.06-.22.26-1.43.35-1.63.67-.66-.09-.28-.28-.51-.49a8,8,0,0,0-1.21-.1c.12.23-.82.5-.07.76-.74.13.42.48.17.72-.1.09,0,.33.75.39,0,.3.36.62.43,1-.31,0-.52-.07-.48,0,.63.12.26.36.63.47.07-.36.31-.67.29-1,.17,0,.2,0,.36,0-.23.22,1.56.55.63.49.15,0-.31.11-.23.19,1.08.07,0,.22.15.36.32,0,.1.08.49.07s.33-.08.71-.07c.84.14.29.27.39.47a1.28,1.28,0,0,1-.36,0c.09.05.36.21-.23.19-.24-.11,0,0,.11-.1a1.79,1.79,0,0,0-.84.05,7.32,7.32,0,0,1-1-.16s-.07.07-.23.08a6.08,6.08,0,0,0-.61-.09c.15.08.06.18-.22.27.64,0,.42.14.37.17-.34,0-.4-.09-.25-.15-.54,0-.17-.09-.6-.07-.17.08,1.33.33.27.43.18-.19-.49-.23-.74-.35-1.6-.09-1.11.17-1.66.3.17.18-.49.45-.08.59.14-.06-.08-.21.58-.23s-.29.12.25.15c.15-.09-.13-.13.35-.17,0,0,.21,0,.24,0a1.67,1.67,0,0,1-.83.16c.38,0-.3.06.12.06a4.24,4.24,0,0,1,.6,0c0-.1.14-.17.59-.18.64.16,0,.28.75.41-.26,0-.48.15-.23.19,0,0,.12,0,.36,0-.49.3-.41.48-.54.76-.36-.08-.18-.12-.37-.22a2.12,2.12,0,0,1-.59.12,2.7,2.7,0,0,0-.85-.14c-.1-.12-.54-.2-.26-.32-.52,0-.23.14-.1.21-.12,0-.14,0-.24,0a11,11,0,0,0-2.16,0c-.65-.45.75-.79,0-1.23.11-.16.76-.31.56-.54.29,0,.26,0,.6,0-.3-.19.05-.36.45-.48-.82,0,.25-.18-.14-.26a1.29,1.29,0,0,1,.36,0c-.77-.17.75-.26.33-.46-.08.09-.66-.09-.59.08.27,0,.45,0,.48,0-.73,0-.57.16-1.18.22.68.13,0,.24,0,.4-.23,0-1,0-.59.1-.06-.09.42,0,.6,0,0,.12-.35.23-.46.33-.56,0-.37,0-.25-.13a6.72,6.72,0,0,1-.72,0c-.14.1.23.11.37.15-.8,0-.29.24-.7.31.26,0,.38,0,.36.07a1.27,1.27,0,0,0-.36,0c.05.41.47.78.2,1.15.41.13.78.5-.45.46-.61.44-.06.9-.38,1.38.6.17.5.37.28.51,0,0,.28,0,.13.09-.57.14-.88-.12-.86-.24.06.11-.79,0-1.08,0-.32-.24-.31-.43-.65-.65,0-.05.35-.06.35-.12-.48-.1.22-.19.1-.3s-.59-.11-.61-.18.48-.13.47-.19-.22-.1-.25-.13l.24,0c0-.06-.34-.1-.37-.15l.36,0c.2-.07-.44-.18-.5-.26.34-.06.55.08.6,0-.41,0-.35-.1-.61-.13.66-.05-.07-.24.58-.21-.23-.15-.54-.41-.52-.54a1.1,1.1,0,0,1-.36,0c0-.16,0-.21-.26-.3.12,0,.14,0,.24,0-.09-.24-.18-.45,0-.6-.16,0-.36,0-.48-.07.31,0,.17-.07-.13-.11.22,0,.7,0,.47-.08a.48.48,0,0,1-.49-.13c.24,0,.15-.06.48,0s.14.06.36.07c0-.14-.4-.14-1-.16-.19,0-.18.13-.35.19.69,0,.29.27,0,.32,0,0-.21,0-.24,0a1.37,1.37,0,0,0,.36,0c-.75-.13-.34-.26-.27-.43a4.57,4.57,0,0,1-.84-.05,1.66,1.66,0,0,1,0,.49c.23-.06.36.07.49.09-.17,0-.51.16-.35.19a1.08,1.08,0,0,1,.36,0c-.53.08-.3.22-.46.34.06-.13-.23-.08-.37-.18-.16.09-.31.14.13.21h-.36c.41.21-.35.51.06.77a1.38,1.38,0,0,0-.36,0c.46.23-.33.55.17.66-.45,0-.63-.1-.37-.15-.83,0-.18.14-.11.19h-.24c.14.09.67.13.74.22s-.55.14-.34.29c.56,0,0,.16.38.22,0-.23.58.26-.22.25,0-.07-.27-.08-.37-.13.06.12-.12.06-.59.08.14.1-.2.1-.23.17.38,0,.33-.09.59-.12,0,0,.06,0,.13.07-.14,0-.74.07-.23.13a3.21,3.21,0,0,0-.48,0c-.31-.35-.5-.48-.06-.79-.38-.2.38-.39-.28-.6.23,0,.08-.07.35-.06-.37-.27.86-.54-.06-.77,0,.06.11.15-.23.15,0-.07-.41-.37.46-.29-.08-.05-.18-.1-.13-.17-.51,0,0,.11-.35.1-.06-.1-.31-.32.33-.38-.05-.39-.24-.69.41-.93-.62,0,.28,0,.23-.08s-.59,0-.6,0-.1,0-.12,0,.29-.07.35-.12c-.34,0-.23-.13-.26-.22.9,0,.32-.17.34-.25.1-.35.48-.8.4-1.08-.33.21,0,.29-.57.46.5.26-.19.57-.06.85-.3,0-.37,0-.6,0s-.19-.08-.37-.11.5.32-.21.45c.4,0,.18.08.13.13.82.08.8.4.64.52s0-.19-.25-.13c0,.06,0,.13-.35.12-.07,0,.14-.12-.13-.13s.06.21-.71.16c-.08.09.46,0,.48.07s-.14,0-.12,0a3,3,0,0,1-.84-.08c-.31.09.18.1.37.11-.32.06-.46-.06-.72,0s-.24.19-.22.23a.62.62,0,0,1,.24,0c-.07,0,.36.09,0,.11,0,0,0-.06-.13-.07-.32.12,0,.31-.57.38.16.05.36,0,.48,0s-.41.11-.47.19c.18,0,.62,0,.6,0s.21.21-.35.19c-.09,0-.12-.16-.25-.11.24.12,0,.2.5.26-.14.08-.65,0-.71.06s.46,0,.48,0c-.22,0-.71.25-.23.15-.1.09-.08.11-.1.23a2.35,2.35,0,0,1,.48,0c-.42.35.15.67-.17,1,.21,0,.31,0,.36,0-.18.12-.34.21.14.3a2.64,2.64,0,0,1-.36,0c.22.09,0,.2-.22.28-.48-.06-.08-.17-.85-.2.08.15,1.08.22.87.39.28,0,.45-.05.48,0-.15.06-.09.08.13.13a1.21,1.21,0,0,0-.59.1c.46.18-.34.33.4.5-.3.34-.16.84.33,1.12-.29,0-.12.12-.59.1.45.13-.29.19.26.28,0,0,0-.05.24,0s.08.06.13.15c-.19,0-.42,0-.36,0,.78.08,0,.24-.09.34a1.18,1.18,0,0,0,.36,0c.07.08.16.24-.46.25-.13-.06.51-.07.11-.11a2.18,2.18,0,0,1-.36,0c.7.24.5.56.41.71s.38.09.37.11-.55.12-.34.23c0,0,0,0,0,.09s.27.25-.22.3c-.3,0-.18-.17-.37-.11,0,.08.19.1,0,.17.62,0,.51.12.25.15a1.31,1.31,0,0,0-.62-.2c.2.13.74.39-.33.36.12,0,.15,0,0,0-.3-.09-.56-.06-.85-.13,1.05.28-.62.5.9.76-.23,0-.27,0-.48,0,0,.07.38.06.25.15s-.26,0-.48,0a.33.33,0,0,0,.25.15c-.06-.1.19-.13.59-.15-.17.14.38.21-.21.34.11-.08-.36-.07-.25-.15-.28,0-.76,0-.71.08a2.34,2.34,0,0,1,.48,0c-.54,0-.69.26-.69.38.45,0,.34-.05.72,0-.13,0-.13.07-.11.13a2.88,2.88,0,0,0-.72,0c-.1.07.4,0,.37.09-.46,0-.24.11-.59.12.41.1.08.12-.23.11a3.61,3.61,0,0,0,.61.17,2.26,2.26,0,0,1-.48,0c.13.09.07.08-.11.15l.49.09c-.24,0-.07.09-.36,0-.22.23,1.15.32.87.43.89,0,.55.12.25.19.28,0,.45-.05.48,0-.26.06-.22.11-.1.19a3.12,3.12,0,0,1-.6,0c.2,0,0,.12.13.13a1.1,1.1,0,0,1,.35-.06c0,.05.21.06.13.13h-.36c.67.18.09.43.64.52.11.07-.31,0-.35.08a2.55,2.55,0,0,0,.36,0c.28.05-.62.3,0,.17,0,.1-.51.13-.22.19a.45.45,0,0,1,.36,0c-.18,0-.38,0-.36,0a1,1,0,0,1,.37.11c-.33-.06-.21.1-.11.13s0,0,.12,0,.31.16,0,.19,0-.08-.25-.09.17.1.25.17c-.71,0,.55.22-.34.23.45-.17-1.1-.29-.15-.39-.68,0-.28-.08-.49-.17a1.44,1.44,0,0,1-.48,0c-.09.1.14.06.25.09-.13,0,0,.08-.35.06,0,0,0-.06-.13-.06.1.09,0,.13-.35.15.29.11,0,.19.15.43.21,0,.37,0,.48,0-.53.28.55.54.3.75.37,0,.69,0,.73.07a2.3,2.3,0,0,1-.72,0c.49.2-.22.32-.08.54,1,.09.06.38.88.52-.18-.1-.19-.23.22-.28s.6.33-.21.3c.44.12-.48.22.26.26-.76,0-.71.27-.45.41,0,0-.13,0-.11.09.11.28,0,.63.55.9-.19,0-.42,0-.36,0,.31,0,.62,0,.61.06-.26,0-.39-.06-.36,0,.2,0,.36.07.13.11.18,0,.29,0,.36,0s-.07.07-.23.09-.1-.05-.36,0c.27.08.16.1.38.19.41,0,0-.07.47-.08,1.55.46,1.17,1,1.45,1.5-.31,0-.2-.13-.37-.06.34.21.71.25.15.41,0,.08.43.08.61.13-.3.08.56.3-.21.38.44,0,0,.11.37.15-.44,0-.34,0-.11.06-.69,0-.16.12-.59.15.41,0,.33.09.13.17.18,0,.29,0,.36,0-.27.11.36.26-.45.32.56.06.41.34-.08.41.68,0,.57.26.26.26a7.16,7.16,0,0,1,.86.25l-.48,0c-.1.39.61.71.11,1.2a.9.9,0,0,1,.36,0c-.9.15.77.48-.68.49,0,.11.42,0,.61.08-.1.24.31.42-.19.56.34.13.22.2.51.36-.27,0-.14-.06-.36-.06.08.2.4.31-.2.47.56,0,.41.11.85.12,0-.12,0-.26.69-.32.24.09-.43.13-.1.17.79-.21-.14-.33-.05-.58a2.67,2.67,0,0,1,.36,0c.21-.08-.09-.18-.26-.25.74-.41-.68-.89.25-1.28-.55-.12-.52-.35-.65-.55.57,0,.16.24.74.28,0-.11-.4-.53.44-.47a2.23,2.23,0,0,1-.72,0c-.09-.06.23,0,.23-.09-.68,0-.33-.39-.28-.51a.57.57,0,0,1-.24,0c.22,0-.46-.18,0-.26,0,0,0,.08.25.08.43-.09-.48-.07-.37-.17.28,0,.14.06.37.06-.18-.18.07-.5-.18-.66s-.09.07-.48,0c.06,0-.15-.11.11-.11s.2,0,.36,0c0-.33-.22-.65-.09-1,.55-.05-.14-.31,0-.43s-.17-.4-.29-.62.19-.69-.44-1c.19,0,.42,0,.36,0a2.36,2.36,0,0,1-.48,0c.08-.1.31-.17.7-.21-.24,0-.43-.05-.61-.09,0,0,.35.11,0,.13-.05,0-.35,0-.25-.11.76-.09.26,0,.47-.17,0,0,.1.06.24.06-.39-.1.25-.25-.15-.34-.19.11-.06.15-.34.23-.09-.11,0-.14-.26-.24.22,0,.41.06.48,0-.51-.1.79-.26.21-.41.11,0-.18.12-.23.06s.18-.07.23-.11c-.83-.08-.09-.24-.51-.34a2.09,2.09,0,0,1,.47-.06c-.4,0-.54-.23-.5-.28.38,0,.1.1.37.11-.1-.21-.52-.29-.75-.39,0,0,.34,0,.36-.06-.52,0-.65-.13-.74-.24a6.89,6.89,0,0,1,.72,0c-.14,0,0,.1.13.13s.44.06.73.07a.56.56,0,0,1-.36,0c.29.16,0,.35.28.51a1,1,0,0,0-.36,0c.42,0,.08.07.37.07a1.09,1.09,0,0,1,.61.09.56.56,0,0,0-.36,0c.74.05-.07,0,.38,0a.4.4,0,0,1-.36-.16h.48c.07,0,.13.5.15.57s.59,0,.48.15c-.55,0,.25.29-.58.31.41.2-.15.3.4.47-.2,0-.39.14-.11.16-.09,0,.23-.09.24,0-.52.31-.15.74-.39,1.07a.62.62,0,0,1,.23,0v.09a2.61,2.61,0,0,1-.36,0c.31.07-.43.18-.22.23s.14,0,0,0a1.28,1.28,0,0,1,.49.06s-.05-.08.11-.09c.51.18,0,.45-.07.64.23.07.4-.07.6,0-.43.07.59.16,0,.19-.31,0-.22-.22-.73-.13.32.1,1.1.17.62.3,1.18,0,.67.27,1.23.36-.23.05-.58.19-.22.28.12-.15.38-.28,1.05-.34,0,0,0,.06.13.06s-.54-.08-.38-.19c-.46,0-.17.12-.59.13-.08-.17-.15-.32.08-.45-.1.07.4,0,.37.09s-.33.12-.11.13c.63,0,1.09.27.52.4.69.06,0,.19,0,.21a.91.91,0,0,1,.48,0c-.55,0-.38.22.13.11,0,.09-.29.11-.47.11a7.19,7.19,0,0,0,.86.19c-.3,0-.38,0-.48,0a2.64,2.64,0,0,0,.36,0,.56.56,0,0,1-.24,0c.87.08-.39.26,0,.3,0,0,0-.05.24,0,0,.1,0,.2-.46.23.54,0-.19.07-.11.15.8,0,.91.39.27.36.31.07.68.12.26.21.63,0,.14-.14.47-.17s0,.23.27.3a4.7,4.7,0,0,1-1,.09,4.59,4.59,0,0,0,.61.1s0-.06.11-.06c.45.08.27.24-.46.24.11-.05-.54-.07-.48,0,.51,0,.42.17.86.21.17-.1-.36-.06-.25-.15a3.69,3.69,0,0,0,.72,0c-.06.13,0,.19.14.28-.24,0-.16-.06-.48,0-.12.08.41,0,.49.08a1.13,1.13,0,0,1-.47.11c.66.18.33.31.41.55.53,0,0-.13.35-.13.67.23.56.48,1.14.72-.17,0-.21,0-.36,0,.55.13,0,.22.5.25-.55.31-.05,1-.73,1.28,0,.16.79.37-.08.49.49.08,0,.29.39.36,0,0,.2,0,.24,0-.48.34.67.5.32.89.61,0-.2-.27.7-.24.07-.21.46-.28.44-.47,0,0,0,.06.12.06s0,0,.12,0c-.06.1.06.16.38.19-.11-.15-.24-.35.2-.49.53,0,0,.32.27.34.21-.13.49-.25.56-.41.38.07,0-.06.48,0s0,.15.14.21.34-.07.36,0c-.16.07,0,.07,0,.15-.16,0-.37-.08-.48,0,.31.08.86.23.27.3.23,0,.26,0,.48,0,0,.05,0,.1.13.13h-.36a2.63,2.63,0,0,0,.86.25c-.11.07-.32.33.15.36.17-.11-.44-.26.33-.34-.07-.29.14-.62-.07-.8s.18-.28.09-.38-.41-.26.21-.32c-.25.07.21.14-.1.21.18,0,.29,0,.36,0-.68,1,1.87,2.18,1.51,3.33,1.08,0,.68.31.4.42.67,0,0,.19.5.21.26-.05,0-.2.46-.21a4.18,4.18,0,0,1,.72,0c.24.25-.74.41-.19.53,0-.13.87-.24.8-.45,0,0,1,0,.6,0-.82,0-.15-.1-.61-.14,0-.07.35-.09.71-.11.53.06.43.23.87.31s.69-.08.47-.15c.91-.33-.26-.87,0-1.22,0,0,.32,0,.23-.09s-.82-.49.06-.67c-.21-.13-.07-.24,0-.38-.32,0-.44,0-.37-.12a2.28,2.28,0,0,0,.48,0,.33.33,0,0,0,.25.15c.16,0,0-.11.47-.09,0,.14.54.19.63.31,0,0,.34,0,.23-.11-.69-.09-.65-.31-1.59-.35a2.62,2.62,0,0,1,.84,0c.62-.16,0-.41.43-.57a3.59,3.59,0,0,1,.73.1c.05-.15.32,0,.6,0-.41-.11-.34-.31-.52-.46,1.35-1.06-.22-2.27.43-3.28a3.78,3.78,0,0,1-.55-.82c-.55-.12-.86-.37-.52-.48-.32-.07-.34-.38-.4-.48,0,.13.16,0,.36,0,0,.18-.13.3.51.34a.82.82,0,0,1-.23.06s0,0-.12,0,.78,0,.85.08c-.63,0,.13.15-.71.13-.07-.07.28-.09-.13-.1,0,.19.15.36.28.46.42-.07-.16-.22,0-.32l.6,0c.28-.11-.12-.21.45-.27.43.29-.38.23-.32.42,0,0,.1,0,.12,0s-.08.2.15.31c-.17,0-.92.19,0,.19-.11-.08-.16-.18.34-.21.21-.18-.73-.28-.28-.4.05.09.24.16.62.19.07-.09-.5-.07-.38-.17s.21,0,.36,0c-.23-.1-.45-.28.09-.31a3.83,3.83,0,0,0,.52.34c-.17,0-.46-.1-.24-.1h.24c.5,0-.5-.15.33-.28-.07.09.34.24,0,.31.66,0,.79.27.63.39.83-.29-.64-.5-.79-.76.43,0,.44.15.85.07-.72-.29.35-.68.28-.94.45.25.65.47.42.67,0,.07.34-.05.36,0-.42.17,0,.51.31.78a1.31,1.31,0,0,0-.36,0c.88.13.23.37.53.5,0,0,0,0,.12,0-.25.31-.22.73.45,1h-.48c.49.32,1,.8.46,1.17.26,0,.38,0,.37.06-.24.91,1.09,2,.74,2.8,0,0,0-.07.23-.06-.64.39-.32.73-.26,1.09-.18,0-.51.07-.71.11.52,0,.27,0,.84,0-.52.17-.46.39-.18.57h-.36c.48.13.65.3.28.42a1.09,1.09,0,0,1,.36,0c.11.11.18.2-.22.21.12.06.05.13-.35.17.11.08.59,0,.72,0a3.22,3.22,0,0,0,.14,2.76,2.9,2.9,0,0,0-.21-2.17c.34,0-.16-.14.35-.11-.45-.4.5-.94-.12-1.32a1.43,1.43,0,0,0,.36,0,1.12,1.12,0,0,1-.61-.08c.53,0,0-.19.57-.3-.53,0,0-.28.09-.34a2.06,2.06,0,0,1-.49-.06c.44,0-.06-.1.35-.15-.54-.06-.22-.17-.39-.27.72,0,.34-.15.34-.25-.18,0-.29,0-.36,0,.27-.53-.08-1,.33-1.63,0,0,0,0,.12,0s-.33,0-.25-.1a2.28,2.28,0,0,1,.48,0c-.25-.1,0-.23.09-.33a1.41,1.41,0,0,0-.48,0c0-.05-.22,0-.13-.1s.16.06.48,0c.15-.1-.4-.07-.25-.17.57,0,.12-.11.47-.17a4.27,4.27,0,0,0-.72,0c.1-.06.18-.1-.13-.12h.36c-.11,0-.59-.2,0-.23-.14.09.51.18,0,.29,1,0-.23-.41.68-.48.19.46,0,.82,0,1.3.21,0,.31,0,.36,0s.16.12-.11.13.28-.09-.25-.08a.36.36,0,0,0,.15.35A.79.79,0,0,1,48,36.2c-.53.37-.1.82-.13,1.15a9.77,9.77,0,0,1-.46,1.49h-.24c.58.19-.23.37.41.52a1.08,1.08,0,0,1-.59.13c.07,0-.13.12.13.12-.06-.09.13-.14.59-.15a.52.52,0,0,1-.19.57c.47.19.1.5.54.66.35-.12-.49-.39.68-.42-.27.13.56.23.16.37.41,0,.41,0,.25.12,1,.09,0,.41.66.58a2,2,0,0,0-.58.19c.39,0,.16-.08.48,0,.07,0-.16-.12.11-.13a7.35,7.35,0,0,1,.71,1.16c1.12,0,.24.22.51.29.54-.1.12.17.14.25s.43.39.65.49c.56-.1-.24-.21.09-.33a2.16,2.16,0,0,1,.6.06c-.2,0,0,.14.37.12-.17-.11,0-.17.21-.27.36.12,1.11.27.4.41.54.08.31.24.52.41.65,0,.47.15.51.29.55.1.82,0,1,.16.23-.06-.13-.09.11-.13.57,0,1.15.07,1.1.22-.17,0-.2,0-.36,0a1.11,1.11,0,0,0,.62.24c-.29.1.05.08.14.14s-.29.28.39.33c.26-.08-.21-.18.46-.21.33.08-.31.14.13.14s-.19-.26.45-.27V45c.36,0,.33-.11.72,0-.07,0,.13-.11-.13-.1,0,0-.09.07-.35.07,0-.05.05-.17.09-.25.74.14.74.48.67.66a4.11,4.11,0,0,1,.61.06c0-.1,0-.19-.25-.08-.06-.08.25-.1.47-.13.59.14-.13.12,0,.25C60.47,45.3,60.67,45.27,61,45.32ZM17.85,34.76c-.42,0-.15-.07,0-.11S17.92,34.74,17.85,34.76Zm-1-3.35-.38-.19a2.63,2.63,0,0,0,.36,0c0,.06,0,.11.25.13C17,31.39,16.83,31.38,16.84,31.41Zm-4.28-8.24a.83.83,0,0,0,.36,0c.26,0,.26.05.25.11-.25,0-.23,0-.48,0,0,0,.17.13-.23.11C12.61,23.29,12.56,23.23,12.55,23.17ZM28.87,10.65c-.31,0,.16,0,0-.08h.36c.05,0-.08.05-.11.08S28.89,10.63,28.87,10.65ZM74.92,9.37c.22-.09-.47-.23.1-.24C75.21,9.18,75.54,9.36,74.92,9.37ZM68.94,29c-.13-.1-.19-.2,0-.33C69.21,28.77,69.12,28.89,68.94,29Zm-8.7,16.11c-.24,0-.16-.05-.49,0-.06-.06.21-.08.11-.15.14,0,.1,0,.13.06a.59.59,0,0,0,.24,0C60.48,45,60.35,45.09,60.24,45.11Zm-4.17-.84c-.25,0-.27-.08-.25-.14a1,1,0,0,1,.49.12A.58.58,0,0,0,56.07,44.26Zm-3.7-1c-.27,0-.62-.19,0-.19C52.24,43.12,52.37,43.11,52.37,43.22Zm11.77-2.47c-.18.08-.52-.16,0-.14C64.1,40.63,64,40.72,64.14,40.74Zm.55-.54c-.25,0-.25-.1-.36,0s-.32-.2.1-.19C64.34,40.08,64.57,40.13,64.69,40.2ZM24.94,36.26c-.37,0-.29-.14-.14-.17C25.25,36.12,25,36.22,24.94,36.26Zm21.64-1c-.51,0-.11-.09-.13-.12C46.78,35.16,46.75,35.26,46.58,35.29ZM46,32.84c.47,0,.1.11.37.12s-.06-.06.11-.1c-1.24-.21-.43-.61-.56-.92s-.67-.47-.54-.65a1.21,1.21,0,0,1,.36,0c-.33-.07.06-.16,0-.25.39,0,.3,0,.23-.08a2.88,2.88,0,0,0,.6,0c.09.06-.24,0-.35.06a4.37,4.37,0,0,0,.61.08c-.08,0-.36,0-.47.08,0,0,.33,0,.37.08.39,0,0-.2.58-.25.08.1-.3.13-.22.23.19,0,.22-.13.34-.19-.44-.18-1.58-.15-1.71-.35a.42.42,0,0,0-.35.13c-.6-.15.1-.31-.52-.42a.81.81,0,0,1,.35-.08c-.08-.06-.58-.19-.14-.21,0,0-.4,0-.37-.06.77-.14-.36-.42.19-.57-.55-.1-.46-.35-.28-.44-.92-.11-.58-.5-.06-.65-.07-.16-.38-.15-.39-.29,0,0-.43.13-.23.15-.44,0-.38-.1-.38-.25s.14,0,.12,0c.19-.21-1.2-.64.29-.88,0,.09,0,.16.26.21-.2,0,.35-.29-.39-.31-.06-.07.14-.09.35-.1s.56,0,.49.08c.29,0-.08-.1.35-.06,0,.14-.27.22-.21.36.25,0,.34-.13.34-.27.66.31.77.5.55.84.55,0,.38.06.83,0-.24.22.51-.29.29.71h-.24c-.26,0-.23-.22-.24-.25-.36,0,.08,0,.49,0,0,.07.21.06.14.14-.26,0-.26-.08-.25-.13-.51.06.13.2.39.3s-.41,0-.35.06a.32.32,0,0,1-.07.62,1.29,1.29,0,0,0,.6,0c.08.08,0,.12-.35.12.61.08.13.21-.09.31,0,.07.39,0,.36,0s-.09,0-.24,0,.52.06.37.17c-.3,0-.64,0-1.08,0A4.23,4.23,0,0,0,47,30c.12.09-.33.08-.35.15.52,0,1.35.11.5.17-.1-.07.13-.09.23-.13a2.89,2.89,0,0,1-.6,0c.34.1.05.11-.1.21a5.68,5.68,0,0,0,1.08,0c-.18.07-.26.15-.46.21s-.24-.07-.25-.13a3,3,0,0,0-.6,0c.07,0,.18,0,.36,0,0,0-.18.08-.11.15a2.28,2.28,0,0,1-.48,0c.37.13,1.19.07,1.1.21.15,0,.25,0,.23-.06,1,.23-.37.57.43.75-.26.07-.38,0-.11.1a2.48,2.48,0,0,1-1.09-.12,4,4,0,0,1,.48,0c.08-.1.6-.26,0-.4,0,.19-.42.31-.44.46a2.06,2.06,0,0,0-.6,0c.12.07.69-.06.84,0-.33,0,.24.17-.22.27A.37.37,0,0,0,47,32c.31,0-.35.08-.23.15a.85.85,0,0,0,.23-.06c.36,0-.11,0,0,.08s.09,0,.12,0c.32,0,.12.11.37.12-.24,0-.59.3-.11.34-.52.27-.53.05-.52,1.05h-.36c.47,0,.22.19.29.39-.91-.15-.26-.5-.42-.72S45.82,33,46,32.84Zm.86,1.61c-.91-.14-.15-.42-.42-.63C47.2,34,46.81,34.29,46.87,34.45Zm19.58-1.19c-.52-.07-.21-.15-.38-.27C66.36,33,66.72,33.18,66.44,33.26ZM45.48,31c-.32,0-.4,0-.37-.08h.36Zm24.7-.18c-.34,0,0-.15,0-.21C70.46,30.7,70.25,30.82,70.19,30.87ZM47,30.81a2.47,2.47,0,0,1,.84,0C47.76,30.87,47.38,30.81,47,30.81Zm.11-.06c-.14,0-.11,0-.13-.06.34,0,.31,0,.6,0C47.61,30.72,47.28,30.72,47.14,30.75ZM68,30.7c-.27,0-.41-.14.11-.12C68.22,30.64,68,30.66,68,30.7Zm1.26-.64c.05,0,.23-.11,0-.14C69.4,29.87,70,30.08,69.28,30.07ZM43.12,30c-.41,0-.19-.1-.13-.15C43.44,29.91,43.08,30,43.12,30ZM70.35,30c-.49,0,0-.16-.38-.18,0-.07.54,0,.48,0S70.4,29.91,70.35,30Zm-49.83-.35c-.25,0-.24-.06-.49-.06,0,0,.38,0,.23-.09C20.61,29.49,20.5,29.57,20.52,29.63Zm.22-.21c-.05-.09-.29-.17-.14-.28C21.09,29.18,20.78,29.35,20.75,29.42Zm-3-.06c.25-.05-.12-.12.11-.15C18.29,29.2,18.18,29.39,17.74,29.36Zm2.64,0c-.29,0-.51-.08-.25-.13S20.58,29.3,20.38,29.34Zm.09-.34c-.26,0-.44-.1-.25-.17s.06.08.13.11c.26,0,0-.08.11-.11C20.82,28.88,20.55,28.92,20.47,29Zm-.78-.7c-.59,0,0-.17-.26-.21C19.9,28.13,19.5,28.2,19.69,28.29Zm.47-.09c-.24,0-.15-.16,0-.19.29,0-.06.1.37.06A1.34,1.34,0,0,0,20.16,28.21Zm23.15-.05a1.5,1.5,0,0,1-.76-.44c.23,0,0,.1.49.06C43,27.93,43.27,28,43.31,28.16Zm-23.64-.1c-.17,0-.72-.23,0-.28C19.35,27.85,19.66,28,19.67,28.06Zm1-.11c-.3,0-.56-.07-.37-.11S20.67,27.88,20.62,28Zm-.49-.11c-.2-.07-.08-.21-.15-.32.62,0-.11.21.62.21.05,0-.08.06-.11.09S20,27.75,20.13,27.84Zm49.16-.41c-.4,0-.19-.06-.25-.1C69.45,27.31,69.47,27.4,69.29,27.43Zm-49.08-.12c-.24-.16-.08-.38-.41-.64-.51,0,.12.1-.23.15s-.2-.12-.26-.19c.43,0,.6,0,1.08,0C20.35,26.89,20.7,27.07,20.21,27.31Zm24.68-.39c-.58,0-.48-.13-.5-.23C45,26.71,44.91,26.84,44.89,26.92Zm-1-.27c-.6,0,0-.33-.13-.08C43.88,26.58,43.91,26.61,43.91,26.65Zm-24.38-.3c-.46,0-.16-.1-.25-.15C19.62,26.23,19.42,26.26,19.53,26.35Zm.35-.17a.81.81,0,0,1-.49-.11,3.36,3.36,0,0,0,.48,0Zm-1.36-.51c-.11,0-.41-.08-.13-.09,0,0-.15,0-.24,0,.1-.06.18,0,.48,0C18.71,25.6,18.42,25.6,18.51,25.67Zm.1-.21c-.11,0-.22,0-.24,0-.26,0-.06-.08-.13-.11C18.46,25.37,18.67,25.39,18.62,25.45Zm-1.12-.52c-.42,0,0-.09-.25-.15C17.69,24.77,17.4,24.89,17.49,24.94Zm-4.08-.08c.13-.08.26-.16.95-.15A5.42,5.42,0,0,1,13.41,24.86Zm3.48,0c-.19,0-.4-.14-.48,0-.52,0-.07-.14-.14-.21A1.3,1.3,0,0,1,16.88,24.83Zm52.78.05c-.25,0-.23,0-.48,0,.24-.13.24-.16.22-.29C69.83,24.62,69.59,24.78,69.67,24.88Zm-55.44-.21c-.51,0-.53-.18,0-.15C14.13,24.6,14.5,24.63,14.23,24.67Zm2.88,0c-.37,0-.29-.14-.14-.17S17,24.55,17.11,24.64Zm52.41-.11c-.44,0-.23-.11-.13-.12S69.72,24.5,69.52,24.53Zm-53.64-.24c-.36,0-.43-.08-.25-.11S15.89,24.24,15.88,24.29Zm-1-.43c.07-.14-.45-.26-.27-.36.37,0,.36,0,.72,0-.22,0,0,.15-.47.13C15.3,23.68,14.91,23.79,14.89,23.86Zm.12,0c.2,0,.7,0,.6.07-.72-.07.07.1-.59.11C15.11,23.9,15,23.92,15,23.82Zm-2.3-.24c-.36-.06-.11-.08,0-.15C13,23.48,12.8,23.51,12.7,23.58Zm58.21-1.05c-.19,0-.21,0-.36,0s.2-.09.11-.16C71,22.35,71.1,22.48,70.91,22.52ZM15,22c-.42-.05,0-.13-.49-.17.08-.11.33-.15,0-.24h.6C14.92,21.75,15.22,21.91,15,22Zm55.78.13c.19-.07,0-.1.11-.16C71.26,22,71.2,22.19,70.76,22.17Zm-56.06-.56c-.61-.07-.57-.24-.14-.32-.57-.09-1-.17-.51-.32.35.06-.08.2.86.24C14.74,21.39,14.94,21.53,14.71,21.62Zm1.56,0c-.35,0-.29-.12-.13-.15.33,0,.47.06.49.13A1.09,1.09,0,0,0,16.26,21.58Zm.22-.19c-.44,0,0-.09-.13-.17.22,0,.25,0,.48,0A.79.79,0,0,1,16.49,21.39Zm57,.12c-.22,0-.22-.1-.13-.14C73.8,21.39,73.36,21.44,73.46,21.51Zm-60.35-.35c-.27,0-.06-.09-.13-.13.27,0,.26,0,.23-.06C13.7,21,13.16,21.1,13.11,21.16Zm1.79-.1h-.36V21C14.9,20.95,14.79,21,14.9,21.06Zm58.79.27c-.21,0-.27-.07-.25-.12C73.72,21.21,73.94,21.28,73.69,21.33Zm-1.81-.07c-.23,0,.09-.08.11-.1C72.48,21.18,72.08,21.23,71.88,21.25Zm-.49-.17c-.31,0-.24-.07-.25-.12C71.53,21,71.58,21.06,71.39,21.09Zm.34-.2a.14.14,0,0,1-.12,0c-.32,0-.09.08-.47.06,0,0-.22,0-.13-.1a.64.64,0,0,0,.24,0C71.56,20.8,71.43,20.88,71.74,20.88Zm-58.92-.48c.14,0,.1,0,.11-.06.22,0,.41.07.48,0s-.38.08-.59.1c0-.08-.33-.05-.13-.13S12.79,20.37,12.81,20.41Zm61.55.33c-.39,0-.55-.12,0-.1C74.51,20.66,74.51,20.71,74.36,20.74Zm-2.52,0a4.84,4.84,0,0,1-.61-.07,2,2,0,0,1,.48,0C71.81,20.62,71.87,20.65,71.84,20.7ZM13.74,20a2.68,2.68,0,0,0-.36,0s.21-.05.24,0A1.23,1.23,0,0,1,14,20c-.07,0-.14,0,0,0C14,20,13.74,20,13.74,20Zm-.49-.15a4.24,4.24,0,0,1,.84,0C13.85,20,13.27,20,13.25,19.89Zm59.86.28a.58.58,0,0,0-.24,0c-.25,0,.25,0,0-.12.2,0,.22,0,.24,0C73.41,20.07,72.76,20.1,73.12,20.17ZM17.3,19.56c-.59-.17-.39-.56-.65-.71C17.41,18.92,17.18,19.34,17.3,19.56Zm-.86-.24h-.36c0-.05,0-.1.11-.13C16.5,19.19,16.44,19.26,16.45,19.32Zm-.37-.15h-.36s0-.09.35-.08ZM14.15,19c-.14,0-.07,0,0,0-.56-.08.32,0,.23-.08.16,0,.1.05.13.09A1.08,1.08,0,0,0,14.15,19Zm2.49-.39c-.42,0-.23-.12-.37-.17C16.81,18.51,16.4,18.59,16.63,18.66Zm60.65-.34c-.18,0-.35-.11-.13-.14S77.21,18.28,77.28,18.32ZM18.45,15.75c.82-.17,1.35,0,1.21.2.18,0,.17-.07.23-.1.38,0,.1.1.37.11a2.3,2.3,0,0,1-.48,0,1.52,1.52,0,0,1,.27.45c-.45,0,0,.11-.47.15.11.06.26-.06.48,0-.09.15-.42.13-.22.3.34,0-.16-.14.35-.1-.18.1-.07.18.14.26a4,4,0,0,1-.6,0c0,.06.17.07.48.07.14.11-.21.13-.47.17-.9-.12,0-.5-.65-.65.28-.25.18-.48.3-.74-.22,0-.07.07-.23.08-.37,0-.24-.13.11-.13A2.42,2.42,0,0,0,18.45,15.75ZM80.1,17.61c-.27,0-.41-.1-.25-.12S80.12,17.55,80.1,17.61Zm.83-.05c-.46,0-.47-.1,0-.08Zm-8.88-.08c-.22,0-.3-.23.34-.18C72.09,17.36,72.14,17.41,72.06,17.48Zm7.79,0c-.56-.12,0-.3-.15-.41a4,4,0,0,0,.72.07c0,.1-.46.18-.22.26C80,17.4,79.74,17.4,79.85,17.46Zm-58.56-.63c-.27,0-.06-.12-.13-.17C21.75,16.71,21.32,16.75,21.29,16.84Zm53.87.42a3.51,3.51,0,0,0-.48,0c-.09-.06.33,0,.23-.1C75.22,17.14,75.15,17.2,75.16,17.26Zm-1.08-.07h-.36c-.29-.1.08-.15.22-.26C74.24,17,73.83,17.09,74.08,17.19Zm-.26-.27c-.37-.18.32-.31,0-.51.29,0,.26,0,.72,0-.38.09-.6.29-.09.33a1.05,1.05,0,0,1-.48,0c.11.06.18,0,.48,0C74.36,16.88,73.89,16.87,73.81,16.92ZM22.34,16.4c-.54,0,0-.06-.13-.13C22.51,16.3,22.43,16.35,22.34,16.4Zm3.34-.18c-.54-.24-.21-.61-.18-.85-.12-.05-.53,0-.47.06-.34,0,0-.09,0-.13.22,0,.26,0,.48,0s0-.1.11-.15c1.18.3.31.58.44,1A1.1,1.1,0,0,0,25.68,16.22Zm-7-.11c-.2,0-.14-.09-.25-.13.21,0,.25,0,.48,0S18.59,16,18.72,16.11Zm55.65.26c-.47,0-.45-.09-.49-.17.21,0,.26,0,.48,0C74.09,16.27,74.41,16.31,74.37,16.37ZM20,15.65c-.28,0-.45,0-.84,0,.08-.12.34-.17.58-.29C20.27,15.41,19.8,15.52,20,15.65ZM17.79,15v.11c-.4-.35-.61-.82-.09-1.24,0,0-.24,0-.24,0a.65.65,0,0,1,.23-.13c.37,0,.21.11.25.17a1.1,1.1,0,0,0,.36,0c.26.21,0,.58.67.9a1.41,1.41,0,0,1-.59.16c.11.06.38,0,.6,0s-.46.09-.11.13c-.1.06-.18,0-.48,0,.19.11.34.19.26.26.4,0,.18-.06.23-.1.43.07.27.22,0,.28-.46,0-.8-.11-.84,0-.43-.1.38-.33-.15-.39-.28.16.16.45-.56.53-.54-.23.14-.42,0-.66Zm4.6.64c-.32,0-.58-.05-.37-.09S22.34,15.57,22.4,15.61Zm-.74-.22c.1,0,.12,0,.24,0,0-.27-.18-.3-.4-.54,1.24-.07,1,.42,1.12.54A1.43,1.43,0,0,1,21.66,15.39Zm-1.81-.14c-.28,0-.32-.07-.61-.09.36,0,0-.18.47-.19C19.37,15.06,20.11,15.14,19.85,15.25Zm5.1-.76c.12,0,.09,0,.12,0s0,.06.24.07,0-.13.11-.19c.57.1.41.31.75.39a3.52,3.52,0,0,1-.72,0c-.4,0,0,0-.23.08.16.06.24-.06.6,0,0,.16-.13.2.26.28-.17.07-.2,0-.11.13-.83,0-.18-.14-.49-.2-.5.07.47.28-.34.27.11-.26-.8-.61.05-.89C25.42,14.39,24.87,14.41,25,14.49Zm-4.4.49c0,.07-.45-.06-.48,0-.37,0,0-.07.11-.08C20.46,14.91,20.33,15,20.55,15Zm-.49-.09c-.3-.16-.13-.52.45-.42C20,14.57,20.55,14.72,20.06,14.89Zm9.57-.27s-.21,0-.24,0c-.54,0,0-.18,0-.25C30,14.42,29.26,14.57,29.64,14.62Zm0-.21V14.3c.11,0,.22,0,.24,0,.17,0,0,.06.25.07C30.07,14.41,29.89,14.42,29.62,14.41ZM20,14.4c-.32-.14,0-.45-.29-.71.94.16.29.4.53.62C19.9,14.29,20.05,14.36,20,14.4Zm10.39-.61c.22,0-.2-.18.34-.21-.1,0-.31-.08-.25-.15a2.4,2.4,0,0,1,.6,0s-.35,0-.36.06a.46.46,0,0,0,.36,0c.23.22.27.32,0,.51-.11,0-.52-.1-.25-.15-.74,0-.31.1-.11.15-.15,0-.47.08-.48,0-.38,0,0-.11-.25-.17s.09.24-.1.27c.29,0,.61,0,.6,0-.83,0-1,.08-1.06.2a3.36,3.36,0,0,0-.48,0c.4-.22-.45-.71-.19-1,.21,0,.25,0,.48,0-.06-.07-.46-.08-.49-.15h.48s-.15,0-.13-.09-.19,0-.36,0V13A.57.57,0,0,0,29,13c.25,0,.64.06.61.15a3.29,3.29,0,0,1,.48,0c-.24,0,.23.12-.11.17a2,2,0,0,0,.48,0C30.37,13.49,30.31,13.59,30.41,13.78Zm-11.65-.21a3.12,3.12,0,0,1,.6,0c-.13.12,0,.15-.1.28.57-.11.41.27,0,.3C18.77,14,19.38,13.72,18.77,13.57Zm-.47.08c-.28,0-.08-.09,0-.11C18.71,13.57,18.43,13.62,18.3,13.65Zm1.07-.12c-.44,0-.53,0-.49-.11.33,0,.24,0,.48,0,.34-.17,0-.34.81-.4-.18.15.11.21.38.32-.12,0-.32,0-.35.08-.28,0-.19-.05-.13-.11C19.62,13.39,19.39,13.44,19.36,13.54Zm-.17-.68c-.28,0-.13-.13.23-.1.09,0,.13,0,.13.09A1.09,1.09,0,0,0,19.2,12.85Zm62.72.27c-.49-.06.1-.1.11-.18.33,0-.09.11.25.1C82.3,13.09,81.8,13.05,81.91,13.12Zm-1.49-.67c-.19-.12.27-.23-.27-.35,0-.07.56,0,.47-.12.22,0,.41.07.48,0,.32.11.31.18.38.29a2.3,2.3,0,0,1-.6,0A1.19,1.19,0,0,1,80.42,12.45ZM22,11.35c-.26,0-.06-.09-.13-.13C22.16,11.23,22.13,11.33,22,11.35Zm-2.29-.11c-.27,0-.06-.11-.13-.15C20.23,11.1,19.58,11.15,19.68,11.24Zm1.38-.79c-.2.06-.44-.05-.37-.11C21.28,10.32,20.87,10.44,21.06,10.45Zm52.74.05a.79.79,0,0,0-.61-.13c-.15-.16,1.32-.19,1.79-.06A2.73,2.73,0,0,1,73.8,10.5ZM33.55,9.17c-.38,0-.39-.05-.37-.11.22,0,.25,0,.48,0C33.68,9.1,33.69,9.15,33.55,9.17Zm39-.8a1.4,1.4,0,0,1-.73-.13,12.43,12.43,0,0,1-1.8,0c-.06-.08.23-.09.35-.14a17,17,0,0,1,1.92.07c.12.06,0,.16.49.15C72.68,8.29,72.69,8.34,72.56,8.37ZM48.8,7.86c-.27,0-.1-.11,0-.13s.23,0,.25.09C48.83,7.81,48.81,7.84,48.8,7.86ZM71.1,8s.14,0,.11-.08c.34,0,.31,0,.6,0A3.22,3.22,0,0,1,71.1,8ZM31.86,7.27c-.45,0-.3-.16.11-.13C32.23,7.19,31.94,7.22,31.86,7.27Zm1.86-.84v0c.39,0,.57,0,.6.05A4.31,4.31,0,0,1,33.72,6.43Z" fill-rule="evenodd"/><path d="M70.47,28.56c-.26.1,0,.22.15.33-.56,0,.17.05-.23.06s.1-.32-.51-.39c-.16,0-.1.05-.11.08-.29,0-.06-.18.34-.16C70.1,28.56,70,28.6,70.47,28.56Z" fill-rule="evenodd"/><path d="M13.79,28s-.33,0-.25-.09.22-.21-.26-.28a.56.56,0,0,1,.36,0c-.4-.25-.12-.44-.78-.66.45.06.28-.21-.13-.15.33-.29.15-.74-.68-1,.18.11-.24.46.27.55-.53-.05-.07.27.13.27h-.36a9.41,9.41,0,0,1,.35,2.58c.43.09-.14.3.76.39-.25.12-.35.12-.1.24-.68,0-.05.11-.59.09.26.1-.3.2.14.25.11-.13-.24-.22.34-.26-.13.13.2.26-.33.34.16.1.61.28.15.36.55,0-.1.11.26.17.21,0,.3,0,.36,0,.26.08-.25.19,0,.26,0,0,0-.05.24,0s-.2.06-.11.13c.4,0,.19-.09.35-.13-.38,0-.43-.29-.15-.32s.5.1.13.17c.33,0,.24,0,.48,0,0-.07-.4-.07-.37-.15.32,0,.46.06.73.08,0-.08-.48-.06-.49-.13.22,0,.41.06.48,0-.36,0,.15-.11.23-.15-.7,0,.05-.11-.37-.15.16.07-.33.12-.47.06.41,0,.12-.09.34-.17s.14,0,.24,0,.66.08.12,0a3.38,3.38,0,0,1,.33-.36.82.82,0,0,1-.23.06c0-.13.43-.11-.13-.13,0-.09.53-.08.71-.13-.43,0-.11-.1-.49-.09,0,0,.18.13-.23.11.07-.14.07-.16-.14-.28.23,0,.26,0,.48,0-.16.06-.16.16.26.17.15-.12-.12-.18-.5-.26.39-.05.1-.13-.13-.13a2,2,0,0,1,.72,0c-.12-.12-.14-.17.22-.26a2.26,2.26,0,0,0,.36,0c-.31-.09-.16-.1.11-.17-.41-.07-.76-.35-.28-.49-.49-.08-.34-.16-.51-.36-.53,0,0,.13-.35.13s-.76-.18-.26-.24c.29,0-.06.1.37.06C14.72,27.62,13.94,27.9,13.79,28Zm.43,2.25h-.36c-.14-.07.18-.05.23-.09S14.19,30.23,14.22,30.26Zm.47-.17c-.4-.07-1-.17-.5-.28h.48c.08,0-.34.09,0,.11-.11.07-.24,0-.36,0C14,29.95,14.87,30,14.68,30.09Zm-.21-1c-.32,0-.37-.23.1-.26C14.54,28.89,14.7,29,14.48,29.06Zm.83-.13c-.31,0-.24-.11-.26-.19C15.49,28.77,15.4,28.85,15.3,28.93Zm-.73-.17c-.17,0-.23-.07-.25-.13C14.77,28.61,14.75,28.73,14.57,28.76Zm1-.09c-.32,0-.4,0-.37-.09C15.47,28.58,15.55,28.62,15.52,28.67Zm-1-.06c-.79,0,.08-.28.46-.24C14.66,28.45,14.53,28.52,14.56,28.61Zm-.5-.19c-.12,0-.05-.09-.13-.17C14.44,28.27,14.26,28.37,14.06,28.42Zm1.31-.08c-.31,0-.58-.07-.72,0,0-.1.11-.12.22-.28C15.32,28.09,15.43,28.2,15.37,28.33Z" fill-rule="evenodd"/><path d="M56.42,45.32c-.11,0-.54-.18,0-.19C56.28,45.22,56.38,45.22,56.42,45.32Z" fill-rule="evenodd"/><path d="M20.63,45.4c-.15,0,.19-.25-.15-.3C20.89,45,20.79,45.35,20.63,45.4Z" fill-rule="evenodd"/><path d="M50.37,43.66c-.15,0-.41-.05-.37-.12.32,0,.25-.07.59-.07C50.32,43.53,50.19,43.57,50.37,43.66Z" fill-rule="evenodd"/><path d="M43.31,42.7c.07.07-.42.06-.35.13-.28,0-.13-.13.23-.11a.93.93,0,0,0-.36,0A.66.66,0,0,1,43.31,42.7Z" fill-rule="evenodd"/><path d="M35.9,40.5a2,2,0,0,1-.61-.08C35.6,40.11,35.23,40.44,35.9,40.5Z" fill-rule="evenodd"/><path d="M32.41,40.42c-.05,0-.15,0-.36,0a3.4,3.4,0,0,1,.34-.21C32.81,40.26,32,40.37,32.41,40.42Z" fill-rule="evenodd"/><path d="M11.37,40.17a1.44,1.44,0,0,0,.36,0c.06.14-.76.24-.33.37.27,0,0-.11.23-.13s-.11.09.14.17l-.72,0c-.15-.18.06-.16,0-.39.42.06.17-.12.35-.11-.48,0-.41-.08,0-.13-.12-.06-.32,0-.48,0,.26-.08-.2-.24.34-.22,0,0,0,0,.12,0-.13-.05-.53,0-.49-.06.41.07.32-.05.47-.09.72.11.21.39.53.53C11.73,40.13,11.53,40.14,11.37,40.17Z" fill-rule="evenodd"/><path d="M25,40.46c-.29,0,.17-.16.1-.23C25.43,40.29,25,40.39,25,40.46Z" fill-rule="evenodd"/><path d="M33.34,40.1c-.22,0,.21-.12.1-.19.33,0-.08.12.25.1C33.58,40,33.37,40.06,33.34,40.1Z" fill-rule="evenodd"/><path d="M38.34,38.29c-.11-.05-.11-.14,0-.23S38.51,38.22,38.34,38.29Z" fill-rule="evenodd"/><path d="M21.81,37.42c-.28,0-.32-.14-.26-.19S21.69,37.36,21.81,37.42Z" fill-rule="evenodd"/><path d="M18.51,36.8c-.24,0-.06-.15-.49-.15C18.29,36.59,18.78,36.76,18.51,36.8Z" fill-rule="evenodd"/><path d="M11.75,36.37c-.49,0-.78.1-.46.17-.48,0-.34-.24-.75-.34.18.08.7.08.49.13,0,.05.53,0,.48,0C11.68,36.31,11.55,36.37,11.75,36.37Z" fill-rule="evenodd"/><path d="M69,35.46c-.54-.17.22-.47-.66-.61.3,0,.19-.1.59-.11-.3.2.39.28-.08.43C69.34,35.23,69.05,35.38,69,35.46Z" fill-rule="evenodd"/><path d="M21,35.6c.35,0,.13,0,.11-.09.18-.08,0,.09.36,0,0,.06,0,.12-.35.11,0,0,0,0,.12,0l-.36,0S21,35.58,21,35.6Z" fill-rule="evenodd"/><path d="M20.87,34.94s0-.09.35-.09c-.12.09.21.11.25.17s.09,0,.12,0c.68.1.16.32-.2.47a3.1,3.1,0,0,1-.48-.06C21.66,35.36,21.13,35,20.87,34.94Z" fill-rule="evenodd"/><path d="M13.29,34.73c0-.05-.21-.06-.13-.13l.48,0c-.59-.32.49-.82-.46-1.15.77-.12-.58-.25.21-.32a4,4,0,0,1-.6,0c.44.15.09.37-.57.39.65,0-.72,0-.13-.11-.27,0-.45.06-.48,0l.59-.11a.79.79,0,0,0-.25-.13,1.41,1.41,0,0,0,.36,0c-.69,0-.18-.11-.13-.15-.42,0-.36.16-.82.2.4,0,.06,0,.13.11a1.39,1.39,0,0,0-.36,0c.13,0-.26.1.13.15a.56.56,0,0,1,.36,0c-.18.11.2.23-.33.34.67,0,.35.09.25.17A2.34,2.34,0,0,1,12,34s-.32,0-.48.07c0,0-.24-.13-.36-.06.34,0-.09.15.25.15q0-.07.36-.07c-.3.05.26,0,.13.13a7.8,7.8,0,0,1,.84,0c-.61.05.25.12.26.19a5.81,5.81,0,0,1-1.07.13c.09.07,0,.09.13.11s.32,0,.47-.07c.27.13.16.18,0,.32.33,0,.51.07.37.13C13.31,35,12.65,34.79,13.29,34.73ZM13,33.9a1.37,1.37,0,0,1-.36,0c-.1,0-.16-.06-.13-.11C13,33.78,12.47,33.93,13,33.9Z" fill-rule="evenodd"/><path d="M68.49,34.66c-.3,0,.23-.1.1-.16.33,0,.32.11.38.18C68.8,34.65,68.62,34.58,68.49,34.66Z" fill-rule="evenodd"/><path d="M21.41,34.32s.33,0,.25.08a2.39,2.39,0,0,0-.59.09c-.13,0-.08,0-.24,0,.61,0,.16-.15.94-.17A.85.85,0,0,1,21.41,34.32Z" fill-rule="evenodd"/><path d="M21.4,34.25c-.39,0-.19,0,0,0,0,0,0-.06-.13-.06a.79.79,0,0,1,.48.06C21.52,34.2,21.39,34.21,21.4,34.25Z" fill-rule="evenodd"/><path d="M70.35,34s-.12,0-.12,0c-.29,0,0-.19-.26-.25.07,0,1,.28.27.29C70.22,34,70.26,34,70.35,34Z" fill-rule="evenodd"/><path d="M70.57,33.72a1.8,1.8,0,0,0,.71-.17c-.36,0-.21-.21-.27-.37.38.07.71.46-.07.51-.08.11,0,.12-.1.23-.46-.14-.44-.45-.41-.59C70.79,33.37,70.5,33.62,70.57,33.72Z" fill-rule="evenodd"/><path d="M21.33,33.4c-.17.08-.14,0-.48,0V33.3c.25,0,.23,0,.48,0,0-.07-.67,0-.49-.11s.17,0,.36,0c-.29-.07-.3-.16,0-.23s.15.08,0,.13c.22,0,.33.05.6.06-.09,0-.12,0-.11.09-.14,0-.1,0-.13-.06S20.93,33.38,21.33,33.4Z" fill-rule="evenodd"/><path d="M70.39,33.11a2.57,2.57,0,0,0,.35-.08c.16,0,.1.05.13.08-.18,0-.38,0-.36,0-.15,0-.61,0-.61-.12C70.38,33,70.22,33.08,70.39,33.11Z" fill-rule="evenodd"/><path d="M69.41,32.86c-.35,0,.11-.12-.14-.16C69.71,32.71,69.41,32.82,69.41,32.86Z" fill-rule="evenodd"/><path d="M21,32.89s0-.08.23-.09c-.11-.06-.18,0-.48,0V32.7c.38.11.2,0,.6,0C21.18,32.75,21.6,32.84,21,32.89Z" fill-rule="evenodd"/><path d="M21,32.36c-.1.08.21.14,0,.17s-.19,0-.36,0a1,1,0,0,1,.71-.13S21.2,32.35,21,32.36Z" fill-rule="evenodd"/><path d="M40.54,32.12c.36,0,.44.26.25.15C40.8,32.2,40.41,32.21,40.54,32.12Z" fill-rule="evenodd"/><path d="M41,32.12c-.34,0,0-.15,0-.21C41.29,32,40.85,32,41,32.12Z" fill-rule="evenodd"/><path d="M22.26,31.74a2.12,2.12,0,0,1-.47.06c-.06-.15,0-.21-.15-.32a5.32,5.32,0,0,0,.6,0v.06c-.14,0-.1,0-.12-.06C21.7,31.55,21.89,31.73,22.26,31.74Z" fill-rule="evenodd"/><path d="M18.75,31.4c-.16-.07.17-.14,0-.26C19.06,31.22,18.92,31.32,18.75,31.4Z" fill-rule="evenodd"/><path d="M13.82,31.18c.1.07-.41,0-.23.11a6.49,6.49,0,0,0-.73-.11C13.25,31.12,13.38,31.28,13.82,31.18Z" fill-rule="evenodd"/><path d="M19.69,31.17c.24,0,.2-.13.34-.19H19.8C20.22,30.88,20.25,31.18,19.69,31.17Z" fill-rule="evenodd"/><path d="M15.47,30.83a3.86,3.86,0,0,1-.48,0c.06,0,.83,0,.47-.13.11-.07.2,0,.36,0C15.69,30.76,15.43,30.77,15.47,30.83Z" fill-rule="evenodd"/><path d="M20,30.78c-.5,0,0-.14.1-.19a2.71,2.71,0,0,0,.36,0c-.29-.08.26-.06.35-.13s-.24,0-.24,0,.1-.1.47-.09c-.19.11-.15.1,0,.21h-.36s0,.08-.11.11a1.82,1.82,0,0,1,.6,0c.29,0-.07-.1.36-.06l-.35.13c-.17-.09-.41,0-.84,0,.22,0,0-.05,0-.11C19.89,30.62,20,30.72,20,30.78Z" fill-rule="evenodd"/><path d="M15,30.71c.15-.06.26-.06.11-.13a.84.84,0,0,0,.36,0S15.38,30.7,15,30.71Z" fill-rule="evenodd"/><path d="M20.47,30.38c-.44-.06.23-.11.47-.13-.08,0-.28,0-.25-.06C21.51,30.23,20.54,30.3,20.47,30.38Z" fill-rule="evenodd"/><path d="M74.59,29.12c-.14,0,.09-.19.1-.27C75,28.91,74.66,29,74.59,29.12Z" fill-rule="evenodd"/><path d="M45.89,28.81s.09.08.12,0-.22.13-.6,0c0,0,.51,0,.11-.06C45.58,28.77,45.68,28.81,45.89,28.81Z" fill-rule="evenodd"/><path d="M45.83,28.09c-.14,0-.07,0,0,0-.14,0-.35,0-.25-.1C45.86,28,46.08,28,45.83,28.09Z" fill-rule="evenodd"/><path d="M74.38,28c-.4-.06-.11-.13,0-.21S74.24,27.93,74.38,28Z" fill-rule="evenodd"/><path d="M75.14,25.74v0c-.1,0-.11,0-.12,0a2.06,2.06,0,0,1-.49-.17C74.92,25.63,74.63,25.72,75.14,25.74Z" fill-rule="evenodd"/><path d="M74.59,25c.31,0-.24.2.25.1-.4.17-.49.32-.2.49,0-.14.3-.15.46-.22.35.14-.51.22,0,.31a.92.92,0,0,1,.36,0c0-.05-.08-.12.23-.12s-.27.17.26.19a3.53,3.53,0,0,1-.12-1.43c-.17,0-.15.1-.35.12,0,0,0,0-.12,0s0,0-.12,0c.11-.07-.16-.19-.37-.14.4,0,.13.13,0,.18.23.05.62,0,.72,0-.41.13.39.35-.32.41-.32-.07.38-.29-.51-.35,0,.12.3.26-.21.35l.36.06C74.75,25,74.73,24.92,74.59,25Zm.51.35c-.38,0-.44-.09-.25-.12S75.12,25.25,75.1,25.31Z" fill-rule="evenodd"/><path d="M70.09,25.6c-.27,0-.06-.09-.13-.12.11,0,.22,0,.24,0C70.45,25.49,70,25.56,70.09,25.6Z" fill-rule="evenodd"/><path d="M72.26,24.27c-.2-.06-.59-.18-.26-.27C72.21,24.07,72.12,24.19,72.26,24.27Z" fill-rule="evenodd"/><path d="M73,24.13a2.39,2.39,0,0,1-.48,0c0-.05-.47-.18.23-.16C72.63,24.05,72.25,24.13,73,24.13Z" fill-rule="evenodd"/><path d="M75.66,23.37a.58.58,0,0,0-.24,0c-.36-.07-.13-.16.1-.22S75.44,23.29,75.66,23.37Z" fill-rule="evenodd"/><path d="M13.25,22.85c.06.06-.41.12-.59.06S13,22.89,13.25,22.85Z" fill-rule="evenodd"/><path d="M72.39,23s-.14,0-.11.08c-.44,0-.26-.08-.37-.17C72.06,22.89,72,23,72.39,23Z" fill-rule="evenodd"/><path d="M72.95,22.47c-.39-.08,0-.25-.51-.35C73.11,22.18,72.84,22.35,72.95,22.47Z" fill-rule="evenodd"/><path d="M73.65,22.25c.21,0,.23,0,.24,0,.28,0,.28.06.13.08s-.87-.09-.37-.08Z" fill-rule="evenodd"/><path d="M12.44,21.71c-.29,0,.3-.14,0-.19a.9.9,0,0,0,.59-.08c.43,0,.1.11.14.19A1.06,1.06,0,0,0,12.44,21.71Z" fill-rule="evenodd"/><path d="M.77,21.37c.26,0,.06.08.13.11-.59,0-.73-.1-.85-.2Z" fill-rule="evenodd"/><path d="M75.73,21.34c-.5,0,0-.1,0-.16C76,21.2,75.57,21.27,75.73,21.34Z" fill-rule="evenodd"/><path d="M11.61,18.83c.18,0,0,0,0,.06-.18,0-.26-.07-.24,0-.2,0-.27-.13-.13-.17S11.38,18.91,11.61,18.83Z" fill-rule="evenodd"/><path d="M12.27,16.44c0,.06-.34-.15-.61-.18.21,0,.63-.11.35-.15.64,0,0,.11,0,.21a.8.8,0,0,0,.35-.08C12.66,16.29,12,16.34,12.27,16.44Z" fill-rule="evenodd"/><path d="M13.42,15.76c-.05,0,.17.13-.23.1.12-.12-.55-.15-.85-.09a1.29,1.29,0,0,0-.36,0A7.83,7.83,0,0,1,13.42,15.76Z" fill-rule="evenodd"/><path d="M12.07,15.39c.36,0,.73-.06.84,0-.09.07-.51,0-.83.06,0,0-.1,0-.24,0,.26-.13-.18-.18,0-.34.21,0,.32.08.13.11.47,0,.35.08.73.16h-.6Z" fill-rule="evenodd"/><path d="M6.61,14.45c.61,0,.41-.06.59-.1C7.61,14.41,6.67,14.61,6.61,14.45Z" fill-rule="evenodd"/><path d="M13.61,13.56s0,.3-.24.06A.84.84,0,0,0,13.61,13.56Z" fill-rule="evenodd"/><path d="M13.11,13.3c.15.08.34.15.26.26a2.52,2.52,0,0,0-.72,0c-.09-.06,0-.15.35-.17-.11,0-.18,0-.48,0,.16,0,.16-.1,0-.13C12.66,13.23,12.71,13.36,13.11,13.3Z" fill-rule="evenodd"/><path d="M14.08,13.33c-.58-.09-1.23-.46-1.25-.68a1.46,1.46,0,0,0-.36,0,1.2,1.2,0,0,1,.6,0c0-.09-.19-.1.11-.15a.91.91,0,0,0-.36,0c.22-.46-.17-.83-.44-1.14.38.07.2-.07.72,0-.06,0-.13,0-.13-.07-.23,0-.09.08-.48.06.21-.1.08-.15.71-.18.35,0-.55.11.25.11,0,.65-.09,1-.11,1.75-.08.06.25,0,.36.07-.21,0,0,.1-.23.1a1.24,1.24,0,0,0,.48.07C14,13.19,13.8,13.3,14.08,13.33Z" fill-rule="evenodd"/><path d="M24,11.74c-.36,0-.16-.1-.37-.13a.81.81,0,0,0-.23.06c-.81-.14-.2-.36-.4-.56.7.07.91-.41.21-.47-.11-.07.31,0,.35-.08a3.82,3.82,0,0,1-.61-.16,3.36,3.36,0,0,0,.48,0c-.2-.09.58-.13.83-.2-.34,0-.24-.1-.13-.15.27.1.43,0,.35-.1.32.13.74.17.74.31-.16,0-.19,0-.36,0-.35.06-.44.18-.34.27a2.2,2.2,0,0,1-.6,0c.39.07-.12.25.62.31-.09,0-.25.08-.23.15-.48,0,0-.06,0-.13l-.36,0C24,11,23.85,11.43,24,11.74Z" fill-rule="evenodd"/><path d="M28.45,11.58c-.33,0-.2.16-.59.18,0-.09.35-.2.22-.25C28.15,11.46,28.34,11.57,28.45,11.58Z" fill-rule="evenodd"/><path d="M87.59,12.15a3.56,3.56,0,0,0-.48,0c.39,0,.6-.08.35-.16a2.26,2.26,0,0,0,.36,0c.43,0,0,.05.13.12C87.57,12,87.56,12.09,87.59,12.15Z" fill-rule="evenodd"/><path d="M18.57,10.8c.2.13.1.19.26.32-.15,0-.25,0-.25-.07a2.55,2.55,0,0,1-.36,0c.37-.12.14-.21-.14-.32C18.19,10.78,18.6,10.94,18.57,10.8Z" fill-rule="evenodd"/><path d="M18.3,10.49c-.31,0,.12-.09.47-.06-.09,0-.12,0-.11.08C18.49,10.53,18.37,10.43,18.3,10.49Z" fill-rule="evenodd"/><path d="M15.54,10.35c-.1,0-.11,0-.12,0h-.24c.55,0,0-.26.82-.22.06,0-.17,0-.36,0S15.6,10.3,15.54,10.35Z" fill-rule="evenodd"/><path d="M6.84,9.42c0-.06.27-.06.23-.13.12.05.54.1.37.18.22,0,.25,0,.48,0,0,.08-.16.08,0,.15s.24,0,.23-.06c.35,0,.07.07.49.11a2,2,0,0,1-.6,0c-.14,0-.34,0-.35.1a1.28,1.28,0,0,0-.36,0C7.19,9.55,7.33,9.49,6.84,9.42Z" fill-rule="evenodd"/><path d="M32.29,10a.14.14,0,0,1-.12,0,1.21,1.21,0,0,1-.36,0c.06-.06.35-.09.47-.14C32.63,9.82,32,10,32.29,10Z" fill-rule="evenodd"/><path d="M29.4,9.75c-.23,0-.54-.05-.49-.13.61.09-.2-.13.11-.19,0,0-.54-.06-.48,0s.14-.42.68-.54c-.78-.06.25-.15-.5-.2,0,0,.41,0,.48,0-.42-.11.22-.21.1-.29,0,0,1,0,.48-.06.49,0,.27.12-.23.12.08.09,0,.15-.22.23a1.08,1.08,0,0,0,.48,0c-.08.12-.32.12,0,.23-1.27-.06,0,.29-.93.39C29.35,9.41,29.13,9.57,29.4,9.75Z" fill-rule="evenodd"/><path d="M20.73,9.18c-.21,0-.27-.07-.25-.13-.34,0-.31,0-.6,0,0-.12-.29-.18-.5-.26.72.06.42-.43,1.41-.45-.09,0-.13-.05-.13-.09.35,0,.55-.09.59-.18.85-.09,1-.32,1.77-.38-.2.06.12.19.13.15.37.38-1.25,1,.33,1.3.17-.07-.59-.14-.38-.28a11.75,11.75,0,0,1,1.22.29c.34,0-.15-.14.35-.1.21,0-.1.07,0,.15-.8-.1-.69.2-.58.27-.24,0-.16-.06-.48,0-.08-.08.3-.13,0-.19-.81.08-.3.24-.45.4-.12-.16-1.32-.33-1.71-.51.1-.08.11-.2-.49-.22,0,0,.41,0,.35-.1-.24-.07-.65,0-.49-.16a2,2,0,0,0-.48,0c-.52,0,.19.28-.46.23-.06,0,.23,0,.25.07.29,0-.07-.1.35-.06.24,0,.08.1-.35.08C20.19,9,20.77,9.05,20.73,9.18Z" fill-rule="evenodd"/><path d="M30.34,9.51c-.27,0,.15-.05,0-.11a2.08,2.08,0,0,1,.6,0C30.69,9.45,30.38,9.41,30.34,9.51Z" fill-rule="evenodd"/><path d="M30,8.61c0-.08,0-.18.22-.27C30.26,8.36,30.48,8.61,30,8.61Z" fill-rule="evenodd"/><path d="M25,8.18c1,0,0,.25-.21.36C24.75,8.4,24.69,8.26,25,8.18Z" fill-rule="evenodd"/><path d="M53.14,8.24c-.05-.09.51-.06.59-.12S53.63,8.27,53.14,8.24Z" fill-rule="evenodd"/><path d="M82.41,6.95c0-.08.56-.06.71-.11S82.79,7,82.41,6.95Z" fill-rule="evenodd"/><path d="M66.79,6.36c-.3,0,.22-.05.11-.1.24,0,.32.06.37.11C67.06,6.35,66.89,6.3,66.79,6.36Z" fill-rule="evenodd"/><path d="M83.56,6.34s0-.15.47-.18A.94.94,0,0,1,83.56,6.34Z" fill-rule="evenodd"/><path d="M84.76,6.3c-.4,0,.2-.08.23-.12C85.2,6,85,6.28,84.76,6.3Z" fill-rule="evenodd"/><path d="M73.25,4.56s-.15,0-.13-.08c.46,0,.45.16.37.19a3.06,3.06,0,0,0-1,0,2.84,2.84,0,0,0-1-.08,1.85,1.85,0,0,1,.71-.19C72.2,4.49,72.14,4.6,73.25,4.56Z" fill-rule="evenodd"/><path d="M71.42,2.29c-.25.08.11.06.36,0-.55,0-.19-.14-.38-.25a5.79,5.79,0,0,1,.72,0c0,.06-.37.22.49.22.43.16.26.42.88.55,1.21,0,.67-.2.21-.37a1.38,1.38,0,0,0,.59-.07c1.31.13.31.37,0,.53-.14-.05-.45,0-.6,0a17.28,17.28,0,0,1-2,.33s.22,0,.13.11a4,4,0,0,0-.6,0c.24.08.37.17-.35.12,0,0-.11.1.25.09-.15,0-.48,0-.59.07s.39,0,.25.09c-.58,0-.44.15-1.07.14.43.1-.47.21-1.06.25-1.07-.29.69-.43.66-.79.77,0,.93-.09.71-.21a3,3,0,0,1,.72,0c0-.08,0-.13.11-.18-.69-.21-1.79-.38-2-.72.42,0,.19,0,.35-.1.33.1.89.17,1.34.25A7.14,7.14,0,0,1,71.42,2.29Z" fill-rule="evenodd"/><path d="M49.53,50.93a3.39,3.39,0,0,0-.48,0c.07-.09-.22-.11-.14-.21.27,0,.8,0,.47,0,.15-.05.6.08.47-.07.46,0,.2.13.73.11A2.92,2.92,0,0,0,49.53,50.93Z" fill-rule="evenodd"/><path d="M11.22,35.79c-.34,0-.39-.14-.74-.19,0,0,.3,0,.59,0-.14,0-.11,0,.12,0-.35-.06-.06-.11-.38-.19.27,0,.66-.07.59-.17.26.15-.15.3.15.39a3.55,3.55,0,0,0-.59.13c.16.06.54.07.5.17-.24,0-.37,0-.35,0a2.72,2.72,0,0,0-.36,0C10.86,35.83,11.06,35.81,11.22,35.79Z" fill-rule="evenodd"/><path d="M19,31.11c-.09,0-.38,0-.37-.08.55,0,.44-.09.47-.17.49,0,.14.13.26.19C19.21,31.06,18.88,31,19,31.11Z" fill-rule="evenodd"/><path d="M10.27,10.39c.27,0,.09.07.6.07-.41,0-.23.15-.83.14a3.45,3.45,0,0,0,1.57.19c.82.23.12.52-.67.64a7,7,0,0,1-2.77-.23c-.33-.26,1.33-.52.67-.72.18-.07.2-.28.57-.38a6.58,6.58,0,0,0,.72,0c.11.08-.1.22.49.22A1.1,1.1,0,0,1,10.27,10.39Z" fill-rule="evenodd"/></g></g></svg>